  0
SECTION
  2
HEADER
  9
$ANGBASE
  50
0.0
  9
$ANGDIR
  70
1
  9
$MEASUREMENT
  70
1
  0
ENDSEC
  0
SECTION
  2
TABLES
  0
TABLE
  2
LTYPE
  70
4
  0
LTYPE
  5
40F
  2
CONTINUOUS
  70
0
  3
Solid line
  72
65
  73
0
  40
0.0
  0
LTYPE
  5
410
  2
DASHDOT
 70
0
  3
Dash Dot ____ _ ____ _
 72
65
 73
4
 40
2.0
 49
1.25
 49
-0.25
 49
0.25
 49
-0.25
  0
LTYPE
  5
411
  2
DASHED
 70
0
  3
Dashed __ __ __ __ __
 72
65
 73
2
 40
0.75
 49
0.5
 49
-0.25
  0
LTYPE
  5
43B
  2
DOTTED
 70
0
  3
Dotted .  .  .  .
 72
65
 73
2
 40
0.2
 49
0.0
 49
-0.2
  0
ENDTAB
  0
TABLE
  2
STYLE
  70
4
  0
STYLE
  2
KICAD
  70
0
  40
0
  41
1
  42
1
  50
0
  71
0
  3
isocp.shx
  0
STYLE
  2
KICADB
  70
0
  40
0
  41
1
  42
1
  50
0
  71
0
  3
isocp.shx
  0
STYLE
  2
KICADI
  70
0
  40
0
  41
1
  42
1
  50
15
  71
0
  3
isocp.shx
  0
STYLE
  2
KICADBI
  70
0
  40
0
  41
1
  42
1
  50
15
  71
0
  3
isocp.shx
  0
ENDTAB
  0
TABLE
  2
LAYER
  70
1
  0
LAYER
  2
BLACK
  70
0
  62
7
  6
CONTINUOUS
  0
ENDTAB
  0
ENDSEC
  0
SECTION
  2
ENTITIES
0
LINE
8
BLACK
6
CONTINUOUS
10
125.0515369999999962
20
-97.6152239999999978
11
125.1164209999999883
21
-97.6585789999999889
0
LINE
8
BLACK
6
CONTINUOUS
10
125.1164209999999883
20
-97.6585789999999889
11
125.1597759999999937
21
-97.7234629999999953
0
LINE
8
BLACK
6
CONTINUOUS
10
125.1597759999999937
20
-97.7234629999999953
11
125.1749999999999972
21
-97.7999999999999972
0
LINE
8
BLACK
6
CONTINUOUS
10
125.1749999999999972
20
-97.7999999999999972
11
125.1749999999999972
21
-98.1999999999999886
0
LINE
8
BLACK
6
CONTINUOUS
10
125.1749999999999972
20
-98.1999999999999886
11
125.1597759999999937
21
-98.2765369999999905
0
LINE
8
BLACK
6
CONTINUOUS
10
125.1597759999999937
20
-98.2765369999999905
11
125.1164209999999883
21
-98.3414209999999969
0
LINE
8
BLACK
6
CONTINUOUS
10
125.1164209999999883
20
-98.3414209999999969
11
125.0515369999999962
21
-98.3847760000000022
0
LINE
8
BLACK
6
CONTINUOUS
10
125.0515369999999962
20
-98.3847760000000022
11
124.9749999999999943
21
-98.3999999999999915
0
LINE
8
BLACK
6
CONTINUOUS
10
124.9749999999999943
20
-98.3999999999999915
11
124.4249999999999972
21
-98.3999999999999915
0
LINE
8
BLACK
6
CONTINUOUS
10
124.4249999999999972
20
-98.3999999999999915
11
124.3484629999999953
21
-98.3847760000000022
0
LINE
8
BLACK
6
CONTINUOUS
10
124.3484629999999953
20
-98.3847760000000022
11
124.2835789999999889
21
-98.3414209999999969
0
LINE
8
BLACK
6
CONTINUOUS
10
124.2835789999999889
20
-98.3414209999999969
11
124.2402239999999978
21
-98.2765369999999905
0
LINE
8
BLACK
6
CONTINUOUS
10
124.2402239999999978
20
-98.2765369999999905
11
124.2249999999999943
21
-98.1999999999999886
0
LINE
8
BLACK
6
CONTINUOUS
10
124.2249999999999943
20
-98.1999999999999886
11
124.2249999999999943
21
-97.7999999999999972
0
LINE
8
BLACK
6
CONTINUOUS
10
124.2249999999999943
20
-97.7999999999999972
11
124.2402239999999978
21
-97.7234629999999953
0
LINE
8
BLACK
6
CONTINUOUS
10
124.2402239999999978
20
-97.7234629999999953
11
124.2835789999999889
21
-97.6585789999999889
0
LINE
8
BLACK
6
CONTINUOUS
10
124.2835789999999889
20
-97.6585789999999889
11
124.3484629999999953
21
-97.6152239999999978
0
LINE
8
BLACK
6
CONTINUOUS
10
124.3484629999999953
20
-97.6152239999999978
11
124.4249999999999972
21
-97.5999999999999943
0
LINE
8
BLACK
6
CONTINUOUS
10
124.4249999999999972
20
-97.5999999999999943
11
124.9749999999999943
21
-97.5999999999999943
0
LINE
8
BLACK
6
CONTINUOUS
10
124.9749999999999943
20
-97.5999999999999943
11
125.0515369999999962
21
-97.6152239999999978
0
LINE
8
BLACK
6
CONTINUOUS
10
140.5515369999999962
20
-97.6152239999999978
11
140.6164210000000026
21
-97.6585789999999889
0
LINE
8
BLACK
6
CONTINUOUS
10
140.6164210000000026
20
-97.6585789999999889
11
140.6597759999999937
21
-97.7234629999999953
0
LINE
8
BLACK
6
CONTINUOUS
10
140.6597759999999937
20
-97.7234629999999953
11
140.6749999999999829
21
-97.7999999999999972
0
LINE
8
BLACK
6
CONTINUOUS
10
140.6749999999999829
20
-97.7999999999999972
11
140.6749999999999829
21
-98.1999999999999886
0
LINE
8
BLACK
6
CONTINUOUS
10
140.6749999999999829
20
-98.1999999999999886
11
140.6597759999999937
21
-98.2765369999999905
0
LINE
8
BLACK
6
CONTINUOUS
10
140.6597759999999937
20
-98.2765369999999905
11
140.6164210000000026
21
-98.3414209999999969
0
LINE
8
BLACK
6
CONTINUOUS
10
140.6164210000000026
20
-98.3414209999999969
11
140.5515369999999962
21
-98.3847760000000022
0
LINE
8
BLACK
6
CONTINUOUS
10
140.5515369999999962
20
-98.3847760000000022
11
140.4749999999999943
21
-98.3999999999999915
0
LINE
8
BLACK
6
CONTINUOUS
10
140.4749999999999943
20
-98.3999999999999915
11
139.9249999999999829
21
-98.3999999999999915
0
LINE
8
BLACK
6
CONTINUOUS
10
139.9249999999999829
20
-98.3999999999999915
11
139.8484629999999811
21
-98.3847760000000022
0
LINE
8
BLACK
6
CONTINUOUS
10
139.8484629999999811
20
-98.3847760000000022
11
139.7835790000000031
21
-98.3414209999999969
0
LINE
8
BLACK
6
CONTINUOUS
10
139.7835790000000031
20
-98.3414209999999969
11
139.7402239999999836
21
-98.2765369999999905
0
LINE
8
BLACK
6
CONTINUOUS
10
139.7402239999999836
20
-98.2765369999999905
11
139.7249999999999943
21
-98.1999999999999886
0
LINE
8
BLACK
6
CONTINUOUS
10
139.7249999999999943
20
-98.1999999999999886
11
139.7249999999999943
21
-97.7999999999999972
0
LINE
8
BLACK
6
CONTINUOUS
10
139.7249999999999943
20
-97.7999999999999972
11
139.7402239999999836
21
-97.7234629999999953
0
LINE
8
BLACK
6
CONTINUOUS
10
139.7402239999999836
20
-97.7234629999999953
11
139.7835790000000031
21
-97.6585789999999889
0
LINE
8
BLACK
6
CONTINUOUS
10
139.7835790000000031
20
-97.6585789999999889
11
139.8484629999999811
21
-97.6152239999999978
0
LINE
8
BLACK
6
CONTINUOUS
10
139.8484629999999811
20
-97.6152239999999978
11
139.9249999999999829
21
-97.5999999999999943
0
LINE
8
BLACK
6
CONTINUOUS
10
139.9249999999999829
20
-97.5999999999999943
11
140.4749999999999943
21
-97.5999999999999943
0
LINE
8
BLACK
6
CONTINUOUS
10
140.4749999999999943
20
-97.5999999999999943
11
140.5515369999999962
21
-97.6152239999999978
0
LINE
8
BLACK
6
CONTINUOUS
10
126.1864179999999891
20
-97.7547579999999954
11
126.2066939999999988
21
-97.7683059999999955
0
LINE
8
BLACK
6
CONTINUOUS
10
126.2066939999999988
20
-97.7683059999999955
11
126.2202419999999989
21
-97.788581999999991
0
LINE
8
BLACK
6
CONTINUOUS
10
126.2202419999999989
20
-97.788581999999991
11
126.2249999999999943
21
-97.8125
0
LINE
8
BLACK
6
CONTINUOUS
10
126.2249999999999943
20
-97.8125
11
126.2249999999999943
21
-98.1875
0
LINE
8
BLACK
6
CONTINUOUS
10
126.2249999999999943
20
-98.1875
11
126.2202419999999989
21
-98.2114179999999948
0
LINE
8
BLACK
6
CONTINUOUS
10
126.2202419999999989
20
-98.2114179999999948
11
126.2066939999999988
21
-98.2316939999999903
0
LINE
8
BLACK
6
CONTINUOUS
10
126.2066939999999988
20
-98.2316939999999903
11
126.1864179999999891
21
-98.2452419999999904
0
LINE
8
BLACK
6
CONTINUOUS
10
126.1864179999999891
20
-98.2452419999999904
11
126.1624999999999943
21
-98.25
0
LINE
8
BLACK
6
CONTINUOUS
10
126.1624999999999943
20
-98.25
11
126.0374999999999943
21
-98.25
0
LINE
8
BLACK
6
CONTINUOUS
10
126.0374999999999943
20
-98.25
11
126.0135819999999995
21
-98.2452419999999904
0
LINE
8
BLACK
6
CONTINUOUS
10
126.0135819999999995
20
-98.2452419999999904
11
125.9933059999999898
21
-98.2316939999999903
0
LINE
8
BLACK
6
CONTINUOUS
10
125.9933059999999898
20
-98.2316939999999903
11
125.9797579999999897
21
-98.2114179999999948
0
LINE
8
BLACK
6
CONTINUOUS
10
125.9797579999999897
20
-98.2114179999999948
11
125.9749999999999943
21
-98.1875
0
LINE
8
BLACK
6
CONTINUOUS
10
125.9749999999999943
20
-98.1875
11
125.9749999999999943
21
-97.8125
0
LINE
8
BLACK
6
CONTINUOUS
10
125.9749999999999943
20
-97.8125
11
125.9797579999999897
21
-97.788581999999991
0
LINE
8
BLACK
6
CONTINUOUS
10
125.9797579999999897
20
-97.788581999999991
11
125.9933059999999898
21
-97.7683059999999955
0
LINE
8
BLACK
6
CONTINUOUS
10
125.9933059999999898
20
-97.7683059999999955
11
126.0135819999999995
21
-97.7547579999999954
0
LINE
8
BLACK
6
CONTINUOUS
10
126.0135819999999995
20
-97.7547579999999954
11
126.0374999999999943
21
-97.75
0
LINE
8
BLACK
6
CONTINUOUS
10
126.0374999999999943
20
-97.75
11
126.1624999999999943
21
-97.75
0
LINE
8
BLACK
6
CONTINUOUS
10
126.1624999999999943
20
-97.75
11
126.1864179999999891
21
-97.7547579999999954
0
LINE
8
BLACK
6
CONTINUOUS
10
126.6864179999999891
20
-97.7547579999999954
11
126.7066939999999988
21
-97.7683059999999955
0
LINE
8
BLACK
6
CONTINUOUS
10
126.7066939999999988
20
-97.7683059999999955
11
126.7202419999999989
21
-97.788581999999991
0
LINE
8
BLACK
6
CONTINUOUS
10
126.7202419999999989
20
-97.788581999999991
11
126.7249999999999943
21
-97.8125
0
LINE
8
BLACK
6
CONTINUOUS
10
126.7249999999999943
20
-97.8125
11
126.7249999999999943
21
-98.1875
0
LINE
8
BLACK
6
CONTINUOUS
10
126.7249999999999943
20
-98.1875
11
126.7202419999999989
21
-98.2114179999999948
0
LINE
8
BLACK
6
CONTINUOUS
10
126.7202419999999989
20
-98.2114179999999948
11
126.7066939999999988
21
-98.2316939999999903
0
LINE
8
BLACK
6
CONTINUOUS
10
126.7066939999999988
20
-98.2316939999999903
11
126.6864179999999891
21
-98.2452419999999904
0
LINE
8
BLACK
6
CONTINUOUS
10
126.6864179999999891
20
-98.2452419999999904
11
126.6624999999999943
21
-98.25
0
LINE
8
BLACK
6
CONTINUOUS
10
126.6624999999999943
20
-98.25
11
126.5374999999999943
21
-98.25
0
LINE
8
BLACK
6
CONTINUOUS
10
126.5374999999999943
20
-98.25
11
126.5135819999999995
21
-98.2452419999999904
0
LINE
8
BLACK
6
CONTINUOUS
10
126.5135819999999995
20
-98.2452419999999904
11
126.4933059999999898
21
-98.2316939999999903
0
LINE
8
BLACK
6
CONTINUOUS
10
126.4933059999999898
20
-98.2316939999999903
11
126.4797579999999897
21
-98.2114179999999948
0
LINE
8
BLACK
6
CONTINUOUS
10
126.4797579999999897
20
-98.2114179999999948
11
126.4749999999999943
21
-98.1875
0
LINE
8
BLACK
6
CONTINUOUS
10
126.4749999999999943
20
-98.1875
11
126.4749999999999943
21
-97.8125
0
LINE
8
BLACK
6
CONTINUOUS
10
126.4749999999999943
20
-97.8125
11
126.4797579999999897
21
-97.788581999999991
0
LINE
8
BLACK
6
CONTINUOUS
10
126.4797579999999897
20
-97.788581999999991
11
126.4933059999999898
21
-97.7683059999999955
0
LINE
8
BLACK
6
CONTINUOUS
10
126.4933059999999898
20
-97.7683059999999955
11
126.5135819999999995
21
-97.7547579999999954
0
LINE
8
BLACK
6
CONTINUOUS
10
126.5135819999999995
20
-97.7547579999999954
11
126.5374999999999943
21
-97.75
0
LINE
8
BLACK
6
CONTINUOUS
10
126.5374999999999943
20
-97.75
11
126.6624999999999943
21
-97.75
0
LINE
8
BLACK
6
CONTINUOUS
10
126.6624999999999943
20
-97.75
11
126.6864179999999891
21
-97.7547579999999954
0
LINE
8
BLACK
6
CONTINUOUS
10
127.1864179999999891
20
-97.7547579999999954
11
127.2066939999999988
21
-97.7683059999999955
0
LINE
8
BLACK
6
CONTINUOUS
10
127.2066939999999988
20
-97.7683059999999955
11
127.2202419999999989
21
-97.788581999999991
0
LINE
8
BLACK
6
CONTINUOUS
10
127.2202419999999989
20
-97.788581999999991
11
127.2249999999999943
21
-97.8125
0
LINE
8
BLACK
6
CONTINUOUS
10
127.2249999999999943
20
-97.8125
11
127.2249999999999943
21
-98.1875
0
LINE
8
BLACK
6
CONTINUOUS
10
127.2249999999999943
20
-98.1875
11
127.2202419999999989
21
-98.2114179999999948
0
LINE
8
BLACK
6
CONTINUOUS
10
127.2202419999999989
20
-98.2114179999999948
11
127.2066939999999988
21
-98.2316939999999903
0
LINE
8
BLACK
6
CONTINUOUS
10
127.2066939999999988
20
-98.2316939999999903
11
127.1864179999999891
21
-98.2452419999999904
0
LINE
8
BLACK
6
CONTINUOUS
10
127.1864179999999891
20
-98.2452419999999904
11
127.1624999999999943
21
-98.25
0
LINE
8
BLACK
6
CONTINUOUS
10
127.1624999999999943
20
-98.25
11
127.0374999999999943
21
-98.25
0
LINE
8
BLACK
6
CONTINUOUS
10
127.0374999999999943
20
-98.25
11
127.0135819999999995
21
-98.2452419999999904
0
LINE
8
BLACK
6
CONTINUOUS
10
127.0135819999999995
20
-98.2452419999999904
11
126.9933059999999898
21
-98.2316939999999903
0
LINE
8
BLACK
6
CONTINUOUS
10
126.9933059999999898
20
-98.2316939999999903
11
126.9797579999999897
21
-98.2114179999999948
0
LINE
8
BLACK
6
CONTINUOUS
10
126.9797579999999897
20
-98.2114179999999948
11
126.9749999999999943
21
-98.1875
0
LINE
8
BLACK
6
CONTINUOUS
10
126.9749999999999943
20
-98.1875
11
126.9749999999999943
21
-97.8125
0
LINE
8
BLACK
6
CONTINUOUS
10
126.9749999999999943
20
-97.8125
11
126.9797579999999897
21
-97.788581999999991
0
LINE
8
BLACK
6
CONTINUOUS
10
126.9797579999999897
20
-97.788581999999991
11
126.9933059999999898
21
-97.7683059999999955
0
LINE
8
BLACK
6
CONTINUOUS
10
126.9933059999999898
20
-97.7683059999999955
11
127.0135819999999995
21
-97.7547579999999954
0
LINE
8
BLACK
6
CONTINUOUS
10
127.0135819999999995
20
-97.7547579999999954
11
127.0374999999999943
21
-97.75
0
LINE
8
BLACK
6
CONTINUOUS
10
127.0374999999999943
20
-97.75
11
127.1624999999999943
21
-97.75
0
LINE
8
BLACK
6
CONTINUOUS
10
127.1624999999999943
20
-97.75
11
127.1864179999999891
21
-97.7547579999999954
0
LINE
8
BLACK
6
CONTINUOUS
10
127.6864179999999891
20
-97.7547579999999954
11
127.7066939999999988
21
-97.7683059999999955
0
LINE
8
BLACK
6
CONTINUOUS
10
127.7066939999999988
20
-97.7683059999999955
11
127.7202419999999989
21
-97.788581999999991
0
LINE
8
BLACK
6
CONTINUOUS
10
127.7202419999999989
20
-97.788581999999991
11
127.7249999999999943
21
-97.8125
0
LINE
8
BLACK
6
CONTINUOUS
10
127.7249999999999943
20
-97.8125
11
127.7249999999999943
21
-98.1875
0
LINE
8
BLACK
6
CONTINUOUS
10
127.7249999999999943
20
-98.1875
11
127.7202419999999989
21
-98.2114179999999948
0
LINE
8
BLACK
6
CONTINUOUS
10
127.7202419999999989
20
-98.2114179999999948
11
127.7066939999999988
21
-98.2316939999999903
0
LINE
8
BLACK
6
CONTINUOUS
10
127.7066939999999988
20
-98.2316939999999903
11
127.6864179999999891
21
-98.2452419999999904
0
LINE
8
BLACK
6
CONTINUOUS
10
127.6864179999999891
20
-98.2452419999999904
11
127.6624999999999943
21
-98.25
0
LINE
8
BLACK
6
CONTINUOUS
10
127.6624999999999943
20
-98.25
11
127.5374999999999943
21
-98.25
0
LINE
8
BLACK
6
CONTINUOUS
10
127.5374999999999943
20
-98.25
11
127.5135819999999995
21
-98.2452419999999904
0
LINE
8
BLACK
6
CONTINUOUS
10
127.5135819999999995
20
-98.2452419999999904
11
127.4933059999999898
21
-98.2316939999999903
0
LINE
8
BLACK
6
CONTINUOUS
10
127.4933059999999898
20
-98.2316939999999903
11
127.4797579999999897
21
-98.2114179999999948
0
LINE
8
BLACK
6
CONTINUOUS
10
127.4797579999999897
20
-98.2114179999999948
11
127.4749999999999943
21
-98.1875
0
LINE
8
BLACK
6
CONTINUOUS
10
127.4749999999999943
20
-98.1875
11
127.4749999999999943
21
-97.8125
0
LINE
8
BLACK
6
CONTINUOUS
10
127.4749999999999943
20
-97.8125
11
127.4797579999999897
21
-97.788581999999991
0
LINE
8
BLACK
6
CONTINUOUS
10
127.4797579999999897
20
-97.788581999999991
11
127.4933059999999898
21
-97.7683059999999955
0
LINE
8
BLACK
6
CONTINUOUS
10
127.4933059999999898
20
-97.7683059999999955
11
127.5135819999999995
21
-97.7547579999999954
0
LINE
8
BLACK
6
CONTINUOUS
10
127.5135819999999995
20
-97.7547579999999954
11
127.5374999999999943
21
-97.75
0
LINE
8
BLACK
6
CONTINUOUS
10
127.5374999999999943
20
-97.75
11
127.6624999999999943
21
-97.75
0
LINE
8
BLACK
6
CONTINUOUS
10
127.6624999999999943
20
-97.75
11
127.6864179999999891
21
-97.7547579999999954
0
LINE
8
BLACK
6
CONTINUOUS
10
141.6864180000000033
20
-97.7547579999999954
11
141.7066939999999988
21
-97.7683059999999955
0
LINE
8
BLACK
6
CONTINUOUS
10
141.7066939999999988
20
-97.7683059999999955
11
141.7202419999999847
21
-97.788581999999991
0
LINE
8
BLACK
6
CONTINUOUS
10
141.7202419999999847
20
-97.788581999999991
11
141.7249999999999943
21
-97.8125
0
LINE
8
BLACK
6
CONTINUOUS
10
141.7249999999999943
20
-97.8125
11
141.7249999999999943
21
-98.1875
0
LINE
8
BLACK
6
CONTINUOUS
10
141.7249999999999943
20
-98.1875
11
141.7202419999999847
21
-98.2114179999999948
0
LINE
8
BLACK
6
CONTINUOUS
10
141.7202419999999847
20
-98.2114179999999948
11
141.7066939999999988
21
-98.2316939999999903
0
LINE
8
BLACK
6
CONTINUOUS
10
141.7066939999999988
20
-98.2316939999999903
11
141.6864180000000033
21
-98.2452419999999904
0
LINE
8
BLACK
6
CONTINUOUS
10
141.6864180000000033
20
-98.2452419999999904
11
141.6624999999999943
21
-98.25
0
LINE
8
BLACK
6
CONTINUOUS
10
141.6624999999999943
20
-98.25
11
141.5374999999999943
21
-98.25
0
LINE
8
BLACK
6
CONTINUOUS
10
141.5374999999999943
20
-98.25
11
141.5135819999999853
21
-98.2452419999999904
0
LINE
8
BLACK
6
CONTINUOUS
10
141.5135819999999853
20
-98.2452419999999904
11
141.4933059999999898
21
-98.2316939999999903
0
LINE
8
BLACK
6
CONTINUOUS
10
141.4933059999999898
20
-98.2316939999999903
11
141.4797580000000039
21
-98.2114179999999948
0
LINE
8
BLACK
6
CONTINUOUS
10
141.4797580000000039
20
-98.2114179999999948
11
141.4749999999999943
21
-98.1875
0
LINE
8
BLACK
6
CONTINUOUS
10
141.4749999999999943
20
-98.1875
11
141.4749999999999943
21
-97.8125
0
LINE
8
BLACK
6
CONTINUOUS
10
141.4749999999999943
20
-97.8125
11
141.4797580000000039
21
-97.788581999999991
0
LINE
8
BLACK
6
CONTINUOUS
10
141.4797580000000039
20
-97.788581999999991
11
141.4933059999999898
21
-97.7683059999999955
0
LINE
8
BLACK
6
CONTINUOUS
10
141.4933059999999898
20
-97.7683059999999955
11
141.5135819999999853
21
-97.7547579999999954
0
LINE
8
BLACK
6
CONTINUOUS
10
141.5135819999999853
20
-97.7547579999999954
11
141.5374999999999943
21
-97.75
0
LINE
8
BLACK
6
CONTINUOUS
10
141.5374999999999943
20
-97.75
11
141.6624999999999943
21
-97.75
0
LINE
8
BLACK
6
CONTINUOUS
10
141.6624999999999943
20
-97.75
11
141.6864180000000033
21
-97.7547579999999954
0
LINE
8
BLACK
6
CONTINUOUS
10
142.1864180000000033
20
-97.7547579999999954
11
142.2066939999999988
21
-97.7683059999999955
0
LINE
8
BLACK
6
CONTINUOUS
10
142.2066939999999988
20
-97.7683059999999955
11
142.2202419999999847
21
-97.788581999999991
0
LINE
8
BLACK
6
CONTINUOUS
10
142.2202419999999847
20
-97.788581999999991
11
142.2249999999999943
21
-97.8125
0
LINE
8
BLACK
6
CONTINUOUS
10
142.2249999999999943
20
-97.8125
11
142.2249999999999943
21
-98.1875
0
LINE
8
BLACK
6
CONTINUOUS
10
142.2249999999999943
20
-98.1875
11
142.2202419999999847
21
-98.2114179999999948
0
LINE
8
BLACK
6
CONTINUOUS
10
142.2202419999999847
20
-98.2114179999999948
11
142.2066939999999988
21
-98.2316939999999903
0
LINE
8
BLACK
6
CONTINUOUS
10
142.2066939999999988
20
-98.2316939999999903
11
142.1864180000000033
21
-98.2452419999999904
0
LINE
8
BLACK
6
CONTINUOUS
10
142.1864180000000033
20
-98.2452419999999904
11
142.1624999999999943
21
-98.25
0
LINE
8
BLACK
6
CONTINUOUS
10
142.1624999999999943
20
-98.25
11
142.0374999999999943
21
-98.25
0
LINE
8
BLACK
6
CONTINUOUS
10
142.0374999999999943
20
-98.25
11
142.0135819999999853
21
-98.2452419999999904
0
LINE
8
BLACK
6
CONTINUOUS
10
142.0135819999999853
20
-98.2452419999999904
11
141.9933059999999898
21
-98.2316939999999903
0
LINE
8
BLACK
6
CONTINUOUS
10
141.9933059999999898
20
-98.2316939999999903
11
141.9797580000000039
21
-98.2114179999999948
0
LINE
8
BLACK
6
CONTINUOUS
10
141.9797580000000039
20
-98.2114179999999948
11
141.9749999999999943
21
-98.1875
0
LINE
8
BLACK
6
CONTINUOUS
10
141.9749999999999943
20
-98.1875
11
141.9749999999999943
21
-97.8125
0
LINE
8
BLACK
6
CONTINUOUS
10
141.9749999999999943
20
-97.8125
11
141.9797580000000039
21
-97.788581999999991
0
LINE
8
BLACK
6
CONTINUOUS
10
141.9797580000000039
20
-97.788581999999991
11
141.9933059999999898
21
-97.7683059999999955
0
LINE
8
BLACK
6
CONTINUOUS
10
141.9933059999999898
20
-97.7683059999999955
11
142.0135819999999853
21
-97.7547579999999954
0
LINE
8
BLACK
6
CONTINUOUS
10
142.0135819999999853
20
-97.7547579999999954
11
142.0374999999999943
21
-97.75
0
LINE
8
BLACK
6
CONTINUOUS
10
142.0374999999999943
20
-97.75
11
142.1624999999999943
21
-97.75
0
LINE
8
BLACK
6
CONTINUOUS
10
142.1624999999999943
20
-97.75
11
142.1864180000000033
21
-97.7547579999999954
0
LINE
8
BLACK
6
CONTINUOUS
10
142.6864180000000033
20
-97.7547579999999954
11
142.7066939999999988
21
-97.7683059999999955
0
LINE
8
BLACK
6
CONTINUOUS
10
142.7066939999999988
20
-97.7683059999999955
11
142.7202419999999847
21
-97.788581999999991
0
LINE
8
BLACK
6
CONTINUOUS
10
142.7202419999999847
20
-97.788581999999991
11
142.7249999999999943
21
-97.8125
0
LINE
8
BLACK
6
CONTINUOUS
10
142.7249999999999943
20
-97.8125
11
142.7249999999999943
21
-98.1875
0
LINE
8
BLACK
6
CONTINUOUS
10
142.7249999999999943
20
-98.1875
11
142.7202419999999847
21
-98.2114179999999948
0
LINE
8
BLACK
6
CONTINUOUS
10
142.7202419999999847
20
-98.2114179999999948
11
142.7066939999999988
21
-98.2316939999999903
0
LINE
8
BLACK
6
CONTINUOUS
10
142.7066939999999988
20
-98.2316939999999903
11
142.6864180000000033
21
-98.2452419999999904
0
LINE
8
BLACK
6
CONTINUOUS
10
142.6864180000000033
20
-98.2452419999999904
11
142.6624999999999943
21
-98.25
0
LINE
8
BLACK
6
CONTINUOUS
10
142.6624999999999943
20
-98.25
11
142.5374999999999943
21
-98.25
0
LINE
8
BLACK
6
CONTINUOUS
10
142.5374999999999943
20
-98.25
11
142.5135819999999853
21
-98.2452419999999904
0
LINE
8
BLACK
6
CONTINUOUS
10
142.5135819999999853
20
-98.2452419999999904
11
142.4933059999999898
21
-98.2316939999999903
0
LINE
8
BLACK
6
CONTINUOUS
10
142.4933059999999898
20
-98.2316939999999903
11
142.4797580000000039
21
-98.2114179999999948
0
LINE
8
BLACK
6
CONTINUOUS
10
142.4797580000000039
20
-98.2114179999999948
11
142.4749999999999943
21
-98.1875
0
LINE
8
BLACK
6
CONTINUOUS
10
142.4749999999999943
20
-98.1875
11
142.4749999999999943
21
-97.8125
0
LINE
8
BLACK
6
CONTINUOUS
10
142.4749999999999943
20
-97.8125
11
142.4797580000000039
21
-97.788581999999991
0
LINE
8
BLACK
6
CONTINUOUS
10
142.4797580000000039
20
-97.788581999999991
11
142.4933059999999898
21
-97.7683059999999955
0
LINE
8
BLACK
6
CONTINUOUS
10
142.4933059999999898
20
-97.7683059999999955
11
142.5135819999999853
21
-97.7547579999999954
0
LINE
8
BLACK
6
CONTINUOUS
10
142.5135819999999853
20
-97.7547579999999954
11
142.5374999999999943
21
-97.75
0
LINE
8
BLACK
6
CONTINUOUS
10
142.5374999999999943
20
-97.75
11
142.6624999999999943
21
-97.75
0
LINE
8
BLACK
6
CONTINUOUS
10
142.6624999999999943
20
-97.75
11
142.6864180000000033
21
-97.7547579999999954
0
LINE
8
BLACK
6
CONTINUOUS
10
143.1864180000000033
20
-97.7547579999999954
11
143.2066939999999988
21
-97.7683059999999955
0
LINE
8
BLACK
6
CONTINUOUS
10
143.2066939999999988
20
-97.7683059999999955
11
143.2202419999999847
21
-97.788581999999991
0
LINE
8
BLACK
6
CONTINUOUS
10
143.2202419999999847
20
-97.788581999999991
11
143.2249999999999943
21
-97.8125
0
LINE
8
BLACK
6
CONTINUOUS
10
143.2249999999999943
20
-97.8125
11
143.2249999999999943
21
-98.1875
0
LINE
8
BLACK
6
CONTINUOUS
10
143.2249999999999943
20
-98.1875
11
143.2202419999999847
21
-98.2114179999999948
0
LINE
8
BLACK
6
CONTINUOUS
10
143.2202419999999847
20
-98.2114179999999948
11
143.2066939999999988
21
-98.2316939999999903
0
LINE
8
BLACK
6
CONTINUOUS
10
143.2066939999999988
20
-98.2316939999999903
11
143.1864180000000033
21
-98.2452419999999904
0
LINE
8
BLACK
6
CONTINUOUS
10
143.1864180000000033
20
-98.2452419999999904
11
143.1624999999999943
21
-98.25
0
LINE
8
BLACK
6
CONTINUOUS
10
143.1624999999999943
20
-98.25
11
143.0374999999999943
21
-98.25
0
LINE
8
BLACK
6
CONTINUOUS
10
143.0374999999999943
20
-98.25
11
143.0135819999999853
21
-98.2452419999999904
0
LINE
8
BLACK
6
CONTINUOUS
10
143.0135819999999853
20
-98.2452419999999904
11
142.9933059999999898
21
-98.2316939999999903
0
LINE
8
BLACK
6
CONTINUOUS
10
142.9933059999999898
20
-98.2316939999999903
11
142.9797580000000039
21
-98.2114179999999948
0
LINE
8
BLACK
6
CONTINUOUS
10
142.9797580000000039
20
-98.2114179999999948
11
142.9749999999999943
21
-98.1875
0
LINE
8
BLACK
6
CONTINUOUS
10
142.9749999999999943
20
-98.1875
11
142.9749999999999943
21
-97.8125
0
LINE
8
BLACK
6
CONTINUOUS
10
142.9749999999999943
20
-97.8125
11
142.9797580000000039
21
-97.788581999999991
0
LINE
8
BLACK
6
CONTINUOUS
10
142.9797580000000039
20
-97.788581999999991
11
142.9933059999999898
21
-97.7683059999999955
0
LINE
8
BLACK
6
CONTINUOUS
10
142.9933059999999898
20
-97.7683059999999955
11
143.0135819999999853
21
-97.7547579999999954
0
LINE
8
BLACK
6
CONTINUOUS
10
143.0135819999999853
20
-97.7547579999999954
11
143.0374999999999943
21
-97.75
0
LINE
8
BLACK
6
CONTINUOUS
10
143.0374999999999943
20
-97.75
11
143.1624999999999943
21
-97.75
0
LINE
8
BLACK
6
CONTINUOUS
10
143.1624999999999943
20
-97.75
11
143.1864180000000033
21
-97.7547579999999954
0
LINE
8
BLACK
6
CONTINUOUS
10
144.8861039999999889
20
-97.3171269999999993
11
144.9590989999999806
21
-97.3659009999999938
0
LINE
8
BLACK
6
CONTINUOUS
10
144.9590989999999806
20
-97.3659009999999938
11
145.0078729999999894
21
-97.4388959999999997
0
LINE
8
BLACK
6
CONTINUOUS
10
145.0078729999999894
20
-97.4388959999999997
11
145.0250000000000057
21
-97.5249999999999915
0
LINE
8
BLACK
6
CONTINUOUS
10
145.0250000000000057
20
-97.5249999999999915
11
145.0250000000000057
21
-97.9749999999999943
0
LINE
8
BLACK
6
CONTINUOUS
10
145.0250000000000057
20
-97.9749999999999943
11
145.0078729999999894
21
-98.0611040000000003
0
LINE
8
BLACK
6
CONTINUOUS
10
145.0078729999999894
20
-98.0611040000000003
11
144.9590989999999806
21
-98.134098999999992
0
LINE
8
BLACK
6
CONTINUOUS
10
144.9590989999999806
20
-98.134098999999992
11
144.8861039999999889
21
-98.1828730000000007
0
LINE
8
BLACK
6
CONTINUOUS
10
144.8861039999999889
20
-98.1828730000000007
11
144.7999999999999829
21
-98.1999999999999886
0
LINE
8
BLACK
6
CONTINUOUS
10
144.7999999999999829
20
-98.1999999999999886
11
144.2999999999999829
21
-98.1999999999999886
0
LINE
8
BLACK
6
CONTINUOUS
10
144.2999999999999829
20
-98.1999999999999886
11
144.2138960000000054
21
-98.1828730000000007
0
LINE
8
BLACK
6
CONTINUOUS
10
144.2138960000000054
20
-98.1828730000000007
11
144.1409009999999853
21
-98.134098999999992
0
LINE
8
BLACK
6
CONTINUOUS
10
144.1409009999999853
20
-98.134098999999992
11
144.092127000000005
21
-98.0611040000000003
0
LINE
8
BLACK
6
CONTINUOUS
10
144.092127000000005
20
-98.0611040000000003
11
144.0749999999999886
21
-97.9749999999999943
0
LINE
8
BLACK
6
CONTINUOUS
10
144.0749999999999886
20
-97.9749999999999943
11
144.0749999999999886
21
-97.5249999999999915
0
LINE
8
BLACK
6
CONTINUOUS
10
144.0749999999999886
20
-97.5249999999999915
11
144.092127000000005
21
-97.4388959999999997
0
LINE
8
BLACK
6
CONTINUOUS
10
144.092127000000005
20
-97.4388959999999997
11
144.1409009999999853
21
-97.3659009999999938
0
LINE
8
BLACK
6
CONTINUOUS
10
144.1409009999999853
20
-97.3659009999999938
11
144.2138960000000054
21
-97.3171269999999993
0
LINE
8
BLACK
6
CONTINUOUS
10
144.2138960000000054
20
-97.3171269999999993
11
144.2999999999999829
21
-97.2999999999999972
0
LINE
8
BLACK
6
CONTINUOUS
10
144.2999999999999829
20
-97.2999999999999972
11
144.7999999999999829
21
-97.2999999999999972
0
LINE
8
BLACK
6
CONTINUOUS
10
144.7999999999999829
20
-97.2999999999999972
11
144.8861039999999889
21
-97.3171269999999993
0
LINE
8
BLACK
6
CONTINUOUS
10
146.5361039999999946
20
-97.3171269999999993
11
146.6090989999999863
21
-97.3659009999999938
0
LINE
8
BLACK
6
CONTINUOUS
10
146.6090989999999863
20
-97.3659009999999938
11
146.657872999999995
21
-97.4388959999999997
0
LINE
8
BLACK
6
CONTINUOUS
10
146.657872999999995
20
-97.4388959999999997
11
146.6749999999999829
21
-97.5249999999999915
0
LINE
8
BLACK
6
CONTINUOUS
10
146.6749999999999829
20
-97.5249999999999915
11
146.6749999999999829
21
-97.9749999999999943
0
LINE
8
BLACK
6
CONTINUOUS
10
146.6749999999999829
20
-97.9749999999999943
11
146.657872999999995
21
-98.0611040000000003
0
LINE
8
BLACK
6
CONTINUOUS
10
146.657872999999995
20
-98.0611040000000003
11
146.6090989999999863
21
-98.134098999999992
0
LINE
8
BLACK
6
CONTINUOUS
10
146.6090989999999863
20
-98.134098999999992
11
146.5361039999999946
21
-98.1828730000000007
0
LINE
8
BLACK
6
CONTINUOUS
10
146.5361039999999946
20
-98.1828730000000007
11
146.4499999999999886
21
-98.1999999999999886
0
LINE
8
BLACK
6
CONTINUOUS
10
146.4499999999999886
20
-98.1999999999999886
11
145.9499999999999886
21
-98.1999999999999886
0
LINE
8
BLACK
6
CONTINUOUS
10
145.9499999999999886
20
-98.1999999999999886
11
145.8638959999999827
21
-98.1828730000000007
0
LINE
8
BLACK
6
CONTINUOUS
10
145.8638959999999827
20
-98.1828730000000007
11
145.790900999999991
21
-98.134098999999992
0
LINE
8
BLACK
6
CONTINUOUS
10
145.790900999999991
20
-98.134098999999992
11
145.7421269999999822
21
-98.0611040000000003
0
LINE
8
BLACK
6
CONTINUOUS
10
145.7421269999999822
20
-98.0611040000000003
11
145.7249999999999943
21
-97.9749999999999943
0
LINE
8
BLACK
6
CONTINUOUS
10
145.7249999999999943
20
-97.9749999999999943
11
145.7249999999999943
21
-97.5249999999999915
0
LINE
8
BLACK
6
CONTINUOUS
10
145.7249999999999943
20
-97.5249999999999915
11
145.7421269999999822
21
-97.4388959999999997
0
LINE
8
BLACK
6
CONTINUOUS
10
145.7421269999999822
20
-97.4388959999999997
11
145.790900999999991
21
-97.3659009999999938
0
LINE
8
BLACK
6
CONTINUOUS
10
145.790900999999991
20
-97.3659009999999938
11
145.8638959999999827
21
-97.3171269999999993
0
LINE
8
BLACK
6
CONTINUOUS
10
145.8638959999999827
20
-97.3171269999999993
11
145.9499999999999886
21
-97.2999999999999972
0
LINE
8
BLACK
6
CONTINUOUS
10
145.9499999999999886
20
-97.2999999999999972
11
146.4499999999999886
21
-97.2999999999999972
0
LINE
8
BLACK
6
CONTINUOUS
10
146.4499999999999886
20
-97.2999999999999972
11
146.5361039999999946
21
-97.3171269999999993
0
LINE
8
BLACK
6
CONTINUOUS
10
129.336104000000006
20
-97.2171269999999907
11
129.4090989999999977
21
-97.2659009999999995
0
LINE
8
BLACK
6
CONTINUOUS
10
129.4090989999999977
20
-97.2659009999999995
11
129.4578730000000064
21
-97.3388959999999912
0
LINE
8
BLACK
6
CONTINUOUS
10
129.4578730000000064
20
-97.3388959999999912
11
129.4749999999999943
21
-97.4249999999999972
0
LINE
8
BLACK
6
CONTINUOUS
10
129.4749999999999943
20
-97.4249999999999972
11
129.4749999999999943
21
-97.875
0
LINE
8
BLACK
6
CONTINUOUS
10
129.4749999999999943
20
-97.875
11
129.4578730000000064
21
-97.9611039999999917
0
LINE
8
BLACK
6
CONTINUOUS
10
129.4578730000000064
20
-97.9611039999999917
11
129.4090989999999977
21
-98.0340989999999977
0
LINE
8
BLACK
6
CONTINUOUS
10
129.4090989999999977
20
-98.0340989999999977
11
129.336104000000006
21
-98.0828729999999922
0
LINE
8
BLACK
6
CONTINUOUS
10
129.336104000000006
20
-98.0828729999999922
11
129.25
21
-98.0999999999999943
0
LINE
8
BLACK
6
CONTINUOUS
10
129.25
20
-98.0999999999999943
11
128.75
21
-98.0999999999999943
0
LINE
8
BLACK
6
CONTINUOUS
10
128.75
20
-98.0999999999999943
11
128.663895999999994
21
-98.0828729999999922
0
LINE
8
BLACK
6
CONTINUOUS
10
128.663895999999994
20
-98.0828729999999922
11
128.5909010000000023
21
-98.0340989999999977
0
LINE
8
BLACK
6
CONTINUOUS
10
128.5909010000000023
20
-98.0340989999999977
11
128.5421269999999936
21
-97.9611039999999917
0
LINE
8
BLACK
6
CONTINUOUS
10
128.5421269999999936
20
-97.9611039999999917
11
128.5250000000000057
21
-97.875
0
LINE
8
BLACK
6
CONTINUOUS
10
128.5250000000000057
20
-97.875
11
128.5250000000000057
21
-97.4249999999999972
0
LINE
8
BLACK
6
CONTINUOUS
10
128.5250000000000057
20
-97.4249999999999972
11
128.5421269999999936
21
-97.3388959999999912
0
LINE
8
BLACK
6
CONTINUOUS
10
128.5421269999999936
20
-97.3388959999999912
11
128.5909010000000023
21
-97.2659009999999995
0
LINE
8
BLACK
6
CONTINUOUS
10
128.5909010000000023
20
-97.2659009999999995
11
128.663895999999994
21
-97.2171269999999907
0
LINE
8
BLACK
6
CONTINUOUS
10
128.663895999999994
20
-97.2171269999999907
11
128.75
21
-97.1999999999999886
0
LINE
8
BLACK
6
CONTINUOUS
10
128.75
20
-97.1999999999999886
11
129.25
21
-97.1999999999999886
0
LINE
8
BLACK
6
CONTINUOUS
10
129.25
20
-97.1999999999999886
11
129.336104000000006
21
-97.2171269999999907
0
LINE
8
BLACK
6
CONTINUOUS
10
130.9861039999999832
20
-97.2171269999999907
11
131.0590990000000033
21
-97.2659009999999995
0
LINE
8
BLACK
6
CONTINUOUS
10
131.0590990000000033
20
-97.2659009999999995
11
131.1078729999999837
21
-97.3388959999999912
0
LINE
8
BLACK
6
CONTINUOUS
10
131.1078729999999837
20
-97.3388959999999912
11
131.125
21
-97.4249999999999972
0
LINE
8
BLACK
6
CONTINUOUS
10
131.125
20
-97.4249999999999972
11
131.125
21
-97.875
0
LINE
8
BLACK
6
CONTINUOUS
10
131.125
20
-97.875
11
131.1078729999999837
21
-97.9611039999999917
0
LINE
8
BLACK
6
CONTINUOUS
10
131.1078729999999837
20
-97.9611039999999917
11
131.0590990000000033
21
-98.0340989999999977
0
LINE
8
BLACK
6
CONTINUOUS
10
131.0590990000000033
20
-98.0340989999999977
11
130.9861039999999832
21
-98.0828729999999922
0
LINE
8
BLACK
6
CONTINUOUS
10
130.9861039999999832
20
-98.0828729999999922
11
130.9000000000000057
21
-98.0999999999999943
0
LINE
8
BLACK
6
CONTINUOUS
10
130.9000000000000057
20
-98.0999999999999943
11
130.4000000000000057
21
-98.0999999999999943
0
LINE
8
BLACK
6
CONTINUOUS
10
130.4000000000000057
20
-98.0999999999999943
11
130.3138959999999997
21
-98.0828729999999922
0
LINE
8
BLACK
6
CONTINUOUS
10
130.3138959999999997
20
-98.0828729999999922
11
130.240901000000008
21
-98.0340989999999977
0
LINE
8
BLACK
6
CONTINUOUS
10
130.240901000000008
20
-98.0340989999999977
11
130.1921269999999993
21
-97.9611039999999917
0
LINE
8
BLACK
6
CONTINUOUS
10
130.1921269999999993
20
-97.9611039999999917
11
130.1749999999999829
21
-97.875
0
LINE
8
BLACK
6
CONTINUOUS
10
130.1749999999999829
20
-97.875
11
130.1749999999999829
21
-97.4249999999999972
0
LINE
8
BLACK
6
CONTINUOUS
10
130.1749999999999829
20
-97.4249999999999972
11
130.1921269999999993
21
-97.3388959999999912
0
LINE
8
BLACK
6
CONTINUOUS
10
130.1921269999999993
20
-97.3388959999999912
11
130.240901000000008
21
-97.2659009999999995
0
LINE
8
BLACK
6
CONTINUOUS
10
130.240901000000008
20
-97.2659009999999995
11
130.3138959999999997
21
-97.2171269999999907
0
LINE
8
BLACK
6
CONTINUOUS
10
130.3138959999999997
20
-97.2171269999999907
11
130.4000000000000057
21
-97.1999999999999886
0
LINE
8
BLACK
6
CONTINUOUS
10
130.4000000000000057
20
-97.1999999999999886
11
130.9000000000000057
21
-97.1999999999999886
0
LINE
8
BLACK
6
CONTINUOUS
10
130.9000000000000057
20
-97.1999999999999886
11
130.9861039999999832
21
-97.2171269999999907
0
LINE
8
BLACK
6
CONTINUOUS
10
126.7749999999999915
20
-97.4249999999999972
11
126.125
21
-97.4249999999999972
0
LINE
8
BLACK
6
CONTINUOUS
10
126.125
20
-97.4249999999999972
11
126.125
21
-96.6749999999999972
0
LINE
8
BLACK
6
CONTINUOUS
10
126.125
20
-96.6749999999999972
11
126.7749999999999915
21
-96.6749999999999972
0
LINE
8
BLACK
6
CONTINUOUS
10
126.7749999999999915
20
-96.6749999999999972
11
126.7749999999999915
21
-97.4249999999999972
0
LINE
8
BLACK
6
CONTINUOUS
10
127.5749999999999886
20
-97.4249999999999972
11
126.9249999999999972
21
-97.4249999999999972
0
LINE
8
BLACK
6
CONTINUOUS
10
126.9249999999999972
20
-97.4249999999999972
11
126.9249999999999972
21
-96.6749999999999972
0
LINE
8
BLACK
6
CONTINUOUS
10
126.9249999999999972
20
-96.6749999999999972
11
127.5749999999999886
21
-96.6749999999999972
0
LINE
8
BLACK
6
CONTINUOUS
10
127.5749999999999886
20
-96.6749999999999972
11
127.5749999999999886
21
-97.4249999999999972
0
LINE
8
BLACK
6
CONTINUOUS
10
142.2750000000000057
20
-97.4249999999999972
11
141.625
21
-97.4249999999999972
0
LINE
8
BLACK
6
CONTINUOUS
10
141.625
20
-97.4249999999999972
11
141.625
21
-96.6749999999999972
0
LINE
8
BLACK
6
CONTINUOUS
10
141.625
20
-96.6749999999999972
11
142.2750000000000057
21
-96.6749999999999972
0
LINE
8
BLACK
6
CONTINUOUS
10
142.2750000000000057
20
-96.6749999999999972
11
142.2750000000000057
21
-97.4249999999999972
0
LINE
8
BLACK
6
CONTINUOUS
10
143.0749999999999886
20
-97.4249999999999972
11
142.4249999999999829
21
-97.4249999999999972
0
LINE
8
BLACK
6
CONTINUOUS
10
142.4249999999999829
20
-97.4249999999999972
11
142.4249999999999829
21
-96.6749999999999972
0
LINE
8
BLACK
6
CONTINUOUS
10
142.4249999999999829
20
-96.6749999999999972
11
143.0749999999999886
21
-96.6749999999999972
0
LINE
8
BLACK
6
CONTINUOUS
10
143.0749999999999886
20
-96.6749999999999972
11
143.0749999999999886
21
-97.4249999999999972
0
LINE
8
BLACK
6
CONTINUOUS
10
125.0515369999999962
20
-95.9652239999999921
11
125.1164209999999883
21
-96.0085789999999974
0
LINE
8
BLACK
6
CONTINUOUS
10
125.1164209999999883
20
-96.0085789999999974
11
125.1597759999999937
21
-96.0734629999999896
0
LINE
8
BLACK
6
CONTINUOUS
10
125.1597759999999937
20
-96.0734629999999896
11
125.1749999999999972
21
-96.1499999999999915
0
LINE
8
BLACK
6
CONTINUOUS
10
125.1749999999999972
20
-96.1499999999999915
11
125.1749999999999972
21
-96.5499999999999972
0
LINE
8
BLACK
6
CONTINUOUS
10
125.1749999999999972
20
-96.5499999999999972
11
125.1597759999999937
21
-96.626536999999999
0
LINE
8
BLACK
6
CONTINUOUS
10
125.1597759999999937
20
-96.626536999999999
11
125.1164209999999883
21
-96.6914209999999912
0
LINE
8
BLACK
6
CONTINUOUS
10
125.1164209999999883
20
-96.6914209999999912
11
125.0515369999999962
21
-96.7347759999999965
0
LINE
8
BLACK
6
CONTINUOUS
10
125.0515369999999962
20
-96.7347759999999965
11
124.9749999999999943
21
-96.75
0
LINE
8
BLACK
6
CONTINUOUS
10
124.9749999999999943
20
-96.75
11
124.4249999999999972
21
-96.75
0
LINE
8
BLACK
6
CONTINUOUS
10
124.4249999999999972
20
-96.75
11
124.3484629999999953
21
-96.7347759999999965
0
LINE
8
BLACK
6
CONTINUOUS
10
124.3484629999999953
20
-96.7347759999999965
11
124.2835789999999889
21
-96.6914209999999912
0
LINE
8
BLACK
6
CONTINUOUS
10
124.2835789999999889
20
-96.6914209999999912
11
124.2402239999999978
21
-96.626536999999999
0
LINE
8
BLACK
6
CONTINUOUS
10
124.2402239999999978
20
-96.626536999999999
11
124.2249999999999943
21
-96.5499999999999972
0
LINE
8
BLACK
6
CONTINUOUS
10
124.2249999999999943
20
-96.5499999999999972
11
124.2249999999999943
21
-96.1499999999999915
0
LINE
8
BLACK
6
CONTINUOUS
10
124.2249999999999943
20
-96.1499999999999915
11
124.2402239999999978
21
-96.0734629999999896
0
LINE
8
BLACK
6
CONTINUOUS
10
124.2402239999999978
20
-96.0734629999999896
11
124.2835789999999889
21
-96.0085789999999974
0
LINE
8
BLACK
6
CONTINUOUS
10
124.2835789999999889
20
-96.0085789999999974
11
124.3484629999999953
21
-95.9652239999999921
0
LINE
8
BLACK
6
CONTINUOUS
10
124.3484629999999953
20
-95.9652239999999921
11
124.4249999999999972
21
-95.9499999999999886
0
LINE
8
BLACK
6
CONTINUOUS
10
124.4249999999999972
20
-95.9499999999999886
11
124.9749999999999943
21
-95.9499999999999886
0
LINE
8
BLACK
6
CONTINUOUS
10
124.9749999999999943
20
-95.9499999999999886
11
125.0515369999999962
21
-95.9652239999999921
0
LINE
8
BLACK
6
CONTINUOUS
10
140.5515369999999962
20
-95.9652239999999921
11
140.6164210000000026
21
-96.0085789999999974
0
LINE
8
BLACK
6
CONTINUOUS
10
140.6164210000000026
20
-96.0085789999999974
11
140.6597759999999937
21
-96.0734629999999896
0
LINE
8
BLACK
6
CONTINUOUS
10
140.6597759999999937
20
-96.0734629999999896
11
140.6749999999999829
21
-96.1499999999999915
0
LINE
8
BLACK
6
CONTINUOUS
10
140.6749999999999829
20
-96.1499999999999915
11
140.6749999999999829
21
-96.5499999999999972
0
LINE
8
BLACK
6
CONTINUOUS
10
140.6749999999999829
20
-96.5499999999999972
11
140.6597759999999937
21
-96.626536999999999
0
LINE
8
BLACK
6
CONTINUOUS
10
140.6597759999999937
20
-96.626536999999999
11
140.6164210000000026
21
-96.6914209999999912
0
LINE
8
BLACK
6
CONTINUOUS
10
140.6164210000000026
20
-96.6914209999999912
11
140.5515369999999962
21
-96.7347759999999965
0
LINE
8
BLACK
6
CONTINUOUS
10
140.5515369999999962
20
-96.7347759999999965
11
140.4749999999999943
21
-96.75
0
LINE
8
BLACK
6
CONTINUOUS
10
140.4749999999999943
20
-96.75
11
139.9249999999999829
21
-96.75
0
LINE
8
BLACK
6
CONTINUOUS
10
139.9249999999999829
20
-96.75
11
139.8484629999999811
21
-96.7347759999999965
0
LINE
8
BLACK
6
CONTINUOUS
10
139.8484629999999811
20
-96.7347759999999965
11
139.7835790000000031
21
-96.6914209999999912
0
LINE
8
BLACK
6
CONTINUOUS
10
139.7835790000000031
20
-96.6914209999999912
11
139.7402239999999836
21
-96.626536999999999
0
LINE
8
BLACK
6
CONTINUOUS
10
139.7402239999999836
20
-96.626536999999999
11
139.7249999999999943
21
-96.5499999999999972
0
LINE
8
BLACK
6
CONTINUOUS
10
139.7249999999999943
20
-96.5499999999999972
11
139.7249999999999943
21
-96.1499999999999915
0
LINE
8
BLACK
6
CONTINUOUS
10
139.7249999999999943
20
-96.1499999999999915
11
139.7402239999999836
21
-96.0734629999999896
0
LINE
8
BLACK
6
CONTINUOUS
10
139.7402239999999836
20
-96.0734629999999896
11
139.7835790000000031
21
-96.0085789999999974
0
LINE
8
BLACK
6
CONTINUOUS
10
139.7835790000000031
20
-96.0085789999999974
11
139.8484629999999811
21
-95.9652239999999921
0
LINE
8
BLACK
6
CONTINUOUS
10
139.8484629999999811
20
-95.9652239999999921
11
139.9249999999999829
21
-95.9499999999999886
0
LINE
8
BLACK
6
CONTINUOUS
10
139.9249999999999829
20
-95.9499999999999886
11
140.4749999999999943
21
-95.9499999999999886
0
LINE
8
BLACK
6
CONTINUOUS
10
140.4749999999999943
20
-95.9499999999999886
11
140.5515369999999962
21
-95.9652239999999921
0
LINE
8
BLACK
6
CONTINUOUS
10
144.8861039999999889
20
-95.7671270000000021
11
144.9590989999999806
21
-95.8159009999999967
0
LINE
8
BLACK
6
CONTINUOUS
10
144.9590989999999806
20
-95.8159009999999967
11
145.0078729999999894
21
-95.8888960000000026
0
LINE
8
BLACK
6
CONTINUOUS
10
145.0078729999999894
20
-95.8888960000000026
11
145.0250000000000057
21
-95.9749999999999943
0
LINE
8
BLACK
6
CONTINUOUS
10
145.0250000000000057
20
-95.9749999999999943
11
145.0250000000000057
21
-96.4249999999999972
0
LINE
8
BLACK
6
CONTINUOUS
10
145.0250000000000057
20
-96.4249999999999972
11
145.0078729999999894
21
-96.5111039999999889
0
LINE
8
BLACK
6
CONTINUOUS
10
145.0078729999999894
20
-96.5111039999999889
11
144.9590989999999806
21
-96.5840989999999948
0
LINE
8
BLACK
6
CONTINUOUS
10
144.9590989999999806
20
-96.5840989999999948
11
144.8861039999999889
21
-96.6328729999999894
0
LINE
8
BLACK
6
CONTINUOUS
10
144.8861039999999889
20
-96.6328729999999894
11
144.7999999999999829
21
-96.6499999999999915
0
LINE
8
BLACK
6
CONTINUOUS
10
144.7999999999999829
20
-96.6499999999999915
11
144.2999999999999829
21
-96.6499999999999915
0
LINE
8
BLACK
6
CONTINUOUS
10
144.2999999999999829
20
-96.6499999999999915
11
144.2138960000000054
21
-96.6328729999999894
0
LINE
8
BLACK
6
CONTINUOUS
10
144.2138960000000054
20
-96.6328729999999894
11
144.1409009999999853
21
-96.5840989999999948
0
LINE
8
BLACK
6
CONTINUOUS
10
144.1409009999999853
20
-96.5840989999999948
11
144.092127000000005
21
-96.5111039999999889
0
LINE
8
BLACK
6
CONTINUOUS
10
144.092127000000005
20
-96.5111039999999889
11
144.0749999999999886
21
-96.4249999999999972
0
LINE
8
BLACK
6
CONTINUOUS
10
144.0749999999999886
20
-96.4249999999999972
11
144.0749999999999886
21
-95.9749999999999943
0
LINE
8
BLACK
6
CONTINUOUS
10
144.0749999999999886
20
-95.9749999999999943
11
144.092127000000005
21
-95.8888960000000026
0
LINE
8
BLACK
6
CONTINUOUS
10
144.092127000000005
20
-95.8888960000000026
11
144.1409009999999853
21
-95.8159009999999967
0
LINE
8
BLACK
6
CONTINUOUS
10
144.1409009999999853
20
-95.8159009999999967
11
144.2138960000000054
21
-95.7671270000000021
0
LINE
8
BLACK
6
CONTINUOUS
10
144.2138960000000054
20
-95.7671270000000021
11
144.2999999999999829
21
-95.75
0
LINE
8
BLACK
6
CONTINUOUS
10
144.2999999999999829
20
-95.75
11
144.7999999999999829
21
-95.75
0
LINE
8
BLACK
6
CONTINUOUS
10
144.7999999999999829
20
-95.75
11
144.8861039999999889
21
-95.7671270000000021
0
LINE
8
BLACK
6
CONTINUOUS
10
146.5361039999999946
20
-95.7671270000000021
11
146.6090989999999863
21
-95.8159009999999967
0
LINE
8
BLACK
6
CONTINUOUS
10
146.6090989999999863
20
-95.8159009999999967
11
146.657872999999995
21
-95.8888960000000026
0
LINE
8
BLACK
6
CONTINUOUS
10
146.657872999999995
20
-95.8888960000000026
11
146.6749999999999829
21
-95.9749999999999943
0
LINE
8
BLACK
6
CONTINUOUS
10
146.6749999999999829
20
-95.9749999999999943
11
146.6749999999999829
21
-96.4249999999999972
0
LINE
8
BLACK
6
CONTINUOUS
10
146.6749999999999829
20
-96.4249999999999972
11
146.657872999999995
21
-96.5111039999999889
0
LINE
8
BLACK
6
CONTINUOUS
10
146.657872999999995
20
-96.5111039999999889
11
146.6090989999999863
21
-96.5840989999999948
0
LINE
8
BLACK
6
CONTINUOUS
10
146.6090989999999863
20
-96.5840989999999948
11
146.5361039999999946
21
-96.6328729999999894
0
LINE
8
BLACK
6
CONTINUOUS
10
146.5361039999999946
20
-96.6328729999999894
11
146.4499999999999886
21
-96.6499999999999915
0
LINE
8
BLACK
6
CONTINUOUS
10
146.4499999999999886
20
-96.6499999999999915
11
145.9499999999999886
21
-96.6499999999999915
0
LINE
8
BLACK
6
CONTINUOUS
10
145.9499999999999886
20
-96.6499999999999915
11
145.8638959999999827
21
-96.6328729999999894
0
LINE
8
BLACK
6
CONTINUOUS
10
145.8638959999999827
20
-96.6328729999999894
11
145.790900999999991
21
-96.5840989999999948
0
LINE
8
BLACK
6
CONTINUOUS
10
145.790900999999991
20
-96.5840989999999948
11
145.7421269999999822
21
-96.5111039999999889
0
LINE
8
BLACK
6
CONTINUOUS
10
145.7421269999999822
20
-96.5111039999999889
11
145.7249999999999943
21
-96.4249999999999972
0
LINE
8
BLACK
6
CONTINUOUS
10
145.7249999999999943
20
-96.4249999999999972
11
145.7249999999999943
21
-95.9749999999999943
0
LINE
8
BLACK
6
CONTINUOUS
10
145.7249999999999943
20
-95.9749999999999943
11
145.7421269999999822
21
-95.8888960000000026
0
LINE
8
BLACK
6
CONTINUOUS
10
145.7421269999999822
20
-95.8888960000000026
11
145.790900999999991
21
-95.8159009999999967
0
LINE
8
BLACK
6
CONTINUOUS
10
145.790900999999991
20
-95.8159009999999967
11
145.8638959999999827
21
-95.7671270000000021
0
LINE
8
BLACK
6
CONTINUOUS
10
145.8638959999999827
20
-95.7671270000000021
11
145.9499999999999886
21
-95.75
0
LINE
8
BLACK
6
CONTINUOUS
10
145.9499999999999886
20
-95.75
11
146.4499999999999886
21
-95.75
0
LINE
8
BLACK
6
CONTINUOUS
10
146.4499999999999886
20
-95.75
11
146.5361039999999946
21
-95.7671270000000021
0
LINE
8
BLACK
6
CONTINUOUS
10
129.336104000000006
20
-95.6671269999999936
11
129.4090989999999977
21
-95.7159010000000023
0
LINE
8
BLACK
6
CONTINUOUS
10
129.4090989999999977
20
-95.7159010000000023
11
129.4578730000000064
21
-95.788895999999994
0
LINE
8
BLACK
6
CONTINUOUS
10
129.4578730000000064
20
-95.788895999999994
11
129.4749999999999943
21
-95.875
0
LINE
8
BLACK
6
CONTINUOUS
10
129.4749999999999943
20
-95.875
11
129.4749999999999943
21
-96.3249999999999886
0
LINE
8
BLACK
6
CONTINUOUS
10
129.4749999999999943
20
-96.3249999999999886
11
129.4578730000000064
21
-96.4111039999999946
0
LINE
8
BLACK
6
CONTINUOUS
10
129.4578730000000064
20
-96.4111039999999946
11
129.4090989999999977
21
-96.4840990000000005
0
LINE
8
BLACK
6
CONTINUOUS
10
129.4090989999999977
20
-96.4840990000000005
11
129.336104000000006
21
-96.532872999999995
0
LINE
8
BLACK
6
CONTINUOUS
10
129.336104000000006
20
-96.532872999999995
11
129.25
21
-96.5499999999999972
0
LINE
8
BLACK
6
CONTINUOUS
10
129.25
20
-96.5499999999999972
11
128.75
21
-96.5499999999999972
0
LINE
8
BLACK
6
CONTINUOUS
10
128.75
20
-96.5499999999999972
11
128.663895999999994
21
-96.532872999999995
0
LINE
8
BLACK
6
CONTINUOUS
10
128.663895999999994
20
-96.532872999999995
11
128.5909010000000023
21
-96.4840990000000005
0
LINE
8
BLACK
6
CONTINUOUS
10
128.5909010000000023
20
-96.4840990000000005
11
128.5421269999999936
21
-96.4111039999999946
0
LINE
8
BLACK
6
CONTINUOUS
10
128.5421269999999936
20
-96.4111039999999946
11
128.5250000000000057
21
-96.3249999999999886
0
LINE
8
BLACK
6
CONTINUOUS
10
128.5250000000000057
20
-96.3249999999999886
11
128.5250000000000057
21
-95.875
0
LINE
8
BLACK
6
CONTINUOUS
10
128.5250000000000057
20
-95.875
11
128.5421269999999936
21
-95.788895999999994
0
LINE
8
BLACK
6
CONTINUOUS
10
128.5421269999999936
20
-95.788895999999994
11
128.5909010000000023
21
-95.7159010000000023
0
LINE
8
BLACK
6
CONTINUOUS
10
128.5909010000000023
20
-95.7159010000000023
11
128.663895999999994
21
-95.6671269999999936
0
LINE
8
BLACK
6
CONTINUOUS
10
128.663895999999994
20
-95.6671269999999936
11
128.75
21
-95.6499999999999915
0
LINE
8
BLACK
6
CONTINUOUS
10
128.75
20
-95.6499999999999915
11
129.25
21
-95.6499999999999915
0
LINE
8
BLACK
6
CONTINUOUS
10
129.25
20
-95.6499999999999915
11
129.336104000000006
21
-95.6671269999999936
0
LINE
8
BLACK
6
CONTINUOUS
10
130.9861039999999832
20
-95.6671269999999936
11
131.0590990000000033
21
-95.7159010000000023
0
LINE
8
BLACK
6
CONTINUOUS
10
131.0590990000000033
20
-95.7159010000000023
11
131.1078729999999837
21
-95.788895999999994
0
LINE
8
BLACK
6
CONTINUOUS
10
131.1078729999999837
20
-95.788895999999994
11
131.125
21
-95.875
0
LINE
8
BLACK
6
CONTINUOUS
10
131.125
20
-95.875
11
131.125
21
-96.3249999999999886
0
LINE
8
BLACK
6
CONTINUOUS
10
131.125
20
-96.3249999999999886
11
131.1078729999999837
21
-96.4111039999999946
0
LINE
8
BLACK
6
CONTINUOUS
10
131.1078729999999837
20
-96.4111039999999946
11
131.0590990000000033
21
-96.4840990000000005
0
LINE
8
BLACK
6
CONTINUOUS
10
131.0590990000000033
20
-96.4840990000000005
11
130.9861039999999832
21
-96.532872999999995
0
LINE
8
BLACK
6
CONTINUOUS
10
130.9861039999999832
20
-96.532872999999995
11
130.9000000000000057
21
-96.5499999999999972
0
LINE
8
BLACK
6
CONTINUOUS
10
130.9000000000000057
20
-96.5499999999999972
11
130.4000000000000057
21
-96.5499999999999972
0
LINE
8
BLACK
6
CONTINUOUS
10
130.4000000000000057
20
-96.5499999999999972
11
130.3138959999999997
21
-96.532872999999995
0
LINE
8
BLACK
6
CONTINUOUS
10
130.3138959999999997
20
-96.532872999999995
11
130.240901000000008
21
-96.4840990000000005
0
LINE
8
BLACK
6
CONTINUOUS
10
130.240901000000008
20
-96.4840990000000005
11
130.1921269999999993
21
-96.4111039999999946
0
LINE
8
BLACK
6
CONTINUOUS
10
130.1921269999999993
20
-96.4111039999999946
11
130.1749999999999829
21
-96.3249999999999886
0
LINE
8
BLACK
6
CONTINUOUS
10
130.1749999999999829
20
-96.3249999999999886
11
130.1749999999999829
21
-95.875
0
LINE
8
BLACK
6
CONTINUOUS
10
130.1749999999999829
20
-95.875
11
130.1921269999999993
21
-95.788895999999994
0
LINE
8
BLACK
6
CONTINUOUS
10
130.1921269999999993
20
-95.788895999999994
11
130.240901000000008
21
-95.7159010000000023
0
LINE
8
BLACK
6
CONTINUOUS
10
130.240901000000008
20
-95.7159010000000023
11
130.3138959999999997
21
-95.6671269999999936
0
LINE
8
BLACK
6
CONTINUOUS
10
130.3138959999999997
20
-95.6671269999999936
11
130.4000000000000057
21
-95.6499999999999915
0
LINE
8
BLACK
6
CONTINUOUS
10
130.4000000000000057
20
-95.6499999999999915
11
130.9000000000000057
21
-95.6499999999999915
0
LINE
8
BLACK
6
CONTINUOUS
10
130.9000000000000057
20
-95.6499999999999915
11
130.9861039999999832
21
-95.6671269999999936
0
LINE
8
BLACK
6
CONTINUOUS
10
126.1864179999999891
20
-95.8547579999999897
11
126.2066939999999988
21
-95.8683059999999898
0
LINE
8
BLACK
6
CONTINUOUS
10
126.2066939999999988
20
-95.8683059999999898
11
126.2202419999999989
21
-95.8885819999999995
0
LINE
8
BLACK
6
CONTINUOUS
10
126.2202419999999989
20
-95.8885819999999995
11
126.2249999999999943
21
-95.9124999999999943
0
LINE
8
BLACK
6
CONTINUOUS
10
126.2249999999999943
20
-95.9124999999999943
11
126.2249999999999943
21
-96.2874999999999943
0
LINE
8
BLACK
6
CONTINUOUS
10
126.2249999999999943
20
-96.2874999999999943
11
126.2202419999999989
21
-96.3114179999999891
0
LINE
8
BLACK
6
CONTINUOUS
10
126.2202419999999989
20
-96.3114179999999891
11
126.2066939999999988
21
-96.3316939999999988
0
LINE
8
BLACK
6
CONTINUOUS
10
126.2066939999999988
20
-96.3316939999999988
11
126.1864179999999891
21
-96.3452419999999989
0
LINE
8
BLACK
6
CONTINUOUS
10
126.1864179999999891
20
-96.3452419999999989
11
126.1624999999999943
21
-96.3499999999999943
0
LINE
8
BLACK
6
CONTINUOUS
10
126.1624999999999943
20
-96.3499999999999943
11
126.0374999999999943
21
-96.3499999999999943
0
LINE
8
BLACK
6
CONTINUOUS
10
126.0374999999999943
20
-96.3499999999999943
11
126.0135819999999995
21
-96.3452419999999989
0
LINE
8
BLACK
6
CONTINUOUS
10
126.0135819999999995
20
-96.3452419999999989
11
125.9933059999999898
21
-96.3316939999999988
0
LINE
8
BLACK
6
CONTINUOUS
10
125.9933059999999898
20
-96.3316939999999988
11
125.9797579999999897
21
-96.3114179999999891
0
LINE
8
BLACK
6
CONTINUOUS
10
125.9797579999999897
20
-96.3114179999999891
11
125.9749999999999943
21
-96.2874999999999943
0
LINE
8
BLACK
6
CONTINUOUS
10
125.9749999999999943
20
-96.2874999999999943
11
125.9749999999999943
21
-95.9124999999999943
0
LINE
8
BLACK
6
CONTINUOUS
10
125.9749999999999943
20
-95.9124999999999943
11
125.9797579999999897
21
-95.8885819999999995
0
LINE
8
BLACK
6
CONTINUOUS
10
125.9797579999999897
20
-95.8885819999999995
11
125.9933059999999898
21
-95.8683059999999898
0
LINE
8
BLACK
6
CONTINUOUS
10
125.9933059999999898
20
-95.8683059999999898
11
126.0135819999999995
21
-95.8547579999999897
0
LINE
8
BLACK
6
CONTINUOUS
10
126.0135819999999995
20
-95.8547579999999897
11
126.0374999999999943
21
-95.8499999999999943
0
LINE
8
BLACK
6
CONTINUOUS
10
126.0374999999999943
20
-95.8499999999999943
11
126.1624999999999943
21
-95.8499999999999943
0
LINE
8
BLACK
6
CONTINUOUS
10
126.1624999999999943
20
-95.8499999999999943
11
126.1864179999999891
21
-95.8547579999999897
0
LINE
8
BLACK
6
CONTINUOUS
10
126.6864179999999891
20
-95.8547579999999897
11
126.7066939999999988
21
-95.8683059999999898
0
LINE
8
BLACK
6
CONTINUOUS
10
126.7066939999999988
20
-95.8683059999999898
11
126.7202419999999989
21
-95.8885819999999995
0
LINE
8
BLACK
6
CONTINUOUS
10
126.7202419999999989
20
-95.8885819999999995
11
126.7249999999999943
21
-95.9124999999999943
0
LINE
8
BLACK
6
CONTINUOUS
10
126.7249999999999943
20
-95.9124999999999943
11
126.7249999999999943
21
-96.2874999999999943
0
LINE
8
BLACK
6
CONTINUOUS
10
126.7249999999999943
20
-96.2874999999999943
11
126.7202419999999989
21
-96.3114179999999891
0
LINE
8
BLACK
6
CONTINUOUS
10
126.7202419999999989
20
-96.3114179999999891
11
126.7066939999999988
21
-96.3316939999999988
0
LINE
8
BLACK
6
CONTINUOUS
10
126.7066939999999988
20
-96.3316939999999988
11
126.6864179999999891
21
-96.3452419999999989
0
LINE
8
BLACK
6
CONTINUOUS
10
126.6864179999999891
20
-96.3452419999999989
11
126.6624999999999943
21
-96.3499999999999943
0
LINE
8
BLACK
6
CONTINUOUS
10
126.6624999999999943
20
-96.3499999999999943
11
126.5374999999999943
21
-96.3499999999999943
0
LINE
8
BLACK
6
CONTINUOUS
10
126.5374999999999943
20
-96.3499999999999943
11
126.5135819999999995
21
-96.3452419999999989
0
LINE
8
BLACK
6
CONTINUOUS
10
126.5135819999999995
20
-96.3452419999999989
11
126.4933059999999898
21
-96.3316939999999988
0
LINE
8
BLACK
6
CONTINUOUS
10
126.4933059999999898
20
-96.3316939999999988
11
126.4797579999999897
21
-96.3114179999999891
0
LINE
8
BLACK
6
CONTINUOUS
10
126.4797579999999897
20
-96.3114179999999891
11
126.4749999999999943
21
-96.2874999999999943
0
LINE
8
BLACK
6
CONTINUOUS
10
126.4749999999999943
20
-96.2874999999999943
11
126.4749999999999943
21
-95.9124999999999943
0
LINE
8
BLACK
6
CONTINUOUS
10
126.4749999999999943
20
-95.9124999999999943
11
126.4797579999999897
21
-95.8885819999999995
0
LINE
8
BLACK
6
CONTINUOUS
10
126.4797579999999897
20
-95.8885819999999995
11
126.4933059999999898
21
-95.8683059999999898
0
LINE
8
BLACK
6
CONTINUOUS
10
126.4933059999999898
20
-95.8683059999999898
11
126.5135819999999995
21
-95.8547579999999897
0
LINE
8
BLACK
6
CONTINUOUS
10
126.5135819999999995
20
-95.8547579999999897
11
126.5374999999999943
21
-95.8499999999999943
0
LINE
8
BLACK
6
CONTINUOUS
10
126.5374999999999943
20
-95.8499999999999943
11
126.6624999999999943
21
-95.8499999999999943
0
LINE
8
BLACK
6
CONTINUOUS
10
126.6624999999999943
20
-95.8499999999999943
11
126.6864179999999891
21
-95.8547579999999897
0
LINE
8
BLACK
6
CONTINUOUS
10
127.1864179999999891
20
-95.8547579999999897
11
127.2066939999999988
21
-95.8683059999999898
0
LINE
8
BLACK
6
CONTINUOUS
10
127.2066939999999988
20
-95.8683059999999898
11
127.2202419999999989
21
-95.8885819999999995
0
LINE
8
BLACK
6
CONTINUOUS
10
127.2202419999999989
20
-95.8885819999999995
11
127.2249999999999943
21
-95.9124999999999943
0
LINE
8
BLACK
6
CONTINUOUS
10
127.2249999999999943
20
-95.9124999999999943
11
127.2249999999999943
21
-96.2874999999999943
0
LINE
8
BLACK
6
CONTINUOUS
10
127.2249999999999943
20
-96.2874999999999943
11
127.2202419999999989
21
-96.3114179999999891
0
LINE
8
BLACK
6
CONTINUOUS
10
127.2202419999999989
20
-96.3114179999999891
11
127.2066939999999988
21
-96.3316939999999988
0
LINE
8
BLACK
6
CONTINUOUS
10
127.2066939999999988
20
-96.3316939999999988
11
127.1864179999999891
21
-96.3452419999999989
0
LINE
8
BLACK
6
CONTINUOUS
10
127.1864179999999891
20
-96.3452419999999989
11
127.1624999999999943
21
-96.3499999999999943
0
LINE
8
BLACK
6
CONTINUOUS
10
127.1624999999999943
20
-96.3499999999999943
11
127.0374999999999943
21
-96.3499999999999943
0
LINE
8
BLACK
6
CONTINUOUS
10
127.0374999999999943
20
-96.3499999999999943
11
127.0135819999999995
21
-96.3452419999999989
0
LINE
8
BLACK
6
CONTINUOUS
10
127.0135819999999995
20
-96.3452419999999989
11
126.9933059999999898
21
-96.3316939999999988
0
LINE
8
BLACK
6
CONTINUOUS
10
126.9933059999999898
20
-96.3316939999999988
11
126.9797579999999897
21
-96.3114179999999891
0
LINE
8
BLACK
6
CONTINUOUS
10
126.9797579999999897
20
-96.3114179999999891
11
126.9749999999999943
21
-96.2874999999999943
0
LINE
8
BLACK
6
CONTINUOUS
10
126.9749999999999943
20
-96.2874999999999943
11
126.9749999999999943
21
-95.9124999999999943
0
LINE
8
BLACK
6
CONTINUOUS
10
126.9749999999999943
20
-95.9124999999999943
11
126.9797579999999897
21
-95.8885819999999995
0
LINE
8
BLACK
6
CONTINUOUS
10
126.9797579999999897
20
-95.8885819999999995
11
126.9933059999999898
21
-95.8683059999999898
0
LINE
8
BLACK
6
CONTINUOUS
10
126.9933059999999898
20
-95.8683059999999898
11
127.0135819999999995
21
-95.8547579999999897
0
LINE
8
BLACK
6
CONTINUOUS
10
127.0135819999999995
20
-95.8547579999999897
11
127.0374999999999943
21
-95.8499999999999943
0
LINE
8
BLACK
6
CONTINUOUS
10
127.0374999999999943
20
-95.8499999999999943
11
127.1624999999999943
21
-95.8499999999999943
0
LINE
8
BLACK
6
CONTINUOUS
10
127.1624999999999943
20
-95.8499999999999943
11
127.1864179999999891
21
-95.8547579999999897
0
LINE
8
BLACK
6
CONTINUOUS
10
127.6864179999999891
20
-95.8547579999999897
11
127.7066939999999988
21
-95.8683059999999898
0
LINE
8
BLACK
6
CONTINUOUS
10
127.7066939999999988
20
-95.8683059999999898
11
127.7202419999999989
21
-95.8885819999999995
0
LINE
8
BLACK
6
CONTINUOUS
10
127.7202419999999989
20
-95.8885819999999995
11
127.7249999999999943
21
-95.9124999999999943
0
LINE
8
BLACK
6
CONTINUOUS
10
127.7249999999999943
20
-95.9124999999999943
11
127.7249999999999943
21
-96.2874999999999943
0
LINE
8
BLACK
6
CONTINUOUS
10
127.7249999999999943
20
-96.2874999999999943
11
127.7202419999999989
21
-96.3114179999999891
0
LINE
8
BLACK
6
CONTINUOUS
10
127.7202419999999989
20
-96.3114179999999891
11
127.7066939999999988
21
-96.3316939999999988
0
LINE
8
BLACK
6
CONTINUOUS
10
127.7066939999999988
20
-96.3316939999999988
11
127.6864179999999891
21
-96.3452419999999989
0
LINE
8
BLACK
6
CONTINUOUS
10
127.6864179999999891
20
-96.3452419999999989
11
127.6624999999999943
21
-96.3499999999999943
0
LINE
8
BLACK
6
CONTINUOUS
10
127.6624999999999943
20
-96.3499999999999943
11
127.5374999999999943
21
-96.3499999999999943
0
LINE
8
BLACK
6
CONTINUOUS
10
127.5374999999999943
20
-96.3499999999999943
11
127.5135819999999995
21
-96.3452419999999989
0
LINE
8
BLACK
6
CONTINUOUS
10
127.5135819999999995
20
-96.3452419999999989
11
127.4933059999999898
21
-96.3316939999999988
0
LINE
8
BLACK
6
CONTINUOUS
10
127.4933059999999898
20
-96.3316939999999988
11
127.4797579999999897
21
-96.3114179999999891
0
LINE
8
BLACK
6
CONTINUOUS
10
127.4797579999999897
20
-96.3114179999999891
11
127.4749999999999943
21
-96.2874999999999943
0
LINE
8
BLACK
6
CONTINUOUS
10
127.4749999999999943
20
-96.2874999999999943
11
127.4749999999999943
21
-95.9124999999999943
0
LINE
8
BLACK
6
CONTINUOUS
10
127.4749999999999943
20
-95.9124999999999943
11
127.4797579999999897
21
-95.8885819999999995
0
LINE
8
BLACK
6
CONTINUOUS
10
127.4797579999999897
20
-95.8885819999999995
11
127.4933059999999898
21
-95.8683059999999898
0
LINE
8
BLACK
6
CONTINUOUS
10
127.4933059999999898
20
-95.8683059999999898
11
127.5135819999999995
21
-95.8547579999999897
0
LINE
8
BLACK
6
CONTINUOUS
10
127.5135819999999995
20
-95.8547579999999897
11
127.5374999999999943
21
-95.8499999999999943
0
LINE
8
BLACK
6
CONTINUOUS
10
127.5374999999999943
20
-95.8499999999999943
11
127.6624999999999943
21
-95.8499999999999943
0
LINE
8
BLACK
6
CONTINUOUS
10
127.6624999999999943
20
-95.8499999999999943
11
127.6864179999999891
21
-95.8547579999999897
0
LINE
8
BLACK
6
CONTINUOUS
10
141.6864180000000033
20
-95.8547579999999897
11
141.7066939999999988
21
-95.8683059999999898
0
LINE
8
BLACK
6
CONTINUOUS
10
141.7066939999999988
20
-95.8683059999999898
11
141.7202419999999847
21
-95.8885819999999995
0
LINE
8
BLACK
6
CONTINUOUS
10
141.7202419999999847
20
-95.8885819999999995
11
141.7249999999999943
21
-95.9124999999999943
0
LINE
8
BLACK
6
CONTINUOUS
10
141.7249999999999943
20
-95.9124999999999943
11
141.7249999999999943
21
-96.2874999999999943
0
LINE
8
BLACK
6
CONTINUOUS
10
141.7249999999999943
20
-96.2874999999999943
11
141.7202419999999847
21
-96.3114179999999891
0
LINE
8
BLACK
6
CONTINUOUS
10
141.7202419999999847
20
-96.3114179999999891
11
141.7066939999999988
21
-96.3316939999999988
0
LINE
8
BLACK
6
CONTINUOUS
10
141.7066939999999988
20
-96.3316939999999988
11
141.6864180000000033
21
-96.3452419999999989
0
LINE
8
BLACK
6
CONTINUOUS
10
141.6864180000000033
20
-96.3452419999999989
11
141.6624999999999943
21
-96.3499999999999943
0
LINE
8
BLACK
6
CONTINUOUS
10
141.6624999999999943
20
-96.3499999999999943
11
141.5374999999999943
21
-96.3499999999999943
0
LINE
8
BLACK
6
CONTINUOUS
10
141.5374999999999943
20
-96.3499999999999943
11
141.5135819999999853
21
-96.3452419999999989
0
LINE
8
BLACK
6
CONTINUOUS
10
141.5135819999999853
20
-96.3452419999999989
11
141.4933059999999898
21
-96.3316939999999988
0
LINE
8
BLACK
6
CONTINUOUS
10
141.4933059999999898
20
-96.3316939999999988
11
141.4797580000000039
21
-96.3114179999999891
0
LINE
8
BLACK
6
CONTINUOUS
10
141.4797580000000039
20
-96.3114179999999891
11
141.4749999999999943
21
-96.2874999999999943
0
LINE
8
BLACK
6
CONTINUOUS
10
141.4749999999999943
20
-96.2874999999999943
11
141.4749999999999943
21
-95.9124999999999943
0
LINE
8
BLACK
6
CONTINUOUS
10
141.4749999999999943
20
-95.9124999999999943
11
141.4797580000000039
21
-95.8885819999999995
0
LINE
8
BLACK
6
CONTINUOUS
10
141.4797580000000039
20
-95.8885819999999995
11
141.4933059999999898
21
-95.8683059999999898
0
LINE
8
BLACK
6
CONTINUOUS
10
141.4933059999999898
20
-95.8683059999999898
11
141.5135819999999853
21
-95.8547579999999897
0
LINE
8
BLACK
6
CONTINUOUS
10
141.5135819999999853
20
-95.8547579999999897
11
141.5374999999999943
21
-95.8499999999999943
0
LINE
8
BLACK
6
CONTINUOUS
10
141.5374999999999943
20
-95.8499999999999943
11
141.6624999999999943
21
-95.8499999999999943
0
LINE
8
BLACK
6
CONTINUOUS
10
141.6624999999999943
20
-95.8499999999999943
11
141.6864180000000033
21
-95.8547579999999897
0
LINE
8
BLACK
6
CONTINUOUS
10
142.1864180000000033
20
-95.8547579999999897
11
142.2066939999999988
21
-95.8683059999999898
0
LINE
8
BLACK
6
CONTINUOUS
10
142.2066939999999988
20
-95.8683059999999898
11
142.2202419999999847
21
-95.8885819999999995
0
LINE
8
BLACK
6
CONTINUOUS
10
142.2202419999999847
20
-95.8885819999999995
11
142.2249999999999943
21
-95.9124999999999943
0
LINE
8
BLACK
6
CONTINUOUS
10
142.2249999999999943
20
-95.9124999999999943
11
142.2249999999999943
21
-96.2874999999999943
0
LINE
8
BLACK
6
CONTINUOUS
10
142.2249999999999943
20
-96.2874999999999943
11
142.2202419999999847
21
-96.3114179999999891
0
LINE
8
BLACK
6
CONTINUOUS
10
142.2202419999999847
20
-96.3114179999999891
11
142.2066939999999988
21
-96.3316939999999988
0
LINE
8
BLACK
6
CONTINUOUS
10
142.2066939999999988
20
-96.3316939999999988
11
142.1864180000000033
21
-96.3452419999999989
0
LINE
8
BLACK
6
CONTINUOUS
10
142.1864180000000033
20
-96.3452419999999989
11
142.1624999999999943
21
-96.3499999999999943
0
LINE
8
BLACK
6
CONTINUOUS
10
142.1624999999999943
20
-96.3499999999999943
11
142.0374999999999943
21
-96.3499999999999943
0
LINE
8
BLACK
6
CONTINUOUS
10
142.0374999999999943
20
-96.3499999999999943
11
142.0135819999999853
21
-96.3452419999999989
0
LINE
8
BLACK
6
CONTINUOUS
10
142.0135819999999853
20
-96.3452419999999989
11
141.9933059999999898
21
-96.3316939999999988
0
LINE
8
BLACK
6
CONTINUOUS
10
141.9933059999999898
20
-96.3316939999999988
11
141.9797580000000039
21
-96.3114179999999891
0
LINE
8
BLACK
6
CONTINUOUS
10
141.9797580000000039
20
-96.3114179999999891
11
141.9749999999999943
21
-96.2874999999999943
0
LINE
8
BLACK
6
CONTINUOUS
10
141.9749999999999943
20
-96.2874999999999943
11
141.9749999999999943
21
-95.9124999999999943
0
LINE
8
BLACK
6
CONTINUOUS
10
141.9749999999999943
20
-95.9124999999999943
11
141.9797580000000039
21
-95.8885819999999995
0
LINE
8
BLACK
6
CONTINUOUS
10
141.9797580000000039
20
-95.8885819999999995
11
141.9933059999999898
21
-95.8683059999999898
0
LINE
8
BLACK
6
CONTINUOUS
10
141.9933059999999898
20
-95.8683059999999898
11
142.0135819999999853
21
-95.8547579999999897
0
LINE
8
BLACK
6
CONTINUOUS
10
142.0135819999999853
20
-95.8547579999999897
11
142.0374999999999943
21
-95.8499999999999943
0
LINE
8
BLACK
6
CONTINUOUS
10
142.0374999999999943
20
-95.8499999999999943
11
142.1624999999999943
21
-95.8499999999999943
0
LINE
8
BLACK
6
CONTINUOUS
10
142.1624999999999943
20
-95.8499999999999943
11
142.1864180000000033
21
-95.8547579999999897
0
LINE
8
BLACK
6
CONTINUOUS
10
142.6864180000000033
20
-95.8547579999999897
11
142.7066939999999988
21
-95.8683059999999898
0
LINE
8
BLACK
6
CONTINUOUS
10
142.7066939999999988
20
-95.8683059999999898
11
142.7202419999999847
21
-95.8885819999999995
0
LINE
8
BLACK
6
CONTINUOUS
10
142.7202419999999847
20
-95.8885819999999995
11
142.7249999999999943
21
-95.9124999999999943
0
LINE
8
BLACK
6
CONTINUOUS
10
142.7249999999999943
20
-95.9124999999999943
11
142.7249999999999943
21
-96.2874999999999943
0
LINE
8
BLACK
6
CONTINUOUS
10
142.7249999999999943
20
-96.2874999999999943
11
142.7202419999999847
21
-96.3114179999999891
0
LINE
8
BLACK
6
CONTINUOUS
10
142.7202419999999847
20
-96.3114179999999891
11
142.7066939999999988
21
-96.3316939999999988
0
LINE
8
BLACK
6
CONTINUOUS
10
142.7066939999999988
20
-96.3316939999999988
11
142.6864180000000033
21
-96.3452419999999989
0
LINE
8
BLACK
6
CONTINUOUS
10
142.6864180000000033
20
-96.3452419999999989
11
142.6624999999999943
21
-96.3499999999999943
0
LINE
8
BLACK
6
CONTINUOUS
10
142.6624999999999943
20
-96.3499999999999943
11
142.5374999999999943
21
-96.3499999999999943
0
LINE
8
BLACK
6
CONTINUOUS
10
142.5374999999999943
20
-96.3499999999999943
11
142.5135819999999853
21
-96.3452419999999989
0
LINE
8
BLACK
6
CONTINUOUS
10
142.5135819999999853
20
-96.3452419999999989
11
142.4933059999999898
21
-96.3316939999999988
0
LINE
8
BLACK
6
CONTINUOUS
10
142.4933059999999898
20
-96.3316939999999988
11
142.4797580000000039
21
-96.3114179999999891
0
LINE
8
BLACK
6
CONTINUOUS
10
142.4797580000000039
20
-96.3114179999999891
11
142.4749999999999943
21
-96.2874999999999943
0
LINE
8
BLACK
6
CONTINUOUS
10
142.4749999999999943
20
-96.2874999999999943
11
142.4749999999999943
21
-95.9124999999999943
0
LINE
8
BLACK
6
CONTINUOUS
10
142.4749999999999943
20
-95.9124999999999943
11
142.4797580000000039
21
-95.8885819999999995
0
LINE
8
BLACK
6
CONTINUOUS
10
142.4797580000000039
20
-95.8885819999999995
11
142.4933059999999898
21
-95.8683059999999898
0
LINE
8
BLACK
6
CONTINUOUS
10
142.4933059999999898
20
-95.8683059999999898
11
142.5135819999999853
21
-95.8547579999999897
0
LINE
8
BLACK
6
CONTINUOUS
10
142.5135819999999853
20
-95.8547579999999897
11
142.5374999999999943
21
-95.8499999999999943
0
LINE
8
BLACK
6
CONTINUOUS
10
142.5374999999999943
20
-95.8499999999999943
11
142.6624999999999943
21
-95.8499999999999943
0
LINE
8
BLACK
6
CONTINUOUS
10
142.6624999999999943
20
-95.8499999999999943
11
142.6864180000000033
21
-95.8547579999999897
0
LINE
8
BLACK
6
CONTINUOUS
10
143.1864180000000033
20
-95.8547579999999897
11
143.2066939999999988
21
-95.8683059999999898
0
LINE
8
BLACK
6
CONTINUOUS
10
143.2066939999999988
20
-95.8683059999999898
11
143.2202419999999847
21
-95.8885819999999995
0
LINE
8
BLACK
6
CONTINUOUS
10
143.2202419999999847
20
-95.8885819999999995
11
143.2249999999999943
21
-95.9124999999999943
0
LINE
8
BLACK
6
CONTINUOUS
10
143.2249999999999943
20
-95.9124999999999943
11
143.2249999999999943
21
-96.2874999999999943
0
LINE
8
BLACK
6
CONTINUOUS
10
143.2249999999999943
20
-96.2874999999999943
11
143.2202419999999847
21
-96.3114179999999891
0
LINE
8
BLACK
6
CONTINUOUS
10
143.2202419999999847
20
-96.3114179999999891
11
143.2066939999999988
21
-96.3316939999999988
0
LINE
8
BLACK
6
CONTINUOUS
10
143.2066939999999988
20
-96.3316939999999988
11
143.1864180000000033
21
-96.3452419999999989
0
LINE
8
BLACK
6
CONTINUOUS
10
143.1864180000000033
20
-96.3452419999999989
11
143.1624999999999943
21
-96.3499999999999943
0
LINE
8
BLACK
6
CONTINUOUS
10
143.1624999999999943
20
-96.3499999999999943
11
143.0374999999999943
21
-96.3499999999999943
0
LINE
8
BLACK
6
CONTINUOUS
10
143.0374999999999943
20
-96.3499999999999943
11
143.0135819999999853
21
-96.3452419999999989
0
LINE
8
BLACK
6
CONTINUOUS
10
143.0135819999999853
20
-96.3452419999999989
11
142.9933059999999898
21
-96.3316939999999988
0
LINE
8
BLACK
6
CONTINUOUS
10
142.9933059999999898
20
-96.3316939999999988
11
142.9797580000000039
21
-96.3114179999999891
0
LINE
8
BLACK
6
CONTINUOUS
10
142.9797580000000039
20
-96.3114179999999891
11
142.9749999999999943
21
-96.2874999999999943
0
LINE
8
BLACK
6
CONTINUOUS
10
142.9749999999999943
20
-96.2874999999999943
11
142.9749999999999943
21
-95.9124999999999943
0
LINE
8
BLACK
6
CONTINUOUS
10
142.9749999999999943
20
-95.9124999999999943
11
142.9797580000000039
21
-95.8885819999999995
0
LINE
8
BLACK
6
CONTINUOUS
10
142.9797580000000039
20
-95.8885819999999995
11
142.9933059999999898
21
-95.8683059999999898
0
LINE
8
BLACK
6
CONTINUOUS
10
142.9933059999999898
20
-95.8683059999999898
11
143.0135819999999853
21
-95.8547579999999897
0
LINE
8
BLACK
6
CONTINUOUS
10
143.0135819999999853
20
-95.8547579999999897
11
143.0374999999999943
21
-95.8499999999999943
0
LINE
8
BLACK
6
CONTINUOUS
10
143.0374999999999943
20
-95.8499999999999943
11
143.1624999999999943
21
-95.8499999999999943
0
LINE
8
BLACK
6
CONTINUOUS
10
143.1624999999999943
20
-95.8499999999999943
11
143.1864180000000033
21
-95.8547579999999897
0
LINE
8
BLACK
6
CONTINUOUS
10
128.1500000000000057
20
-88.2999999999999972
11
128.1500000000000057
21
-88.6499999999999915
0
LINE
8
BLACK
6
CONTINUOUS
10
128.1500000000000057
20
-88.6499999999999915
11
127.8499999999999943
21
-88.6499999999999915
0
LINE
8
BLACK
6
CONTINUOUS
10
127.8499999999999943
20
-88.6499999999999915
11
127.8499999999999943
21
-88.2999999999999972
0
LINE
8
BLACK
6
CONTINUOUS
10
127.8499999999999943
20
-88.2999999999999972
11
128.
21
-88.1499999999999915
0
LINE
8
BLACK
6
CONTINUOUS
10
128.
20
-88.1499999999999915
11
128.1500000000000057
21
-88.1499999999999915
0
LINE
8
BLACK
6
CONTINUOUS
10
128.1500000000000057
20
-88.1499999999999915
11
128.1500000000000057
21
-88.2999999999999972
0
LINE
8
BLACK
6
CONTINUOUS
10
128.6500000000000057
20
-88.6499999999999915
11
128.3499999999999943
21
-88.6499999999999915
0
LINE
8
BLACK
6
CONTINUOUS
10
128.3499999999999943
20
-88.6499999999999915
11
128.3499999999999943
21
-87.9500000000000028
0
LINE
8
BLACK
6
CONTINUOUS
10
128.3499999999999943
20
-87.9500000000000028
11
128.6500000000000057
21
-87.9500000000000028
0
LINE
8
BLACK
6
CONTINUOUS
10
128.6500000000000057
20
-87.9500000000000028
11
128.6500000000000057
21
-88.6499999999999915
0
LINE
8
BLACK
6
CONTINUOUS
10
129.1500000000000057
20
-88.6499999999999915
11
128.8499999999999943
21
-88.6499999999999915
0
LINE
8
BLACK
6
CONTINUOUS
10
128.8499999999999943
20
-88.6499999999999915
11
128.8499999999999943
21
-87.9500000000000028
0
LINE
8
BLACK
6
CONTINUOUS
10
128.8499999999999943
20
-87.9500000000000028
11
129.1500000000000057
21
-87.9500000000000028
0
LINE
8
BLACK
6
CONTINUOUS
10
129.1500000000000057
20
-87.9500000000000028
11
129.1500000000000057
21
-88.6499999999999915
0
LINE
8
BLACK
6
CONTINUOUS
10
129.6500000000000057
20
-88.6499999999999915
11
129.3499999999999943
21
-88.6499999999999915
0
LINE
8
BLACK
6
CONTINUOUS
10
129.3499999999999943
20
-88.6499999999999915
11
129.3499999999999943
21
-87.9500000000000028
0
LINE
8
BLACK
6
CONTINUOUS
10
129.3499999999999943
20
-87.9500000000000028
11
129.6500000000000057
21
-87.9500000000000028
0
LINE
8
BLACK
6
CONTINUOUS
10
129.6500000000000057
20
-87.9500000000000028
11
129.6500000000000057
21
-88.6499999999999915
0
LINE
8
BLACK
6
CONTINUOUS
10
130.1500000000000057
20
-88.2999999999999972
11
130.1500000000000057
21
-88.6499999999999915
0
LINE
8
BLACK
6
CONTINUOUS
10
130.1500000000000057
20
-88.6499999999999915
11
129.8499999999999943
21
-88.6499999999999915
0
LINE
8
BLACK
6
CONTINUOUS
10
129.8499999999999943
20
-88.6499999999999915
11
129.8499999999999943
21
-88.2999999999999972
0
LINE
8
BLACK
6
CONTINUOUS
10
129.8499999999999943
20
-88.2999999999999972
11
129.8499999999999943
21
-88.1499999999999915
0
LINE
8
BLACK
6
CONTINUOUS
10
129.8499999999999943
20
-88.1499999999999915
11
130.
21
-88.1499999999999915
0
LINE
8
BLACK
6
CONTINUOUS
10
130.
20
-88.1499999999999915
11
130.1500000000000057
21
-88.2999999999999972
0
LINE
8
BLACK
6
CONTINUOUS
10
122.3361039999999917
20
-87.6171269999999964
11
122.4090989999999977
21
-87.665900999999991
0
LINE
8
BLACK
6
CONTINUOUS
10
122.4090989999999977
20
-87.665900999999991
11
122.4578729999999922
21
-87.7388959999999969
0
LINE
8
BLACK
6
CONTINUOUS
10
122.4578729999999922
20
-87.7388959999999969
11
122.4749999999999943
21
-87.8250000000000028
0
LINE
8
BLACK
6
CONTINUOUS
10
122.4749999999999943
20
-87.8250000000000028
11
122.4749999999999943
21
-88.2749999999999915
0
LINE
8
BLACK
6
CONTINUOUS
10
122.4749999999999943
20
-88.2749999999999915
11
122.4578729999999922
21
-88.3611039999999974
0
LINE
8
BLACK
6
CONTINUOUS
10
122.4578729999999922
20
-88.3611039999999974
11
122.4090989999999977
21
-88.4340989999999891
0
LINE
8
BLACK
6
CONTINUOUS
10
122.4090989999999977
20
-88.4340989999999891
11
122.3361039999999917
21
-88.4828729999999979
0
LINE
8
BLACK
6
CONTINUOUS
10
122.3361039999999917
20
-88.4828729999999979
11
122.25
21
-88.5
0
LINE
8
BLACK
6
CONTINUOUS
10
122.25
20
-88.5
11
121.75
21
-88.5
0
LINE
8
BLACK
6
CONTINUOUS
10
121.75
20
-88.5
11
121.663895999999994
21
-88.4828729999999979
0
LINE
8
BLACK
6
CONTINUOUS
10
121.663895999999994
20
-88.4828729999999979
11
121.5909009999999881
21
-88.4340989999999891
0
LINE
8
BLACK
6
CONTINUOUS
10
121.5909009999999881
20
-88.4340989999999891
11
121.5421269999999936
21
-88.3611039999999974
0
LINE
8
BLACK
6
CONTINUOUS
10
121.5421269999999936
20
-88.3611039999999974
11
121.5249999999999915
21
-88.2749999999999915
0
LINE
8
BLACK
6
CONTINUOUS
10
121.5249999999999915
20
-88.2749999999999915
11
121.5249999999999915
21
-87.8250000000000028
0
LINE
8
BLACK
6
CONTINUOUS
10
121.5249999999999915
20
-87.8250000000000028
11
121.5421269999999936
21
-87.7388959999999969
0
LINE
8
BLACK
6
CONTINUOUS
10
121.5421269999999936
20
-87.7388959999999969
11
121.5909009999999881
21
-87.665900999999991
0
LINE
8
BLACK
6
CONTINUOUS
10
121.5909009999999881
20
-87.665900999999991
11
121.663895999999994
21
-87.6171269999999964
0
LINE
8
BLACK
6
CONTINUOUS
10
121.663895999999994
20
-87.6171269999999964
11
121.75
21
-87.5999999999999943
0
LINE
8
BLACK
6
CONTINUOUS
10
121.75
20
-87.5999999999999943
11
122.25
21
-87.5999999999999943
0
LINE
8
BLACK
6
CONTINUOUS
10
122.25
20
-87.5999999999999943
11
122.3361039999999917
21
-87.6171269999999964
0
LINE
8
BLACK
6
CONTINUOUS
10
124.3361039999999917
20
-87.6171269999999964
11
124.4090989999999977
21
-87.665900999999991
0
LINE
8
BLACK
6
CONTINUOUS
10
124.4090989999999977
20
-87.665900999999991
11
124.4578729999999922
21
-87.7388959999999969
0
LINE
8
BLACK
6
CONTINUOUS
10
124.4578729999999922
20
-87.7388959999999969
11
124.4749999999999943
21
-87.8250000000000028
0
LINE
8
BLACK
6
CONTINUOUS
10
124.4749999999999943
20
-87.8250000000000028
11
124.4749999999999943
21
-88.2749999999999915
0
LINE
8
BLACK
6
CONTINUOUS
10
124.4749999999999943
20
-88.2749999999999915
11
124.4578729999999922
21
-88.3611039999999974
0
LINE
8
BLACK
6
CONTINUOUS
10
124.4578729999999922
20
-88.3611039999999974
11
124.4090989999999977
21
-88.4340989999999891
0
LINE
8
BLACK
6
CONTINUOUS
10
124.4090989999999977
20
-88.4340989999999891
11
124.3361039999999917
21
-88.4828729999999979
0
LINE
8
BLACK
6
CONTINUOUS
10
124.3361039999999917
20
-88.4828729999999979
11
124.25
21
-88.5
0
LINE
8
BLACK
6
CONTINUOUS
10
124.25
20
-88.5
11
123.75
21
-88.5
0
LINE
8
BLACK
6
CONTINUOUS
10
123.75
20
-88.5
11
123.663895999999994
21
-88.4828729999999979
0
LINE
8
BLACK
6
CONTINUOUS
10
123.663895999999994
20
-88.4828729999999979
11
123.5909009999999881
21
-88.4340989999999891
0
LINE
8
BLACK
6
CONTINUOUS
10
123.5909009999999881
20
-88.4340989999999891
11
123.5421269999999936
21
-88.3611039999999974
0
LINE
8
BLACK
6
CONTINUOUS
10
123.5421269999999936
20
-88.3611039999999974
11
123.5249999999999915
21
-88.2749999999999915
0
LINE
8
BLACK
6
CONTINUOUS
10
123.5249999999999915
20
-88.2749999999999915
11
123.5249999999999915
21
-87.8250000000000028
0
LINE
8
BLACK
6
CONTINUOUS
10
123.5249999999999915
20
-87.8250000000000028
11
123.5421269999999936
21
-87.7388959999999969
0
LINE
8
BLACK
6
CONTINUOUS
10
123.5421269999999936
20
-87.7388959999999969
11
123.5909009999999881
21
-87.665900999999991
0
LINE
8
BLACK
6
CONTINUOUS
10
123.5909009999999881
20
-87.665900999999991
11
123.663895999999994
21
-87.6171269999999964
0
LINE
8
BLACK
6
CONTINUOUS
10
123.663895999999994
20
-87.6171269999999964
11
123.75
21
-87.5999999999999943
0
LINE
8
BLACK
6
CONTINUOUS
10
123.75
20
-87.5999999999999943
11
124.25
21
-87.5999999999999943
0
LINE
8
BLACK
6
CONTINUOUS
10
124.25
20
-87.5999999999999943
11
124.3361039999999917
21
-87.6171269999999964
0
LINE
8
BLACK
6
CONTINUOUS
10
126.3361039999999917
20
-87.6171269999999964
11
126.4090989999999977
21
-87.665900999999991
0
LINE
8
BLACK
6
CONTINUOUS
10
126.4090989999999977
20
-87.665900999999991
11
126.4578729999999922
21
-87.7388959999999969
0
LINE
8
BLACK
6
CONTINUOUS
10
126.4578729999999922
20
-87.7388959999999969
11
126.4749999999999943
21
-87.8250000000000028
0
LINE
8
BLACK
6
CONTINUOUS
10
126.4749999999999943
20
-87.8250000000000028
11
126.4749999999999943
21
-88.2749999999999915
0
LINE
8
BLACK
6
CONTINUOUS
10
126.4749999999999943
20
-88.2749999999999915
11
126.4578729999999922
21
-88.3611039999999974
0
LINE
8
BLACK
6
CONTINUOUS
10
126.4578729999999922
20
-88.3611039999999974
11
126.4090989999999977
21
-88.4340989999999891
0
LINE
8
BLACK
6
CONTINUOUS
10
126.4090989999999977
20
-88.4340989999999891
11
126.3361039999999917
21
-88.4828729999999979
0
LINE
8
BLACK
6
CONTINUOUS
10
126.3361039999999917
20
-88.4828729999999979
11
126.25
21
-88.5
0
LINE
8
BLACK
6
CONTINUOUS
10
126.25
20
-88.5
11
125.75
21
-88.5
0
LINE
8
BLACK
6
CONTINUOUS
10
125.75
20
-88.5
11
125.663895999999994
21
-88.4828729999999979
0
LINE
8
BLACK
6
CONTINUOUS
10
125.663895999999994
20
-88.4828729999999979
11
125.5909009999999881
21
-88.4340989999999891
0
LINE
8
BLACK
6
CONTINUOUS
10
125.5909009999999881
20
-88.4340989999999891
11
125.5421269999999936
21
-88.3611039999999974
0
LINE
8
BLACK
6
CONTINUOUS
10
125.5421269999999936
20
-88.3611039999999974
11
125.5249999999999915
21
-88.2749999999999915
0
LINE
8
BLACK
6
CONTINUOUS
10
125.5249999999999915
20
-88.2749999999999915
11
125.5249999999999915
21
-87.8250000000000028
0
LINE
8
BLACK
6
CONTINUOUS
10
125.5249999999999915
20
-87.8250000000000028
11
125.5421269999999936
21
-87.7388959999999969
0
LINE
8
BLACK
6
CONTINUOUS
10
125.5421269999999936
20
-87.7388959999999969
11
125.5909009999999881
21
-87.665900999999991
0
LINE
8
BLACK
6
CONTINUOUS
10
125.5909009999999881
20
-87.665900999999991
11
125.663895999999994
21
-87.6171269999999964
0
LINE
8
BLACK
6
CONTINUOUS
10
125.663895999999994
20
-87.6171269999999964
11
125.75
21
-87.5999999999999943
0
LINE
8
BLACK
6
CONTINUOUS
10
125.75
20
-87.5999999999999943
11
126.25
21
-87.5999999999999943
0
LINE
8
BLACK
6
CONTINUOUS
10
126.25
20
-87.5999999999999943
11
126.3361039999999917
21
-87.6171269999999964
0
LINE
8
BLACK
6
CONTINUOUS
10
127.8499999999999943
20
-88.
11
127.6999999999999886
21
-88.1499999999999915
0
LINE
8
BLACK
6
CONTINUOUS
10
127.6999999999999886
20
-88.1499999999999915
11
127.3499999999999943
21
-88.1499999999999915
0
LINE
8
BLACK
6
CONTINUOUS
10
127.3499999999999943
20
-88.1499999999999915
11
127.3499999999999943
21
-87.8499999999999943
0
LINE
8
BLACK
6
CONTINUOUS
10
127.3499999999999943
20
-87.8499999999999943
11
127.6999999999999886
21
-87.8499999999999943
0
LINE
8
BLACK
6
CONTINUOUS
10
127.6999999999999886
20
-87.8499999999999943
11
127.8499999999999943
21
-87.8499999999999943
0
LINE
8
BLACK
6
CONTINUOUS
10
127.8499999999999943
20
-87.8499999999999943
11
127.8499999999999943
21
-88.
0
LINE
8
BLACK
6
CONTINUOUS
10
130.6500000000000057
20
-88.1499999999999915
11
130.2999999999999829
21
-88.1499999999999915
0
LINE
8
BLACK
6
CONTINUOUS
10
130.2999999999999829
20
-88.1499999999999915
11
130.1500000000000057
21
-88.
0
LINE
8
BLACK
6
CONTINUOUS
10
130.1500000000000057
20
-88.
11
130.1500000000000057
21
-87.8499999999999943
0
LINE
8
BLACK
6
CONTINUOUS
10
130.1500000000000057
20
-87.8499999999999943
11
130.2999999999999829
21
-87.8499999999999943
0
LINE
8
BLACK
6
CONTINUOUS
10
130.2999999999999829
20
-87.8499999999999943
11
130.6500000000000057
21
-87.8499999999999943
0
LINE
8
BLACK
6
CONTINUOUS
10
130.6500000000000057
20
-87.8499999999999943
11
130.6500000000000057
21
-88.1499999999999915
0
LINE
8
BLACK
6
CONTINUOUS
10
141.7456709999999873
20
-86.6940299999999979
11
141.8267769999999928
21
-86.7482229999999959
0
LINE
8
BLACK
6
CONTINUOUS
10
141.8267769999999928
20
-86.7482229999999959
11
141.8809699999999907
21
-86.8293290000000013
0
LINE
8
BLACK
6
CONTINUOUS
10
141.8809699999999907
20
-86.8293290000000013
11
141.9000000000000057
21
-86.9249999999999972
0
LINE
8
BLACK
6
CONTINUOUS
10
141.9000000000000057
20
-86.9249999999999972
11
141.9000000000000057
21
-87.875
0
LINE
8
BLACK
6
CONTINUOUS
10
141.9000000000000057
20
-87.875
11
141.8809699999999907
21
-87.9706709999999958
0
LINE
8
BLACK
6
CONTINUOUS
10
141.8809699999999907
20
-87.9706709999999958
11
141.8267769999999928
21
-88.0517770000000013
0
LINE
8
BLACK
6
CONTINUOUS
10
141.8267769999999928
20
-88.0517770000000013
11
141.7456709999999873
21
-88.1059699999999992
0
LINE
8
BLACK
6
CONTINUOUS
10
141.7456709999999873
20
-88.1059699999999992
11
141.6500000000000057
21
-88.125
0
LINE
8
BLACK
6
CONTINUOUS
10
141.6500000000000057
20
-88.125
11
141.1500000000000057
21
-88.125
0
LINE
8
BLACK
6
CONTINUOUS
10
141.1500000000000057
20
-88.125
11
141.0543289999999956
21
-88.1059699999999992
0
LINE
8
BLACK
6
CONTINUOUS
10
141.0543289999999956
20
-88.1059699999999992
11
140.9732229999999902
21
-88.0517770000000013
0
LINE
8
BLACK
6
CONTINUOUS
10
140.9732229999999902
20
-88.0517770000000013
11
140.9190299999999922
21
-87.9706709999999958
0
LINE
8
BLACK
6
CONTINUOUS
10
140.9190299999999922
20
-87.9706709999999958
11
140.9000000000000057
21
-87.875
0
LINE
8
BLACK
6
CONTINUOUS
10
140.9000000000000057
20
-87.875
11
140.9000000000000057
21
-86.9249999999999972
0
LINE
8
BLACK
6
CONTINUOUS
10
140.9000000000000057
20
-86.9249999999999972
11
140.9190299999999922
21
-86.8293290000000013
0
LINE
8
BLACK
6
CONTINUOUS
10
140.9190299999999922
20
-86.8293290000000013
11
140.9732229999999902
21
-86.7482229999999959
0
LINE
8
BLACK
6
CONTINUOUS
10
140.9732229999999902
20
-86.7482229999999959
11
141.0543289999999956
21
-86.6940299999999979
0
LINE
8
BLACK
6
CONTINUOUS
10
141.0543289999999956
20
-86.6940299999999979
11
141.1500000000000057
21
-86.6749999999999972
0
LINE
8
BLACK
6
CONTINUOUS
10
141.1500000000000057
20
-86.6749999999999972
11
141.6500000000000057
21
-86.6749999999999972
0
LINE
8
BLACK
6
CONTINUOUS
10
141.6500000000000057
20
-86.6749999999999972
11
141.7456709999999873
21
-86.6940299999999979
0
LINE
8
BLACK
6
CONTINUOUS
10
143.645670999999993
20
-86.6940299999999979
11
143.7267769999999985
21
-86.7482229999999959
0
LINE
8
BLACK
6
CONTINUOUS
10
143.7267769999999985
20
-86.7482229999999959
11
143.7809699999999964
21
-86.8293290000000013
0
LINE
8
BLACK
6
CONTINUOUS
10
143.7809699999999964
20
-86.8293290000000013
11
143.7999999999999829
21
-86.9249999999999972
0
LINE
8
BLACK
6
CONTINUOUS
10
143.7999999999999829
20
-86.9249999999999972
11
143.7999999999999829
21
-87.875
0
LINE
8
BLACK
6
CONTINUOUS
10
143.7999999999999829
20
-87.875
11
143.7809699999999964
21
-87.9706709999999958
0
LINE
8
BLACK
6
CONTINUOUS
10
143.7809699999999964
20
-87.9706709999999958
11
143.7267769999999985
21
-88.0517770000000013
0
LINE
8
BLACK
6
CONTINUOUS
10
143.7267769999999985
20
-88.0517770000000013
11
143.645670999999993
21
-88.1059699999999992
0
LINE
8
BLACK
6
CONTINUOUS
10
143.645670999999993
20
-88.1059699999999992
11
143.5499999999999829
21
-88.125
0
LINE
8
BLACK
6
CONTINUOUS
10
143.5499999999999829
20
-88.125
11
143.0499999999999829
21
-88.125
0
LINE
8
BLACK
6
CONTINUOUS
10
143.0499999999999829
20
-88.125
11
142.9543290000000013
21
-88.1059699999999992
0
LINE
8
BLACK
6
CONTINUOUS
10
142.9543290000000013
20
-88.1059699999999992
11
142.8732229999999959
21
-88.0517770000000013
0
LINE
8
BLACK
6
CONTINUOUS
10
142.8732229999999959
20
-88.0517770000000013
11
142.8190299999999979
21
-87.9706709999999958
0
LINE
8
BLACK
6
CONTINUOUS
10
142.8190299999999979
20
-87.9706709999999958
11
142.7999999999999829
21
-87.875
0
LINE
8
BLACK
6
CONTINUOUS
10
142.7999999999999829
20
-87.875
11
142.7999999999999829
21
-86.9249999999999972
0
LINE
8
BLACK
6
CONTINUOUS
10
142.7999999999999829
20
-86.9249999999999972
11
142.8190299999999979
21
-86.8293290000000013
0
LINE
8
BLACK
6
CONTINUOUS
10
142.8190299999999979
20
-86.8293290000000013
11
142.8732229999999959
21
-86.7482229999999959
0
LINE
8
BLACK
6
CONTINUOUS
10
142.8732229999999959
20
-86.7482229999999959
11
142.9543290000000013
21
-86.6940299999999979
0
LINE
8
BLACK
6
CONTINUOUS
10
142.9543290000000013
20
-86.6940299999999979
11
143.0499999999999829
21
-86.6749999999999972
0
LINE
8
BLACK
6
CONTINUOUS
10
143.0499999999999829
20
-86.6749999999999972
11
143.5499999999999829
21
-86.6749999999999972
0
LINE
8
BLACK
6
CONTINUOUS
10
143.5499999999999829
20
-86.6749999999999972
11
143.645670999999993
21
-86.6940299999999979
0
LINE
8
BLACK
6
CONTINUOUS
10
128.0499999999999829
20
-87.6499999999999915
11
127.3499999999999943
21
-87.6499999999999915
0
LINE
8
BLACK
6
CONTINUOUS
10
127.3499999999999943
20
-87.6499999999999915
11
127.3499999999999943
21
-87.3499999999999943
0
LINE
8
BLACK
6
CONTINUOUS
10
127.3499999999999943
20
-87.3499999999999943
11
128.0499999999999829
21
-87.3499999999999943
0
LINE
8
BLACK
6
CONTINUOUS
10
128.0499999999999829
20
-87.3499999999999943
11
128.0499999999999829
21
-87.6499999999999915
0
LINE
8
BLACK
6
CONTINUOUS
10
130.6500000000000057
20
-87.6499999999999915
11
129.9499999999999886
21
-87.6499999999999915
0
LINE
8
BLACK
6
CONTINUOUS
10
129.9499999999999886
20
-87.6499999999999915
11
129.9499999999999886
21
-87.3499999999999943
0
LINE
8
BLACK
6
CONTINUOUS
10
129.9499999999999886
20
-87.3499999999999943
11
130.6500000000000057
21
-87.3499999999999943
0
LINE
8
BLACK
6
CONTINUOUS
10
130.6500000000000057
20
-87.3499999999999943
11
130.6500000000000057
21
-87.6499999999999915
0
LINE
8
BLACK
6
CONTINUOUS
10
128.0499999999999829
20
-87.1499999999999915
11
127.3499999999999943
21
-87.1499999999999915
0
LINE
8
BLACK
6
CONTINUOUS
10
127.3499999999999943
20
-87.1499999999999915
11
127.3499999999999943
21
-86.8499999999999943
0
LINE
8
BLACK
6
CONTINUOUS
10
127.3499999999999943
20
-86.8499999999999943
11
128.0499999999999829
21
-86.8499999999999943
0
LINE
8
BLACK
6
CONTINUOUS
10
128.0499999999999829
20
-86.8499999999999943
11
128.0499999999999829
21
-87.1499999999999915
0
LINE
8
BLACK
6
CONTINUOUS
10
130.6500000000000057
20
-87.1499999999999915
11
129.9499999999999886
21
-87.1499999999999915
0
LINE
8
BLACK
6
CONTINUOUS
10
129.9499999999999886
20
-87.1499999999999915
11
129.9499999999999886
21
-86.8499999999999943
0
LINE
8
BLACK
6
CONTINUOUS
10
129.9499999999999886
20
-86.8499999999999943
11
130.6500000000000057
21
-86.8499999999999943
0
LINE
8
BLACK
6
CONTINUOUS
10
130.6500000000000057
20
-86.8499999999999943
11
130.6500000000000057
21
-87.1499999999999915
0
LINE
8
BLACK
6
CONTINUOUS
10
122.3361039999999917
20
-86.0671269999999993
11
122.4090989999999977
21
-86.1159009999999938
0
LINE
8
BLACK
6
CONTINUOUS
10
122.4090989999999977
20
-86.1159009999999938
11
122.4578729999999922
21
-86.1888959999999997
0
LINE
8
BLACK
6
CONTINUOUS
10
122.4578729999999922
20
-86.1888959999999997
11
122.4749999999999943
21
-86.2749999999999915
0
LINE
8
BLACK
6
CONTINUOUS
10
122.4749999999999943
20
-86.2749999999999915
11
122.4749999999999943
21
-86.7249999999999943
0
LINE
8
BLACK
6
CONTINUOUS
10
122.4749999999999943
20
-86.7249999999999943
11
122.4578729999999922
21
-86.8111040000000003
0
LINE
8
BLACK
6
CONTINUOUS
10
122.4578729999999922
20
-86.8111040000000003
11
122.4090989999999977
21
-86.884098999999992
0
LINE
8
BLACK
6
CONTINUOUS
10
122.4090989999999977
20
-86.884098999999992
11
122.3361039999999917
21
-86.9328730000000007
0
LINE
8
BLACK
6
CONTINUOUS
10
122.3361039999999917
20
-86.9328730000000007
11
122.25
21
-86.9500000000000028
0
LINE
8
BLACK
6
CONTINUOUS
10
122.25
20
-86.9500000000000028
11
121.75
21
-86.9500000000000028
0
LINE
8
BLACK
6
CONTINUOUS
10
121.75
20
-86.9500000000000028
11
121.663895999999994
21
-86.9328730000000007
0
LINE
8
BLACK
6
CONTINUOUS
10
121.663895999999994
20
-86.9328730000000007
11
121.5909009999999881
21
-86.884098999999992
0
LINE
8
BLACK
6
CONTINUOUS
10
121.5909009999999881
20
-86.884098999999992
11
121.5421269999999936
21
-86.8111040000000003
0
LINE
8
BLACK
6
CONTINUOUS
10
121.5421269999999936
20
-86.8111040000000003
11
121.5249999999999915
21
-86.7249999999999943
0
LINE
8
BLACK
6
CONTINUOUS
10
121.5249999999999915
20
-86.7249999999999943
11
121.5249999999999915
21
-86.2749999999999915
0
LINE
8
BLACK
6
CONTINUOUS
10
121.5249999999999915
20
-86.2749999999999915
11
121.5421269999999936
21
-86.1888959999999997
0
LINE
8
BLACK
6
CONTINUOUS
10
121.5421269999999936
20
-86.1888959999999997
11
121.5909009999999881
21
-86.1159009999999938
0
LINE
8
BLACK
6
CONTINUOUS
10
121.5909009999999881
20
-86.1159009999999938
11
121.663895999999994
21
-86.0671269999999993
0
LINE
8
BLACK
6
CONTINUOUS
10
121.663895999999994
20
-86.0671269999999993
11
121.75
21
-86.0499999999999972
0
LINE
8
BLACK
6
CONTINUOUS
10
121.75
20
-86.0499999999999972
11
122.25
21
-86.0499999999999972
0
LINE
8
BLACK
6
CONTINUOUS
10
122.25
20
-86.0499999999999972
11
122.3361039999999917
21
-86.0671269999999993
0
LINE
8
BLACK
6
CONTINUOUS
10
124.3361039999999917
20
-86.0671269999999993
11
124.4090989999999977
21
-86.1159009999999938
0
LINE
8
BLACK
6
CONTINUOUS
10
124.4090989999999977
20
-86.1159009999999938
11
124.4578729999999922
21
-86.1888959999999997
0
LINE
8
BLACK
6
CONTINUOUS
10
124.4578729999999922
20
-86.1888959999999997
11
124.4749999999999943
21
-86.2749999999999915
0
LINE
8
BLACK
6
CONTINUOUS
10
124.4749999999999943
20
-86.2749999999999915
11
124.4749999999999943
21
-86.7249999999999943
0
LINE
8
BLACK
6
CONTINUOUS
10
124.4749999999999943
20
-86.7249999999999943
11
124.4578729999999922
21
-86.8111040000000003
0
LINE
8
BLACK
6
CONTINUOUS
10
124.4578729999999922
20
-86.8111040000000003
11
124.4090989999999977
21
-86.884098999999992
0
LINE
8
BLACK
6
CONTINUOUS
10
124.4090989999999977
20
-86.884098999999992
11
124.3361039999999917
21
-86.9328730000000007
0
LINE
8
BLACK
6
CONTINUOUS
10
124.3361039999999917
20
-86.9328730000000007
11
124.25
21
-86.9500000000000028
0
LINE
8
BLACK
6
CONTINUOUS
10
124.25
20
-86.9500000000000028
11
123.75
21
-86.9500000000000028
0
LINE
8
BLACK
6
CONTINUOUS
10
123.75
20
-86.9500000000000028
11
123.663895999999994
21
-86.9328730000000007
0
LINE
8
BLACK
6
CONTINUOUS
10
123.663895999999994
20
-86.9328730000000007
11
123.5909009999999881
21
-86.884098999999992
0
LINE
8
BLACK
6
CONTINUOUS
10
123.5909009999999881
20
-86.884098999999992
11
123.5421269999999936
21
-86.8111040000000003
0
LINE
8
BLACK
6
CONTINUOUS
10
123.5421269999999936
20
-86.8111040000000003
11
123.5249999999999915
21
-86.7249999999999943
0
LINE
8
BLACK
6
CONTINUOUS
10
123.5249999999999915
20
-86.7249999999999943
11
123.5249999999999915
21
-86.2749999999999915
0
LINE
8
BLACK
6
CONTINUOUS
10
123.5249999999999915
20
-86.2749999999999915
11
123.5421269999999936
21
-86.1888959999999997
0
LINE
8
BLACK
6
CONTINUOUS
10
123.5421269999999936
20
-86.1888959999999997
11
123.5909009999999881
21
-86.1159009999999938
0
LINE
8
BLACK
6
CONTINUOUS
10
123.5909009999999881
20
-86.1159009999999938
11
123.663895999999994
21
-86.0671269999999993
0
LINE
8
BLACK
6
CONTINUOUS
10
123.663895999999994
20
-86.0671269999999993
11
123.75
21
-86.0499999999999972
0
LINE
8
BLACK
6
CONTINUOUS
10
123.75
20
-86.0499999999999972
11
124.25
21
-86.0499999999999972
0
LINE
8
BLACK
6
CONTINUOUS
10
124.25
20
-86.0499999999999972
11
124.3361039999999917
21
-86.0671269999999993
0
LINE
8
BLACK
6
CONTINUOUS
10
126.3361039999999917
20
-86.0671269999999993
11
126.4090989999999977
21
-86.1159009999999938
0
LINE
8
BLACK
6
CONTINUOUS
10
126.4090989999999977
20
-86.1159009999999938
11
126.4578729999999922
21
-86.1888959999999997
0
LINE
8
BLACK
6
CONTINUOUS
10
126.4578729999999922
20
-86.1888959999999997
11
126.4749999999999943
21
-86.2749999999999915
0
LINE
8
BLACK
6
CONTINUOUS
10
126.4749999999999943
20
-86.2749999999999915
11
126.4749999999999943
21
-86.7249999999999943
0
LINE
8
BLACK
6
CONTINUOUS
10
126.4749999999999943
20
-86.7249999999999943
11
126.4578729999999922
21
-86.8111040000000003
0
LINE
8
BLACK
6
CONTINUOUS
10
126.4578729999999922
20
-86.8111040000000003
11
126.4090989999999977
21
-86.884098999999992
0
LINE
8
BLACK
6
CONTINUOUS
10
126.4090989999999977
20
-86.884098999999992
11
126.3361039999999917
21
-86.9328730000000007
0
LINE
8
BLACK
6
CONTINUOUS
10
126.3361039999999917
20
-86.9328730000000007
11
126.25
21
-86.9500000000000028
0
LINE
8
BLACK
6
CONTINUOUS
10
126.25
20
-86.9500000000000028
11
125.75
21
-86.9500000000000028
0
LINE
8
BLACK
6
CONTINUOUS
10
125.75
20
-86.9500000000000028
11
125.663895999999994
21
-86.9328730000000007
0
LINE
8
BLACK
6
CONTINUOUS
10
125.663895999999994
20
-86.9328730000000007
11
125.5909009999999881
21
-86.884098999999992
0
LINE
8
BLACK
6
CONTINUOUS
10
125.5909009999999881
20
-86.884098999999992
11
125.5421269999999936
21
-86.8111040000000003
0
LINE
8
BLACK
6
CONTINUOUS
10
125.5421269999999936
20
-86.8111040000000003
11
125.5249999999999915
21
-86.7249999999999943
0
LINE
8
BLACK
6
CONTINUOUS
10
125.5249999999999915
20
-86.7249999999999943
11
125.5249999999999915
21
-86.2749999999999915
0
LINE
8
BLACK
6
CONTINUOUS
10
125.5249999999999915
20
-86.2749999999999915
11
125.5421269999999936
21
-86.1888959999999997
0
LINE
8
BLACK
6
CONTINUOUS
10
125.5421269999999936
20
-86.1888959999999997
11
125.5909009999999881
21
-86.1159009999999938
0
LINE
8
BLACK
6
CONTINUOUS
10
125.5909009999999881
20
-86.1159009999999938
11
125.663895999999994
21
-86.0671269999999993
0
LINE
8
BLACK
6
CONTINUOUS
10
125.663895999999994
20
-86.0671269999999993
11
125.75
21
-86.0499999999999972
0
LINE
8
BLACK
6
CONTINUOUS
10
125.75
20
-86.0499999999999972
11
126.25
21
-86.0499999999999972
0
LINE
8
BLACK
6
CONTINUOUS
10
126.25
20
-86.0499999999999972
11
126.3361039999999917
21
-86.0671269999999993
0
LINE
8
BLACK
6
CONTINUOUS
10
133.2265370000000075
20
-85.8402239999999921
11
133.2914209999999855
21
-85.8835789999999974
0
LINE
8
BLACK
6
CONTINUOUS
10
133.2914209999999855
20
-85.8835789999999974
11
133.3347760000000051
21
-85.9484629999999896
0
LINE
8
BLACK
6
CONTINUOUS
10
133.3347760000000051
20
-85.9484629999999896
11
133.3499999999999943
21
-86.0249999999999915
0
LINE
8
BLACK
6
CONTINUOUS
10
133.3499999999999943
20
-86.0249999999999915
11
133.3499999999999943
21
-86.5750000000000028
0
LINE
8
BLACK
6
CONTINUOUS
10
133.3499999999999943
20
-86.5750000000000028
11
133.3347760000000051
21
-86.6515369999999905
0
LINE
8
BLACK
6
CONTINUOUS
10
133.3347760000000051
20
-86.6515369999999905
11
133.2914209999999855
21
-86.7164209999999969
0
LINE
8
BLACK
6
CONTINUOUS
10
133.2914209999999855
20
-86.7164209999999969
11
133.2265370000000075
21
-86.7597760000000022
0
LINE
8
BLACK
6
CONTINUOUS
10
133.2265370000000075
20
-86.7597760000000022
11
133.1500000000000057
21
-86.7749999999999915
0
LINE
8
BLACK
6
CONTINUOUS
10
133.1500000000000057
20
-86.7749999999999915
11
132.75
21
-86.7749999999999915
0
LINE
8
BLACK
6
CONTINUOUS
10
132.75
20
-86.7749999999999915
11
132.6734629999999981
21
-86.7597760000000022
0
LINE
8
BLACK
6
CONTINUOUS
10
132.6734629999999981
20
-86.7597760000000022
11
132.6085789999999918
21
-86.7164209999999969
0
LINE
8
BLACK
6
CONTINUOUS
10
132.6085789999999918
20
-86.7164209999999969
11
132.5652240000000006
21
-86.6515369999999905
0
LINE
8
BLACK
6
CONTINUOUS
10
132.5652240000000006
20
-86.6515369999999905
11
132.5499999999999829
21
-86.5750000000000028
0
LINE
8
BLACK
6
CONTINUOUS
10
132.5499999999999829
20
-86.5750000000000028
11
132.5499999999999829
21
-86.0249999999999915
0
LINE
8
BLACK
6
CONTINUOUS
10
132.5499999999999829
20
-86.0249999999999915
11
132.5652240000000006
21
-85.9484629999999896
0
LINE
8
BLACK
6
CONTINUOUS
10
132.5652240000000006
20
-85.9484629999999896
11
132.6085789999999918
21
-85.8835789999999974
0
LINE
8
BLACK
6
CONTINUOUS
10
132.6085789999999918
20
-85.8835789999999974
11
132.6734629999999981
21
-85.8402239999999921
0
LINE
8
BLACK
6
CONTINUOUS
10
132.6734629999999981
20
-85.8402239999999921
11
132.75
21
-85.8250000000000028
0
LINE
8
BLACK
6
CONTINUOUS
10
132.75
20
-85.8250000000000028
11
133.1500000000000057
21
-85.8250000000000028
0
LINE
8
BLACK
6
CONTINUOUS
10
133.1500000000000057
20
-85.8250000000000028
11
133.2265370000000075
21
-85.8402239999999921
0
LINE
8
BLACK
6
CONTINUOUS
10
134.8765369999999848
20
-85.8402239999999921
11
134.9414209999999912
21
-85.8835789999999974
0
LINE
8
BLACK
6
CONTINUOUS
10
134.9414209999999912
20
-85.8835789999999974
11
134.9847759999999823
21
-85.9484629999999896
0
LINE
8
BLACK
6
CONTINUOUS
10
134.9847759999999823
20
-85.9484629999999896
11
135.
21
-86.0249999999999915
0
LINE
8
BLACK
6
CONTINUOUS
10
135.
20
-86.0249999999999915
11
135.
21
-86.5750000000000028
0
LINE
8
BLACK
6
CONTINUOUS
10
135.
20
-86.5750000000000028
11
134.9847759999999823
21
-86.6515369999999905
0
LINE
8
BLACK
6
CONTINUOUS
10
134.9847759999999823
20
-86.6515369999999905
11
134.9414209999999912
21
-86.7164209999999969
0
LINE
8
BLACK
6
CONTINUOUS
10
134.9414209999999912
20
-86.7164209999999969
11
134.8765369999999848
21
-86.7597760000000022
0
LINE
8
BLACK
6
CONTINUOUS
10
134.8765369999999848
20
-86.7597760000000022
11
134.7999999999999829
21
-86.7749999999999915
0
LINE
8
BLACK
6
CONTINUOUS
10
134.7999999999999829
20
-86.7749999999999915
11
134.4000000000000057
21
-86.7749999999999915
0
LINE
8
BLACK
6
CONTINUOUS
10
134.4000000000000057
20
-86.7749999999999915
11
134.3234630000000038
21
-86.7597760000000022
0
LINE
8
BLACK
6
CONTINUOUS
10
134.3234630000000038
20
-86.7597760000000022
11
134.2585789999999974
21
-86.7164209999999969
0
LINE
8
BLACK
6
CONTINUOUS
10
134.2585789999999974
20
-86.7164209999999969
11
134.2152240000000063
21
-86.6515369999999905
0
LINE
8
BLACK
6
CONTINUOUS
10
134.2152240000000063
20
-86.6515369999999905
11
134.1999999999999886
21
-86.5750000000000028
0
LINE
8
BLACK
6
CONTINUOUS
10
134.1999999999999886
20
-86.5750000000000028
11
134.1999999999999886
21
-86.0249999999999915
0
LINE
8
BLACK
6
CONTINUOUS
10
134.1999999999999886
20
-86.0249999999999915
11
134.2152240000000063
21
-85.9484629999999896
0
LINE
8
BLACK
6
CONTINUOUS
10
134.2152240000000063
20
-85.9484629999999896
11
134.2585789999999974
21
-85.8835789999999974
0
LINE
8
BLACK
6
CONTINUOUS
10
134.2585789999999974
20
-85.8835789999999974
11
134.3234630000000038
21
-85.8402239999999921
0
LINE
8
BLACK
6
CONTINUOUS
10
134.3234630000000038
20
-85.8402239999999921
11
134.4000000000000057
21
-85.8250000000000028
0
LINE
8
BLACK
6
CONTINUOUS
10
134.4000000000000057
20
-85.8250000000000028
11
134.7999999999999829
21
-85.8250000000000028
0
LINE
8
BLACK
6
CONTINUOUS
10
134.7999999999999829
20
-85.8250000000000028
11
134.8765369999999848
21
-85.8402239999999921
0
LINE
8
BLACK
6
CONTINUOUS
10
128.0499999999999829
20
-86.6499999999999915
11
127.3499999999999943
21
-86.6499999999999915
0
LINE
8
BLACK
6
CONTINUOUS
10
127.3499999999999943
20
-86.6499999999999915
11
127.3499999999999943
21
-86.3499999999999943
0
LINE
8
BLACK
6
CONTINUOUS
10
127.3499999999999943
20
-86.3499999999999943
11
128.0499999999999829
21
-86.3499999999999943
0
LINE
8
BLACK
6
CONTINUOUS
10
128.0499999999999829
20
-86.3499999999999943
11
128.0499999999999829
21
-86.6499999999999915
0
LINE
8
BLACK
6
CONTINUOUS
10
130.6500000000000057
20
-86.6499999999999915
11
129.9499999999999886
21
-86.6499999999999915
0
LINE
8
BLACK
6
CONTINUOUS
10
129.9499999999999886
20
-86.6499999999999915
11
129.9499999999999886
21
-86.3499999999999943
0
LINE
8
BLACK
6
CONTINUOUS
10
129.9499999999999886
20
-86.3499999999999943
11
130.6500000000000057
21
-86.3499999999999943
0
LINE
8
BLACK
6
CONTINUOUS
10
130.6500000000000057
20
-86.3499999999999943
11
130.6500000000000057
21
-86.6499999999999915
0
LINE
8
BLACK
6
CONTINUOUS
10
127.8499999999999943
20
-86.
11
127.8499999999999943
21
-86.1499999999999915
0
LINE
8
BLACK
6
CONTINUOUS
10
127.8499999999999943
20
-86.1499999999999915
11
127.6999999999999886
21
-86.1499999999999915
0
LINE
8
BLACK
6
CONTINUOUS
10
127.6999999999999886
20
-86.1499999999999915
11
127.3499999999999943
21
-86.1499999999999915
0
LINE
8
BLACK
6
CONTINUOUS
10
127.3499999999999943
20
-86.1499999999999915
11
127.3499999999999943
21
-85.8499999999999943
0
LINE
8
BLACK
6
CONTINUOUS
10
127.3499999999999943
20
-85.8499999999999943
11
127.6999999999999886
21
-85.8499999999999943
0
LINE
8
BLACK
6
CONTINUOUS
10
127.6999999999999886
20
-85.8499999999999943
11
127.8499999999999943
21
-86.
0
LINE
8
BLACK
6
CONTINUOUS
10
130.6500000000000057
20
-86.1499999999999915
11
130.2999999999999829
21
-86.1499999999999915
0
LINE
8
BLACK
6
CONTINUOUS
10
130.2999999999999829
20
-86.1499999999999915
11
130.1500000000000057
21
-86.1499999999999915
0
LINE
8
BLACK
6
CONTINUOUS
10
130.1500000000000057
20
-86.1499999999999915
11
130.1500000000000057
21
-86.
0
LINE
8
BLACK
6
CONTINUOUS
10
130.1500000000000057
20
-86.
11
130.2999999999999829
21
-85.8499999999999943
0
LINE
8
BLACK
6
CONTINUOUS
10
130.2999999999999829
20
-85.8499999999999943
11
130.6500000000000057
21
-85.8499999999999943
0
LINE
8
BLACK
6
CONTINUOUS
10
130.6500000000000057
20
-85.8499999999999943
11
130.6500000000000057
21
-86.1499999999999915
0
LINE
8
BLACK
6
CONTINUOUS
10
128.6500000000000057
20
-86.0499999999999972
11
128.3499999999999943
21
-86.0499999999999972
0
LINE
8
BLACK
6
CONTINUOUS
10
128.3499999999999943
20
-86.0499999999999972
11
128.3499999999999943
21
-85.3499999999999943
0
LINE
8
BLACK
6
CONTINUOUS
10
128.3499999999999943
20
-85.3499999999999943
11
128.6500000000000057
21
-85.3499999999999943
0
LINE
8
BLACK
6
CONTINUOUS
10
128.6500000000000057
20
-85.3499999999999943
11
128.6500000000000057
21
-86.0499999999999972
0
LINE
8
BLACK
6
CONTINUOUS
10
129.1500000000000057
20
-86.0499999999999972
11
128.8499999999999943
21
-86.0499999999999972
0
LINE
8
BLACK
6
CONTINUOUS
10
128.8499999999999943
20
-86.0499999999999972
11
128.8499999999999943
21
-85.3499999999999943
0
LINE
8
BLACK
6
CONTINUOUS
10
128.8499999999999943
20
-85.3499999999999943
11
129.1500000000000057
21
-85.3499999999999943
0
LINE
8
BLACK
6
CONTINUOUS
10
129.1500000000000057
20
-85.3499999999999943
11
129.1500000000000057
21
-86.0499999999999972
0
LINE
8
BLACK
6
CONTINUOUS
10
129.6500000000000057
20
-86.0499999999999972
11
129.3499999999999943
21
-86.0499999999999972
0
LINE
8
BLACK
6
CONTINUOUS
10
129.3499999999999943
20
-86.0499999999999972
11
129.3499999999999943
21
-85.3499999999999943
0
LINE
8
BLACK
6
CONTINUOUS
10
129.3499999999999943
20
-85.3499999999999943
11
129.6500000000000057
21
-85.3499999999999943
0
LINE
8
BLACK
6
CONTINUOUS
10
129.6500000000000057
20
-85.3499999999999943
11
129.6500000000000057
21
-86.0499999999999972
0
LINE
8
BLACK
6
CONTINUOUS
10
128.1500000000000057
20
-85.7000000000000028
11
128.1500000000000057
21
-85.8499999999999943
0
LINE
8
BLACK
6
CONTINUOUS
10
128.1500000000000057
20
-85.8499999999999943
11
128.
21
-85.8499999999999943
0
LINE
8
BLACK
6
CONTINUOUS
10
128.
20
-85.8499999999999943
11
127.8499999999999943
21
-85.7000000000000028
0
LINE
8
BLACK
6
CONTINUOUS
10
127.8499999999999943
20
-85.7000000000000028
11
127.8499999999999943
21
-85.3499999999999943
0
LINE
8
BLACK
6
CONTINUOUS
10
127.8499999999999943
20
-85.3499999999999943
11
128.1500000000000057
21
-85.3499999999999943
0
LINE
8
BLACK
6
CONTINUOUS
10
128.1500000000000057
20
-85.3499999999999943
11
128.1500000000000057
21
-85.7000000000000028
0
LINE
8
BLACK
6
CONTINUOUS
10
130.1500000000000057
20
-85.7000000000000028
11
130.
21
-85.8499999999999943
0
LINE
8
BLACK
6
CONTINUOUS
10
130.
20
-85.8499999999999943
11
129.8499999999999943
21
-85.8499999999999943
0
LINE
8
BLACK
6
CONTINUOUS
10
129.8499999999999943
20
-85.8499999999999943
11
129.8499999999999943
21
-85.7000000000000028
0
LINE
8
BLACK
6
CONTINUOUS
10
129.8499999999999943
20
-85.7000000000000028
11
129.8499999999999943
21
-85.3499999999999943
0
LINE
8
BLACK
6
CONTINUOUS
10
129.8499999999999943
20
-85.3499999999999943
11
130.1500000000000057
21
-85.3499999999999943
0
LINE
8
BLACK
6
CONTINUOUS
10
130.1500000000000057
20
-85.3499999999999943
11
130.1500000000000057
21
-85.7000000000000028
0
LINE
8
BLACK
6
CONTINUOUS
10
142.0320009999999797
20
-84.0655900000000003
11
142.1429039999999873
21
-84.1198069999999944
0
LINE
8
BLACK
6
CONTINUOUS
10
142.1429039999999873
20
-84.1198069999999944
11
142.2301929999999857
21
-84.2070959999999928
0
LINE
8
BLACK
6
CONTINUOUS
10
142.2301929999999857
20
-84.2070959999999928
11
142.2844099999999798
21
-84.3179990000000004
0
LINE
8
BLACK
6
CONTINUOUS
10
142.2844099999999798
20
-84.3179990000000004
11
142.2999999999999829
21
-84.4249999999999972
0
LINE
8
BLACK
6
CONTINUOUS
10
142.2999999999999829
20
-84.4249999999999972
11
142.2999999999999829
21
-85.1749999999999972
0
LINE
8
BLACK
6
CONTINUOUS
10
142.2999999999999829
20
-85.1749999999999972
11
142.2844099999999798
21
-85.282000999999994
0
LINE
8
BLACK
6
CONTINUOUS
10
142.2844099999999798
20
-85.282000999999994
11
142.2301929999999857
21
-85.3929040000000015
0
LINE
8
BLACK
6
CONTINUOUS
10
142.2301929999999857
20
-85.3929040000000015
11
142.1429039999999873
21
-85.4801929999999999
0
LINE
8
BLACK
6
CONTINUOUS
10
142.1429039999999873
20
-85.4801929999999999
11
142.0320009999999797
21
-85.5344099999999941
0
LINE
8
BLACK
6
CONTINUOUS
10
142.0320009999999797
20
-85.5344099999999941
11
141.9249999999999829
21
-85.5499999999999972
0
LINE
8
BLACK
6
CONTINUOUS
10
141.9249999999999829
20
-85.5499999999999972
11
140.6749999999999829
21
-85.5499999999999972
0
LINE
8
BLACK
6
CONTINUOUS
10
140.6749999999999829
20
-85.5499999999999972
11
140.5679989999999862
21
-85.5344099999999941
0
LINE
8
BLACK
6
CONTINUOUS
10
140.5679989999999862
20
-85.5344099999999941
11
140.4570960000000071
21
-85.4801929999999999
0
LINE
8
BLACK
6
CONTINUOUS
10
140.4570960000000071
20
-85.4801929999999999
11
140.3698069999999802
21
-85.3929040000000015
0
LINE
8
BLACK
6
CONTINUOUS
10
140.3698069999999802
20
-85.3929040000000015
11
140.315589999999986
21
-85.282000999999994
0
LINE
8
BLACK
6
CONTINUOUS
10
140.315589999999986
20
-85.282000999999994
11
140.2999999999999829
21
-85.1749999999999972
0
LINE
8
BLACK
6
CONTINUOUS
10
140.2999999999999829
20
-85.1749999999999972
11
140.2999999999999829
21
-84.4249999999999972
0
LINE
8
BLACK
6
CONTINUOUS
10
140.2999999999999829
20
-84.4249999999999972
11
140.315589999999986
21
-84.3179990000000004
0
LINE
8
BLACK
6
CONTINUOUS
10
140.315589999999986
20
-84.3179990000000004
11
140.3698069999999802
21
-84.2070959999999928
0
LINE
8
BLACK
6
CONTINUOUS
10
140.3698069999999802
20
-84.2070959999999928
11
140.4570960000000071
21
-84.1198069999999944
0
LINE
8
BLACK
6
CONTINUOUS
10
140.4570960000000071
20
-84.1198069999999944
11
140.5679989999999862
21
-84.0655900000000003
0
LINE
8
BLACK
6
CONTINUOUS
10
140.5679989999999862
20
-84.0655900000000003
11
140.6749999999999829
21
-84.0499999999999972
0
LINE
8
BLACK
6
CONTINUOUS
10
140.6749999999999829
20
-84.0499999999999972
11
141.9249999999999829
21
-84.0499999999999972
0
LINE
8
BLACK
6
CONTINUOUS
10
141.9249999999999829
20
-84.0499999999999972
11
142.0320009999999797
21
-84.0655900000000003
0
LINE
8
BLACK
6
CONTINUOUS
10
123.626536999999999
20
-84.2402239999999978
11
123.6914209999999912
21
-84.2835790000000031
0
LINE
8
BLACK
6
CONTINUOUS
10
123.6914209999999912
20
-84.2835790000000031
11
123.7347759999999965
21
-84.3484629999999953
0
LINE
8
BLACK
6
CONTINUOUS
10
123.7347759999999965
20
-84.3484629999999953
11
123.75
21
-84.4249999999999972
0
LINE
8
BLACK
6
CONTINUOUS
10
123.75
20
-84.4249999999999972
11
123.75
21
-84.9749999999999943
0
LINE
8
BLACK
6
CONTINUOUS
10
123.75
20
-84.9749999999999943
11
123.7347759999999965
21
-85.0515369999999962
0
LINE
8
BLACK
6
CONTINUOUS
10
123.7347759999999965
20
-85.0515369999999962
11
123.6914209999999912
21
-85.1164210000000026
0
LINE
8
BLACK
6
CONTINUOUS
10
123.6914209999999912
20
-85.1164210000000026
11
123.626536999999999
21
-85.1597759999999937
0
LINE
8
BLACK
6
CONTINUOUS
10
123.626536999999999
20
-85.1597759999999937
11
123.5499999999999972
21
-85.1749999999999972
0
LINE
8
BLACK
6
CONTINUOUS
10
123.5499999999999972
20
-85.1749999999999972
11
123.1499999999999915
21
-85.1749999999999972
0
LINE
8
BLACK
6
CONTINUOUS
10
123.1499999999999915
20
-85.1749999999999972
11
123.0734629999999896
21
-85.1597759999999937
0
LINE
8
BLACK
6
CONTINUOUS
10
123.0734629999999896
20
-85.1597759999999937
11
123.0085789999999974
21
-85.1164210000000026
0
LINE
8
BLACK
6
CONTINUOUS
10
123.0085789999999974
20
-85.1164210000000026
11
122.9652239999999921
21
-85.0515369999999962
0
LINE
8
BLACK
6
CONTINUOUS
10
122.9652239999999921
20
-85.0515369999999962
11
122.9499999999999886
21
-84.9749999999999943
0
LINE
8
BLACK
6
CONTINUOUS
10
122.9499999999999886
20
-84.9749999999999943
11
122.9499999999999886
21
-84.4249999999999972
0
LINE
8
BLACK
6
CONTINUOUS
10
122.9499999999999886
20
-84.4249999999999972
11
122.9652239999999921
21
-84.3484629999999953
0
LINE
8
BLACK
6
CONTINUOUS
10
122.9652239999999921
20
-84.3484629999999953
11
123.0085789999999974
21
-84.2835790000000031
0
LINE
8
BLACK
6
CONTINUOUS
10
123.0085789999999974
20
-84.2835790000000031
11
123.0734629999999896
21
-84.2402239999999978
0
LINE
8
BLACK
6
CONTINUOUS
10
123.0734629999999896
20
-84.2402239999999978
11
123.1499999999999915
21
-84.2249999999999943
0
LINE
8
BLACK
6
CONTINUOUS
10
123.1499999999999915
20
-84.2249999999999943
11
123.5499999999999972
21
-84.2249999999999943
0
LINE
8
BLACK
6
CONTINUOUS
10
123.5499999999999972
20
-84.2249999999999943
11
123.626536999999999
21
-84.2402239999999978
0
LINE
8
BLACK
6
CONTINUOUS
10
125.2765369999999905
20
-84.2402239999999978
11
125.3414209999999969
21
-84.2835790000000031
0
LINE
8
BLACK
6
CONTINUOUS
10
125.3414209999999969
20
-84.2835790000000031
11
125.384775999999988
21
-84.3484629999999953
0
LINE
8
BLACK
6
CONTINUOUS
10
125.384775999999988
20
-84.3484629999999953
11
125.3999999999999915
21
-84.4249999999999972
0
LINE
8
BLACK
6
CONTINUOUS
10
125.3999999999999915
20
-84.4249999999999972
11
125.3999999999999915
21
-84.9749999999999943
0
LINE
8
BLACK
6
CONTINUOUS
10
125.3999999999999915
20
-84.9749999999999943
11
125.384775999999988
21
-85.0515369999999962
0
LINE
8
BLACK
6
CONTINUOUS
10
125.384775999999988
20
-85.0515369999999962
11
125.3414209999999969
21
-85.1164210000000026
0
LINE
8
BLACK
6
CONTINUOUS
10
125.3414209999999969
20
-85.1164210000000026
11
125.2765369999999905
21
-85.1597759999999937
0
LINE
8
BLACK
6
CONTINUOUS
10
125.2765369999999905
20
-85.1597759999999937
11
125.1999999999999886
21
-85.1749999999999972
0
LINE
8
BLACK
6
CONTINUOUS
10
125.1999999999999886
20
-85.1749999999999972
11
124.7999999999999972
21
-85.1749999999999972
0
LINE
8
BLACK
6
CONTINUOUS
10
124.7999999999999972
20
-85.1749999999999972
11
124.7234629999999953
21
-85.1597759999999937
0
LINE
8
BLACK
6
CONTINUOUS
10
124.7234629999999953
20
-85.1597759999999937
11
124.6585789999999889
21
-85.1164210000000026
0
LINE
8
BLACK
6
CONTINUOUS
10
124.6585789999999889
20
-85.1164210000000026
11
124.6152239999999978
21
-85.0515369999999962
0
LINE
8
BLACK
6
CONTINUOUS
10
124.6152239999999978
20
-85.0515369999999962
11
124.5999999999999943
21
-84.9749999999999943
0
LINE
8
BLACK
6
CONTINUOUS
10
124.5999999999999943
20
-84.9749999999999943
11
124.5999999999999943
21
-84.4249999999999972
0
LINE
8
BLACK
6
CONTINUOUS
10
124.5999999999999943
20
-84.4249999999999972
11
124.6152239999999978
21
-84.3484629999999953
0
LINE
8
BLACK
6
CONTINUOUS
10
124.6152239999999978
20
-84.3484629999999953
11
124.6585789999999889
21
-84.2835790000000031
0
LINE
8
BLACK
6
CONTINUOUS
10
124.6585789999999889
20
-84.2835790000000031
11
124.7234629999999953
21
-84.2402239999999978
0
LINE
8
BLACK
6
CONTINUOUS
10
124.7234629999999953
20
-84.2402239999999978
11
124.7999999999999972
21
-84.2249999999999943
0
LINE
8
BLACK
6
CONTINUOUS
10
124.7999999999999972
20
-84.2249999999999943
11
125.1999999999999886
21
-84.2249999999999943
0
LINE
8
BLACK
6
CONTINUOUS
10
125.1999999999999886
20
-84.2249999999999943
11
125.2765369999999905
21
-84.2402239999999978
0
LINE
8
BLACK
6
CONTINUOUS
10
133.2265370000000075
20
-84.2402239999999978
11
133.2914209999999855
21
-84.2835790000000031
0
LINE
8
BLACK
6
CONTINUOUS
10
133.2914209999999855
20
-84.2835790000000031
11
133.3347760000000051
21
-84.3484629999999953
0
LINE
8
BLACK
6
CONTINUOUS
10
133.3347760000000051
20
-84.3484629999999953
11
133.3499999999999943
21
-84.4249999999999972
0
LINE
8
BLACK
6
CONTINUOUS
10
133.3499999999999943
20
-84.4249999999999972
11
133.3499999999999943
21
-84.9749999999999943
0
LINE
8
BLACK
6
CONTINUOUS
10
133.3499999999999943
20
-84.9749999999999943
11
133.3347760000000051
21
-85.0515369999999962
0
LINE
8
BLACK
6
CONTINUOUS
10
133.3347760000000051
20
-85.0515369999999962
11
133.2914209999999855
21
-85.1164210000000026
0
LINE
8
BLACK
6
CONTINUOUS
10
133.2914209999999855
20
-85.1164210000000026
11
133.2265370000000075
21
-85.1597759999999937
0
LINE
8
BLACK
6
CONTINUOUS
10
133.2265370000000075
20
-85.1597759999999937
11
133.1500000000000057
21
-85.1749999999999972
0
LINE
8
BLACK
6
CONTINUOUS
10
133.1500000000000057
20
-85.1749999999999972
11
132.75
21
-85.1749999999999972
0
LINE
8
BLACK
6
CONTINUOUS
10
132.75
20
-85.1749999999999972
11
132.6734629999999981
21
-85.1597759999999937
0
LINE
8
BLACK
6
CONTINUOUS
10
132.6734629999999981
20
-85.1597759999999937
11
132.6085789999999918
21
-85.1164210000000026
0
LINE
8
BLACK
6
CONTINUOUS
10
132.6085789999999918
20
-85.1164210000000026
11
132.5652240000000006
21
-85.0515369999999962
0
LINE
8
BLACK
6
CONTINUOUS
10
132.5652240000000006
20
-85.0515369999999962
11
132.5499999999999829
21
-84.9749999999999943
0
LINE
8
BLACK
6
CONTINUOUS
10
132.5499999999999829
20
-84.9749999999999943
11
132.5499999999999829
21
-84.4249999999999972
0
LINE
8
BLACK
6
CONTINUOUS
10
132.5499999999999829
20
-84.4249999999999972
11
132.5652240000000006
21
-84.3484629999999953
0
LINE
8
BLACK
6
CONTINUOUS
10
132.5652240000000006
20
-84.3484629999999953
11
132.6085789999999918
21
-84.2835790000000031
0
LINE
8
BLACK
6
CONTINUOUS
10
132.6085789999999918
20
-84.2835790000000031
11
132.6734629999999981
21
-84.2402239999999978
0
LINE
8
BLACK
6
CONTINUOUS
10
132.6734629999999981
20
-84.2402239999999978
11
132.75
21
-84.2249999999999943
0
LINE
8
BLACK
6
CONTINUOUS
10
132.75
20
-84.2249999999999943
11
133.1500000000000057
21
-84.2249999999999943
0
LINE
8
BLACK
6
CONTINUOUS
10
133.1500000000000057
20
-84.2249999999999943
11
133.2265370000000075
21
-84.2402239999999978
0
LINE
8
BLACK
6
CONTINUOUS
10
134.8765369999999848
20
-84.2402239999999978
11
134.9414209999999912
21
-84.2835790000000031
0
LINE
8
BLACK
6
CONTINUOUS
10
134.9414209999999912
20
-84.2835790000000031
11
134.9847759999999823
21
-84.3484629999999953
0
LINE
8
BLACK
6
CONTINUOUS
10
134.9847759999999823
20
-84.3484629999999953
11
135.
21
-84.4249999999999972
0
LINE
8
BLACK
6
CONTINUOUS
10
135.
20
-84.4249999999999972
11
135.
21
-84.9749999999999943
0
LINE
8
BLACK
6
CONTINUOUS
10
135.
20
-84.9749999999999943
11
134.9847759999999823
21
-85.0515369999999962
0
LINE
8
BLACK
6
CONTINUOUS
10
134.9847759999999823
20
-85.0515369999999962
11
134.9414209999999912
21
-85.1164210000000026
0
LINE
8
BLACK
6
CONTINUOUS
10
134.9414209999999912
20
-85.1164210000000026
11
134.8765369999999848
21
-85.1597759999999937
0
LINE
8
BLACK
6
CONTINUOUS
10
134.8765369999999848
20
-85.1597759999999937
11
134.7999999999999829
21
-85.1749999999999972
0
LINE
8
BLACK
6
CONTINUOUS
10
134.7999999999999829
20
-85.1749999999999972
11
134.4000000000000057
21
-85.1749999999999972
0
LINE
8
BLACK
6
CONTINUOUS
10
134.4000000000000057
20
-85.1749999999999972
11
134.3234630000000038
21
-85.1597759999999937
0
LINE
8
BLACK
6
CONTINUOUS
10
134.3234630000000038
20
-85.1597759999999937
11
134.2585789999999974
21
-85.1164210000000026
0
LINE
8
BLACK
6
CONTINUOUS
10
134.2585789999999974
20
-85.1164210000000026
11
134.2152240000000063
21
-85.0515369999999962
0
LINE
8
BLACK
6
CONTINUOUS
10
134.2152240000000063
20
-85.0515369999999962
11
134.1999999999999886
21
-84.9749999999999943
0
LINE
8
BLACK
6
CONTINUOUS
10
134.1999999999999886
20
-84.9749999999999943
11
134.1999999999999886
21
-84.4249999999999972
0
LINE
8
BLACK
6
CONTINUOUS
10
134.1999999999999886
20
-84.4249999999999972
11
134.2152240000000063
21
-84.3484629999999953
0
LINE
8
BLACK
6
CONTINUOUS
10
134.2152240000000063
20
-84.3484629999999953
11
134.2585789999999974
21
-84.2835790000000031
0
LINE
8
BLACK
6
CONTINUOUS
10
134.2585789999999974
20
-84.2835790000000031
11
134.3234630000000038
21
-84.2402239999999978
0
LINE
8
BLACK
6
CONTINUOUS
10
134.3234630000000038
20
-84.2402239999999978
11
134.4000000000000057
21
-84.2249999999999943
0
LINE
8
BLACK
6
CONTINUOUS
10
134.4000000000000057
20
-84.2249999999999943
11
134.7999999999999829
21
-84.2249999999999943
0
LINE
8
BLACK
6
CONTINUOUS
10
134.7999999999999829
20
-84.2249999999999943
11
134.8765369999999848
21
-84.2402239999999978
0
LINE
8
BLACK
6
CONTINUOUS
10
127.0399619999999885
20
-83.9791510000000017
11
127.1109299999999962
21
-84.0265699999999924
0
LINE
8
BLACK
6
CONTINUOUS
10
127.1109299999999962
20
-84.0265699999999924
11
127.1583490000000012
21
-84.0975380000000001
0
LINE
8
BLACK
6
CONTINUOUS
10
127.1583490000000012
20
-84.0975380000000001
11
127.1749999999999972
21
-84.1812499999999915
0
LINE
8
BLACK
6
CONTINUOUS
10
127.1749999999999972
20
-84.1812499999999915
11
127.1749999999999972
21
-84.6187499999999915
0
LINE
8
BLACK
6
CONTINUOUS
10
127.1749999999999972
20
-84.6187499999999915
11
127.1583490000000012
21
-84.702461999999997
0
LINE
8
BLACK
6
CONTINUOUS
10
127.1583490000000012
20
-84.702461999999997
11
127.1109299999999962
21
-84.7734299999999905
0
LINE
8
BLACK
6
CONTINUOUS
10
127.1109299999999962
20
-84.7734299999999905
11
127.0399619999999885
21
-84.8208489999999955
0
LINE
8
BLACK
6
CONTINUOUS
10
127.0399619999999885
20
-84.8208489999999955
11
126.9562499999999972
21
-84.8374999999999915
0
LINE
8
BLACK
6
CONTINUOUS
10
126.9562499999999972
20
-84.8374999999999915
11
126.4437499999999943
21
-84.8374999999999915
0
LINE
8
BLACK
6
CONTINUOUS
10
126.4437499999999943
20
-84.8374999999999915
11
126.3600379999999888
21
-84.8208489999999955
0
LINE
8
BLACK
6
CONTINUOUS
10
126.3600379999999888
20
-84.8208489999999955
11
126.2890699999999953
21
-84.7734299999999905
0
LINE
8
BLACK
6
CONTINUOUS
10
126.2890699999999953
20
-84.7734299999999905
11
126.2416509999999903
21
-84.702461999999997
0
LINE
8
BLACK
6
CONTINUOUS
10
126.2416509999999903
20
-84.702461999999997
11
126.2249999999999943
21
-84.6187499999999915
0
LINE
8
BLACK
6
CONTINUOUS
10
126.2249999999999943
20
-84.6187499999999915
11
126.2249999999999943
21
-84.1812499999999915
0
LINE
8
BLACK
6
CONTINUOUS
10
126.2249999999999943
20
-84.1812499999999915
11
126.2416509999999903
21
-84.0975380000000001
0
LINE
8
BLACK
6
CONTINUOUS
10
126.2416509999999903
20
-84.0975380000000001
11
126.2890699999999953
21
-84.0265699999999924
0
LINE
8
BLACK
6
CONTINUOUS
10
126.2890699999999953
20
-84.0265699999999924
11
126.3600379999999888
21
-83.9791510000000017
0
LINE
8
BLACK
6
CONTINUOUS
10
126.3600379999999888
20
-83.9791510000000017
11
126.4437499999999943
21
-83.9624999999999915
0
LINE
8
BLACK
6
CONTINUOUS
10
126.4437499999999943
20
-83.9624999999999915
11
126.9562499999999972
21
-83.9624999999999915
0
LINE
8
BLACK
6
CONTINUOUS
10
126.9562499999999972
20
-83.9624999999999915
11
127.0399619999999885
21
-83.9791510000000017
0
LINE
8
BLACK
6
CONTINUOUS
10
148.2062829999999849
20
-80.6114269999999919
11
148.3396239999999864
21
-80.6611609999999928
0
LINE
8
BLACK
6
CONTINUOUS
10
148.3396239999999864
20
-80.6611609999999928
11
148.4535529999999994
21
-80.7464470000000034
0
LINE
8
BLACK
6
CONTINUOUS
10
148.4535529999999994
20
-80.7464470000000034
11
148.5388389999999958
21
-80.8603760000000023
0
LINE
8
BLACK
6
CONTINUOUS
10
148.5388389999999958
20
-80.8603760000000023
11
148.5885729999999967
21
-80.9937169999999895
0
LINE
8
BLACK
6
CONTINUOUS
10
148.5885729999999967
20
-80.9937169999999895
11
148.5999999999999943
21
-81.0999999999999943
0
LINE
8
BLACK
6
CONTINUOUS
10
148.5999999999999943
20
-81.0999999999999943
11
148.5999999999999943
21
-83.8999999999999915
0
LINE
8
BLACK
6
CONTINUOUS
10
148.5999999999999943
20
-83.8999999999999915
11
148.5885729999999967
21
-84.0062829999999963
0
LINE
8
BLACK
6
CONTINUOUS
10
148.5885729999999967
20
-84.0062829999999963
11
148.5388389999999958
21
-84.1396239999999977
0
LINE
8
BLACK
6
CONTINUOUS
10
148.5388389999999958
20
-84.1396239999999977
11
148.4535529999999994
21
-84.2535529999999966
0
LINE
8
BLACK
6
CONTINUOUS
10
148.4535529999999994
20
-84.2535529999999966
11
148.3396239999999864
21
-84.338838999999993
0
LINE
8
BLACK
6
CONTINUOUS
10
148.3396239999999864
20
-84.338838999999993
11
148.2062829999999849
21
-84.3885729999999938
0
LINE
8
BLACK
6
CONTINUOUS
10
148.2062829999999849
20
-84.3885729999999938
11
148.0999999999999943
21
-84.3999999999999915
0
LINE
8
BLACK
6
CONTINUOUS
10
148.0999999999999943
20
-84.3999999999999915
11
147.0999999999999943
21
-84.3999999999999915
0
LINE
8
BLACK
6
CONTINUOUS
10
147.0999999999999943
20
-84.3999999999999915
11
146.9937170000000037
21
-84.3885729999999938
0
LINE
8
BLACK
6
CONTINUOUS
10
146.9937170000000037
20
-84.3885729999999938
11
146.8603760000000023
21
-84.338838999999993
0
LINE
8
BLACK
6
CONTINUOUS
10
146.8603760000000023
20
-84.338838999999993
11
146.7464469999999892
21
-84.2535529999999966
0
LINE
8
BLACK
6
CONTINUOUS
10
146.7464469999999892
20
-84.2535529999999966
11
146.6611609999999928
21
-84.1396239999999977
0
LINE
8
BLACK
6
CONTINUOUS
10
146.6611609999999928
20
-84.1396239999999977
11
146.6114269999999919
21
-84.0062829999999963
0
LINE
8
BLACK
6
CONTINUOUS
10
146.6114269999999919
20
-84.0062829999999963
11
146.5999999999999943
21
-83.8999999999999915
0
LINE
8
BLACK
6
CONTINUOUS
10
146.5999999999999943
20
-83.8999999999999915
11
146.5999999999999943
21
-81.0999999999999943
0
LINE
8
BLACK
6
CONTINUOUS
10
146.5999999999999943
20
-81.0999999999999943
11
146.6114269999999919
21
-80.9937169999999895
0
LINE
8
BLACK
6
CONTINUOUS
10
146.6114269999999919
20
-80.9937169999999895
11
146.6611609999999928
21
-80.8603760000000023
0
LINE
8
BLACK
6
CONTINUOUS
10
146.6611609999999928
20
-80.8603760000000023
11
146.7464469999999892
21
-80.7464470000000034
0
LINE
8
BLACK
6
CONTINUOUS
10
146.7464469999999892
20
-80.7464470000000034
11
146.8603760000000023
21
-80.6611609999999928
0
LINE
8
BLACK
6
CONTINUOUS
10
146.8603760000000023
20
-80.6611609999999928
11
146.9937170000000037
21
-80.6114269999999919
0
LINE
8
BLACK
6
CONTINUOUS
10
146.9937170000000037
20
-80.6114269999999919
11
147.0999999999999943
21
-80.5999999999999943
0
LINE
8
BLACK
6
CONTINUOUS
10
147.0999999999999943
20
-80.5999999999999943
11
148.0999999999999943
21
-80.5999999999999943
0
LINE
8
BLACK
6
CONTINUOUS
10
148.0999999999999943
20
-80.5999999999999943
11
148.2062829999999849
21
-80.6114269999999919
0
LINE
8
BLACK
6
CONTINUOUS
10
127.0399619999999885
20
-82.4041489999999897
11
127.1109299999999962
21
-82.4515679999999946
0
LINE
8
BLACK
6
CONTINUOUS
10
127.1109299999999962
20
-82.4515679999999946
11
127.1583490000000012
21
-82.5225360000000023
0
LINE
8
BLACK
6
CONTINUOUS
10
127.1583490000000012
20
-82.5225360000000023
11
127.1749999999999972
21
-82.6062479999999937
0
LINE
8
BLACK
6
CONTINUOUS
10
127.1749999999999972
20
-82.6062479999999937
11
127.1749999999999972
21
-83.0437479999999937
0
LINE
8
BLACK
6
CONTINUOUS
10
127.1749999999999972
20
-83.0437479999999937
11
127.1583490000000012
21
-83.1274599999999992
0
LINE
8
BLACK
6
CONTINUOUS
10
127.1583490000000012
20
-83.1274599999999992
11
127.1109299999999962
21
-83.1984279999999927
0
LINE
8
BLACK
6
CONTINUOUS
10
127.1109299999999962
20
-83.1984279999999927
11
127.0399619999999885
21
-83.2458469999999977
0
LINE
8
BLACK
6
CONTINUOUS
10
127.0399619999999885
20
-83.2458469999999977
11
126.9562499999999972
21
-83.2624979999999937
0
LINE
8
BLACK
6
CONTINUOUS
10
126.9562499999999972
20
-83.2624979999999937
11
126.4437499999999943
21
-83.2624979999999937
0
LINE
8
BLACK
6
CONTINUOUS
10
126.4437499999999943
20
-83.2624979999999937
11
126.3600379999999888
21
-83.2458469999999977
0
LINE
8
BLACK
6
CONTINUOUS
10
126.3600379999999888
20
-83.2458469999999977
11
126.2890699999999953
21
-83.1984279999999927
0
LINE
8
BLACK
6
CONTINUOUS
10
126.2890699999999953
20
-83.1984279999999927
11
126.2416509999999903
21
-83.1274599999999992
0
LINE
8
BLACK
6
CONTINUOUS
10
126.2416509999999903
20
-83.1274599999999992
11
126.2249999999999943
21
-83.0437479999999937
0
LINE
8
BLACK
6
CONTINUOUS
10
126.2249999999999943
20
-83.0437479999999937
11
126.2249999999999943
21
-82.6062479999999937
0
LINE
8
BLACK
6
CONTINUOUS
10
126.2249999999999943
20
-82.6062479999999937
11
126.2416509999999903
21
-82.5225360000000023
0
LINE
8
BLACK
6
CONTINUOUS
10
126.2416509999999903
20
-82.5225360000000023
11
126.2890699999999953
21
-82.4515679999999946
0
LINE
8
BLACK
6
CONTINUOUS
10
126.2890699999999953
20
-82.4515679999999946
11
126.3600379999999888
21
-82.4041489999999897
0
LINE
8
BLACK
6
CONTINUOUS
10
126.3600379999999888
20
-82.4041489999999897
11
126.4437499999999943
21
-82.3874979999999937
0
LINE
8
BLACK
6
CONTINUOUS
10
126.4437499999999943
20
-82.3874979999999937
11
126.9562499999999972
21
-82.3874979999999937
0
LINE
8
BLACK
6
CONTINUOUS
10
126.9562499999999972
20
-82.3874979999999937
11
127.0399619999999885
21
-82.4041489999999897
0
LINE
8
BLACK
6
CONTINUOUS
10
142.0320009999999797
20
-81.7655900000000031
11
142.1429039999999873
21
-81.8198069999999973
0
LINE
8
BLACK
6
CONTINUOUS
10
142.1429039999999873
20
-81.8198069999999973
11
142.2301929999999857
21
-81.9070959999999957
0
LINE
8
BLACK
6
CONTINUOUS
10
142.2301929999999857
20
-81.9070959999999957
11
142.2844099999999798
21
-82.0179990000000032
0
LINE
8
BLACK
6
CONTINUOUS
10
142.2844099999999798
20
-82.0179990000000032
11
142.2999999999999829
21
-82.125
0
LINE
8
BLACK
6
CONTINUOUS
10
142.2999999999999829
20
-82.125
11
142.2999999999999829
21
-82.875
0
LINE
8
BLACK
6
CONTINUOUS
10
142.2999999999999829
20
-82.875
11
142.2844099999999798
21
-82.9820009999999968
0
LINE
8
BLACK
6
CONTINUOUS
10
142.2844099999999798
20
-82.9820009999999968
11
142.2301929999999857
21
-83.0929039999999901
0
LINE
8
BLACK
6
CONTINUOUS
10
142.2301929999999857
20
-83.0929039999999901
11
142.1429039999999873
21
-83.1801930000000027
0
LINE
8
BLACK
6
CONTINUOUS
10
142.1429039999999873
20
-83.1801930000000027
11
142.0320009999999797
21
-83.2344099999999969
0
LINE
8
BLACK
6
CONTINUOUS
10
142.0320009999999797
20
-83.2344099999999969
11
141.9249999999999829
21
-83.25
0
LINE
8
BLACK
6
CONTINUOUS
10
141.9249999999999829
20
-83.25
11
140.6749999999999829
21
-83.25
0
LINE
8
BLACK
6
CONTINUOUS
10
140.6749999999999829
20
-83.25
11
140.5679989999999862
21
-83.2344099999999969
0
LINE
8
BLACK
6
CONTINUOUS
10
140.5679989999999862
20
-83.2344099999999969
11
140.4570960000000071
21
-83.1801930000000027
0
LINE
8
BLACK
6
CONTINUOUS
10
140.4570960000000071
20
-83.1801930000000027
11
140.3698069999999802
21
-83.0929039999999901
0
LINE
8
BLACK
6
CONTINUOUS
10
140.3698069999999802
20
-83.0929039999999901
11
140.315589999999986
21
-82.9820009999999968
0
LINE
8
BLACK
6
CONTINUOUS
10
140.315589999999986
20
-82.9820009999999968
11
140.2999999999999829
21
-82.875
0
LINE
8
BLACK
6
CONTINUOUS
10
140.2999999999999829
20
-82.875
11
140.2999999999999829
21
-82.125
0
LINE
8
BLACK
6
CONTINUOUS
10
140.2999999999999829
20
-82.125
11
140.315589999999986
21
-82.0179990000000032
0
LINE
8
BLACK
6
CONTINUOUS
10
140.315589999999986
20
-82.0179990000000032
11
140.3698069999999802
21
-81.9070959999999957
0
LINE
8
BLACK
6
CONTINUOUS
10
140.3698069999999802
20
-81.9070959999999957
11
140.4570960000000071
21
-81.8198069999999973
0
LINE
8
BLACK
6
CONTINUOUS
10
140.4570960000000071
20
-81.8198069999999973
11
140.5679989999999862
21
-81.7655900000000031
0
LINE
8
BLACK
6
CONTINUOUS
10
140.5679989999999862
20
-81.7655900000000031
11
140.6749999999999829
21
-81.75
0
LINE
8
BLACK
6
CONTINUOUS
10
140.6749999999999829
20
-81.75
11
141.9249999999999829
21
-81.75
0
LINE
8
BLACK
6
CONTINUOUS
10
141.9249999999999829
20
-81.75
11
142.0320009999999797
21
-81.7655900000000031
0
LINE
8
BLACK
6
CONTINUOUS
10
142.0320009999999797
20
-79.4655899999999917
11
142.1429039999999873
21
-79.5198070000000001
0
LINE
8
BLACK
6
CONTINUOUS
10
142.1429039999999873
20
-79.5198070000000001
11
142.2301929999999857
21
-79.6070959999999985
0
LINE
8
BLACK
6
CONTINUOUS
10
142.2301929999999857
20
-79.6070959999999985
11
142.2844099999999798
21
-79.7179989999999918
0
LINE
8
BLACK
6
CONTINUOUS
10
142.2844099999999798
20
-79.7179989999999918
11
142.2999999999999829
21
-79.8250000000000028
0
LINE
8
BLACK
6
CONTINUOUS
10
142.2999999999999829
20
-79.8250000000000028
11
142.2999999999999829
21
-80.5750000000000028
0
LINE
8
BLACK
6
CONTINUOUS
10
142.2999999999999829
20
-80.5750000000000028
11
142.2844099999999798
21
-80.6820009999999996
0
LINE
8
BLACK
6
CONTINUOUS
10
142.2844099999999798
20
-80.6820009999999996
11
142.2301929999999857
21
-80.7929039999999929
0
LINE
8
BLACK
6
CONTINUOUS
10
142.2301929999999857
20
-80.7929039999999929
11
142.1429039999999873
21
-80.8801929999999913
0
LINE
8
BLACK
6
CONTINUOUS
10
142.1429039999999873
20
-80.8801929999999913
11
142.0320009999999797
21
-80.9344099999999997
0
LINE
8
BLACK
6
CONTINUOUS
10
142.0320009999999797
20
-80.9344099999999997
11
141.9249999999999829
21
-80.9500000000000028
0
LINE
8
BLACK
6
CONTINUOUS
10
141.9249999999999829
20
-80.9500000000000028
11
140.6749999999999829
21
-80.9500000000000028
0
LINE
8
BLACK
6
CONTINUOUS
10
140.6749999999999829
20
-80.9500000000000028
11
140.5679989999999862
21
-80.9344099999999997
0
LINE
8
BLACK
6
CONTINUOUS
10
140.5679989999999862
20
-80.9344099999999997
11
140.4570960000000071
21
-80.8801929999999913
0
LINE
8
BLACK
6
CONTINUOUS
10
140.4570960000000071
20
-80.8801929999999913
11
140.3698069999999802
21
-80.7929039999999929
0
LINE
8
BLACK
6
CONTINUOUS
10
140.3698069999999802
20
-80.7929039999999929
11
140.315589999999986
21
-80.6820009999999996
0
LINE
8
BLACK
6
CONTINUOUS
10
140.315589999999986
20
-80.6820009999999996
11
140.2999999999999829
21
-80.5750000000000028
0
LINE
8
BLACK
6
CONTINUOUS
10
140.2999999999999829
20
-80.5750000000000028
11
140.2999999999999829
21
-79.8250000000000028
0
LINE
8
BLACK
6
CONTINUOUS
10
140.2999999999999829
20
-79.8250000000000028
11
140.315589999999986
21
-79.7179989999999918
0
LINE
8
BLACK
6
CONTINUOUS
10
140.315589999999986
20
-79.7179989999999918
11
140.3698069999999802
21
-79.6070959999999985
0
LINE
8
BLACK
6
CONTINUOUS
10
140.3698069999999802
20
-79.6070959999999985
11
140.4570960000000071
21
-79.5198070000000001
0
LINE
8
BLACK
6
CONTINUOUS
10
140.4570960000000071
20
-79.5198070000000001
11
140.5679989999999862
21
-79.4655899999999917
0
LINE
8
BLACK
6
CONTINUOUS
10
140.5679989999999862
20
-79.4655899999999917
11
140.6749999999999829
21
-79.4500000000000028
0
LINE
8
BLACK
6
CONTINUOUS
10
140.6749999999999829
20
-79.4500000000000028
11
141.9249999999999829
21
-79.4500000000000028
0
LINE
8
BLACK
6
CONTINUOUS
10
141.9249999999999829
20
-79.4500000000000028
11
142.0320009999999797
21
-79.4655899999999917
0
LINE
8
BLACK
6
CONTINUOUS
10
128.336104000000006
20
-78.5671269999999993
11
128.4090989999999977
21
-78.6159009999999938
0
LINE
8
BLACK
6
CONTINUOUS
10
128.4090989999999977
20
-78.6159009999999938
11
128.4578730000000064
21
-78.6888959999999997
0
LINE
8
BLACK
6
CONTINUOUS
10
128.4578730000000064
20
-78.6888959999999997
11
128.4749999999999943
21
-78.7749999999999915
0
LINE
8
BLACK
6
CONTINUOUS
10
128.4749999999999943
20
-78.7749999999999915
11
128.4749999999999943
21
-79.2249999999999943
0
LINE
8
BLACK
6
CONTINUOUS
10
128.4749999999999943
20
-79.2249999999999943
11
128.4578730000000064
21
-79.3111040000000003
0
LINE
8
BLACK
6
CONTINUOUS
10
128.4578730000000064
20
-79.3111040000000003
11
128.4090989999999977
21
-79.384098999999992
0
LINE
8
BLACK
6
CONTINUOUS
10
128.4090989999999977
20
-79.384098999999992
11
128.336104000000006
21
-79.4328730000000007
0
LINE
8
BLACK
6
CONTINUOUS
10
128.336104000000006
20
-79.4328730000000007
11
128.25
21
-79.4500000000000028
0
LINE
8
BLACK
6
CONTINUOUS
10
128.25
20
-79.4500000000000028
11
127.75
21
-79.4500000000000028
0
LINE
8
BLACK
6
CONTINUOUS
10
127.75
20
-79.4500000000000028
11
127.663895999999994
21
-79.4328730000000007
0
LINE
8
BLACK
6
CONTINUOUS
10
127.663895999999994
20
-79.4328730000000007
11
127.5909009999999881
21
-79.384098999999992
0
LINE
8
BLACK
6
CONTINUOUS
10
127.5909009999999881
20
-79.384098999999992
11
127.5421269999999936
21
-79.3111040000000003
0
LINE
8
BLACK
6
CONTINUOUS
10
127.5421269999999936
20
-79.3111040000000003
11
127.5249999999999915
21
-79.2249999999999943
0
LINE
8
BLACK
6
CONTINUOUS
10
127.5249999999999915
20
-79.2249999999999943
11
127.5249999999999915
21
-78.7749999999999915
0
LINE
8
BLACK
6
CONTINUOUS
10
127.5249999999999915
20
-78.7749999999999915
11
127.5421269999999936
21
-78.6888959999999997
0
LINE
8
BLACK
6
CONTINUOUS
10
127.5421269999999936
20
-78.6888959999999997
11
127.5909009999999881
21
-78.6159009999999938
0
LINE
8
BLACK
6
CONTINUOUS
10
127.5909009999999881
20
-78.6159009999999938
11
127.663895999999994
21
-78.5671269999999993
0
LINE
8
BLACK
6
CONTINUOUS
10
127.663895999999994
20
-78.5671269999999993
11
127.75
21
-78.5499999999999972
0
LINE
8
BLACK
6
CONTINUOUS
10
127.75
20
-78.5499999999999972
11
128.25
21
-78.5499999999999972
0
LINE
8
BLACK
6
CONTINUOUS
10
128.25
20
-78.5499999999999972
11
128.336104000000006
21
-78.5671269999999993
0
LINE
8
BLACK
6
CONTINUOUS
10
130.594902999999988
20
-78.7114179999999948
11
130.6435659999999928
21
-78.7439339999999959
0
LINE
8
BLACK
6
CONTINUOUS
10
130.6435659999999928
20
-78.7439339999999959
11
130.6760820000000081
21
-78.7925970000000007
0
LINE
8
BLACK
6
CONTINUOUS
10
130.6760820000000081
20
-78.7925970000000007
11
130.6875
21
-78.8499999999999943
0
LINE
8
BLACK
6
CONTINUOUS
10
130.6875
20
-78.8499999999999943
11
130.6875
21
-79.1499999999999915
0
LINE
8
BLACK
6
CONTINUOUS
10
130.6875
20
-79.1499999999999915
11
130.6760820000000081
21
-79.2074029999999993
0
LINE
8
BLACK
6
CONTINUOUS
10
130.6760820000000081
20
-79.2074029999999993
11
130.6435659999999928
21
-79.2560659999999899
0
LINE
8
BLACK
6
CONTINUOUS
10
130.6435659999999928
20
-79.2560659999999899
11
130.594902999999988
21
-79.288581999999991
0
LINE
8
BLACK
6
CONTINUOUS
10
130.594902999999988
20
-79.288581999999991
11
130.5374999999999943
21
-79.2999999999999972
0
LINE
8
BLACK
6
CONTINUOUS
10
130.5374999999999943
20
-79.2999999999999972
11
129.5124999999999886
21
-79.2999999999999972
0
LINE
8
BLACK
6
CONTINUOUS
10
129.5124999999999886
20
-79.2999999999999972
11
129.455096999999995
21
-79.288581999999991
0
LINE
8
BLACK
6
CONTINUOUS
10
129.455096999999995
20
-79.288581999999991
11
129.4064339999999902
21
-79.2560659999999899
0
LINE
8
BLACK
6
CONTINUOUS
10
129.4064339999999902
20
-79.2560659999999899
11
129.3739180000000033
21
-79.2074029999999993
0
LINE
8
BLACK
6
CONTINUOUS
10
129.3739180000000033
20
-79.2074029999999993
11
129.3624999999999829
21
-79.1499999999999915
0
LINE
8
BLACK
6
CONTINUOUS
10
129.3624999999999829
20
-79.1499999999999915
11
129.3624999999999829
21
-78.8499999999999943
0
LINE
8
BLACK
6
CONTINUOUS
10
129.3624999999999829
20
-78.8499999999999943
11
129.3739180000000033
21
-78.7925970000000007
0
LINE
8
BLACK
6
CONTINUOUS
10
129.3739180000000033
20
-78.7925970000000007
11
129.4064339999999902
21
-78.7439339999999959
0
LINE
8
BLACK
6
CONTINUOUS
10
129.4064339999999902
20
-78.7439339999999959
11
129.455096999999995
21
-78.7114179999999948
0
LINE
8
BLACK
6
CONTINUOUS
10
129.455096999999995
20
-78.7114179999999948
11
129.5124999999999886
21
-78.7000000000000028
0
LINE
8
BLACK
6
CONTINUOUS
10
129.5124999999999886
20
-78.7000000000000028
11
130.5374999999999943
21
-78.7000000000000028
0
LINE
8
BLACK
6
CONTINUOUS
10
130.5374999999999943
20
-78.7000000000000028
11
130.594902999999988
21
-78.7114179999999948
0
LINE
8
BLACK
6
CONTINUOUS
10
132.8699029999999937
20
-78.7114179999999948
11
132.9185659999999984
21
-78.7439339999999959
0
LINE
8
BLACK
6
CONTINUOUS
10
132.9185659999999984
20
-78.7439339999999959
11
132.9510819999999853
21
-78.7925970000000007
0
LINE
8
BLACK
6
CONTINUOUS
10
132.9510819999999853
20
-78.7925970000000007
11
132.9625000000000057
21
-78.8499999999999943
0
LINE
8
BLACK
6
CONTINUOUS
10
132.9625000000000057
20
-78.8499999999999943
11
132.9625000000000057
21
-79.1499999999999915
0
LINE
8
BLACK
6
CONTINUOUS
10
132.9625000000000057
20
-79.1499999999999915
11
132.9510819999999853
21
-79.2074029999999993
0
LINE
8
BLACK
6
CONTINUOUS
10
132.9510819999999853
20
-79.2074029999999993
11
132.9185659999999984
21
-79.2560659999999899
0
LINE
8
BLACK
6
CONTINUOUS
10
132.9185659999999984
20
-79.2560659999999899
11
132.8699029999999937
21
-79.288581999999991
0
LINE
8
BLACK
6
CONTINUOUS
10
132.8699029999999937
20
-79.288581999999991
11
132.8125
21
-79.2999999999999972
0
LINE
8
BLACK
6
CONTINUOUS
10
132.8125
20
-79.2999999999999972
11
131.7874999999999943
21
-79.2999999999999972
0
LINE
8
BLACK
6
CONTINUOUS
10
131.7874999999999943
20
-79.2999999999999972
11
131.7300970000000007
21
-79.288581999999991
0
LINE
8
BLACK
6
CONTINUOUS
10
131.7300970000000007
20
-79.288581999999991
11
131.6814339999999959
21
-79.2560659999999899
0
LINE
8
BLACK
6
CONTINUOUS
10
131.6814339999999959
20
-79.2560659999999899
11
131.6489179999999806
21
-79.2074029999999993
0
LINE
8
BLACK
6
CONTINUOUS
10
131.6489179999999806
20
-79.2074029999999993
11
131.6374999999999886
21
-79.1499999999999915
0
LINE
8
BLACK
6
CONTINUOUS
10
131.6374999999999886
20
-79.1499999999999915
11
131.6374999999999886
21
-78.8499999999999943
0
LINE
8
BLACK
6
CONTINUOUS
10
131.6374999999999886
20
-78.8499999999999943
11
131.6489179999999806
21
-78.7925970000000007
0
LINE
8
BLACK
6
CONTINUOUS
10
131.6489179999999806
20
-78.7925970000000007
11
131.6814339999999959
21
-78.7439339999999959
0
LINE
8
BLACK
6
CONTINUOUS
10
131.6814339999999959
20
-78.7439339999999959
11
131.7300970000000007
21
-78.7114179999999948
0
LINE
8
BLACK
6
CONTINUOUS
10
131.7300970000000007
20
-78.7114179999999948
11
131.7874999999999943
21
-78.7000000000000028
0
LINE
8
BLACK
6
CONTINUOUS
10
131.7874999999999943
20
-78.7000000000000028
11
132.8125
21
-78.7000000000000028
0
LINE
8
BLACK
6
CONTINUOUS
10
132.8125
20
-78.7000000000000028
11
132.8699029999999937
21
-78.7114179999999948
0
LINE
8
BLACK
6
CONTINUOUS
10
134.9361040000000003
20
-78.2171269999999907
11
135.009098999999992
21
-78.2659009999999995
0
LINE
8
BLACK
6
CONTINUOUS
10
135.009098999999992
20
-78.2659009999999995
11
135.0578730000000007
21
-78.3388959999999912
0
LINE
8
BLACK
6
CONTINUOUS
10
135.0578730000000007
20
-78.3388959999999912
11
135.0749999999999886
21
-78.4249999999999972
0
LINE
8
BLACK
6
CONTINUOUS
10
135.0749999999999886
20
-78.4249999999999972
11
135.0749999999999886
21
-78.875
0
LINE
8
BLACK
6
CONTINUOUS
10
135.0749999999999886
20
-78.875
11
135.0578730000000007
21
-78.9611039999999917
0
LINE
8
BLACK
6
CONTINUOUS
10
135.0578730000000007
20
-78.9611039999999917
11
135.009098999999992
21
-79.0340989999999977
0
LINE
8
BLACK
6
CONTINUOUS
10
135.009098999999992
20
-79.0340989999999977
11
134.9361040000000003
21
-79.0828729999999922
0
LINE
8
BLACK
6
CONTINUOUS
10
134.9361040000000003
20
-79.0828729999999922
11
134.8499999999999943
21
-79.0999999999999943
0
LINE
8
BLACK
6
CONTINUOUS
10
134.8499999999999943
20
-79.0999999999999943
11
134.3499999999999943
21
-79.0999999999999943
0
LINE
8
BLACK
6
CONTINUOUS
10
134.3499999999999943
20
-79.0999999999999943
11
134.2638959999999884
21
-79.0828729999999922
0
LINE
8
BLACK
6
CONTINUOUS
10
134.2638959999999884
20
-79.0828729999999922
11
134.1909009999999967
21
-79.0340989999999977
0
LINE
8
BLACK
6
CONTINUOUS
10
134.1909009999999967
20
-79.0340989999999977
11
134.1421269999999879
21
-78.9611039999999917
0
LINE
8
BLACK
6
CONTINUOUS
10
134.1421269999999879
20
-78.9611039999999917
11
134.125
21
-78.875
0
LINE
8
BLACK
6
CONTINUOUS
10
134.125
20
-78.875
11
134.125
21
-78.4249999999999972
0
LINE
8
BLACK
6
CONTINUOUS
10
134.125
20
-78.4249999999999972
11
134.1421269999999879
21
-78.3388959999999912
0
LINE
8
BLACK
6
CONTINUOUS
10
134.1421269999999879
20
-78.3388959999999912
11
134.1909009999999967
21
-78.2659009999999995
0
LINE
8
BLACK
6
CONTINUOUS
10
134.1909009999999967
20
-78.2659009999999995
11
134.2638959999999884
21
-78.2171269999999907
0
LINE
8
BLACK
6
CONTINUOUS
10
134.2638959999999884
20
-78.2171269999999907
11
134.3499999999999943
21
-78.2000000000000028
0
LINE
8
BLACK
6
CONTINUOUS
10
134.3499999999999943
20
-78.2000000000000028
11
134.8499999999999943
21
-78.2000000000000028
0
LINE
8
BLACK
6
CONTINUOUS
10
134.8499999999999943
20
-78.2000000000000028
11
134.9361040000000003
21
-78.2171269999999907
0
LINE
8
BLACK
6
CONTINUOUS
10
141.6706709999999987
20
-77.6190299999999951
11
141.7517770000000041
21
-77.673222999999993
0
LINE
8
BLACK
6
CONTINUOUS
10
141.7517770000000041
20
-77.673222999999993
11
141.8059700000000021
21
-77.7543289999999985
0
LINE
8
BLACK
6
CONTINUOUS
10
141.8059700000000021
20
-77.7543289999999985
11
141.8249999999999886
21
-77.8499999999999943
0
LINE
8
BLACK
6
CONTINUOUS
10
141.8249999999999886
20
-77.8499999999999943
11
141.8249999999999886
21
-78.3499999999999943
0
LINE
8
BLACK
6
CONTINUOUS
10
141.8249999999999886
20
-78.3499999999999943
11
141.8059700000000021
21
-78.4456709999999902
0
LINE
8
BLACK
6
CONTINUOUS
10
141.8059700000000021
20
-78.4456709999999902
11
141.7517770000000041
21
-78.5267769999999956
0
LINE
8
BLACK
6
CONTINUOUS
10
141.7517770000000041
20
-78.5267769999999956
11
141.6706709999999987
21
-78.5809699999999935
0
LINE
8
BLACK
6
CONTINUOUS
10
141.6706709999999987
20
-78.5809699999999935
11
141.5749999999999886
21
-78.5999999999999943
0
LINE
8
BLACK
6
CONTINUOUS
10
141.5749999999999886
20
-78.5999999999999943
11
140.625
21
-78.5999999999999943
0
LINE
8
BLACK
6
CONTINUOUS
10
140.625
20
-78.5999999999999943
11
140.5293289999999899
21
-78.5809699999999935
0
LINE
8
BLACK
6
CONTINUOUS
10
140.5293289999999899
20
-78.5809699999999935
11
140.4482229999999845
21
-78.5267769999999956
0
LINE
8
BLACK
6
CONTINUOUS
10
140.4482229999999845
20
-78.5267769999999956
11
140.3940299999999866
21
-78.4456709999999902
0
LINE
8
BLACK
6
CONTINUOUS
10
140.3940299999999866
20
-78.4456709999999902
11
140.375
21
-78.3499999999999943
0
LINE
8
BLACK
6
CONTINUOUS
10
140.375
20
-78.3499999999999943
11
140.375
21
-77.8499999999999943
0
LINE
8
BLACK
6
CONTINUOUS
10
140.375
20
-77.8499999999999943
11
140.3940299999999866
21
-77.7543289999999985
0
LINE
8
BLACK
6
CONTINUOUS
10
140.3940299999999866
20
-77.7543289999999985
11
140.4482229999999845
21
-77.673222999999993
0
LINE
8
BLACK
6
CONTINUOUS
10
140.4482229999999845
20
-77.673222999999993
11
140.5293289999999899
21
-77.6190299999999951
0
LINE
8
BLACK
6
CONTINUOUS
10
140.5293289999999899
20
-77.6190299999999951
11
140.625
21
-77.5999999999999943
0
LINE
8
BLACK
6
CONTINUOUS
10
140.625
20
-77.5999999999999943
11
141.5749999999999886
21
-77.5999999999999943
0
LINE
8
BLACK
6
CONTINUOUS
10
141.5749999999999886
20
-77.5999999999999943
11
141.6706709999999987
21
-77.6190299999999951
0
LINE
8
BLACK
6
CONTINUOUS
10
132.8699029999999937
20
-77.7614179999999919
11
132.9185659999999984
21
-77.793933999999993
0
LINE
8
BLACK
6
CONTINUOUS
10
132.9185659999999984
20
-77.793933999999993
11
132.9510819999999853
21
-77.8425969999999978
0
LINE
8
BLACK
6
CONTINUOUS
10
132.9510819999999853
20
-77.8425969999999978
11
132.9625000000000057
21
-77.8999999999999915
0
LINE
8
BLACK
6
CONTINUOUS
10
132.9625000000000057
20
-77.8999999999999915
11
132.9625000000000057
21
-78.2000000000000028
0
LINE
8
BLACK
6
CONTINUOUS
10
132.9625000000000057
20
-78.2000000000000028
11
132.9510819999999853
21
-78.2574029999999965
0
LINE
8
BLACK
6
CONTINUOUS
10
132.9510819999999853
20
-78.2574029999999965
11
132.9185659999999984
21
-78.3060660000000013
0
LINE
8
BLACK
6
CONTINUOUS
10
132.9185659999999984
20
-78.3060660000000013
11
132.8699029999999937
21
-78.3385820000000024
0
LINE
8
BLACK
6
CONTINUOUS
10
132.8699029999999937
20
-78.3385820000000024
11
132.8125
21
-78.3499999999999943
0
LINE
8
BLACK
6
CONTINUOUS
10
132.8125
20
-78.3499999999999943
11
131.7874999999999943
21
-78.3499999999999943
0
LINE
8
BLACK
6
CONTINUOUS
10
131.7874999999999943
20
-78.3499999999999943
11
131.7300970000000007
21
-78.3385820000000024
0
LINE
8
BLACK
6
CONTINUOUS
10
131.7300970000000007
20
-78.3385820000000024
11
131.6814339999999959
21
-78.3060660000000013
0
LINE
8
BLACK
6
CONTINUOUS
10
131.6814339999999959
20
-78.3060660000000013
11
131.6489179999999806
21
-78.2574029999999965
0
LINE
8
BLACK
6
CONTINUOUS
10
131.6489179999999806
20
-78.2574029999999965
11
131.6374999999999886
21
-78.2000000000000028
0
LINE
8
BLACK
6
CONTINUOUS
10
131.6374999999999886
20
-78.2000000000000028
11
131.6374999999999886
21
-77.8999999999999915
0
LINE
8
BLACK
6
CONTINUOUS
10
131.6374999999999886
20
-77.8999999999999915
11
131.6489179999999806
21
-77.8425969999999978
0
LINE
8
BLACK
6
CONTINUOUS
10
131.6489179999999806
20
-77.8425969999999978
11
131.6814339999999959
21
-77.793933999999993
0
LINE
8
BLACK
6
CONTINUOUS
10
131.6814339999999959
20
-77.793933999999993
11
131.7300970000000007
21
-77.7614179999999919
0
LINE
8
BLACK
6
CONTINUOUS
10
131.7300970000000007
20
-77.7614179999999919
11
131.7874999999999943
21
-77.75
0
LINE
8
BLACK
6
CONTINUOUS
10
131.7874999999999943
20
-77.75
11
132.8125
21
-77.75
0
LINE
8
BLACK
6
CONTINUOUS
10
132.8125
20
-77.75
11
132.8699029999999937
21
-77.7614179999999919
0
LINE
8
BLACK
6
CONTINUOUS
10
128.336104000000006
20
-77.0171270000000021
11
128.4090989999999977
21
-77.0659009999999967
0
LINE
8
BLACK
6
CONTINUOUS
10
128.4090989999999977
20
-77.0659009999999967
11
128.4578730000000064
21
-77.1388960000000026
0
LINE
8
BLACK
6
CONTINUOUS
10
128.4578730000000064
20
-77.1388960000000026
11
128.4749999999999943
21
-77.2249999999999943
0
LINE
8
BLACK
6
CONTINUOUS
10
128.4749999999999943
20
-77.2249999999999943
11
128.4749999999999943
21
-77.6749999999999972
0
LINE
8
BLACK
6
CONTINUOUS
10
128.4749999999999943
20
-77.6749999999999972
11
128.4578730000000064
21
-77.7611040000000031
0
LINE
8
BLACK
6
CONTINUOUS
10
128.4578730000000064
20
-77.7611040000000031
11
128.4090989999999977
21
-77.8340989999999948
0
LINE
8
BLACK
6
CONTINUOUS
10
128.4090989999999977
20
-77.8340989999999948
11
128.336104000000006
21
-77.8828730000000036
0
LINE
8
BLACK
6
CONTINUOUS
10
128.336104000000006
20
-77.8828730000000036
11
128.25
21
-77.8999999999999915
0
LINE
8
BLACK
6
CONTINUOUS
10
128.25
20
-77.8999999999999915
11
127.75
21
-77.8999999999999915
0
LINE
8
BLACK
6
CONTINUOUS
10
127.75
20
-77.8999999999999915
11
127.663895999999994
21
-77.8828730000000036
0
LINE
8
BLACK
6
CONTINUOUS
10
127.663895999999994
20
-77.8828730000000036
11
127.5909009999999881
21
-77.8340989999999948
0
LINE
8
BLACK
6
CONTINUOUS
10
127.5909009999999881
20
-77.8340989999999948
11
127.5421269999999936
21
-77.7611040000000031
0
LINE
8
BLACK
6
CONTINUOUS
10
127.5421269999999936
20
-77.7611040000000031
11
127.5249999999999915
21
-77.6749999999999972
0
LINE
8
BLACK
6
CONTINUOUS
10
127.5249999999999915
20
-77.6749999999999972
11
127.5249999999999915
21
-77.2249999999999943
0
LINE
8
BLACK
6
CONTINUOUS
10
127.5249999999999915
20
-77.2249999999999943
11
127.5421269999999936
21
-77.1388960000000026
0
LINE
8
BLACK
6
CONTINUOUS
10
127.5421269999999936
20
-77.1388960000000026
11
127.5909009999999881
21
-77.0659009999999967
0
LINE
8
BLACK
6
CONTINUOUS
10
127.5909009999999881
20
-77.0659009999999967
11
127.663895999999994
21
-77.0171270000000021
0
LINE
8
BLACK
6
CONTINUOUS
10
127.663895999999994
20
-77.0171270000000021
11
127.75
21
-77.
0
LINE
8
BLACK
6
CONTINUOUS
10
127.75
20
-77.
11
128.25
21
-77.
0
LINE
8
BLACK
6
CONTINUOUS
10
128.25
20
-77.
11
128.336104000000006
21
-77.0171270000000021
0
LINE
8
BLACK
6
CONTINUOUS
10
134.9361040000000003
20
-76.6671269999999936
11
135.009098999999992
21
-76.7159010000000023
0
LINE
8
BLACK
6
CONTINUOUS
10
135.009098999999992
20
-76.7159010000000023
11
135.0578730000000007
21
-76.788895999999994
0
LINE
8
BLACK
6
CONTINUOUS
10
135.0578730000000007
20
-76.788895999999994
11
135.0749999999999886
21
-76.875
0
LINE
8
BLACK
6
CONTINUOUS
10
135.0749999999999886
20
-76.875
11
135.0749999999999886
21
-77.3250000000000028
0
LINE
8
BLACK
6
CONTINUOUS
10
135.0749999999999886
20
-77.3250000000000028
11
135.0578730000000007
21
-77.4111039999999946
0
LINE
8
BLACK
6
CONTINUOUS
10
135.0578730000000007
20
-77.4111039999999946
11
135.009098999999992
21
-77.4840990000000005
0
LINE
8
BLACK
6
CONTINUOUS
10
135.009098999999992
20
-77.4840990000000005
11
134.9361040000000003
21
-77.532872999999995
0
LINE
8
BLACK
6
CONTINUOUS
10
134.9361040000000003
20
-77.532872999999995
11
134.8499999999999943
21
-77.5499999999999972
0
LINE
8
BLACK
6
CONTINUOUS
10
134.8499999999999943
20
-77.5499999999999972
11
134.3499999999999943
21
-77.5499999999999972
0
LINE
8
BLACK
6
CONTINUOUS
10
134.3499999999999943
20
-77.5499999999999972
11
134.2638959999999884
21
-77.532872999999995
0
LINE
8
BLACK
6
CONTINUOUS
10
134.2638959999999884
20
-77.532872999999995
11
134.1909009999999967
21
-77.4840990000000005
0
LINE
8
BLACK
6
CONTINUOUS
10
134.1909009999999967
20
-77.4840990000000005
11
134.1421269999999879
21
-77.4111039999999946
0
LINE
8
BLACK
6
CONTINUOUS
10
134.1421269999999879
20
-77.4111039999999946
11
134.125
21
-77.3250000000000028
0
LINE
8
BLACK
6
CONTINUOUS
10
134.125
20
-77.3250000000000028
11
134.125
21
-76.875
0
LINE
8
BLACK
6
CONTINUOUS
10
134.125
20
-76.875
11
134.1421269999999879
21
-76.788895999999994
0
LINE
8
BLACK
6
CONTINUOUS
10
134.1421269999999879
20
-76.788895999999994
11
134.1909009999999967
21
-76.7159010000000023
0
LINE
8
BLACK
6
CONTINUOUS
10
134.1909009999999967
20
-76.7159010000000023
11
134.2638959999999884
21
-76.6671269999999936
0
LINE
8
BLACK
6
CONTINUOUS
10
134.2638959999999884
20
-76.6671269999999936
11
134.3499999999999943
21
-76.6499999999999915
0
LINE
8
BLACK
6
CONTINUOUS
10
134.3499999999999943
20
-76.6499999999999915
11
134.8499999999999943
21
-76.6499999999999915
0
LINE
8
BLACK
6
CONTINUOUS
10
134.8499999999999943
20
-76.6499999999999915
11
134.9361040000000003
21
-76.6671269999999936
0
LINE
8
BLACK
6
CONTINUOUS
10
130.594902999999988
20
-76.8114180000000033
11
130.6435659999999928
21
-76.8439339999999902
0
LINE
8
BLACK
6
CONTINUOUS
10
130.6435659999999928
20
-76.8439339999999902
11
130.6760820000000081
21
-76.892596999999995
0
LINE
8
BLACK
6
CONTINUOUS
10
130.6760820000000081
20
-76.892596999999995
11
130.6875
21
-76.9500000000000028
0
LINE
8
BLACK
6
CONTINUOUS
10
130.6875
20
-76.9500000000000028
11
130.6875
21
-77.25
0
LINE
8
BLACK
6
CONTINUOUS
10
130.6875
20
-77.25
11
130.6760820000000081
21
-77.3074029999999937
0
LINE
8
BLACK
6
CONTINUOUS
10
130.6760820000000081
20
-77.3074029999999937
11
130.6435659999999928
21
-77.3560659999999984
0
LINE
8
BLACK
6
CONTINUOUS
10
130.6435659999999928
20
-77.3560659999999984
11
130.594902999999988
21
-77.3885819999999995
0
LINE
8
BLACK
6
CONTINUOUS
10
130.594902999999988
20
-77.3885819999999995
11
130.5374999999999943
21
-77.3999999999999915
0
LINE
8
BLACK
6
CONTINUOUS
10
130.5374999999999943
20
-77.3999999999999915
11
129.5124999999999886
21
-77.3999999999999915
0
LINE
8
BLACK
6
CONTINUOUS
10
129.5124999999999886
20
-77.3999999999999915
11
129.455096999999995
21
-77.3885819999999995
0
LINE
8
BLACK
6
CONTINUOUS
10
129.455096999999995
20
-77.3885819999999995
11
129.4064339999999902
21
-77.3560659999999984
0
LINE
8
BLACK
6
CONTINUOUS
10
129.4064339999999902
20
-77.3560659999999984
11
129.3739180000000033
21
-77.3074029999999937
0
LINE
8
BLACK
6
CONTINUOUS
10
129.3739180000000033
20
-77.3074029999999937
11
129.3624999999999829
21
-77.25
0
LINE
8
BLACK
6
CONTINUOUS
10
129.3624999999999829
20
-77.25
11
129.3624999999999829
21
-76.9500000000000028
0
LINE
8
BLACK
6
CONTINUOUS
10
129.3624999999999829
20
-76.9500000000000028
11
129.3739180000000033
21
-76.892596999999995
0
LINE
8
BLACK
6
CONTINUOUS
10
129.3739180000000033
20
-76.892596999999995
11
129.4064339999999902
21
-76.8439339999999902
0
LINE
8
BLACK
6
CONTINUOUS
10
129.4064339999999902
20
-76.8439339999999902
11
129.455096999999995
21
-76.8114180000000033
0
LINE
8
BLACK
6
CONTINUOUS
10
129.455096999999995
20
-76.8114180000000033
11
129.5124999999999886
21
-76.7999999999999972
0
LINE
8
BLACK
6
CONTINUOUS
10
129.5124999999999886
20
-76.7999999999999972
11
130.5374999999999943
21
-76.7999999999999972
0
LINE
8
BLACK
6
CONTINUOUS
10
130.5374999999999943
20
-76.7999999999999972
11
130.594902999999988
21
-76.8114180000000033
0
LINE
8
BLACK
6
CONTINUOUS
10
132.8699029999999937
20
-76.8114180000000033
11
132.9185659999999984
21
-76.8439339999999902
0
LINE
8
BLACK
6
CONTINUOUS
10
132.9185659999999984
20
-76.8439339999999902
11
132.9510819999999853
21
-76.892596999999995
0
LINE
8
BLACK
6
CONTINUOUS
10
132.9510819999999853
20
-76.892596999999995
11
132.9625000000000057
21
-76.9500000000000028
0
LINE
8
BLACK
6
CONTINUOUS
10
132.9625000000000057
20
-76.9500000000000028
11
132.9625000000000057
21
-77.25
0
LINE
8
BLACK
6
CONTINUOUS
10
132.9625000000000057
20
-77.25
11
132.9510819999999853
21
-77.3074029999999937
0
LINE
8
BLACK
6
CONTINUOUS
10
132.9510819999999853
20
-77.3074029999999937
11
132.9185659999999984
21
-77.3560659999999984
0
LINE
8
BLACK
6
CONTINUOUS
10
132.9185659999999984
20
-77.3560659999999984
11
132.8699029999999937
21
-77.3885819999999995
0
LINE
8
BLACK
6
CONTINUOUS
10
132.8699029999999937
20
-77.3885819999999995
11
132.8125
21
-77.3999999999999915
0
LINE
8
BLACK
6
CONTINUOUS
10
132.8125
20
-77.3999999999999915
11
131.7874999999999943
21
-77.3999999999999915
0
LINE
8
BLACK
6
CONTINUOUS
10
131.7874999999999943
20
-77.3999999999999915
11
131.7300970000000007
21
-77.3885819999999995
0
LINE
8
BLACK
6
CONTINUOUS
10
131.7300970000000007
20
-77.3885819999999995
11
131.6814339999999959
21
-77.3560659999999984
0
LINE
8
BLACK
6
CONTINUOUS
10
131.6814339999999959
20
-77.3560659999999984
11
131.6489179999999806
21
-77.3074029999999937
0
LINE
8
BLACK
6
CONTINUOUS
10
131.6489179999999806
20
-77.3074029999999937
11
131.6374999999999886
21
-77.25
0
LINE
8
BLACK
6
CONTINUOUS
10
131.6374999999999886
20
-77.25
11
131.6374999999999886
21
-76.9500000000000028
0
LINE
8
BLACK
6
CONTINUOUS
10
131.6374999999999886
20
-76.9500000000000028
11
131.6489179999999806
21
-76.892596999999995
0
LINE
8
BLACK
6
CONTINUOUS
10
131.6489179999999806
20
-76.892596999999995
11
131.6814339999999959
21
-76.8439339999999902
0
LINE
8
BLACK
6
CONTINUOUS
10
131.6814339999999959
20
-76.8439339999999902
11
131.7300970000000007
21
-76.8114180000000033
0
LINE
8
BLACK
6
CONTINUOUS
10
131.7300970000000007
20
-76.8114180000000033
11
131.7874999999999943
21
-76.7999999999999972
0
LINE
8
BLACK
6
CONTINUOUS
10
131.7874999999999943
20
-76.7999999999999972
11
132.8125
21
-76.7999999999999972
0
LINE
8
BLACK
6
CONTINUOUS
10
132.8125
20
-76.7999999999999972
11
132.8699029999999937
21
-76.8114180000000033
0
LINE
8
BLACK
6
CONTINUOUS
10
141.6706709999999987
20
-75.7190300000000036
11
141.7517770000000041
21
-75.7732230000000015
0
LINE
8
BLACK
6
CONTINUOUS
10
141.7517770000000041
20
-75.7732230000000015
11
141.8059700000000021
21
-75.8543289999999928
0
LINE
8
BLACK
6
CONTINUOUS
10
141.8059700000000021
20
-75.8543289999999928
11
141.8249999999999886
21
-75.9500000000000028
0
LINE
8
BLACK
6
CONTINUOUS
10
141.8249999999999886
20
-75.9500000000000028
11
141.8249999999999886
21
-76.4500000000000028
0
LINE
8
BLACK
6
CONTINUOUS
10
141.8249999999999886
20
-76.4500000000000028
11
141.8059700000000021
21
-76.5456709999999987
0
LINE
8
BLACK
6
CONTINUOUS
10
141.8059700000000021
20
-76.5456709999999987
11
141.7517770000000041
21
-76.6267769999999899
0
LINE
8
BLACK
6
CONTINUOUS
10
141.7517770000000041
20
-76.6267769999999899
11
141.6706709999999987
21
-76.6809700000000021
0
LINE
8
BLACK
6
CONTINUOUS
10
141.6706709999999987
20
-76.6809700000000021
11
141.5749999999999886
21
-76.7000000000000028
0
LINE
8
BLACK
6
CONTINUOUS
10
141.5749999999999886
20
-76.7000000000000028
11
140.625
21
-76.7000000000000028
0
LINE
8
BLACK
6
CONTINUOUS
10
140.625
20
-76.7000000000000028
11
140.5293289999999899
21
-76.6809700000000021
0
LINE
8
BLACK
6
CONTINUOUS
10
140.5293289999999899
20
-76.6809700000000021
11
140.4482229999999845
21
-76.6267769999999899
0
LINE
8
BLACK
6
CONTINUOUS
10
140.4482229999999845
20
-76.6267769999999899
11
140.3940299999999866
21
-76.5456709999999987
0
LINE
8
BLACK
6
CONTINUOUS
10
140.3940299999999866
20
-76.5456709999999987
11
140.375
21
-76.4500000000000028
0
LINE
8
BLACK
6
CONTINUOUS
10
140.375
20
-76.4500000000000028
11
140.375
21
-75.9500000000000028
0
LINE
8
BLACK
6
CONTINUOUS
10
140.375
20
-75.9500000000000028
11
140.3940299999999866
21
-75.8543289999999928
0
LINE
8
BLACK
6
CONTINUOUS
10
140.3940299999999866
20
-75.8543289999999928
11
140.4482229999999845
21
-75.7732230000000015
0
LINE
8
BLACK
6
CONTINUOUS
10
140.4482229999999845
20
-75.7732230000000015
11
140.5293289999999899
21
-75.7190300000000036
0
LINE
8
BLACK
6
CONTINUOUS
10
140.5293289999999899
20
-75.7190300000000036
11
140.625
21
-75.7000000000000028
0
LINE
8
BLACK
6
CONTINUOUS
10
140.625
20
-75.7000000000000028
11
141.5749999999999886
21
-75.7000000000000028
0
LINE
8
BLACK
6
CONTINUOUS
10
141.5749999999999886
20
-75.7000000000000028
11
141.6706709999999987
21
-75.7190300000000036
0
LINE
8
BLACK
6
CONTINUOUS
10
148.5
20
-74.9749999999999943
11
148.6779889999999966
21
-74.9905720000000002
0
LINE
8
BLACK
6
CONTINUOUS
10
148.6779889999999966
20
-74.9905720000000002
11
148.8505710000000022
21
-75.0368149999999901
0
LINE
8
BLACK
6
CONTINUOUS
10
148.8505710000000022
20
-75.0368149999999901
11
149.0124999999999886
21
-75.112324000000001
0
LINE
8
BLACK
6
CONTINUOUS
10
149.0124999999999886
20
-75.112324000000001
11
149.1588569999999834
21
-75.2148040000000009
0
LINE
8
BLACK
6
CONTINUOUS
10
149.1588569999999834
20
-75.2148040000000009
11
149.2851959999999849
21
-75.3411430000000024
0
LINE
8
BLACK
6
CONTINUOUS
10
149.2851959999999849
20
-75.3411430000000024
11
149.387675999999999
21
-75.4874999999999972
0
LINE
8
BLACK
6
CONTINUOUS
10
149.387675999999999
20
-75.4874999999999972
11
149.4631849999999815
21
-75.6494289999999978
0
LINE
8
BLACK
6
CONTINUOUS
10
149.4631849999999815
20
-75.6494289999999978
11
149.5094279999999856
21
-75.8220110000000034
0
LINE
8
BLACK
6
CONTINUOUS
10
149.5094279999999856
20
-75.8220110000000034
11
149.5250000000000057
21
-76.
0
LINE
8
BLACK
6
CONTINUOUS
10
149.5250000000000057
20
-76.
11
149.5250000000000057
21
-99.
0
LINE
8
BLACK
6
CONTINUOUS
10
149.5250000000000057
20
-99.
11
149.5094279999999856
21
-99.1779889999999966
0
LINE
8
BLACK
6
CONTINUOUS
10
149.5094279999999856
20
-99.1779889999999966
11
149.4631849999999815
21
-99.3505710000000022
0
LINE
8
BLACK
6
CONTINUOUS
10
149.4631849999999815
20
-99.3505710000000022
11
149.387675999999999
21
-99.5124999999999886
0
LINE
8
BLACK
6
CONTINUOUS
10
149.387675999999999
20
-99.5124999999999886
11
149.2851959999999849
21
-99.6588569999999976
0
LINE
8
BLACK
6
CONTINUOUS
10
149.2851959999999849
20
-99.6588569999999976
11
149.1588569999999834
21
-99.7851959999999991
0
LINE
8
BLACK
6
CONTINUOUS
10
149.1588569999999834
20
-99.7851959999999991
11
149.0124999999999886
21
-99.887675999999999
0
LINE
8
BLACK
6
CONTINUOUS
10
149.0124999999999886
20
-99.887675999999999
11
148.8505710000000022
21
-99.9631849999999957
0
LINE
8
BLACK
6
CONTINUOUS
10
148.8505710000000022
20
-99.9631849999999957
11
148.6779889999999966
21
-100.0094279999999998
0
LINE
8
BLACK
6
CONTINUOUS
10
148.6779889999999966
20
-100.0094279999999998
11
148.5
21
-100.0249999999999915
0
LINE
8
BLACK
6
CONTINUOUS
10
148.5
20
-100.0249999999999915
11
121.
21
-100.0249999999999915
0
LINE
8
BLACK
6
CONTINUOUS
10
121.
20
-100.0249999999999915
11
120.8220109999999892
21
-100.0094279999999998
0
LINE
8
BLACK
6
CONTINUOUS
10
120.8220109999999892
20
-100.0094279999999998
11
120.6494289999999978
21
-99.9631849999999957
0
LINE
8
BLACK
6
CONTINUOUS
10
120.6494289999999978
20
-99.9631849999999957
11
120.4874999999999972
21
-99.887675999999999
0
LINE
8
BLACK
6
CONTINUOUS
10
120.4874999999999972
20
-99.887675999999999
11
120.3411429999999882
21
-99.7851959999999991
0
LINE
8
BLACK
6
CONTINUOUS
10
120.3411429999999882
20
-99.7851959999999991
11
120.2148040000000009
21
-99.6588569999999976
0
LINE
8
BLACK
6
CONTINUOUS
10
120.2148040000000009
20
-99.6588569999999976
11
120.112324000000001
21
-99.5124999999999886
0
LINE
8
BLACK
6
CONTINUOUS
10
120.112324000000001
20
-99.5124999999999886
11
120.0368149999999901
21
-99.3505710000000022
0
LINE
8
BLACK
6
CONTINUOUS
10
120.0368149999999901
20
-99.3505710000000022
11
119.9905720000000002
21
-99.1779889999999966
0
LINE
8
BLACK
6
CONTINUOUS
10
119.9905720000000002
20
-99.1779889999999966
11
119.9749999999999943
21
-99.
0
LINE
8
BLACK
6
CONTINUOUS
10
119.9749999999999943
20
-99.
11
119.9749999999999943
21
-76.
0
LINE
8
BLACK
6
CONTINUOUS
10
119.9749999999999943
20
-76.
11
119.9905720000000002
21
-75.8220110000000034
0
LINE
8
BLACK
6
CONTINUOUS
10
119.9905720000000002
20
-75.8220110000000034
11
120.0368149999999901
21
-75.6494289999999978
0
LINE
8
BLACK
6
CONTINUOUS
10
120.0368149999999901
20
-75.6494289999999978
11
120.112324000000001
21
-75.4874999999999972
0
LINE
8
BLACK
6
CONTINUOUS
10
120.112324000000001
20
-75.4874999999999972
11
120.2148040000000009
21
-75.3411430000000024
0
LINE
8
BLACK
6
CONTINUOUS
10
120.2148040000000009
20
-75.3411430000000024
11
120.3411429999999882
21
-75.2148040000000009
0
LINE
8
BLACK
6
CONTINUOUS
10
120.3411429999999882
20
-75.2148040000000009
11
120.4874999999999972
21
-75.112324000000001
0
LINE
8
BLACK
6
CONTINUOUS
10
120.4874999999999972
20
-75.112324000000001
11
120.6494289999999978
21
-75.0368149999999901
0
LINE
8
BLACK
6
CONTINUOUS
10
120.6494289999999978
20
-75.0368149999999901
11
120.8220109999999892
21
-74.9905720000000002
0
LINE
8
BLACK
6
CONTINUOUS
10
120.8220109999999892
20
-74.9905720000000002
11
121.
21
-74.9749999999999943
0
LINE
8
BLACK
6
CONTINUOUS
10
121.
20
-74.9749999999999943
11
148.5
21
-74.9749999999999943
0
LINE
8
BLACK
6
CONTINUOUS
10
121.
20
-75.0249999999999915
11
120.9146989999999988
21
-75.0249999999999915
0
LINE
8
BLACK
6
CONTINUOUS
10
120.9146989999999988
20
-75.0249999999999915
11
120.7466879999999918
21
-75.0546250000000015
0
LINE
8
BLACK
6
CONTINUOUS
10
120.7466879999999918
20
-75.0546250000000015
11
120.5863729999999947
21
-75.1129749999999916
0
LINE
8
BLACK
6
CONTINUOUS
10
120.5863729999999947
20
-75.1129749999999916
11
120.4386269999999968
21
-75.1982759999999928
0
LINE
8
BLACK
6
CONTINUOUS
10
120.4386269999999968
20
-75.1982759999999928
11
120.3079379999999929
21
-75.3079379999999929
0
LINE
8
BLACK
6
CONTINUOUS
10
120.3079379999999929
20
-75.3079379999999929
11
120.1982759999999928
21
-75.4386269999999968
0
LINE
8
BLACK
6
CONTINUOUS
10
120.1982759999999928
20
-75.4386269999999968
11
120.1129749999999916
21
-75.5863729999999947
0
LINE
8
BLACK
6
CONTINUOUS
10
120.1129749999999916
20
-75.5863729999999947
11
120.0546250000000015
21
-75.7466879999999918
0
LINE
8
BLACK
6
CONTINUOUS
10
120.0546250000000015
20
-75.7466879999999918
11
120.0249999999999915
21
-75.9146989999999988
0
LINE
8
BLACK
6
CONTINUOUS
10
120.0249999999999915
20
-75.9146989999999988
11
120.0249999999999915
21
-76.
0
LINE
8
BLACK
6
CONTINUOUS
10
120.0249999999999915
20
-76.
11
120.0249999999999915
21
-99.
0
LINE
8
BLACK
6
CONTINUOUS
10
120.0249999999999915
20
-99.
11
120.0249999999999915
21
-99.0853010000000012
0
LINE
8
BLACK
6
CONTINUOUS
10
120.0249999999999915
20
-99.0853010000000012
11
120.0546250000000015
21
-99.253311999999994
0
LINE
8
BLACK
6
CONTINUOUS
10
120.0546250000000015
20
-99.253311999999994
11
120.1129749999999916
21
-99.4136269999999911
0
LINE
8
BLACK
6
CONTINUOUS
10
120.1129749999999916
20
-99.4136269999999911
11
120.1982759999999928
21
-99.561372999999989
0
LINE
8
BLACK
6
CONTINUOUS
10
120.1982759999999928
20
-99.561372999999989
11
120.3079379999999929
21
-99.6920619999999928
0
LINE
8
BLACK
6
CONTINUOUS
10
120.3079379999999929
20
-99.6920619999999928
11
120.4386269999999968
21
-99.801723999999993
0
LINE
8
BLACK
6
CONTINUOUS
10
120.4386269999999968
20
-99.801723999999993
11
120.5863729999999947
21
-99.8870249999999942
0
LINE
8
BLACK
6
CONTINUOUS
10
120.5863729999999947
20
-99.8870249999999942
11
120.7466879999999918
21
-99.9453749999999985
0
LINE
8
BLACK
6
CONTINUOUS
10
120.7466879999999918
20
-99.9453749999999985
11
120.9146989999999988
21
-99.9749999999999943
0
LINE
8
BLACK
6
CONTINUOUS
10
120.9146989999999988
20
-99.9749999999999943
11
121.
21
-99.9749999999999943
0
LINE
8
BLACK
6
CONTINUOUS
10
121.
20
-99.9749999999999943
11
148.5
21
-99.9749999999999943
0
LINE
8
BLACK
6
CONTINUOUS
10
148.5
20
-99.9749999999999943
11
148.585300999999987
21
-99.9749999999999943
0
LINE
8
BLACK
6
CONTINUOUS
10
148.585300999999987
20
-99.9749999999999943
11
148.753311999999994
21
-99.9453749999999985
0
LINE
8
BLACK
6
CONTINUOUS
10
148.753311999999994
20
-99.9453749999999985
11
148.9136269999999911
21
-99.8870249999999942
0
LINE
8
BLACK
6
CONTINUOUS
10
148.9136269999999911
20
-99.8870249999999942
11
149.0613730000000032
21
-99.801723999999993
0
LINE
8
BLACK
6
CONTINUOUS
10
149.0613730000000032
20
-99.801723999999993
11
149.1920619999999928
21
-99.6920619999999928
0
LINE
8
BLACK
6
CONTINUOUS
10
149.1920619999999928
20
-99.6920619999999928
11
149.3017240000000072
21
-99.561372999999989
0
LINE
8
BLACK
6
CONTINUOUS
10
149.3017240000000072
20
-99.561372999999989
11
149.3870249999999942
21
-99.4136269999999911
0
LINE
8
BLACK
6
CONTINUOUS
10
149.3870249999999942
20
-99.4136269999999911
11
149.4453749999999843
21
-99.253311999999994
0
LINE
8
BLACK
6
CONTINUOUS
10
149.4453749999999843
20
-99.253311999999994
11
149.4749999999999943
21
-99.0853010000000012
0
LINE
8
BLACK
6
CONTINUOUS
10
149.4749999999999943
20
-99.0853010000000012
11
149.4749999999999943
21
-99.
0
LINE
8
BLACK
6
CONTINUOUS
10
149.4749999999999943
20
-99.
11
149.4749999999999943
21
-76.
0
LINE
8
BLACK
6
CONTINUOUS
10
149.4749999999999943
20
-76.
11
149.4749999999999943
21
-75.9146989999999988
0
LINE
8
BLACK
6
CONTINUOUS
10
149.4749999999999943
20
-75.9146989999999988
11
149.4453749999999843
21
-75.7466879999999918
0
LINE
8
BLACK
6
CONTINUOUS
10
149.4453749999999843
20
-75.7466879999999918
11
149.3870249999999942
21
-75.5863729999999947
0
LINE
8
BLACK
6
CONTINUOUS
10
149.3870249999999942
20
-75.5863729999999947
11
149.3017240000000072
21
-75.4386269999999968
0
LINE
8
BLACK
6
CONTINUOUS
10
149.3017240000000072
20
-75.4386269999999968
11
149.1920619999999928
21
-75.3079379999999929
0
LINE
8
BLACK
6
CONTINUOUS
10
149.1920619999999928
20
-75.3079379999999929
11
149.0613730000000032
21
-75.1982759999999928
0
LINE
8
BLACK
6
CONTINUOUS
10
149.0613730000000032
20
-75.1982759999999928
11
148.9136269999999911
21
-75.1129749999999916
0
LINE
8
BLACK
6
CONTINUOUS
10
148.9136269999999911
20
-75.1129749999999916
11
148.753311999999994
21
-75.0546250000000015
0
LINE
8
BLACK
6
CONTINUOUS
10
148.753311999999994
20
-75.0546250000000015
11
148.585300999999987
21
-75.0249999999999915
0
LINE
8
BLACK
6
CONTINUOUS
10
148.585300999999987
20
-75.0249999999999915
11
148.5
21
-75.0249999999999915
0
LINE
8
BLACK
6
CONTINUOUS
10
148.5
20
-75.0249999999999915
11
121.
21
-75.0249999999999915
  0
ENDSEC
  0
EOF
