G04 #@! TF.GenerationSoftware,KiCad,Pcbnew,9.0.0*
G04 #@! TF.CreationDate,2025-09-29T19:17:06-04:00*
G04 #@! TF.ProjectId,brushed-dual-esc,62727573-6865-4642-9d64-75616c2d6573,rev?*
G04 #@! TF.SameCoordinates,Original*
G04 #@! TF.FileFunction,Legend,Top*
G04 #@! TF.FilePolarity,Positive*
%FSLAX46Y46*%
G04 Gerber Fmt 4.6, Leading zero omitted, Abs format (unit mm)*
G04 Created by KiCad (PCBNEW 9.0.0) date 2025-09-29 19:17:06*
%MOMM*%
%LPD*%
G01*
G04 APERTURE LIST*
G04 Aperture macros list*
%AMRoundRect*
0 Rectangle with rounded corners*
0 $1 Rounding radius*
0 $2 $3 $4 $5 $6 $7 $8 $9 X,Y pos of 4 corners*
0 Add a 4 corners polygon primitive as box body*
4,1,4,$2,$3,$4,$5,$6,$7,$8,$9,$2,$3,0*
0 Add four circle primitives for the rounded corners*
1,1,$1+$1,$2,$3*
1,1,$1+$1,$4,$5*
1,1,$1+$1,$6,$7*
1,1,$1+$1,$8,$9*
0 Add four rect primitives between the rounded corners*
20,1,$1+$1,$2,$3,$4,$5,0*
20,1,$1+$1,$4,$5,$6,$7,0*
20,1,$1+$1,$6,$7,$8,$9,0*
20,1,$1+$1,$8,$9,$2,$3,0*%
%AMFreePoly0*
4,1,6,0.325000,0.000000,0.325000,-0.150000,-0.175000,-0.150000,-0.175000,0.150000,0.175000,0.150000,0.325000,0.000000,0.325000,0.000000,$1*%
%AMFreePoly1*
4,1,6,0.325000,0.000000,0.175000,-0.150000,-0.175000,-0.150000,-0.175000,0.150000,0.325000,0.150000,0.325000,0.000000,0.325000,0.000000,$1*%
%AMFreePoly2*
4,1,6,0.150000,-0.175000,-0.150000,-0.175000,-0.150000,0.175000,0.000000,0.325000,0.150000,0.325000,0.150000,-0.175000,0.150000,-0.175000,$1*%
%AMFreePoly3*
4,1,6,0.150000,0.175000,0.150000,-0.175000,-0.150000,-0.175000,-0.150000,0.325000,0.000000,0.325000,0.150000,0.175000,0.150000,0.175000,$1*%
%AMFreePoly4*
4,1,6,0.175000,-0.150000,-0.175000,-0.150000,-0.325000,0.000000,-0.325000,0.150000,0.175000,0.150000,0.175000,-0.150000,0.175000,-0.150000,$1*%
%AMFreePoly5*
4,1,7,0.175000,-0.150000,-0.175000,-0.150000,-0.325000,-0.150000,-0.325000,0.000000,-0.175000,0.150000,0.175000,0.150000,0.175000,-0.150000,0.175000,-0.150000,$1*%
%AMFreePoly6*
4,1,6,0.150000,-0.175000,0.000000,-0.325000,-0.150000,-0.325000,-0.150000,0.175000,0.150000,0.175000,0.150000,-0.175000,0.150000,-0.175000,$1*%
%AMFreePoly7*
4,1,6,0.150000,-0.325000,0.000000,-0.325000,-0.150000,-0.175000,-0.150000,0.175000,0.150000,0.175000,0.150000,-0.325000,0.150000,-0.325000,$1*%
G04 Aperture macros list end*
%ADD10C,0.300000*%
%ADD11C,0.250000*%
%ADD12C,0.200000*%
%ADD13C,0.120000*%
%ADD14C,0.000000*%
%ADD15C,1.500000*%
%ADD16FreePoly0,0.000000*%
%ADD17R,0.700000X0.300000*%
%ADD18FreePoly1,0.000000*%
%ADD19FreePoly2,0.000000*%
%ADD20R,0.300000X0.700000*%
%ADD21FreePoly3,0.000000*%
%ADD22FreePoly4,0.000000*%
%ADD23FreePoly5,0.000000*%
%ADD24FreePoly6,0.000000*%
%ADD25FreePoly7,0.000000*%
%ADD26RoundRect,0.062500X0.062500X-0.187500X0.062500X0.187500X-0.062500X0.187500X-0.062500X-0.187500X0*%
%ADD27R,1.600000X0.900000*%
%ADD28RoundRect,0.150000X0.512500X0.150000X-0.512500X0.150000X-0.512500X-0.150000X0.512500X-0.150000X0*%
%ADD29RoundRect,0.225000X-0.250000X0.225000X-0.250000X-0.225000X0.250000X-0.225000X0.250000X0.225000X0*%
%ADD30RoundRect,0.375000X-0.625000X-0.375000X0.625000X-0.375000X0.625000X0.375000X-0.625000X0.375000X0*%
%ADD31RoundRect,0.500000X-0.500000X-1.400000X0.500000X-1.400000X0.500000X1.400000X-0.500000X1.400000X0*%
%ADD32RoundRect,0.200000X0.275000X-0.200000X0.275000X0.200000X-0.275000X0.200000X-0.275000X-0.200000X0*%
%ADD33RoundRect,0.250000X-0.250000X-0.475000X0.250000X-0.475000X0.250000X0.475000X-0.250000X0.475000X0*%
%ADD34RoundRect,0.200000X-0.200000X-0.275000X0.200000X-0.275000X0.200000X0.275000X-0.200000X0.275000X0*%
%ADD35RoundRect,0.218750X0.256250X-0.218750X0.256250X0.218750X-0.256250X0.218750X-0.256250X-0.218750X0*%
%ADD36C,2.000000*%
%ADD37RoundRect,0.225000X0.250000X-0.225000X0.250000X0.225000X-0.250000X0.225000X-0.250000X-0.225000X0*%
%ADD38C,0.990600*%
%ADD39C,0.787400*%
%ADD40RoundRect,0.250000X-0.475000X0.250000X-0.475000X-0.250000X0.475000X-0.250000X0.475000X0.250000X0*%
%ADD41RoundRect,0.200000X0.200000X0.275000X-0.200000X0.275000X-0.200000X-0.275000X0.200000X-0.275000X0*%
%ADD42C,1.400000*%
%ADD43C,3.500000*%
%ADD44R,1.600000X1.600000*%
%ADD45C,1.600000*%
%ADD46RoundRect,0.770000X-0.980000X-0.980000X0.980000X-0.980000X0.980000X0.980000X-0.980000X0.980000X0*%
%ADD47R,1.700000X1.700000*%
%ADD48O,1.700000X1.700000*%
G04 APERTURE END LIST*
D10*
X147550000Y-81500000D02*
G75*
G02*
X147250000Y-81500000I-150000J0D01*
G01*
X147250000Y-81500000D02*
G75*
G02*
X147550000Y-81500000I150000J0D01*
G01*
D11*
X141675000Y-98600000D02*
G75*
G02*
X141425000Y-98600000I-125000J0D01*
G01*
X141425000Y-98600000D02*
G75*
G02*
X141675000Y-98600000I125000J0D01*
G01*
X124625000Y-98000000D02*
G75*
G02*
X124375000Y-98000000I-125000J0D01*
G01*
X124375000Y-98000000D02*
G75*
G02*
X124625000Y-98000000I125000J0D01*
G01*
D12*
G36*
X123039245Y-84022815D02*
G01*
X122675201Y-84022815D01*
X122513329Y-83928965D01*
X122513329Y-83728747D01*
X122708723Y-83728747D01*
X122708723Y-83854776D01*
X123005723Y-83854776D01*
X123005723Y-83592948D01*
X122759343Y-83592948D01*
X122759343Y-83424909D01*
X123005723Y-83424909D01*
X123005723Y-83198251D01*
X122708723Y-83198251D01*
X122708723Y-83323426D01*
X122513329Y-83323426D01*
X122513329Y-83124063D01*
X122675201Y-83030212D01*
X123039245Y-83030212D01*
X123201117Y-83124063D01*
X123201117Y-83437487D01*
X123079667Y-83507524D01*
X123079667Y-83510333D01*
X123201117Y-83580369D01*
X123201117Y-83928965D01*
X123039245Y-84022815D01*
G37*
G36*
X124257895Y-83036074D02*
G01*
X123907895Y-84015000D01*
X123692289Y-84015000D01*
X123342289Y-83036074D01*
X123541103Y-83036074D01*
X123800061Y-83775886D01*
X123802870Y-83775886D01*
X124059081Y-83036074D01*
X124257895Y-83036074D01*
G37*
G36*
X124921869Y-84022815D02*
G01*
X124557825Y-84022815D01*
X124395953Y-83928965D01*
X124395953Y-83728747D01*
X124591347Y-83728747D01*
X124591347Y-83854776D01*
X124888347Y-83854776D01*
X124888347Y-83592948D01*
X124641967Y-83592948D01*
X124641967Y-83424909D01*
X124888347Y-83424909D01*
X124888347Y-83198251D01*
X124591347Y-83198251D01*
X124591347Y-83323426D01*
X124395953Y-83323426D01*
X124395953Y-83124063D01*
X124557825Y-83030212D01*
X124921869Y-83030212D01*
X125083741Y-83124063D01*
X125083741Y-83437487D01*
X124962291Y-83507524D01*
X124962291Y-83510333D01*
X125083741Y-83580369D01*
X125083741Y-83928965D01*
X124921869Y-84022815D01*
G37*
G36*
X142404606Y-75809101D02*
G01*
X142404606Y-76090469D01*
X142847632Y-76090469D01*
X143090439Y-76231244D01*
X143090439Y-76893448D01*
X142847632Y-77034223D01*
X142313198Y-77034223D01*
X142070481Y-76893448D01*
X142070481Y-76594678D01*
X142363573Y-76594678D01*
X142363573Y-76782165D01*
X142797348Y-76782165D01*
X142797348Y-76342527D01*
X142111514Y-76342527D01*
X142111514Y-75557042D01*
X143069557Y-75557042D01*
X143069557Y-75809101D01*
X142404606Y-75809101D01*
G37*
G36*
X144674141Y-75554112D02*
G01*
X144149141Y-77022500D01*
X143825733Y-77022500D01*
X143300733Y-75554112D01*
X143598953Y-75554112D01*
X143987391Y-76663829D01*
X143991604Y-76663829D01*
X144375920Y-75554112D01*
X144674141Y-75554112D01*
G37*
D13*
G04 #@! TO.C,TP2*
X122500000Y-84450000D02*
G75*
G02*
X120600000Y-84450000I-950000J0D01*
G01*
X120600000Y-84450000D02*
G75*
G02*
X122500000Y-84450000I950000J0D01*
G01*
G04 #@! TO.C,U3*
X127380000Y-88620000D02*
X127380000Y-88410000D01*
X127380000Y-88620000D02*
X127590000Y-88620000D01*
X130620000Y-85380000D02*
X130410000Y-85380000D01*
X130620000Y-85380000D02*
X130620000Y-85590000D01*
X130620000Y-88620000D02*
X130410000Y-88620000D01*
X130620000Y-88620000D02*
X130620000Y-88410000D01*
X127310000Y-85590000D02*
X127070000Y-85260000D01*
X127550000Y-85260000D01*
X127310000Y-85590000D01*
G36*
X127310000Y-85590000D02*
G01*
X127070000Y-85260000D01*
X127550000Y-85260000D01*
X127310000Y-85590000D01*
G37*
G04 #@! TO.C,U5*
X141210000Y-98060000D02*
X141210000Y-96060000D01*
X143490000Y-98050000D02*
X143490000Y-96050000D01*
X141280000Y-98700000D02*
X141000000Y-98420000D01*
X141280000Y-98420000D01*
X141280000Y-98700000D01*
G36*
X141280000Y-98700000D02*
G01*
X141000000Y-98420000D01*
X141280000Y-98420000D01*
X141280000Y-98700000D01*
G37*
G04 #@! TO.C,U2*
X131162500Y-76490000D02*
X130362500Y-76490000D01*
X131162500Y-76490000D02*
X131962500Y-76490000D01*
X131162500Y-79610000D02*
X130362500Y-79610000D01*
X131162500Y-79610000D02*
X131962500Y-79610000D01*
X132702500Y-79890000D02*
X132222500Y-79890000D01*
X132462500Y-79560000D01*
X132702500Y-79890000D01*
G36*
X132702500Y-79890000D02*
G01*
X132222500Y-79890000D01*
X132462500Y-79560000D01*
X132702500Y-79890000D01*
G37*
G04 #@! TO.C,C10*
X144040000Y-96834420D02*
X144040000Y-97115580D01*
X145060000Y-96834420D02*
X145060000Y-97115580D01*
G04 #@! TO.C,U1*
X142600000Y-79090000D02*
X146360000Y-79090000D01*
X142600000Y-85910000D02*
X146360000Y-85910000D01*
X146360000Y-79090000D02*
X146360000Y-80350000D01*
X146360000Y-85910000D02*
X146360000Y-84650000D01*
X141320000Y-79190000D02*
X141080000Y-78860000D01*
X141560000Y-78860000D01*
X141320000Y-79190000D01*
G36*
X141320000Y-79190000D02*
G01*
X141080000Y-78860000D01*
X141560000Y-78860000D01*
X141320000Y-79190000D01*
G37*
G04 #@! TO.C,R5*
X139677500Y-97412258D02*
X139677500Y-96937742D01*
X140722500Y-97412258D02*
X140722500Y-96937742D01*
G04 #@! TO.C,C1*
X142088748Y-86665000D02*
X142611252Y-86665000D01*
X142088748Y-88135000D02*
X142611252Y-88135000D01*
G04 #@! TO.C,R3*
X133537742Y-85777500D02*
X134012258Y-85777500D01*
X133537742Y-86822500D02*
X134012258Y-86822500D01*
D14*
G04 #@! TO.C,kibuzzard-68AF2469*
G36*
X140972857Y-90142857D02*
G01*
X140771429Y-90142857D01*
X140771429Y-90018571D01*
X140972857Y-90018571D01*
X140972857Y-90142857D01*
G37*
G36*
X143964286Y-89912857D02*
G01*
X143711429Y-89912857D01*
X143837143Y-89551429D01*
X143840000Y-89551429D01*
X143964286Y-89912857D01*
G37*
G36*
X146035079Y-89800000D02*
G01*
X145617619Y-90426190D01*
X145498571Y-90426190D01*
X145222857Y-90426190D01*
X144298571Y-90426190D01*
X143070000Y-90426190D01*
X141297143Y-90426190D01*
X140741429Y-90426190D01*
X140182857Y-90426190D01*
X138301429Y-90426190D01*
X138182381Y-90426190D01*
X138098254Y-90300000D01*
X139341429Y-90300000D01*
X139534286Y-90300000D01*
X139534286Y-89631429D01*
X139537143Y-89631429D01*
X139764286Y-90300000D01*
X139954286Y-90300000D01*
X140180000Y-89640000D01*
X140182857Y-89640000D01*
X140182857Y-90300000D01*
X140375714Y-90300000D01*
X140375714Y-89964286D01*
X140575714Y-89964286D01*
X140575714Y-90211429D01*
X140741429Y-90307143D01*
X140871429Y-90307143D01*
X140972857Y-90248571D01*
X141074286Y-90307143D01*
X141168571Y-90307143D01*
X141168571Y-90300000D01*
X141297143Y-90300000D01*
X141507143Y-90300000D01*
X141658571Y-90085714D01*
X141810000Y-90300000D01*
X142020000Y-90300000D01*
X141758571Y-89935714D01*
X142011429Y-89585714D01*
X141798571Y-89585714D01*
X141658571Y-89787143D01*
X141518571Y-89585714D01*
X141305714Y-89585714D01*
X141557143Y-89935714D01*
X141297143Y-90300000D01*
X141168571Y-90300000D01*
X141168571Y-89681429D01*
X141002857Y-89585714D01*
X140647143Y-89585714D01*
X140647143Y-89752857D01*
X140972857Y-89752857D01*
X140972857Y-89868571D01*
X140741429Y-89868571D01*
X140575714Y-89964286D01*
X140375714Y-89964286D01*
X140375714Y-89388571D01*
X142534286Y-89388571D01*
X142534286Y-89592857D01*
X142734286Y-89592857D01*
X142734286Y-89464286D01*
X143035714Y-89464286D01*
X143035714Y-89697143D01*
X142785714Y-89697143D01*
X142785714Y-89868571D01*
X143035714Y-89868571D01*
X143035714Y-90135714D01*
X142734286Y-90135714D01*
X142734286Y-90007143D01*
X142534286Y-90007143D01*
X142534286Y-90211429D01*
X142700000Y-90307143D01*
X143070000Y-90307143D01*
X143082367Y-90300000D01*
X143378571Y-90300000D01*
X143575714Y-90300000D01*
X143651429Y-90084286D01*
X144025714Y-90084286D01*
X144101429Y-90300000D01*
X144298571Y-90300000D01*
X144131735Y-89832857D01*
X144755714Y-89832857D01*
X144755714Y-90024286D01*
X145031429Y-90024286D01*
X145031429Y-90300000D01*
X145222857Y-90300000D01*
X145222857Y-90024286D01*
X145498571Y-90024286D01*
X145498571Y-89832857D01*
X145222857Y-89832857D01*
X145222857Y-89557143D01*
X145031429Y-89557143D01*
X145031429Y-89832857D01*
X144755714Y-89832857D01*
X144131735Y-89832857D01*
X143941429Y-89300000D01*
X143735714Y-89300000D01*
X143378571Y-90300000D01*
X143082367Y-90300000D01*
X143235714Y-90211429D01*
X143235714Y-89855714D01*
X143111429Y-89784286D01*
X143111429Y-89781429D01*
X143235714Y-89710000D01*
X143235714Y-89388571D01*
X143070000Y-89292857D01*
X142700000Y-89292857D01*
X142534286Y-89388571D01*
X140375714Y-89388571D01*
X140375714Y-89300000D01*
X140111429Y-89300000D01*
X139861429Y-90035714D01*
X139858571Y-90035714D01*
X139607143Y-89300000D01*
X139341429Y-89300000D01*
X139341429Y-90300000D01*
X138098254Y-90300000D01*
X137909683Y-90017143D01*
X138301429Y-90017143D01*
X138755714Y-90017143D01*
X138755714Y-89835714D01*
X138301429Y-89835714D01*
X138301429Y-90017143D01*
X137909683Y-90017143D01*
X137764921Y-89800000D01*
X138182381Y-89173810D01*
X138301429Y-89173810D01*
X145498571Y-89173810D01*
X145617619Y-89173810D01*
X146035079Y-89800000D01*
G37*
D13*
G04 #@! TO.C,C9*
X128490000Y-96734420D02*
X128490000Y-97015580D01*
X129510000Y-96734420D02*
X129510000Y-97015580D01*
G04 #@! TO.C,C8*
X121490000Y-87134420D02*
X121490000Y-87415580D01*
X122510000Y-87134420D02*
X122510000Y-87415580D01*
G04 #@! TO.C,D1*
X125965000Y-82812499D02*
X125965000Y-85097499D01*
X125965000Y-85097499D02*
X127435000Y-85097499D01*
X127435000Y-85097499D02*
X127435000Y-82812499D01*
G04 #@! TO.C,C2*
X134090000Y-77734420D02*
X134090000Y-78015580D01*
X135110000Y-77734420D02*
X135110000Y-78015580D01*
G04 #@! TO.C,C7*
X123490000Y-87134420D02*
X123490000Y-87415580D01*
X124510000Y-87134420D02*
X124510000Y-87415580D01*
G04 #@! TO.C,R4*
X124177500Y-97412258D02*
X124177500Y-96937742D01*
X125222500Y-97412258D02*
X125222500Y-96937742D01*
G04 #@! TO.C,R1*
X123937742Y-84177500D02*
X124412258Y-84177500D01*
X123937742Y-85222500D02*
X124412258Y-85222500D01*
G04 #@! TO.C,C11*
X130140000Y-96734420D02*
X130140000Y-97015580D01*
X131160000Y-96734420D02*
X131160000Y-97015580D01*
G04 #@! TO.C,TP1*
X146800000Y-77000000D02*
G75*
G02*
X144400000Y-77000000I-1200000J0D01*
G01*
X144400000Y-77000000D02*
G75*
G02*
X146800000Y-77000000I1200000J0D01*
G01*
G04 #@! TO.C,C4*
X127490000Y-78365580D02*
X127490000Y-78084420D01*
X128510000Y-78365580D02*
X128510000Y-78084420D01*
G04 #@! TO.C,J2*
X133000000Y-80665000D02*
X133635000Y-80665000D01*
X133635000Y-80665000D02*
X133635000Y-81300000D01*
G04 #@! TO.C,U4*
X125710000Y-98060000D02*
X125710000Y-96060000D01*
X127990000Y-98050000D02*
X127990000Y-96050000D01*
X125780000Y-98700000D02*
X125500000Y-98420000D01*
X125780000Y-98420000D01*
X125780000Y-98700000D01*
G36*
X125780000Y-98700000D02*
G01*
X125500000Y-98420000D01*
X125780000Y-98420000D01*
X125780000Y-98700000D01*
G37*
G04 #@! TO.C,C3*
X140365000Y-76888748D02*
X140365000Y-77411252D01*
X141835000Y-76888748D02*
X141835000Y-77411252D01*
G04 #@! TO.C,C6*
X125490000Y-87134420D02*
X125490000Y-87415580D01*
X126510000Y-87134420D02*
X126510000Y-87415580D01*
G04 #@! TO.C,R2*
X134012258Y-84177500D02*
X133537742Y-84177500D01*
X134012258Y-85222500D02*
X133537742Y-85222500D01*
G04 #@! TO.C,C12*
X145690000Y-96834420D02*
X145690000Y-97115580D01*
X146710000Y-96834420D02*
X146710000Y-97115580D01*
D14*
G04 #@! TO.C,kibuzzard-68AF2469*
G36*
X126472857Y-90142857D02*
G01*
X126271429Y-90142857D01*
X126271429Y-90018571D01*
X126472857Y-90018571D01*
X126472857Y-90142857D01*
G37*
G36*
X129464286Y-89912857D02*
G01*
X129211429Y-89912857D01*
X129337143Y-89551429D01*
X129340000Y-89551429D01*
X129464286Y-89912857D01*
G37*
G36*
X131535079Y-89800000D02*
G01*
X131117619Y-90426190D01*
X130998571Y-90426190D01*
X130722857Y-90426190D01*
X129798571Y-90426190D01*
X128570000Y-90426190D01*
X126797143Y-90426190D01*
X126241429Y-90426190D01*
X125682857Y-90426190D01*
X123801429Y-90426190D01*
X123682381Y-90426190D01*
X123598254Y-90300000D01*
X124841429Y-90300000D01*
X125034286Y-90300000D01*
X125034286Y-89631429D01*
X125037143Y-89631429D01*
X125264286Y-90300000D01*
X125454286Y-90300000D01*
X125680000Y-89640000D01*
X125682857Y-89640000D01*
X125682857Y-90300000D01*
X125875714Y-90300000D01*
X125875714Y-89964286D01*
X126075714Y-89964286D01*
X126075714Y-90211429D01*
X126241429Y-90307143D01*
X126371429Y-90307143D01*
X126472857Y-90248571D01*
X126574286Y-90307143D01*
X126668571Y-90307143D01*
X126668571Y-90300000D01*
X126797143Y-90300000D01*
X127007143Y-90300000D01*
X127158571Y-90085714D01*
X127310000Y-90300000D01*
X127520000Y-90300000D01*
X127258571Y-89935714D01*
X127511429Y-89585714D01*
X127298571Y-89585714D01*
X127158571Y-89787143D01*
X127018571Y-89585714D01*
X126805714Y-89585714D01*
X127057143Y-89935714D01*
X126797143Y-90300000D01*
X126668571Y-90300000D01*
X126668571Y-89681429D01*
X126502857Y-89585714D01*
X126147143Y-89585714D01*
X126147143Y-89752857D01*
X126472857Y-89752857D01*
X126472857Y-89868571D01*
X126241429Y-89868571D01*
X126075714Y-89964286D01*
X125875714Y-89964286D01*
X125875714Y-89388571D01*
X128034286Y-89388571D01*
X128034286Y-89592857D01*
X128234286Y-89592857D01*
X128234286Y-89464286D01*
X128535714Y-89464286D01*
X128535714Y-89697143D01*
X128285714Y-89697143D01*
X128285714Y-89868571D01*
X128535714Y-89868571D01*
X128535714Y-90135714D01*
X128234286Y-90135714D01*
X128234286Y-90007143D01*
X128034286Y-90007143D01*
X128034286Y-90211429D01*
X128200000Y-90307143D01*
X128570000Y-90307143D01*
X128582367Y-90300000D01*
X128878571Y-90300000D01*
X129075714Y-90300000D01*
X129151429Y-90084286D01*
X129525714Y-90084286D01*
X129601429Y-90300000D01*
X129798571Y-90300000D01*
X129631735Y-89832857D01*
X130255714Y-89832857D01*
X130255714Y-90024286D01*
X130531429Y-90024286D01*
X130531429Y-90300000D01*
X130722857Y-90300000D01*
X130722857Y-90024286D01*
X130998571Y-90024286D01*
X130998571Y-89832857D01*
X130722857Y-89832857D01*
X130722857Y-89557143D01*
X130531429Y-89557143D01*
X130531429Y-89832857D01*
X130255714Y-89832857D01*
X129631735Y-89832857D01*
X129441429Y-89300000D01*
X129235714Y-89300000D01*
X128878571Y-90300000D01*
X128582367Y-90300000D01*
X128735714Y-90211429D01*
X128735714Y-89855714D01*
X128611429Y-89784286D01*
X128611429Y-89781429D01*
X128735714Y-89710000D01*
X128735714Y-89388571D01*
X128570000Y-89292857D01*
X128200000Y-89292857D01*
X128034286Y-89388571D01*
X125875714Y-89388571D01*
X125875714Y-89300000D01*
X125611429Y-89300000D01*
X125361429Y-90035714D01*
X125358571Y-90035714D01*
X125107143Y-89300000D01*
X124841429Y-89300000D01*
X124841429Y-90300000D01*
X123598254Y-90300000D01*
X123409683Y-90017143D01*
X123801429Y-90017143D01*
X124255714Y-90017143D01*
X124255714Y-89835714D01*
X123801429Y-89835714D01*
X123801429Y-90017143D01*
X123409683Y-90017143D01*
X123264921Y-89800000D01*
X123682381Y-89173810D01*
X123801429Y-89173810D01*
X130998571Y-89173810D01*
X131117619Y-89173810D01*
X131535079Y-89800000D01*
G37*
G04 #@! TD*
%LPC*%
D15*
G04 #@! TO.C,TP2*
X121550000Y-84450000D03*
G04 #@! TD*
D16*
G04 #@! TO.C,U3*
X127525000Y-86000000D03*
D17*
X127700000Y-86500000D03*
X127700000Y-87000000D03*
X127700000Y-87500000D03*
D18*
X127525000Y-88000000D03*
D19*
X128000000Y-88475000D03*
D20*
X128500000Y-88300000D03*
X129000000Y-88300000D03*
X129500000Y-88300000D03*
D21*
X130000000Y-88475000D03*
D22*
X130475000Y-88000000D03*
D17*
X130300000Y-87500000D03*
X130300000Y-87000000D03*
X130300000Y-86500000D03*
D23*
X130475000Y-86000000D03*
D24*
X130000000Y-85525000D03*
D20*
X129500000Y-85700000D03*
X129000000Y-85700000D03*
X128500000Y-85700000D03*
D25*
X128000000Y-85525000D03*
G04 #@! TD*
D26*
G04 #@! TO.C,U5*
X141600000Y-98000000D03*
X142100000Y-98000000D03*
X142600000Y-98000000D03*
X143100000Y-98000000D03*
X143100000Y-96100000D03*
X142600000Y-96100000D03*
X142100000Y-96100000D03*
X141600000Y-96100000D03*
D27*
X142350000Y-97050000D03*
G04 #@! TD*
D28*
G04 #@! TO.C,U2*
X132300000Y-79000000D03*
X132300000Y-78050000D03*
X132300000Y-77100000D03*
X130025000Y-77100000D03*
X130025000Y-79000000D03*
G04 #@! TD*
D29*
G04 #@! TO.C,C10*
X144550000Y-96200000D03*
X144550000Y-97750000D03*
G04 #@! TD*
D30*
G04 #@! TO.C,U1*
X141300000Y-80200000D03*
X141300000Y-82500000D03*
D31*
X147600000Y-82500000D03*
D30*
X141300000Y-84800000D03*
G04 #@! TD*
D32*
G04 #@! TO.C,R5*
X140200000Y-98000000D03*
X140200000Y-96350000D03*
G04 #@! TD*
D33*
G04 #@! TO.C,C1*
X141400000Y-87400000D03*
X143300000Y-87400000D03*
G04 #@! TD*
D34*
G04 #@! TO.C,R3*
X132950000Y-86300000D03*
X134600000Y-86300000D03*
G04 #@! TD*
D29*
G04 #@! TO.C,C9*
X129000000Y-96100000D03*
X129000000Y-97650000D03*
G04 #@! TD*
G04 #@! TO.C,C8*
X122000000Y-86500000D03*
X122000000Y-88050000D03*
G04 #@! TD*
D35*
G04 #@! TO.C,D1*
X126700000Y-84400000D03*
X126700000Y-82824998D03*
G04 #@! TD*
D29*
G04 #@! TO.C,C2*
X134600000Y-77100000D03*
X134600000Y-78650000D03*
G04 #@! TD*
G04 #@! TO.C,C7*
X124000000Y-86500000D03*
X124000000Y-88050000D03*
G04 #@! TD*
D32*
G04 #@! TO.C,R4*
X124700000Y-98000000D03*
X124700000Y-96350000D03*
G04 #@! TD*
D34*
G04 #@! TO.C,R1*
X123350000Y-84700000D03*
X125000000Y-84700000D03*
G04 #@! TD*
D29*
G04 #@! TO.C,C11*
X130650000Y-96100000D03*
X130650000Y-97650000D03*
G04 #@! TD*
D36*
G04 #@! TO.C,TP1*
X145600000Y-77000000D03*
G04 #@! TD*
D37*
G04 #@! TO.C,C4*
X128000000Y-79000000D03*
X128000000Y-77450000D03*
G04 #@! TD*
D38*
G04 #@! TO.C,J2*
X134270000Y-81935000D03*
X129190000Y-82951000D03*
X129190000Y-80919000D03*
D39*
X133000000Y-81300000D03*
X133000000Y-82570000D03*
X131730000Y-81300000D03*
X131730000Y-82570000D03*
X130460000Y-81300000D03*
X130460000Y-82570000D03*
G04 #@! TD*
D26*
G04 #@! TO.C,U4*
X126100000Y-98000000D03*
X126600000Y-98000000D03*
X127100000Y-98000000D03*
X127600000Y-98000000D03*
X127600000Y-96100000D03*
X127100000Y-96100000D03*
X126600000Y-96100000D03*
X126100000Y-96100000D03*
D27*
X126850000Y-97050000D03*
G04 #@! TD*
D40*
G04 #@! TO.C,C3*
X141100000Y-76200000D03*
X141100000Y-78100000D03*
G04 #@! TD*
D29*
G04 #@! TO.C,C6*
X126000000Y-86500000D03*
X126000000Y-88050000D03*
G04 #@! TD*
D41*
G04 #@! TO.C,R2*
X134600000Y-84700000D03*
X132950000Y-84700000D03*
G04 #@! TD*
D29*
G04 #@! TO.C,C12*
X146200000Y-96200000D03*
X146200000Y-97750000D03*
G04 #@! TD*
D42*
G04 #@! TO.C,J1*
X148000000Y-88000000D03*
X148000000Y-77000000D03*
D43*
X138000000Y-80000000D03*
X138000000Y-85000000D03*
G04 #@! TD*
D44*
G04 #@! TO.C,C5*
X133700000Y-95900000D03*
D45*
X135700000Y-95900000D03*
G04 #@! TD*
D42*
G04 #@! TO.C,J4*
X121500000Y-98500000D03*
X132500000Y-98500000D03*
D46*
X124500000Y-93500000D03*
D43*
X129500000Y-93500000D03*
G04 #@! TD*
D47*
G04 #@! TO.C,J3*
X124000000Y-76960000D03*
D48*
X121460000Y-76960000D03*
X124000000Y-79500000D03*
X121460000Y-79500000D03*
X124000000Y-82040000D03*
X121460000Y-82040000D03*
G04 #@! TD*
D42*
G04 #@! TO.C,J5*
X137000000Y-98500000D03*
X148000000Y-98500000D03*
D46*
X140000000Y-93500000D03*
D43*
X145000000Y-93500000D03*
G04 #@! TD*
%LPD*%
M02*
