%TF.GenerationSoftware,KiCad,Pcbnew,9.0.0*%
%TF.CreationDate,2025-09-29T19:17:06-04:00*%
%TF.ProjectId,brushed-dual-esc,62727573-6865-4642-9d64-75616c2d6573,rev?*%
%TF.SameCoordinates,Original*%
%TF.FileFunction,Drillmap*%
%TF.FilePolarity,Positive*%
%FSLAX45Y45*%
G04 Gerber Fmt 4.5, Leading zero omitted, Abs format (unit mm)*
G04 Created by KiCad (PCBNEW 9.0.0) date 2025-09-29 19:17:06*
%MOMM*%
%LPD*%
G01*
G04 APERTURE LIST*
%ADD10C,0.050000*%
%ADD11C,0.200000*%
%ADD12C,0.100000*%
G04 APERTURE END LIST*
D10*
X12100000Y-7500000D02*
X14850000Y-7500000D01*
X12100000Y-10000000D02*
G75*
G02*
X12000000Y-9900000I0J100000D01*
G01*
X14850000Y-7500000D02*
G75*
G02*
X14950000Y-7600000I0J-100000D01*
G01*
X12000000Y-9900000D02*
X12000000Y-7600000D01*
X14950000Y-9900000D02*
G75*
G02*
X14850000Y-10000000I-100000J0D01*
G01*
X14850000Y-10000000D02*
X12100000Y-10000000D01*
X12000000Y-7600000D02*
G75*
G02*
X12100000Y-7500000I100000J0D01*
G01*
X14950000Y-7600000D02*
X14950000Y-9900000D01*
D11*
D12*
X12869470Y-8042370D02*
X12968530Y-8141430D01*
X12968530Y-8042370D02*
X12869470Y-8141430D01*
X12869470Y-8245570D02*
X12968530Y-8344630D01*
X12968530Y-8245570D02*
X12869470Y-8344630D01*
X13377470Y-8143970D02*
X13476530Y-8243030D01*
X13476530Y-8143970D02*
X13377470Y-8243030D01*
D11*
X12258277Y-10313984D02*
X12258277Y-10113984D01*
X12258277Y-10113984D02*
X12305896Y-10113984D01*
X12305896Y-10113984D02*
X12334467Y-10123508D01*
X12334467Y-10123508D02*
X12353515Y-10142555D01*
X12353515Y-10142555D02*
X12363039Y-10161603D01*
X12363039Y-10161603D02*
X12372562Y-10199698D01*
X12372562Y-10199698D02*
X12372562Y-10228270D01*
X12372562Y-10228270D02*
X12363039Y-10266365D01*
X12363039Y-10266365D02*
X12353515Y-10285412D01*
X12353515Y-10285412D02*
X12334467Y-10304460D01*
X12334467Y-10304460D02*
X12305896Y-10313984D01*
X12305896Y-10313984D02*
X12258277Y-10313984D01*
X12458277Y-10313984D02*
X12458277Y-10180650D01*
X12458277Y-10218746D02*
X12467801Y-10199698D01*
X12467801Y-10199698D02*
X12477324Y-10190174D01*
X12477324Y-10190174D02*
X12496372Y-10180650D01*
X12496372Y-10180650D02*
X12515420Y-10180650D01*
X12582086Y-10313984D02*
X12582086Y-10180650D01*
X12582086Y-10113984D02*
X12572562Y-10123508D01*
X12572562Y-10123508D02*
X12582086Y-10133031D01*
X12582086Y-10133031D02*
X12591610Y-10123508D01*
X12591610Y-10123508D02*
X12582086Y-10113984D01*
X12582086Y-10113984D02*
X12582086Y-10133031D01*
X12705896Y-10313984D02*
X12686848Y-10304460D01*
X12686848Y-10304460D02*
X12677324Y-10285412D01*
X12677324Y-10285412D02*
X12677324Y-10113984D01*
X12810658Y-10313984D02*
X12791610Y-10304460D01*
X12791610Y-10304460D02*
X12782086Y-10285412D01*
X12782086Y-10285412D02*
X12782086Y-10113984D01*
X13039229Y-10313984D02*
X13039229Y-10113984D01*
X13039229Y-10113984D02*
X13105896Y-10256841D01*
X13105896Y-10256841D02*
X13172562Y-10113984D01*
X13172562Y-10113984D02*
X13172562Y-10313984D01*
X13353515Y-10313984D02*
X13353515Y-10209222D01*
X13353515Y-10209222D02*
X13343991Y-10190174D01*
X13343991Y-10190174D02*
X13324943Y-10180650D01*
X13324943Y-10180650D02*
X13286848Y-10180650D01*
X13286848Y-10180650D02*
X13267801Y-10190174D01*
X13353515Y-10304460D02*
X13334467Y-10313984D01*
X13334467Y-10313984D02*
X13286848Y-10313984D01*
X13286848Y-10313984D02*
X13267801Y-10304460D01*
X13267801Y-10304460D02*
X13258277Y-10285412D01*
X13258277Y-10285412D02*
X13258277Y-10266365D01*
X13258277Y-10266365D02*
X13267801Y-10247317D01*
X13267801Y-10247317D02*
X13286848Y-10237793D01*
X13286848Y-10237793D02*
X13334467Y-10237793D01*
X13334467Y-10237793D02*
X13353515Y-10228270D01*
X13448753Y-10180650D02*
X13448753Y-10380650D01*
X13448753Y-10190174D02*
X13467801Y-10180650D01*
X13467801Y-10180650D02*
X13505896Y-10180650D01*
X13505896Y-10180650D02*
X13524943Y-10190174D01*
X13524943Y-10190174D02*
X13534467Y-10199698D01*
X13534467Y-10199698D02*
X13543991Y-10218746D01*
X13543991Y-10218746D02*
X13543991Y-10275889D01*
X13543991Y-10275889D02*
X13534467Y-10294936D01*
X13534467Y-10294936D02*
X13524943Y-10304460D01*
X13524943Y-10304460D02*
X13505896Y-10313984D01*
X13505896Y-10313984D02*
X13467801Y-10313984D01*
X13467801Y-10313984D02*
X13448753Y-10304460D01*
X13629705Y-10294936D02*
X13639229Y-10304460D01*
X13639229Y-10304460D02*
X13629705Y-10313984D01*
X13629705Y-10313984D02*
X13620182Y-10304460D01*
X13620182Y-10304460D02*
X13629705Y-10294936D01*
X13629705Y-10294936D02*
X13629705Y-10313984D01*
X13629705Y-10190174D02*
X13639229Y-10199698D01*
X13639229Y-10199698D02*
X13629705Y-10209222D01*
X13629705Y-10209222D02*
X13620182Y-10199698D01*
X13620182Y-10199698D02*
X13629705Y-10190174D01*
X13629705Y-10190174D02*
X13629705Y-10209222D01*
D12*
X11898440Y-10592970D02*
X11997500Y-10692030D01*
X11997500Y-10592970D02*
X11898440Y-10692030D01*
D11*
X12296372Y-10533984D02*
X12315420Y-10533984D01*
X12315420Y-10533984D02*
X12334467Y-10543508D01*
X12334467Y-10543508D02*
X12343991Y-10553031D01*
X12343991Y-10553031D02*
X12353515Y-10572079D01*
X12353515Y-10572079D02*
X12363039Y-10610174D01*
X12363039Y-10610174D02*
X12363039Y-10657793D01*
X12363039Y-10657793D02*
X12353515Y-10695889D01*
X12353515Y-10695889D02*
X12343991Y-10714936D01*
X12343991Y-10714936D02*
X12334467Y-10724460D01*
X12334467Y-10724460D02*
X12315420Y-10733984D01*
X12315420Y-10733984D02*
X12296372Y-10733984D01*
X12296372Y-10733984D02*
X12277324Y-10724460D01*
X12277324Y-10724460D02*
X12267801Y-10714936D01*
X12267801Y-10714936D02*
X12258277Y-10695889D01*
X12258277Y-10695889D02*
X12248753Y-10657793D01*
X12248753Y-10657793D02*
X12248753Y-10610174D01*
X12248753Y-10610174D02*
X12258277Y-10572079D01*
X12258277Y-10572079D02*
X12267801Y-10553031D01*
X12267801Y-10553031D02*
X12277324Y-10543508D01*
X12277324Y-10543508D02*
X12296372Y-10533984D01*
X12448753Y-10714936D02*
X12458277Y-10724460D01*
X12458277Y-10724460D02*
X12448753Y-10733984D01*
X12448753Y-10733984D02*
X12439229Y-10724460D01*
X12439229Y-10724460D02*
X12448753Y-10714936D01*
X12448753Y-10714936D02*
X12448753Y-10733984D01*
X12553515Y-10733984D02*
X12591610Y-10733984D01*
X12591610Y-10733984D02*
X12610658Y-10724460D01*
X12610658Y-10724460D02*
X12620182Y-10714936D01*
X12620182Y-10714936D02*
X12639229Y-10686365D01*
X12639229Y-10686365D02*
X12648753Y-10648270D01*
X12648753Y-10648270D02*
X12648753Y-10572079D01*
X12648753Y-10572079D02*
X12639229Y-10553031D01*
X12639229Y-10553031D02*
X12629705Y-10543508D01*
X12629705Y-10543508D02*
X12610658Y-10533984D01*
X12610658Y-10533984D02*
X12572562Y-10533984D01*
X12572562Y-10533984D02*
X12553515Y-10543508D01*
X12553515Y-10543508D02*
X12543991Y-10553031D01*
X12543991Y-10553031D02*
X12534467Y-10572079D01*
X12534467Y-10572079D02*
X12534467Y-10619698D01*
X12534467Y-10619698D02*
X12543991Y-10638746D01*
X12543991Y-10638746D02*
X12553515Y-10648270D01*
X12553515Y-10648270D02*
X12572562Y-10657793D01*
X12572562Y-10657793D02*
X12610658Y-10657793D01*
X12610658Y-10657793D02*
X12629705Y-10648270D01*
X12629705Y-10648270D02*
X12639229Y-10638746D01*
X12639229Y-10638746D02*
X12648753Y-10619698D01*
X12743991Y-10733984D02*
X12782086Y-10733984D01*
X12782086Y-10733984D02*
X12801134Y-10724460D01*
X12801134Y-10724460D02*
X12810658Y-10714936D01*
X12810658Y-10714936D02*
X12829705Y-10686365D01*
X12829705Y-10686365D02*
X12839229Y-10648270D01*
X12839229Y-10648270D02*
X12839229Y-10572079D01*
X12839229Y-10572079D02*
X12829705Y-10553031D01*
X12829705Y-10553031D02*
X12820182Y-10543508D01*
X12820182Y-10543508D02*
X12801134Y-10533984D01*
X12801134Y-10533984D02*
X12763039Y-10533984D01*
X12763039Y-10533984D02*
X12743991Y-10543508D01*
X12743991Y-10543508D02*
X12734467Y-10553031D01*
X12734467Y-10553031D02*
X12724943Y-10572079D01*
X12724943Y-10572079D02*
X12724943Y-10619698D01*
X12724943Y-10619698D02*
X12734467Y-10638746D01*
X12734467Y-10638746D02*
X12743991Y-10648270D01*
X12743991Y-10648270D02*
X12763039Y-10657793D01*
X12763039Y-10657793D02*
X12801134Y-10657793D01*
X12801134Y-10657793D02*
X12820182Y-10648270D01*
X12820182Y-10648270D02*
X12829705Y-10638746D01*
X12829705Y-10638746D02*
X12839229Y-10619698D01*
X13029705Y-10733984D02*
X12915420Y-10733984D01*
X12972562Y-10733984D02*
X12972562Y-10533984D01*
X12972562Y-10533984D02*
X12953515Y-10562555D01*
X12953515Y-10562555D02*
X12934467Y-10581603D01*
X12934467Y-10581603D02*
X12915420Y-10591127D01*
X13115420Y-10733984D02*
X13115420Y-10600650D01*
X13115420Y-10619698D02*
X13124943Y-10610174D01*
X13124943Y-10610174D02*
X13143991Y-10600650D01*
X13143991Y-10600650D02*
X13172563Y-10600650D01*
X13172563Y-10600650D02*
X13191610Y-10610174D01*
X13191610Y-10610174D02*
X13201134Y-10629222D01*
X13201134Y-10629222D02*
X13201134Y-10733984D01*
X13201134Y-10629222D02*
X13210658Y-10610174D01*
X13210658Y-10610174D02*
X13229705Y-10600650D01*
X13229705Y-10600650D02*
X13258277Y-10600650D01*
X13258277Y-10600650D02*
X13277324Y-10610174D01*
X13277324Y-10610174D02*
X13286848Y-10629222D01*
X13286848Y-10629222D02*
X13286848Y-10733984D01*
X13382086Y-10733984D02*
X13382086Y-10600650D01*
X13382086Y-10619698D02*
X13391610Y-10610174D01*
X13391610Y-10610174D02*
X13410658Y-10600650D01*
X13410658Y-10600650D02*
X13439229Y-10600650D01*
X13439229Y-10600650D02*
X13458277Y-10610174D01*
X13458277Y-10610174D02*
X13467801Y-10629222D01*
X13467801Y-10629222D02*
X13467801Y-10733984D01*
X13467801Y-10629222D02*
X13477324Y-10610174D01*
X13477324Y-10610174D02*
X13496372Y-10600650D01*
X13496372Y-10600650D02*
X13524943Y-10600650D01*
X13524943Y-10600650D02*
X13543991Y-10610174D01*
X13543991Y-10610174D02*
X13553515Y-10629222D01*
X13553515Y-10629222D02*
X13553515Y-10733984D01*
X13943991Y-10524460D02*
X13772563Y-10781603D01*
X14201134Y-10533984D02*
X14220182Y-10533984D01*
X14220182Y-10533984D02*
X14239229Y-10543508D01*
X14239229Y-10543508D02*
X14248753Y-10553031D01*
X14248753Y-10553031D02*
X14258277Y-10572079D01*
X14258277Y-10572079D02*
X14267801Y-10610174D01*
X14267801Y-10610174D02*
X14267801Y-10657793D01*
X14267801Y-10657793D02*
X14258277Y-10695889D01*
X14258277Y-10695889D02*
X14248753Y-10714936D01*
X14248753Y-10714936D02*
X14239229Y-10724460D01*
X14239229Y-10724460D02*
X14220182Y-10733984D01*
X14220182Y-10733984D02*
X14201134Y-10733984D01*
X14201134Y-10733984D02*
X14182086Y-10724460D01*
X14182086Y-10724460D02*
X14172563Y-10714936D01*
X14172563Y-10714936D02*
X14163039Y-10695889D01*
X14163039Y-10695889D02*
X14153515Y-10657793D01*
X14153515Y-10657793D02*
X14153515Y-10610174D01*
X14153515Y-10610174D02*
X14163039Y-10572079D01*
X14163039Y-10572079D02*
X14172563Y-10553031D01*
X14172563Y-10553031D02*
X14182086Y-10543508D01*
X14182086Y-10543508D02*
X14201134Y-10533984D01*
X14353515Y-10714936D02*
X14363039Y-10724460D01*
X14363039Y-10724460D02*
X14353515Y-10733984D01*
X14353515Y-10733984D02*
X14343991Y-10724460D01*
X14343991Y-10724460D02*
X14353515Y-10714936D01*
X14353515Y-10714936D02*
X14353515Y-10733984D01*
X14486848Y-10533984D02*
X14505896Y-10533984D01*
X14505896Y-10533984D02*
X14524944Y-10543508D01*
X14524944Y-10543508D02*
X14534467Y-10553031D01*
X14534467Y-10553031D02*
X14543991Y-10572079D01*
X14543991Y-10572079D02*
X14553515Y-10610174D01*
X14553515Y-10610174D02*
X14553515Y-10657793D01*
X14553515Y-10657793D02*
X14543991Y-10695889D01*
X14543991Y-10695889D02*
X14534467Y-10714936D01*
X14534467Y-10714936D02*
X14524944Y-10724460D01*
X14524944Y-10724460D02*
X14505896Y-10733984D01*
X14505896Y-10733984D02*
X14486848Y-10733984D01*
X14486848Y-10733984D02*
X14467801Y-10724460D01*
X14467801Y-10724460D02*
X14458277Y-10714936D01*
X14458277Y-10714936D02*
X14448753Y-10695889D01*
X14448753Y-10695889D02*
X14439229Y-10657793D01*
X14439229Y-10657793D02*
X14439229Y-10610174D01*
X14439229Y-10610174D02*
X14448753Y-10572079D01*
X14448753Y-10572079D02*
X14458277Y-10553031D01*
X14458277Y-10553031D02*
X14467801Y-10543508D01*
X14467801Y-10543508D02*
X14486848Y-10533984D01*
X14620182Y-10533984D02*
X14743991Y-10533984D01*
X14743991Y-10533984D02*
X14677325Y-10610174D01*
X14677325Y-10610174D02*
X14705896Y-10610174D01*
X14705896Y-10610174D02*
X14724944Y-10619698D01*
X14724944Y-10619698D02*
X14734467Y-10629222D01*
X14734467Y-10629222D02*
X14743991Y-10648270D01*
X14743991Y-10648270D02*
X14743991Y-10695889D01*
X14743991Y-10695889D02*
X14734467Y-10714936D01*
X14734467Y-10714936D02*
X14724944Y-10724460D01*
X14724944Y-10724460D02*
X14705896Y-10733984D01*
X14705896Y-10733984D02*
X14648753Y-10733984D01*
X14648753Y-10733984D02*
X14629706Y-10724460D01*
X14629706Y-10724460D02*
X14620182Y-10714936D01*
X14839229Y-10733984D02*
X14877325Y-10733984D01*
X14877325Y-10733984D02*
X14896372Y-10724460D01*
X14896372Y-10724460D02*
X14905896Y-10714936D01*
X14905896Y-10714936D02*
X14924944Y-10686365D01*
X14924944Y-10686365D02*
X14934467Y-10648270D01*
X14934467Y-10648270D02*
X14934467Y-10572079D01*
X14934467Y-10572079D02*
X14924944Y-10553031D01*
X14924944Y-10553031D02*
X14915420Y-10543508D01*
X14915420Y-10543508D02*
X14896372Y-10533984D01*
X14896372Y-10533984D02*
X14858277Y-10533984D01*
X14858277Y-10533984D02*
X14839229Y-10543508D01*
X14839229Y-10543508D02*
X14829706Y-10553031D01*
X14829706Y-10553031D02*
X14820182Y-10572079D01*
X14820182Y-10572079D02*
X14820182Y-10619698D01*
X14820182Y-10619698D02*
X14829706Y-10638746D01*
X14829706Y-10638746D02*
X14839229Y-10648270D01*
X14839229Y-10648270D02*
X14858277Y-10657793D01*
X14858277Y-10657793D02*
X14896372Y-10657793D01*
X14896372Y-10657793D02*
X14915420Y-10648270D01*
X14915420Y-10648270D02*
X14924944Y-10638746D01*
X14924944Y-10638746D02*
X14934467Y-10619698D01*
X15058277Y-10533984D02*
X15077325Y-10533984D01*
X15077325Y-10533984D02*
X15096372Y-10543508D01*
X15096372Y-10543508D02*
X15105896Y-10553031D01*
X15105896Y-10553031D02*
X15115420Y-10572079D01*
X15115420Y-10572079D02*
X15124944Y-10610174D01*
X15124944Y-10610174D02*
X15124944Y-10657793D01*
X15124944Y-10657793D02*
X15115420Y-10695889D01*
X15115420Y-10695889D02*
X15105896Y-10714936D01*
X15105896Y-10714936D02*
X15096372Y-10724460D01*
X15096372Y-10724460D02*
X15077325Y-10733984D01*
X15077325Y-10733984D02*
X15058277Y-10733984D01*
X15058277Y-10733984D02*
X15039229Y-10724460D01*
X15039229Y-10724460D02*
X15029706Y-10714936D01*
X15029706Y-10714936D02*
X15020182Y-10695889D01*
X15020182Y-10695889D02*
X15010658Y-10657793D01*
X15010658Y-10657793D02*
X15010658Y-10610174D01*
X15010658Y-10610174D02*
X15020182Y-10572079D01*
X15020182Y-10572079D02*
X15029706Y-10553031D01*
X15029706Y-10553031D02*
X15039229Y-10543508D01*
X15039229Y-10543508D02*
X15058277Y-10533984D01*
X15201134Y-10533984D02*
X15201134Y-10572079D01*
X15277325Y-10533984D02*
X15277325Y-10572079D01*
X15572563Y-10810174D02*
X15563039Y-10800650D01*
X15563039Y-10800650D02*
X15543991Y-10772079D01*
X15543991Y-10772079D02*
X15534468Y-10753031D01*
X15534468Y-10753031D02*
X15524944Y-10724460D01*
X15524944Y-10724460D02*
X15515420Y-10676841D01*
X15515420Y-10676841D02*
X15515420Y-10638746D01*
X15515420Y-10638746D02*
X15524944Y-10591127D01*
X15524944Y-10591127D02*
X15534468Y-10562555D01*
X15534468Y-10562555D02*
X15543991Y-10543508D01*
X15543991Y-10543508D02*
X15563039Y-10514936D01*
X15563039Y-10514936D02*
X15572563Y-10505412D01*
X15629706Y-10533984D02*
X15753515Y-10533984D01*
X15753515Y-10533984D02*
X15686848Y-10610174D01*
X15686848Y-10610174D02*
X15715420Y-10610174D01*
X15715420Y-10610174D02*
X15734468Y-10619698D01*
X15734468Y-10619698D02*
X15743991Y-10629222D01*
X15743991Y-10629222D02*
X15753515Y-10648270D01*
X15753515Y-10648270D02*
X15753515Y-10695889D01*
X15753515Y-10695889D02*
X15743991Y-10714936D01*
X15743991Y-10714936D02*
X15734468Y-10724460D01*
X15734468Y-10724460D02*
X15715420Y-10733984D01*
X15715420Y-10733984D02*
X15658277Y-10733984D01*
X15658277Y-10733984D02*
X15639229Y-10724460D01*
X15639229Y-10724460D02*
X15629706Y-10714936D01*
X15991610Y-10733984D02*
X15991610Y-10533984D01*
X16077325Y-10733984D02*
X16077325Y-10629222D01*
X16077325Y-10629222D02*
X16067801Y-10610174D01*
X16067801Y-10610174D02*
X16048753Y-10600650D01*
X16048753Y-10600650D02*
X16020182Y-10600650D01*
X16020182Y-10600650D02*
X16001134Y-10610174D01*
X16001134Y-10610174D02*
X15991610Y-10619698D01*
X16201134Y-10733984D02*
X16182087Y-10724460D01*
X16182087Y-10724460D02*
X16172563Y-10714936D01*
X16172563Y-10714936D02*
X16163039Y-10695889D01*
X16163039Y-10695889D02*
X16163039Y-10638746D01*
X16163039Y-10638746D02*
X16172563Y-10619698D01*
X16172563Y-10619698D02*
X16182087Y-10610174D01*
X16182087Y-10610174D02*
X16201134Y-10600650D01*
X16201134Y-10600650D02*
X16229706Y-10600650D01*
X16229706Y-10600650D02*
X16248753Y-10610174D01*
X16248753Y-10610174D02*
X16258277Y-10619698D01*
X16258277Y-10619698D02*
X16267801Y-10638746D01*
X16267801Y-10638746D02*
X16267801Y-10695889D01*
X16267801Y-10695889D02*
X16258277Y-10714936D01*
X16258277Y-10714936D02*
X16248753Y-10724460D01*
X16248753Y-10724460D02*
X16229706Y-10733984D01*
X16229706Y-10733984D02*
X16201134Y-10733984D01*
X16382087Y-10733984D02*
X16363039Y-10724460D01*
X16363039Y-10724460D02*
X16353515Y-10705412D01*
X16353515Y-10705412D02*
X16353515Y-10533984D01*
X16534468Y-10724460D02*
X16515420Y-10733984D01*
X16515420Y-10733984D02*
X16477325Y-10733984D01*
X16477325Y-10733984D02*
X16458277Y-10724460D01*
X16458277Y-10724460D02*
X16448753Y-10705412D01*
X16448753Y-10705412D02*
X16448753Y-10629222D01*
X16448753Y-10629222D02*
X16458277Y-10610174D01*
X16458277Y-10610174D02*
X16477325Y-10600650D01*
X16477325Y-10600650D02*
X16515420Y-10600650D01*
X16515420Y-10600650D02*
X16534468Y-10610174D01*
X16534468Y-10610174D02*
X16543991Y-10629222D01*
X16543991Y-10629222D02*
X16543991Y-10648270D01*
X16543991Y-10648270D02*
X16448753Y-10667317D01*
X16620182Y-10724460D02*
X16639230Y-10733984D01*
X16639230Y-10733984D02*
X16677325Y-10733984D01*
X16677325Y-10733984D02*
X16696372Y-10724460D01*
X16696372Y-10724460D02*
X16705896Y-10705412D01*
X16705896Y-10705412D02*
X16705896Y-10695889D01*
X16705896Y-10695889D02*
X16696372Y-10676841D01*
X16696372Y-10676841D02*
X16677325Y-10667317D01*
X16677325Y-10667317D02*
X16648753Y-10667317D01*
X16648753Y-10667317D02*
X16629706Y-10657793D01*
X16629706Y-10657793D02*
X16620182Y-10638746D01*
X16620182Y-10638746D02*
X16620182Y-10629222D01*
X16620182Y-10629222D02*
X16629706Y-10610174D01*
X16629706Y-10610174D02*
X16648753Y-10600650D01*
X16648753Y-10600650D02*
X16677325Y-10600650D01*
X16677325Y-10600650D02*
X16696372Y-10610174D01*
X16772563Y-10810174D02*
X16782087Y-10800650D01*
X16782087Y-10800650D02*
X16801134Y-10772079D01*
X16801134Y-10772079D02*
X16810658Y-10753031D01*
X16810658Y-10753031D02*
X16820182Y-10724460D01*
X16820182Y-10724460D02*
X16829706Y-10676841D01*
X16829706Y-10676841D02*
X16829706Y-10638746D01*
X16829706Y-10638746D02*
X16820182Y-10591127D01*
X16820182Y-10591127D02*
X16810658Y-10562555D01*
X16810658Y-10562555D02*
X16801134Y-10543508D01*
X16801134Y-10543508D02*
X16782087Y-10514936D01*
X16782087Y-10514936D02*
X16772563Y-10505412D01*
X17134468Y-10810174D02*
X17124944Y-10800650D01*
X17124944Y-10800650D02*
X17105896Y-10772079D01*
X17105896Y-10772079D02*
X17096373Y-10753031D01*
X17096373Y-10753031D02*
X17086849Y-10724460D01*
X17086849Y-10724460D02*
X17077325Y-10676841D01*
X17077325Y-10676841D02*
X17077325Y-10638746D01*
X17077325Y-10638746D02*
X17086849Y-10591127D01*
X17086849Y-10591127D02*
X17096373Y-10562555D01*
X17096373Y-10562555D02*
X17105896Y-10543508D01*
X17105896Y-10543508D02*
X17124944Y-10514936D01*
X17124944Y-10514936D02*
X17134468Y-10505412D01*
X17210658Y-10600650D02*
X17210658Y-10733984D01*
X17210658Y-10619698D02*
X17220182Y-10610174D01*
X17220182Y-10610174D02*
X17239230Y-10600650D01*
X17239230Y-10600650D02*
X17267801Y-10600650D01*
X17267801Y-10600650D02*
X17286849Y-10610174D01*
X17286849Y-10610174D02*
X17296373Y-10629222D01*
X17296373Y-10629222D02*
X17296373Y-10733984D01*
X17420182Y-10733984D02*
X17401134Y-10724460D01*
X17401134Y-10724460D02*
X17391611Y-10714936D01*
X17391611Y-10714936D02*
X17382087Y-10695889D01*
X17382087Y-10695889D02*
X17382087Y-10638746D01*
X17382087Y-10638746D02*
X17391611Y-10619698D01*
X17391611Y-10619698D02*
X17401134Y-10610174D01*
X17401134Y-10610174D02*
X17420182Y-10600650D01*
X17420182Y-10600650D02*
X17448754Y-10600650D01*
X17448754Y-10600650D02*
X17467801Y-10610174D01*
X17467801Y-10610174D02*
X17477325Y-10619698D01*
X17477325Y-10619698D02*
X17486849Y-10638746D01*
X17486849Y-10638746D02*
X17486849Y-10695889D01*
X17486849Y-10695889D02*
X17477325Y-10714936D01*
X17477325Y-10714936D02*
X17467801Y-10724460D01*
X17467801Y-10724460D02*
X17448754Y-10733984D01*
X17448754Y-10733984D02*
X17420182Y-10733984D01*
X17543992Y-10600650D02*
X17620182Y-10600650D01*
X17572563Y-10533984D02*
X17572563Y-10705412D01*
X17572563Y-10705412D02*
X17582087Y-10724460D01*
X17582087Y-10724460D02*
X17601134Y-10733984D01*
X17601134Y-10733984D02*
X17620182Y-10733984D01*
X17839230Y-10600650D02*
X17839230Y-10800650D01*
X17839230Y-10610174D02*
X17858277Y-10600650D01*
X17858277Y-10600650D02*
X17896373Y-10600650D01*
X17896373Y-10600650D02*
X17915420Y-10610174D01*
X17915420Y-10610174D02*
X17924944Y-10619698D01*
X17924944Y-10619698D02*
X17934468Y-10638746D01*
X17934468Y-10638746D02*
X17934468Y-10695889D01*
X17934468Y-10695889D02*
X17924944Y-10714936D01*
X17924944Y-10714936D02*
X17915420Y-10724460D01*
X17915420Y-10724460D02*
X17896373Y-10733984D01*
X17896373Y-10733984D02*
X17858277Y-10733984D01*
X17858277Y-10733984D02*
X17839230Y-10724460D01*
X18048754Y-10733984D02*
X18029706Y-10724460D01*
X18029706Y-10724460D02*
X18020182Y-10705412D01*
X18020182Y-10705412D02*
X18020182Y-10533984D01*
X18210658Y-10733984D02*
X18210658Y-10629222D01*
X18210658Y-10629222D02*
X18201135Y-10610174D01*
X18201135Y-10610174D02*
X18182087Y-10600650D01*
X18182087Y-10600650D02*
X18143992Y-10600650D01*
X18143992Y-10600650D02*
X18124944Y-10610174D01*
X18210658Y-10724460D02*
X18191611Y-10733984D01*
X18191611Y-10733984D02*
X18143992Y-10733984D01*
X18143992Y-10733984D02*
X18124944Y-10724460D01*
X18124944Y-10724460D02*
X18115420Y-10705412D01*
X18115420Y-10705412D02*
X18115420Y-10686365D01*
X18115420Y-10686365D02*
X18124944Y-10667317D01*
X18124944Y-10667317D02*
X18143992Y-10657793D01*
X18143992Y-10657793D02*
X18191611Y-10657793D01*
X18191611Y-10657793D02*
X18210658Y-10648270D01*
X18277325Y-10600650D02*
X18353515Y-10600650D01*
X18305896Y-10533984D02*
X18305896Y-10705412D01*
X18305896Y-10705412D02*
X18315420Y-10724460D01*
X18315420Y-10724460D02*
X18334468Y-10733984D01*
X18334468Y-10733984D02*
X18353515Y-10733984D01*
X18496373Y-10724460D02*
X18477325Y-10733984D01*
X18477325Y-10733984D02*
X18439230Y-10733984D01*
X18439230Y-10733984D02*
X18420182Y-10724460D01*
X18420182Y-10724460D02*
X18410658Y-10705412D01*
X18410658Y-10705412D02*
X18410658Y-10629222D01*
X18410658Y-10629222D02*
X18420182Y-10610174D01*
X18420182Y-10610174D02*
X18439230Y-10600650D01*
X18439230Y-10600650D02*
X18477325Y-10600650D01*
X18477325Y-10600650D02*
X18496373Y-10610174D01*
X18496373Y-10610174D02*
X18505896Y-10629222D01*
X18505896Y-10629222D02*
X18505896Y-10648270D01*
X18505896Y-10648270D02*
X18410658Y-10667317D01*
X18677325Y-10733984D02*
X18677325Y-10533984D01*
X18677325Y-10724460D02*
X18658277Y-10733984D01*
X18658277Y-10733984D02*
X18620182Y-10733984D01*
X18620182Y-10733984D02*
X18601135Y-10724460D01*
X18601135Y-10724460D02*
X18591611Y-10714936D01*
X18591611Y-10714936D02*
X18582087Y-10695889D01*
X18582087Y-10695889D02*
X18582087Y-10638746D01*
X18582087Y-10638746D02*
X18591611Y-10619698D01*
X18591611Y-10619698D02*
X18601135Y-10610174D01*
X18601135Y-10610174D02*
X18620182Y-10600650D01*
X18620182Y-10600650D02*
X18658277Y-10600650D01*
X18658277Y-10600650D02*
X18677325Y-10610174D01*
X18753516Y-10810174D02*
X18763039Y-10800650D01*
X18763039Y-10800650D02*
X18782087Y-10772079D01*
X18782087Y-10772079D02*
X18791611Y-10753031D01*
X18791611Y-10753031D02*
X18801135Y-10724460D01*
X18801135Y-10724460D02*
X18810658Y-10676841D01*
X18810658Y-10676841D02*
X18810658Y-10638746D01*
X18810658Y-10638746D02*
X18801135Y-10591127D01*
X18801135Y-10591127D02*
X18791611Y-10562555D01*
X18791611Y-10562555D02*
X18782087Y-10543508D01*
X18782087Y-10543508D02*
X18763039Y-10514936D01*
X18763039Y-10514936D02*
X18753516Y-10505412D01*
M02*
