M48
; DRILL file {KiCad 9.0.0} date 2025-09-29T19:17:06-0400
; FORMAT={-:-/ absolute / metric / decimal}
; #@! TF.CreationDate,2025-09-29T19:17:06-04:00
; #@! TF.GenerationSoftware,Kicad,Pcbnew,9.0.0
; #@! TF.FileFunction,Plated,1,2,PTH
FMAT,2
METRIC
; #@! TA.AperFunction,Plated,PTH,ViaDrill
T1C0.300
; #@! TA.AperFunction,Plated,PTH,ComponentDrill
T2C0.800
; #@! TA.AperFunction,Plated,PTH,ComponentDrill
T3C1.000
; #@! TA.AperFunction,Plated,PTH,ComponentDrill
T4C1.900
%
G90
G05
T1
X122.6Y-97.3
X123.0Y-88.05
X123.3Y-90.8
X125.0Y-88.05
X125.1Y-89.0
X125.5Y-96.95
X126.6Y-80.8
X126.725Y-87.325
X126.994Y-98.793
X127.3Y-80.1
X128.1Y-97.4
X128.9Y-77.2
X129.0Y-98.4
X129.4Y-86.7
X129.8Y-99.15
X129.99Y-81.7
X130.0Y-77.7
X130.65Y-98.4
X131.1Y-85.3
X131.295Y-80.805
X131.5Y-91.1
X131.5Y-99.15
X132.2Y-90.35
X132.5Y-97.35
X133.0Y-89.65
X133.007Y-83.607
X133.5Y-99.15
X133.7Y-88.95
X134.4Y-97.85
X134.6Y-79.4
X134.6Y-87.0
X135.2Y-93.3
X135.2Y-94.4
X135.3Y-78.2
X135.8Y-92.65
X136.0Y-80.0
X136.0Y-99.15
X136.1Y-97.3
X136.45Y-91.95
X136.5Y-78.6
X136.5Y-81.4
X137.892Y-97.775
X138.0Y-78.1
X138.0Y-82.0
X138.473Y-98.496
X139.342Y-99.108
X139.5Y-78.6
X139.5Y-81.4
X140.0Y-80.0
X140.75Y-98.799
X140.998Y-97.891
X141.05Y-97.0
X142.481Y-98.755
X143.65Y-97.45
X144.0Y-87.4
X144.55Y-98.45
X145.35Y-99.2
X146.2Y-98.45
X147.05Y-99.2
X147.4Y-97.4
T2
X133.7Y-95.9
X135.7Y-95.9
T3
X121.46Y-76.96
X121.46Y-79.5
X121.46Y-82.04
X121.5Y-98.5
X124.0Y-76.96
X124.0Y-79.5
X124.0Y-82.04
X132.5Y-98.5
X137.0Y-98.5
X148.0Y-77.0
X148.0Y-88.0
X148.0Y-98.5
T4
X124.5Y-93.5
X129.5Y-93.5
X138.0Y-80.0
X138.0Y-85.0
X140.0Y-93.5
X145.0Y-93.5
M30
