%TF.GenerationSoftware,KiCad,Pcbnew,9.0.0*%
%TF.CreationDate,2025-09-29T19:17:06-04:00*%
%TF.ProjectId,brushed-dual-esc,62727573-6865-4642-9d64-75616c2d6573,rev?*%
%TF.SameCoordinates,Original*%
%TF.FileFunction,Drillmap*%
%TF.FilePolarity,Positive*%
%FSLAX45Y45*%
G04 Gerber Fmt 4.5, Leading zero omitted, Abs format (unit mm)*
G04 Created by KiCad (PCBNEW 9.0.0) date 2025-09-29 19:17:06*
%MOMM*%
%LPD*%
G01*
G04 APERTURE LIST*
%ADD10C,0.050000*%
%ADD11C,0.200000*%
%ADD12C,0.100000*%
%ADD13C,0.190000*%
G04 APERTURE END LIST*
D10*
X12100000Y-7500000D02*
X14850000Y-7500000D01*
X12100000Y-10000000D02*
G75*
G02*
X12000000Y-9900000I0J100000D01*
G01*
X14850000Y-7500000D02*
G75*
G02*
X14950000Y-7600000I0J-100000D01*
G01*
X12000000Y-9900000D02*
X12000000Y-7600000D01*
X14950000Y-9900000D02*
G75*
G02*
X14850000Y-10000000I-100000J0D01*
G01*
X14850000Y-10000000D02*
X12100000Y-10000000D01*
X12000000Y-7600000D02*
G75*
G02*
X12100000Y-7500000I100000J0D01*
G01*
X14950000Y-7600000D02*
X14950000Y-9900000D01*
D11*
D12*
X12245000Y-9715000D02*
X12275000Y-9745000D01*
X12275000Y-9715000D02*
X12245000Y-9745000D01*
X12285000Y-8790000D02*
X12315000Y-8820000D01*
X12315000Y-8790000D02*
X12285000Y-8820000D01*
X12315000Y-9065000D02*
X12345000Y-9095000D01*
X12345000Y-9065000D02*
X12315000Y-9095000D01*
X12485000Y-8790000D02*
X12515000Y-8820000D01*
X12515000Y-8790000D02*
X12485000Y-8820000D01*
X12495000Y-8885000D02*
X12525000Y-8915000D01*
X12525000Y-8885000D02*
X12495000Y-8915000D01*
X12535000Y-9680000D02*
X12565000Y-9710000D01*
X12565000Y-9680000D02*
X12535000Y-9710000D01*
X12645000Y-8065000D02*
X12675000Y-8095000D01*
X12675000Y-8065000D02*
X12645000Y-8095000D01*
X12657500Y-8717500D02*
X12687500Y-8747500D01*
X12687500Y-8717500D02*
X12657500Y-8747500D01*
X12684391Y-9864291D02*
X12714391Y-9894291D01*
X12714391Y-9864291D02*
X12684391Y-9894291D01*
X12715000Y-7995000D02*
X12745000Y-8025000D01*
X12745000Y-7995000D02*
X12715000Y-8025000D01*
X12795000Y-9725000D02*
X12825000Y-9755000D01*
X12825000Y-9725000D02*
X12795000Y-9755000D01*
X12875000Y-7705000D02*
X12905000Y-7735000D01*
X12905000Y-7705000D02*
X12875000Y-7735000D01*
X12885000Y-9825000D02*
X12915000Y-9855000D01*
X12915000Y-9825000D02*
X12885000Y-9855000D01*
X12925000Y-8655000D02*
X12955000Y-8685000D01*
X12955000Y-8655000D02*
X12925000Y-8685000D01*
X12965000Y-9900000D02*
X12995000Y-9930000D01*
X12995000Y-9900000D02*
X12965000Y-9930000D01*
X12984000Y-8155000D02*
X13014000Y-8185000D01*
X13014000Y-8155000D02*
X12984000Y-8185000D01*
X12985000Y-7755000D02*
X13015000Y-7785000D01*
X13015000Y-7755000D02*
X12985000Y-7785000D01*
X13050000Y-9825000D02*
X13080000Y-9855000D01*
X13080000Y-9825000D02*
X13050000Y-9855000D01*
X13095000Y-8515000D02*
X13125000Y-8545000D01*
X13125000Y-8515000D02*
X13095000Y-8545000D01*
X13114500Y-8065500D02*
X13144500Y-8095500D01*
X13144500Y-8065500D02*
X13114500Y-8095500D01*
X13135000Y-9095000D02*
X13165000Y-9125000D01*
X13165000Y-9095000D02*
X13135000Y-9125000D01*
X13135000Y-9900000D02*
X13165000Y-9930000D01*
X13165000Y-9900000D02*
X13135000Y-9930000D01*
X13205000Y-9020000D02*
X13235000Y-9050000D01*
X13235000Y-9020000D02*
X13205000Y-9050000D01*
X13235000Y-9720000D02*
X13265000Y-9750000D01*
X13265000Y-9720000D02*
X13235000Y-9750000D01*
X13285000Y-8950000D02*
X13315000Y-8980000D01*
X13315000Y-8950000D02*
X13285000Y-8980000D01*
X13285699Y-8345699D02*
X13315699Y-8375699D01*
X13315699Y-8345699D02*
X13285699Y-8375699D01*
X13335000Y-9900000D02*
X13365000Y-9930000D01*
X13365000Y-9900000D02*
X13335000Y-9930000D01*
X13355000Y-8880000D02*
X13385000Y-8910000D01*
X13385000Y-8880000D02*
X13355000Y-8910000D01*
X13425000Y-9770000D02*
X13455000Y-9800000D01*
X13455000Y-9770000D02*
X13425000Y-9800000D01*
X13445000Y-7925000D02*
X13475000Y-7955000D01*
X13475000Y-7925000D02*
X13445000Y-7955000D01*
X13445000Y-8685000D02*
X13475000Y-8715000D01*
X13475000Y-8685000D02*
X13445000Y-8715000D01*
X13505000Y-9315000D02*
X13535000Y-9345000D01*
X13535000Y-9315000D02*
X13505000Y-9345000D01*
X13505000Y-9425000D02*
X13535000Y-9455000D01*
X13535000Y-9425000D02*
X13505000Y-9455000D01*
X13515000Y-7805000D02*
X13545000Y-7835000D01*
X13545000Y-7805000D02*
X13515000Y-7835000D01*
X13565000Y-9250000D02*
X13595000Y-9280000D01*
X13595000Y-9250000D02*
X13565000Y-9280000D01*
X13585000Y-7985000D02*
X13615000Y-8015000D01*
X13615000Y-7985000D02*
X13585000Y-8015000D01*
X13585000Y-9900000D02*
X13615000Y-9930000D01*
X13615000Y-9900000D02*
X13585000Y-9930000D01*
X13595000Y-9715000D02*
X13625000Y-9745000D01*
X13625000Y-9715000D02*
X13595000Y-9745000D01*
X13630000Y-9180000D02*
X13660000Y-9210000D01*
X13660000Y-9180000D02*
X13630000Y-9210000D01*
X13635000Y-7845000D02*
X13665000Y-7875000D01*
X13665000Y-7845000D02*
X13635000Y-7875000D01*
X13635000Y-8125000D02*
X13665000Y-8155000D01*
X13665000Y-8125000D02*
X13635000Y-8155000D01*
X13774229Y-9762453D02*
X13804229Y-9792453D01*
X13804229Y-9762453D02*
X13774229Y-9792453D01*
X13785000Y-7795000D02*
X13815000Y-7825000D01*
X13815000Y-7795000D02*
X13785000Y-7825000D01*
X13785000Y-8185000D02*
X13815000Y-8215000D01*
X13815000Y-8185000D02*
X13785000Y-8215000D01*
X13832300Y-9834631D02*
X13862300Y-9864631D01*
X13862300Y-9834631D02*
X13832300Y-9864631D01*
X13919156Y-9895844D02*
X13949156Y-9925844D01*
X13949156Y-9895844D02*
X13919156Y-9925844D01*
X13935000Y-7845000D02*
X13965000Y-7875000D01*
X13965000Y-7845000D02*
X13935000Y-7875000D01*
X13935000Y-8125000D02*
X13965000Y-8155000D01*
X13965000Y-8125000D02*
X13935000Y-8155000D01*
X13985000Y-7985000D02*
X14015000Y-8015000D01*
X14015000Y-7985000D02*
X13985000Y-8015000D01*
X14060000Y-9864900D02*
X14090000Y-9894900D01*
X14090000Y-9864900D02*
X14060000Y-9894900D01*
X14084804Y-9774055D02*
X14114804Y-9804055D01*
X14114804Y-9774055D02*
X14084804Y-9804055D01*
X14090000Y-9685000D02*
X14120000Y-9715000D01*
X14120000Y-9685000D02*
X14090000Y-9715000D01*
X14233141Y-9860541D02*
X14263141Y-9890541D01*
X14263141Y-9860541D02*
X14233141Y-9890541D01*
X14350000Y-9730000D02*
X14380000Y-9760000D01*
X14380000Y-9730000D02*
X14350000Y-9760000D01*
X14385000Y-8725000D02*
X14415000Y-8755000D01*
X14415000Y-8725000D02*
X14385000Y-8755000D01*
X14440000Y-9830000D02*
X14470000Y-9860000D01*
X14470000Y-9830000D02*
X14440000Y-9860000D01*
X14520000Y-9905000D02*
X14550000Y-9935000D01*
X14550000Y-9905000D02*
X14520000Y-9935000D01*
X14605000Y-9830000D02*
X14635000Y-9860000D01*
X14635000Y-9830000D02*
X14605000Y-9860000D01*
X14690000Y-9905000D02*
X14720000Y-9935000D01*
X14720000Y-9905000D02*
X14690000Y-9935000D01*
X14725000Y-9725000D02*
X14755000Y-9755000D01*
X14755000Y-9725000D02*
X14725000Y-9755000D01*
X13410000Y-9590000D02*
G75*
G02*
X13330000Y-9590000I-40000J0D01*
G01*
X13330000Y-9590000D02*
G75*
G02*
X13410000Y-9590000I40000J0D01*
G01*
X13610000Y-9590000D02*
G75*
G02*
X13530000Y-9590000I-40000J0D01*
G01*
X13530000Y-9590000D02*
G75*
G02*
X13610000Y-9590000I40000J0D01*
G01*
X12146000Y-7646000D02*
X12146000Y-7746000D01*
X12096000Y-7696000D02*
X12196000Y-7696000D01*
X12146000Y-7900000D02*
X12146000Y-8000000D01*
X12096000Y-7950000D02*
X12196000Y-7950000D01*
X12146000Y-8154000D02*
X12146000Y-8254000D01*
X12096000Y-8204000D02*
X12196000Y-8204000D01*
X12150000Y-9800000D02*
X12150000Y-9900000D01*
X12100000Y-9850000D02*
X12200000Y-9850000D01*
X12400000Y-7646000D02*
X12400000Y-7746000D01*
X12350000Y-7696000D02*
X12450000Y-7696000D01*
X12400000Y-7900000D02*
X12400000Y-8000000D01*
X12350000Y-7950000D02*
X12450000Y-7950000D01*
X12400000Y-8154000D02*
X12400000Y-8254000D01*
X12350000Y-8204000D02*
X12450000Y-8204000D01*
X13250000Y-9800000D02*
X13250000Y-9900000D01*
X13200000Y-9850000D02*
X13300000Y-9850000D01*
X13700000Y-9800000D02*
X13700000Y-9900000D01*
X13650000Y-9850000D02*
X13750000Y-9850000D01*
X14800000Y-7650000D02*
X14800000Y-7750000D01*
X14750000Y-7700000D02*
X14850000Y-7700000D01*
X14800000Y-8750000D02*
X14800000Y-8850000D01*
X14750000Y-8800000D02*
X14850000Y-8800000D01*
X14800000Y-9800000D02*
X14800000Y-9900000D01*
X14750000Y-9850000D02*
X14850000Y-9850000D01*
D13*
X12517176Y-9417176D02*
X12517176Y-9282824D01*
X12382824Y-9282824D01*
X12382824Y-9417176D01*
X12517176Y-9417176D01*
X13017176Y-9417176D02*
X13017176Y-9282824D01*
X12882824Y-9282824D01*
X12882824Y-9417176D01*
X13017176Y-9417176D01*
X13867176Y-8067176D02*
X13867176Y-7932824D01*
X13732824Y-7932824D01*
X13732824Y-8067176D01*
X13867176Y-8067176D01*
X13867176Y-8567176D02*
X13867176Y-8432824D01*
X13732824Y-8432824D01*
X13732824Y-8567176D01*
X13867176Y-8567176D01*
X14067176Y-9417176D02*
X14067176Y-9282824D01*
X13932824Y-9282824D01*
X13932824Y-9417176D01*
X14067176Y-9417176D01*
X14567176Y-9417176D02*
X14567176Y-9282824D01*
X14432824Y-9282824D01*
X14432824Y-9417176D01*
X14567176Y-9417176D01*
D11*
X12258277Y-10313984D02*
X12258277Y-10113984D01*
X12258277Y-10113984D02*
X12305896Y-10113984D01*
X12305896Y-10113984D02*
X12334467Y-10123508D01*
X12334467Y-10123508D02*
X12353515Y-10142555D01*
X12353515Y-10142555D02*
X12363039Y-10161603D01*
X12363039Y-10161603D02*
X12372562Y-10199698D01*
X12372562Y-10199698D02*
X12372562Y-10228270D01*
X12372562Y-10228270D02*
X12363039Y-10266365D01*
X12363039Y-10266365D02*
X12353515Y-10285412D01*
X12353515Y-10285412D02*
X12334467Y-10304460D01*
X12334467Y-10304460D02*
X12305896Y-10313984D01*
X12305896Y-10313984D02*
X12258277Y-10313984D01*
X12458277Y-10313984D02*
X12458277Y-10180650D01*
X12458277Y-10218746D02*
X12467801Y-10199698D01*
X12467801Y-10199698D02*
X12477324Y-10190174D01*
X12477324Y-10190174D02*
X12496372Y-10180650D01*
X12496372Y-10180650D02*
X12515420Y-10180650D01*
X12582086Y-10313984D02*
X12582086Y-10180650D01*
X12582086Y-10113984D02*
X12572562Y-10123508D01*
X12572562Y-10123508D02*
X12582086Y-10133031D01*
X12582086Y-10133031D02*
X12591610Y-10123508D01*
X12591610Y-10123508D02*
X12582086Y-10113984D01*
X12582086Y-10113984D02*
X12582086Y-10133031D01*
X12705896Y-10313984D02*
X12686848Y-10304460D01*
X12686848Y-10304460D02*
X12677324Y-10285412D01*
X12677324Y-10285412D02*
X12677324Y-10113984D01*
X12810658Y-10313984D02*
X12791610Y-10304460D01*
X12791610Y-10304460D02*
X12782086Y-10285412D01*
X12782086Y-10285412D02*
X12782086Y-10113984D01*
X13039229Y-10313984D02*
X13039229Y-10113984D01*
X13039229Y-10113984D02*
X13105896Y-10256841D01*
X13105896Y-10256841D02*
X13172562Y-10113984D01*
X13172562Y-10113984D02*
X13172562Y-10313984D01*
X13353515Y-10313984D02*
X13353515Y-10209222D01*
X13353515Y-10209222D02*
X13343991Y-10190174D01*
X13343991Y-10190174D02*
X13324943Y-10180650D01*
X13324943Y-10180650D02*
X13286848Y-10180650D01*
X13286848Y-10180650D02*
X13267801Y-10190174D01*
X13353515Y-10304460D02*
X13334467Y-10313984D01*
X13334467Y-10313984D02*
X13286848Y-10313984D01*
X13286848Y-10313984D02*
X13267801Y-10304460D01*
X13267801Y-10304460D02*
X13258277Y-10285412D01*
X13258277Y-10285412D02*
X13258277Y-10266365D01*
X13258277Y-10266365D02*
X13267801Y-10247317D01*
X13267801Y-10247317D02*
X13286848Y-10237793D01*
X13286848Y-10237793D02*
X13334467Y-10237793D01*
X13334467Y-10237793D02*
X13353515Y-10228270D01*
X13448753Y-10180650D02*
X13448753Y-10380650D01*
X13448753Y-10190174D02*
X13467801Y-10180650D01*
X13467801Y-10180650D02*
X13505896Y-10180650D01*
X13505896Y-10180650D02*
X13524943Y-10190174D01*
X13524943Y-10190174D02*
X13534467Y-10199698D01*
X13534467Y-10199698D02*
X13543991Y-10218746D01*
X13543991Y-10218746D02*
X13543991Y-10275889D01*
X13543991Y-10275889D02*
X13534467Y-10294936D01*
X13534467Y-10294936D02*
X13524943Y-10304460D01*
X13524943Y-10304460D02*
X13505896Y-10313984D01*
X13505896Y-10313984D02*
X13467801Y-10313984D01*
X13467801Y-10313984D02*
X13448753Y-10304460D01*
X13629705Y-10294936D02*
X13639229Y-10304460D01*
X13639229Y-10304460D02*
X13629705Y-10313984D01*
X13629705Y-10313984D02*
X13620182Y-10304460D01*
X13620182Y-10304460D02*
X13629705Y-10294936D01*
X13629705Y-10294936D02*
X13629705Y-10313984D01*
X13629705Y-10190174D02*
X13639229Y-10199698D01*
X13639229Y-10199698D02*
X13629705Y-10209222D01*
X13629705Y-10209222D02*
X13620182Y-10199698D01*
X13620182Y-10199698D02*
X13629705Y-10190174D01*
X13629705Y-10190174D02*
X13629705Y-10209222D01*
D12*
X11967500Y-10627500D02*
X11997500Y-10657500D01*
X11997500Y-10627500D02*
X11967500Y-10657500D01*
D11*
X12296372Y-10533984D02*
X12315420Y-10533984D01*
X12315420Y-10533984D02*
X12334467Y-10543508D01*
X12334467Y-10543508D02*
X12343991Y-10553031D01*
X12343991Y-10553031D02*
X12353515Y-10572079D01*
X12353515Y-10572079D02*
X12363039Y-10610174D01*
X12363039Y-10610174D02*
X12363039Y-10657793D01*
X12363039Y-10657793D02*
X12353515Y-10695889D01*
X12353515Y-10695889D02*
X12343991Y-10714936D01*
X12343991Y-10714936D02*
X12334467Y-10724460D01*
X12334467Y-10724460D02*
X12315420Y-10733984D01*
X12315420Y-10733984D02*
X12296372Y-10733984D01*
X12296372Y-10733984D02*
X12277324Y-10724460D01*
X12277324Y-10724460D02*
X12267801Y-10714936D01*
X12267801Y-10714936D02*
X12258277Y-10695889D01*
X12258277Y-10695889D02*
X12248753Y-10657793D01*
X12248753Y-10657793D02*
X12248753Y-10610174D01*
X12248753Y-10610174D02*
X12258277Y-10572079D01*
X12258277Y-10572079D02*
X12267801Y-10553031D01*
X12267801Y-10553031D02*
X12277324Y-10543508D01*
X12277324Y-10543508D02*
X12296372Y-10533984D01*
X12448753Y-10714936D02*
X12458277Y-10724460D01*
X12458277Y-10724460D02*
X12448753Y-10733984D01*
X12448753Y-10733984D02*
X12439229Y-10724460D01*
X12439229Y-10724460D02*
X12448753Y-10714936D01*
X12448753Y-10714936D02*
X12448753Y-10733984D01*
X12524943Y-10533984D02*
X12648753Y-10533984D01*
X12648753Y-10533984D02*
X12582086Y-10610174D01*
X12582086Y-10610174D02*
X12610658Y-10610174D01*
X12610658Y-10610174D02*
X12629705Y-10619698D01*
X12629705Y-10619698D02*
X12639229Y-10629222D01*
X12639229Y-10629222D02*
X12648753Y-10648270D01*
X12648753Y-10648270D02*
X12648753Y-10695889D01*
X12648753Y-10695889D02*
X12639229Y-10714936D01*
X12639229Y-10714936D02*
X12629705Y-10724460D01*
X12629705Y-10724460D02*
X12610658Y-10733984D01*
X12610658Y-10733984D02*
X12553515Y-10733984D01*
X12553515Y-10733984D02*
X12534467Y-10724460D01*
X12534467Y-10724460D02*
X12524943Y-10714936D01*
X12772562Y-10533984D02*
X12791610Y-10533984D01*
X12791610Y-10533984D02*
X12810658Y-10543508D01*
X12810658Y-10543508D02*
X12820182Y-10553031D01*
X12820182Y-10553031D02*
X12829705Y-10572079D01*
X12829705Y-10572079D02*
X12839229Y-10610174D01*
X12839229Y-10610174D02*
X12839229Y-10657793D01*
X12839229Y-10657793D02*
X12829705Y-10695889D01*
X12829705Y-10695889D02*
X12820182Y-10714936D01*
X12820182Y-10714936D02*
X12810658Y-10724460D01*
X12810658Y-10724460D02*
X12791610Y-10733984D01*
X12791610Y-10733984D02*
X12772562Y-10733984D01*
X12772562Y-10733984D02*
X12753515Y-10724460D01*
X12753515Y-10724460D02*
X12743991Y-10714936D01*
X12743991Y-10714936D02*
X12734467Y-10695889D01*
X12734467Y-10695889D02*
X12724943Y-10657793D01*
X12724943Y-10657793D02*
X12724943Y-10610174D01*
X12724943Y-10610174D02*
X12734467Y-10572079D01*
X12734467Y-10572079D02*
X12743991Y-10553031D01*
X12743991Y-10553031D02*
X12753515Y-10543508D01*
X12753515Y-10543508D02*
X12772562Y-10533984D01*
X12963039Y-10533984D02*
X12982086Y-10533984D01*
X12982086Y-10533984D02*
X13001134Y-10543508D01*
X13001134Y-10543508D02*
X13010658Y-10553031D01*
X13010658Y-10553031D02*
X13020182Y-10572079D01*
X13020182Y-10572079D02*
X13029705Y-10610174D01*
X13029705Y-10610174D02*
X13029705Y-10657793D01*
X13029705Y-10657793D02*
X13020182Y-10695889D01*
X13020182Y-10695889D02*
X13010658Y-10714936D01*
X13010658Y-10714936D02*
X13001134Y-10724460D01*
X13001134Y-10724460D02*
X12982086Y-10733984D01*
X12982086Y-10733984D02*
X12963039Y-10733984D01*
X12963039Y-10733984D02*
X12943991Y-10724460D01*
X12943991Y-10724460D02*
X12934467Y-10714936D01*
X12934467Y-10714936D02*
X12924943Y-10695889D01*
X12924943Y-10695889D02*
X12915420Y-10657793D01*
X12915420Y-10657793D02*
X12915420Y-10610174D01*
X12915420Y-10610174D02*
X12924943Y-10572079D01*
X12924943Y-10572079D02*
X12934467Y-10553031D01*
X12934467Y-10553031D02*
X12943991Y-10543508D01*
X12943991Y-10543508D02*
X12963039Y-10533984D01*
X13115420Y-10733984D02*
X13115420Y-10600650D01*
X13115420Y-10619698D02*
X13124943Y-10610174D01*
X13124943Y-10610174D02*
X13143991Y-10600650D01*
X13143991Y-10600650D02*
X13172563Y-10600650D01*
X13172563Y-10600650D02*
X13191610Y-10610174D01*
X13191610Y-10610174D02*
X13201134Y-10629222D01*
X13201134Y-10629222D02*
X13201134Y-10733984D01*
X13201134Y-10629222D02*
X13210658Y-10610174D01*
X13210658Y-10610174D02*
X13229705Y-10600650D01*
X13229705Y-10600650D02*
X13258277Y-10600650D01*
X13258277Y-10600650D02*
X13277324Y-10610174D01*
X13277324Y-10610174D02*
X13286848Y-10629222D01*
X13286848Y-10629222D02*
X13286848Y-10733984D01*
X13382086Y-10733984D02*
X13382086Y-10600650D01*
X13382086Y-10619698D02*
X13391610Y-10610174D01*
X13391610Y-10610174D02*
X13410658Y-10600650D01*
X13410658Y-10600650D02*
X13439229Y-10600650D01*
X13439229Y-10600650D02*
X13458277Y-10610174D01*
X13458277Y-10610174D02*
X13467801Y-10629222D01*
X13467801Y-10629222D02*
X13467801Y-10733984D01*
X13467801Y-10629222D02*
X13477324Y-10610174D01*
X13477324Y-10610174D02*
X13496372Y-10600650D01*
X13496372Y-10600650D02*
X13524943Y-10600650D01*
X13524943Y-10600650D02*
X13543991Y-10610174D01*
X13543991Y-10610174D02*
X13553515Y-10629222D01*
X13553515Y-10629222D02*
X13553515Y-10733984D01*
X13943991Y-10524460D02*
X13772563Y-10781603D01*
X14201134Y-10533984D02*
X14220182Y-10533984D01*
X14220182Y-10533984D02*
X14239229Y-10543508D01*
X14239229Y-10543508D02*
X14248753Y-10553031D01*
X14248753Y-10553031D02*
X14258277Y-10572079D01*
X14258277Y-10572079D02*
X14267801Y-10610174D01*
X14267801Y-10610174D02*
X14267801Y-10657793D01*
X14267801Y-10657793D02*
X14258277Y-10695889D01*
X14258277Y-10695889D02*
X14248753Y-10714936D01*
X14248753Y-10714936D02*
X14239229Y-10724460D01*
X14239229Y-10724460D02*
X14220182Y-10733984D01*
X14220182Y-10733984D02*
X14201134Y-10733984D01*
X14201134Y-10733984D02*
X14182086Y-10724460D01*
X14182086Y-10724460D02*
X14172563Y-10714936D01*
X14172563Y-10714936D02*
X14163039Y-10695889D01*
X14163039Y-10695889D02*
X14153515Y-10657793D01*
X14153515Y-10657793D02*
X14153515Y-10610174D01*
X14153515Y-10610174D02*
X14163039Y-10572079D01*
X14163039Y-10572079D02*
X14172563Y-10553031D01*
X14172563Y-10553031D02*
X14182086Y-10543508D01*
X14182086Y-10543508D02*
X14201134Y-10533984D01*
X14353515Y-10714936D02*
X14363039Y-10724460D01*
X14363039Y-10724460D02*
X14353515Y-10733984D01*
X14353515Y-10733984D02*
X14343991Y-10724460D01*
X14343991Y-10724460D02*
X14353515Y-10714936D01*
X14353515Y-10714936D02*
X14353515Y-10733984D01*
X14486848Y-10533984D02*
X14505896Y-10533984D01*
X14505896Y-10533984D02*
X14524944Y-10543508D01*
X14524944Y-10543508D02*
X14534467Y-10553031D01*
X14534467Y-10553031D02*
X14543991Y-10572079D01*
X14543991Y-10572079D02*
X14553515Y-10610174D01*
X14553515Y-10610174D02*
X14553515Y-10657793D01*
X14553515Y-10657793D02*
X14543991Y-10695889D01*
X14543991Y-10695889D02*
X14534467Y-10714936D01*
X14534467Y-10714936D02*
X14524944Y-10724460D01*
X14524944Y-10724460D02*
X14505896Y-10733984D01*
X14505896Y-10733984D02*
X14486848Y-10733984D01*
X14486848Y-10733984D02*
X14467801Y-10724460D01*
X14467801Y-10724460D02*
X14458277Y-10714936D01*
X14458277Y-10714936D02*
X14448753Y-10695889D01*
X14448753Y-10695889D02*
X14439229Y-10657793D01*
X14439229Y-10657793D02*
X14439229Y-10610174D01*
X14439229Y-10610174D02*
X14448753Y-10572079D01*
X14448753Y-10572079D02*
X14458277Y-10553031D01*
X14458277Y-10553031D02*
X14467801Y-10543508D01*
X14467801Y-10543508D02*
X14486848Y-10533984D01*
X14743991Y-10733984D02*
X14629706Y-10733984D01*
X14686848Y-10733984D02*
X14686848Y-10533984D01*
X14686848Y-10533984D02*
X14667801Y-10562555D01*
X14667801Y-10562555D02*
X14648753Y-10581603D01*
X14648753Y-10581603D02*
X14629706Y-10591127D01*
X14934467Y-10733984D02*
X14820182Y-10733984D01*
X14877325Y-10733984D02*
X14877325Y-10533984D01*
X14877325Y-10533984D02*
X14858277Y-10562555D01*
X14858277Y-10562555D02*
X14839229Y-10581603D01*
X14839229Y-10581603D02*
X14820182Y-10591127D01*
X15048753Y-10619698D02*
X15029706Y-10610174D01*
X15029706Y-10610174D02*
X15020182Y-10600650D01*
X15020182Y-10600650D02*
X15010658Y-10581603D01*
X15010658Y-10581603D02*
X15010658Y-10572079D01*
X15010658Y-10572079D02*
X15020182Y-10553031D01*
X15020182Y-10553031D02*
X15029706Y-10543508D01*
X15029706Y-10543508D02*
X15048753Y-10533984D01*
X15048753Y-10533984D02*
X15086848Y-10533984D01*
X15086848Y-10533984D02*
X15105896Y-10543508D01*
X15105896Y-10543508D02*
X15115420Y-10553031D01*
X15115420Y-10553031D02*
X15124944Y-10572079D01*
X15124944Y-10572079D02*
X15124944Y-10581603D01*
X15124944Y-10581603D02*
X15115420Y-10600650D01*
X15115420Y-10600650D02*
X15105896Y-10610174D01*
X15105896Y-10610174D02*
X15086848Y-10619698D01*
X15086848Y-10619698D02*
X15048753Y-10619698D01*
X15048753Y-10619698D02*
X15029706Y-10629222D01*
X15029706Y-10629222D02*
X15020182Y-10638746D01*
X15020182Y-10638746D02*
X15010658Y-10657793D01*
X15010658Y-10657793D02*
X15010658Y-10695889D01*
X15010658Y-10695889D02*
X15020182Y-10714936D01*
X15020182Y-10714936D02*
X15029706Y-10724460D01*
X15029706Y-10724460D02*
X15048753Y-10733984D01*
X15048753Y-10733984D02*
X15086848Y-10733984D01*
X15086848Y-10733984D02*
X15105896Y-10724460D01*
X15105896Y-10724460D02*
X15115420Y-10714936D01*
X15115420Y-10714936D02*
X15124944Y-10695889D01*
X15124944Y-10695889D02*
X15124944Y-10657793D01*
X15124944Y-10657793D02*
X15115420Y-10638746D01*
X15115420Y-10638746D02*
X15105896Y-10629222D01*
X15105896Y-10629222D02*
X15086848Y-10619698D01*
X15201134Y-10533984D02*
X15201134Y-10572079D01*
X15277325Y-10533984D02*
X15277325Y-10572079D01*
X15572563Y-10810174D02*
X15563039Y-10800650D01*
X15563039Y-10800650D02*
X15543991Y-10772079D01*
X15543991Y-10772079D02*
X15534468Y-10753031D01*
X15534468Y-10753031D02*
X15524944Y-10724460D01*
X15524944Y-10724460D02*
X15515420Y-10676841D01*
X15515420Y-10676841D02*
X15515420Y-10638746D01*
X15515420Y-10638746D02*
X15524944Y-10591127D01*
X15524944Y-10591127D02*
X15534468Y-10562555D01*
X15534468Y-10562555D02*
X15543991Y-10543508D01*
X15543991Y-10543508D02*
X15563039Y-10514936D01*
X15563039Y-10514936D02*
X15572563Y-10505412D01*
X15734468Y-10533984D02*
X15696372Y-10533984D01*
X15696372Y-10533984D02*
X15677325Y-10543508D01*
X15677325Y-10543508D02*
X15667801Y-10553031D01*
X15667801Y-10553031D02*
X15648753Y-10581603D01*
X15648753Y-10581603D02*
X15639229Y-10619698D01*
X15639229Y-10619698D02*
X15639229Y-10695889D01*
X15639229Y-10695889D02*
X15648753Y-10714936D01*
X15648753Y-10714936D02*
X15658277Y-10724460D01*
X15658277Y-10724460D02*
X15677325Y-10733984D01*
X15677325Y-10733984D02*
X15715420Y-10733984D01*
X15715420Y-10733984D02*
X15734468Y-10724460D01*
X15734468Y-10724460D02*
X15743991Y-10714936D01*
X15743991Y-10714936D02*
X15753515Y-10695889D01*
X15753515Y-10695889D02*
X15753515Y-10648270D01*
X15753515Y-10648270D02*
X15743991Y-10629222D01*
X15743991Y-10629222D02*
X15734468Y-10619698D01*
X15734468Y-10619698D02*
X15715420Y-10610174D01*
X15715420Y-10610174D02*
X15677325Y-10610174D01*
X15677325Y-10610174D02*
X15658277Y-10619698D01*
X15658277Y-10619698D02*
X15648753Y-10629222D01*
X15648753Y-10629222D02*
X15639229Y-10648270D01*
X15877325Y-10533984D02*
X15896372Y-10533984D01*
X15896372Y-10533984D02*
X15915420Y-10543508D01*
X15915420Y-10543508D02*
X15924944Y-10553031D01*
X15924944Y-10553031D02*
X15934468Y-10572079D01*
X15934468Y-10572079D02*
X15943991Y-10610174D01*
X15943991Y-10610174D02*
X15943991Y-10657793D01*
X15943991Y-10657793D02*
X15934468Y-10695889D01*
X15934468Y-10695889D02*
X15924944Y-10714936D01*
X15924944Y-10714936D02*
X15915420Y-10724460D01*
X15915420Y-10724460D02*
X15896372Y-10733984D01*
X15896372Y-10733984D02*
X15877325Y-10733984D01*
X15877325Y-10733984D02*
X15858277Y-10724460D01*
X15858277Y-10724460D02*
X15848753Y-10714936D01*
X15848753Y-10714936D02*
X15839229Y-10695889D01*
X15839229Y-10695889D02*
X15829706Y-10657793D01*
X15829706Y-10657793D02*
X15829706Y-10610174D01*
X15829706Y-10610174D02*
X15839229Y-10572079D01*
X15839229Y-10572079D02*
X15848753Y-10553031D01*
X15848753Y-10553031D02*
X15858277Y-10543508D01*
X15858277Y-10543508D02*
X15877325Y-10533984D01*
X16182087Y-10733984D02*
X16182087Y-10533984D01*
X16267801Y-10733984D02*
X16267801Y-10629222D01*
X16267801Y-10629222D02*
X16258277Y-10610174D01*
X16258277Y-10610174D02*
X16239230Y-10600650D01*
X16239230Y-10600650D02*
X16210658Y-10600650D01*
X16210658Y-10600650D02*
X16191610Y-10610174D01*
X16191610Y-10610174D02*
X16182087Y-10619698D01*
X16391610Y-10733984D02*
X16372563Y-10724460D01*
X16372563Y-10724460D02*
X16363039Y-10714936D01*
X16363039Y-10714936D02*
X16353515Y-10695889D01*
X16353515Y-10695889D02*
X16353515Y-10638746D01*
X16353515Y-10638746D02*
X16363039Y-10619698D01*
X16363039Y-10619698D02*
X16372563Y-10610174D01*
X16372563Y-10610174D02*
X16391610Y-10600650D01*
X16391610Y-10600650D02*
X16420182Y-10600650D01*
X16420182Y-10600650D02*
X16439230Y-10610174D01*
X16439230Y-10610174D02*
X16448753Y-10619698D01*
X16448753Y-10619698D02*
X16458277Y-10638746D01*
X16458277Y-10638746D02*
X16458277Y-10695889D01*
X16458277Y-10695889D02*
X16448753Y-10714936D01*
X16448753Y-10714936D02*
X16439230Y-10724460D01*
X16439230Y-10724460D02*
X16420182Y-10733984D01*
X16420182Y-10733984D02*
X16391610Y-10733984D01*
X16572563Y-10733984D02*
X16553515Y-10724460D01*
X16553515Y-10724460D02*
X16543991Y-10705412D01*
X16543991Y-10705412D02*
X16543991Y-10533984D01*
X16724944Y-10724460D02*
X16705896Y-10733984D01*
X16705896Y-10733984D02*
X16667801Y-10733984D01*
X16667801Y-10733984D02*
X16648753Y-10724460D01*
X16648753Y-10724460D02*
X16639230Y-10705412D01*
X16639230Y-10705412D02*
X16639230Y-10629222D01*
X16639230Y-10629222D02*
X16648753Y-10610174D01*
X16648753Y-10610174D02*
X16667801Y-10600650D01*
X16667801Y-10600650D02*
X16705896Y-10600650D01*
X16705896Y-10600650D02*
X16724944Y-10610174D01*
X16724944Y-10610174D02*
X16734468Y-10629222D01*
X16734468Y-10629222D02*
X16734468Y-10648270D01*
X16734468Y-10648270D02*
X16639230Y-10667317D01*
X16810658Y-10724460D02*
X16829706Y-10733984D01*
X16829706Y-10733984D02*
X16867801Y-10733984D01*
X16867801Y-10733984D02*
X16886849Y-10724460D01*
X16886849Y-10724460D02*
X16896373Y-10705412D01*
X16896373Y-10705412D02*
X16896373Y-10695889D01*
X16896373Y-10695889D02*
X16886849Y-10676841D01*
X16886849Y-10676841D02*
X16867801Y-10667317D01*
X16867801Y-10667317D02*
X16839230Y-10667317D01*
X16839230Y-10667317D02*
X16820182Y-10657793D01*
X16820182Y-10657793D02*
X16810658Y-10638746D01*
X16810658Y-10638746D02*
X16810658Y-10629222D01*
X16810658Y-10629222D02*
X16820182Y-10610174D01*
X16820182Y-10610174D02*
X16839230Y-10600650D01*
X16839230Y-10600650D02*
X16867801Y-10600650D01*
X16867801Y-10600650D02*
X16886849Y-10610174D01*
X16963039Y-10810174D02*
X16972563Y-10800650D01*
X16972563Y-10800650D02*
X16991611Y-10772079D01*
X16991611Y-10772079D02*
X17001134Y-10753031D01*
X17001134Y-10753031D02*
X17010658Y-10724460D01*
X17010658Y-10724460D02*
X17020182Y-10676841D01*
X17020182Y-10676841D02*
X17020182Y-10638746D01*
X17020182Y-10638746D02*
X17010658Y-10591127D01*
X17010658Y-10591127D02*
X17001134Y-10562555D01*
X17001134Y-10562555D02*
X16991611Y-10543508D01*
X16991611Y-10543508D02*
X16972563Y-10514936D01*
X16972563Y-10514936D02*
X16963039Y-10505412D01*
D12*
X11997500Y-10906500D02*
G75*
G02*
X11917500Y-10906500I-40000J0D01*
G01*
X11917500Y-10906500D02*
G75*
G02*
X11997500Y-10906500I40000J0D01*
G01*
D11*
X12296372Y-10797984D02*
X12315420Y-10797984D01*
X12315420Y-10797984D02*
X12334467Y-10807508D01*
X12334467Y-10807508D02*
X12343991Y-10817031D01*
X12343991Y-10817031D02*
X12353515Y-10836079D01*
X12353515Y-10836079D02*
X12363039Y-10874174D01*
X12363039Y-10874174D02*
X12363039Y-10921793D01*
X12363039Y-10921793D02*
X12353515Y-10959889D01*
X12353515Y-10959889D02*
X12343991Y-10978936D01*
X12343991Y-10978936D02*
X12334467Y-10988460D01*
X12334467Y-10988460D02*
X12315420Y-10997984D01*
X12315420Y-10997984D02*
X12296372Y-10997984D01*
X12296372Y-10997984D02*
X12277324Y-10988460D01*
X12277324Y-10988460D02*
X12267801Y-10978936D01*
X12267801Y-10978936D02*
X12258277Y-10959889D01*
X12258277Y-10959889D02*
X12248753Y-10921793D01*
X12248753Y-10921793D02*
X12248753Y-10874174D01*
X12248753Y-10874174D02*
X12258277Y-10836079D01*
X12258277Y-10836079D02*
X12267801Y-10817031D01*
X12267801Y-10817031D02*
X12277324Y-10807508D01*
X12277324Y-10807508D02*
X12296372Y-10797984D01*
X12448753Y-10978936D02*
X12458277Y-10988460D01*
X12458277Y-10988460D02*
X12448753Y-10997984D01*
X12448753Y-10997984D02*
X12439229Y-10988460D01*
X12439229Y-10988460D02*
X12448753Y-10978936D01*
X12448753Y-10978936D02*
X12448753Y-10997984D01*
X12572562Y-10883698D02*
X12553515Y-10874174D01*
X12553515Y-10874174D02*
X12543991Y-10864650D01*
X12543991Y-10864650D02*
X12534467Y-10845603D01*
X12534467Y-10845603D02*
X12534467Y-10836079D01*
X12534467Y-10836079D02*
X12543991Y-10817031D01*
X12543991Y-10817031D02*
X12553515Y-10807508D01*
X12553515Y-10807508D02*
X12572562Y-10797984D01*
X12572562Y-10797984D02*
X12610658Y-10797984D01*
X12610658Y-10797984D02*
X12629705Y-10807508D01*
X12629705Y-10807508D02*
X12639229Y-10817031D01*
X12639229Y-10817031D02*
X12648753Y-10836079D01*
X12648753Y-10836079D02*
X12648753Y-10845603D01*
X12648753Y-10845603D02*
X12639229Y-10864650D01*
X12639229Y-10864650D02*
X12629705Y-10874174D01*
X12629705Y-10874174D02*
X12610658Y-10883698D01*
X12610658Y-10883698D02*
X12572562Y-10883698D01*
X12572562Y-10883698D02*
X12553515Y-10893222D01*
X12553515Y-10893222D02*
X12543991Y-10902746D01*
X12543991Y-10902746D02*
X12534467Y-10921793D01*
X12534467Y-10921793D02*
X12534467Y-10959889D01*
X12534467Y-10959889D02*
X12543991Y-10978936D01*
X12543991Y-10978936D02*
X12553515Y-10988460D01*
X12553515Y-10988460D02*
X12572562Y-10997984D01*
X12572562Y-10997984D02*
X12610658Y-10997984D01*
X12610658Y-10997984D02*
X12629705Y-10988460D01*
X12629705Y-10988460D02*
X12639229Y-10978936D01*
X12639229Y-10978936D02*
X12648753Y-10959889D01*
X12648753Y-10959889D02*
X12648753Y-10921793D01*
X12648753Y-10921793D02*
X12639229Y-10902746D01*
X12639229Y-10902746D02*
X12629705Y-10893222D01*
X12629705Y-10893222D02*
X12610658Y-10883698D01*
X12772562Y-10797984D02*
X12791610Y-10797984D01*
X12791610Y-10797984D02*
X12810658Y-10807508D01*
X12810658Y-10807508D02*
X12820182Y-10817031D01*
X12820182Y-10817031D02*
X12829705Y-10836079D01*
X12829705Y-10836079D02*
X12839229Y-10874174D01*
X12839229Y-10874174D02*
X12839229Y-10921793D01*
X12839229Y-10921793D02*
X12829705Y-10959889D01*
X12829705Y-10959889D02*
X12820182Y-10978936D01*
X12820182Y-10978936D02*
X12810658Y-10988460D01*
X12810658Y-10988460D02*
X12791610Y-10997984D01*
X12791610Y-10997984D02*
X12772562Y-10997984D01*
X12772562Y-10997984D02*
X12753515Y-10988460D01*
X12753515Y-10988460D02*
X12743991Y-10978936D01*
X12743991Y-10978936D02*
X12734467Y-10959889D01*
X12734467Y-10959889D02*
X12724943Y-10921793D01*
X12724943Y-10921793D02*
X12724943Y-10874174D01*
X12724943Y-10874174D02*
X12734467Y-10836079D01*
X12734467Y-10836079D02*
X12743991Y-10817031D01*
X12743991Y-10817031D02*
X12753515Y-10807508D01*
X12753515Y-10807508D02*
X12772562Y-10797984D01*
X12963039Y-10797984D02*
X12982086Y-10797984D01*
X12982086Y-10797984D02*
X13001134Y-10807508D01*
X13001134Y-10807508D02*
X13010658Y-10817031D01*
X13010658Y-10817031D02*
X13020182Y-10836079D01*
X13020182Y-10836079D02*
X13029705Y-10874174D01*
X13029705Y-10874174D02*
X13029705Y-10921793D01*
X13029705Y-10921793D02*
X13020182Y-10959889D01*
X13020182Y-10959889D02*
X13010658Y-10978936D01*
X13010658Y-10978936D02*
X13001134Y-10988460D01*
X13001134Y-10988460D02*
X12982086Y-10997984D01*
X12982086Y-10997984D02*
X12963039Y-10997984D01*
X12963039Y-10997984D02*
X12943991Y-10988460D01*
X12943991Y-10988460D02*
X12934467Y-10978936D01*
X12934467Y-10978936D02*
X12924943Y-10959889D01*
X12924943Y-10959889D02*
X12915420Y-10921793D01*
X12915420Y-10921793D02*
X12915420Y-10874174D01*
X12915420Y-10874174D02*
X12924943Y-10836079D01*
X12924943Y-10836079D02*
X12934467Y-10817031D01*
X12934467Y-10817031D02*
X12943991Y-10807508D01*
X12943991Y-10807508D02*
X12963039Y-10797984D01*
X13115420Y-10997984D02*
X13115420Y-10864650D01*
X13115420Y-10883698D02*
X13124943Y-10874174D01*
X13124943Y-10874174D02*
X13143991Y-10864650D01*
X13143991Y-10864650D02*
X13172563Y-10864650D01*
X13172563Y-10864650D02*
X13191610Y-10874174D01*
X13191610Y-10874174D02*
X13201134Y-10893222D01*
X13201134Y-10893222D02*
X13201134Y-10997984D01*
X13201134Y-10893222D02*
X13210658Y-10874174D01*
X13210658Y-10874174D02*
X13229705Y-10864650D01*
X13229705Y-10864650D02*
X13258277Y-10864650D01*
X13258277Y-10864650D02*
X13277324Y-10874174D01*
X13277324Y-10874174D02*
X13286848Y-10893222D01*
X13286848Y-10893222D02*
X13286848Y-10997984D01*
X13382086Y-10997984D02*
X13382086Y-10864650D01*
X13382086Y-10883698D02*
X13391610Y-10874174D01*
X13391610Y-10874174D02*
X13410658Y-10864650D01*
X13410658Y-10864650D02*
X13439229Y-10864650D01*
X13439229Y-10864650D02*
X13458277Y-10874174D01*
X13458277Y-10874174D02*
X13467801Y-10893222D01*
X13467801Y-10893222D02*
X13467801Y-10997984D01*
X13467801Y-10893222D02*
X13477324Y-10874174D01*
X13477324Y-10874174D02*
X13496372Y-10864650D01*
X13496372Y-10864650D02*
X13524943Y-10864650D01*
X13524943Y-10864650D02*
X13543991Y-10874174D01*
X13543991Y-10874174D02*
X13553515Y-10893222D01*
X13553515Y-10893222D02*
X13553515Y-10997984D01*
X13943991Y-10788460D02*
X13772563Y-11045603D01*
X14201134Y-10797984D02*
X14220182Y-10797984D01*
X14220182Y-10797984D02*
X14239229Y-10807508D01*
X14239229Y-10807508D02*
X14248753Y-10817031D01*
X14248753Y-10817031D02*
X14258277Y-10836079D01*
X14258277Y-10836079D02*
X14267801Y-10874174D01*
X14267801Y-10874174D02*
X14267801Y-10921793D01*
X14267801Y-10921793D02*
X14258277Y-10959889D01*
X14258277Y-10959889D02*
X14248753Y-10978936D01*
X14248753Y-10978936D02*
X14239229Y-10988460D01*
X14239229Y-10988460D02*
X14220182Y-10997984D01*
X14220182Y-10997984D02*
X14201134Y-10997984D01*
X14201134Y-10997984D02*
X14182086Y-10988460D01*
X14182086Y-10988460D02*
X14172563Y-10978936D01*
X14172563Y-10978936D02*
X14163039Y-10959889D01*
X14163039Y-10959889D02*
X14153515Y-10921793D01*
X14153515Y-10921793D02*
X14153515Y-10874174D01*
X14153515Y-10874174D02*
X14163039Y-10836079D01*
X14163039Y-10836079D02*
X14172563Y-10817031D01*
X14172563Y-10817031D02*
X14182086Y-10807508D01*
X14182086Y-10807508D02*
X14201134Y-10797984D01*
X14353515Y-10978936D02*
X14363039Y-10988460D01*
X14363039Y-10988460D02*
X14353515Y-10997984D01*
X14353515Y-10997984D02*
X14343991Y-10988460D01*
X14343991Y-10988460D02*
X14353515Y-10978936D01*
X14353515Y-10978936D02*
X14353515Y-10997984D01*
X14486848Y-10797984D02*
X14505896Y-10797984D01*
X14505896Y-10797984D02*
X14524944Y-10807508D01*
X14524944Y-10807508D02*
X14534467Y-10817031D01*
X14534467Y-10817031D02*
X14543991Y-10836079D01*
X14543991Y-10836079D02*
X14553515Y-10874174D01*
X14553515Y-10874174D02*
X14553515Y-10921793D01*
X14553515Y-10921793D02*
X14543991Y-10959889D01*
X14543991Y-10959889D02*
X14534467Y-10978936D01*
X14534467Y-10978936D02*
X14524944Y-10988460D01*
X14524944Y-10988460D02*
X14505896Y-10997984D01*
X14505896Y-10997984D02*
X14486848Y-10997984D01*
X14486848Y-10997984D02*
X14467801Y-10988460D01*
X14467801Y-10988460D02*
X14458277Y-10978936D01*
X14458277Y-10978936D02*
X14448753Y-10959889D01*
X14448753Y-10959889D02*
X14439229Y-10921793D01*
X14439229Y-10921793D02*
X14439229Y-10874174D01*
X14439229Y-10874174D02*
X14448753Y-10836079D01*
X14448753Y-10836079D02*
X14458277Y-10817031D01*
X14458277Y-10817031D02*
X14467801Y-10807508D01*
X14467801Y-10807508D02*
X14486848Y-10797984D01*
X14620182Y-10797984D02*
X14743991Y-10797984D01*
X14743991Y-10797984D02*
X14677325Y-10874174D01*
X14677325Y-10874174D02*
X14705896Y-10874174D01*
X14705896Y-10874174D02*
X14724944Y-10883698D01*
X14724944Y-10883698D02*
X14734467Y-10893222D01*
X14734467Y-10893222D02*
X14743991Y-10912270D01*
X14743991Y-10912270D02*
X14743991Y-10959889D01*
X14743991Y-10959889D02*
X14734467Y-10978936D01*
X14734467Y-10978936D02*
X14724944Y-10988460D01*
X14724944Y-10988460D02*
X14705896Y-10997984D01*
X14705896Y-10997984D02*
X14648753Y-10997984D01*
X14648753Y-10997984D02*
X14629706Y-10988460D01*
X14629706Y-10988460D02*
X14620182Y-10978936D01*
X14934467Y-10997984D02*
X14820182Y-10997984D01*
X14877325Y-10997984D02*
X14877325Y-10797984D01*
X14877325Y-10797984D02*
X14858277Y-10826555D01*
X14858277Y-10826555D02*
X14839229Y-10845603D01*
X14839229Y-10845603D02*
X14820182Y-10855127D01*
X15115420Y-10797984D02*
X15020182Y-10797984D01*
X15020182Y-10797984D02*
X15010658Y-10893222D01*
X15010658Y-10893222D02*
X15020182Y-10883698D01*
X15020182Y-10883698D02*
X15039229Y-10874174D01*
X15039229Y-10874174D02*
X15086848Y-10874174D01*
X15086848Y-10874174D02*
X15105896Y-10883698D01*
X15105896Y-10883698D02*
X15115420Y-10893222D01*
X15115420Y-10893222D02*
X15124944Y-10912270D01*
X15124944Y-10912270D02*
X15124944Y-10959889D01*
X15124944Y-10959889D02*
X15115420Y-10978936D01*
X15115420Y-10978936D02*
X15105896Y-10988460D01*
X15105896Y-10988460D02*
X15086848Y-10997984D01*
X15086848Y-10997984D02*
X15039229Y-10997984D01*
X15039229Y-10997984D02*
X15020182Y-10988460D01*
X15020182Y-10988460D02*
X15010658Y-10978936D01*
X15201134Y-10797984D02*
X15201134Y-10836079D01*
X15277325Y-10797984D02*
X15277325Y-10836079D01*
X15572563Y-11074174D02*
X15563039Y-11064650D01*
X15563039Y-11064650D02*
X15543991Y-11036079D01*
X15543991Y-11036079D02*
X15534468Y-11017031D01*
X15534468Y-11017031D02*
X15524944Y-10988460D01*
X15524944Y-10988460D02*
X15515420Y-10940841D01*
X15515420Y-10940841D02*
X15515420Y-10902746D01*
X15515420Y-10902746D02*
X15524944Y-10855127D01*
X15524944Y-10855127D02*
X15534468Y-10826555D01*
X15534468Y-10826555D02*
X15543991Y-10807508D01*
X15543991Y-10807508D02*
X15563039Y-10778936D01*
X15563039Y-10778936D02*
X15572563Y-10769412D01*
X15639229Y-10817031D02*
X15648753Y-10807508D01*
X15648753Y-10807508D02*
X15667801Y-10797984D01*
X15667801Y-10797984D02*
X15715420Y-10797984D01*
X15715420Y-10797984D02*
X15734468Y-10807508D01*
X15734468Y-10807508D02*
X15743991Y-10817031D01*
X15743991Y-10817031D02*
X15753515Y-10836079D01*
X15753515Y-10836079D02*
X15753515Y-10855127D01*
X15753515Y-10855127D02*
X15743991Y-10883698D01*
X15743991Y-10883698D02*
X15629706Y-10997984D01*
X15629706Y-10997984D02*
X15753515Y-10997984D01*
X15991610Y-10997984D02*
X15991610Y-10797984D01*
X16077325Y-10997984D02*
X16077325Y-10893222D01*
X16077325Y-10893222D02*
X16067801Y-10874174D01*
X16067801Y-10874174D02*
X16048753Y-10864650D01*
X16048753Y-10864650D02*
X16020182Y-10864650D01*
X16020182Y-10864650D02*
X16001134Y-10874174D01*
X16001134Y-10874174D02*
X15991610Y-10883698D01*
X16201134Y-10997984D02*
X16182087Y-10988460D01*
X16182087Y-10988460D02*
X16172563Y-10978936D01*
X16172563Y-10978936D02*
X16163039Y-10959889D01*
X16163039Y-10959889D02*
X16163039Y-10902746D01*
X16163039Y-10902746D02*
X16172563Y-10883698D01*
X16172563Y-10883698D02*
X16182087Y-10874174D01*
X16182087Y-10874174D02*
X16201134Y-10864650D01*
X16201134Y-10864650D02*
X16229706Y-10864650D01*
X16229706Y-10864650D02*
X16248753Y-10874174D01*
X16248753Y-10874174D02*
X16258277Y-10883698D01*
X16258277Y-10883698D02*
X16267801Y-10902746D01*
X16267801Y-10902746D02*
X16267801Y-10959889D01*
X16267801Y-10959889D02*
X16258277Y-10978936D01*
X16258277Y-10978936D02*
X16248753Y-10988460D01*
X16248753Y-10988460D02*
X16229706Y-10997984D01*
X16229706Y-10997984D02*
X16201134Y-10997984D01*
X16382087Y-10997984D02*
X16363039Y-10988460D01*
X16363039Y-10988460D02*
X16353515Y-10969412D01*
X16353515Y-10969412D02*
X16353515Y-10797984D01*
X16534468Y-10988460D02*
X16515420Y-10997984D01*
X16515420Y-10997984D02*
X16477325Y-10997984D01*
X16477325Y-10997984D02*
X16458277Y-10988460D01*
X16458277Y-10988460D02*
X16448753Y-10969412D01*
X16448753Y-10969412D02*
X16448753Y-10893222D01*
X16448753Y-10893222D02*
X16458277Y-10874174D01*
X16458277Y-10874174D02*
X16477325Y-10864650D01*
X16477325Y-10864650D02*
X16515420Y-10864650D01*
X16515420Y-10864650D02*
X16534468Y-10874174D01*
X16534468Y-10874174D02*
X16543991Y-10893222D01*
X16543991Y-10893222D02*
X16543991Y-10912270D01*
X16543991Y-10912270D02*
X16448753Y-10931317D01*
X16620182Y-10988460D02*
X16639230Y-10997984D01*
X16639230Y-10997984D02*
X16677325Y-10997984D01*
X16677325Y-10997984D02*
X16696372Y-10988460D01*
X16696372Y-10988460D02*
X16705896Y-10969412D01*
X16705896Y-10969412D02*
X16705896Y-10959889D01*
X16705896Y-10959889D02*
X16696372Y-10940841D01*
X16696372Y-10940841D02*
X16677325Y-10931317D01*
X16677325Y-10931317D02*
X16648753Y-10931317D01*
X16648753Y-10931317D02*
X16629706Y-10921793D01*
X16629706Y-10921793D02*
X16620182Y-10902746D01*
X16620182Y-10902746D02*
X16620182Y-10893222D01*
X16620182Y-10893222D02*
X16629706Y-10874174D01*
X16629706Y-10874174D02*
X16648753Y-10864650D01*
X16648753Y-10864650D02*
X16677325Y-10864650D01*
X16677325Y-10864650D02*
X16696372Y-10874174D01*
X16772563Y-11074174D02*
X16782087Y-11064650D01*
X16782087Y-11064650D02*
X16801134Y-11036079D01*
X16801134Y-11036079D02*
X16810658Y-11017031D01*
X16810658Y-11017031D02*
X16820182Y-10988460D01*
X16820182Y-10988460D02*
X16829706Y-10940841D01*
X16829706Y-10940841D02*
X16829706Y-10902746D01*
X16829706Y-10902746D02*
X16820182Y-10855127D01*
X16820182Y-10855127D02*
X16810658Y-10826555D01*
X16810658Y-10826555D02*
X16801134Y-10807508D01*
X16801134Y-10807508D02*
X16782087Y-10778936D01*
X16782087Y-10778936D02*
X16772563Y-10769412D01*
D12*
X11947500Y-11120500D02*
X11947500Y-11220500D01*
X11897500Y-11170500D02*
X11997500Y-11170500D01*
D11*
X12363039Y-11261984D02*
X12248753Y-11261984D01*
X12305896Y-11261984D02*
X12305896Y-11061984D01*
X12305896Y-11061984D02*
X12286848Y-11090555D01*
X12286848Y-11090555D02*
X12267801Y-11109603D01*
X12267801Y-11109603D02*
X12248753Y-11119127D01*
X12448753Y-11242936D02*
X12458277Y-11252460D01*
X12458277Y-11252460D02*
X12448753Y-11261984D01*
X12448753Y-11261984D02*
X12439229Y-11252460D01*
X12439229Y-11252460D02*
X12448753Y-11242936D01*
X12448753Y-11242936D02*
X12448753Y-11261984D01*
X12582086Y-11061984D02*
X12601134Y-11061984D01*
X12601134Y-11061984D02*
X12620182Y-11071508D01*
X12620182Y-11071508D02*
X12629705Y-11081031D01*
X12629705Y-11081031D02*
X12639229Y-11100079D01*
X12639229Y-11100079D02*
X12648753Y-11138174D01*
X12648753Y-11138174D02*
X12648753Y-11185793D01*
X12648753Y-11185793D02*
X12639229Y-11223888D01*
X12639229Y-11223888D02*
X12629705Y-11242936D01*
X12629705Y-11242936D02*
X12620182Y-11252460D01*
X12620182Y-11252460D02*
X12601134Y-11261984D01*
X12601134Y-11261984D02*
X12582086Y-11261984D01*
X12582086Y-11261984D02*
X12563039Y-11252460D01*
X12563039Y-11252460D02*
X12553515Y-11242936D01*
X12553515Y-11242936D02*
X12543991Y-11223888D01*
X12543991Y-11223888D02*
X12534467Y-11185793D01*
X12534467Y-11185793D02*
X12534467Y-11138174D01*
X12534467Y-11138174D02*
X12543991Y-11100079D01*
X12543991Y-11100079D02*
X12553515Y-11081031D01*
X12553515Y-11081031D02*
X12563039Y-11071508D01*
X12563039Y-11071508D02*
X12582086Y-11061984D01*
X12772562Y-11061984D02*
X12791610Y-11061984D01*
X12791610Y-11061984D02*
X12810658Y-11071508D01*
X12810658Y-11071508D02*
X12820182Y-11081031D01*
X12820182Y-11081031D02*
X12829705Y-11100079D01*
X12829705Y-11100079D02*
X12839229Y-11138174D01*
X12839229Y-11138174D02*
X12839229Y-11185793D01*
X12839229Y-11185793D02*
X12829705Y-11223888D01*
X12829705Y-11223888D02*
X12820182Y-11242936D01*
X12820182Y-11242936D02*
X12810658Y-11252460D01*
X12810658Y-11252460D02*
X12791610Y-11261984D01*
X12791610Y-11261984D02*
X12772562Y-11261984D01*
X12772562Y-11261984D02*
X12753515Y-11252460D01*
X12753515Y-11252460D02*
X12743991Y-11242936D01*
X12743991Y-11242936D02*
X12734467Y-11223888D01*
X12734467Y-11223888D02*
X12724943Y-11185793D01*
X12724943Y-11185793D02*
X12724943Y-11138174D01*
X12724943Y-11138174D02*
X12734467Y-11100079D01*
X12734467Y-11100079D02*
X12743991Y-11081031D01*
X12743991Y-11081031D02*
X12753515Y-11071508D01*
X12753515Y-11071508D02*
X12772562Y-11061984D01*
X12963039Y-11061984D02*
X12982086Y-11061984D01*
X12982086Y-11061984D02*
X13001134Y-11071508D01*
X13001134Y-11071508D02*
X13010658Y-11081031D01*
X13010658Y-11081031D02*
X13020182Y-11100079D01*
X13020182Y-11100079D02*
X13029705Y-11138174D01*
X13029705Y-11138174D02*
X13029705Y-11185793D01*
X13029705Y-11185793D02*
X13020182Y-11223888D01*
X13020182Y-11223888D02*
X13010658Y-11242936D01*
X13010658Y-11242936D02*
X13001134Y-11252460D01*
X13001134Y-11252460D02*
X12982086Y-11261984D01*
X12982086Y-11261984D02*
X12963039Y-11261984D01*
X12963039Y-11261984D02*
X12943991Y-11252460D01*
X12943991Y-11252460D02*
X12934467Y-11242936D01*
X12934467Y-11242936D02*
X12924943Y-11223888D01*
X12924943Y-11223888D02*
X12915420Y-11185793D01*
X12915420Y-11185793D02*
X12915420Y-11138174D01*
X12915420Y-11138174D02*
X12924943Y-11100079D01*
X12924943Y-11100079D02*
X12934467Y-11081031D01*
X12934467Y-11081031D02*
X12943991Y-11071508D01*
X12943991Y-11071508D02*
X12963039Y-11061984D01*
X13115420Y-11261984D02*
X13115420Y-11128650D01*
X13115420Y-11147698D02*
X13124943Y-11138174D01*
X13124943Y-11138174D02*
X13143991Y-11128650D01*
X13143991Y-11128650D02*
X13172563Y-11128650D01*
X13172563Y-11128650D02*
X13191610Y-11138174D01*
X13191610Y-11138174D02*
X13201134Y-11157222D01*
X13201134Y-11157222D02*
X13201134Y-11261984D01*
X13201134Y-11157222D02*
X13210658Y-11138174D01*
X13210658Y-11138174D02*
X13229705Y-11128650D01*
X13229705Y-11128650D02*
X13258277Y-11128650D01*
X13258277Y-11128650D02*
X13277324Y-11138174D01*
X13277324Y-11138174D02*
X13286848Y-11157222D01*
X13286848Y-11157222D02*
X13286848Y-11261984D01*
X13382086Y-11261984D02*
X13382086Y-11128650D01*
X13382086Y-11147698D02*
X13391610Y-11138174D01*
X13391610Y-11138174D02*
X13410658Y-11128650D01*
X13410658Y-11128650D02*
X13439229Y-11128650D01*
X13439229Y-11128650D02*
X13458277Y-11138174D01*
X13458277Y-11138174D02*
X13467801Y-11157222D01*
X13467801Y-11157222D02*
X13467801Y-11261984D01*
X13467801Y-11157222D02*
X13477324Y-11138174D01*
X13477324Y-11138174D02*
X13496372Y-11128650D01*
X13496372Y-11128650D02*
X13524943Y-11128650D01*
X13524943Y-11128650D02*
X13543991Y-11138174D01*
X13543991Y-11138174D02*
X13553515Y-11157222D01*
X13553515Y-11157222D02*
X13553515Y-11261984D01*
X13943991Y-11052460D02*
X13772563Y-11309603D01*
X14201134Y-11061984D02*
X14220182Y-11061984D01*
X14220182Y-11061984D02*
X14239229Y-11071508D01*
X14239229Y-11071508D02*
X14248753Y-11081031D01*
X14248753Y-11081031D02*
X14258277Y-11100079D01*
X14258277Y-11100079D02*
X14267801Y-11138174D01*
X14267801Y-11138174D02*
X14267801Y-11185793D01*
X14267801Y-11185793D02*
X14258277Y-11223888D01*
X14258277Y-11223888D02*
X14248753Y-11242936D01*
X14248753Y-11242936D02*
X14239229Y-11252460D01*
X14239229Y-11252460D02*
X14220182Y-11261984D01*
X14220182Y-11261984D02*
X14201134Y-11261984D01*
X14201134Y-11261984D02*
X14182086Y-11252460D01*
X14182086Y-11252460D02*
X14172563Y-11242936D01*
X14172563Y-11242936D02*
X14163039Y-11223888D01*
X14163039Y-11223888D02*
X14153515Y-11185793D01*
X14153515Y-11185793D02*
X14153515Y-11138174D01*
X14153515Y-11138174D02*
X14163039Y-11100079D01*
X14163039Y-11100079D02*
X14172563Y-11081031D01*
X14172563Y-11081031D02*
X14182086Y-11071508D01*
X14182086Y-11071508D02*
X14201134Y-11061984D01*
X14353515Y-11242936D02*
X14363039Y-11252460D01*
X14363039Y-11252460D02*
X14353515Y-11261984D01*
X14353515Y-11261984D02*
X14343991Y-11252460D01*
X14343991Y-11252460D02*
X14353515Y-11242936D01*
X14353515Y-11242936D02*
X14353515Y-11261984D01*
X14486848Y-11061984D02*
X14505896Y-11061984D01*
X14505896Y-11061984D02*
X14524944Y-11071508D01*
X14524944Y-11071508D02*
X14534467Y-11081031D01*
X14534467Y-11081031D02*
X14543991Y-11100079D01*
X14543991Y-11100079D02*
X14553515Y-11138174D01*
X14553515Y-11138174D02*
X14553515Y-11185793D01*
X14553515Y-11185793D02*
X14543991Y-11223888D01*
X14543991Y-11223888D02*
X14534467Y-11242936D01*
X14534467Y-11242936D02*
X14524944Y-11252460D01*
X14524944Y-11252460D02*
X14505896Y-11261984D01*
X14505896Y-11261984D02*
X14486848Y-11261984D01*
X14486848Y-11261984D02*
X14467801Y-11252460D01*
X14467801Y-11252460D02*
X14458277Y-11242936D01*
X14458277Y-11242936D02*
X14448753Y-11223888D01*
X14448753Y-11223888D02*
X14439229Y-11185793D01*
X14439229Y-11185793D02*
X14439229Y-11138174D01*
X14439229Y-11138174D02*
X14448753Y-11100079D01*
X14448753Y-11100079D02*
X14458277Y-11081031D01*
X14458277Y-11081031D02*
X14467801Y-11071508D01*
X14467801Y-11071508D02*
X14486848Y-11061984D01*
X14620182Y-11061984D02*
X14743991Y-11061984D01*
X14743991Y-11061984D02*
X14677325Y-11138174D01*
X14677325Y-11138174D02*
X14705896Y-11138174D01*
X14705896Y-11138174D02*
X14724944Y-11147698D01*
X14724944Y-11147698D02*
X14734467Y-11157222D01*
X14734467Y-11157222D02*
X14743991Y-11176270D01*
X14743991Y-11176270D02*
X14743991Y-11223888D01*
X14743991Y-11223888D02*
X14734467Y-11242936D01*
X14734467Y-11242936D02*
X14724944Y-11252460D01*
X14724944Y-11252460D02*
X14705896Y-11261984D01*
X14705896Y-11261984D02*
X14648753Y-11261984D01*
X14648753Y-11261984D02*
X14629706Y-11252460D01*
X14629706Y-11252460D02*
X14620182Y-11242936D01*
X14839229Y-11261984D02*
X14877325Y-11261984D01*
X14877325Y-11261984D02*
X14896372Y-11252460D01*
X14896372Y-11252460D02*
X14905896Y-11242936D01*
X14905896Y-11242936D02*
X14924944Y-11214365D01*
X14924944Y-11214365D02*
X14934467Y-11176270D01*
X14934467Y-11176270D02*
X14934467Y-11100079D01*
X14934467Y-11100079D02*
X14924944Y-11081031D01*
X14924944Y-11081031D02*
X14915420Y-11071508D01*
X14915420Y-11071508D02*
X14896372Y-11061984D01*
X14896372Y-11061984D02*
X14858277Y-11061984D01*
X14858277Y-11061984D02*
X14839229Y-11071508D01*
X14839229Y-11071508D02*
X14829706Y-11081031D01*
X14829706Y-11081031D02*
X14820182Y-11100079D01*
X14820182Y-11100079D02*
X14820182Y-11147698D01*
X14820182Y-11147698D02*
X14829706Y-11166746D01*
X14829706Y-11166746D02*
X14839229Y-11176270D01*
X14839229Y-11176270D02*
X14858277Y-11185793D01*
X14858277Y-11185793D02*
X14896372Y-11185793D01*
X14896372Y-11185793D02*
X14915420Y-11176270D01*
X14915420Y-11176270D02*
X14924944Y-11166746D01*
X14924944Y-11166746D02*
X14934467Y-11147698D01*
X15105896Y-11128650D02*
X15105896Y-11261984D01*
X15058277Y-11052460D02*
X15010658Y-11195317D01*
X15010658Y-11195317D02*
X15134467Y-11195317D01*
X15201134Y-11061984D02*
X15201134Y-11100079D01*
X15277325Y-11061984D02*
X15277325Y-11100079D01*
X15572563Y-11338174D02*
X15563039Y-11328650D01*
X15563039Y-11328650D02*
X15543991Y-11300079D01*
X15543991Y-11300079D02*
X15534468Y-11281031D01*
X15534468Y-11281031D02*
X15524944Y-11252460D01*
X15524944Y-11252460D02*
X15515420Y-11204841D01*
X15515420Y-11204841D02*
X15515420Y-11166746D01*
X15515420Y-11166746D02*
X15524944Y-11119127D01*
X15524944Y-11119127D02*
X15534468Y-11090555D01*
X15534468Y-11090555D02*
X15543991Y-11071508D01*
X15543991Y-11071508D02*
X15563039Y-11042936D01*
X15563039Y-11042936D02*
X15572563Y-11033412D01*
X15753515Y-11261984D02*
X15639229Y-11261984D01*
X15696372Y-11261984D02*
X15696372Y-11061984D01*
X15696372Y-11061984D02*
X15677325Y-11090555D01*
X15677325Y-11090555D02*
X15658277Y-11109603D01*
X15658277Y-11109603D02*
X15639229Y-11119127D01*
X15829706Y-11081031D02*
X15839229Y-11071508D01*
X15839229Y-11071508D02*
X15858277Y-11061984D01*
X15858277Y-11061984D02*
X15905896Y-11061984D01*
X15905896Y-11061984D02*
X15924944Y-11071508D01*
X15924944Y-11071508D02*
X15934468Y-11081031D01*
X15934468Y-11081031D02*
X15943991Y-11100079D01*
X15943991Y-11100079D02*
X15943991Y-11119127D01*
X15943991Y-11119127D02*
X15934468Y-11147698D01*
X15934468Y-11147698D02*
X15820182Y-11261984D01*
X15820182Y-11261984D02*
X15943991Y-11261984D01*
X16182087Y-11261984D02*
X16182087Y-11061984D01*
X16267801Y-11261984D02*
X16267801Y-11157222D01*
X16267801Y-11157222D02*
X16258277Y-11138174D01*
X16258277Y-11138174D02*
X16239230Y-11128650D01*
X16239230Y-11128650D02*
X16210658Y-11128650D01*
X16210658Y-11128650D02*
X16191610Y-11138174D01*
X16191610Y-11138174D02*
X16182087Y-11147698D01*
X16391610Y-11261984D02*
X16372563Y-11252460D01*
X16372563Y-11252460D02*
X16363039Y-11242936D01*
X16363039Y-11242936D02*
X16353515Y-11223888D01*
X16353515Y-11223888D02*
X16353515Y-11166746D01*
X16353515Y-11166746D02*
X16363039Y-11147698D01*
X16363039Y-11147698D02*
X16372563Y-11138174D01*
X16372563Y-11138174D02*
X16391610Y-11128650D01*
X16391610Y-11128650D02*
X16420182Y-11128650D01*
X16420182Y-11128650D02*
X16439230Y-11138174D01*
X16439230Y-11138174D02*
X16448753Y-11147698D01*
X16448753Y-11147698D02*
X16458277Y-11166746D01*
X16458277Y-11166746D02*
X16458277Y-11223888D01*
X16458277Y-11223888D02*
X16448753Y-11242936D01*
X16448753Y-11242936D02*
X16439230Y-11252460D01*
X16439230Y-11252460D02*
X16420182Y-11261984D01*
X16420182Y-11261984D02*
X16391610Y-11261984D01*
X16572563Y-11261984D02*
X16553515Y-11252460D01*
X16553515Y-11252460D02*
X16543991Y-11233412D01*
X16543991Y-11233412D02*
X16543991Y-11061984D01*
X16724944Y-11252460D02*
X16705896Y-11261984D01*
X16705896Y-11261984D02*
X16667801Y-11261984D01*
X16667801Y-11261984D02*
X16648753Y-11252460D01*
X16648753Y-11252460D02*
X16639230Y-11233412D01*
X16639230Y-11233412D02*
X16639230Y-11157222D01*
X16639230Y-11157222D02*
X16648753Y-11138174D01*
X16648753Y-11138174D02*
X16667801Y-11128650D01*
X16667801Y-11128650D02*
X16705896Y-11128650D01*
X16705896Y-11128650D02*
X16724944Y-11138174D01*
X16724944Y-11138174D02*
X16734468Y-11157222D01*
X16734468Y-11157222D02*
X16734468Y-11176270D01*
X16734468Y-11176270D02*
X16639230Y-11195317D01*
X16810658Y-11252460D02*
X16829706Y-11261984D01*
X16829706Y-11261984D02*
X16867801Y-11261984D01*
X16867801Y-11261984D02*
X16886849Y-11252460D01*
X16886849Y-11252460D02*
X16896373Y-11233412D01*
X16896373Y-11233412D02*
X16896373Y-11223888D01*
X16896373Y-11223888D02*
X16886849Y-11204841D01*
X16886849Y-11204841D02*
X16867801Y-11195317D01*
X16867801Y-11195317D02*
X16839230Y-11195317D01*
X16839230Y-11195317D02*
X16820182Y-11185793D01*
X16820182Y-11185793D02*
X16810658Y-11166746D01*
X16810658Y-11166746D02*
X16810658Y-11157222D01*
X16810658Y-11157222D02*
X16820182Y-11138174D01*
X16820182Y-11138174D02*
X16839230Y-11128650D01*
X16839230Y-11128650D02*
X16867801Y-11128650D01*
X16867801Y-11128650D02*
X16886849Y-11138174D01*
X16963039Y-11338174D02*
X16972563Y-11328650D01*
X16972563Y-11328650D02*
X16991611Y-11300079D01*
X16991611Y-11300079D02*
X17001134Y-11281031D01*
X17001134Y-11281031D02*
X17010658Y-11252460D01*
X17010658Y-11252460D02*
X17020182Y-11204841D01*
X17020182Y-11204841D02*
X17020182Y-11166746D01*
X17020182Y-11166746D02*
X17010658Y-11119127D01*
X17010658Y-11119127D02*
X17001134Y-11090555D01*
X17001134Y-11090555D02*
X16991611Y-11071508D01*
X16991611Y-11071508D02*
X16972563Y-11042936D01*
X16972563Y-11042936D02*
X16963039Y-11033412D01*
D13*
X11969676Y-11501676D02*
X11969676Y-11367324D01*
X11835324Y-11367324D01*
X11835324Y-11501676D01*
X11969676Y-11501676D01*
D11*
X12363039Y-11525984D02*
X12248753Y-11525984D01*
X12305896Y-11525984D02*
X12305896Y-11325984D01*
X12305896Y-11325984D02*
X12286848Y-11354555D01*
X12286848Y-11354555D02*
X12267801Y-11373603D01*
X12267801Y-11373603D02*
X12248753Y-11383127D01*
X12448753Y-11506936D02*
X12458277Y-11516460D01*
X12458277Y-11516460D02*
X12448753Y-11525984D01*
X12448753Y-11525984D02*
X12439229Y-11516460D01*
X12439229Y-11516460D02*
X12448753Y-11506936D01*
X12448753Y-11506936D02*
X12448753Y-11525984D01*
X12553515Y-11525984D02*
X12591610Y-11525984D01*
X12591610Y-11525984D02*
X12610658Y-11516460D01*
X12610658Y-11516460D02*
X12620182Y-11506936D01*
X12620182Y-11506936D02*
X12639229Y-11478365D01*
X12639229Y-11478365D02*
X12648753Y-11440269D01*
X12648753Y-11440269D02*
X12648753Y-11364079D01*
X12648753Y-11364079D02*
X12639229Y-11345031D01*
X12639229Y-11345031D02*
X12629705Y-11335508D01*
X12629705Y-11335508D02*
X12610658Y-11325984D01*
X12610658Y-11325984D02*
X12572562Y-11325984D01*
X12572562Y-11325984D02*
X12553515Y-11335508D01*
X12553515Y-11335508D02*
X12543991Y-11345031D01*
X12543991Y-11345031D02*
X12534467Y-11364079D01*
X12534467Y-11364079D02*
X12534467Y-11411698D01*
X12534467Y-11411698D02*
X12543991Y-11430746D01*
X12543991Y-11430746D02*
X12553515Y-11440269D01*
X12553515Y-11440269D02*
X12572562Y-11449793D01*
X12572562Y-11449793D02*
X12610658Y-11449793D01*
X12610658Y-11449793D02*
X12629705Y-11440269D01*
X12629705Y-11440269D02*
X12639229Y-11430746D01*
X12639229Y-11430746D02*
X12648753Y-11411698D01*
X12772562Y-11325984D02*
X12791610Y-11325984D01*
X12791610Y-11325984D02*
X12810658Y-11335508D01*
X12810658Y-11335508D02*
X12820182Y-11345031D01*
X12820182Y-11345031D02*
X12829705Y-11364079D01*
X12829705Y-11364079D02*
X12839229Y-11402174D01*
X12839229Y-11402174D02*
X12839229Y-11449793D01*
X12839229Y-11449793D02*
X12829705Y-11487888D01*
X12829705Y-11487888D02*
X12820182Y-11506936D01*
X12820182Y-11506936D02*
X12810658Y-11516460D01*
X12810658Y-11516460D02*
X12791610Y-11525984D01*
X12791610Y-11525984D02*
X12772562Y-11525984D01*
X12772562Y-11525984D02*
X12753515Y-11516460D01*
X12753515Y-11516460D02*
X12743991Y-11506936D01*
X12743991Y-11506936D02*
X12734467Y-11487888D01*
X12734467Y-11487888D02*
X12724943Y-11449793D01*
X12724943Y-11449793D02*
X12724943Y-11402174D01*
X12724943Y-11402174D02*
X12734467Y-11364079D01*
X12734467Y-11364079D02*
X12743991Y-11345031D01*
X12743991Y-11345031D02*
X12753515Y-11335508D01*
X12753515Y-11335508D02*
X12772562Y-11325984D01*
X12963039Y-11325984D02*
X12982086Y-11325984D01*
X12982086Y-11325984D02*
X13001134Y-11335508D01*
X13001134Y-11335508D02*
X13010658Y-11345031D01*
X13010658Y-11345031D02*
X13020182Y-11364079D01*
X13020182Y-11364079D02*
X13029705Y-11402174D01*
X13029705Y-11402174D02*
X13029705Y-11449793D01*
X13029705Y-11449793D02*
X13020182Y-11487888D01*
X13020182Y-11487888D02*
X13010658Y-11506936D01*
X13010658Y-11506936D02*
X13001134Y-11516460D01*
X13001134Y-11516460D02*
X12982086Y-11525984D01*
X12982086Y-11525984D02*
X12963039Y-11525984D01*
X12963039Y-11525984D02*
X12943991Y-11516460D01*
X12943991Y-11516460D02*
X12934467Y-11506936D01*
X12934467Y-11506936D02*
X12924943Y-11487888D01*
X12924943Y-11487888D02*
X12915420Y-11449793D01*
X12915420Y-11449793D02*
X12915420Y-11402174D01*
X12915420Y-11402174D02*
X12924943Y-11364079D01*
X12924943Y-11364079D02*
X12934467Y-11345031D01*
X12934467Y-11345031D02*
X12943991Y-11335508D01*
X12943991Y-11335508D02*
X12963039Y-11325984D01*
X13115420Y-11525984D02*
X13115420Y-11392650D01*
X13115420Y-11411698D02*
X13124943Y-11402174D01*
X13124943Y-11402174D02*
X13143991Y-11392650D01*
X13143991Y-11392650D02*
X13172563Y-11392650D01*
X13172563Y-11392650D02*
X13191610Y-11402174D01*
X13191610Y-11402174D02*
X13201134Y-11421222D01*
X13201134Y-11421222D02*
X13201134Y-11525984D01*
X13201134Y-11421222D02*
X13210658Y-11402174D01*
X13210658Y-11402174D02*
X13229705Y-11392650D01*
X13229705Y-11392650D02*
X13258277Y-11392650D01*
X13258277Y-11392650D02*
X13277324Y-11402174D01*
X13277324Y-11402174D02*
X13286848Y-11421222D01*
X13286848Y-11421222D02*
X13286848Y-11525984D01*
X13382086Y-11525984D02*
X13382086Y-11392650D01*
X13382086Y-11411698D02*
X13391610Y-11402174D01*
X13391610Y-11402174D02*
X13410658Y-11392650D01*
X13410658Y-11392650D02*
X13439229Y-11392650D01*
X13439229Y-11392650D02*
X13458277Y-11402174D01*
X13458277Y-11402174D02*
X13467801Y-11421222D01*
X13467801Y-11421222D02*
X13467801Y-11525984D01*
X13467801Y-11421222D02*
X13477324Y-11402174D01*
X13477324Y-11402174D02*
X13496372Y-11392650D01*
X13496372Y-11392650D02*
X13524943Y-11392650D01*
X13524943Y-11392650D02*
X13543991Y-11402174D01*
X13543991Y-11402174D02*
X13553515Y-11421222D01*
X13553515Y-11421222D02*
X13553515Y-11525984D01*
X13943991Y-11316460D02*
X13772563Y-11573603D01*
X14201134Y-11325984D02*
X14220182Y-11325984D01*
X14220182Y-11325984D02*
X14239229Y-11335508D01*
X14239229Y-11335508D02*
X14248753Y-11345031D01*
X14248753Y-11345031D02*
X14258277Y-11364079D01*
X14258277Y-11364079D02*
X14267801Y-11402174D01*
X14267801Y-11402174D02*
X14267801Y-11449793D01*
X14267801Y-11449793D02*
X14258277Y-11487888D01*
X14258277Y-11487888D02*
X14248753Y-11506936D01*
X14248753Y-11506936D02*
X14239229Y-11516460D01*
X14239229Y-11516460D02*
X14220182Y-11525984D01*
X14220182Y-11525984D02*
X14201134Y-11525984D01*
X14201134Y-11525984D02*
X14182086Y-11516460D01*
X14182086Y-11516460D02*
X14172563Y-11506936D01*
X14172563Y-11506936D02*
X14163039Y-11487888D01*
X14163039Y-11487888D02*
X14153515Y-11449793D01*
X14153515Y-11449793D02*
X14153515Y-11402174D01*
X14153515Y-11402174D02*
X14163039Y-11364079D01*
X14163039Y-11364079D02*
X14172563Y-11345031D01*
X14172563Y-11345031D02*
X14182086Y-11335508D01*
X14182086Y-11335508D02*
X14201134Y-11325984D01*
X14353515Y-11506936D02*
X14363039Y-11516460D01*
X14363039Y-11516460D02*
X14353515Y-11525984D01*
X14353515Y-11525984D02*
X14343991Y-11516460D01*
X14343991Y-11516460D02*
X14353515Y-11506936D01*
X14353515Y-11506936D02*
X14353515Y-11525984D01*
X14486848Y-11325984D02*
X14505896Y-11325984D01*
X14505896Y-11325984D02*
X14524944Y-11335508D01*
X14524944Y-11335508D02*
X14534467Y-11345031D01*
X14534467Y-11345031D02*
X14543991Y-11364079D01*
X14543991Y-11364079D02*
X14553515Y-11402174D01*
X14553515Y-11402174D02*
X14553515Y-11449793D01*
X14553515Y-11449793D02*
X14543991Y-11487888D01*
X14543991Y-11487888D02*
X14534467Y-11506936D01*
X14534467Y-11506936D02*
X14524944Y-11516460D01*
X14524944Y-11516460D02*
X14505896Y-11525984D01*
X14505896Y-11525984D02*
X14486848Y-11525984D01*
X14486848Y-11525984D02*
X14467801Y-11516460D01*
X14467801Y-11516460D02*
X14458277Y-11506936D01*
X14458277Y-11506936D02*
X14448753Y-11487888D01*
X14448753Y-11487888D02*
X14439229Y-11449793D01*
X14439229Y-11449793D02*
X14439229Y-11402174D01*
X14439229Y-11402174D02*
X14448753Y-11364079D01*
X14448753Y-11364079D02*
X14458277Y-11345031D01*
X14458277Y-11345031D02*
X14467801Y-11335508D01*
X14467801Y-11335508D02*
X14486848Y-11325984D01*
X14620182Y-11325984D02*
X14753515Y-11325984D01*
X14753515Y-11325984D02*
X14667801Y-11525984D01*
X14915420Y-11392650D02*
X14915420Y-11525984D01*
X14867801Y-11316460D02*
X14820182Y-11459317D01*
X14820182Y-11459317D02*
X14943991Y-11459317D01*
X15048753Y-11411698D02*
X15029706Y-11402174D01*
X15029706Y-11402174D02*
X15020182Y-11392650D01*
X15020182Y-11392650D02*
X15010658Y-11373603D01*
X15010658Y-11373603D02*
X15010658Y-11364079D01*
X15010658Y-11364079D02*
X15020182Y-11345031D01*
X15020182Y-11345031D02*
X15029706Y-11335508D01*
X15029706Y-11335508D02*
X15048753Y-11325984D01*
X15048753Y-11325984D02*
X15086848Y-11325984D01*
X15086848Y-11325984D02*
X15105896Y-11335508D01*
X15105896Y-11335508D02*
X15115420Y-11345031D01*
X15115420Y-11345031D02*
X15124944Y-11364079D01*
X15124944Y-11364079D02*
X15124944Y-11373603D01*
X15124944Y-11373603D02*
X15115420Y-11392650D01*
X15115420Y-11392650D02*
X15105896Y-11402174D01*
X15105896Y-11402174D02*
X15086848Y-11411698D01*
X15086848Y-11411698D02*
X15048753Y-11411698D01*
X15048753Y-11411698D02*
X15029706Y-11421222D01*
X15029706Y-11421222D02*
X15020182Y-11430746D01*
X15020182Y-11430746D02*
X15010658Y-11449793D01*
X15010658Y-11449793D02*
X15010658Y-11487888D01*
X15010658Y-11487888D02*
X15020182Y-11506936D01*
X15020182Y-11506936D02*
X15029706Y-11516460D01*
X15029706Y-11516460D02*
X15048753Y-11525984D01*
X15048753Y-11525984D02*
X15086848Y-11525984D01*
X15086848Y-11525984D02*
X15105896Y-11516460D01*
X15105896Y-11516460D02*
X15115420Y-11506936D01*
X15115420Y-11506936D02*
X15124944Y-11487888D01*
X15124944Y-11487888D02*
X15124944Y-11449793D01*
X15124944Y-11449793D02*
X15115420Y-11430746D01*
X15115420Y-11430746D02*
X15105896Y-11421222D01*
X15105896Y-11421222D02*
X15086848Y-11411698D01*
X15201134Y-11325984D02*
X15201134Y-11364079D01*
X15277325Y-11325984D02*
X15277325Y-11364079D01*
X15572563Y-11602174D02*
X15563039Y-11592650D01*
X15563039Y-11592650D02*
X15543991Y-11564079D01*
X15543991Y-11564079D02*
X15534468Y-11545031D01*
X15534468Y-11545031D02*
X15524944Y-11516460D01*
X15524944Y-11516460D02*
X15515420Y-11468841D01*
X15515420Y-11468841D02*
X15515420Y-11430746D01*
X15515420Y-11430746D02*
X15524944Y-11383127D01*
X15524944Y-11383127D02*
X15534468Y-11354555D01*
X15534468Y-11354555D02*
X15543991Y-11335508D01*
X15543991Y-11335508D02*
X15563039Y-11306936D01*
X15563039Y-11306936D02*
X15572563Y-11297412D01*
X15734468Y-11325984D02*
X15696372Y-11325984D01*
X15696372Y-11325984D02*
X15677325Y-11335508D01*
X15677325Y-11335508D02*
X15667801Y-11345031D01*
X15667801Y-11345031D02*
X15648753Y-11373603D01*
X15648753Y-11373603D02*
X15639229Y-11411698D01*
X15639229Y-11411698D02*
X15639229Y-11487888D01*
X15639229Y-11487888D02*
X15648753Y-11506936D01*
X15648753Y-11506936D02*
X15658277Y-11516460D01*
X15658277Y-11516460D02*
X15677325Y-11525984D01*
X15677325Y-11525984D02*
X15715420Y-11525984D01*
X15715420Y-11525984D02*
X15734468Y-11516460D01*
X15734468Y-11516460D02*
X15743991Y-11506936D01*
X15743991Y-11506936D02*
X15753515Y-11487888D01*
X15753515Y-11487888D02*
X15753515Y-11440269D01*
X15753515Y-11440269D02*
X15743991Y-11421222D01*
X15743991Y-11421222D02*
X15734468Y-11411698D01*
X15734468Y-11411698D02*
X15715420Y-11402174D01*
X15715420Y-11402174D02*
X15677325Y-11402174D01*
X15677325Y-11402174D02*
X15658277Y-11411698D01*
X15658277Y-11411698D02*
X15648753Y-11421222D01*
X15648753Y-11421222D02*
X15639229Y-11440269D01*
X15991610Y-11525984D02*
X15991610Y-11325984D01*
X16077325Y-11525984D02*
X16077325Y-11421222D01*
X16077325Y-11421222D02*
X16067801Y-11402174D01*
X16067801Y-11402174D02*
X16048753Y-11392650D01*
X16048753Y-11392650D02*
X16020182Y-11392650D01*
X16020182Y-11392650D02*
X16001134Y-11402174D01*
X16001134Y-11402174D02*
X15991610Y-11411698D01*
X16201134Y-11525984D02*
X16182087Y-11516460D01*
X16182087Y-11516460D02*
X16172563Y-11506936D01*
X16172563Y-11506936D02*
X16163039Y-11487888D01*
X16163039Y-11487888D02*
X16163039Y-11430746D01*
X16163039Y-11430746D02*
X16172563Y-11411698D01*
X16172563Y-11411698D02*
X16182087Y-11402174D01*
X16182087Y-11402174D02*
X16201134Y-11392650D01*
X16201134Y-11392650D02*
X16229706Y-11392650D01*
X16229706Y-11392650D02*
X16248753Y-11402174D01*
X16248753Y-11402174D02*
X16258277Y-11411698D01*
X16258277Y-11411698D02*
X16267801Y-11430746D01*
X16267801Y-11430746D02*
X16267801Y-11487888D01*
X16267801Y-11487888D02*
X16258277Y-11506936D01*
X16258277Y-11506936D02*
X16248753Y-11516460D01*
X16248753Y-11516460D02*
X16229706Y-11525984D01*
X16229706Y-11525984D02*
X16201134Y-11525984D01*
X16382087Y-11525984D02*
X16363039Y-11516460D01*
X16363039Y-11516460D02*
X16353515Y-11497412D01*
X16353515Y-11497412D02*
X16353515Y-11325984D01*
X16534468Y-11516460D02*
X16515420Y-11525984D01*
X16515420Y-11525984D02*
X16477325Y-11525984D01*
X16477325Y-11525984D02*
X16458277Y-11516460D01*
X16458277Y-11516460D02*
X16448753Y-11497412D01*
X16448753Y-11497412D02*
X16448753Y-11421222D01*
X16448753Y-11421222D02*
X16458277Y-11402174D01*
X16458277Y-11402174D02*
X16477325Y-11392650D01*
X16477325Y-11392650D02*
X16515420Y-11392650D01*
X16515420Y-11392650D02*
X16534468Y-11402174D01*
X16534468Y-11402174D02*
X16543991Y-11421222D01*
X16543991Y-11421222D02*
X16543991Y-11440269D01*
X16543991Y-11440269D02*
X16448753Y-11459317D01*
X16620182Y-11516460D02*
X16639230Y-11525984D01*
X16639230Y-11525984D02*
X16677325Y-11525984D01*
X16677325Y-11525984D02*
X16696372Y-11516460D01*
X16696372Y-11516460D02*
X16705896Y-11497412D01*
X16705896Y-11497412D02*
X16705896Y-11487888D01*
X16705896Y-11487888D02*
X16696372Y-11468841D01*
X16696372Y-11468841D02*
X16677325Y-11459317D01*
X16677325Y-11459317D02*
X16648753Y-11459317D01*
X16648753Y-11459317D02*
X16629706Y-11449793D01*
X16629706Y-11449793D02*
X16620182Y-11430746D01*
X16620182Y-11430746D02*
X16620182Y-11421222D01*
X16620182Y-11421222D02*
X16629706Y-11402174D01*
X16629706Y-11402174D02*
X16648753Y-11392650D01*
X16648753Y-11392650D02*
X16677325Y-11392650D01*
X16677325Y-11392650D02*
X16696372Y-11402174D01*
X16772563Y-11602174D02*
X16782087Y-11592650D01*
X16782087Y-11592650D02*
X16801134Y-11564079D01*
X16801134Y-11564079D02*
X16810658Y-11545031D01*
X16810658Y-11545031D02*
X16820182Y-11516460D01*
X16820182Y-11516460D02*
X16829706Y-11468841D01*
X16829706Y-11468841D02*
X16829706Y-11430746D01*
X16829706Y-11430746D02*
X16820182Y-11383127D01*
X16820182Y-11383127D02*
X16810658Y-11354555D01*
X16810658Y-11354555D02*
X16801134Y-11335508D01*
X16801134Y-11335508D02*
X16782087Y-11306936D01*
X16782087Y-11306936D02*
X16772563Y-11297412D01*
M02*
