G04 #@! TF.GenerationSoftware,KiCad,Pcbnew,9.0.0*
G04 #@! TF.CreationDate,2025-09-29T19:17:06-04:00*
G04 #@! TF.ProjectId,brushed-dual-esc,62727573-6865-4642-9d64-75616c2d6573,rev?*
G04 #@! TF.SameCoordinates,Original*
G04 #@! TF.FileFunction,Copper,L2,Bot*
G04 #@! TF.FilePolarity,Positive*
%FSLAX46Y46*%
G04 Gerber Fmt 4.6, Leading zero omitted, Abs format (unit mm)*
G04 Created by KiCad (PCBNEW 9.0.0) date 2025-09-29 19:17:06*
%MOMM*%
%LPD*%
G01*
G04 APERTURE LIST*
G04 Aperture macros list*
%AMRoundRect*
0 Rectangle with rounded corners*
0 $1 Rounding radius*
0 $2 $3 $4 $5 $6 $7 $8 $9 X,Y pos of 4 corners*
0 Add a 4 corners polygon primitive as box body*
4,1,4,$2,$3,$4,$5,$6,$7,$8,$9,$2,$3,0*
0 Add four circle primitives for the rounded corners*
1,1,$1+$1,$2,$3*
1,1,$1+$1,$4,$5*
1,1,$1+$1,$6,$7*
1,1,$1+$1,$8,$9*
0 Add four rect primitives between the rounded corners*
20,1,$1+$1,$2,$3,$4,$5,0*
20,1,$1+$1,$4,$5,$6,$7,0*
20,1,$1+$1,$6,$7,$8,$9,0*
20,1,$1+$1,$8,$9,$2,$3,0*%
G04 Aperture macros list end*
G04 #@! TA.AperFunction,ComponentPad*
%ADD10C,1.400000*%
G04 #@! TD*
G04 #@! TA.AperFunction,ComponentPad*
%ADD11C,3.500000*%
G04 #@! TD*
G04 #@! TA.AperFunction,ComponentPad*
%ADD12R,1.600000X1.600000*%
G04 #@! TD*
G04 #@! TA.AperFunction,ComponentPad*
%ADD13C,1.600000*%
G04 #@! TD*
G04 #@! TA.AperFunction,ComponentPad*
%ADD14RoundRect,0.770000X-0.980000X-0.980000X0.980000X-0.980000X0.980000X0.980000X-0.980000X0.980000X0*%
G04 #@! TD*
G04 #@! TA.AperFunction,ComponentPad*
%ADD15R,1.700000X1.700000*%
G04 #@! TD*
G04 #@! TA.AperFunction,ComponentPad*
%ADD16O,1.700000X1.700000*%
G04 #@! TD*
G04 #@! TA.AperFunction,ViaPad*
%ADD17C,0.600000*%
G04 #@! TD*
G04 #@! TA.AperFunction,Conductor*
%ADD18C,0.250000*%
G04 #@! TD*
G04 #@! TA.AperFunction,Conductor*
%ADD19C,0.300000*%
G04 #@! TD*
G04 APERTURE END LIST*
D10*
G04 #@! TO.P,J1,*
G04 #@! TO.N,*
X148000000Y-88000000D03*
X148000000Y-77000000D03*
D11*
G04 #@! TO.P,J1,1,Pin_1*
G04 #@! TO.N,GND*
X138000000Y-80000000D03*
G04 #@! TO.P,J1,2,Pin_2*
G04 #@! TO.N,+BATT*
X138000000Y-85000000D03*
G04 #@! TD*
D12*
G04 #@! TO.P,C5,1*
G04 #@! TO.N,+BATT*
X133700000Y-95900000D03*
D13*
G04 #@! TO.P,C5,2*
G04 #@! TO.N,GND*
X135700000Y-95900000D03*
G04 #@! TD*
D10*
G04 #@! TO.P,J4,*
G04 #@! TO.N,*
X121500000Y-98500000D03*
X132500000Y-98500000D03*
D14*
G04 #@! TO.P,J4,1,Pin_1*
G04 #@! TO.N,/DRV1_OUT2*
X124500000Y-93500000D03*
D11*
G04 #@! TO.P,J4,2,Pin_2*
G04 #@! TO.N,/DRV1_OUT1*
X129500000Y-93500000D03*
G04 #@! TD*
D15*
G04 #@! TO.P,J3,1,Pin_1*
G04 #@! TO.N,/RX_CH2*
X124000000Y-76960000D03*
D16*
G04 #@! TO.P,J3,2,Pin_2*
G04 #@! TO.N,/RX_CH1*
X121460000Y-76960000D03*
G04 #@! TO.P,J3,3,Pin_3*
G04 #@! TO.N,+5V*
X124000000Y-79500000D03*
G04 #@! TO.P,J3,4,Pin_4*
X121460000Y-79500000D03*
G04 #@! TO.P,J3,5,Pin_5*
G04 #@! TO.N,GND*
X124000000Y-82040000D03*
G04 #@! TO.P,J3,6,Pin_6*
X121460000Y-82040000D03*
G04 #@! TD*
D10*
G04 #@! TO.P,J5,*
G04 #@! TO.N,*
X137000000Y-98500000D03*
X148000000Y-98500000D03*
D14*
G04 #@! TO.P,J5,1,Pin_1*
G04 #@! TO.N,/DRV2_OUT2*
X140000000Y-93500000D03*
D11*
G04 #@! TO.P,J5,2,Pin_2*
G04 #@! TO.N,/DRV2_OUT1*
X145000000Y-93500000D03*
G04 #@! TD*
D17*
G04 #@! TO.N,GND*
X134600000Y-87000000D03*
X135300000Y-78200000D03*
X144550000Y-98450000D03*
X144000000Y-87400000D03*
X138000000Y-82000000D03*
X136000000Y-80000000D03*
X126725000Y-87325000D03*
X123000000Y-88050000D03*
X147050000Y-99200000D03*
X145350000Y-99200000D03*
X134400000Y-97850000D03*
X125000000Y-88050000D03*
X130000000Y-77700000D03*
X129000000Y-98400000D03*
X140000000Y-80000000D03*
X136500000Y-78600000D03*
X136100000Y-97300000D03*
X141050000Y-97000000D03*
X128900000Y-77200000D03*
X139500000Y-81400000D03*
X133500000Y-99150000D03*
X128100000Y-97400000D03*
X136000000Y-99150000D03*
X129990000Y-81700000D03*
X136500000Y-81400000D03*
X143650000Y-97450000D03*
X146200000Y-98450000D03*
X132500000Y-97350000D03*
X139500000Y-78600000D03*
X125500000Y-96950000D03*
X129800000Y-99150000D03*
X131500000Y-99150000D03*
X147400000Y-97400000D03*
X134600000Y-79400000D03*
X130650000Y-98400000D03*
X138000000Y-78100000D03*
G04 #@! TO.N,+3V3*
X136450000Y-91950000D03*
X133700000Y-88950000D03*
G04 #@! TO.N,/~{RESET}*
X133006988Y-83606988D03*
X131100000Y-85300000D03*
X129400000Y-86700000D03*
X131295000Y-80805000D03*
G04 #@! TO.N,/DRV1_ISENSE*
X125100000Y-89000000D03*
X123300000Y-90800000D03*
G04 #@! TO.N,/DRV2_IN1*
X133000000Y-89650000D03*
X135800000Y-92650000D03*
X142481413Y-98755413D03*
X139341560Y-99108440D03*
G04 #@! TO.N,/DRV2_ISENSE*
X137892295Y-97774525D03*
X131500000Y-91100000D03*
X135200000Y-94400000D03*
X140998045Y-97890552D03*
G04 #@! TO.N,/RX_CH2*
X127300000Y-80100000D03*
G04 #@! TO.N,/DRV1_IN1*
X126993913Y-98792913D03*
X122600000Y-97300000D03*
G04 #@! TO.N,/RX_CH1*
X126600000Y-80800000D03*
G04 #@! TO.N,/DRV2_IN2*
X140750000Y-98799000D03*
X138473000Y-98496305D03*
X132200000Y-90350000D03*
X135200000Y-93300000D03*
G04 #@! TD*
D18*
G04 #@! TO.N,/DRV2_IN1*
X141862826Y-99374000D02*
X142481413Y-98755413D01*
X139607119Y-99374000D02*
X141862826Y-99374000D01*
X139341560Y-99108440D02*
X139607119Y-99374000D01*
G04 #@! TO.N,+3V3*
X136450000Y-91950000D02*
X133700000Y-89200000D01*
X133700000Y-89200000D02*
X133700000Y-88950000D01*
D19*
G04 #@! TO.N,/~{RESET}*
X133006988Y-82516988D02*
X133006988Y-83606988D01*
X130100000Y-86000000D02*
X129400000Y-86700000D01*
X131100000Y-85300000D02*
X130400000Y-86000000D01*
X130400000Y-86000000D02*
X130100000Y-86000000D01*
X131295000Y-80805000D02*
X133006988Y-82516988D01*
D18*
G04 #@! TO.N,/DRV1_ISENSE*
X125100000Y-89000000D02*
X123300000Y-90800000D01*
G04 #@! TO.N,/DRV2_IN1*
X135800000Y-92650000D02*
X133000000Y-89850000D01*
X133000000Y-89850000D02*
X133000000Y-89650000D01*
G04 #@! TO.N,/DRV2_ISENSE*
X134800000Y-94400000D02*
X131500000Y-91100000D01*
X138008322Y-97890552D02*
X140998045Y-97890552D01*
X137892295Y-97774525D02*
X138008322Y-97890552D01*
X135200000Y-94400000D02*
X134800000Y-94400000D01*
D19*
G04 #@! TO.N,/RX_CH2*
X127300000Y-79700000D02*
X124560000Y-76960000D01*
X127300000Y-80100000D02*
X127300000Y-79700000D01*
X124560000Y-76960000D02*
X124000000Y-76960000D01*
D18*
G04 #@! TO.N,/DRV1_IN1*
X124092913Y-98792913D02*
X126993913Y-98792913D01*
X122600000Y-97300000D02*
X124092913Y-98792913D01*
D19*
G04 #@! TO.N,/RX_CH1*
X124500000Y-78300000D02*
X122800000Y-78300000D01*
X126600000Y-80800000D02*
X126600000Y-80400000D01*
X122800000Y-78300000D02*
X121460000Y-76960000D01*
X126600000Y-80400000D02*
X124500000Y-78300000D01*
D18*
G04 #@! TO.N,/DRV2_IN2*
X135200000Y-93300000D02*
X132250000Y-90350000D01*
X140447305Y-98496305D02*
X138473000Y-98496305D01*
X132250000Y-90350000D02*
X132200000Y-90350000D01*
X140750000Y-98799000D02*
X140447305Y-98496305D01*
G04 #@! TD*
G04 #@! TA.AperFunction,Conductor*
G04 #@! TO.N,GND*
G36*
X148505512Y-75501121D02*
G01*
X148600073Y-75511775D01*
X148621669Y-75516705D01*
X148706202Y-75546283D01*
X148726168Y-75555899D01*
X148764079Y-75579720D01*
X148801987Y-75603540D01*
X148819319Y-75617361D01*
X148882638Y-75680680D01*
X148896459Y-75698012D01*
X148944098Y-75773828D01*
X148953718Y-75793803D01*
X148983293Y-75878326D01*
X148988225Y-75899938D01*
X148998877Y-75994470D01*
X148999500Y-76005555D01*
X148999500Y-76562179D01*
X148980593Y-76620370D01*
X148931093Y-76656334D01*
X148869907Y-76656334D01*
X148820407Y-76620370D01*
X148809036Y-76600064D01*
X148798014Y-76573455D01*
X148798014Y-76573454D01*
X148699464Y-76425965D01*
X148574034Y-76300535D01*
X148426544Y-76201985D01*
X148262666Y-76134106D01*
X148088693Y-76099500D01*
X148088691Y-76099500D01*
X147911309Y-76099500D01*
X147911306Y-76099500D01*
X147737334Y-76134106D01*
X147737332Y-76134106D01*
X147573455Y-76201985D01*
X147573454Y-76201985D01*
X147425965Y-76300535D01*
X147300535Y-76425965D01*
X147201985Y-76573454D01*
X147201985Y-76573455D01*
X147134106Y-76737332D01*
X147134106Y-76737334D01*
X147099500Y-76911306D01*
X147099500Y-77088693D01*
X147134106Y-77262665D01*
X147134106Y-77262667D01*
X147201985Y-77426544D01*
X147201985Y-77426545D01*
X147300535Y-77574034D01*
X147300536Y-77574035D01*
X147425965Y-77699464D01*
X147573453Y-77798013D01*
X147737334Y-77865894D01*
X147911309Y-77900500D01*
X147911310Y-77900500D01*
X148088690Y-77900500D01*
X148088691Y-77900500D01*
X148262666Y-77865894D01*
X148426547Y-77798013D01*
X148574035Y-77699464D01*
X148699464Y-77574035D01*
X148798013Y-77426547D01*
X148809036Y-77399934D01*
X148848771Y-77353409D01*
X148908266Y-77339125D01*
X148964794Y-77362539D01*
X148996764Y-77414708D01*
X148999500Y-77437820D01*
X148999500Y-87562179D01*
X148980593Y-87620370D01*
X148931093Y-87656334D01*
X148869907Y-87656334D01*
X148820407Y-87620370D01*
X148809036Y-87600064D01*
X148798014Y-87573455D01*
X148798014Y-87573454D01*
X148699464Y-87425965D01*
X148574034Y-87300535D01*
X148426544Y-87201985D01*
X148262666Y-87134106D01*
X148088693Y-87099500D01*
X148088691Y-87099500D01*
X147911309Y-87099500D01*
X147911306Y-87099500D01*
X147737334Y-87134106D01*
X147737332Y-87134106D01*
X147573455Y-87201985D01*
X147573454Y-87201985D01*
X147425965Y-87300535D01*
X147300535Y-87425965D01*
X147201985Y-87573454D01*
X147201985Y-87573455D01*
X147134106Y-87737332D01*
X147134106Y-87737334D01*
X147099500Y-87911306D01*
X147099500Y-88088693D01*
X147134106Y-88262665D01*
X147134106Y-88262667D01*
X147201985Y-88426544D01*
X147201985Y-88426545D01*
X147273523Y-88533608D01*
X147300536Y-88574035D01*
X147425965Y-88699464D01*
X147573453Y-88798013D01*
X147573454Y-88798013D01*
X147573455Y-88798014D01*
X147594701Y-88806814D01*
X147737334Y-88865894D01*
X147911309Y-88900500D01*
X147911310Y-88900500D01*
X148088690Y-88900500D01*
X148088691Y-88900500D01*
X148262666Y-88865894D01*
X148426547Y-88798013D01*
X148574035Y-88699464D01*
X148699464Y-88574035D01*
X148798013Y-88426547D01*
X148809036Y-88399934D01*
X148848771Y-88353409D01*
X148908266Y-88339125D01*
X148964794Y-88362539D01*
X148996764Y-88414708D01*
X148999500Y-88437820D01*
X148999500Y-98062179D01*
X148980593Y-98120370D01*
X148931093Y-98156334D01*
X148869907Y-98156334D01*
X148820407Y-98120370D01*
X148809036Y-98100064D01*
X148798014Y-98073455D01*
X148798014Y-98073454D01*
X148699464Y-97925965D01*
X148574034Y-97800535D01*
X148426544Y-97701985D01*
X148262666Y-97634106D01*
X148088693Y-97599500D01*
X148088691Y-97599500D01*
X147911309Y-97599500D01*
X147911306Y-97599500D01*
X147737334Y-97634106D01*
X147737332Y-97634106D01*
X147573455Y-97701985D01*
X147573454Y-97701985D01*
X147425965Y-97800535D01*
X147300535Y-97925965D01*
X147201985Y-98073454D01*
X147201985Y-98073455D01*
X147134106Y-98237332D01*
X147134106Y-98237334D01*
X147099500Y-98411306D01*
X147099500Y-98588693D01*
X147134106Y-98762665D01*
X147134106Y-98762667D01*
X147201985Y-98926544D01*
X147201985Y-98926545D01*
X147292980Y-99062727D01*
X147300536Y-99074035D01*
X147425965Y-99199464D01*
X147573453Y-99298013D01*
X147573454Y-99298013D01*
X147573455Y-99298014D01*
X147600064Y-99309036D01*
X147646590Y-99348772D01*
X147660874Y-99408267D01*
X147637459Y-99464795D01*
X147585290Y-99496765D01*
X147562179Y-99499500D01*
X142436661Y-99499500D01*
X142414613Y-99492336D01*
X142391716Y-99488710D01*
X142386067Y-99483061D01*
X142378470Y-99480593D01*
X142364842Y-99461836D01*
X142348451Y-99445445D01*
X142347201Y-99437555D01*
X142342506Y-99431093D01*
X142342506Y-99407907D01*
X142338880Y-99385013D01*
X142342506Y-99377896D01*
X142342506Y-99369907D01*
X142366657Y-99330496D01*
X142412244Y-99284909D01*
X142466761Y-99257132D01*
X142482248Y-99255913D01*
X142547303Y-99255913D01*
X142547305Y-99255913D01*
X142674599Y-99221805D01*
X142674601Y-99221803D01*
X142674603Y-99221803D01*
X142788722Y-99155916D01*
X142788722Y-99155915D01*
X142788727Y-99155913D01*
X142881913Y-99062727D01*
X142890831Y-99047281D01*
X142947803Y-98948603D01*
X142947803Y-98948601D01*
X142947805Y-98948599D01*
X142981913Y-98821305D01*
X142981913Y-98689521D01*
X142947805Y-98562227D01*
X142947803Y-98562224D01*
X142947803Y-98562222D01*
X142881916Y-98448103D01*
X142881914Y-98448101D01*
X142881913Y-98448099D01*
X142788727Y-98354913D01*
X142788724Y-98354911D01*
X142788722Y-98354909D01*
X142674602Y-98289022D01*
X142674604Y-98289022D01*
X142622365Y-98275025D01*
X142547305Y-98254913D01*
X142415521Y-98254913D01*
X142340461Y-98275025D01*
X142288222Y-98289022D01*
X142174103Y-98354909D01*
X142080909Y-98448103D01*
X142015022Y-98562222D01*
X141980913Y-98689522D01*
X141980913Y-98754578D01*
X141962006Y-98812769D01*
X141951917Y-98824582D01*
X141756995Y-99019504D01*
X141702478Y-99047281D01*
X141686991Y-99048500D01*
X141330322Y-99048500D01*
X141272131Y-99029593D01*
X141236167Y-98980093D01*
X141234695Y-98923878D01*
X141241948Y-98896808D01*
X141250500Y-98864892D01*
X141250500Y-98733108D01*
X141216392Y-98605814D01*
X141216390Y-98605811D01*
X141216390Y-98605809D01*
X141151838Y-98494003D01*
X141139116Y-98434155D01*
X141164002Y-98378259D01*
X141188074Y-98358766D01*
X141191228Y-98356944D01*
X141191231Y-98356944D01*
X141305359Y-98291052D01*
X141398545Y-98197866D01*
X141398548Y-98197861D01*
X141464435Y-98083742D01*
X141464435Y-98083740D01*
X141464437Y-98083738D01*
X141498545Y-97956444D01*
X141498545Y-97824660D01*
X141464437Y-97697366D01*
X141464435Y-97697363D01*
X141464435Y-97697361D01*
X141398548Y-97583242D01*
X141398546Y-97583240D01*
X141398545Y-97583238D01*
X141305359Y-97490052D01*
X141305356Y-97490050D01*
X141305354Y-97490048D01*
X141191234Y-97424161D01*
X141191236Y-97424161D01*
X141141844Y-97410927D01*
X141063937Y-97390052D01*
X140932153Y-97390052D01*
X140854245Y-97410927D01*
X140804854Y-97424161D01*
X140690735Y-97490048D01*
X140690729Y-97490052D01*
X140644726Y-97536056D01*
X140590209Y-97563833D01*
X140574723Y-97565052D01*
X138406441Y-97565052D01*
X138348250Y-97546145D01*
X138320706Y-97515554D01*
X138292795Y-97467211D01*
X138199609Y-97374025D01*
X138199606Y-97374023D01*
X138199604Y-97374021D01*
X138085484Y-97308134D01*
X138085486Y-97308134D01*
X138036094Y-97294900D01*
X137958187Y-97274025D01*
X137826403Y-97274025D01*
X137748495Y-97294900D01*
X137699104Y-97308134D01*
X137584985Y-97374021D01*
X137491791Y-97467215D01*
X137425904Y-97581335D01*
X137423421Y-97587331D01*
X137422105Y-97586785D01*
X137392759Y-97631971D01*
X137335636Y-97653895D01*
X137292576Y-97646495D01*
X137262664Y-97634105D01*
X137088693Y-97599500D01*
X137088691Y-97599500D01*
X136911309Y-97599500D01*
X136911306Y-97599500D01*
X136737334Y-97634106D01*
X136737332Y-97634106D01*
X136573455Y-97701985D01*
X136573454Y-97701985D01*
X136425965Y-97800535D01*
X136300535Y-97925965D01*
X136201985Y-98073454D01*
X136201985Y-98073455D01*
X136134106Y-98237332D01*
X136134106Y-98237334D01*
X136099500Y-98411306D01*
X136099500Y-98588693D01*
X136134106Y-98762665D01*
X136134106Y-98762667D01*
X136201985Y-98926544D01*
X136201985Y-98926545D01*
X136292980Y-99062727D01*
X136300536Y-99074035D01*
X136425965Y-99199464D01*
X136573453Y-99298013D01*
X136573454Y-99298013D01*
X136573455Y-99298014D01*
X136600064Y-99309036D01*
X136646590Y-99348772D01*
X136660874Y-99408267D01*
X136637459Y-99464795D01*
X136585290Y-99496765D01*
X136562179Y-99499500D01*
X132937821Y-99499500D01*
X132879630Y-99480593D01*
X132843666Y-99431093D01*
X132843666Y-99369907D01*
X132879630Y-99320407D01*
X132899936Y-99309036D01*
X132917824Y-99301626D01*
X132926547Y-99298013D01*
X133074035Y-99199464D01*
X133199464Y-99074035D01*
X133298013Y-98926547D01*
X133365894Y-98762666D01*
X133400500Y-98588691D01*
X133400500Y-98411309D01*
X133365894Y-98237334D01*
X133324525Y-98137459D01*
X133298014Y-98073455D01*
X133298014Y-98073454D01*
X133199464Y-97925965D01*
X133074034Y-97800535D01*
X132926544Y-97701985D01*
X132762666Y-97634106D01*
X132588693Y-97599500D01*
X132588691Y-97599500D01*
X132411309Y-97599500D01*
X132411306Y-97599500D01*
X132237334Y-97634106D01*
X132237332Y-97634106D01*
X132073455Y-97701985D01*
X132073454Y-97701985D01*
X131925965Y-97800535D01*
X131800535Y-97925965D01*
X131701985Y-98073454D01*
X131701985Y-98073455D01*
X131634106Y-98237332D01*
X131634106Y-98237334D01*
X131599500Y-98411306D01*
X131599500Y-98588693D01*
X131634106Y-98762665D01*
X131634106Y-98762667D01*
X131701985Y-98926544D01*
X131701985Y-98926545D01*
X131792980Y-99062727D01*
X131800536Y-99074035D01*
X131925965Y-99199464D01*
X132073453Y-99298013D01*
X132073454Y-99298013D01*
X132073455Y-99298014D01*
X132100064Y-99309036D01*
X132146590Y-99348772D01*
X132160874Y-99408267D01*
X132137459Y-99464795D01*
X132085290Y-99496765D01*
X132062179Y-99499500D01*
X121937821Y-99499500D01*
X121879630Y-99480593D01*
X121843666Y-99431093D01*
X121843666Y-99369907D01*
X121879630Y-99320407D01*
X121899936Y-99309036D01*
X121917824Y-99301626D01*
X121926547Y-99298013D01*
X122074035Y-99199464D01*
X122199464Y-99074035D01*
X122298013Y-98926547D01*
X122365894Y-98762666D01*
X122400500Y-98588691D01*
X122400500Y-98411309D01*
X122365894Y-98237334D01*
X122324525Y-98137459D01*
X122298014Y-98073455D01*
X122298014Y-98073454D01*
X122199464Y-97925965D01*
X122074034Y-97800535D01*
X121926544Y-97701985D01*
X121762666Y-97634106D01*
X121588693Y-97599500D01*
X121588691Y-97599500D01*
X121411309Y-97599500D01*
X121411306Y-97599500D01*
X121237334Y-97634106D01*
X121237332Y-97634106D01*
X121073455Y-97701985D01*
X121073454Y-97701985D01*
X120925965Y-97800535D01*
X120800535Y-97925965D01*
X120701985Y-98073454D01*
X120701985Y-98073455D01*
X120690964Y-98100064D01*
X120651228Y-98146590D01*
X120591733Y-98160874D01*
X120535205Y-98137459D01*
X120503235Y-98085290D01*
X120500500Y-98062179D01*
X120500500Y-97234108D01*
X122099500Y-97234108D01*
X122099500Y-97365892D01*
X122105974Y-97390052D01*
X122133609Y-97493190D01*
X122199496Y-97607309D01*
X122199498Y-97607311D01*
X122199500Y-97607314D01*
X122292686Y-97700500D01*
X122292688Y-97700501D01*
X122292690Y-97700503D01*
X122406810Y-97766390D01*
X122406808Y-97766390D01*
X122406812Y-97766391D01*
X122406814Y-97766392D01*
X122534108Y-97800500D01*
X122599165Y-97800500D01*
X122657356Y-97819407D01*
X122669169Y-97829496D01*
X123250980Y-98411306D01*
X123832446Y-98992772D01*
X123832448Y-98992775D01*
X123893051Y-99053378D01*
X123914198Y-99065587D01*
X123967274Y-99096231D01*
X124050060Y-99118413D01*
X124135766Y-99118413D01*
X126570591Y-99118413D01*
X126628782Y-99137320D01*
X126640594Y-99147409D01*
X126686597Y-99193412D01*
X126686603Y-99193416D01*
X126800723Y-99259303D01*
X126800721Y-99259303D01*
X126800725Y-99259304D01*
X126800727Y-99259305D01*
X126928021Y-99293413D01*
X126928023Y-99293413D01*
X127059803Y-99293413D01*
X127059805Y-99293413D01*
X127187099Y-99259305D01*
X127187101Y-99259303D01*
X127187103Y-99259303D01*
X127301222Y-99193416D01*
X127301222Y-99193415D01*
X127301227Y-99193413D01*
X127394413Y-99100227D01*
X127394509Y-99100061D01*
X127460303Y-98986103D01*
X127460303Y-98986101D01*
X127460305Y-98986099D01*
X127494413Y-98858805D01*
X127494413Y-98727021D01*
X127460305Y-98599727D01*
X127460303Y-98599724D01*
X127460303Y-98599722D01*
X127394416Y-98485603D01*
X127394414Y-98485601D01*
X127394413Y-98485599D01*
X127301227Y-98392413D01*
X127301224Y-98392411D01*
X127301222Y-98392409D01*
X127187102Y-98326522D01*
X127187104Y-98326522D01*
X127137712Y-98313288D01*
X127059805Y-98292413D01*
X126928021Y-98292413D01*
X126850113Y-98313288D01*
X126800722Y-98326522D01*
X126686603Y-98392409D01*
X126686597Y-98392413D01*
X126640594Y-98438417D01*
X126586077Y-98466194D01*
X126570591Y-98467413D01*
X124268747Y-98467413D01*
X124210556Y-98448506D01*
X124198743Y-98438417D01*
X123129496Y-97369169D01*
X123101719Y-97314652D01*
X123100500Y-97299165D01*
X123100500Y-97234109D01*
X123100500Y-97234108D01*
X123066392Y-97106814D01*
X123066390Y-97106811D01*
X123066390Y-97106809D01*
X123000503Y-96992690D01*
X123000501Y-96992688D01*
X123000500Y-96992686D01*
X122907314Y-96899500D01*
X122907311Y-96899498D01*
X122907309Y-96899496D01*
X122793189Y-96833609D01*
X122793191Y-96833609D01*
X122743799Y-96820375D01*
X122665892Y-96799500D01*
X122534108Y-96799500D01*
X122456200Y-96820375D01*
X122406809Y-96833609D01*
X122292690Y-96899496D01*
X122199496Y-96992690D01*
X122133609Y-97106809D01*
X122133608Y-97106814D01*
X122099500Y-97234108D01*
X120500500Y-97234108D01*
X120500500Y-92463706D01*
X122549500Y-92463706D01*
X122549500Y-94536294D01*
X122555152Y-94599862D01*
X122559796Y-94652096D01*
X122559797Y-94652103D01*
X122614091Y-94841855D01*
X122614092Y-94841859D01*
X122614094Y-94841863D01*
X122705481Y-95016813D01*
X122830214Y-95169786D01*
X122983187Y-95294519D01*
X123158137Y-95385906D01*
X123347902Y-95440204D01*
X123463706Y-95450500D01*
X123463710Y-95450500D01*
X125536290Y-95450500D01*
X125536294Y-95450500D01*
X125652098Y-95440204D01*
X125841863Y-95385906D01*
X126016813Y-95294519D01*
X126169786Y-95169786D01*
X126294519Y-95016813D01*
X126385906Y-94841863D01*
X126440204Y-94652098D01*
X126450500Y-94536294D01*
X126450500Y-93372156D01*
X127549500Y-93372156D01*
X127549500Y-93627843D01*
X127582873Y-93881332D01*
X127582873Y-93881337D01*
X127649050Y-94128314D01*
X127746892Y-94364527D01*
X127746894Y-94364531D01*
X127746896Y-94364535D01*
X127874739Y-94585965D01*
X127874741Y-94585968D01*
X128030384Y-94788806D01*
X128030386Y-94788808D01*
X128030390Y-94788813D01*
X128211187Y-94969610D01*
X128211191Y-94969613D01*
X128211193Y-94969615D01*
X128414031Y-95125258D01*
X128414035Y-95125261D01*
X128635465Y-95253104D01*
X128871687Y-95350950D01*
X129118660Y-95417126D01*
X129372157Y-95450500D01*
X129372158Y-95450500D01*
X129627842Y-95450500D01*
X129627843Y-95450500D01*
X129881340Y-95417126D01*
X130128313Y-95350950D01*
X130364535Y-95253104D01*
X130585965Y-95125261D01*
X130644620Y-95080253D01*
X132699500Y-95080253D01*
X132699500Y-96719746D01*
X132699501Y-96719758D01*
X132711132Y-96778227D01*
X132711134Y-96778233D01*
X132748135Y-96833608D01*
X132755448Y-96844552D01*
X132821769Y-96888867D01*
X132866231Y-96897711D01*
X132880241Y-96900498D01*
X132880246Y-96900498D01*
X132880252Y-96900500D01*
X132880253Y-96900500D01*
X134519747Y-96900500D01*
X134519748Y-96900500D01*
X134578231Y-96888867D01*
X134644552Y-96844552D01*
X134688867Y-96778231D01*
X134700500Y-96719748D01*
X134700500Y-95080252D01*
X134688867Y-95021769D01*
X134644552Y-94955448D01*
X134644548Y-94955445D01*
X134578233Y-94911134D01*
X134578231Y-94911133D01*
X134578228Y-94911132D01*
X134578227Y-94911132D01*
X134519758Y-94899501D01*
X134519748Y-94899500D01*
X132880252Y-94899500D01*
X132880251Y-94899500D01*
X132880241Y-94899501D01*
X132821772Y-94911132D01*
X132821766Y-94911134D01*
X132755451Y-94955445D01*
X132755445Y-94955451D01*
X132711134Y-95021766D01*
X132711132Y-95021772D01*
X132699501Y-95080241D01*
X132699500Y-95080253D01*
X130644620Y-95080253D01*
X130687610Y-95047265D01*
X130753319Y-94996846D01*
X130788806Y-94969615D01*
X130788813Y-94969610D01*
X130969610Y-94788813D01*
X131125261Y-94585965D01*
X131253104Y-94364535D01*
X131350950Y-94128313D01*
X131417126Y-93881340D01*
X131450500Y-93627843D01*
X131450500Y-93372157D01*
X131417126Y-93118660D01*
X131350950Y-92871687D01*
X131279904Y-92700165D01*
X131253107Y-92635472D01*
X131253106Y-92635471D01*
X131253104Y-92635465D01*
X131125261Y-92414035D01*
X130969610Y-92211187D01*
X130788813Y-92030390D01*
X130788808Y-92030386D01*
X130788806Y-92030384D01*
X130585968Y-91874741D01*
X130585965Y-91874739D01*
X130364535Y-91746896D01*
X130364531Y-91746894D01*
X130364527Y-91746892D01*
X130128314Y-91649050D01*
X129997844Y-91614091D01*
X129881340Y-91582874D01*
X129881337Y-91582873D01*
X129881335Y-91582873D01*
X129627843Y-91549500D01*
X129372157Y-91549500D01*
X129372156Y-91549500D01*
X129118667Y-91582873D01*
X129118662Y-91582873D01*
X128871685Y-91649050D01*
X128635472Y-91746892D01*
X128414031Y-91874741D01*
X128211193Y-92030384D01*
X128030384Y-92211193D01*
X127874741Y-92414031D01*
X127746892Y-92635472D01*
X127649050Y-92871685D01*
X127582873Y-93118662D01*
X127582873Y-93118667D01*
X127549500Y-93372156D01*
X126450500Y-93372156D01*
X126450500Y-92463706D01*
X126440204Y-92347902D01*
X126385906Y-92158137D01*
X126294519Y-91983187D01*
X126169786Y-91830214D01*
X126016813Y-91705481D01*
X125841863Y-91614094D01*
X125841859Y-91614092D01*
X125841855Y-91614091D01*
X125652103Y-91559797D01*
X125652099Y-91559796D01*
X125652098Y-91559796D01*
X125536294Y-91549500D01*
X123463706Y-91549500D01*
X123347902Y-91559796D01*
X123347901Y-91559796D01*
X123347896Y-91559797D01*
X123158144Y-91614091D01*
X123158135Y-91614095D01*
X122983187Y-91705481D01*
X122830217Y-91830211D01*
X122830211Y-91830217D01*
X122705481Y-91983187D01*
X122614095Y-92158135D01*
X122614091Y-92158144D01*
X122559797Y-92347896D01*
X122559796Y-92347901D01*
X122559796Y-92347902D01*
X122549500Y-92463706D01*
X120500500Y-92463706D01*
X120500500Y-90734108D01*
X122799500Y-90734108D01*
X122799500Y-90865892D01*
X122808115Y-90898044D01*
X122833609Y-90993190D01*
X122899496Y-91107309D01*
X122899498Y-91107311D01*
X122899500Y-91107314D01*
X122992686Y-91200500D01*
X122992688Y-91200501D01*
X122992690Y-91200503D01*
X123106810Y-91266390D01*
X123106808Y-91266390D01*
X123106812Y-91266391D01*
X123106814Y-91266392D01*
X123234108Y-91300500D01*
X123234110Y-91300500D01*
X123365890Y-91300500D01*
X123365892Y-91300500D01*
X123493186Y-91266392D01*
X123493188Y-91266390D01*
X123493190Y-91266390D01*
X123607309Y-91200503D01*
X123607309Y-91200502D01*
X123607314Y-91200500D01*
X123700500Y-91107314D01*
X123742766Y-91034108D01*
X130999500Y-91034108D01*
X130999500Y-91165892D01*
X131008773Y-91200500D01*
X131033609Y-91293190D01*
X131099496Y-91407309D01*
X131099498Y-91407311D01*
X131099500Y-91407314D01*
X131192686Y-91500500D01*
X131225117Y-91519224D01*
X131237528Y-91527708D01*
X131250088Y-91537777D01*
X131710078Y-91776907D01*
X131734412Y-91794739D01*
X134539533Y-94599859D01*
X134539535Y-94599862D01*
X134600138Y-94660465D01*
X134634786Y-94680469D01*
X134674361Y-94703318D01*
X134757144Y-94725500D01*
X134757146Y-94725501D01*
X134757147Y-94725501D01*
X134776679Y-94725501D01*
X134834870Y-94744408D01*
X134846682Y-94754497D01*
X134892684Y-94800499D01*
X134892690Y-94800503D01*
X135006810Y-94866390D01*
X135006808Y-94866390D01*
X135006812Y-94866391D01*
X135006814Y-94866392D01*
X135134108Y-94900500D01*
X135134110Y-94900500D01*
X135265890Y-94900500D01*
X135265892Y-94900500D01*
X135393186Y-94866392D01*
X135393188Y-94866390D01*
X135393190Y-94866390D01*
X135507309Y-94800503D01*
X135507309Y-94800502D01*
X135507314Y-94800500D01*
X135600500Y-94707314D01*
X135615999Y-94680469D01*
X135666390Y-94593190D01*
X135666390Y-94593188D01*
X135666392Y-94593186D01*
X135700500Y-94465892D01*
X135700500Y-94334108D01*
X135666392Y-94206814D01*
X135666390Y-94206811D01*
X135666390Y-94206809D01*
X135600503Y-94092690D01*
X135600501Y-94092688D01*
X135600500Y-94092686D01*
X135507314Y-93999500D01*
X135507311Y-93999498D01*
X135507309Y-93999496D01*
X135396873Y-93935736D01*
X135355932Y-93890267D01*
X135349536Y-93829417D01*
X135380129Y-93776429D01*
X135396873Y-93764264D01*
X135507309Y-93700503D01*
X135507309Y-93700502D01*
X135507314Y-93700500D01*
X135600500Y-93607314D01*
X135666392Y-93493186D01*
X135700500Y-93365892D01*
X135700500Y-93249500D01*
X135719407Y-93191309D01*
X135768907Y-93155345D01*
X135799500Y-93150500D01*
X135865890Y-93150500D01*
X135865892Y-93150500D01*
X135993186Y-93116392D01*
X135993188Y-93116390D01*
X135993190Y-93116390D01*
X136107309Y-93050503D01*
X136107309Y-93050502D01*
X136107314Y-93050500D01*
X136200500Y-92957314D01*
X136266392Y-92843186D01*
X136300500Y-92715892D01*
X136300500Y-92584108D01*
X136298092Y-92575121D01*
X136301295Y-92514021D01*
X136339800Y-92466472D01*
X136349138Y-92463706D01*
X138049500Y-92463706D01*
X138049500Y-94536294D01*
X138055152Y-94599862D01*
X138059796Y-94652096D01*
X138059797Y-94652103D01*
X138114091Y-94841855D01*
X138114092Y-94841859D01*
X138114094Y-94841863D01*
X138205481Y-95016813D01*
X138330214Y-95169786D01*
X138483187Y-95294519D01*
X138658137Y-95385906D01*
X138847902Y-95440204D01*
X138963706Y-95450500D01*
X138963710Y-95450500D01*
X141036290Y-95450500D01*
X141036294Y-95450500D01*
X141152098Y-95440204D01*
X141341863Y-95385906D01*
X141516813Y-95294519D01*
X141669786Y-95169786D01*
X141794519Y-95016813D01*
X141885906Y-94841863D01*
X141940204Y-94652098D01*
X141950500Y-94536294D01*
X141950500Y-93372156D01*
X143049500Y-93372156D01*
X143049500Y-93627843D01*
X143082873Y-93881332D01*
X143082873Y-93881337D01*
X143149050Y-94128314D01*
X143246892Y-94364527D01*
X143246894Y-94364531D01*
X143246896Y-94364535D01*
X143374739Y-94585965D01*
X143374741Y-94585968D01*
X143530384Y-94788806D01*
X143530386Y-94788808D01*
X143530390Y-94788813D01*
X143711187Y-94969610D01*
X143711191Y-94969613D01*
X143711193Y-94969615D01*
X143914031Y-95125258D01*
X143914035Y-95125261D01*
X144135465Y-95253104D01*
X144371687Y-95350950D01*
X144618660Y-95417126D01*
X144872157Y-95450500D01*
X144872158Y-95450500D01*
X145127842Y-95450500D01*
X145127843Y-95450500D01*
X145381340Y-95417126D01*
X145628313Y-95350950D01*
X145864535Y-95253104D01*
X146085965Y-95125261D01*
X146288813Y-94969610D01*
X146469610Y-94788813D01*
X146625261Y-94585965D01*
X146753104Y-94364535D01*
X146850950Y-94128313D01*
X146917126Y-93881340D01*
X146950500Y-93627843D01*
X146950500Y-93372157D01*
X146917126Y-93118660D01*
X146850950Y-92871687D01*
X146779904Y-92700165D01*
X146753107Y-92635472D01*
X146753106Y-92635471D01*
X146753104Y-92635465D01*
X146625261Y-92414035D01*
X146469610Y-92211187D01*
X146288813Y-92030390D01*
X146288808Y-92030386D01*
X146288806Y-92030384D01*
X146085968Y-91874741D01*
X146085965Y-91874739D01*
X145864535Y-91746896D01*
X145864531Y-91746894D01*
X145864527Y-91746892D01*
X145628314Y-91649050D01*
X145497844Y-91614091D01*
X145381340Y-91582874D01*
X145381337Y-91582873D01*
X145381335Y-91582873D01*
X145127843Y-91549500D01*
X144872157Y-91549500D01*
X144872156Y-91549500D01*
X144618667Y-91582873D01*
X144618662Y-91582873D01*
X144371685Y-91649050D01*
X144135472Y-91746892D01*
X143914031Y-91874741D01*
X143711193Y-92030384D01*
X143530384Y-92211193D01*
X143374741Y-92414031D01*
X143246892Y-92635472D01*
X143149050Y-92871685D01*
X143082873Y-93118662D01*
X143082873Y-93118667D01*
X143049500Y-93372156D01*
X141950500Y-93372156D01*
X141950500Y-92463706D01*
X141940204Y-92347902D01*
X141885906Y-92158137D01*
X141794519Y-91983187D01*
X141669786Y-91830214D01*
X141516813Y-91705481D01*
X141341863Y-91614094D01*
X141341859Y-91614092D01*
X141341855Y-91614091D01*
X141152103Y-91559797D01*
X141152099Y-91559796D01*
X141152098Y-91559796D01*
X141036294Y-91549500D01*
X138963706Y-91549500D01*
X138847902Y-91559796D01*
X138847901Y-91559796D01*
X138847896Y-91559797D01*
X138658144Y-91614091D01*
X138658135Y-91614095D01*
X138483187Y-91705481D01*
X138330217Y-91830211D01*
X138330211Y-91830217D01*
X138205481Y-91983187D01*
X138114095Y-92158135D01*
X138114091Y-92158144D01*
X138059797Y-92347896D01*
X138059796Y-92347901D01*
X138059796Y-92347902D01*
X138049500Y-92463706D01*
X136349138Y-92463706D01*
X136393719Y-92450500D01*
X136515890Y-92450500D01*
X136515892Y-92450500D01*
X136643186Y-92416392D01*
X136643188Y-92416390D01*
X136643190Y-92416390D01*
X136713538Y-92375775D01*
X136757309Y-92350503D01*
X136757309Y-92350502D01*
X136757314Y-92350500D01*
X136850500Y-92257314D01*
X136886175Y-92195524D01*
X136916390Y-92143190D01*
X136916390Y-92143188D01*
X136916392Y-92143186D01*
X136950500Y-92015892D01*
X136950500Y-91884108D01*
X136916392Y-91756814D01*
X136916390Y-91756811D01*
X136916390Y-91756809D01*
X136850503Y-91642690D01*
X136850501Y-91642688D01*
X136850500Y-91642686D01*
X136757314Y-91549500D01*
X136757311Y-91549498D01*
X136757309Y-91549496D01*
X136643189Y-91483609D01*
X136643191Y-91483609D01*
X136593799Y-91470375D01*
X136515892Y-91449500D01*
X136515890Y-91449500D01*
X136450835Y-91449500D01*
X136392644Y-91430593D01*
X136380831Y-91420504D01*
X134193520Y-89233193D01*
X134165743Y-89178676D01*
X134167896Y-89137569D01*
X134200500Y-89015892D01*
X134200500Y-88884108D01*
X134166392Y-88756814D01*
X134166390Y-88756811D01*
X134166390Y-88756809D01*
X134100503Y-88642690D01*
X134100501Y-88642688D01*
X134100500Y-88642686D01*
X134007314Y-88549500D01*
X134007311Y-88549498D01*
X134007309Y-88549496D01*
X133893189Y-88483609D01*
X133893191Y-88483609D01*
X133843799Y-88470375D01*
X133765892Y-88449500D01*
X133634108Y-88449500D01*
X133556200Y-88470375D01*
X133506809Y-88483609D01*
X133392690Y-88549496D01*
X133299496Y-88642690D01*
X133233609Y-88756809D01*
X133220212Y-88806809D01*
X133204381Y-88865894D01*
X133199500Y-88884109D01*
X133199500Y-89015896D01*
X133204023Y-89032776D01*
X133200819Y-89093877D01*
X133162313Y-89141426D01*
X133103212Y-89157260D01*
X133082776Y-89154023D01*
X133065896Y-89149500D01*
X133065892Y-89149500D01*
X132934108Y-89149500D01*
X132856200Y-89170375D01*
X132806809Y-89183609D01*
X132692690Y-89249496D01*
X132599496Y-89342690D01*
X132533609Y-89456809D01*
X132521902Y-89500500D01*
X132504897Y-89563968D01*
X132499500Y-89584109D01*
X132499500Y-89715892D01*
X132511758Y-89761642D01*
X132508555Y-89822744D01*
X132470049Y-89870293D01*
X132410948Y-89886128D01*
X132390513Y-89882891D01*
X132265892Y-89849500D01*
X132134108Y-89849500D01*
X132056507Y-89870293D01*
X132006809Y-89883609D01*
X131892690Y-89949496D01*
X131799496Y-90042690D01*
X131733609Y-90156809D01*
X131699500Y-90284109D01*
X131699500Y-90415891D01*
X131718457Y-90486642D01*
X131715254Y-90547743D01*
X131676749Y-90595293D01*
X131617648Y-90611128D01*
X131597208Y-90607891D01*
X131593170Y-90606809D01*
X131565892Y-90599500D01*
X131434108Y-90599500D01*
X131356200Y-90620375D01*
X131306809Y-90633609D01*
X131192690Y-90699496D01*
X131099496Y-90792690D01*
X131033609Y-90906809D01*
X131033608Y-90906814D01*
X130999500Y-91034108D01*
X123742766Y-91034108D01*
X123766392Y-90993186D01*
X123800500Y-90865892D01*
X123800500Y-90800835D01*
X123819407Y-90742644D01*
X123829496Y-90730831D01*
X125030831Y-89529496D01*
X125085348Y-89501719D01*
X125100835Y-89500500D01*
X125165890Y-89500500D01*
X125165892Y-89500500D01*
X125293186Y-89466392D01*
X125293188Y-89466390D01*
X125293190Y-89466390D01*
X125407309Y-89400503D01*
X125407309Y-89400502D01*
X125407314Y-89400500D01*
X125500500Y-89307314D01*
X125533879Y-89249500D01*
X125566390Y-89193190D01*
X125566390Y-89193188D01*
X125566392Y-89193186D01*
X125600500Y-89065892D01*
X125600500Y-88934108D01*
X125566392Y-88806814D01*
X125566390Y-88806811D01*
X125566390Y-88806809D01*
X125500503Y-88692690D01*
X125500501Y-88692688D01*
X125500500Y-88692686D01*
X125407314Y-88599500D01*
X125407311Y-88599498D01*
X125407309Y-88599496D01*
X125293189Y-88533609D01*
X125293191Y-88533609D01*
X125243799Y-88520375D01*
X125165892Y-88499500D01*
X125034108Y-88499500D01*
X124956200Y-88520375D01*
X124906809Y-88533609D01*
X124792690Y-88599496D01*
X124699496Y-88692690D01*
X124633609Y-88806809D01*
X124633608Y-88806814D01*
X124608506Y-88900499D01*
X124599500Y-88934109D01*
X124599500Y-88999165D01*
X124580593Y-89057356D01*
X124570504Y-89069169D01*
X123369169Y-90270504D01*
X123314652Y-90298281D01*
X123299165Y-90299500D01*
X123234108Y-90299500D01*
X123156200Y-90320375D01*
X123106809Y-90333609D01*
X122992690Y-90399496D01*
X122899496Y-90492690D01*
X122833609Y-90606809D01*
X122826428Y-90633609D01*
X122799500Y-90734108D01*
X120500500Y-90734108D01*
X120500500Y-86634108D01*
X128899500Y-86634108D01*
X128899500Y-86765892D01*
X128922291Y-86850949D01*
X128933609Y-86893190D01*
X128999496Y-87007309D01*
X128999498Y-87007311D01*
X128999500Y-87007314D01*
X129092686Y-87100500D01*
X129092688Y-87100501D01*
X129092690Y-87100503D01*
X129206810Y-87166390D01*
X129206808Y-87166390D01*
X129206812Y-87166391D01*
X129206814Y-87166392D01*
X129334108Y-87200500D01*
X129334110Y-87200500D01*
X129465890Y-87200500D01*
X129465892Y-87200500D01*
X129593186Y-87166392D01*
X129593188Y-87166390D01*
X129593190Y-87166390D01*
X129707309Y-87100503D01*
X129707309Y-87100502D01*
X129707314Y-87100500D01*
X129800500Y-87007314D01*
X129866392Y-86893186D01*
X129900500Y-86765892D01*
X129900500Y-86736190D01*
X129919407Y-86677999D01*
X129929496Y-86666186D01*
X130216186Y-86379496D01*
X130270703Y-86351719D01*
X130286190Y-86350500D01*
X130446142Y-86350500D01*
X130446144Y-86350500D01*
X130535288Y-86326614D01*
X130615212Y-86280470D01*
X130840700Y-86054981D01*
X131066187Y-85829496D01*
X131120703Y-85801719D01*
X131136190Y-85800500D01*
X131165890Y-85800500D01*
X131165892Y-85800500D01*
X131293186Y-85766392D01*
X131293188Y-85766390D01*
X131293190Y-85766390D01*
X131407309Y-85700503D01*
X131407309Y-85700502D01*
X131407314Y-85700500D01*
X131500500Y-85607314D01*
X131566392Y-85493186D01*
X131600500Y-85365892D01*
X131600500Y-85234108D01*
X131566392Y-85106814D01*
X131566390Y-85106811D01*
X131566390Y-85106809D01*
X131500503Y-84992690D01*
X131500501Y-84992688D01*
X131500500Y-84992686D01*
X131407314Y-84899500D01*
X131407311Y-84899498D01*
X131407309Y-84899496D01*
X131359955Y-84872156D01*
X136049500Y-84872156D01*
X136049500Y-85127843D01*
X136082873Y-85381332D01*
X136082873Y-85381337D01*
X136149050Y-85628314D01*
X136246892Y-85864527D01*
X136246894Y-85864531D01*
X136246896Y-85864535D01*
X136374739Y-86085965D01*
X136374741Y-86085968D01*
X136530384Y-86288806D01*
X136530386Y-86288808D01*
X136530390Y-86288813D01*
X136711187Y-86469610D01*
X136711191Y-86469613D01*
X136711193Y-86469615D01*
X136759672Y-86506814D01*
X136914035Y-86625261D01*
X137135465Y-86753104D01*
X137371687Y-86850950D01*
X137618660Y-86917126D01*
X137872157Y-86950500D01*
X137872158Y-86950500D01*
X138127842Y-86950500D01*
X138127843Y-86950500D01*
X138381340Y-86917126D01*
X138628313Y-86850950D01*
X138864535Y-86753104D01*
X139085965Y-86625261D01*
X139288813Y-86469610D01*
X139469610Y-86288813D01*
X139625261Y-86085965D01*
X139753104Y-85864535D01*
X139850950Y-85628313D01*
X139917126Y-85381340D01*
X139950500Y-85127843D01*
X139950500Y-84872157D01*
X139917126Y-84618660D01*
X139850950Y-84371687D01*
X139753104Y-84135465D01*
X139625261Y-83914035D01*
X139625258Y-83914031D01*
X139469615Y-83711193D01*
X139469613Y-83711191D01*
X139469610Y-83711187D01*
X139288813Y-83530390D01*
X139288808Y-83530386D01*
X139288806Y-83530384D01*
X139085968Y-83374741D01*
X139085965Y-83374739D01*
X138864535Y-83246896D01*
X138864531Y-83246894D01*
X138864527Y-83246892D01*
X138628314Y-83149050D01*
X138519413Y-83119870D01*
X138381340Y-83082874D01*
X138381337Y-83082873D01*
X138381335Y-83082873D01*
X138127843Y-83049500D01*
X137872157Y-83049500D01*
X137872156Y-83049500D01*
X137618667Y-83082873D01*
X137618662Y-83082873D01*
X137371685Y-83149050D01*
X137135472Y-83246892D01*
X136914031Y-83374741D01*
X136711193Y-83530384D01*
X136530384Y-83711193D01*
X136374741Y-83914031D01*
X136246892Y-84135472D01*
X136149050Y-84371685D01*
X136082873Y-84618662D01*
X136082873Y-84618667D01*
X136049500Y-84872156D01*
X131359955Y-84872156D01*
X131293189Y-84833609D01*
X131293191Y-84833609D01*
X131243799Y-84820375D01*
X131165892Y-84799500D01*
X131034108Y-84799500D01*
X130956200Y-84820375D01*
X130906809Y-84833609D01*
X130792690Y-84899496D01*
X130699496Y-84992690D01*
X130633609Y-85106809D01*
X130599500Y-85234109D01*
X130599500Y-85263810D01*
X130580593Y-85322001D01*
X130570504Y-85333814D01*
X130283814Y-85620504D01*
X130229297Y-85648281D01*
X130213810Y-85649500D01*
X130053856Y-85649500D01*
X129999297Y-85664118D01*
X129964707Y-85673387D01*
X129884791Y-85719527D01*
X129884786Y-85719531D01*
X129433813Y-86170504D01*
X129379297Y-86198281D01*
X129363810Y-86199500D01*
X129334108Y-86199500D01*
X129256200Y-86220375D01*
X129206809Y-86233609D01*
X129092690Y-86299496D01*
X128999496Y-86392690D01*
X128933609Y-86506809D01*
X128933608Y-86506814D01*
X128899500Y-86634108D01*
X120500500Y-86634108D01*
X120500500Y-82872561D01*
X128594200Y-82872561D01*
X128594200Y-83029439D01*
X128634803Y-83180970D01*
X128713241Y-83316830D01*
X128824170Y-83427759D01*
X128960030Y-83506197D01*
X129111561Y-83546800D01*
X129111562Y-83546800D01*
X129268438Y-83546800D01*
X129268439Y-83546800D01*
X129419970Y-83506197D01*
X129555830Y-83427759D01*
X129666759Y-83316830D01*
X129745197Y-83180970D01*
X129785800Y-83029439D01*
X129785800Y-82872561D01*
X129745197Y-82721030D01*
X129666759Y-82585170D01*
X129555830Y-82474241D01*
X129419970Y-82395803D01*
X129268439Y-82355200D01*
X129111561Y-82355200D01*
X128960030Y-82395803D01*
X128824170Y-82474241D01*
X128713241Y-82585170D01*
X128634803Y-82721030D01*
X128594200Y-82872561D01*
X120500500Y-82872561D01*
X120500500Y-80265139D01*
X120519407Y-80206948D01*
X120568907Y-80170984D01*
X120630093Y-80170984D01*
X120669501Y-80195133D01*
X120790345Y-80315977D01*
X120962402Y-80430941D01*
X121153580Y-80510130D01*
X121356535Y-80550500D01*
X121356536Y-80550500D01*
X121563464Y-80550500D01*
X121563465Y-80550500D01*
X121766420Y-80510130D01*
X121957598Y-80430941D01*
X122129655Y-80315977D01*
X122275977Y-80169655D01*
X122390941Y-79997598D01*
X122470130Y-79806420D01*
X122510500Y-79603465D01*
X122510500Y-79396535D01*
X122470130Y-79193580D01*
X122390941Y-79002402D01*
X122275977Y-78830345D01*
X122129655Y-78684023D01*
X122129651Y-78684020D01*
X121957597Y-78569058D01*
X121766418Y-78489869D01*
X121563467Y-78449500D01*
X121563465Y-78449500D01*
X121356535Y-78449500D01*
X121356532Y-78449500D01*
X121153581Y-78489869D01*
X120962402Y-78569058D01*
X120790348Y-78684020D01*
X120790345Y-78684022D01*
X120790345Y-78684023D01*
X120669501Y-78804866D01*
X120614987Y-78832642D01*
X120554555Y-78823071D01*
X120511290Y-78779806D01*
X120500500Y-78734861D01*
X120500500Y-77725139D01*
X120519407Y-77666948D01*
X120568907Y-77630984D01*
X120630093Y-77630984D01*
X120669501Y-77655133D01*
X120790345Y-77775977D01*
X120962402Y-77890941D01*
X121153580Y-77970130D01*
X121356535Y-78010500D01*
X121356536Y-78010500D01*
X121563464Y-78010500D01*
X121563465Y-78010500D01*
X121766420Y-77970130D01*
X121852402Y-77934513D01*
X121913398Y-77929713D01*
X121960292Y-77955974D01*
X122584788Y-78580470D01*
X122664712Y-78626614D01*
X122753856Y-78650500D01*
X123124861Y-78650500D01*
X123183052Y-78669407D01*
X123219016Y-78718907D01*
X123219016Y-78780093D01*
X123194866Y-78819501D01*
X123184023Y-78830345D01*
X123184020Y-78830348D01*
X123069058Y-79002402D01*
X122989869Y-79193581D01*
X122949500Y-79396532D01*
X122949500Y-79603467D01*
X122989869Y-79806418D01*
X123069058Y-79997597D01*
X123184020Y-80169651D01*
X123184023Y-80169655D01*
X123330345Y-80315977D01*
X123502402Y-80430941D01*
X123693580Y-80510130D01*
X123896535Y-80550500D01*
X123896536Y-80550500D01*
X124103464Y-80550500D01*
X124103465Y-80550500D01*
X124306420Y-80510130D01*
X124497598Y-80430941D01*
X124669655Y-80315977D01*
X124815977Y-80169655D01*
X124930941Y-79997598D01*
X125010130Y-79806420D01*
X125050500Y-79603465D01*
X125050500Y-79585190D01*
X125069407Y-79526999D01*
X125118907Y-79491035D01*
X125180093Y-79491035D01*
X125219504Y-79515186D01*
X126105326Y-80401008D01*
X126133103Y-80455525D01*
X126133414Y-80484386D01*
X126103632Y-80702815D01*
X126103430Y-80707289D01*
X126102884Y-80707264D01*
X126100284Y-80731182D01*
X126099500Y-80734106D01*
X126099500Y-80734108D01*
X126099500Y-80865892D01*
X126100840Y-80870892D01*
X126133609Y-80993190D01*
X126199496Y-81107309D01*
X126199498Y-81107311D01*
X126199500Y-81107314D01*
X126292686Y-81200500D01*
X126292688Y-81200501D01*
X126292690Y-81200503D01*
X126406810Y-81266390D01*
X126406808Y-81266390D01*
X126406812Y-81266391D01*
X126406814Y-81266392D01*
X126534108Y-81300500D01*
X126534110Y-81300500D01*
X126665890Y-81300500D01*
X126665892Y-81300500D01*
X126793186Y-81266392D01*
X126793188Y-81266390D01*
X126793190Y-81266390D01*
X126907309Y-81200503D01*
X126907309Y-81200502D01*
X126907314Y-81200500D01*
X127000500Y-81107314D01*
X127063503Y-80998190D01*
X127066390Y-80993190D01*
X127066390Y-80993188D01*
X127066392Y-80993186D01*
X127100500Y-80865892D01*
X127100500Y-80840561D01*
X128594200Y-80840561D01*
X128594200Y-80997439D01*
X128634803Y-81148970D01*
X128713241Y-81284830D01*
X128824170Y-81395759D01*
X128960030Y-81474197D01*
X129111561Y-81514800D01*
X129111562Y-81514800D01*
X129268438Y-81514800D01*
X129268439Y-81514800D01*
X129419970Y-81474197D01*
X129555830Y-81395759D01*
X129666759Y-81284830D01*
X129745197Y-81148970D01*
X129785800Y-80997439D01*
X129785800Y-80840561D01*
X129758615Y-80739108D01*
X130794500Y-80739108D01*
X130794500Y-80870892D01*
X130824579Y-80983151D01*
X130828609Y-80998190D01*
X130894496Y-81112309D01*
X130894498Y-81112311D01*
X130894500Y-81112314D01*
X130987686Y-81205500D01*
X130987688Y-81205501D01*
X130987690Y-81205503D01*
X131101810Y-81271390D01*
X131101808Y-81271390D01*
X131101812Y-81271391D01*
X131101814Y-81271392D01*
X131229108Y-81305500D01*
X131258810Y-81305500D01*
X131317001Y-81324407D01*
X131328814Y-81334496D01*
X132627492Y-82633174D01*
X132655269Y-82687691D01*
X132656488Y-82703178D01*
X132656488Y-83208666D01*
X132637581Y-83266857D01*
X132627493Y-83278668D01*
X132606489Y-83299672D01*
X132606484Y-83299678D01*
X132540597Y-83413797D01*
X132536856Y-83427759D01*
X132506488Y-83541096D01*
X132506488Y-83672880D01*
X132516754Y-83711193D01*
X132540597Y-83800178D01*
X132606484Y-83914297D01*
X132606486Y-83914299D01*
X132606488Y-83914302D01*
X132699674Y-84007488D01*
X132699676Y-84007489D01*
X132699678Y-84007491D01*
X132813798Y-84073378D01*
X132813796Y-84073378D01*
X132813800Y-84073379D01*
X132813802Y-84073380D01*
X132941096Y-84107488D01*
X132941098Y-84107488D01*
X133072878Y-84107488D01*
X133072880Y-84107488D01*
X133200174Y-84073380D01*
X133200176Y-84073378D01*
X133200178Y-84073378D01*
X133314297Y-84007491D01*
X133314297Y-84007490D01*
X133314302Y-84007488D01*
X133407488Y-83914302D01*
X133407642Y-83914035D01*
X133473378Y-83800178D01*
X133473378Y-83800176D01*
X133473380Y-83800174D01*
X133507488Y-83672880D01*
X133507488Y-83541096D01*
X133473380Y-83413802D01*
X133473378Y-83413799D01*
X133473378Y-83413797D01*
X133407491Y-83299678D01*
X133407486Y-83299672D01*
X133386483Y-83278668D01*
X133358707Y-83224151D01*
X133357488Y-83208666D01*
X133357488Y-82470845D01*
X133357488Y-82470844D01*
X133333602Y-82381700D01*
X133318302Y-82355200D01*
X133318302Y-82355199D01*
X133287459Y-82301778D01*
X133287458Y-82301776D01*
X132842243Y-81856561D01*
X133674200Y-81856561D01*
X133674200Y-82013439D01*
X133714803Y-82164970D01*
X133793241Y-82300830D01*
X133904170Y-82411759D01*
X134040030Y-82490197D01*
X134191561Y-82530800D01*
X134191562Y-82530800D01*
X134348438Y-82530800D01*
X134348439Y-82530800D01*
X134499970Y-82490197D01*
X134635830Y-82411759D01*
X134746759Y-82300830D01*
X134825197Y-82164970D01*
X134865800Y-82013439D01*
X134865800Y-81856561D01*
X134825197Y-81705030D01*
X134746759Y-81569170D01*
X134635830Y-81458241D01*
X134499970Y-81379803D01*
X134348439Y-81339200D01*
X134191561Y-81339200D01*
X134040030Y-81379803D01*
X133904170Y-81458241D01*
X133793241Y-81569170D01*
X133714803Y-81705030D01*
X133674200Y-81856561D01*
X132842243Y-81856561D01*
X131824496Y-80838814D01*
X131796719Y-80784297D01*
X131795500Y-80768810D01*
X131795500Y-80739109D01*
X131794160Y-80734108D01*
X131761392Y-80611814D01*
X131761390Y-80611811D01*
X131761390Y-80611809D01*
X131695503Y-80497690D01*
X131695501Y-80497688D01*
X131695500Y-80497686D01*
X131602314Y-80404500D01*
X131602311Y-80404498D01*
X131602309Y-80404496D01*
X131488189Y-80338609D01*
X131488191Y-80338609D01*
X131430682Y-80323200D01*
X131360892Y-80304500D01*
X131229108Y-80304500D01*
X131159318Y-80323200D01*
X131101809Y-80338609D01*
X130987690Y-80404496D01*
X130894496Y-80497690D01*
X130828609Y-80611809D01*
X130816735Y-80656124D01*
X130794500Y-80739108D01*
X129758615Y-80739108D01*
X129745197Y-80689030D01*
X129666759Y-80553170D01*
X129555830Y-80442241D01*
X129419970Y-80363803D01*
X129268439Y-80323200D01*
X129111561Y-80323200D01*
X128960030Y-80363803D01*
X128824170Y-80442241D01*
X128713241Y-80553170D01*
X128634803Y-80689030D01*
X128594200Y-80840561D01*
X127100500Y-80840561D01*
X127100500Y-80734108D01*
X127093322Y-80707321D01*
X127092755Y-80697082D01*
X127098087Y-80676936D01*
X127099179Y-80656124D01*
X127105743Y-80648017D01*
X127108413Y-80637934D01*
X127124569Y-80624769D01*
X127137684Y-80608575D01*
X127147758Y-80605875D01*
X127155846Y-80599286D01*
X127176654Y-80598132D01*
X127196784Y-80592739D01*
X127216795Y-80595907D01*
X127216938Y-80595900D01*
X127217000Y-80595940D01*
X127217221Y-80595975D01*
X127234108Y-80600500D01*
X127234110Y-80600500D01*
X127365890Y-80600500D01*
X127365892Y-80600500D01*
X127493186Y-80566392D01*
X127493188Y-80566390D01*
X127493190Y-80566390D01*
X127607309Y-80500503D01*
X127607309Y-80500502D01*
X127607314Y-80500500D01*
X127700500Y-80407314D01*
X127740168Y-80338608D01*
X127766390Y-80293190D01*
X127766390Y-80293188D01*
X127766392Y-80293186D01*
X127800500Y-80165892D01*
X127800500Y-80034108D01*
X127766392Y-79906814D01*
X127766391Y-79906812D01*
X127733101Y-79849151D01*
X127731995Y-79847184D01*
X127728066Y-79840007D01*
X127720931Y-79819564D01*
X127663403Y-79721865D01*
X127662657Y-79720502D01*
X127660857Y-79710971D01*
X127650500Y-79672970D01*
X127650500Y-79653857D01*
X127636998Y-79603467D01*
X127626614Y-79564712D01*
X127580470Y-79484788D01*
X127580467Y-79484785D01*
X127439867Y-79344184D01*
X127439867Y-79344185D01*
X127436674Y-79340992D01*
X127427812Y-79330344D01*
X127421662Y-79325980D01*
X125079496Y-76983814D01*
X125051719Y-76929297D01*
X125050500Y-76913810D01*
X125050500Y-76090253D01*
X125050498Y-76090241D01*
X125047711Y-76076231D01*
X125038867Y-76031769D01*
X124994552Y-75965448D01*
X124994548Y-75965445D01*
X124928233Y-75921134D01*
X124928231Y-75921133D01*
X124928228Y-75921132D01*
X124928227Y-75921132D01*
X124869758Y-75909501D01*
X124869748Y-75909500D01*
X123130252Y-75909500D01*
X123130251Y-75909500D01*
X123130241Y-75909501D01*
X123071772Y-75921132D01*
X123071766Y-75921134D01*
X123005451Y-75965445D01*
X123005445Y-75965451D01*
X122961134Y-76031766D01*
X122961132Y-76031772D01*
X122949501Y-76090241D01*
X122949500Y-76090253D01*
X122949500Y-77714810D01*
X122930593Y-77773001D01*
X122881093Y-77808965D01*
X122819907Y-77808965D01*
X122780496Y-77784814D01*
X122455974Y-77460292D01*
X122428197Y-77405775D01*
X122434513Y-77352403D01*
X122470130Y-77266420D01*
X122510500Y-77063465D01*
X122510500Y-76856535D01*
X122470130Y-76653580D01*
X122390941Y-76462402D01*
X122275977Y-76290345D01*
X122129655Y-76144023D01*
X122129651Y-76144020D01*
X121957597Y-76029058D01*
X121766418Y-75949869D01*
X121563467Y-75909500D01*
X121563465Y-75909500D01*
X121356535Y-75909500D01*
X121356532Y-75909500D01*
X121153581Y-75949869D01*
X120962402Y-76029058D01*
X120790348Y-76144020D01*
X120790345Y-76144022D01*
X120790345Y-76144023D01*
X120669501Y-76264866D01*
X120648848Y-76275389D01*
X120630093Y-76289016D01*
X120622104Y-76289016D01*
X120614987Y-76292642D01*
X120592092Y-76289016D01*
X120568907Y-76289016D01*
X120562444Y-76284320D01*
X120554555Y-76283071D01*
X120538163Y-76266679D01*
X120519407Y-76253052D01*
X120516938Y-76245454D01*
X120511290Y-76239806D01*
X120500500Y-76194861D01*
X120500500Y-76005555D01*
X120501121Y-75994488D01*
X120511776Y-75899924D01*
X120516704Y-75878332D01*
X120546285Y-75793794D01*
X120555897Y-75773834D01*
X120603541Y-75698010D01*
X120617357Y-75680684D01*
X120680684Y-75617357D01*
X120698012Y-75603540D01*
X120773834Y-75555897D01*
X120793794Y-75546285D01*
X120878332Y-75516704D01*
X120899924Y-75511776D01*
X120994487Y-75501121D01*
X121005556Y-75500500D01*
X121065892Y-75500500D01*
X148434108Y-75500500D01*
X148494444Y-75500500D01*
X148505512Y-75501121D01*
G37*
G04 #@! TD.AperFunction*
G04 #@! TD*
G04 #@! TA.AperFunction,Conductor*
G04 #@! TO.N,/DRV2_IN1*
G36*
X133291501Y-89595500D02*
G01*
X133296455Y-89602959D01*
X133296461Y-89602990D01*
X133383118Y-90051419D01*
X133381324Y-90060192D01*
X133379904Y-90061912D01*
X133215346Y-90226470D01*
X133207073Y-90229897D01*
X133199272Y-90226916D01*
X132840872Y-89906191D01*
X132836992Y-89898120D01*
X132838923Y-89891008D01*
X132996592Y-89653363D01*
X133004015Y-89648367D01*
X133282725Y-89593729D01*
X133291501Y-89595500D01*
G37*
G04 #@! TD.AperFunction*
G04 #@! TD*
G04 #@! TA.AperFunction,Conductor*
G04 #@! TO.N,/DRV2_ISENSE*
G36*
X131754812Y-90943805D02*
G01*
X131755444Y-90944876D01*
X132004621Y-91424191D01*
X132005397Y-91433112D01*
X132002513Y-91437861D01*
X131837861Y-91602513D01*
X131829588Y-91605940D01*
X131824191Y-91604621D01*
X131344876Y-91355444D01*
X131339116Y-91348587D01*
X131339892Y-91339666D01*
X131340516Y-91338607D01*
X131497985Y-91101263D01*
X131501263Y-91097985D01*
X131738596Y-90940523D01*
X131747383Y-90938805D01*
X131754812Y-90943805D01*
G37*
G04 #@! TD.AperFunction*
G04 #@! TD*
G04 #@! TA.AperFunction,Conductor*
G04 #@! TO.N,/RX_CH2*
G36*
X127274580Y-79467275D02*
G01*
X127276389Y-79469611D01*
X127543850Y-79923835D01*
X127545095Y-79932703D01*
X127540300Y-79939479D01*
X127304756Y-80097981D01*
X127295979Y-80099757D01*
X127295920Y-80099745D01*
X127016537Y-80043636D01*
X127009101Y-80038647D01*
X127007248Y-80030585D01*
X127056056Y-79672623D01*
X127059375Y-79665934D01*
X127258035Y-79467274D01*
X127266307Y-79463848D01*
X127274580Y-79467275D01*
G37*
G04 #@! TD.AperFunction*
G04 #@! TD*
G04 #@! TA.AperFunction,Conductor*
G04 #@! TO.N,/RX_CH1*
G36*
X126574580Y-80167275D02*
G01*
X126576389Y-80169611D01*
X126843850Y-80623835D01*
X126845095Y-80632703D01*
X126840300Y-80639479D01*
X126604756Y-80797981D01*
X126595979Y-80799757D01*
X126595920Y-80799745D01*
X126316537Y-80743636D01*
X126309101Y-80738647D01*
X126307248Y-80730585D01*
X126356056Y-80372623D01*
X126359375Y-80365934D01*
X126558035Y-80167274D01*
X126566307Y-80163848D01*
X126574580Y-80167275D01*
G37*
G04 #@! TD.AperFunction*
G04 #@! TD*
G04 #@! TA.AperFunction,Conductor*
G04 #@! TO.N,/DRV2_IN2*
G36*
X132455457Y-90193377D02*
G01*
X132455735Y-90193817D01*
X132698634Y-90598574D01*
X132728875Y-90648965D01*
X132730194Y-90657822D01*
X132727116Y-90663258D01*
X132562495Y-90827879D01*
X132554222Y-90831306D01*
X132549445Y-90830286D01*
X132045936Y-90605080D01*
X132039783Y-90598574D01*
X132040033Y-90589623D01*
X132040960Y-90587939D01*
X132197985Y-90351263D01*
X132201263Y-90347985D01*
X132439242Y-90190095D01*
X132448028Y-90188377D01*
X132455457Y-90193377D01*
G37*
G04 #@! TD.AperFunction*
G04 #@! TD*
M02*
