%TF.GenerationSoftware,KiCad,Pcbnew,10.0.3*%
%TF.CreationDate,2026-09-02T13:41:18-04:00*%
%TF.ProjectId,brushed-dual-esc,62727573-6865-4642-9d64-75616c2d6573,rev?*%
%TF.SameCoordinates,Original*%
%TF.FileFunction,Legend,Bot*%
%TF.FilePolarity,Positive*%
%FSLAX46Y46*%
G04 Gerber Fmt 4.6, Leading zero omitted, Abs format (unit mm)*
G04 Created by KiCad (PCBNEW 10.0.3) date 2026-09-02 13:41:18*
%MOMM*%
%LPD*%
G01*
G04 APERTURE LIST*
%ADD10C,0.000000*%
G04 APERTURE END LIST*
D10*
%TO.C,G\u002A\u002A\u002A*%
G36*
X163224466Y-61765977D02*
G01*
X163224466Y-62473416D01*
X163154847Y-62415896D01*
X163116208Y-62384777D01*
X163057199Y-62338952D01*
X163000952Y-62296815D01*
X162916676Y-62235255D01*
X162916676Y-61659222D01*
X162916695Y-61624147D01*
X162917069Y-61499138D01*
X162917883Y-61384225D01*
X162919084Y-61282613D01*
X162920615Y-61197502D01*
X162922424Y-61132097D01*
X162924454Y-61089600D01*
X162926653Y-61073213D01*
X162928263Y-61072213D01*
X162946864Y-61077545D01*
X162974287Y-61098095D01*
X163012874Y-61126231D01*
X163071531Y-61142892D01*
X163131571Y-61130605D01*
X163191489Y-61089429D01*
X163224466Y-61058537D01*
X163224466Y-61765977D01*
G37*
G36*
X161982314Y-62245999D02*
G01*
X162059087Y-62253798D01*
X162212351Y-62279235D01*
X162365060Y-62316324D01*
X162507728Y-62362586D01*
X162630871Y-62415541D01*
X162767851Y-62495057D01*
X162909507Y-62597076D01*
X163045935Y-62713947D01*
X163169604Y-62839208D01*
X163272982Y-62966398D01*
X163295318Y-62997705D01*
X163326753Y-63042924D01*
X163348349Y-63075529D01*
X163356376Y-63089994D01*
X163350923Y-63093853D01*
X163322635Y-63103593D01*
X163275706Y-63116407D01*
X163216351Y-63130742D01*
X163150787Y-63145045D01*
X163085228Y-63157761D01*
X163030238Y-63165078D01*
X162942397Y-63170732D01*
X162845324Y-63172063D01*
X162748594Y-63169197D01*
X162661778Y-63162259D01*
X162594452Y-63151372D01*
X162456871Y-63106934D01*
X162322335Y-63034954D01*
X162203902Y-62938577D01*
X162101845Y-62818027D01*
X162016437Y-62673530D01*
X162003782Y-62646875D01*
X161969466Y-62565300D01*
X161938605Y-62479356D01*
X161913594Y-62396699D01*
X161896830Y-62324984D01*
X161890710Y-62271867D01*
X161890725Y-62269017D01*
X161893291Y-62252456D01*
X161904946Y-62244360D01*
X161932388Y-62242838D01*
X161982314Y-62245999D01*
G37*
G36*
X158263155Y-64639873D02*
G01*
X158028498Y-64874561D01*
X157794204Y-65108886D01*
X157253620Y-65649542D01*
X157208778Y-65624802D01*
X157194326Y-65615473D01*
X157153021Y-65582124D01*
X157101032Y-65534561D01*
X157043812Y-65478375D01*
X156986814Y-65419157D01*
X156935492Y-65362498D01*
X156895300Y-65313988D01*
X156871690Y-65279218D01*
X156843264Y-65224399D01*
X156958777Y-65108886D01*
X157259204Y-65108886D01*
X157259242Y-65113615D01*
X157267897Y-65165113D01*
X157295179Y-65204821D01*
X157298057Y-65207635D01*
X157338188Y-65233341D01*
X157391114Y-65240796D01*
X157395843Y-65240758D01*
X157447340Y-65232103D01*
X157487048Y-65204821D01*
X157489863Y-65201943D01*
X157515568Y-65161812D01*
X157523024Y-65108886D01*
X157522986Y-65104157D01*
X157514331Y-65052660D01*
X157487048Y-65012952D01*
X157484171Y-65010137D01*
X157444040Y-64984432D01*
X157391114Y-64976976D01*
X157386385Y-64977014D01*
X157334887Y-64985669D01*
X157295179Y-65012952D01*
X157292365Y-65015829D01*
X157266659Y-65055960D01*
X157259204Y-65108886D01*
X156958777Y-65108886D01*
X157427790Y-64639873D01*
X157728217Y-64639873D01*
X157728255Y-64644602D01*
X157736910Y-64696099D01*
X157764193Y-64735807D01*
X157767070Y-64738622D01*
X157807201Y-64764327D01*
X157860127Y-64771783D01*
X157864856Y-64771745D01*
X157916354Y-64763090D01*
X157956062Y-64735807D01*
X157958876Y-64732930D01*
X157984582Y-64692799D01*
X157992037Y-64639873D01*
X157991999Y-64635144D01*
X157983344Y-64583646D01*
X157956062Y-64543938D01*
X157953184Y-64541124D01*
X157913053Y-64515418D01*
X157860127Y-64507963D01*
X157855398Y-64508001D01*
X157803901Y-64516656D01*
X157764193Y-64543938D01*
X157761378Y-64546816D01*
X157735673Y-64586947D01*
X157728217Y-64639873D01*
X157427790Y-64639873D01*
X157613669Y-64453994D01*
X157911460Y-64156203D01*
X158197230Y-64156203D01*
X158197268Y-64160932D01*
X158205923Y-64212429D01*
X158233206Y-64252137D01*
X158236084Y-64254952D01*
X158276214Y-64280658D01*
X158329140Y-64288113D01*
X158333869Y-64288075D01*
X158385367Y-64279420D01*
X158425075Y-64252137D01*
X158427890Y-64249260D01*
X158453595Y-64209129D01*
X158461050Y-64156203D01*
X158461012Y-64151474D01*
X158452357Y-64099976D01*
X158425075Y-64060268D01*
X158422197Y-64057454D01*
X158382066Y-64031748D01*
X158329140Y-64024293D01*
X158324411Y-64024331D01*
X158272914Y-64032986D01*
X158233206Y-64060268D01*
X158230391Y-64063146D01*
X158204686Y-64103277D01*
X158197230Y-64156203D01*
X157911460Y-64156203D01*
X158384074Y-63683589D01*
X158470196Y-63742254D01*
X158470938Y-63742761D01*
X158548316Y-63803150D01*
X158628990Y-63878703D01*
X158703295Y-63959667D01*
X158761565Y-64036287D01*
X158803375Y-64099580D01*
X158746760Y-64156203D01*
X158263155Y-64639873D01*
G37*
G36*
X160786305Y-60030820D02*
G01*
X160788969Y-60062434D01*
X160790787Y-60112724D01*
X160791460Y-60175608D01*
X160791460Y-60328193D01*
X160659395Y-60411523D01*
X160619030Y-60437786D01*
X160566716Y-60474360D01*
X160526741Y-60505357D01*
X160505500Y-60526020D01*
X160501767Y-60532773D01*
X160496649Y-60549554D01*
X160492561Y-60576036D01*
X160489397Y-60615020D01*
X160487049Y-60669308D01*
X160485410Y-60741702D01*
X160484372Y-60835002D01*
X160483828Y-60952012D01*
X160483670Y-61095532D01*
X160483689Y-61158210D01*
X160483989Y-61295216D01*
X160484880Y-61406820D01*
X160486649Y-61495815D01*
X160489580Y-61564993D01*
X160493960Y-61617146D01*
X160500073Y-61655066D01*
X160508206Y-61681545D01*
X160518645Y-61699375D01*
X160531674Y-61711348D01*
X160547580Y-61720257D01*
X160570704Y-61730853D01*
X160601888Y-61741721D01*
X160631011Y-61744263D01*
X160662120Y-61736680D01*
X160699259Y-61717172D01*
X160746476Y-61683938D01*
X160807814Y-61635178D01*
X160887321Y-61569092D01*
X160932804Y-61531382D01*
X160989605Y-61485522D01*
X161035647Y-61449807D01*
X161067086Y-61427199D01*
X161080075Y-61420660D01*
X161080644Y-61421486D01*
X161076399Y-61440511D01*
X161057652Y-61476854D01*
X161027597Y-61525327D01*
X160989430Y-61580737D01*
X160946347Y-61637894D01*
X160906884Y-61684350D01*
X160791864Y-61792325D01*
X160657744Y-61886457D01*
X160511015Y-61962570D01*
X160358167Y-62016485D01*
X160323376Y-62024139D01*
X160242710Y-62035043D01*
X160144826Y-62042334D01*
X160037344Y-62045949D01*
X159927883Y-62045823D01*
X159824065Y-62041891D01*
X159733508Y-62034090D01*
X159663833Y-62022354D01*
X159656978Y-62020663D01*
X159519529Y-61974599D01*
X159382305Y-61907389D01*
X159252550Y-61823677D01*
X159137506Y-61728104D01*
X159044419Y-61625316D01*
X159016577Y-61587963D01*
X158972782Y-61525551D01*
X158940448Y-61474369D01*
X158921920Y-61438253D01*
X158919545Y-61421039D01*
X158927155Y-61424026D01*
X158954124Y-61442495D01*
X158996724Y-61474901D01*
X159051110Y-61518295D01*
X159113436Y-61569726D01*
X159156000Y-61604893D01*
X159218648Y-61654870D01*
X159273298Y-61696382D01*
X159315216Y-61725870D01*
X159339668Y-61739777D01*
X159377204Y-61745953D01*
X159433256Y-61731946D01*
X159485609Y-61692017D01*
X159488805Y-61688514D01*
X159496115Y-61678898D01*
X159502002Y-61666332D01*
X159506619Y-61647887D01*
X159510120Y-61620635D01*
X159512660Y-61581646D01*
X159514392Y-61527990D01*
X159515471Y-61456738D01*
X159516051Y-61364961D01*
X159516286Y-61249730D01*
X159516330Y-61108114D01*
X159516251Y-60998783D01*
X159515834Y-60873268D01*
X159514967Y-60772266D01*
X159513546Y-60693009D01*
X159511468Y-60632728D01*
X159508628Y-60588657D01*
X159504922Y-60558027D01*
X159500248Y-60538071D01*
X159494501Y-60526020D01*
X159481965Y-60512925D01*
X159446989Y-60484556D01*
X159397738Y-60449170D01*
X159340606Y-60411523D01*
X159208540Y-60328193D01*
X159208540Y-60175608D01*
X159208925Y-60127561D01*
X159210484Y-60073539D01*
X159212963Y-60036666D01*
X159216064Y-60023024D01*
X159221895Y-60025177D01*
X159249973Y-60038053D01*
X159296877Y-60060598D01*
X159357962Y-60090568D01*
X159428586Y-60125718D01*
X159633584Y-60228413D01*
X159633584Y-60529904D01*
X159633584Y-60831395D01*
X159676426Y-60874237D01*
X159719269Y-60917080D01*
X160000000Y-60917080D01*
X160280732Y-60917080D01*
X160323574Y-60874237D01*
X160366417Y-60831395D01*
X160366417Y-60529904D01*
X160366417Y-60228413D01*
X160571415Y-60125718D01*
X160613307Y-60104811D01*
X160678959Y-60072395D01*
X160732377Y-60046462D01*
X160768917Y-60029257D01*
X160783936Y-60023024D01*
X160786305Y-60030820D01*
G37*
G36*
X166110745Y-58126611D02*
G01*
X166166742Y-58198099D01*
X166192415Y-58231406D01*
X166198882Y-58239796D01*
X166210180Y-58254453D01*
X166211146Y-58255706D01*
X166234722Y-58287291D01*
X166241722Y-58296669D01*
X166242903Y-58298423D01*
X166256237Y-58318223D01*
X166262960Y-58334464D01*
X166268837Y-58348660D01*
X166269015Y-58349089D01*
X166270260Y-58359492D01*
X166273833Y-58389348D01*
X166273041Y-58393091D01*
X166271362Y-58401019D01*
X166264315Y-58434309D01*
X166263014Y-58437061D01*
X166258110Y-58447432D01*
X166238915Y-58488029D01*
X166207619Y-58536643D01*
X166199002Y-58550029D01*
X166196083Y-58554563D01*
X166188582Y-58564685D01*
X166177720Y-58579342D01*
X166166858Y-58593999D01*
X166155997Y-58608655D01*
X166134274Y-58637969D01*
X166124469Y-58650717D01*
X166111213Y-58668035D01*
X166083532Y-58704200D01*
X166066408Y-58726661D01*
X166032672Y-58770910D01*
X166030370Y-58773929D01*
X165987189Y-58830707D01*
X165969108Y-58854481D01*
X165903869Y-58940435D01*
X165838778Y-59026370D01*
X165828721Y-59039664D01*
X165758036Y-59133072D01*
X165683761Y-59231199D01*
X165611213Y-59327020D01*
X165545711Y-59413511D01*
X165492574Y-59483647D01*
X165464172Y-59521293D01*
X165417476Y-59583973D01*
X165378234Y-59637628D01*
X165349903Y-59677510D01*
X165335940Y-59698869D01*
X165327769Y-59717355D01*
X165320048Y-59758075D01*
X165323467Y-59808908D01*
X165338799Y-59873730D01*
X165366822Y-59956420D01*
X165408309Y-60060853D01*
X165426111Y-60103836D01*
X165453907Y-60171706D01*
X165462174Y-60192251D01*
X165476146Y-60226977D01*
X165490902Y-60264838D01*
X165496249Y-60280477D01*
X165497867Y-60285759D01*
X165504370Y-60301210D01*
X165509242Y-60312785D01*
X165529115Y-60356629D01*
X165551292Y-60403807D01*
X165554658Y-60410968D01*
X165562276Y-60426082D01*
X165584031Y-60469245D01*
X165589740Y-60478245D01*
X165612436Y-60514022D01*
X165613181Y-60515197D01*
X165646012Y-60549467D01*
X165687600Y-60575160D01*
X165743019Y-60595383D01*
X165761728Y-60599878D01*
X165817346Y-60613241D01*
X165912676Y-60631275D01*
X165915657Y-60631839D01*
X165922601Y-60633081D01*
X166007540Y-60648425D01*
X166073759Y-60660588D01*
X166091807Y-60663903D01*
X166166001Y-60677774D01*
X166220726Y-60688298D01*
X166223400Y-60688825D01*
X166277551Y-60698893D01*
X166321635Y-60706042D01*
X166346336Y-60708754D01*
X166351916Y-60709109D01*
X166383955Y-60713567D01*
X166433669Y-60722058D01*
X166492903Y-60733221D01*
X166496241Y-60733872D01*
X166596408Y-60753409D01*
X166647822Y-60763185D01*
X166734542Y-60779674D01*
X166804652Y-60792498D01*
X166866555Y-60803821D01*
X167005886Y-60828341D01*
X167010342Y-60829140D01*
X167066253Y-60839165D01*
X167134643Y-60852309D01*
X167190543Y-60864005D01*
X167225736Y-60872600D01*
X167235667Y-60876140D01*
X167275575Y-60899124D01*
X167288332Y-60909752D01*
X167315055Y-60932016D01*
X167345616Y-60966938D01*
X167358767Y-60996014D01*
X167359519Y-61003759D01*
X167364399Y-61034333D01*
X167368288Y-61055652D01*
X167376329Y-61106165D01*
X167385759Y-61170196D01*
X167395246Y-61238350D01*
X167403459Y-61301234D01*
X167409067Y-61349452D01*
X167409887Y-61356780D01*
X167413328Y-61387542D01*
X167416824Y-61415407D01*
X167421600Y-61453469D01*
X167425285Y-61480140D01*
X167430516Y-61518003D01*
X167432636Y-61532660D01*
X167432683Y-61532982D01*
X167441248Y-61597394D01*
X167444109Y-61618908D01*
X167451947Y-61686555D01*
X167455613Y-61718199D01*
X167460694Y-61767167D01*
X167463595Y-61795125D01*
X167468127Y-61838797D01*
X167468400Y-61841555D01*
X167469600Y-61855107D01*
X167475226Y-61918668D01*
X167478641Y-61965032D01*
X167481601Y-62005213D01*
X167487312Y-62096356D01*
X167489682Y-62140912D01*
X167492147Y-62187264D01*
X167495895Y-62273104D01*
X167498344Y-62349043D01*
X167499281Y-62410247D01*
X167498494Y-62451883D01*
X167495772Y-62469118D01*
X167495029Y-62469681D01*
X167474530Y-62479419D01*
X167460106Y-62485343D01*
X167431439Y-62497117D01*
X167370202Y-62521034D01*
X167295267Y-62549430D01*
X167211079Y-62580565D01*
X167188032Y-62588989D01*
X166975582Y-62666644D01*
X166788763Y-62734990D01*
X166625865Y-62794745D01*
X166511011Y-62837103D01*
X166485176Y-62846631D01*
X166364984Y-62891367D01*
X166263577Y-62929672D01*
X166179242Y-62962265D01*
X166110270Y-62989866D01*
X166072829Y-63005655D01*
X166054947Y-63013196D01*
X166011561Y-63032972D01*
X165978402Y-63049916D01*
X165953756Y-63064746D01*
X165935913Y-63078182D01*
X165923160Y-63090944D01*
X165913786Y-63103751D01*
X165907068Y-63115580D01*
X165906079Y-63117322D01*
X165898326Y-63132378D01*
X165891277Y-63153549D01*
X165879564Y-63200602D01*
X165877421Y-63210305D01*
X165864597Y-63268368D01*
X165847285Y-63352560D01*
X165843725Y-63370850D01*
X165830650Y-63438026D01*
X165828535Y-63448891D01*
X165818566Y-63502760D01*
X165809254Y-63553074D01*
X165807751Y-63561387D01*
X165802834Y-63588578D01*
X165795634Y-63628563D01*
X165787716Y-63672533D01*
X165781345Y-63707911D01*
X165779913Y-63716503D01*
X165771565Y-63766580D01*
X165765412Y-63803493D01*
X165763432Y-63819100D01*
X165756923Y-63870398D01*
X165755775Y-63879442D01*
X165754588Y-63907040D01*
X165753175Y-63939879D01*
X165754350Y-63951010D01*
X165758352Y-63988926D01*
X165760336Y-63994980D01*
X165772045Y-64030701D01*
X165772592Y-64031621D01*
X165794363Y-64068263D01*
X165794995Y-64069326D01*
X165827941Y-64108921D01*
X165831179Y-64112233D01*
X165866998Y-64148875D01*
X165871623Y-64153606D01*
X165896782Y-64178188D01*
X165926782Y-64207501D01*
X165929415Y-64210065D01*
X165937339Y-64217781D01*
X165981818Y-64260491D01*
X166003171Y-64280785D01*
X166034014Y-64310098D01*
X166042456Y-64318121D01*
X166116129Y-64387750D01*
X166199715Y-64466459D01*
X166290090Y-64551327D01*
X166384133Y-64639433D01*
X166478721Y-64727858D01*
X166570730Y-64813681D01*
X166657038Y-64893982D01*
X166734523Y-64965841D01*
X166800061Y-65026336D01*
X166850531Y-65072549D01*
X166882808Y-65101558D01*
X166895000Y-65113111D01*
X166933947Y-65172551D01*
X166946178Y-65243688D01*
X166931699Y-65326653D01*
X166890510Y-65421573D01*
X166886445Y-65429117D01*
X166854066Y-65490024D01*
X166811344Y-65571394D01*
X166760805Y-65668338D01*
X166704976Y-65775969D01*
X166646382Y-65889398D01*
X166587550Y-66003737D01*
X166531004Y-66114097D01*
X166479272Y-66215591D01*
X166434878Y-66303330D01*
X166409398Y-66353128D01*
X166365482Y-66432553D01*
X166327243Y-66489459D01*
X166291285Y-66526987D01*
X166254212Y-66548281D01*
X166212625Y-66556482D01*
X166163128Y-66554734D01*
X166132629Y-66550262D01*
X166075276Y-66539718D01*
X166000900Y-66524696D01*
X165915737Y-66506460D01*
X165826024Y-66486279D01*
X165746136Y-66467913D01*
X165667465Y-66449943D01*
X165601748Y-66435055D01*
X165554187Y-66424427D01*
X165529982Y-66419237D01*
X165517996Y-66416754D01*
X165478581Y-66408184D01*
X165419687Y-66395144D01*
X165346988Y-66378894D01*
X165266162Y-66360694D01*
X165216428Y-66349476D01*
X165140160Y-66332356D01*
X165075614Y-66317970D01*
X165028410Y-66307567D01*
X165004171Y-66302399D01*
X164999967Y-66301533D01*
X164966615Y-66293895D01*
X164916103Y-66281706D01*
X164857604Y-66267170D01*
X164781921Y-66249801D01*
X164709599Y-66239852D01*
X164648565Y-66242858D01*
X164597304Y-66259434D01*
X164592947Y-66260843D01*
X164548222Y-66288748D01*
X164536870Y-66295831D01*
X164528120Y-66303404D01*
X164511185Y-66318061D01*
X164477317Y-66347374D01*
X164474462Y-66349845D01*
X164462349Y-66362031D01*
X164447780Y-66376688D01*
X164433212Y-66391344D01*
X164418643Y-66406001D01*
X164404074Y-66420658D01*
X164399848Y-66424910D01*
X164389856Y-66435314D01*
X164375780Y-66449971D01*
X164361703Y-66464628D01*
X164348426Y-66478453D01*
X164347845Y-66479058D01*
X164319377Y-66508598D01*
X164305253Y-66523254D01*
X164293482Y-66535468D01*
X164277003Y-66552568D01*
X164273661Y-66556036D01*
X164262845Y-66567224D01*
X164235310Y-66595706D01*
X164206167Y-66625851D01*
X164199341Y-66632912D01*
X164191969Y-66640508D01*
X164135074Y-66699134D01*
X164097073Y-66738222D01*
X164092403Y-66743104D01*
X164078384Y-66757761D01*
X164067069Y-66769591D01*
X164039790Y-66798110D01*
X164033147Y-66805555D01*
X164023482Y-66816388D01*
X164008767Y-66832881D01*
X163998779Y-66844075D01*
X163996187Y-66847538D01*
X163984367Y-66863329D01*
X163975494Y-66875183D01*
X163971327Y-66880750D01*
X163954717Y-66912769D01*
X163946233Y-66944765D01*
X163943160Y-66981372D01*
X163942783Y-67027222D01*
X163942797Y-67030753D01*
X163946290Y-67094447D01*
X163956587Y-67168607D01*
X163974667Y-67258961D01*
X164001509Y-67371236D01*
X164015195Y-67425146D01*
X164033886Y-67497453D01*
X164049489Y-67556246D01*
X164060675Y-67596548D01*
X164066115Y-67613381D01*
X164068148Y-67618583D01*
X164074724Y-67646783D01*
X164081854Y-67688274D01*
X164084596Y-67704890D01*
X164094068Y-67747971D01*
X164103595Y-67775905D01*
X164113858Y-67802871D01*
X164123533Y-67842354D01*
X164130811Y-67879234D01*
X164139214Y-67915637D01*
X164142271Y-67927288D01*
X164152366Y-67966089D01*
X164166603Y-68021020D01*
X164182935Y-68084189D01*
X164190118Y-68111991D01*
X164212411Y-68198158D01*
X164236442Y-68290911D01*
X164258124Y-68374477D01*
X164278744Y-68463167D01*
X164288024Y-68531580D01*
X164285295Y-68583571D01*
X164270268Y-68624464D01*
X164242653Y-68659582D01*
X164237702Y-68663635D01*
X164208935Y-68682906D01*
X164159385Y-68713748D01*
X164092459Y-68754185D01*
X164011562Y-68802240D01*
X163920099Y-68855937D01*
X163821478Y-68913300D01*
X163719104Y-68972354D01*
X163616383Y-69031122D01*
X163516722Y-69087627D01*
X163423525Y-69139895D01*
X163340199Y-69185948D01*
X163270151Y-69223811D01*
X163251205Y-69233989D01*
X163193869Y-69265619D01*
X163142544Y-69294910D01*
X163076140Y-69322123D01*
X163002928Y-69332857D01*
X162937127Y-69324573D01*
X162933962Y-69322763D01*
X162911615Y-69304065D01*
X162871565Y-69267019D01*
X162815855Y-69213633D01*
X162746528Y-69145911D01*
X162665627Y-69065859D01*
X162575197Y-68975482D01*
X162477280Y-68876787D01*
X162373920Y-68771778D01*
X162341252Y-68738502D01*
X162238673Y-68634562D01*
X162141744Y-68537153D01*
X162052576Y-68448344D01*
X161973279Y-68370208D01*
X161905963Y-68304814D01*
X161852741Y-68254233D01*
X161815722Y-68220537D01*
X161797017Y-68205796D01*
X161796129Y-68205339D01*
X161750816Y-68188230D01*
X161697784Y-68181144D01*
X161632165Y-68184309D01*
X161549087Y-68197951D01*
X161443682Y-68222299D01*
X161404009Y-68231923D01*
X161347481Y-68244575D01*
X161304443Y-68253002D01*
X161302642Y-68253308D01*
X161261402Y-68261576D01*
X161204335Y-68274469D01*
X161143220Y-68289334D01*
X161136681Y-68290981D01*
X161078650Y-68305225D01*
X161028569Y-68316908D01*
X160996653Y-68323640D01*
X160927645Y-68338808D01*
X160850229Y-68367196D01*
X160792899Y-68405351D01*
X160789456Y-68408524D01*
X160778142Y-68420843D01*
X160766564Y-68437501D01*
X160753834Y-68460847D01*
X160739065Y-68493233D01*
X160721369Y-68537012D01*
X160699859Y-68594533D01*
X160673646Y-68668150D01*
X160641842Y-68760212D01*
X160603562Y-68873072D01*
X160557916Y-69009081D01*
X160504016Y-69170590D01*
X160488647Y-69216652D01*
X160442299Y-69354721D01*
X160398413Y-69484248D01*
X160357948Y-69602477D01*
X160321864Y-69706651D01*
X160291120Y-69794013D01*
X160266676Y-69861806D01*
X160249491Y-69907273D01*
X160240525Y-69927657D01*
X160240435Y-69927795D01*
X160210603Y-69958692D01*
X160171110Y-69984009D01*
X160157114Y-69989402D01*
X160129431Y-69995538D01*
X160090444Y-69999166D01*
X160035662Y-70000472D01*
X159960598Y-69999642D01*
X159860762Y-69996861D01*
X159781240Y-69994206D01*
X159648087Y-69989295D01*
X159537707Y-69984440D01*
X159445797Y-69979391D01*
X159368054Y-69973897D01*
X159300174Y-69967708D01*
X159237854Y-69960573D01*
X159195346Y-69955392D01*
X159120043Y-69946655D01*
X159035502Y-69937211D01*
X158953243Y-69928364D01*
X158877119Y-69919339D01*
X158811353Y-69908287D01*
X158765410Y-69895589D01*
X158734185Y-69880120D01*
X158702951Y-69854196D01*
X158657025Y-69791280D01*
X158632304Y-69718407D01*
X158625639Y-69680791D01*
X158616631Y-69637796D01*
X158610474Y-69609668D01*
X158602035Y-69564512D01*
X158601020Y-69558578D01*
X158592337Y-69516742D01*
X158580849Y-69469244D01*
X158578935Y-69461791D01*
X158566974Y-69410770D01*
X158558201Y-69366647D01*
X158555143Y-69349487D01*
X158546073Y-69302015D01*
X158534001Y-69241003D01*
X158520873Y-69176130D01*
X158508636Y-69117073D01*
X158499238Y-69073514D01*
X158495832Y-69057527D01*
X158487029Y-69015232D01*
X158473941Y-68951887D01*
X158457438Y-68871716D01*
X158438392Y-68778940D01*
X158417672Y-68677784D01*
X158394739Y-68567564D01*
X158371236Y-68460916D01*
X158350648Y-68377017D01*
X158331867Y-68312535D01*
X158313782Y-68264140D01*
X158295285Y-68228501D01*
X158275266Y-68202289D01*
X158252616Y-68182173D01*
X158237800Y-68173824D01*
X158196912Y-68154888D01*
X158135876Y-68128750D01*
X158058898Y-68097159D01*
X157970181Y-68061863D01*
X157873931Y-68024614D01*
X157784249Y-67990756D01*
X157676235Y-67951631D01*
X157589470Y-67922940D01*
X157520634Y-67903948D01*
X157466408Y-67893918D01*
X157423473Y-67892114D01*
X157388508Y-67897800D01*
X157358194Y-67910239D01*
X157353831Y-67912943D01*
X157326170Y-67933066D01*
X157277241Y-67970675D01*
X157208080Y-68024944D01*
X157119728Y-68095042D01*
X157013221Y-68180142D01*
X156889598Y-68279414D01*
X156749899Y-68392029D01*
X156595160Y-68517159D01*
X156426420Y-68653976D01*
X156397732Y-68677256D01*
X156318069Y-68741590D01*
X156256502Y-68790246D01*
X156209504Y-68825413D01*
X156173552Y-68849283D01*
X156145120Y-68864044D01*
X156120683Y-68871886D01*
X156096716Y-68874998D01*
X156069693Y-68875572D01*
X156041040Y-68874457D01*
X156011141Y-68868177D01*
X155979558Y-68853286D01*
X155939364Y-68826378D01*
X155883633Y-68784045D01*
X155858805Y-68764803D01*
X155786299Y-68709098D01*
X155708560Y-68649904D01*
X155638636Y-68597172D01*
X155612302Y-68577416D01*
X155537372Y-68520933D01*
X155459664Y-68462057D01*
X155392324Y-68410738D01*
X155371795Y-68395033D01*
X155309439Y-68347401D01*
X155234600Y-68290303D01*
X155154933Y-68229576D01*
X155078088Y-68171058D01*
X155037339Y-68139526D01*
X154973570Y-68087854D01*
X154921643Y-68042775D01*
X154885537Y-68007803D01*
X154869231Y-67986458D01*
X154861774Y-67962389D01*
X154856193Y-67909876D01*
X154863516Y-67846960D01*
X154884526Y-67768763D01*
X154920007Y-67670411D01*
X154923312Y-67661946D01*
X155020706Y-67411419D01*
X155106758Y-67187818D01*
X155181500Y-66991058D01*
X155224971Y-66874607D01*
X159740015Y-66874607D01*
X159752720Y-66877219D01*
X159787479Y-66878151D01*
X159814584Y-66877491D01*
X159830426Y-66875183D01*
X159828681Y-66874607D01*
X160150401Y-66874607D01*
X160153203Y-66875183D01*
X160163106Y-66877219D01*
X160197865Y-66878151D01*
X160224971Y-66877491D01*
X160240812Y-66875183D01*
X160230641Y-66871825D01*
X160197567Y-66869386D01*
X160157358Y-66872025D01*
X160150401Y-66874607D01*
X159828681Y-66874607D01*
X159820254Y-66871825D01*
X159787181Y-66869386D01*
X159746971Y-66872025D01*
X159740015Y-66874607D01*
X155224971Y-66874607D01*
X155229279Y-66863068D01*
X159568806Y-66863068D01*
X159589614Y-66865372D01*
X159609776Y-66863329D01*
X159609686Y-66863068D01*
X160374923Y-66863068D01*
X160377280Y-66863329D01*
X160395730Y-66865372D01*
X160415892Y-66863329D01*
X160414051Y-66857979D01*
X160407417Y-66856043D01*
X160377409Y-66857979D01*
X160374923Y-66863068D01*
X159609686Y-66863068D01*
X159607934Y-66857979D01*
X159601300Y-66856043D01*
X159571293Y-66857979D01*
X159568806Y-66863068D01*
X155229279Y-66863068D01*
X155234750Y-66848412D01*
X159436897Y-66848412D01*
X159457704Y-66850715D01*
X159477866Y-66848672D01*
X159476257Y-66844000D01*
X160493077Y-66844000D01*
X160495281Y-66848588D01*
X160496608Y-66848672D01*
X160520312Y-66850172D01*
X160524863Y-66850075D01*
X160544331Y-66847538D01*
X160538354Y-66842872D01*
X160523480Y-66840516D01*
X160494384Y-66843415D01*
X160493077Y-66844000D01*
X159476257Y-66844000D01*
X159476024Y-66843322D01*
X159469390Y-66841387D01*
X159439383Y-66843322D01*
X159436897Y-66848412D01*
X155234750Y-66848412D01*
X155244963Y-66821052D01*
X155297180Y-66677713D01*
X155338182Y-66560954D01*
X155368000Y-66470688D01*
X155386217Y-66408366D01*
X158358983Y-66408366D01*
X158363505Y-66466132D01*
X158391503Y-66518406D01*
X158441766Y-66558181D01*
X158496697Y-66572937D01*
X158551739Y-66563629D01*
X158598669Y-66533223D01*
X158631337Y-66485769D01*
X158643592Y-66425315D01*
X158641795Y-66395315D01*
X158628425Y-66359011D01*
X158596060Y-66323889D01*
X158568118Y-66302710D01*
X158510649Y-66281272D01*
X158454141Y-66288457D01*
X158401296Y-66324262D01*
X158379149Y-66352112D01*
X158358983Y-66408366D01*
X155386217Y-66408366D01*
X155386666Y-66406829D01*
X155394212Y-66369290D01*
X155396454Y-66330313D01*
X155393676Y-66299454D01*
X155382816Y-66269383D01*
X155360888Y-66231887D01*
X155324906Y-66178753D01*
X155242778Y-66061330D01*
X155150436Y-65933694D01*
X155072196Y-65831129D01*
X155008144Y-65753745D01*
X154958366Y-65701648D01*
X154922950Y-65674949D01*
X154896722Y-65664079D01*
X154858483Y-65654774D01*
X154810550Y-65650245D01*
X154749085Y-65650539D01*
X154670250Y-65655705D01*
X154570209Y-65665789D01*
X154445124Y-65680838D01*
X154412582Y-65684785D01*
X154338325Y-65693142D01*
X154254571Y-65701969D01*
X154173976Y-65709908D01*
X154121317Y-65714976D01*
X154054978Y-65721670D01*
X154001394Y-65727429D01*
X153968783Y-65731393D01*
X153934404Y-65736023D01*
X153869249Y-65744125D01*
X153792246Y-65753224D01*
X153713396Y-65762169D01*
X153642699Y-65769808D01*
X153590157Y-65774990D01*
X153563760Y-65777341D01*
X153469542Y-65785691D01*
X153399217Y-65791514D01*
X153348487Y-65794749D01*
X153313056Y-65795335D01*
X153288628Y-65793209D01*
X153270905Y-65788310D01*
X153255592Y-65780576D01*
X153238392Y-65769946D01*
X153229119Y-65763908D01*
X153195872Y-65736900D01*
X153177238Y-65713177D01*
X153163664Y-65678775D01*
X153141621Y-65621158D01*
X153115540Y-65551859D01*
X153088325Y-65478691D01*
X153062877Y-65409463D01*
X153042102Y-65351989D01*
X153028902Y-65314079D01*
X153022394Y-65294609D01*
X153008007Y-65252854D01*
X152998199Y-65226139D01*
X152993976Y-65215281D01*
X152987827Y-65196826D01*
X152987127Y-65194391D01*
X152977494Y-65174841D01*
X152975241Y-65170446D01*
X152964192Y-65141897D01*
X152951123Y-65101558D01*
X152950811Y-65100515D01*
X152917405Y-65002726D01*
X152868990Y-64881708D01*
X152851857Y-64838880D01*
X152827743Y-64774138D01*
X152801029Y-64698959D01*
X152779464Y-64636106D01*
X156400601Y-64636106D01*
X156408195Y-64817464D01*
X156419037Y-64899796D01*
X156433927Y-64980271D01*
X156453551Y-65045915D01*
X156481047Y-65104689D01*
X156519554Y-65164553D01*
X156572210Y-65233468D01*
X156627849Y-65300233D01*
X156704344Y-65385892D01*
X156790275Y-65477067D01*
X156882416Y-65570723D01*
X156977540Y-65663825D01*
X157072422Y-65753337D01*
X157163837Y-65836224D01*
X157248559Y-65909453D01*
X157323361Y-65969986D01*
X157385018Y-66014790D01*
X157430304Y-66040829D01*
X157438699Y-66044101D01*
X157481557Y-66056818D01*
X157540179Y-66070702D01*
X157604439Y-66083285D01*
X157733989Y-66099453D01*
X157929428Y-66100120D01*
X158122189Y-66072995D01*
X158179389Y-66056491D01*
X158943126Y-66056491D01*
X158953021Y-66113184D01*
X158987563Y-66165293D01*
X159002324Y-66178304D01*
X159053115Y-66202890D01*
X159105856Y-66204875D01*
X159155339Y-66187927D01*
X159196354Y-66155714D01*
X159223692Y-66111902D01*
X159232141Y-66060158D01*
X159216493Y-66004151D01*
X159179268Y-65953021D01*
X159127693Y-65922924D01*
X159065354Y-65919965D01*
X159040003Y-65926164D01*
X158988750Y-65956256D01*
X158955747Y-66001940D01*
X158943126Y-66056491D01*
X158179389Y-66056491D01*
X158309488Y-66018953D01*
X158488537Y-65938871D01*
X158656552Y-65833623D01*
X158810746Y-65704086D01*
X158861377Y-65653314D01*
X158958540Y-65540680D01*
X158993939Y-65488335D01*
X159357339Y-65488335D01*
X159358373Y-65543257D01*
X159384332Y-65596443D01*
X159401489Y-65614881D01*
X159454101Y-65645739D01*
X159513007Y-65653195D01*
X159570283Y-65637206D01*
X159618005Y-65597728D01*
X159634029Y-65572531D01*
X159648128Y-65517204D01*
X159638722Y-65463329D01*
X159609031Y-65417135D01*
X159562275Y-65384851D01*
X159501674Y-65372706D01*
X159471000Y-65375680D01*
X159416932Y-65398295D01*
X159377952Y-65437931D01*
X159357339Y-65488335D01*
X158993939Y-65488335D01*
X159039863Y-65420428D01*
X159113110Y-65281710D01*
X159149350Y-65200549D01*
X159193615Y-65077926D01*
X159222685Y-64956084D01*
X159236754Y-64840738D01*
X159545683Y-64840738D01*
X159554104Y-64896791D01*
X159588486Y-64948790D01*
X159602906Y-64962261D01*
X159642236Y-64985453D01*
X159692210Y-64991633D01*
X159727988Y-64987806D01*
X159781981Y-64963735D01*
X159819320Y-64922791D01*
X159837093Y-64871101D01*
X159832389Y-64814791D01*
X159802296Y-64759990D01*
X159759061Y-64723327D01*
X159702047Y-64707521D01*
X159639167Y-64720269D01*
X159601035Y-64742115D01*
X159561800Y-64787043D01*
X159545683Y-64840738D01*
X159236754Y-64840738D01*
X159238617Y-64825466D01*
X159243470Y-64676515D01*
X159241630Y-64580889D01*
X159230104Y-64444501D01*
X159206214Y-64320481D01*
X159167903Y-64199273D01*
X159158772Y-64177950D01*
X159487000Y-64177950D01*
X159500951Y-64232878D01*
X159537426Y-64276361D01*
X159545962Y-64282293D01*
X159605510Y-64306313D01*
X159665177Y-64304580D01*
X159718284Y-64278510D01*
X159758146Y-64229523D01*
X159770792Y-64195707D01*
X159771942Y-64141417D01*
X159752396Y-64093298D01*
X159717318Y-64054896D01*
X159671871Y-64029758D01*
X159621220Y-64021430D01*
X159570529Y-64033457D01*
X159524961Y-64069388D01*
X159496048Y-64119448D01*
X159487000Y-64177950D01*
X159158772Y-64177950D01*
X159113110Y-64071319D01*
X159080853Y-64006303D01*
X159004954Y-63877184D01*
X158917506Y-63761680D01*
X158810746Y-63648943D01*
X158670428Y-63529633D01*
X158664349Y-63525728D01*
X159180856Y-63525728D01*
X159186101Y-63587054D01*
X159219533Y-63641576D01*
X159265679Y-63678712D01*
X159320039Y-63693376D01*
X159379808Y-63680039D01*
X159389582Y-63675175D01*
X159429956Y-63640961D01*
X159460355Y-63594547D01*
X159472360Y-63547951D01*
X159471550Y-63537968D01*
X159456309Y-63494038D01*
X159428245Y-63450576D01*
X159395883Y-63421660D01*
X159392475Y-63419901D01*
X159336484Y-63405318D01*
X159278808Y-63411675D01*
X159228722Y-63436412D01*
X159195503Y-63476968D01*
X159180856Y-63525728D01*
X158664349Y-63525728D01*
X158504215Y-63422861D01*
X158327627Y-63341498D01*
X158143240Y-63285756D01*
X157953628Y-63255847D01*
X157761368Y-63251985D01*
X157569037Y-63274379D01*
X157379209Y-63323244D01*
X157194461Y-63398791D01*
X157017369Y-63501232D01*
X156965683Y-63540523D01*
X156943611Y-63557302D01*
X156860534Y-63631433D01*
X156777654Y-63714584D01*
X156702938Y-63798754D01*
X156644353Y-63875940D01*
X156617139Y-63918055D01*
X156528731Y-64085448D01*
X156495414Y-64175228D01*
X156462251Y-64264592D01*
X156419081Y-64449980D01*
X156400601Y-64636106D01*
X152779464Y-64636106D01*
X152773516Y-64618770D01*
X152747002Y-64538999D01*
X152723288Y-64465074D01*
X152704173Y-64402421D01*
X152691457Y-64356470D01*
X152686939Y-64332646D01*
X152686962Y-64331394D01*
X152688607Y-64310193D01*
X152693839Y-64289449D01*
X152704486Y-64267553D01*
X152722379Y-64242897D01*
X152749346Y-64213872D01*
X152787218Y-64178870D01*
X152837822Y-64136281D01*
X152899569Y-64087216D01*
X155914836Y-64087216D01*
X155923097Y-64120343D01*
X155941488Y-64169698D01*
X155971081Y-64240479D01*
X155995583Y-64281857D01*
X156029733Y-64303141D01*
X156070198Y-64295825D01*
X156117111Y-64259927D01*
X156138515Y-64233333D01*
X156160094Y-64175228D01*
X156155541Y-64114336D01*
X156124581Y-64058088D01*
X156101766Y-64035551D01*
X156069774Y-64020706D01*
X156022508Y-64016965D01*
X155969853Y-64022488D01*
X155930303Y-64042470D01*
X155924427Y-64048865D01*
X155915636Y-64065122D01*
X155914836Y-64087216D01*
X152899569Y-64087216D01*
X152902990Y-64084498D01*
X152984549Y-64021912D01*
X153084330Y-63946915D01*
X153204162Y-63857897D01*
X153345874Y-63753251D01*
X153378548Y-63729137D01*
X153496177Y-63641934D01*
X153606979Y-63559196D01*
X153708547Y-63482756D01*
X153798479Y-63414448D01*
X153874367Y-63356106D01*
X153933809Y-63309565D01*
X153974397Y-63276658D01*
X153993729Y-63259220D01*
X154015896Y-63229700D01*
X154032471Y-63195854D01*
X154043391Y-63154032D01*
X154047021Y-63119678D01*
X155649432Y-63119678D01*
X155652621Y-63144893D01*
X155653780Y-63152650D01*
X155661400Y-63195528D01*
X155672966Y-63254144D01*
X155687094Y-63322144D01*
X155702397Y-63393174D01*
X155717489Y-63460879D01*
X155730984Y-63518905D01*
X155741496Y-63560897D01*
X155747639Y-63580501D01*
X155749884Y-63582302D01*
X155764971Y-63572081D01*
X155790140Y-63539135D01*
X155795693Y-63530243D01*
X156188039Y-63530243D01*
X156197080Y-63590616D01*
X156232110Y-63644347D01*
X156257709Y-63665698D01*
X156312691Y-63687301D01*
X156370007Y-63680273D01*
X156426995Y-63644611D01*
X156454095Y-63617165D01*
X156470137Y-63584922D01*
X156473036Y-63540523D01*
X156467680Y-63499565D01*
X156440889Y-63446182D01*
X156393354Y-63412875D01*
X156326903Y-63401385D01*
X156288142Y-63403533D01*
X156253988Y-63415397D01*
X156224640Y-63442508D01*
X156205262Y-63470657D01*
X156188039Y-63530243D01*
X155795693Y-63530243D01*
X155823194Y-63486208D01*
X155900880Y-63363609D01*
X156049698Y-63169808D01*
X156126636Y-63088969D01*
X156694201Y-63088969D01*
X156707362Y-63134519D01*
X156710338Y-63141379D01*
X156728910Y-63176060D01*
X156745202Y-63195562D01*
X156766380Y-63206949D01*
X156828421Y-63222829D01*
X156886548Y-63215160D01*
X156935089Y-63186750D01*
X156968372Y-63140406D01*
X156980727Y-63078938D01*
X156979447Y-63066545D01*
X158669480Y-63066545D01*
X158670834Y-63078938D01*
X158675504Y-63121687D01*
X158706549Y-63174012D01*
X158711587Y-63179358D01*
X158765504Y-63217475D01*
X158822637Y-63227571D01*
X158878706Y-63209830D01*
X158929435Y-63164435D01*
X158944839Y-63139969D01*
X158957965Y-63085403D01*
X158948242Y-63031481D01*
X158919037Y-62984848D01*
X158873719Y-62952148D01*
X158815657Y-62940026D01*
X158772750Y-62945957D01*
X158720982Y-62972507D01*
X158685599Y-63014760D01*
X158669480Y-63066545D01*
X156979447Y-63066545D01*
X156976743Y-63040368D01*
X156951727Y-62986316D01*
X156906134Y-62951823D01*
X156842751Y-62939700D01*
X156778736Y-62949297D01*
X156732105Y-62980141D01*
X156702650Y-63033757D01*
X156698843Y-63046233D01*
X156694201Y-63088969D01*
X156126636Y-63088969D01*
X156220528Y-62990317D01*
X156409688Y-62828489D01*
X156417530Y-62823071D01*
X157335942Y-62823071D01*
X157347060Y-62880872D01*
X157364935Y-62915464D01*
X157383942Y-62939830D01*
X157419362Y-62959230D01*
X157474501Y-62971409D01*
X157527056Y-62967839D01*
X157578616Y-62940411D01*
X157612736Y-62892098D01*
X157624407Y-62831202D01*
X158027435Y-62831202D01*
X158036305Y-62882778D01*
X158065761Y-62928695D01*
X158117121Y-62962839D01*
X158144847Y-62974092D01*
X158173828Y-62981573D01*
X158199342Y-62977126D01*
X158235588Y-62960464D01*
X158275913Y-62931055D01*
X158304511Y-62884625D01*
X158313083Y-62832072D01*
X158303066Y-62779893D01*
X158275898Y-62734580D01*
X158233016Y-62702630D01*
X158175857Y-62690536D01*
X158171434Y-62690590D01*
X158111150Y-62703661D01*
X158066176Y-62735529D01*
X158037831Y-62780081D01*
X158028205Y-62827414D01*
X158027435Y-62831202D01*
X157624407Y-62831202D01*
X157625133Y-62827414D01*
X157623653Y-62795672D01*
X157611272Y-62760489D01*
X157580526Y-62728481D01*
X157533128Y-62700589D01*
X157477559Y-62691413D01*
X157424784Y-62702515D01*
X157380075Y-62730452D01*
X157348704Y-62771785D01*
X157335942Y-62823071D01*
X156417530Y-62823071D01*
X156613496Y-62687675D01*
X156828271Y-62571227D01*
X156836952Y-62567162D01*
X157071794Y-62473583D01*
X157315572Y-62406445D01*
X157565240Y-62365767D01*
X157817750Y-62351565D01*
X158070056Y-62363859D01*
X158319110Y-62402664D01*
X158561865Y-62468000D01*
X158795275Y-62559882D01*
X158898407Y-62610760D01*
X159117862Y-62742166D01*
X159236419Y-62832072D01*
X159322053Y-62897011D01*
X159508676Y-63072992D01*
X159519299Y-63085403D01*
X159675430Y-63267807D01*
X159820012Y-63479152D01*
X159856644Y-63547951D01*
X159940118Y-63704725D01*
X159944027Y-63713240D01*
X160033850Y-63944253D01*
X160086231Y-64141417D01*
X160097657Y-64184427D01*
X160135609Y-64430648D01*
X160147704Y-64676515D01*
X160147866Y-64679808D01*
X160137665Y-64871101D01*
X160134588Y-64928793D01*
X160095933Y-65174494D01*
X160032063Y-65413800D01*
X159992048Y-65517204D01*
X159943137Y-65643599D01*
X159829315Y-65860779D01*
X159770901Y-65953602D01*
X159693549Y-66060158D01*
X159643599Y-66128966D01*
X159502072Y-66288894D01*
X159355191Y-66425315D01*
X159342550Y-66437056D01*
X159161263Y-66577124D01*
X158954441Y-66712767D01*
X158950421Y-66715258D01*
X158925477Y-66733193D01*
X158918119Y-66743374D01*
X158923028Y-66745163D01*
X158951618Y-66752350D01*
X159001181Y-66763555D01*
X159066637Y-66777648D01*
X159142905Y-66793494D01*
X159222123Y-66809495D01*
X159299142Y-66824392D01*
X159350437Y-66833271D01*
X159377620Y-66836368D01*
X159382303Y-66833918D01*
X159372750Y-66829343D01*
X160610330Y-66829343D01*
X160612534Y-66833931D01*
X160637565Y-66835515D01*
X160642117Y-66835419D01*
X160661584Y-66832881D01*
X160655607Y-66828216D01*
X160640733Y-66825859D01*
X160611637Y-66828759D01*
X160610330Y-66829343D01*
X159372750Y-66829343D01*
X159366099Y-66826158D01*
X159363737Y-66825094D01*
X159358294Y-66816388D01*
X160732833Y-66816388D01*
X160740162Y-66823716D01*
X160747490Y-66816388D01*
X160740162Y-66809059D01*
X160732833Y-66816388D01*
X159358294Y-66816388D01*
X159358068Y-66816027D01*
X159367883Y-66800204D01*
X160795430Y-66800204D01*
X160795657Y-66805207D01*
X160814666Y-66807902D01*
X160829073Y-66805555D01*
X160823522Y-66799047D01*
X160815046Y-66796705D01*
X160795430Y-66800204D01*
X159367883Y-66800204D01*
X159368173Y-66799737D01*
X159378720Y-66789901D01*
X160870806Y-66789901D01*
X160886728Y-66791481D01*
X160912544Y-66788985D01*
X160952683Y-66779746D01*
X160965078Y-66775591D01*
X160975934Y-66769591D01*
X160960012Y-66768011D01*
X160934196Y-66770507D01*
X160894057Y-66779746D01*
X160881662Y-66783901D01*
X160870806Y-66789901D01*
X159378720Y-66789901D01*
X159396803Y-66773036D01*
X159415719Y-66757761D01*
X161011310Y-66757761D01*
X161018638Y-66765089D01*
X161025967Y-66757761D01*
X161018638Y-66750433D01*
X161011310Y-66757761D01*
X159415719Y-66757761D01*
X159433869Y-66743104D01*
X161069937Y-66743104D01*
X161077265Y-66750433D01*
X161084593Y-66743104D01*
X161077265Y-66735776D01*
X161069937Y-66743104D01*
X159433869Y-66743104D01*
X159446711Y-66732734D01*
X159473737Y-66711140D01*
X159611241Y-66589405D01*
X159748060Y-66450065D01*
X159877685Y-66300537D01*
X159993609Y-66148235D01*
X160089323Y-66000575D01*
X160155966Y-65878799D01*
X160265513Y-65636265D01*
X160352190Y-65382149D01*
X160413376Y-65123543D01*
X160419465Y-65087495D01*
X160435109Y-64953695D01*
X160444089Y-64803164D01*
X160446405Y-64644956D01*
X160442059Y-64488127D01*
X160431049Y-64341733D01*
X160413376Y-64214830D01*
X160365306Y-64006293D01*
X160292523Y-63779434D01*
X160201028Y-63557633D01*
X160093977Y-63348476D01*
X159974525Y-63159550D01*
X159968677Y-63151366D01*
X159901848Y-63066029D01*
X159817770Y-62969723D01*
X159722208Y-62868213D01*
X159620928Y-62767268D01*
X159519698Y-62672652D01*
X159424283Y-62590132D01*
X159340450Y-62525475D01*
X159165794Y-62414189D01*
X158957831Y-62306147D01*
X158736683Y-62213435D01*
X158509934Y-62139209D01*
X158285170Y-62086624D01*
X158249122Y-62080535D01*
X158115323Y-62064891D01*
X157964792Y-62055911D01*
X157806584Y-62053595D01*
X157649755Y-62057941D01*
X157503361Y-62068951D01*
X157376457Y-62086624D01*
X157300669Y-62104270D01*
X157126939Y-62144720D01*
X156864420Y-62233983D01*
X156732544Y-62294807D01*
X156614458Y-62349271D01*
X156378376Y-62489786D01*
X156157496Y-62654735D01*
X156126642Y-62683208D01*
X155953141Y-62843321D01*
X155919839Y-62881073D01*
X155790547Y-63027640D01*
X155766632Y-63054750D01*
X155754742Y-63069663D01*
X155715356Y-63118071D01*
X155689510Y-63146748D01*
X155673721Y-63158524D01*
X155664504Y-63156228D01*
X155658376Y-63142690D01*
X155651985Y-63122865D01*
X155649432Y-63119678D01*
X154047021Y-63119678D01*
X154049099Y-63100007D01*
X154050035Y-63029552D01*
X154049535Y-63016116D01*
X155634588Y-63016116D01*
X155636868Y-63053289D01*
X155638238Y-63057447D01*
X155642042Y-63054305D01*
X155643570Y-63027640D01*
X155643429Y-63017695D01*
X155641116Y-62997429D01*
X155636868Y-63001991D01*
X155634588Y-63016116D01*
X154049535Y-63016116D01*
X154046643Y-62938441D01*
X154042319Y-62869550D01*
X155619931Y-62869550D01*
X155622211Y-62906722D01*
X155623581Y-62910881D01*
X155627386Y-62907738D01*
X155628914Y-62881073D01*
X155628772Y-62871129D01*
X155626459Y-62850862D01*
X155622211Y-62855424D01*
X155619931Y-62869550D01*
X154042319Y-62869550D01*
X154039362Y-62822446D01*
X154031265Y-62716937D01*
X154027589Y-62681160D01*
X155604857Y-62681160D01*
X155607587Y-62716357D01*
X155609460Y-62721158D01*
X155612781Y-62713373D01*
X155613961Y-62683208D01*
X155613581Y-62667223D01*
X155611152Y-62649607D01*
X155607291Y-62657730D01*
X155604857Y-62681160D01*
X154027589Y-62681160D01*
X154022288Y-62629559D01*
X154011803Y-62563381D01*
X153998677Y-62514231D01*
X153981780Y-62477937D01*
X153959978Y-62450326D01*
X153932141Y-62427227D01*
X153930093Y-62425885D01*
X153905017Y-62411827D01*
X153856906Y-62386334D01*
X153788415Y-62350766D01*
X153702204Y-62306485D01*
X153660211Y-62285075D01*
X155604889Y-62285075D01*
X155607314Y-62327784D01*
X155609599Y-62335209D01*
X155612522Y-62326507D01*
X155613665Y-62294807D01*
X155613238Y-62273298D01*
X155610938Y-62254883D01*
X155607314Y-62261829D01*
X155604889Y-62285075D01*
X153660211Y-62285075D01*
X153600929Y-62254850D01*
X153487248Y-62197223D01*
X153363819Y-62134965D01*
X153279729Y-62092746D01*
X155619931Y-62092746D01*
X155622211Y-62129919D01*
X155623581Y-62134078D01*
X155627386Y-62130935D01*
X155628914Y-62104270D01*
X155628772Y-62094326D01*
X155626459Y-62074059D01*
X155622211Y-62078621D01*
X155619931Y-62092746D01*
X153279729Y-62092746D01*
X153233299Y-62069435D01*
X153195816Y-62050637D01*
X153034209Y-61969024D01*
X152993787Y-61948326D01*
X155634170Y-61948326D01*
X155636900Y-61983523D01*
X155638773Y-61988325D01*
X155642095Y-61980540D01*
X155643275Y-61950375D01*
X155642894Y-61934390D01*
X155640466Y-61916773D01*
X155636605Y-61924897D01*
X155634170Y-61948326D01*
X152993787Y-61948326D01*
X152893876Y-61897166D01*
X152775688Y-61835529D01*
X152768202Y-61831521D01*
X155649274Y-61831521D01*
X155652772Y-61851137D01*
X155657776Y-61850910D01*
X155660470Y-61831900D01*
X155658123Y-61817493D01*
X155651615Y-61823045D01*
X155649274Y-61831521D01*
X152768202Y-61831521D01*
X152680515Y-61784575D01*
X152609437Y-61744887D01*
X155664759Y-61744887D01*
X155666513Y-61762281D01*
X155670921Y-61764574D01*
X155676284Y-61752510D01*
X155675226Y-61744751D01*
X155666513Y-61742739D01*
X155664759Y-61744887D01*
X152609437Y-61744887D01*
X152609226Y-61744769D01*
X152562693Y-61716576D01*
X152541785Y-61700460D01*
X152534817Y-61691307D01*
X152521531Y-61670297D01*
X155678587Y-61670297D01*
X155682086Y-61689914D01*
X155687089Y-61689687D01*
X155689784Y-61670677D01*
X155687437Y-61656270D01*
X155680929Y-61661822D01*
X155678587Y-61670297D01*
X152521531Y-61670297D01*
X152519887Y-61667697D01*
X152509606Y-61641558D01*
X152504243Y-61609642D01*
X152504115Y-61579600D01*
X155693955Y-61579600D01*
X155695891Y-61609607D01*
X155700980Y-61612094D01*
X155703283Y-61591287D01*
X155701240Y-61571125D01*
X155695891Y-61572966D01*
X155693955Y-61579600D01*
X152504115Y-61579600D01*
X152504069Y-61568700D01*
X152508535Y-61523731D01*
X155707900Y-61523731D01*
X155711399Y-61543347D01*
X155716402Y-61543120D01*
X155719097Y-61524110D01*
X155716750Y-61509704D01*
X155710242Y-61515255D01*
X155707900Y-61523731D01*
X152508535Y-61523731D01*
X152509354Y-61515485D01*
X152519565Y-61451754D01*
X155723385Y-61451754D01*
X155725140Y-61469148D01*
X155729548Y-61471441D01*
X155734911Y-61459377D01*
X155733853Y-61451617D01*
X155725140Y-61449606D01*
X155723385Y-61451754D01*
X152519565Y-61451754D01*
X152520367Y-61446750D01*
X152530760Y-61393298D01*
X155738316Y-61393298D01*
X155739766Y-61410490D01*
X155746861Y-61403899D01*
X155755849Y-61377718D01*
X155760819Y-61349575D01*
X155759369Y-61332383D01*
X155752274Y-61338975D01*
X155743286Y-61365155D01*
X155738316Y-61393298D01*
X152530760Y-61393298D01*
X152537380Y-61359247D01*
X152551925Y-61290825D01*
X155764224Y-61290825D01*
X155771552Y-61298153D01*
X155778881Y-61290825D01*
X155771552Y-61283497D01*
X155764224Y-61290825D01*
X152551925Y-61290825D01*
X152560661Y-61249728D01*
X152564605Y-61231904D01*
X155782012Y-61231904D01*
X155783766Y-61249298D01*
X155788175Y-61251591D01*
X155793537Y-61239527D01*
X155792480Y-61231767D01*
X155783766Y-61229756D01*
X155782012Y-61231904D01*
X152564605Y-61231904D01*
X152574333Y-61187934D01*
X155796669Y-61187934D01*
X155798423Y-61205328D01*
X155802831Y-61207621D01*
X155808194Y-61195557D01*
X155807136Y-61187797D01*
X155798423Y-61185786D01*
X155796669Y-61187934D01*
X152574333Y-61187934D01*
X152584061Y-61143964D01*
X155811325Y-61143964D01*
X155813080Y-61161358D01*
X155817488Y-61163651D01*
X155822851Y-61151587D01*
X155821793Y-61143827D01*
X155813080Y-61141816D01*
X155811325Y-61143964D01*
X152584061Y-61143964D01*
X152590482Y-61114945D01*
X152597080Y-61085337D01*
X155825982Y-61085337D01*
X155827736Y-61102731D01*
X155832145Y-61105024D01*
X155837507Y-61092960D01*
X155836450Y-61085201D01*
X155827736Y-61083189D01*
X155825982Y-61085337D01*
X152597080Y-61085337D01*
X152601666Y-61064756D01*
X152603536Y-61056318D01*
X155837507Y-61056318D01*
X155844836Y-61063647D01*
X155852164Y-61056318D01*
X155844836Y-61048990D01*
X155837507Y-61056318D01*
X152603536Y-61056318D01*
X152613345Y-61012054D01*
X155855295Y-61012054D01*
X155857050Y-61029448D01*
X155861458Y-61031741D01*
X155866821Y-61019677D01*
X155865763Y-61011918D01*
X155857050Y-61009906D01*
X155855295Y-61012054D01*
X152613345Y-61012054D01*
X152623090Y-60968084D01*
X155869952Y-60968084D01*
X155871706Y-60985478D01*
X155876115Y-60987771D01*
X155881477Y-60975707D01*
X155880420Y-60967948D01*
X155871706Y-60965936D01*
X155869952Y-60968084D01*
X152623090Y-60968084D01*
X152625694Y-60956332D01*
X152629501Y-60939065D01*
X155881477Y-60939065D01*
X155888806Y-60946393D01*
X155896134Y-60939065D01*
X155888806Y-60931737D01*
X155881477Y-60939065D01*
X152629501Y-60939065D01*
X152639196Y-60895095D01*
X155896134Y-60895095D01*
X155903462Y-60902423D01*
X155910791Y-60895095D01*
X155903462Y-60887767D01*
X155896134Y-60895095D01*
X152639196Y-60895095D01*
X152645660Y-60865782D01*
X155910791Y-60865782D01*
X155918119Y-60873110D01*
X155925447Y-60865782D01*
X155918119Y-60858453D01*
X155910791Y-60865782D01*
X152645660Y-60865782D01*
X152652066Y-60836730D01*
X152655405Y-60821517D01*
X155928579Y-60821517D01*
X155930333Y-60838911D01*
X155934741Y-60841204D01*
X155940104Y-60829140D01*
X155939046Y-60821381D01*
X155930333Y-60819369D01*
X155928579Y-60821517D01*
X152655405Y-60821517D01*
X152665056Y-60777547D01*
X155943235Y-60777547D01*
X155944990Y-60794941D01*
X155949398Y-60797234D01*
X155954761Y-60785170D01*
X155953703Y-60777411D01*
X155944990Y-60775399D01*
X155943235Y-60777547D01*
X152665056Y-60777547D01*
X152671425Y-60748528D01*
X155954761Y-60748528D01*
X155962089Y-60755857D01*
X155969417Y-60748528D01*
X155962089Y-60741200D01*
X155954761Y-60748528D01*
X152671425Y-60748528D01*
X152675507Y-60729930D01*
X158155059Y-60729930D01*
X158162745Y-60748528D01*
X158172047Y-60771038D01*
X158173126Y-60772320D01*
X158186293Y-60785170D01*
X158193258Y-60791968D01*
X158230469Y-60825381D01*
X158234801Y-60829140D01*
X158277033Y-60865782D01*
X158279844Y-60868221D01*
X158311594Y-60895095D01*
X158336469Y-60916150D01*
X158363787Y-60939065D01*
X158378861Y-60951709D01*
X158406946Y-60975707D01*
X158435389Y-61000011D01*
X158456978Y-61019677D01*
X158474373Y-61035523D01*
X158493833Y-61056318D01*
X158499054Y-61061897D01*
X158512671Y-61082787D01*
X158515764Y-61092960D01*
X158518466Y-61101847D01*
X158519677Y-61122730D01*
X158522852Y-61151587D01*
X158526607Y-61185711D01*
X158528976Y-61195557D01*
X158539554Y-61239527D01*
X158546533Y-61268539D01*
X158553693Y-61290825D01*
X158572569Y-61349575D01*
X158576871Y-61362963D01*
X158613922Y-61459377D01*
X158615028Y-61462254D01*
X158642572Y-61524110D01*
X158658411Y-61559680D01*
X158674785Y-61591287D01*
X158704428Y-61648510D01*
X158718318Y-61670677D01*
X158750488Y-61722015D01*
X158766426Y-61745836D01*
X158769582Y-61752510D01*
X158790981Y-61797759D01*
X158795696Y-61831900D01*
X158798154Y-61849693D01*
X158798182Y-61860440D01*
X158800492Y-61890033D01*
X158811073Y-61909056D01*
X158836271Y-61924585D01*
X158882429Y-61943698D01*
X158898599Y-61950375D01*
X158929669Y-61963205D01*
X159044210Y-62015346D01*
X159166278Y-62076331D01*
X159284752Y-62140481D01*
X159388511Y-62202119D01*
X159434391Y-62230500D01*
X159493033Y-62263612D01*
X159547482Y-62288473D01*
X159603322Y-62306398D01*
X159666136Y-62318705D01*
X159741509Y-62326712D01*
X159835025Y-62331735D01*
X159952268Y-62335092D01*
X159987891Y-62335844D01*
X160092484Y-62337116D01*
X160175333Y-62336193D01*
X160242244Y-62332822D01*
X160299025Y-62326752D01*
X160351483Y-62317729D01*
X160502410Y-62277866D01*
X160660541Y-62216881D01*
X160803367Y-62141620D01*
X160907991Y-62077114D01*
X160912016Y-62598138D01*
X160916042Y-63119162D01*
X160878256Y-63150348D01*
X160854740Y-63168664D01*
X160811702Y-63200784D01*
X160756916Y-63240844D01*
X160696775Y-63284131D01*
X160641905Y-63323615D01*
X160587147Y-63363653D01*
X160543838Y-63396000D01*
X160518223Y-63416041D01*
X160483367Y-63445355D01*
X160539930Y-63581593D01*
X160596492Y-63717831D01*
X160756267Y-63602930D01*
X160818805Y-63557825D01*
X160901876Y-63497628D01*
X160983154Y-63438470D01*
X161051616Y-63388358D01*
X161101743Y-63351511D01*
X161146884Y-63318339D01*
X161178036Y-63295460D01*
X161190384Y-63286410D01*
X161191232Y-63274266D01*
X161192487Y-63235898D01*
X161194010Y-63174548D01*
X161195730Y-63093534D01*
X161197578Y-62996175D01*
X161199483Y-62885789D01*
X161201376Y-62765693D01*
X161209175Y-62247255D01*
X161392383Y-62248297D01*
X161575592Y-62249338D01*
X161579325Y-63744852D01*
X161581572Y-64644956D01*
X161583058Y-65240366D01*
X161141837Y-65244245D01*
X160700615Y-65248124D01*
X160665932Y-65380034D01*
X160657818Y-65411146D01*
X160644071Y-65465197D01*
X160634478Y-65504767D01*
X160630743Y-65522937D01*
X160636573Y-65525394D01*
X160666636Y-65528783D01*
X160717946Y-65531489D01*
X160785612Y-65533281D01*
X160864743Y-65533929D01*
X161099250Y-65533929D01*
X161099250Y-66134853D01*
X161099301Y-66192953D01*
X161099779Y-66318546D01*
X161100711Y-66433173D01*
X161102043Y-66533776D01*
X161103718Y-66617297D01*
X161105680Y-66680678D01*
X161107874Y-66720861D01*
X161110243Y-66734789D01*
X161116777Y-66733369D01*
X161146923Y-66725118D01*
X161194648Y-66711235D01*
X161253145Y-66693678D01*
X161385055Y-66653553D01*
X161385227Y-66640508D01*
X161421697Y-66640508D01*
X161429025Y-66647836D01*
X161436353Y-66640508D01*
X161429025Y-66633179D01*
X161421697Y-66640508D01*
X161385227Y-66640508D01*
X161385420Y-66625851D01*
X161451010Y-66625851D01*
X161458338Y-66633179D01*
X161465667Y-66625851D01*
X161458338Y-66618523D01*
X161451010Y-66625851D01*
X161385420Y-66625851D01*
X161385602Y-66612026D01*
X161499687Y-66612026D01*
X161502308Y-66618074D01*
X161512231Y-66616268D01*
X161538950Y-66603866D01*
X161548900Y-66595706D01*
X161546278Y-66589658D01*
X161536356Y-66591464D01*
X161509637Y-66603866D01*
X161499687Y-66612026D01*
X161385602Y-66612026D01*
X161386192Y-66567224D01*
X161612233Y-66567224D01*
X161619562Y-66574553D01*
X161626890Y-66567224D01*
X161619562Y-66559896D01*
X161612233Y-66567224D01*
X161386192Y-66567224D01*
X161386385Y-66552568D01*
X161641547Y-66552568D01*
X161648875Y-66559896D01*
X161656203Y-66552568D01*
X161648875Y-66545239D01*
X161641547Y-66552568D01*
X161386385Y-66552568D01*
X161386552Y-66539877D01*
X161673453Y-66539877D01*
X161685517Y-66545239D01*
X161693276Y-66544182D01*
X161695288Y-66535468D01*
X161693140Y-66533714D01*
X161675745Y-66535468D01*
X161673453Y-66539877D01*
X161386552Y-66539877D01*
X161386771Y-66523254D01*
X161714830Y-66523254D01*
X161722158Y-66530583D01*
X161729487Y-66523254D01*
X161722158Y-66515926D01*
X161714830Y-66523254D01*
X161386771Y-66523254D01*
X161386964Y-66508598D01*
X161744143Y-66508598D01*
X161751472Y-66515926D01*
X161758800Y-66508598D01*
X161751472Y-66501269D01*
X161744143Y-66508598D01*
X161386964Y-66508598D01*
X161387146Y-66494772D01*
X161778163Y-66494772D01*
X161780785Y-66500820D01*
X161790707Y-66499015D01*
X161817427Y-66486613D01*
X161827377Y-66478453D01*
X161824755Y-66472405D01*
X161814833Y-66474210D01*
X161788113Y-66486613D01*
X161778163Y-66494772D01*
X161387146Y-66494772D01*
X161387543Y-66464628D01*
X161846740Y-66464628D01*
X161854068Y-66471956D01*
X161861397Y-66464628D01*
X161854068Y-66457299D01*
X161846740Y-66464628D01*
X161387543Y-66464628D01*
X161387736Y-66449971D01*
X161876053Y-66449971D01*
X161883382Y-66457299D01*
X161890710Y-66449971D01*
X161883382Y-66442643D01*
X161876053Y-66449971D01*
X161387736Y-66449971D01*
X161387929Y-66435314D01*
X161905367Y-66435314D01*
X161912695Y-66442643D01*
X161920023Y-66435314D01*
X161912695Y-66427986D01*
X161905367Y-66435314D01*
X161387929Y-66435314D01*
X161388122Y-66420658D01*
X161934680Y-66420658D01*
X161942008Y-66427986D01*
X161949337Y-66420658D01*
X161942008Y-66413329D01*
X161934680Y-66420658D01*
X161388122Y-66420658D01*
X161388315Y-66406001D01*
X161963993Y-66406001D01*
X161971322Y-66413329D01*
X161978650Y-66406001D01*
X161971322Y-66398673D01*
X161963993Y-66406001D01*
X161388315Y-66406001D01*
X161388508Y-66391344D01*
X161993307Y-66391344D01*
X162000635Y-66398673D01*
X162007963Y-66391344D01*
X162000635Y-66384016D01*
X161993307Y-66391344D01*
X161388508Y-66391344D01*
X161388701Y-66376688D01*
X162022620Y-66376688D01*
X162029948Y-66384016D01*
X162037277Y-66376688D01*
X162029948Y-66369359D01*
X162022620Y-66376688D01*
X161388701Y-66376688D01*
X161388894Y-66362031D01*
X162051933Y-66362031D01*
X162059262Y-66369359D01*
X162066590Y-66362031D01*
X162059262Y-66354703D01*
X162051933Y-66362031D01*
X161388894Y-66362031D01*
X161389087Y-66347374D01*
X162081247Y-66347374D01*
X162088575Y-66354703D01*
X162095903Y-66347374D01*
X162088575Y-66340046D01*
X162081247Y-66347374D01*
X161389087Y-66347374D01*
X161389474Y-66318061D01*
X162125217Y-66318061D01*
X162132545Y-66325389D01*
X162139873Y-66318061D01*
X162132545Y-66310733D01*
X162125217Y-66318061D01*
X161389474Y-66318061D01*
X161389667Y-66303404D01*
X162154530Y-66303404D01*
X162161858Y-66310733D01*
X162169187Y-66303404D01*
X162161858Y-66296076D01*
X162154530Y-66303404D01*
X161389667Y-66303404D01*
X161389860Y-66288748D01*
X162183843Y-66288748D01*
X162191172Y-66296076D01*
X162198500Y-66288748D01*
X162191172Y-66281419D01*
X162183843Y-66288748D01*
X161389860Y-66288748D01*
X161390247Y-66259434D01*
X162227813Y-66259434D01*
X162235142Y-66266763D01*
X162242470Y-66259434D01*
X162235142Y-66252106D01*
X162227813Y-66259434D01*
X161390247Y-66259434D01*
X161392383Y-66097405D01*
X161399712Y-65541258D01*
X161590248Y-65533929D01*
X161663846Y-65530411D01*
X161735159Y-65524103D01*
X161785691Y-65514372D01*
X161820217Y-65499729D01*
X161843513Y-65478685D01*
X161860354Y-65449754D01*
X161861701Y-65444722D01*
X161864779Y-65414657D01*
X161867472Y-65359167D01*
X161869786Y-65277768D01*
X161871727Y-65169973D01*
X161873301Y-65035297D01*
X161874514Y-64873253D01*
X161875373Y-64683355D01*
X161875884Y-64465118D01*
X161876053Y-64218056D01*
X161876053Y-63020815D01*
X161942154Y-63096378D01*
X162043284Y-63194799D01*
X162165198Y-63284729D01*
X162298806Y-63359336D01*
X162339012Y-63377229D01*
X162495337Y-63428065D01*
X162668764Y-63458165D01*
X162856437Y-63467501D01*
X163055501Y-63456046D01*
X163263101Y-63423773D01*
X163476382Y-63370653D01*
X163481291Y-63369851D01*
X163494134Y-63376016D01*
X163507813Y-63397784D01*
X163524541Y-63439404D01*
X163546533Y-63505119D01*
X163557721Y-63541075D01*
X163577036Y-63608209D01*
X163592028Y-63666842D01*
X163600145Y-63707347D01*
X163608344Y-63767801D01*
X163537322Y-63791892D01*
X163508189Y-63801658D01*
X163452530Y-63820125D01*
X163380176Y-63844007D01*
X163297234Y-63871291D01*
X163209810Y-63899960D01*
X163132333Y-63925619D01*
X163032564Y-63960175D01*
X162952181Y-63990699D01*
X162885829Y-64019590D01*
X162828155Y-64049242D01*
X162773807Y-64082055D01*
X162717430Y-64120424D01*
X162681925Y-64146843D01*
X162558404Y-64261076D01*
X162453342Y-64395224D01*
X162369030Y-64545396D01*
X162307756Y-64707696D01*
X162271810Y-64878231D01*
X162269197Y-64909852D01*
X162266615Y-64966574D01*
X162264336Y-65043010D01*
X162262370Y-65135660D01*
X162260730Y-65241021D01*
X162259426Y-65355592D01*
X162258470Y-65475871D01*
X162257872Y-65598356D01*
X162257646Y-65719546D01*
X162257801Y-65835938D01*
X162258350Y-65944032D01*
X162259303Y-66040324D01*
X162260673Y-66121314D01*
X162262470Y-66183499D01*
X162264706Y-66223378D01*
X162267392Y-66237449D01*
X162279129Y-66232029D01*
X162311073Y-66213270D01*
X162357435Y-66184266D01*
X162412818Y-66148325D01*
X162547978Y-66059201D01*
X162553781Y-65463126D01*
X162554571Y-65384842D01*
X162556179Y-65247088D01*
X162557922Y-65134159D01*
X162559943Y-65043049D01*
X162562384Y-64970757D01*
X162565387Y-64914278D01*
X162569094Y-64870611D01*
X162573649Y-64836751D01*
X162579193Y-64809695D01*
X162585870Y-64786440D01*
X162623491Y-64688613D01*
X162699805Y-64552186D01*
X162797462Y-64435821D01*
X162916410Y-64339589D01*
X162952828Y-64316817D01*
X162999487Y-64291838D01*
X163055051Y-64266790D01*
X163124339Y-64239678D01*
X163212174Y-64208509D01*
X163323376Y-64171290D01*
X163361305Y-64158906D01*
X163447304Y-64131448D01*
X163522194Y-64108394D01*
X163581806Y-64090978D01*
X163621970Y-64080434D01*
X163638517Y-64077997D01*
X163638981Y-64078642D01*
X163641792Y-64098741D01*
X163644324Y-64143780D01*
X163646475Y-64209985D01*
X163648147Y-64293579D01*
X163649238Y-64390788D01*
X163649649Y-64497835D01*
X163649788Y-64911021D01*
X163710286Y-64815753D01*
X163711231Y-64814262D01*
X163737369Y-64771141D01*
X163770475Y-64713939D01*
X163807863Y-64647600D01*
X163846849Y-64577067D01*
X163884745Y-64507283D01*
X163918867Y-64443192D01*
X163946530Y-64389737D01*
X163965046Y-64351861D01*
X163971732Y-64334508D01*
X163969143Y-64332848D01*
X163957300Y-64346740D01*
X163953677Y-64349973D01*
X163947664Y-64337505D01*
X163945184Y-64310098D01*
X163971956Y-64310098D01*
X163979285Y-64317426D01*
X163986613Y-64310098D01*
X163979285Y-64302770D01*
X163971956Y-64310098D01*
X163945184Y-64310098D01*
X163944057Y-64297650D01*
X163943732Y-64280785D01*
X163986613Y-64280785D01*
X163993941Y-64288113D01*
X164001270Y-64280785D01*
X163993941Y-64273456D01*
X163986613Y-64280785D01*
X163943732Y-64280785D01*
X163943200Y-64253203D01*
X164005444Y-64253203D01*
X164010581Y-64253128D01*
X164021444Y-64236248D01*
X164029497Y-64210065D01*
X164027097Y-64202374D01*
X164014137Y-64219593D01*
X164006255Y-64236811D01*
X164005444Y-64253203D01*
X163943200Y-64253203D01*
X163942742Y-64229486D01*
X163941092Y-64178188D01*
X164030583Y-64178188D01*
X164037911Y-64185516D01*
X164045240Y-64178188D01*
X164037911Y-64170860D01*
X164030583Y-64178188D01*
X163941092Y-64178188D01*
X163940149Y-64148875D01*
X164045240Y-64148875D01*
X164052568Y-64156203D01*
X164059896Y-64148875D01*
X164052568Y-64141546D01*
X164045240Y-64148875D01*
X163940149Y-64148875D01*
X163938726Y-64104610D01*
X164063028Y-64104610D01*
X164064782Y-64122004D01*
X164069190Y-64124297D01*
X164074553Y-64112233D01*
X164073495Y-64104474D01*
X164064782Y-64102462D01*
X164063028Y-64104610D01*
X163938726Y-64104610D01*
X163937312Y-64060640D01*
X164077684Y-64060640D01*
X164079439Y-64078034D01*
X164083847Y-64080327D01*
X164089210Y-64068263D01*
X164088152Y-64060504D01*
X164079439Y-64058492D01*
X164077684Y-64060640D01*
X163937312Y-64060640D01*
X163936379Y-64031621D01*
X164089210Y-64031621D01*
X164096538Y-64038950D01*
X164103866Y-64031621D01*
X164096538Y-64024293D01*
X164089210Y-64031621D01*
X163936379Y-64031621D01*
X163936348Y-64030665D01*
X163931597Y-63987357D01*
X164106998Y-63987357D01*
X164108752Y-64004751D01*
X164113160Y-64007044D01*
X164118523Y-63994980D01*
X164117465Y-63987220D01*
X164108752Y-63985209D01*
X164106998Y-63987357D01*
X163931597Y-63987357D01*
X163926773Y-63943387D01*
X164121654Y-63943387D01*
X164123408Y-63960781D01*
X164127817Y-63963074D01*
X164133180Y-63951010D01*
X164132122Y-63943250D01*
X164123408Y-63941239D01*
X164121654Y-63943387D01*
X163926773Y-63943387D01*
X163921949Y-63899417D01*
X164136311Y-63899417D01*
X164138065Y-63916811D01*
X164142474Y-63919104D01*
X164147836Y-63907040D01*
X164146779Y-63899280D01*
X164138065Y-63897269D01*
X164136311Y-63899417D01*
X163921949Y-63899417D01*
X163918766Y-63870398D01*
X164147836Y-63870398D01*
X164155165Y-63877726D01*
X164162493Y-63870398D01*
X164155165Y-63863070D01*
X164147836Y-63870398D01*
X163918766Y-63870398D01*
X163912302Y-63811477D01*
X164165624Y-63811477D01*
X164167378Y-63828871D01*
X164171787Y-63831164D01*
X164177150Y-63819100D01*
X164176092Y-63811340D01*
X164167378Y-63809329D01*
X164165624Y-63811477D01*
X163912302Y-63811477D01*
X163907335Y-63766200D01*
X164179452Y-63766200D01*
X164182951Y-63785817D01*
X164187954Y-63785590D01*
X164190649Y-63766580D01*
X164188302Y-63752173D01*
X164181794Y-63757725D01*
X164179452Y-63766200D01*
X163907335Y-63766200D01*
X163907168Y-63764675D01*
X163895334Y-63708880D01*
X164194938Y-63708880D01*
X164196692Y-63726274D01*
X164201100Y-63728567D01*
X164206463Y-63716503D01*
X164205405Y-63708744D01*
X164196692Y-63706732D01*
X164194938Y-63708880D01*
X163895334Y-63708880D01*
X163886008Y-63664910D01*
X164209594Y-63664910D01*
X164211348Y-63682304D01*
X164215757Y-63684597D01*
X164221120Y-63672533D01*
X164220062Y-63664774D01*
X164211348Y-63662762D01*
X164209594Y-63664910D01*
X163886008Y-63664910D01*
X163876682Y-63620940D01*
X164224251Y-63620940D01*
X164226005Y-63638334D01*
X164230414Y-63640627D01*
X164235776Y-63628563D01*
X164234719Y-63620804D01*
X164226005Y-63618792D01*
X164224251Y-63620940D01*
X163876682Y-63620940D01*
X163863971Y-63561007D01*
X164238079Y-63561007D01*
X164241578Y-63580624D01*
X164246581Y-63580397D01*
X164249276Y-63561387D01*
X164246929Y-63546980D01*
X164240421Y-63552532D01*
X164238079Y-63561007D01*
X163863971Y-63561007D01*
X163854068Y-63514314D01*
X163850155Y-63502381D01*
X164252736Y-63502381D01*
X164256235Y-63521997D01*
X164261238Y-63521770D01*
X164263932Y-63502760D01*
X164261585Y-63488353D01*
X164255077Y-63493905D01*
X164252736Y-63502381D01*
X163850155Y-63502381D01*
X163826555Y-63430403D01*
X164268221Y-63430403D01*
X164269975Y-63447798D01*
X164274384Y-63450090D01*
X164279746Y-63438026D01*
X164278689Y-63430267D01*
X164269975Y-63428255D01*
X164268221Y-63430403D01*
X163826555Y-63430403D01*
X163806904Y-63370471D01*
X164282049Y-63370471D01*
X164285548Y-63390087D01*
X164290551Y-63389860D01*
X164293246Y-63370850D01*
X164290899Y-63356443D01*
X164284391Y-63361995D01*
X164282049Y-63370471D01*
X163806904Y-63370471D01*
X163783001Y-63297569D01*
X164296308Y-63297569D01*
X164298324Y-63314923D01*
X164300543Y-63314481D01*
X164307572Y-63296379D01*
X164314922Y-63260681D01*
X164317128Y-63245463D01*
X164320158Y-63210305D01*
X164318329Y-63193247D01*
X164316267Y-63193747D01*
X164309301Y-63211870D01*
X164301731Y-63247490D01*
X164299465Y-63262299D01*
X164296308Y-63297569D01*
X163783001Y-63297569D01*
X163776691Y-63278325D01*
X163696850Y-63103893D01*
X164326730Y-63103893D01*
X164328666Y-63133901D01*
X164333755Y-63136387D01*
X164336059Y-63115580D01*
X164334016Y-63095418D01*
X164328666Y-63097259D01*
X164326730Y-63103893D01*
X163696850Y-63103893D01*
X163674677Y-63055450D01*
X163642799Y-63002487D01*
X164340516Y-63002487D01*
X164343416Y-63031583D01*
X164344000Y-63032890D01*
X164348588Y-63030686D01*
X164350172Y-63005655D01*
X164350076Y-63001103D01*
X164347538Y-62981636D01*
X164342873Y-62987613D01*
X164340516Y-63002487D01*
X163642799Y-63002487D01*
X163547667Y-62844431D01*
X163541333Y-62834420D01*
X163539289Y-62830066D01*
X164354735Y-62830066D01*
X164357188Y-62877409D01*
X164360019Y-62886849D01*
X164362385Y-62873287D01*
X164363294Y-62837103D01*
X164362594Y-62804350D01*
X164360383Y-62787704D01*
X164357188Y-62796797D01*
X164354735Y-62830066D01*
X163539289Y-62830066D01*
X163535631Y-62822275D01*
X163530931Y-62806151D01*
X163527137Y-62783515D01*
X163524150Y-62751833D01*
X163521875Y-62708571D01*
X163520212Y-62651197D01*
X163519066Y-62577176D01*
X163518676Y-62527226D01*
X164369612Y-62527226D01*
X164371439Y-62606261D01*
X164372965Y-62631747D01*
X164374331Y-62630944D01*
X164375411Y-62604901D01*
X164376121Y-62555680D01*
X164376376Y-62485343D01*
X164376133Y-62416519D01*
X164375434Y-62366744D01*
X164374362Y-62340095D01*
X164373002Y-62338635D01*
X164371439Y-62364426D01*
X164369662Y-62438795D01*
X164369612Y-62527226D01*
X163518676Y-62527226D01*
X163518338Y-62483976D01*
X163517933Y-62369063D01*
X163517751Y-62229904D01*
X163517723Y-62144243D01*
X164354663Y-62144243D01*
X164357214Y-62188808D01*
X164360232Y-62196972D01*
X164362380Y-62179847D01*
X164363145Y-62140912D01*
X164363143Y-62140265D01*
X164362242Y-62102943D01*
X164360060Y-62088786D01*
X164357064Y-62100868D01*
X164354663Y-62144243D01*
X163517723Y-62144243D01*
X163517696Y-62063964D01*
X163517899Y-61918561D01*
X163518591Y-61775076D01*
X163519735Y-61647568D01*
X163521293Y-61538259D01*
X163523223Y-61449371D01*
X163525487Y-61383128D01*
X163528045Y-61341752D01*
X163530857Y-61327467D01*
X163541487Y-61335729D01*
X163562529Y-61363628D01*
X163587618Y-61404414D01*
X163617278Y-61453983D01*
X163673777Y-61538037D01*
X163737995Y-61623866D01*
X163806534Y-61707714D01*
X163875998Y-61785823D01*
X163942990Y-61854437D01*
X164004113Y-61909800D01*
X164055970Y-61948153D01*
X164095165Y-61965741D01*
X164152529Y-61963950D01*
X164157140Y-61961863D01*
X164340516Y-61961863D01*
X164343416Y-61990960D01*
X164344000Y-61992266D01*
X164348588Y-61990063D01*
X164350172Y-61965032D01*
X164350076Y-61960480D01*
X164347538Y-61941013D01*
X164342873Y-61946990D01*
X164340516Y-61961863D01*
X164157140Y-61961863D01*
X164204922Y-61940238D01*
X164245865Y-61900320D01*
X164269413Y-61850011D01*
X164269438Y-61843420D01*
X164326730Y-61843420D01*
X164328666Y-61873427D01*
X164333755Y-61875914D01*
X164336059Y-61855107D01*
X164334016Y-61834945D01*
X164328666Y-61836786D01*
X164326730Y-61843420D01*
X164269438Y-61843420D01*
X164269620Y-61795125D01*
X164268891Y-61792833D01*
X164253045Y-61766731D01*
X164244272Y-61755480D01*
X164312074Y-61755480D01*
X164314009Y-61785487D01*
X164319099Y-61787974D01*
X164321402Y-61767167D01*
X164319359Y-61747005D01*
X164314009Y-61748846D01*
X164312074Y-61755480D01*
X164244272Y-61755480D01*
X164221206Y-61725901D01*
X164184430Y-61683387D01*
X164296546Y-61683387D01*
X164299446Y-61712483D01*
X164300030Y-61713790D01*
X164304618Y-61711586D01*
X164306202Y-61686555D01*
X164306106Y-61682003D01*
X164303568Y-61662536D01*
X164298903Y-61668513D01*
X164296546Y-61683387D01*
X164184430Y-61683387D01*
X164177588Y-61675478D01*
X164126407Y-61620600D01*
X164104346Y-61597014D01*
X164282049Y-61597014D01*
X164285548Y-61616630D01*
X164290551Y-61616403D01*
X164293246Y-61597394D01*
X164290899Y-61582987D01*
X164284391Y-61588539D01*
X164282049Y-61597014D01*
X164104346Y-61597014D01*
X164071715Y-61562127D01*
X164038946Y-61525037D01*
X164268221Y-61525037D01*
X164269975Y-61542431D01*
X164274384Y-61544724D01*
X164279746Y-61532660D01*
X164278689Y-61524901D01*
X164269975Y-61522889D01*
X164268221Y-61525037D01*
X164038946Y-61525037D01*
X164013585Y-61496332D01*
X163999790Y-61479761D01*
X164252736Y-61479761D01*
X164256235Y-61499377D01*
X164261238Y-61499150D01*
X164263932Y-61480140D01*
X164261585Y-61465734D01*
X164255077Y-61471285D01*
X164252736Y-61479761D01*
X163999790Y-61479761D01*
X163962499Y-61434964D01*
X163938766Y-61403720D01*
X164238790Y-61403720D01*
X164240726Y-61433727D01*
X164245815Y-61436214D01*
X164248119Y-61415407D01*
X164246076Y-61395245D01*
X164240726Y-61397086D01*
X164238790Y-61403720D01*
X163938766Y-61403720D01*
X163925376Y-61386093D01*
X163911612Y-61366001D01*
X163900538Y-61349157D01*
X164224251Y-61349157D01*
X164226005Y-61366551D01*
X164230414Y-61368844D01*
X164235776Y-61356780D01*
X164234719Y-61349021D01*
X164226005Y-61347009D01*
X164224251Y-61349157D01*
X163900538Y-61349157D01*
X163877818Y-61314601D01*
X163842126Y-61258141D01*
X163808122Y-61202543D01*
X163779393Y-61153725D01*
X163759526Y-61117608D01*
X163752106Y-61100110D01*
X163753561Y-61099911D01*
X163772812Y-61107697D01*
X163809742Y-61125724D01*
X163858367Y-61151121D01*
X163924981Y-61184657D01*
X164000503Y-61219310D01*
X164067225Y-61246868D01*
X164072023Y-61248687D01*
X164125242Y-61269387D01*
X164169150Y-61287346D01*
X164194653Y-61298853D01*
X164201446Y-61302247D01*
X164211733Y-61303139D01*
X164211288Y-61287677D01*
X164200840Y-61250133D01*
X164171516Y-61154964D01*
X164139185Y-61056996D01*
X164113122Y-60987272D01*
X164093250Y-60945586D01*
X164079491Y-60931737D01*
X164068814Y-60930098D01*
X164029884Y-60913877D01*
X163976521Y-60883204D01*
X163950280Y-60865782D01*
X164060345Y-60865782D01*
X164062151Y-60875704D01*
X164074553Y-60902423D01*
X164082713Y-60912373D01*
X164088761Y-60909752D01*
X164086955Y-60899829D01*
X164074553Y-60873110D01*
X164066393Y-60863160D01*
X164060345Y-60865782D01*
X163950280Y-60865782D01*
X163913968Y-60841673D01*
X163886500Y-60821517D01*
X164048371Y-60821517D01*
X164050125Y-60838911D01*
X164054534Y-60841204D01*
X164059896Y-60829140D01*
X164058839Y-60821381D01*
X164050125Y-60819369D01*
X164048371Y-60821517D01*
X163886500Y-60821517D01*
X163847470Y-60792877D01*
X163846999Y-60792498D01*
X164030583Y-60792498D01*
X164037911Y-60799827D01*
X164045240Y-60792498D01*
X164037911Y-60785170D01*
X164030583Y-60792498D01*
X163846999Y-60792498D01*
X163810573Y-60763185D01*
X164015926Y-60763185D01*
X164023255Y-60770513D01*
X164030583Y-60763185D01*
X164023255Y-60755857D01*
X164015926Y-60763185D01*
X163810573Y-60763185D01*
X163782271Y-60740410D01*
X163725888Y-60689902D01*
X163987062Y-60689902D01*
X163988867Y-60699824D01*
X164001270Y-60726543D01*
X164009429Y-60736494D01*
X164015477Y-60733872D01*
X164013672Y-60723949D01*
X164001270Y-60697230D01*
X163993110Y-60687280D01*
X163987062Y-60689902D01*
X163725888Y-60689902D01*
X163723615Y-60687866D01*
X163695142Y-60660588D01*
X163971956Y-60660588D01*
X163979285Y-60667917D01*
X163986613Y-60660588D01*
X163979285Y-60653260D01*
X163971956Y-60660588D01*
X163695142Y-60660588D01*
X163664544Y-60631275D01*
X163957300Y-60631275D01*
X163964628Y-60638603D01*
X163971956Y-60631275D01*
X163964628Y-60623947D01*
X163957300Y-60631275D01*
X163664544Y-60631275D01*
X163599098Y-60568577D01*
X163612902Y-60540985D01*
X163918131Y-60540985D01*
X163929163Y-60565320D01*
X163944476Y-60595755D01*
X163954436Y-60609109D01*
X163957300Y-60599878D01*
X163952129Y-60584382D01*
X163934506Y-60557129D01*
X163921259Y-60541075D01*
X163918131Y-60540985D01*
X163612902Y-60540985D01*
X163626392Y-60514022D01*
X163898673Y-60514022D01*
X163906001Y-60521350D01*
X163913330Y-60514022D01*
X163906001Y-60506693D01*
X163898673Y-60514022D01*
X163626392Y-60514022D01*
X163638410Y-60490001D01*
X163650482Y-60464701D01*
X163654443Y-60454161D01*
X163877400Y-60454161D01*
X163878424Y-60469291D01*
X163883155Y-60479945D01*
X163893963Y-60491562D01*
X163898673Y-60478245D01*
X163898152Y-60474264D01*
X163884184Y-60455499D01*
X163877400Y-60454161D01*
X163654443Y-60454161D01*
X163664812Y-60426574D01*
X163664916Y-60426082D01*
X163854703Y-60426082D01*
X163862031Y-60433410D01*
X163869360Y-60426082D01*
X163862031Y-60418753D01*
X163854703Y-60426082D01*
X163664916Y-60426082D01*
X163673480Y-60385493D01*
X163678077Y-60332677D01*
X163678545Y-60316447D01*
X163801961Y-60316447D01*
X163804777Y-60330804D01*
X163818061Y-60360127D01*
X163820186Y-60364175D01*
X163837184Y-60392500D01*
X163848127Y-60404097D01*
X163848819Y-60403807D01*
X163846002Y-60389449D01*
X163832718Y-60360127D01*
X163830594Y-60356079D01*
X163813595Y-60327754D01*
X163802652Y-60316157D01*
X163801961Y-60316447D01*
X163678545Y-60316447D01*
X163680193Y-60259343D01*
X163680932Y-60213850D01*
X163743334Y-60213850D01*
X163746151Y-60228208D01*
X163759435Y-60257530D01*
X163761559Y-60261578D01*
X163778558Y-60289903D01*
X163789501Y-60301500D01*
X163790192Y-60301210D01*
X163787375Y-60286853D01*
X163774091Y-60257530D01*
X163771967Y-60253482D01*
X163754968Y-60225157D01*
X163744025Y-60213560D01*
X163743334Y-60213850D01*
X163680932Y-60213850D01*
X163682019Y-60146929D01*
X163698701Y-60146929D01*
X163708136Y-60169590D01*
X163719381Y-60187668D01*
X163731153Y-60198903D01*
X163732228Y-60192251D01*
X163722793Y-60169590D01*
X163711548Y-60151512D01*
X163699777Y-60140277D01*
X163698701Y-60146929D01*
X163682019Y-60146929D01*
X163682664Y-60107260D01*
X163578037Y-59958881D01*
X163536748Y-59901047D01*
X163493061Y-59841293D01*
X163455737Y-59791689D01*
X163429944Y-59759204D01*
X163386478Y-59707905D01*
X163386084Y-60023943D01*
X163385690Y-60339980D01*
X163239001Y-60536926D01*
X163202384Y-60585702D01*
X163156778Y-60645284D01*
X163119069Y-60693188D01*
X163092410Y-60725433D01*
X163079950Y-60738033D01*
X163071784Y-60732450D01*
X163048159Y-60707094D01*
X163012714Y-60664744D01*
X162968570Y-60609157D01*
X162918848Y-60544091D01*
X162770110Y-60345988D01*
X162770110Y-59716754D01*
X162770110Y-59087521D01*
X162678506Y-59015805D01*
X162671223Y-59010114D01*
X162605424Y-58959603D01*
X162547089Y-58916370D01*
X162499346Y-58882568D01*
X162465323Y-58860348D01*
X162448148Y-58851863D01*
X162450951Y-58859265D01*
X162453949Y-58863200D01*
X162459071Y-58873462D01*
X162463390Y-58889239D01*
X162466991Y-58912908D01*
X162469960Y-58946852D01*
X162472383Y-58993448D01*
X162474346Y-59055078D01*
X162475935Y-59134122D01*
X162477236Y-59232958D01*
X162478333Y-59353968D01*
X162479314Y-59499532D01*
X162480264Y-59672029D01*
X162484305Y-60455449D01*
X162553534Y-60545406D01*
X162622763Y-60635363D01*
X162623955Y-61356800D01*
X162623988Y-61377946D01*
X162624090Y-61519314D01*
X162623985Y-61651135D01*
X162623691Y-61770587D01*
X162623222Y-61874845D01*
X162622595Y-61961086D01*
X162621825Y-62026486D01*
X162620928Y-62068221D01*
X162619920Y-62083466D01*
X162618622Y-62083819D01*
X162598082Y-62079850D01*
X162558621Y-62068355D01*
X162507282Y-62051341D01*
X162473083Y-62039703D01*
X162396666Y-62016055D01*
X162321691Y-61996985D01*
X162243768Y-61981964D01*
X162158504Y-61970465D01*
X162061507Y-61961961D01*
X161948386Y-61955925D01*
X161814749Y-61951829D01*
X161656203Y-61949146D01*
X161209175Y-61943565D01*
X161204666Y-61867740D01*
X161204268Y-61860532D01*
X161205256Y-61811588D01*
X161217302Y-61773166D01*
X161245028Y-61729431D01*
X161248992Y-61723840D01*
X161294873Y-61649818D01*
X161340780Y-61560749D01*
X161384130Y-61463291D01*
X161422341Y-61364103D01*
X161452832Y-61269841D01*
X161473020Y-61187164D01*
X161480323Y-61122730D01*
X161480659Y-61110110D01*
X161484152Y-61090735D01*
X161494119Y-61071051D01*
X161513800Y-61047404D01*
X161546436Y-61016140D01*
X161595266Y-60973607D01*
X161663532Y-60916150D01*
X161670904Y-60909974D01*
X161726885Y-60862447D01*
X161774997Y-60820557D01*
X161810325Y-60788641D01*
X161827953Y-60771038D01*
X161844248Y-60734041D01*
X161843444Y-60678163D01*
X161822906Y-60604529D01*
X161782340Y-60511456D01*
X161768759Y-60483565D01*
X161736093Y-60415152D01*
X161706323Y-60351164D01*
X161684549Y-60302500D01*
X161683892Y-60300974D01*
X161673904Y-60277628D01*
X161666450Y-60256853D01*
X161661922Y-60235176D01*
X161660713Y-60209125D01*
X161663215Y-60175229D01*
X161669821Y-60130014D01*
X161680923Y-60070009D01*
X161696914Y-59991742D01*
X161718186Y-59891740D01*
X161745131Y-59766532D01*
X161750086Y-59743501D01*
X161772746Y-59637168D01*
X161789880Y-59553396D01*
X161802150Y-59487084D01*
X161810221Y-59433131D01*
X161814756Y-59386436D01*
X161816419Y-59341898D01*
X161815873Y-59294417D01*
X161813782Y-59238892D01*
X161811492Y-59192719D01*
X161805902Y-59125782D01*
X161796768Y-59072320D01*
X161782076Y-59022107D01*
X161759811Y-58964922D01*
X161754305Y-58951993D01*
X161703297Y-58852298D01*
X161661174Y-58790265D01*
X162351407Y-58790265D01*
X162363808Y-58803193D01*
X162386868Y-58819626D01*
X162408669Y-58830984D01*
X162418350Y-58830707D01*
X162418329Y-58830489D01*
X162406633Y-58818613D01*
X162379904Y-58799357D01*
X162375815Y-58796734D01*
X162354691Y-58786005D01*
X162351407Y-58790265D01*
X161661174Y-58790265D01*
X161636687Y-58754205D01*
X161624255Y-58739534D01*
X162271783Y-58739534D01*
X162278063Y-58747414D01*
X162301097Y-58762550D01*
X162319638Y-58770810D01*
X162330410Y-58770910D01*
X162324130Y-58763030D01*
X162301097Y-58747894D01*
X162282555Y-58739634D01*
X162271783Y-58739534D01*
X161624255Y-58739534D01*
X161574812Y-58681186D01*
X162169187Y-58681186D01*
X162169373Y-58681957D01*
X162183480Y-58693973D01*
X162213157Y-58711252D01*
X162218204Y-58713814D01*
X162245851Y-58725718D01*
X162257127Y-58726661D01*
X162256940Y-58725891D01*
X162242833Y-58713875D01*
X162213157Y-58696595D01*
X162208109Y-58694034D01*
X162180462Y-58682129D01*
X162169187Y-58681186D01*
X161574812Y-58681186D01*
X161550875Y-58652938D01*
X161520663Y-58622559D01*
X162066590Y-58622559D01*
X162066776Y-58623330D01*
X162080883Y-58635346D01*
X162110560Y-58652625D01*
X162115607Y-58655187D01*
X162143255Y-58667091D01*
X162154530Y-58668035D01*
X162154344Y-58667264D01*
X162140237Y-58655248D01*
X162110560Y-58637969D01*
X162105513Y-58635407D01*
X162077865Y-58623503D01*
X162066590Y-58622559D01*
X161520663Y-58622559D01*
X161506835Y-58608655D01*
X162037277Y-58608655D01*
X162044605Y-58615984D01*
X162051933Y-58608655D01*
X162044605Y-58601327D01*
X162037277Y-58608655D01*
X161506835Y-58608655D01*
X161492260Y-58593999D01*
X162007963Y-58593999D01*
X162015292Y-58601327D01*
X162022620Y-58593999D01*
X162015292Y-58586670D01*
X162007963Y-58593999D01*
X161492260Y-58593999D01*
X161477683Y-58579342D01*
X161978650Y-58579342D01*
X161985978Y-58586670D01*
X161993307Y-58579342D01*
X161985978Y-58572014D01*
X161978650Y-58579342D01*
X161477683Y-58579342D01*
X161463107Y-58564685D01*
X161949337Y-58564685D01*
X161956665Y-58572014D01*
X161963993Y-58564685D01*
X161956665Y-58557357D01*
X161949337Y-58564685D01*
X161463107Y-58564685D01*
X161448532Y-58550029D01*
X161920023Y-58550029D01*
X161927352Y-58557357D01*
X161934680Y-58550029D01*
X161927352Y-58542700D01*
X161920023Y-58550029D01*
X161448532Y-58550029D01*
X161442259Y-58543721D01*
X161427612Y-58530046D01*
X161349715Y-58462329D01*
X161341168Y-58455583D01*
X161730585Y-58455583D01*
X161738885Y-58463567D01*
X161765100Y-58479182D01*
X161778229Y-58486128D01*
X161822305Y-58507570D01*
X161863319Y-58525239D01*
X161893572Y-58535982D01*
X161905367Y-58536643D01*
X161894158Y-58528400D01*
X161864289Y-58512545D01*
X161824408Y-58493262D01*
X161783184Y-58474600D01*
X161749285Y-58460612D01*
X161731380Y-58455347D01*
X161730585Y-58455583D01*
X161341168Y-58455583D01*
X161330842Y-58447432D01*
X161700173Y-58447432D01*
X161707502Y-58454760D01*
X161714830Y-58447432D01*
X161707502Y-58440104D01*
X161700173Y-58447432D01*
X161330842Y-58447432D01*
X161288277Y-58413834D01*
X161629815Y-58413834D01*
X161641547Y-58425447D01*
X161654102Y-58432357D01*
X161678188Y-58439655D01*
X161682591Y-58437061D01*
X161670860Y-58425447D01*
X161658305Y-58418537D01*
X161634218Y-58411239D01*
X161629815Y-58413834D01*
X161288277Y-58413834D01*
X161277628Y-58405428D01*
X161585513Y-58405428D01*
X161597577Y-58410790D01*
X161605336Y-58409733D01*
X161607348Y-58401019D01*
X161605200Y-58399265D01*
X161587805Y-58401019D01*
X161585513Y-58405428D01*
X161277628Y-58405428D01*
X161264772Y-58395280D01*
X161229525Y-58369864D01*
X161512562Y-58369864D01*
X161524293Y-58381477D01*
X161536849Y-58388387D01*
X161560935Y-58395685D01*
X161565338Y-58393091D01*
X161553607Y-58381477D01*
X161541051Y-58374567D01*
X161516965Y-58367269D01*
X161512562Y-58369864D01*
X161229525Y-58369864D01*
X161215141Y-58359492D01*
X161480323Y-58359492D01*
X161487652Y-58366820D01*
X161494980Y-58359492D01*
X161487652Y-58352164D01*
X161480323Y-58359492D01*
X161215141Y-58359492D01*
X161192699Y-58343309D01*
X161425666Y-58343309D01*
X161425893Y-58348312D01*
X161444903Y-58351007D01*
X161459310Y-58348660D01*
X161453758Y-58342152D01*
X161445282Y-58339810D01*
X161425666Y-58343309D01*
X161192699Y-58343309D01*
X161179702Y-58333937D01*
X161144584Y-58311237D01*
X161351338Y-58311237D01*
X161363070Y-58322850D01*
X161375625Y-58329761D01*
X161399712Y-58337058D01*
X161404115Y-58334464D01*
X161392383Y-58322850D01*
X161379828Y-58315940D01*
X161355742Y-58308643D01*
X161351338Y-58311237D01*
X161144584Y-58311237D01*
X161131580Y-58302831D01*
X161307036Y-58302831D01*
X161319100Y-58308194D01*
X161326859Y-58307136D01*
X161328871Y-58298423D01*
X161326723Y-58296669D01*
X161309329Y-58298423D01*
X161307036Y-58302831D01*
X161131580Y-58302831D01*
X161101425Y-58283339D01*
X161076370Y-58269829D01*
X161194377Y-58269829D01*
X161209175Y-58278880D01*
X161229304Y-58285518D01*
X161267802Y-58291046D01*
X161277973Y-58290641D01*
X161282808Y-58287291D01*
X161260473Y-58278880D01*
X161226420Y-58269924D01*
X161202158Y-58266844D01*
X161194377Y-58269829D01*
X161076370Y-58269829D01*
X161056029Y-58258861D01*
X161145813Y-58258861D01*
X161157877Y-58264224D01*
X161165636Y-58263166D01*
X161167648Y-58254453D01*
X161165500Y-58252699D01*
X161148106Y-58254453D01*
X161145813Y-58258861D01*
X161056029Y-58258861D01*
X161036860Y-58248525D01*
X161036715Y-58248459D01*
X161029806Y-58244204D01*
X161101843Y-58244204D01*
X161113907Y-58249567D01*
X161121666Y-58248509D01*
X161123678Y-58239796D01*
X161121530Y-58238042D01*
X161104136Y-58239796D01*
X161101843Y-58244204D01*
X161029806Y-58244204D01*
X161011049Y-58232652D01*
X161007597Y-58226055D01*
X161029936Y-58226055D01*
X161030163Y-58231059D01*
X161049173Y-58233753D01*
X161063580Y-58231406D01*
X161058028Y-58224898D01*
X161049553Y-58222557D01*
X161029936Y-58226055D01*
X161007597Y-58226055D01*
X161004295Y-58219746D01*
X161003512Y-58216695D01*
X160982947Y-58207507D01*
X160939716Y-58196167D01*
X160878386Y-58183344D01*
X160803526Y-58169707D01*
X160719703Y-58155925D01*
X160631486Y-58142666D01*
X160543441Y-58130601D01*
X160460137Y-58120397D01*
X160386142Y-58112724D01*
X160326022Y-58108251D01*
X160284348Y-58107646D01*
X160265685Y-58111579D01*
X160263843Y-58115145D01*
X160256160Y-58142890D01*
X160245566Y-58192515D01*
X160232936Y-58258729D01*
X160219147Y-58336240D01*
X160205077Y-58419758D01*
X160191601Y-58503991D01*
X160179598Y-58583648D01*
X160169942Y-58653438D01*
X160163512Y-58708070D01*
X160161184Y-58742253D01*
X160161731Y-58757109D01*
X160178507Y-58819434D01*
X160216542Y-58864486D01*
X160272905Y-58888429D01*
X160316217Y-58891240D01*
X160373658Y-58873755D01*
X160417600Y-58830738D01*
X160421612Y-58822723D01*
X160433697Y-58785641D01*
X160448079Y-58728315D01*
X160463289Y-58656914D01*
X160477860Y-58577606D01*
X160484479Y-58538863D01*
X160496934Y-58467731D01*
X160507417Y-58410169D01*
X160514986Y-58371295D01*
X160518696Y-58356222D01*
X160522030Y-58355883D01*
X160546657Y-58361736D01*
X160589406Y-58375294D01*
X160643808Y-58394257D01*
X160703392Y-58416325D01*
X160761687Y-58439197D01*
X160812223Y-58460573D01*
X160817739Y-58463057D01*
X160926434Y-58520154D01*
X161038153Y-58592632D01*
X161147865Y-58676095D01*
X161250537Y-58766145D01*
X161341137Y-58858384D01*
X161414631Y-58948414D01*
X161465988Y-59031840D01*
X161489422Y-59082893D01*
X161506610Y-59133801D01*
X161516111Y-59188214D01*
X161521048Y-59259018D01*
X161521131Y-59260922D01*
X161522125Y-59300956D01*
X161521096Y-59340657D01*
X161517402Y-59384155D01*
X161510403Y-59435581D01*
X161499455Y-59499065D01*
X161483918Y-59578739D01*
X161463149Y-59678731D01*
X161436507Y-59803174D01*
X161432435Y-59822118D01*
X161409677Y-59930961D01*
X161389784Y-60031092D01*
X161373474Y-60118533D01*
X161361464Y-60189310D01*
X161354472Y-60239444D01*
X161353214Y-60264961D01*
X161356929Y-60280051D01*
X161372213Y-60323089D01*
X161395707Y-60379430D01*
X161424095Y-60440841D01*
X161440508Y-60474746D01*
X161468681Y-60533468D01*
X161491603Y-60581896D01*
X161505462Y-60612012D01*
X161508932Y-60620412D01*
X161511638Y-60633668D01*
X161507946Y-60648021D01*
X161495185Y-60666437D01*
X161470684Y-60691879D01*
X161431772Y-60727311D01*
X161375779Y-60775697D01*
X161300035Y-60840000D01*
X161250289Y-60882119D01*
X161138077Y-60977080D01*
X161045553Y-61055289D01*
X160970802Y-61118337D01*
X160911912Y-61167815D01*
X160866969Y-61205315D01*
X160834062Y-61232428D01*
X160811275Y-61250745D01*
X160796697Y-61261859D01*
X160788414Y-61267360D01*
X160784513Y-61268840D01*
X160783963Y-61268177D01*
X160781763Y-61248552D01*
X160780218Y-61204926D01*
X160779394Y-61141672D01*
X160779354Y-61063160D01*
X160780164Y-60973764D01*
X160784132Y-60678689D01*
X160913909Y-60595979D01*
X160947163Y-60573985D01*
X161001729Y-60534027D01*
X161042990Y-60498661D01*
X161064865Y-60472849D01*
X161069515Y-60461820D01*
X161075178Y-60437841D01*
X161079188Y-60402207D01*
X161081693Y-60351388D01*
X161082840Y-60281856D01*
X161082778Y-60190083D01*
X161081654Y-60072539D01*
X161077265Y-59712649D01*
X161036142Y-59677300D01*
X161026202Y-59669064D01*
X161003168Y-59653632D01*
X160978351Y-59644605D01*
X160948727Y-59642880D01*
X160911271Y-59649353D01*
X160862960Y-59664922D01*
X160800769Y-59690484D01*
X160721673Y-59726935D01*
X160622648Y-59775173D01*
X160500669Y-59836093D01*
X160389444Y-59892356D01*
X160294420Y-59941448D01*
X160221039Y-59980816D01*
X160166792Y-60011901D01*
X160129172Y-60036145D01*
X160105671Y-60054988D01*
X160093780Y-60069872D01*
X160086495Y-60090652D01*
X160080340Y-60128412D01*
X160076253Y-60184598D01*
X160073984Y-60262830D01*
X160073283Y-60366727D01*
X160073283Y-60623947D01*
X160000000Y-60623947D01*
X159926717Y-60623947D01*
X159926717Y-60366727D01*
X159926183Y-60274279D01*
X159924123Y-60193052D01*
X159920276Y-60134322D01*
X159914391Y-60094468D01*
X159906220Y-60069872D01*
X159895355Y-60055988D01*
X159872627Y-60037425D01*
X159835933Y-60013549D01*
X159782765Y-59982919D01*
X159710613Y-59944093D01*
X159616971Y-59895632D01*
X159499331Y-59836093D01*
X159444752Y-59808725D01*
X159332849Y-59753277D01*
X159242621Y-59710134D01*
X159171043Y-59678397D01*
X159115091Y-59657171D01*
X159071739Y-59645558D01*
X159037965Y-59642661D01*
X159010743Y-59647584D01*
X158987049Y-59659429D01*
X158963858Y-59677300D01*
X158922735Y-59712650D01*
X158918748Y-60076694D01*
X158917838Y-60156079D01*
X158917072Y-60259879D01*
X158918273Y-60340835D01*
X158922743Y-60402909D01*
X158931789Y-60450059D01*
X158946713Y-60486247D01*
X158968821Y-60515432D01*
X158999416Y-60541575D01*
X159039804Y-60568636D01*
X159091287Y-60600576D01*
X159215869Y-60677968D01*
X159219836Y-60973404D01*
X159220087Y-60993522D01*
X159220707Y-61080985D01*
X159220493Y-61156617D01*
X159219508Y-61216050D01*
X159217819Y-61254914D01*
X159215488Y-61268840D01*
X159214359Y-61268638D01*
X159208969Y-61265772D01*
X159198448Y-61258261D01*
X159180881Y-61244515D01*
X159154357Y-61222941D01*
X159116962Y-61191948D01*
X159066783Y-61149945D01*
X159001907Y-61095340D01*
X158920421Y-61026542D01*
X158820411Y-60941959D01*
X158699965Y-60840000D01*
X158653241Y-60800397D01*
X158589340Y-60745736D01*
X158543632Y-60705265D01*
X158513449Y-60676019D01*
X158496118Y-60655034D01*
X158488970Y-60639348D01*
X158489334Y-60625995D01*
X158494538Y-60612012D01*
X158500841Y-60598129D01*
X158520175Y-60556912D01*
X158546468Y-60501809D01*
X158575906Y-60440841D01*
X158592024Y-60406716D01*
X158618113Y-60347094D01*
X158637473Y-60297098D01*
X158646786Y-60264961D01*
X158647007Y-60262552D01*
X158644731Y-60232602D01*
X158636842Y-60178705D01*
X158624056Y-60104837D01*
X158607091Y-60014975D01*
X158586664Y-59913095D01*
X158563493Y-59803174D01*
X158562139Y-59796896D01*
X158535779Y-59673661D01*
X158515264Y-59574687D01*
X158499950Y-59495843D01*
X158489197Y-59433000D01*
X158482362Y-59382026D01*
X158478804Y-59338792D01*
X158477882Y-59299166D01*
X158478953Y-59259018D01*
X158479877Y-59241775D01*
X158492166Y-59147541D01*
X158518262Y-59062668D01*
X158561138Y-58981294D01*
X158623773Y-58897559D01*
X158709139Y-58805600D01*
X158777066Y-58740028D01*
X158893408Y-58641433D01*
X159013585Y-58558588D01*
X159147370Y-58484326D01*
X159188019Y-58464777D01*
X159249342Y-58437534D01*
X159313602Y-58410916D01*
X159374864Y-58387199D01*
X159427192Y-58368659D01*
X159464651Y-58357575D01*
X159481304Y-58356222D01*
X159482603Y-58360404D01*
X159488345Y-58387923D01*
X159497478Y-58436706D01*
X159509057Y-58501639D01*
X159522140Y-58577606D01*
X159538925Y-58670864D01*
X159555662Y-58747084D01*
X159572575Y-58802171D01*
X159591283Y-58840294D01*
X159613407Y-58865619D01*
X159640565Y-58882313D01*
X159656185Y-58887839D01*
X159711317Y-58890473D01*
X159766528Y-58873667D01*
X159808828Y-58840640D01*
X159815951Y-58830715D01*
X159827836Y-58806395D01*
X159834759Y-58775206D01*
X159836565Y-58733508D01*
X159833098Y-58677660D01*
X159824201Y-58604021D01*
X159809721Y-58508950D01*
X159789499Y-58388805D01*
X159741365Y-58110329D01*
X159617855Y-58114105D01*
X159597814Y-58115033D01*
X159537614Y-58119980D01*
X159464625Y-58128108D01*
X159384084Y-58138596D01*
X159301231Y-58150625D01*
X159221304Y-58163376D01*
X159149541Y-58176029D01*
X159091180Y-58187763D01*
X159051461Y-58197760D01*
X159035622Y-58205201D01*
X159026030Y-58211290D01*
X158998980Y-58211207D01*
X158982291Y-58209490D01*
X158985224Y-58214050D01*
X158986922Y-58217417D01*
X158976060Y-58230553D01*
X158973498Y-58233652D01*
X158965392Y-58239796D01*
X158949495Y-58251845D01*
X158939079Y-58259740D01*
X158891637Y-58290033D01*
X158887031Y-58292974D01*
X158878138Y-58298423D01*
X158859404Y-58309901D01*
X158852474Y-58314678D01*
X158791010Y-58357049D01*
X158766205Y-58374149D01*
X158746150Y-58387974D01*
X158713527Y-58410463D01*
X158707236Y-58415676D01*
X158686600Y-58432775D01*
X158669914Y-58446601D01*
X158633534Y-58476745D01*
X158615845Y-58491402D01*
X158598155Y-58506059D01*
X158588453Y-58514098D01*
X158579329Y-58521658D01*
X158476875Y-58623312D01*
X158462102Y-58637969D01*
X158460153Y-58639903D01*
X158449616Y-58652625D01*
X158440066Y-58664155D01*
X158413198Y-58696595D01*
X158403648Y-58708125D01*
X158379517Y-58737260D01*
X158359343Y-58761617D01*
X158346469Y-58781408D01*
X158326507Y-58812095D01*
X158289263Y-58869348D01*
X158280241Y-58883217D01*
X158241441Y-58967855D01*
X158226192Y-59001120D01*
X158218237Y-59026482D01*
X158216115Y-59033247D01*
X158197104Y-59128071D01*
X158186761Y-59246220D01*
X158186354Y-59254834D01*
X158185262Y-59282862D01*
X158184326Y-59306880D01*
X158184004Y-59352243D01*
X158186048Y-59395968D01*
X158191119Y-59443097D01*
X158199876Y-59498675D01*
X158200642Y-59502712D01*
X158212980Y-59567744D01*
X158226806Y-59634622D01*
X158231091Y-59655349D01*
X158247057Y-59730002D01*
X158254869Y-59766532D01*
X158256617Y-59774651D01*
X158262778Y-59803285D01*
X158275393Y-59861912D01*
X158283218Y-59898281D01*
X158288814Y-59924628D01*
X158298154Y-59968598D01*
X158304168Y-59996910D01*
X158310975Y-60030352D01*
X158315473Y-60052448D01*
X158319861Y-60074007D01*
X158327982Y-60118292D01*
X158330688Y-60133047D01*
X158332322Y-60144478D01*
X158337042Y-60177500D01*
X158337788Y-60188448D01*
X158339315Y-60210840D01*
X158337955Y-60235545D01*
X158337900Y-60236537D01*
X158333189Y-60258065D01*
X158331849Y-60261731D01*
X158325576Y-60278896D01*
X158315451Y-60302500D01*
X158312673Y-60308828D01*
X158307453Y-60320719D01*
X158299499Y-60338142D01*
X158286116Y-60367455D01*
X158281638Y-60377264D01*
X158273931Y-60393641D01*
X158252386Y-60439421D01*
X158250007Y-60444476D01*
X158217660Y-60511456D01*
X158210065Y-60528678D01*
X158190477Y-60573093D01*
X158179766Y-60597381D01*
X158174080Y-60616618D01*
X158162811Y-60654746D01*
X158157533Y-60672605D01*
X158155521Y-60719215D01*
X158155059Y-60729930D01*
X152675507Y-60729930D01*
X152677859Y-60719215D01*
X155969417Y-60719215D01*
X155976746Y-60726543D01*
X155984074Y-60719215D01*
X155976746Y-60711887D01*
X155969417Y-60719215D01*
X152677859Y-60719215D01*
X152678285Y-60717275D01*
X152684176Y-60690290D01*
X155986905Y-60690290D01*
X155993506Y-60690161D01*
X156005117Y-60672213D01*
X156006160Y-60669432D01*
X156009235Y-60654746D01*
X155996912Y-60664008D01*
X155988549Y-60674785D01*
X155986905Y-60690290D01*
X152684176Y-60690290D01*
X152700259Y-60616618D01*
X156013387Y-60616618D01*
X156020716Y-60623947D01*
X156028044Y-60616618D01*
X156020716Y-60609290D01*
X156013387Y-60616618D01*
X152700259Y-60616618D01*
X152701859Y-60609290D01*
X152704787Y-60595835D01*
X152707490Y-60583468D01*
X156034085Y-60583468D01*
X156036656Y-60594155D01*
X156050632Y-60579002D01*
X156053567Y-60573093D01*
X156053307Y-60556385D01*
X156048434Y-60556055D01*
X156037643Y-60572016D01*
X156034085Y-60583468D01*
X152707490Y-60583468D01*
X152719466Y-60528678D01*
X156057357Y-60528678D01*
X156064686Y-60536007D01*
X156072014Y-60528678D01*
X156064686Y-60521350D01*
X156057357Y-60528678D01*
X152719466Y-60528678D01*
X152724272Y-60506693D01*
X156079141Y-60506693D01*
X156086071Y-60501663D01*
X156099722Y-60480268D01*
X156110758Y-60454807D01*
X156112224Y-60439421D01*
X156103332Y-60445403D01*
X156089366Y-60469990D01*
X156079633Y-60495311D01*
X156079141Y-60506693D01*
X152724272Y-60506693D01*
X152732403Y-60469494D01*
X152745126Y-60412290D01*
X156115984Y-60412290D01*
X156116127Y-60414339D01*
X156124611Y-60417567D01*
X156139369Y-60401832D01*
X156142935Y-60393641D01*
X156132905Y-60395369D01*
X156126394Y-60399893D01*
X156115984Y-60412290D01*
X152745126Y-60412290D01*
X152754908Y-60368312D01*
X152755106Y-60367455D01*
X156145297Y-60367455D01*
X156152626Y-60374783D01*
X156159954Y-60367455D01*
X156152626Y-60360127D01*
X156145297Y-60367455D01*
X152755106Y-60367455D01*
X152761869Y-60338142D01*
X156159954Y-60338142D01*
X156167282Y-60345470D01*
X156174611Y-60338142D01*
X156167282Y-60330813D01*
X156159954Y-60338142D01*
X152761869Y-60338142D01*
X152768632Y-60308828D01*
X156174611Y-60308828D01*
X156181939Y-60316157D01*
X156189267Y-60308828D01*
X156181939Y-60301500D01*
X156174611Y-60308828D01*
X152768632Y-60308828D01*
X152773187Y-60289081D01*
X152775336Y-60280380D01*
X156189267Y-60280380D01*
X156189410Y-60282429D01*
X156197894Y-60285657D01*
X156212652Y-60269922D01*
X156216218Y-60261731D01*
X156206189Y-60263459D01*
X156199678Y-60267983D01*
X156189267Y-60280380D01*
X152775336Y-60280380D01*
X152786408Y-60235545D01*
X156218581Y-60235545D01*
X156225909Y-60242873D01*
X156233237Y-60235545D01*
X156225909Y-60228217D01*
X156218581Y-60235545D01*
X152786408Y-60235545D01*
X152788126Y-60228588D01*
X152794093Y-60207097D01*
X156233237Y-60207097D01*
X156233380Y-60209146D01*
X156241864Y-60212373D01*
X156256622Y-60196639D01*
X156260188Y-60188448D01*
X156250159Y-60190176D01*
X156243648Y-60194700D01*
X156233237Y-60207097D01*
X152794093Y-60207097D01*
X152800610Y-60183625D01*
X152807462Y-60163127D01*
X156262551Y-60163127D01*
X156262693Y-60165176D01*
X156271178Y-60168403D01*
X156285935Y-60152669D01*
X156289501Y-60144478D01*
X156279472Y-60146206D01*
X156272961Y-60150730D01*
X156262551Y-60163127D01*
X152807462Y-60163127D01*
X152811523Y-60150980D01*
X152821751Y-60127443D01*
X152827161Y-60118292D01*
X156291864Y-60118292D01*
X156299192Y-60125620D01*
X156306521Y-60118292D01*
X156299192Y-60110963D01*
X156291864Y-60118292D01*
X152827161Y-60118292D01*
X152832179Y-60109805D01*
X152843692Y-60094853D01*
X152847325Y-60090773D01*
X156306521Y-60090773D01*
X156306761Y-60093345D01*
X156316311Y-60093444D01*
X156337704Y-60070658D01*
X156345891Y-60060038D01*
X156349531Y-60052448D01*
X156332170Y-60065124D01*
X156316537Y-60078539D01*
X156306521Y-60090773D01*
X152847325Y-60090773D01*
X152852065Y-60085449D01*
X152873105Y-60067141D01*
X152899928Y-60052668D01*
X152936451Y-60041225D01*
X152986594Y-60032005D01*
X153000930Y-60030352D01*
X156350491Y-60030352D01*
X156357819Y-60037680D01*
X156365147Y-60030352D01*
X156357819Y-60023024D01*
X156350491Y-60030352D01*
X153000930Y-60030352D01*
X153054276Y-60024201D01*
X153143417Y-60017008D01*
X153257934Y-60009618D01*
X153332220Y-60005130D01*
X153546228Y-59992100D01*
X153624310Y-59987247D01*
X156379804Y-59987247D01*
X156379947Y-59989296D01*
X156388431Y-59992524D01*
X156403189Y-59976789D01*
X156406755Y-59968598D01*
X156396725Y-59970326D01*
X156390214Y-59974850D01*
X156379804Y-59987247D01*
X153624310Y-59987247D01*
X153733493Y-59980461D01*
X153895925Y-59969995D01*
X154035436Y-59960485D01*
X154153938Y-59951715D01*
X154253341Y-59943468D01*
X154255319Y-59943277D01*
X156409117Y-59943277D01*
X156409260Y-59945326D01*
X156417744Y-59948554D01*
X156432502Y-59932819D01*
X156436068Y-59924628D01*
X156426039Y-59926356D01*
X156419528Y-59930880D01*
X156409117Y-59943277D01*
X154255319Y-59943277D01*
X154335559Y-59935527D01*
X154402500Y-59927677D01*
X154456078Y-59919699D01*
X154498204Y-59911377D01*
X154530788Y-59902496D01*
X154536627Y-59900236D01*
X156438431Y-59900236D01*
X156438671Y-59902808D01*
X156448221Y-59902907D01*
X156469613Y-59880121D01*
X156477801Y-59869501D01*
X156481441Y-59861912D01*
X156464080Y-59874587D01*
X156448447Y-59888002D01*
X156438431Y-59900236D01*
X154536627Y-59900236D01*
X154555743Y-59892837D01*
X154574979Y-59882185D01*
X154590408Y-59870322D01*
X154603942Y-59857032D01*
X154614184Y-59843724D01*
X154615556Y-59841610D01*
X156482401Y-59841610D01*
X156482641Y-59844182D01*
X156492191Y-59844281D01*
X156513583Y-59821494D01*
X156521771Y-59810875D01*
X156525411Y-59803285D01*
X156508050Y-59815961D01*
X156492417Y-59829375D01*
X156482401Y-59841610D01*
X154615556Y-59841610D01*
X154639016Y-59805471D01*
X154661355Y-59768327D01*
X156541027Y-59768327D01*
X156541268Y-59770898D01*
X156550817Y-59770997D01*
X156572210Y-59748211D01*
X156580398Y-59737591D01*
X156584037Y-59730002D01*
X156566676Y-59742677D01*
X156551043Y-59756092D01*
X156541027Y-59768327D01*
X154661355Y-59768327D01*
X154672434Y-59749905D01*
X154703697Y-59695520D01*
X156599654Y-59695520D01*
X156600383Y-59699292D01*
X156611701Y-59695294D01*
X156637688Y-59667599D01*
X156665609Y-59634622D01*
X156632631Y-59662543D01*
X156609538Y-59683550D01*
X156599654Y-59695520D01*
X154703697Y-59695520D01*
X154711361Y-59682187D01*
X154752328Y-59608184D01*
X156672937Y-59608184D01*
X156673271Y-59610711D01*
X156680105Y-59610113D01*
X156698568Y-59593480D01*
X156732353Y-59557674D01*
X156782862Y-59502712D01*
X156727900Y-59553221D01*
X156707841Y-59571963D01*
X156682745Y-59596640D01*
X156672937Y-59608184D01*
X154752328Y-59608184D01*
X154752717Y-59607481D01*
X154789349Y-59539366D01*
X154821673Y-59476639D01*
X156790191Y-59476639D01*
X156791318Y-59479625D01*
X156798664Y-59476287D01*
X156815823Y-59460960D01*
X156846203Y-59430508D01*
X156893211Y-59381794D01*
X156988056Y-59282862D01*
X156889123Y-59377707D01*
X156864860Y-59401092D01*
X156826487Y-59438685D01*
X156800042Y-59465422D01*
X156790191Y-59476639D01*
X154821673Y-59476639D01*
X154823804Y-59472503D01*
X154847103Y-59422189D01*
X154861257Y-59383533D01*
X154868275Y-59351643D01*
X154870167Y-59321627D01*
X154870175Y-59319802D01*
X154870600Y-59306399D01*
X154870928Y-59294861D01*
X154870105Y-59283250D01*
X154867076Y-59269629D01*
X154860786Y-59252059D01*
X154856073Y-59241634D01*
X157039354Y-59241634D01*
X157039355Y-59241798D01*
X157044072Y-59245330D01*
X157060315Y-59231885D01*
X157091574Y-59198586D01*
X157132144Y-59153694D01*
X157141951Y-59153694D01*
X157141951Y-59153858D01*
X157146668Y-59157390D01*
X157162911Y-59143945D01*
X157194171Y-59110646D01*
X157235597Y-59064807D01*
X157244547Y-59064807D01*
X157244788Y-59067378D01*
X157254337Y-59067478D01*
X157275730Y-59044691D01*
X157283918Y-59034072D01*
X157287557Y-59026482D01*
X157270196Y-59039157D01*
X157254563Y-59052572D01*
X157246016Y-59063012D01*
X157244547Y-59064807D01*
X157235597Y-59064807D01*
X157237219Y-59063012D01*
X157189585Y-59106060D01*
X157176488Y-59118073D01*
X157151763Y-59142047D01*
X157144261Y-59150952D01*
X157141951Y-59153694D01*
X157132144Y-59153694D01*
X157134622Y-59150952D01*
X157086988Y-59194000D01*
X157073892Y-59206013D01*
X157049166Y-59229987D01*
X157039354Y-59241634D01*
X154856073Y-59241634D01*
X154850182Y-59228601D01*
X154834209Y-59197319D01*
X154811812Y-59156273D01*
X154781937Y-59103525D01*
X154743530Y-59037138D01*
X154725403Y-59006180D01*
X157317831Y-59006180D01*
X157318071Y-59008752D01*
X157327620Y-59008851D01*
X157349013Y-58986064D01*
X157357201Y-58975445D01*
X157360840Y-58967855D01*
X157343480Y-58980531D01*
X157327846Y-58993945D01*
X157317831Y-59006180D01*
X154725403Y-59006180D01*
X154699190Y-58961413D01*
X157376457Y-58961413D01*
X157376603Y-58963822D01*
X157381184Y-58966321D01*
X157396367Y-58956137D01*
X157427755Y-58929818D01*
X157471725Y-58892038D01*
X157424091Y-58923560D01*
X157414733Y-58929877D01*
X157387436Y-58950117D01*
X157376457Y-58961413D01*
X154699190Y-58961413D01*
X154695537Y-58955174D01*
X154655942Y-58887997D01*
X157479054Y-58887997D01*
X157479196Y-58890046D01*
X157484432Y-58892038D01*
X157487681Y-58893274D01*
X157502438Y-58877539D01*
X157506005Y-58869348D01*
X157495975Y-58871076D01*
X157489464Y-58875600D01*
X157479054Y-58887997D01*
X154655942Y-58887997D01*
X154641422Y-58863361D01*
X157524805Y-58863361D01*
X157536253Y-58858393D01*
X157566994Y-58834524D01*
X157586827Y-58817770D01*
X157590125Y-58812095D01*
X157571474Y-58820272D01*
X157549656Y-58833127D01*
X157530303Y-58850569D01*
X157524805Y-58863361D01*
X154641422Y-58863361D01*
X154636902Y-58855693D01*
X154604002Y-58800057D01*
X157610964Y-58800057D01*
X157611106Y-58802106D01*
X157619591Y-58805334D01*
X157634348Y-58789599D01*
X157637915Y-58781408D01*
X157627885Y-58783136D01*
X157621374Y-58787660D01*
X157610964Y-58800057D01*
X154604002Y-58800057D01*
X154586461Y-58770394D01*
X157654934Y-58770394D01*
X157655950Y-58775320D01*
X157666292Y-58773634D01*
X157692438Y-58754413D01*
X157707882Y-58741809D01*
X157710407Y-58737260D01*
X157687911Y-58747601D01*
X157666445Y-58759655D01*
X157654934Y-58770394D01*
X154586461Y-58770394D01*
X154566571Y-58736759D01*
X154560659Y-58726774D01*
X157728217Y-58726774D01*
X157728360Y-58728823D01*
X157736844Y-58732050D01*
X157751602Y-58716316D01*
X157755168Y-58708125D01*
X157745138Y-58709852D01*
X157738627Y-58714377D01*
X157728217Y-58726774D01*
X154560659Y-58726774D01*
X154542792Y-58696595D01*
X157772187Y-58696595D01*
X157779515Y-58703924D01*
X157786844Y-58696595D01*
X157779515Y-58689267D01*
X157772187Y-58696595D01*
X154542792Y-58696595D01*
X154534627Y-58682804D01*
X157801500Y-58682804D01*
X157801643Y-58684853D01*
X157810127Y-58688080D01*
X157824885Y-58672346D01*
X157828451Y-58664155D01*
X157818422Y-58665882D01*
X157811911Y-58670407D01*
X157801500Y-58682804D01*
X154534627Y-58682804D01*
X154516760Y-58652625D01*
X157845470Y-58652625D01*
X157852799Y-58659954D01*
X157860127Y-58652625D01*
X157852799Y-58645297D01*
X157845470Y-58652625D01*
X154516760Y-58652625D01*
X154508083Y-58637969D01*
X157874784Y-58637969D01*
X157882112Y-58645297D01*
X157889440Y-58637969D01*
X157882112Y-58630640D01*
X157874784Y-58637969D01*
X154508083Y-58637969D01*
X154499405Y-58623312D01*
X157904097Y-58623312D01*
X157911425Y-58630640D01*
X157918754Y-58623312D01*
X157911425Y-58615984D01*
X157904097Y-58623312D01*
X154499405Y-58623312D01*
X154490852Y-58608866D01*
X157933410Y-58608866D01*
X157933410Y-58609019D01*
X157933941Y-58613439D01*
X157939131Y-58613514D01*
X157954315Y-58606945D01*
X157984828Y-58591434D01*
X158036007Y-58564685D01*
X158044711Y-58560100D01*
X158086757Y-58536994D01*
X158113636Y-58520558D01*
X158119865Y-58514098D01*
X158117880Y-58514273D01*
X158095724Y-58522205D01*
X158059185Y-58538834D01*
X158016474Y-58559988D01*
X157975801Y-58581493D01*
X157945376Y-58599177D01*
X157933410Y-58608866D01*
X154490852Y-58608866D01*
X154483491Y-58596432D01*
X154429991Y-58506059D01*
X158138604Y-58506059D01*
X158145932Y-58513387D01*
X158153260Y-58506059D01*
X158145932Y-58498730D01*
X158138604Y-58506059D01*
X154429991Y-58506059D01*
X154421314Y-58491402D01*
X158167917Y-58491402D01*
X158175245Y-58498730D01*
X158182574Y-58491402D01*
X158175245Y-58484074D01*
X158167917Y-58491402D01*
X154421314Y-58491402D01*
X154412637Y-58476745D01*
X158197230Y-58476745D01*
X158204559Y-58484074D01*
X158211887Y-58476745D01*
X158204559Y-58469417D01*
X158197230Y-58476745D01*
X154412637Y-58476745D01*
X154404453Y-58462920D01*
X158231250Y-58462920D01*
X158233872Y-58468968D01*
X158243794Y-58467163D01*
X158270514Y-58454760D01*
X158280464Y-58446601D01*
X158277842Y-58440553D01*
X158267920Y-58442358D01*
X158241200Y-58454760D01*
X158231250Y-58462920D01*
X154404453Y-58462920D01*
X154386607Y-58432775D01*
X158299827Y-58432775D01*
X158307155Y-58440104D01*
X158314484Y-58432775D01*
X158307155Y-58425447D01*
X158299827Y-58432775D01*
X154386607Y-58432775D01*
X154379109Y-58420084D01*
X158331733Y-58420084D01*
X158343797Y-58425447D01*
X158351556Y-58424389D01*
X158353568Y-58415676D01*
X158351420Y-58413922D01*
X158334026Y-58415676D01*
X158331733Y-58420084D01*
X154379109Y-58420084D01*
X154369779Y-58404293D01*
X158377817Y-58404293D01*
X158380439Y-58410342D01*
X158390361Y-58408536D01*
X158417080Y-58396134D01*
X158427030Y-58387974D01*
X158424409Y-58381926D01*
X158414486Y-58383731D01*
X158387767Y-58396134D01*
X158377817Y-58404293D01*
X154369779Y-58404293D01*
X154362313Y-58391658D01*
X154352032Y-58374149D01*
X158446394Y-58374149D01*
X158453722Y-58381477D01*
X158461050Y-58374149D01*
X158453722Y-58366820D01*
X158446394Y-58374149D01*
X154352032Y-58374149D01*
X154344580Y-58361458D01*
X158478300Y-58361458D01*
X158490364Y-58366820D01*
X158498123Y-58365763D01*
X158500135Y-58357049D01*
X158497987Y-58355295D01*
X158480593Y-58357049D01*
X158478300Y-58361458D01*
X154344580Y-58361458D01*
X154335374Y-58345779D01*
X158531877Y-58345779D01*
X158534334Y-58350388D01*
X158534578Y-58350391D01*
X158563016Y-58344723D01*
X158600289Y-58330708D01*
X158608292Y-58326949D01*
X158629577Y-58314678D01*
X158626968Y-58311093D01*
X158603860Y-58316244D01*
X158563647Y-58330179D01*
X158552293Y-58334797D01*
X158531877Y-58345779D01*
X154335374Y-58345779D01*
X154310156Y-58302831D01*
X158654180Y-58302831D01*
X158666244Y-58308194D01*
X158674003Y-58307136D01*
X158676015Y-58298423D01*
X158673867Y-58296669D01*
X158656473Y-58298423D01*
X158654180Y-58302831D01*
X154310156Y-58302831D01*
X154299500Y-58284682D01*
X158699527Y-58284682D01*
X158699753Y-58289685D01*
X158718763Y-58292380D01*
X158733170Y-58290033D01*
X158727618Y-58283525D01*
X158719143Y-58281183D01*
X158699527Y-58284682D01*
X154299500Y-58284682D01*
X154297436Y-58281167D01*
X154292942Y-58273441D01*
X158760076Y-58273441D01*
X158768840Y-58277626D01*
X158781522Y-58276376D01*
X158812810Y-58264224D01*
X158818739Y-58260061D01*
X158823275Y-58251845D01*
X158807243Y-58253233D01*
X158776169Y-58264224D01*
X158760076Y-58273441D01*
X154292942Y-58273441D01*
X154275938Y-58244204D01*
X158859373Y-58244204D01*
X158871437Y-58249567D01*
X158879196Y-58248509D01*
X158881208Y-58239796D01*
X158879060Y-58238042D01*
X158861666Y-58239796D01*
X158859373Y-58244204D01*
X154275938Y-58244204D01*
X154267847Y-58230293D01*
X158909257Y-58230293D01*
X158930064Y-58232596D01*
X158950226Y-58230553D01*
X158948384Y-58225204D01*
X158941750Y-58223268D01*
X158911743Y-58225204D01*
X158909257Y-58230293D01*
X154267847Y-58230293D01*
X154237710Y-58178476D01*
X154190072Y-58095672D01*
X160102597Y-58095672D01*
X160109925Y-58103000D01*
X160117253Y-58095672D01*
X160109925Y-58088344D01*
X160102597Y-58095672D01*
X154190072Y-58095672D01*
X154184783Y-58086479D01*
X154140301Y-58008071D01*
X154105911Y-57946146D01*
X154083260Y-57903598D01*
X154073995Y-57883321D01*
X154072084Y-57875120D01*
X154069042Y-57854528D01*
X154070009Y-57833599D01*
X154076500Y-57810473D01*
X154090029Y-57783291D01*
X154112111Y-57750195D01*
X154144261Y-57709327D01*
X154187992Y-57658826D01*
X154244821Y-57596835D01*
X154316261Y-57521493D01*
X154403827Y-57430944D01*
X154509033Y-57323327D01*
X154633395Y-57196783D01*
X155170629Y-56650831D01*
X155242650Y-56651411D01*
X155263327Y-56652245D01*
X155300053Y-56658262D01*
X155340924Y-56672288D01*
X155392790Y-56696918D01*
X155462499Y-56734750D01*
X155513292Y-56763169D01*
X155577295Y-56798936D01*
X155631874Y-56829391D01*
X155668956Y-56850025D01*
X155696214Y-56865138D01*
X155745610Y-56892521D01*
X155812667Y-56929692D01*
X155893338Y-56974407D01*
X155983578Y-57024425D01*
X156079342Y-57077504D01*
X156167095Y-57126148D01*
X156263446Y-57179573D01*
X156352783Y-57229122D01*
X156430449Y-57272214D01*
X156491788Y-57306264D01*
X156532144Y-57328690D01*
X156587152Y-57358531D01*
X156647962Y-57387199D01*
X156700909Y-57403504D01*
X156751462Y-57406939D01*
X156805089Y-57397002D01*
X156867258Y-57373187D01*
X156943438Y-57334989D01*
X157039097Y-57281905D01*
X157103628Y-57245279D01*
X157178609Y-57200766D01*
X157234894Y-57161574D01*
X157275341Y-57122758D01*
X157302808Y-57079374D01*
X157320152Y-57026481D01*
X157330230Y-56959134D01*
X157335900Y-56872389D01*
X157340020Y-56761304D01*
X157344689Y-56625694D01*
X157352090Y-56412589D01*
X157358754Y-56225889D01*
X157364851Y-56063761D01*
X157370548Y-55924371D01*
X157376014Y-55805887D01*
X157381418Y-55706473D01*
X157386929Y-55624298D01*
X157392716Y-55557527D01*
X157398947Y-55504326D01*
X157405791Y-55462863D01*
X157413417Y-55431304D01*
X157421993Y-55407815D01*
X157431688Y-55390563D01*
X157442672Y-55377714D01*
X157455112Y-55367435D01*
X157469178Y-55357893D01*
X157472725Y-55355842D01*
X157505101Y-55342889D01*
X157558246Y-55326110D01*
X157625642Y-55307451D01*
X157700769Y-55288853D01*
X157758452Y-55275351D01*
X158009473Y-55215647D01*
X158287857Y-55148025D01*
X158592960Y-55072641D01*
X158662761Y-55055839D01*
X158755841Y-55035226D01*
X158838220Y-55019027D01*
X158904045Y-55008369D01*
X158947464Y-55004378D01*
X158957275Y-55004308D01*
X158989204Y-55005116D01*
X159016790Y-55009485D01*
X159042014Y-55019912D01*
X159066859Y-55038891D01*
X159093307Y-55068919D01*
X159123339Y-55112490D01*
X159158938Y-55172101D01*
X159202086Y-55250248D01*
X159254765Y-55349425D01*
X159318956Y-55472129D01*
X159346620Y-55524772D01*
X159390087Y-55606711D01*
X159439967Y-55700119D01*
X159492053Y-55797122D01*
X159542137Y-55889844D01*
X159584503Y-55968049D01*
X159634399Y-56060277D01*
X159681878Y-56148152D01*
X159723084Y-56224536D01*
X159754162Y-56282294D01*
X159775457Y-56320633D01*
X159811150Y-56379980D01*
X159843810Y-56428883D01*
X159868363Y-56459472D01*
X159909582Y-56500691D01*
X160205697Y-56510247D01*
X160273016Y-56512319D01*
X160360157Y-56514401D01*
X160425200Y-56514782D01*
X160472571Y-56513274D01*
X160506700Y-56509690D01*
X160532011Y-56503842D01*
X160552934Y-56495543D01*
X160571756Y-56485178D01*
X160598050Y-56465266D01*
X160627578Y-56435812D01*
X160662844Y-56393780D01*
X160706350Y-56336134D01*
X160760602Y-56259838D01*
X160828102Y-56161856D01*
X160846722Y-56134665D01*
X160892079Y-56068828D01*
X160949504Y-55985829D01*
X161015928Y-55890090D01*
X161088280Y-55786034D01*
X161163490Y-55678084D01*
X161238488Y-55570662D01*
X161315726Y-55459718D01*
X161386087Y-55359009D01*
X161444256Y-55278520D01*
X161493072Y-55216573D01*
X161535373Y-55171492D01*
X161573999Y-55141600D01*
X161611788Y-55125221D01*
X161651579Y-55120677D01*
X161696210Y-55126293D01*
X161748522Y-55140391D01*
X161811353Y-55161296D01*
X161887541Y-55187329D01*
X161913216Y-55195923D01*
X162004586Y-55226549D01*
X162113113Y-55262974D01*
X162230865Y-55302535D01*
X162349911Y-55342567D01*
X162462320Y-55380405D01*
X162522646Y-55400715D01*
X162623319Y-55434568D01*
X162717695Y-55466255D01*
X162800405Y-55493976D01*
X162866080Y-55515931D01*
X162909348Y-55530318D01*
X162919080Y-55533543D01*
X162992309Y-55558984D01*
X163043648Y-55580212D01*
X163078828Y-55600452D01*
X163103579Y-55622928D01*
X163123633Y-55650863D01*
X163134338Y-55669677D01*
X163144118Y-55695654D01*
X163148592Y-55728071D01*
X163148603Y-55774508D01*
X163144997Y-55842547D01*
X163137344Y-55962179D01*
X163130775Y-56060370D01*
X163124938Y-56141516D01*
X163119368Y-56211769D01*
X163113601Y-56277280D01*
X163107174Y-56344201D01*
X163105623Y-56360075D01*
X163097959Y-56444074D01*
X163090612Y-56532282D01*
X163084984Y-56608021D01*
X163082541Y-56642615D01*
X163077101Y-56714750D01*
X163070179Y-56802779D01*
X163062413Y-56898639D01*
X163054441Y-56994268D01*
X163032276Y-57255935D01*
X163066080Y-57324043D01*
X163069654Y-57331030D01*
X163085661Y-57357094D01*
X163107445Y-57383075D01*
X163138743Y-57412222D01*
X163183289Y-57447785D01*
X163244817Y-57493015D01*
X163327063Y-57551161D01*
X163398206Y-57600366D01*
X163468195Y-57647595D01*
X163528556Y-57687133D01*
X163574542Y-57715872D01*
X163601405Y-57730705D01*
X163604036Y-57731846D01*
X163624598Y-57740110D01*
X163645188Y-57746168D01*
X163667735Y-57749366D01*
X163694165Y-57749051D01*
X163726409Y-57744568D01*
X163766393Y-57735264D01*
X163816046Y-57720485D01*
X163877296Y-57699576D01*
X163952071Y-57671884D01*
X164042300Y-57636754D01*
X164149910Y-57593534D01*
X164276830Y-57541569D01*
X164424988Y-57480204D01*
X164596312Y-57408787D01*
X164792730Y-57326662D01*
X164909280Y-57278022D01*
X165011482Y-57236001D01*
X165092810Y-57203869D01*
X165156436Y-57180836D01*
X165205536Y-57166114D01*
X165243284Y-57158913D01*
X165272853Y-57158444D01*
X165297418Y-57163918D01*
X165320153Y-57174545D01*
X165344232Y-57189537D01*
X165347455Y-57192266D01*
X165368363Y-57214709D01*
X165404480Y-57256442D01*
X165453572Y-57314701D01*
X165513406Y-57386723D01*
X165581747Y-57469741D01*
X165656364Y-57560993D01*
X165735021Y-57657715D01*
X165815485Y-57757141D01*
X165895523Y-57856508D01*
X165972901Y-57953051D01*
X166045386Y-58044007D01*
X166086265Y-58095672D01*
X166110745Y-58126611D01*
G37*
%TD*%
M02*
