%TF.GenerationSoftware,KiCad,Pcbnew,10.0.3*%
%TF.CreationDate,2026-09-02T13:41:18-04:00*%
%TF.ProjectId,brushed-dual-esc,62727573-6865-4642-9d64-75616c2d6573,rev?*%
%TF.SameCoordinates,Original*%
%TF.FileFunction,Copper,L2,Bot*%
%TF.FilePolarity,Positive*%
%FSLAX46Y46*%
G04 Gerber Fmt 4.6, Leading zero omitted, Abs format (unit mm)*
G04 Created by KiCad (PCBNEW 10.0.3) date 2026-09-02 13:41:18*
%MOMM*%
%LPD*%
G01*
G04 APERTURE LIST*
%TA.AperFunction,ViaPad*%
%ADD10C,0.600000*%
%TD*%
%TA.AperFunction,Conductor*%
%ADD11C,0.500000*%
%TD*%
%TA.AperFunction,Conductor*%
%ADD12C,0.300000*%
%TD*%
G04 APERTURE END LIST*
D10*
%TO.N,GND*%
X169500000Y-56000000D03*
X158000000Y-54500000D03*
X146000000Y-56000000D03*
X166000000Y-66000000D03*
X159800000Y-56500000D03*
X148400000Y-56000000D03*
X160500000Y-70500000D03*
X161000000Y-57400000D03*
X169000000Y-54100000D03*
X164000000Y-64000000D03*
X172500000Y-53700000D03*
X160000000Y-58500000D03*
X152600000Y-64900000D03*
X156000000Y-56500000D03*
X148700000Y-64700000D03*
X167600000Y-53100000D03*
X155000000Y-55500000D03*
X166000000Y-64000000D03*
X164300000Y-70600000D03*
X153500000Y-72000000D03*
X153000000Y-57500000D03*
X169000000Y-71400000D03*
X154000000Y-56500000D03*
X159000000Y-55500000D03*
X146200000Y-68300000D03*
X173300000Y-68800000D03*
X156000000Y-54500000D03*
X163000000Y-72050000D03*
X159000000Y-57500000D03*
X160500000Y-69000000D03*
X164000000Y-66000000D03*
X147500000Y-70500000D03*
X167600000Y-54500000D03*
X158000000Y-56500000D03*
X153700000Y-63400000D03*
X157000000Y-57500000D03*
X172500000Y-56300000D03*
X155000000Y-57500000D03*
X152300000Y-61100000D03*
X169900000Y-53100000D03*
X161200000Y-71800000D03*
X164800000Y-57700000D03*
X157000000Y-55500000D03*
X165000000Y-65000000D03*
%TO.N,+3V3*%
X161700000Y-67400000D03*
X162800000Y-62905000D03*
X158225000Y-69500000D03*
X159775735Y-62000000D03*
X151700000Y-63700000D03*
X157975000Y-58595000D03*
%TO.N,+BATT*%
X159000000Y-51000000D03*
X165000000Y-51000000D03*
X155000000Y-53000000D03*
X174000000Y-66000000D03*
X167000000Y-51000000D03*
X154000000Y-52000000D03*
X163000000Y-51000000D03*
X174000000Y-64000000D03*
X173000000Y-67000000D03*
X172000000Y-66000000D03*
X158000000Y-52000000D03*
X156000000Y-52000000D03*
X173000000Y-65000000D03*
X157000000Y-51000000D03*
X153000000Y-55000000D03*
X153000000Y-51000000D03*
X152000000Y-52000000D03*
X169000000Y-51000000D03*
X151000000Y-55000000D03*
X151000000Y-51000000D03*
X161000000Y-51000000D03*
X164000000Y-52000000D03*
X172000000Y-64000000D03*
X155000000Y-51000000D03*
X151000000Y-57000000D03*
X152000000Y-56000000D03*
X160000000Y-52000000D03*
X171000000Y-65000000D03*
X167500000Y-52000000D03*
X162000000Y-52000000D03*
%TO.N,+5V*%
X163500000Y-54500000D03*
X167900000Y-73900000D03*
X162000000Y-54500000D03*
X150000000Y-72000000D03*
X152000000Y-72000000D03*
X152000000Y-74000000D03*
X160500000Y-54500000D03*
X150000000Y-74000000D03*
X165000000Y-54500000D03*
X167500000Y-72000000D03*
%TO.N,/~{RESET}*%
X159000000Y-65500000D03*
X146200000Y-67000000D03*
X155500000Y-67500000D03*
X149000000Y-67500000D03*
%TD*%
%TO.N,+3V3*%
D11*
X160151470Y-62375735D02*
X162270735Y-62375735D01*
X158225000Y-69500000D02*
X160325000Y-67400000D01*
X160325000Y-67400000D02*
X161700000Y-67400000D01*
X162270735Y-62375735D02*
X162800000Y-62905000D01*
X156805000Y-58595000D02*
X157975000Y-58595000D01*
X159775735Y-62000000D02*
X160151470Y-62375735D01*
X151700000Y-63700000D02*
X156805000Y-58595000D01*
%TO.N,/~{RESET}*%
D12*
X146700000Y-67500000D02*
X149000000Y-67500000D01*
X146200000Y-67000000D02*
X146700000Y-67500000D01*
X157500000Y-65500000D02*
X159000000Y-65500000D01*
X155500000Y-67500000D02*
X157500000Y-65500000D01*
%TD*%
%TA.AperFunction,Conductor*%
%TO.N,GND*%
G36*
X159737539Y-52725185D02*
G01*
X159783294Y-52777989D01*
X159794500Y-52829500D01*
X159794500Y-56023686D01*
X159800293Y-56072140D01*
X159814075Y-56128950D01*
X159818253Y-56143736D01*
X159818256Y-56143743D01*
X159865052Y-56222312D01*
X159865054Y-56222315D01*
X159913267Y-56272881D01*
X159921202Y-56279121D01*
X159936009Y-56290766D01*
X159947036Y-56300554D01*
X159984500Y-56338018D01*
X160004206Y-56363698D01*
X160020140Y-56391296D01*
X160032527Y-56421201D01*
X160043265Y-56461274D01*
X160043268Y-56461285D01*
X160043269Y-56461287D01*
X160048386Y-56477628D01*
X160055365Y-56497039D01*
X160055366Y-56497041D01*
X160055367Y-56497043D01*
X160093440Y-56562085D01*
X160139191Y-56614885D01*
X160139195Y-56614889D01*
X160156786Y-56632843D01*
X160156787Y-56632844D01*
X160156789Y-56632845D01*
X160236599Y-56677488D01*
X160236603Y-56677490D01*
X160303642Y-56697175D01*
X160361540Y-56705500D01*
X164961892Y-56705500D01*
X165028931Y-56725185D01*
X165049485Y-56741730D01*
X165758118Y-57448934D01*
X165791665Y-57510224D01*
X165794525Y-57536681D01*
X165795624Y-63375563D01*
X165795624Y-63375568D01*
X165800860Y-63421616D01*
X165800860Y-63421617D01*
X165813325Y-63475777D01*
X165828742Y-63519468D01*
X165828745Y-63519474D01*
X165832628Y-63527468D01*
X165847279Y-63552844D01*
X165867075Y-63582088D01*
X165893594Y-63607371D01*
X165899781Y-63613707D01*
X165912405Y-63627593D01*
X165957498Y-63664824D01*
X165957500Y-63664825D01*
X165957507Y-63664831D01*
X165962741Y-63668021D01*
X165970836Y-63672956D01*
X165970844Y-63672960D01*
X165970852Y-63672965D01*
X165996905Y-63686397D01*
X165996911Y-63686399D01*
X165996920Y-63686404D01*
X166022880Y-63697521D01*
X166029348Y-63700291D01*
X166057062Y-63709883D01*
X166098095Y-63720877D01*
X166127999Y-63733263D01*
X166167000Y-63755780D01*
X166192679Y-63775485D01*
X166224513Y-63807319D01*
X166244219Y-63833000D01*
X166266733Y-63871995D01*
X166279119Y-63901898D01*
X166290774Y-63945392D01*
X166295000Y-63977485D01*
X166295000Y-64022513D01*
X166290774Y-64054609D01*
X166279120Y-64098099D01*
X166266733Y-64128003D01*
X166244219Y-64166998D01*
X166224513Y-64192679D01*
X166192679Y-64224513D01*
X166166999Y-64244219D01*
X166128008Y-64266731D01*
X166098102Y-64279118D01*
X166051181Y-64291690D01*
X166051180Y-64291691D01*
X166008027Y-64308671D01*
X165958891Y-64334751D01*
X165920638Y-64360982D01*
X165913932Y-64366795D01*
X165875639Y-64411006D01*
X165875638Y-64411007D01*
X165837880Y-64469788D01*
X165813595Y-64522990D01*
X165809197Y-64537979D01*
X165809194Y-64537988D01*
X165802966Y-64566638D01*
X165797949Y-64601577D01*
X165795862Y-64630828D01*
X165795885Y-64751336D01*
X165795885Y-64751375D01*
X165795804Y-65375511D01*
X165795804Y-65375512D01*
X165801028Y-65421578D01*
X165801030Y-65421589D01*
X165813488Y-65475772D01*
X165828924Y-65519529D01*
X165828926Y-65519535D01*
X165832799Y-65527506D01*
X165858781Y-65565892D01*
X165865577Y-65575932D01*
X165912574Y-65627632D01*
X165957682Y-65664877D01*
X165971032Y-65673014D01*
X165997090Y-65686448D01*
X166012054Y-65692856D01*
X166012054Y-65692855D01*
X166012195Y-65692916D01*
X166020758Y-65697834D01*
X166027495Y-65700513D01*
X166038303Y-65704096D01*
X166043104Y-65706152D01*
X166043116Y-65706157D01*
X166043580Y-65706355D01*
X166048720Y-65707598D01*
X166050240Y-65708054D01*
X166098096Y-65720877D01*
X166128002Y-65733265D01*
X166166999Y-65755780D01*
X166192680Y-65775486D01*
X166224513Y-65807319D01*
X166244219Y-65833000D01*
X166266733Y-65871995D01*
X166279119Y-65901898D01*
X166290774Y-65945392D01*
X166295000Y-65977485D01*
X166295000Y-66022513D01*
X166290774Y-66054609D01*
X166279120Y-66098099D01*
X166266733Y-66128003D01*
X166244219Y-66166998D01*
X166224513Y-66192679D01*
X166192679Y-66224513D01*
X166166999Y-66244219D01*
X166128008Y-66266731D01*
X166098101Y-66279118D01*
X166050972Y-66291747D01*
X166050970Y-66291747D01*
X166050969Y-66291748D01*
X166007844Y-66308713D01*
X165958746Y-66334763D01*
X165920516Y-66360964D01*
X165920510Y-66360968D01*
X165913810Y-66366772D01*
X165875482Y-66410993D01*
X165837711Y-66469753D01*
X165813409Y-66522949D01*
X165813406Y-66522957D01*
X165809003Y-66537944D01*
X165802763Y-66566605D01*
X165797736Y-66601538D01*
X165797735Y-66601546D01*
X165795641Y-66630780D01*
X165795641Y-66630787D01*
X165795037Y-71334079D01*
X165795037Y-71334081D01*
X165795033Y-71361162D01*
X165794929Y-72170516D01*
X165775236Y-72237553D01*
X165722426Y-72283301D01*
X165670929Y-72294500D01*
X163061169Y-72294500D01*
X163057599Y-72294734D01*
X163049488Y-72295000D01*
X162950512Y-72295000D01*
X162942401Y-72294734D01*
X162938831Y-72294500D01*
X162938825Y-72294500D01*
X152829500Y-72294500D01*
X152762461Y-72274815D01*
X152716706Y-72222011D01*
X152705500Y-72170500D01*
X152705500Y-71624008D01*
X152705499Y-71623992D01*
X152700891Y-71581136D01*
X152700803Y-71580316D01*
X152696897Y-71562364D01*
X152689602Y-71528825D01*
X152689348Y-71527789D01*
X152687110Y-71518627D01*
X152644100Y-71437915D01*
X152598345Y-71385111D01*
X152598339Y-71385104D01*
X152580757Y-71367160D01*
X152580756Y-71367159D01*
X152580754Y-71367157D01*
X152580752Y-71367156D01*
X152580750Y-71367154D01*
X152500940Y-71322511D01*
X152500935Y-71322509D01*
X152433903Y-71302826D01*
X152433899Y-71302825D01*
X152433898Y-71302825D01*
X152376000Y-71294500D01*
X152375996Y-71294500D01*
X149623992Y-71294500D01*
X149580313Y-71299197D01*
X149528825Y-71310397D01*
X149518627Y-71312890D01*
X149518624Y-71312891D01*
X149437916Y-71355899D01*
X149437913Y-71355901D01*
X149385104Y-71401660D01*
X149367160Y-71419242D01*
X149367154Y-71419249D01*
X149322511Y-71499059D01*
X149322509Y-71499064D01*
X149302826Y-71566096D01*
X149302825Y-71566101D01*
X149302825Y-71566102D01*
X149294502Y-71623992D01*
X149294500Y-71624003D01*
X149294500Y-74375500D01*
X149274815Y-74442539D01*
X149222011Y-74488294D01*
X149170500Y-74499500D01*
X145642330Y-74499500D01*
X145642325Y-74499499D01*
X145642323Y-74499500D01*
X145607389Y-74494475D01*
X145592390Y-74490070D01*
X145533644Y-74452327D01*
X145533615Y-74452293D01*
X145533614Y-74452293D01*
X145533613Y-74452291D01*
X145532457Y-74450958D01*
X145504977Y-74396083D01*
X145503332Y-74388521D01*
X145500500Y-74362168D01*
X145500500Y-69461561D01*
X145888200Y-69461561D01*
X145888200Y-69618439D01*
X145928803Y-69769970D01*
X146007241Y-69905830D01*
X146118170Y-70016759D01*
X146254030Y-70095197D01*
X146405561Y-70135800D01*
X146405564Y-70135800D01*
X146562436Y-70135800D01*
X146562439Y-70135800D01*
X146713970Y-70095197D01*
X146849830Y-70016759D01*
X146960759Y-69905830D01*
X147039197Y-69769970D01*
X147079800Y-69618439D01*
X147079800Y-69461561D01*
X147920200Y-69461561D01*
X147920200Y-69618439D01*
X147960803Y-69769970D01*
X148039241Y-69905830D01*
X148150170Y-70016759D01*
X148286030Y-70095197D01*
X148437561Y-70135800D01*
X148437564Y-70135800D01*
X148594436Y-70135800D01*
X148594439Y-70135800D01*
X148745970Y-70095197D01*
X148881830Y-70016759D01*
X148992759Y-69905830D01*
X149071197Y-69769970D01*
X149111800Y-69618439D01*
X149111800Y-69461561D01*
X149104444Y-69434108D01*
X157724500Y-69434108D01*
X157724500Y-69565890D01*
X157758608Y-69693188D01*
X157791554Y-69750250D01*
X157824500Y-69807314D01*
X157917686Y-69900500D01*
X158031814Y-69966392D01*
X158159108Y-70000500D01*
X158159110Y-70000500D01*
X158290890Y-70000500D01*
X158290892Y-70000500D01*
X158418186Y-69966392D01*
X158532314Y-69900500D01*
X158625500Y-69807314D01*
X158625505Y-69807305D01*
X158625875Y-69806824D01*
X158631385Y-69799621D01*
X158633831Y-69797450D01*
X158713925Y-69691728D01*
X158714033Y-69691588D01*
X158714044Y-69691579D01*
X158714995Y-69690347D01*
X158814560Y-69563562D01*
X158822196Y-69554731D01*
X158903670Y-69469022D01*
X158965310Y-69404178D01*
X158971266Y-69394887D01*
X158987976Y-69374124D01*
X160462684Y-67899418D01*
X160490929Y-67878275D01*
X160514021Y-67865667D01*
X160573446Y-67850500D01*
X161071821Y-67850500D01*
X161099063Y-67853530D01*
X161106168Y-67855129D01*
X161108798Y-67855722D01*
X161315769Y-67860934D01*
X161327396Y-67861775D01*
X161485881Y-67880768D01*
X161488055Y-67881049D01*
X161618190Y-67898995D01*
X161621243Y-67899416D01*
X161621257Y-67899415D01*
X161622182Y-67899452D01*
X161633495Y-67900419D01*
X161634106Y-67900499D01*
X161634108Y-67900500D01*
X161634110Y-67900500D01*
X161765890Y-67900500D01*
X161765892Y-67900500D01*
X161893186Y-67866392D01*
X162007314Y-67800500D01*
X162100500Y-67707314D01*
X162166392Y-67593186D01*
X162200500Y-67465892D01*
X162200500Y-67334108D01*
X162166392Y-67206814D01*
X162100500Y-67092686D01*
X162007314Y-66999500D01*
X161920712Y-66949500D01*
X161920712Y-66949499D01*
X161920710Y-66949499D01*
X161915751Y-66946636D01*
X161893187Y-66933608D01*
X161829539Y-66916554D01*
X161765892Y-66899500D01*
X161765891Y-66899500D01*
X161634101Y-66899500D01*
X161633664Y-66899557D01*
X161633665Y-66899558D01*
X161624510Y-66900776D01*
X161621243Y-66900583D01*
X161489908Y-66918694D01*
X161489683Y-66918725D01*
X161489667Y-66918722D01*
X161488124Y-66918922D01*
X161328074Y-66938168D01*
X161316411Y-66939015D01*
X161108765Y-66944276D01*
X161097978Y-66946636D01*
X161071484Y-66949500D01*
X160265689Y-66949500D01*
X160196943Y-66967920D01*
X160196942Y-66967919D01*
X160151113Y-66980200D01*
X160151045Y-66980229D01*
X160150209Y-66980722D01*
X160140342Y-66986419D01*
X160107695Y-67005267D01*
X160065813Y-67029447D01*
X160048389Y-67039508D01*
X160048385Y-67039511D01*
X160048384Y-67039512D01*
X160048379Y-67039516D01*
X160048369Y-67039525D01*
X158350631Y-68737262D01*
X158346769Y-68740962D01*
X158338595Y-68748459D01*
X158320799Y-68759712D01*
X158169940Y-68903156D01*
X158169137Y-68903894D01*
X158168834Y-68904042D01*
X158161943Y-68910005D01*
X158036473Y-69008620D01*
X158034730Y-69009965D01*
X157927393Y-69091286D01*
X157922344Y-69095681D01*
X157917679Y-69099504D01*
X157824506Y-69192677D01*
X157824502Y-69192682D01*
X157824493Y-69192696D01*
X157758610Y-69306806D01*
X157758609Y-69306808D01*
X157724500Y-69434108D01*
X149104444Y-69434108D01*
X149071197Y-69310030D01*
X148992759Y-69174170D01*
X148881830Y-69063241D01*
X148881829Y-69063240D01*
X148881826Y-69063238D01*
X148817724Y-69026229D01*
X148789292Y-68996411D01*
X148708087Y-68974652D01*
X148708087Y-68974651D01*
X148618454Y-68950635D01*
X148594439Y-68944200D01*
X148594438Y-68944200D01*
X148437561Y-68944200D01*
X148323911Y-68974652D01*
X148323910Y-68974651D01*
X148286035Y-68984800D01*
X148286026Y-68984804D01*
X148150175Y-69063236D01*
X148150173Y-69063238D01*
X148150167Y-69063242D01*
X148150162Y-69063246D01*
X148039246Y-69174162D01*
X148039242Y-69174167D01*
X148039238Y-69174173D01*
X148039236Y-69174175D01*
X147960819Y-69309999D01*
X147960817Y-69310003D01*
X147960803Y-69310029D01*
X147960803Y-69310030D01*
X147920200Y-69461561D01*
X147079800Y-69461561D01*
X147039197Y-69310030D01*
X146960759Y-69174170D01*
X146849830Y-69063241D01*
X146849829Y-69063240D01*
X146849826Y-69063238D01*
X146785724Y-69026229D01*
X146757292Y-68996411D01*
X146676087Y-68974652D01*
X146676087Y-68974651D01*
X146586454Y-68950635D01*
X146562439Y-68944200D01*
X146562438Y-68944200D01*
X146405561Y-68944200D01*
X146291911Y-68974652D01*
X146291910Y-68974651D01*
X146254035Y-68984800D01*
X146254026Y-68984804D01*
X146118175Y-69063236D01*
X146118173Y-69063238D01*
X146118167Y-69063242D01*
X146118162Y-69063246D01*
X146007246Y-69174162D01*
X146007242Y-69174167D01*
X146007238Y-69174173D01*
X146007236Y-69174175D01*
X145928802Y-69310028D01*
X145928803Y-69310028D01*
X145928803Y-69310029D01*
X145928803Y-69310030D01*
X145888200Y-69461561D01*
X145500500Y-69461561D01*
X145500500Y-67270035D01*
X145505521Y-67235108D01*
X145508707Y-67224255D01*
X145546477Y-67165474D01*
X145610031Y-67136445D01*
X145679186Y-67146383D01*
X145679768Y-67146649D01*
X145723834Y-67180454D01*
X145725270Y-67182192D01*
X145737063Y-67199171D01*
X145794892Y-67299334D01*
X145797644Y-67304100D01*
X145797646Y-67304104D01*
X145799210Y-67306814D01*
X145799497Y-67307310D01*
X145799499Y-67307312D01*
X145799500Y-67307314D01*
X145872269Y-67380083D01*
X145892689Y-67400503D01*
X145899131Y-67405446D01*
X145899090Y-67405499D01*
X145907222Y-67411233D01*
X145910209Y-67413773D01*
X145973141Y-67457426D01*
X145977134Y-67460196D01*
X145986441Y-67466285D01*
X145987507Y-67466942D01*
X145987528Y-67466954D01*
X145987531Y-67466956D01*
X145997002Y-67472451D01*
X146061850Y-67507782D01*
X146061863Y-67507789D01*
X146073098Y-67513471D01*
X146074389Y-67514075D01*
X146074398Y-67514079D01*
X146074409Y-67514084D01*
X146085797Y-67518997D01*
X146085806Y-67519000D01*
X146085821Y-67519007D01*
X146179015Y-67555906D01*
X146182087Y-67557172D01*
X146265309Y-67592769D01*
X146286043Y-67604084D01*
X146306650Y-67618030D01*
X146319913Y-67628384D01*
X146370976Y-67674151D01*
X146377589Y-67678187D01*
X146400665Y-67696347D01*
X146484788Y-67780470D01*
X146564712Y-67826614D01*
X146653856Y-67850500D01*
X146746144Y-67850500D01*
X148367072Y-67850500D01*
X148378031Y-67850985D01*
X148387772Y-67851849D01*
X148403507Y-67855799D01*
X148468742Y-67859033D01*
X148471124Y-67859245D01*
X148471838Y-67859525D01*
X148481291Y-67860573D01*
X148498924Y-67863623D01*
X148503870Y-67864479D01*
X148526321Y-67870577D01*
X148598671Y-67897747D01*
X148608642Y-67901999D01*
X148610277Y-67902783D01*
X148614366Y-67904688D01*
X148614819Y-67904893D01*
X148618987Y-67906723D01*
X148722735Y-67950931D01*
X148740282Y-67957481D01*
X148742306Y-67958133D01*
X148760319Y-67963044D01*
X148903500Y-67995175D01*
X148911360Y-67996778D01*
X148912258Y-67996943D01*
X148912267Y-67996942D01*
X148912437Y-67996956D01*
X148930738Y-68000056D01*
X148934108Y-68000500D01*
X148934110Y-68000500D01*
X149065890Y-68000500D01*
X149065892Y-68000500D01*
X149193186Y-67966392D01*
X149307314Y-67900500D01*
X149400500Y-67807314D01*
X149466392Y-67693186D01*
X149500500Y-67565892D01*
X149500500Y-67434108D01*
X154999500Y-67434108D01*
X154999500Y-67565891D01*
X155006814Y-67593187D01*
X155033608Y-67693188D01*
X155041766Y-67707316D01*
X155041768Y-67707320D01*
X155044754Y-67712491D01*
X155099500Y-67807314D01*
X155192686Y-67900500D01*
X155280035Y-67950931D01*
X155301018Y-67963046D01*
X155306814Y-67966392D01*
X155434108Y-68000500D01*
X155434110Y-68000500D01*
X155565890Y-68000500D01*
X155565892Y-68000500D01*
X155693186Y-67966392D01*
X155807314Y-67900500D01*
X155900500Y-67807314D01*
X155900502Y-67807309D01*
X155905446Y-67800868D01*
X155905499Y-67800909D01*
X155911240Y-67792768D01*
X155913768Y-67789793D01*
X155913774Y-67789788D01*
X155960193Y-67722870D01*
X155966288Y-67713553D01*
X155966948Y-67712482D01*
X155972454Y-67702990D01*
X156007789Y-67638136D01*
X156013471Y-67626901D01*
X156014075Y-67625610D01*
X156019007Y-67614178D01*
X156055898Y-67521003D01*
X156057130Y-67518008D01*
X156092770Y-67434683D01*
X156104084Y-67413954D01*
X156118030Y-67393347D01*
X156128379Y-67380089D01*
X156174151Y-67329023D01*
X156178186Y-67322410D01*
X156196342Y-67299338D01*
X157596263Y-65899418D01*
X157624508Y-65878275D01*
X157647600Y-65865667D01*
X157707025Y-65850500D01*
X158367072Y-65850500D01*
X158397260Y-65854231D01*
X158403507Y-65855799D01*
X158466318Y-65858913D01*
X158481291Y-65860573D01*
X158498924Y-65863623D01*
X158503870Y-65864479D01*
X158526321Y-65870577D01*
X158598671Y-65897747D01*
X158608642Y-65901999D01*
X158610277Y-65902783D01*
X158614366Y-65904688D01*
X158614819Y-65904893D01*
X158618987Y-65906723D01*
X158722735Y-65950931D01*
X158740282Y-65957481D01*
X158742306Y-65958133D01*
X158760319Y-65963044D01*
X158903500Y-65995175D01*
X158911360Y-65996778D01*
X158912258Y-65996943D01*
X158912267Y-65996942D01*
X158912437Y-65996956D01*
X158930738Y-66000056D01*
X158934108Y-66000500D01*
X158934110Y-66000500D01*
X159065890Y-66000500D01*
X159065892Y-66000500D01*
X159193186Y-65966392D01*
X159307314Y-65900500D01*
X159400500Y-65807314D01*
X159466392Y-65693186D01*
X159500500Y-65565892D01*
X159500500Y-65434108D01*
X159466392Y-65306814D01*
X159400500Y-65192686D01*
X159307314Y-65099500D01*
X159225496Y-65052262D01*
X159193187Y-65033608D01*
X159129539Y-65016554D01*
X159065892Y-64999500D01*
X159065891Y-64999500D01*
X158934111Y-64999500D01*
X158934108Y-64999500D01*
X158934105Y-64999500D01*
X158926050Y-65000561D01*
X158926041Y-65000494D01*
X158916234Y-65002190D01*
X158912330Y-65002505D01*
X158832165Y-65017003D01*
X158821456Y-65019237D01*
X158820229Y-65019527D01*
X158809450Y-65022389D01*
X158738616Y-65043260D01*
X158726711Y-65047165D01*
X158725440Y-65047625D01*
X158713746Y-65052266D01*
X158621814Y-65092047D01*
X158618705Y-65093342D01*
X158534661Y-65127029D01*
X158511997Y-65133690D01*
X158487557Y-65138401D01*
X158470861Y-65140457D01*
X158402401Y-65144202D01*
X158399575Y-65144885D01*
X158394873Y-65146023D01*
X158365717Y-65149500D01*
X157453856Y-65149500D01*
X157364725Y-65173382D01*
X157364708Y-65173387D01*
X157364703Y-65173389D01*
X157284791Y-65219526D01*
X157284790Y-65219527D01*
X157284784Y-65219532D01*
X157284777Y-65219538D01*
X155699709Y-66804607D01*
X155691615Y-66812015D01*
X155684112Y-66818294D01*
X155670197Y-66826626D01*
X155621806Y-66870442D01*
X155619952Y-66871995D01*
X155619249Y-66872301D01*
X155611820Y-66878248D01*
X155593089Y-66891455D01*
X155572893Y-66903022D01*
X155502538Y-66934962D01*
X155492485Y-66939006D01*
X155490803Y-66939598D01*
X155490764Y-66939612D01*
X155490759Y-66939614D01*
X155486285Y-66941248D01*
X155486019Y-66941348D01*
X155485761Y-66941446D01*
X155481854Y-66942971D01*
X155377201Y-66985085D01*
X155377190Y-66985089D01*
X155377190Y-66985090D01*
X155360173Y-66992856D01*
X155360168Y-66992858D01*
X155360156Y-66992864D01*
X155358306Y-66993812D01*
X155342077Y-67003085D01*
X155342067Y-67003091D01*
X155218072Y-67081634D01*
X155211142Y-67086223D01*
X155209928Y-67087063D01*
X155194251Y-67098218D01*
X155194390Y-67098441D01*
X155192694Y-67099494D01*
X155192682Y-67099502D01*
X155192677Y-67099506D01*
X155099506Y-67192677D01*
X155099502Y-67192682D01*
X155099493Y-67192696D01*
X155033610Y-67306806D01*
X155033609Y-67306808D01*
X155029427Y-67322417D01*
X154999500Y-67434108D01*
X149500500Y-67434108D01*
X149466392Y-67306814D01*
X149466387Y-67306806D01*
X149457563Y-67291521D01*
X149400500Y-67192686D01*
X149307314Y-67099500D01*
X149206227Y-67041137D01*
X149193187Y-67033608D01*
X149129539Y-67016554D01*
X149065892Y-66999500D01*
X149065891Y-66999500D01*
X148934111Y-66999500D01*
X148934108Y-66999500D01*
X148934105Y-66999500D01*
X148926050Y-67000561D01*
X148926041Y-67000494D01*
X148916234Y-67002190D01*
X148912330Y-67002505D01*
X148832165Y-67017003D01*
X148821456Y-67019237D01*
X148820229Y-67019527D01*
X148809450Y-67022389D01*
X148738616Y-67043260D01*
X148726711Y-67047165D01*
X148725440Y-67047625D01*
X148713746Y-67052266D01*
X148621814Y-67092047D01*
X148618705Y-67093342D01*
X148534661Y-67127029D01*
X148511997Y-67133690D01*
X148487557Y-67138401D01*
X148470861Y-67140457D01*
X148402401Y-67144202D01*
X148401265Y-67144477D01*
X148394873Y-67146023D01*
X148365717Y-67149500D01*
X146914373Y-67149500D01*
X146879439Y-67144477D01*
X146877215Y-67143824D01*
X146818437Y-67106051D01*
X146810816Y-67096314D01*
X146808542Y-67093090D01*
X146796981Y-67072905D01*
X146765027Y-67002519D01*
X146760982Y-66992459D01*
X146760380Y-66990749D01*
X146758798Y-66986414D01*
X146758616Y-66985932D01*
X146757008Y-66981809D01*
X146714914Y-66877203D01*
X146707159Y-66860205D01*
X146706189Y-66858312D01*
X146696903Y-66842059D01*
X146618377Y-66718092D01*
X146618362Y-66718068D01*
X146613909Y-66711338D01*
X146613387Y-66710581D01*
X146613316Y-66710499D01*
X146602657Y-66695498D01*
X146600502Y-66692689D01*
X146600500Y-66692686D01*
X146507314Y-66599500D01*
X146450250Y-66566554D01*
X146393187Y-66533608D01*
X146329539Y-66516554D01*
X146265892Y-66499500D01*
X146265891Y-66499500D01*
X146134108Y-66499500D01*
X146006808Y-66533609D01*
X146006806Y-66533610D01*
X145892696Y-66599493D01*
X145892682Y-66599502D01*
X145892677Y-66599506D01*
X145799506Y-66692677D01*
X145799500Y-66692685D01*
X145740800Y-66794355D01*
X145729275Y-66805820D01*
X145722722Y-66818377D01*
X145718980Y-66822099D01*
X145710796Y-66829902D01*
X145698916Y-66836026D01*
X145694869Y-66840053D01*
X145685956Y-66845139D01*
X145677217Y-66847212D01*
X145648693Y-66861917D01*
X145624841Y-66859638D01*
X145617974Y-66861268D01*
X145609055Y-66858130D01*
X145579140Y-66855273D01*
X145561504Y-66841403D01*
X145552063Y-66838082D01*
X145543830Y-66827503D01*
X145524220Y-66812081D01*
X145524177Y-66812021D01*
X145523820Y-66811519D01*
X145515227Y-66790751D01*
X145509151Y-66782943D01*
X145508355Y-66774140D01*
X145502585Y-66760193D01*
X145502213Y-66757978D01*
X145500500Y-66737440D01*
X145500500Y-64381561D01*
X146904200Y-64381561D01*
X146904200Y-64538439D01*
X146944803Y-64689970D01*
X147023241Y-64825830D01*
X147134170Y-64936759D01*
X147270030Y-65015197D01*
X147421561Y-65055800D01*
X147421564Y-65055800D01*
X147578436Y-65055800D01*
X147578439Y-65055800D01*
X147729970Y-65015197D01*
X147865830Y-64936759D01*
X147976759Y-64825830D01*
X148055197Y-64689970D01*
X148095800Y-64538439D01*
X148095800Y-64381561D01*
X148055197Y-64230030D01*
X147976759Y-64094170D01*
X147865830Y-63983241D01*
X147865829Y-63983240D01*
X147865826Y-63983238D01*
X147807086Y-63949325D01*
X147807082Y-63949323D01*
X147729970Y-63904803D01*
X147729971Y-63904803D01*
X147686608Y-63893184D01*
X147676882Y-63890577D01*
X147676880Y-63890577D01*
X147607530Y-63871995D01*
X147578439Y-63864200D01*
X147578438Y-63864200D01*
X147421561Y-63864200D01*
X147313391Y-63893184D01*
X147313390Y-63893183D01*
X147270033Y-63904801D01*
X147270026Y-63904804D01*
X147134175Y-63983236D01*
X147134173Y-63983238D01*
X147134167Y-63983242D01*
X147134162Y-63983246D01*
X147023246Y-64094162D01*
X147023242Y-64094167D01*
X147023238Y-64094173D01*
X147023236Y-64094175D01*
X146944802Y-64230028D01*
X146944803Y-64230028D01*
X146944803Y-64230029D01*
X146931650Y-64279118D01*
X146904200Y-64381561D01*
X145500500Y-64381561D01*
X145500500Y-63634108D01*
X151199500Y-63634108D01*
X151199500Y-63765890D01*
X151233608Y-63893188D01*
X151240315Y-63904804D01*
X151266554Y-63950250D01*
X151299500Y-64007314D01*
X151392686Y-64100500D01*
X151506814Y-64166392D01*
X151634108Y-64200500D01*
X151634110Y-64200500D01*
X151765890Y-64200500D01*
X151765892Y-64200500D01*
X151893186Y-64166392D01*
X152007314Y-64100500D01*
X152100500Y-64007314D01*
X152100505Y-64007305D01*
X152100875Y-64006824D01*
X152106385Y-63999621D01*
X152108831Y-63997450D01*
X152188925Y-63891728D01*
X152189033Y-63891588D01*
X152189044Y-63891579D01*
X152189995Y-63890347D01*
X152289560Y-63763562D01*
X152297196Y-63754731D01*
X152440310Y-63604178D01*
X152446268Y-63594882D01*
X152462976Y-63574123D01*
X154102992Y-61934108D01*
X159275235Y-61934108D01*
X159275235Y-62065890D01*
X159309343Y-62193188D01*
X159342289Y-62250250D01*
X159375235Y-62307314D01*
X159468421Y-62400500D01*
X159526722Y-62434160D01*
X159548883Y-62446955D01*
X159549353Y-62447227D01*
X159589571Y-62470682D01*
X159589506Y-62470841D01*
X159622897Y-62490118D01*
X159623080Y-62490225D01*
X159623386Y-62490549D01*
X159648291Y-62509659D01*
X159874909Y-62736277D01*
X159875428Y-62736659D01*
X159878071Y-62738081D01*
X159940337Y-62774031D01*
X159940348Y-62774036D01*
X159977584Y-62795534D01*
X160092161Y-62826235D01*
X162014940Y-62826235D01*
X162047904Y-62830974D01*
X162049872Y-62831256D01*
X162075116Y-62838669D01*
X162127860Y-62869963D01*
X162290347Y-63032451D01*
X162310045Y-63058121D01*
X162350235Y-63127723D01*
X162353012Y-63131796D01*
X162353016Y-63131802D01*
X162364186Y-63151148D01*
X162399500Y-63212314D01*
X162492686Y-63305500D01*
X162606814Y-63371392D01*
X162734108Y-63405500D01*
X162734110Y-63405500D01*
X162865890Y-63405500D01*
X162865892Y-63405500D01*
X162993186Y-63371392D01*
X163107314Y-63305500D01*
X163200500Y-63212314D01*
X163266392Y-63098186D01*
X163300500Y-62970892D01*
X163300500Y-62839108D01*
X163266392Y-62711814D01*
X163200500Y-62597686D01*
X163107314Y-62504500D01*
X163026739Y-62457979D01*
X163026334Y-62457745D01*
X162986159Y-62434315D01*
X162986224Y-62434160D01*
X162952868Y-62414899D01*
X162952658Y-62414777D01*
X162952357Y-62414459D01*
X162927447Y-62395343D01*
X162547351Y-62015248D01*
X162547349Y-62015246D01*
X162495985Y-61985591D01*
X162485127Y-61979322D01*
X162444624Y-61955936D01*
X162432512Y-61952691D01*
X162422200Y-61949928D01*
X162363158Y-61934108D01*
X162363156Y-61934107D01*
X162330046Y-61925235D01*
X162330044Y-61925235D01*
X162330043Y-61925235D01*
X160407265Y-61925235D01*
X160375025Y-61920970D01*
X160373643Y-61920598D01*
X160359994Y-61916590D01*
X160353561Y-61915190D01*
X160350625Y-61914400D01*
X160323301Y-61897699D01*
X160295185Y-61882347D01*
X160285394Y-61872556D01*
X160265687Y-61846873D01*
X160225534Y-61777324D01*
X160222690Y-61773148D01*
X160215967Y-61761504D01*
X160176235Y-61692686D01*
X160083049Y-61599500D01*
X160025985Y-61566554D01*
X159968922Y-61533608D01*
X159905274Y-61516554D01*
X159841627Y-61499500D01*
X159841626Y-61499500D01*
X159709843Y-61499500D01*
X159582543Y-61533609D01*
X159582541Y-61533610D01*
X159468431Y-61599493D01*
X159468417Y-61599502D01*
X159468412Y-61599506D01*
X159375241Y-61692677D01*
X159375237Y-61692682D01*
X159375228Y-61692696D01*
X159309345Y-61806806D01*
X159309344Y-61806808D01*
X159275235Y-61934108D01*
X154102992Y-61934108D01*
X156942684Y-59094418D01*
X156970929Y-59073275D01*
X156994021Y-59060667D01*
X157053446Y-59045500D01*
X157346821Y-59045500D01*
X157374063Y-59048530D01*
X157381168Y-59050129D01*
X157383798Y-59050722D01*
X157590769Y-59055934D01*
X157602396Y-59056775D01*
X157760881Y-59075768D01*
X157763055Y-59076049D01*
X157893190Y-59093995D01*
X157896243Y-59094416D01*
X157896257Y-59094415D01*
X157897182Y-59094452D01*
X157908495Y-59095419D01*
X157909106Y-59095499D01*
X157909108Y-59095500D01*
X157909110Y-59095500D01*
X158040890Y-59095500D01*
X158040892Y-59095500D01*
X158168186Y-59061392D01*
X158282314Y-58995500D01*
X158375500Y-58902314D01*
X158441392Y-58788186D01*
X158475500Y-58660892D01*
X158475500Y-58529108D01*
X158441392Y-58401814D01*
X158375500Y-58287686D01*
X158282314Y-58194500D01*
X158195712Y-58144500D01*
X158195712Y-58144499D01*
X158195710Y-58144499D01*
X158190751Y-58141636D01*
X158168187Y-58128608D01*
X158104539Y-58111554D01*
X158040892Y-58094500D01*
X158040891Y-58094500D01*
X157909101Y-58094500D01*
X157908664Y-58094557D01*
X157908665Y-58094558D01*
X157899510Y-58095776D01*
X157896243Y-58095583D01*
X157764908Y-58113694D01*
X157764683Y-58113725D01*
X157764667Y-58113722D01*
X157763124Y-58113922D01*
X157603074Y-58133168D01*
X157591411Y-58134015D01*
X157383765Y-58139276D01*
X157372978Y-58141636D01*
X157346484Y-58144500D01*
X156745691Y-58144500D01*
X156707380Y-58154765D01*
X156687416Y-58160114D01*
X156687403Y-58160115D01*
X156631144Y-58175191D01*
X156631124Y-58175196D01*
X156631116Y-58175199D01*
X156631113Y-58175200D01*
X156631110Y-58175201D01*
X156631108Y-58175202D01*
X156528396Y-58234504D01*
X156528382Y-58234513D01*
X156528377Y-58234517D01*
X151825631Y-62937262D01*
X151821769Y-62940962D01*
X151813595Y-62948459D01*
X151795799Y-62959712D01*
X151644940Y-63103156D01*
X151644137Y-63103894D01*
X151643834Y-63104042D01*
X151636943Y-63110005D01*
X151511473Y-63208620D01*
X151509730Y-63209965D01*
X151402393Y-63291286D01*
X151397344Y-63295681D01*
X151392679Y-63299504D01*
X151299506Y-63392677D01*
X151299502Y-63392682D01*
X151299493Y-63392696D01*
X151233610Y-63506806D01*
X151233609Y-63506808D01*
X151199500Y-63634108D01*
X145500500Y-63634108D01*
X145500500Y-55141829D01*
X145505523Y-55106893D01*
X145509927Y-55091895D01*
X145547672Y-55033144D01*
X145547700Y-55033119D01*
X145547699Y-55033119D01*
X145549041Y-55031956D01*
X145603920Y-55004477D01*
X145611479Y-55002833D01*
X145637832Y-55000000D01*
X149670500Y-55000000D01*
X149737539Y-55019685D01*
X149783294Y-55072489D01*
X149794500Y-55124000D01*
X149794500Y-58862668D01*
X149795676Y-58884625D01*
X149795678Y-58884650D01*
X149798505Y-58910963D01*
X149802027Y-58932698D01*
X149802028Y-58932703D01*
X149803673Y-58940265D01*
X149820729Y-58988599D01*
X149824185Y-58995500D01*
X149848208Y-59043473D01*
X149876661Y-59086044D01*
X149876662Y-59086046D01*
X149877820Y-59087381D01*
X149878015Y-59087565D01*
X149883599Y-59092129D01*
X149915541Y-59120022D01*
X149922066Y-59125720D01*
X149980809Y-59163461D01*
X149980811Y-59163462D01*
X150033983Y-59187743D01*
X150048982Y-59192148D01*
X150048999Y-59192151D01*
X150049008Y-59192154D01*
X150077620Y-59198379D01*
X150077622Y-59198379D01*
X150077630Y-59198381D01*
X150112564Y-59203406D01*
X150133435Y-59204743D01*
X150137715Y-59205092D01*
X150141830Y-59205500D01*
X152362650Y-59205500D01*
X152362668Y-59205500D01*
X152384649Y-59204321D01*
X152411020Y-59201484D01*
X152432743Y-59197962D01*
X152440301Y-59196317D01*
X152472514Y-59184947D01*
X152488619Y-59179263D01*
X152488621Y-59179262D01*
X152543482Y-59151786D01*
X152586081Y-59123306D01*
X152587450Y-59122119D01*
X152625716Y-59077938D01*
X152663459Y-59019195D01*
X152687742Y-58966022D01*
X152692147Y-58951024D01*
X152698383Y-58922364D01*
X152703408Y-58887420D01*
X152705500Y-58858170D01*
X152705500Y-57567758D01*
X152705500Y-57567754D01*
X152705266Y-57564185D01*
X152705000Y-57556073D01*
X152705000Y-57443925D01*
X152705266Y-57435812D01*
X152705500Y-57432243D01*
X152705500Y-57136480D01*
X152725185Y-57069441D01*
X152741819Y-57048799D01*
X155601568Y-54189051D01*
X155601568Y-54189050D01*
X155601579Y-54189040D01*
X155633001Y-54148592D01*
X155664296Y-54095848D01*
X155684739Y-54048886D01*
X155692151Y-54023645D01*
X155698383Y-53994998D01*
X155703407Y-53960064D01*
X155704208Y-53953820D01*
X155704254Y-53947904D01*
X155705031Y-53934969D01*
X155705500Y-53930808D01*
X155705500Y-52829500D01*
X155725185Y-52762461D01*
X155777989Y-52716706D01*
X155829500Y-52705500D01*
X159670500Y-52705500D01*
X159737539Y-52725185D01*
G37*
%TD.AperFunction*%
%TA.AperFunction,Conductor*%
G36*
X169054605Y-71109225D02*
G01*
X169098096Y-71120878D01*
X169128001Y-71133265D01*
X169166996Y-71155778D01*
X169192679Y-71175485D01*
X169224513Y-71207319D01*
X169244219Y-71233000D01*
X169266733Y-71271995D01*
X169279119Y-71301898D01*
X169290774Y-71345392D01*
X169295000Y-71377485D01*
X169295000Y-71422513D01*
X169290775Y-71454604D01*
X169290774Y-71454609D01*
X169279120Y-71498099D01*
X169266733Y-71528003D01*
X169244219Y-71566998D01*
X169224513Y-71592679D01*
X169192679Y-71624513D01*
X169166998Y-71644219D01*
X169128003Y-71666733D01*
X169098099Y-71679120D01*
X169079887Y-71684000D01*
X169054607Y-71690774D01*
X169022513Y-71695000D01*
X168977489Y-71695000D01*
X168945397Y-71690775D01*
X168901902Y-71679121D01*
X168871997Y-71666734D01*
X168832997Y-71644217D01*
X168807320Y-71624514D01*
X168775485Y-71592679D01*
X168755779Y-71566998D01*
X168755262Y-71566102D01*
X168733263Y-71527999D01*
X168720879Y-71498102D01*
X168709223Y-71454601D01*
X168705000Y-71422513D01*
X168705000Y-71377484D01*
X168709224Y-71345396D01*
X168709735Y-71343488D01*
X168720880Y-71301890D01*
X168733263Y-71271994D01*
X168755781Y-71232993D01*
X168775478Y-71207324D01*
X168807321Y-71175481D01*
X168832998Y-71155779D01*
X168871990Y-71133267D01*
X168901897Y-71120879D01*
X168945394Y-71109224D01*
X168977486Y-71105000D01*
X169022512Y-71105000D01*
X169054605Y-71109225D01*
G37*
%TD.AperFunction*%
%TA.AperFunction,Conductor*%
G36*
X174442539Y-68225185D02*
G01*
X174488294Y-68277989D01*
X174499500Y-68329500D01*
X174499500Y-69858143D01*
X174494475Y-69893087D01*
X174490070Y-69908085D01*
X174452356Y-69966803D01*
X174450989Y-69967989D01*
X174396079Y-69995495D01*
X174388515Y-69997140D01*
X174362159Y-69999972D01*
X171500229Y-69999854D01*
X171499703Y-69999854D01*
X171499701Y-69999854D01*
X171499558Y-69999854D01*
X170717207Y-70782666D01*
X170655894Y-70816169D01*
X170586201Y-70811205D01*
X170530255Y-70769351D01*
X170505819Y-70703893D01*
X170505500Y-70695011D01*
X170505500Y-68329500D01*
X170525185Y-68262461D01*
X170577989Y-68216706D01*
X170629500Y-68205500D01*
X174375500Y-68205500D01*
X174442539Y-68225185D01*
G37*
%TD.AperFunction*%
%TA.AperFunction,Conductor*%
G36*
X172554601Y-56009223D02*
G01*
X172598102Y-56020879D01*
X172627999Y-56033263D01*
X172667000Y-56055780D01*
X172692679Y-56075485D01*
X172724513Y-56107319D01*
X172744219Y-56133000D01*
X172766733Y-56171995D01*
X172779119Y-56201898D01*
X172790774Y-56245392D01*
X172795000Y-56277485D01*
X172795000Y-56322513D01*
X172790774Y-56354609D01*
X172779120Y-56398099D01*
X172766733Y-56428003D01*
X172744219Y-56466998D01*
X172724513Y-56492679D01*
X172692679Y-56524513D01*
X172666998Y-56544219D01*
X172628003Y-56566733D01*
X172598099Y-56579120D01*
X172579887Y-56584000D01*
X172554607Y-56590774D01*
X172522513Y-56595000D01*
X172477489Y-56595000D01*
X172445397Y-56590775D01*
X172401902Y-56579121D01*
X172371997Y-56566734D01*
X172332998Y-56544218D01*
X172307320Y-56524514D01*
X172275485Y-56492679D01*
X172255778Y-56466996D01*
X172233265Y-56428001D01*
X172220878Y-56398096D01*
X172209225Y-56354605D01*
X172205000Y-56322512D01*
X172205000Y-56277484D01*
X172209223Y-56245398D01*
X172220879Y-56201895D01*
X172233261Y-56172001D01*
X172255783Y-56132993D01*
X172275476Y-56107329D01*
X172307324Y-56075481D01*
X172332996Y-56055781D01*
X172371997Y-56033263D01*
X172401905Y-56020877D01*
X172445394Y-56009225D01*
X172477485Y-56005000D01*
X172522513Y-56005000D01*
X172554601Y-56009223D01*
G37*
%TD.AperFunction*%
%TA.AperFunction,Conductor*%
G36*
X169554605Y-55709225D02*
G01*
X169598096Y-55720878D01*
X169628001Y-55733265D01*
X169666996Y-55755778D01*
X169692679Y-55775485D01*
X169724513Y-55807319D01*
X169744219Y-55833000D01*
X169766733Y-55871995D01*
X169779119Y-55901898D01*
X169790774Y-55945392D01*
X169795000Y-55977485D01*
X169795000Y-56022513D01*
X169790775Y-56054604D01*
X169786076Y-56072140D01*
X169779120Y-56098099D01*
X169766733Y-56128003D01*
X169744219Y-56166998D01*
X169724513Y-56192679D01*
X169692679Y-56224513D01*
X169666998Y-56244219D01*
X169628003Y-56266733D01*
X169598099Y-56279120D01*
X169579887Y-56284000D01*
X169554607Y-56290774D01*
X169522513Y-56295000D01*
X169477489Y-56295000D01*
X169445397Y-56290775D01*
X169401902Y-56279121D01*
X169371997Y-56266734D01*
X169332998Y-56244218D01*
X169307320Y-56224514D01*
X169275485Y-56192679D01*
X169255778Y-56166997D01*
X169233264Y-56128001D01*
X169220877Y-56098093D01*
X169209225Y-56054604D01*
X169205000Y-56022513D01*
X169205000Y-55977484D01*
X169209223Y-55945397D01*
X169220880Y-55901889D01*
X169233264Y-55871995D01*
X169255782Y-55832992D01*
X169275474Y-55807329D01*
X169307325Y-55775477D01*
X169332995Y-55755780D01*
X169371993Y-55733265D01*
X169401897Y-55720879D01*
X169445394Y-55709224D01*
X169477486Y-55705000D01*
X169522512Y-55705000D01*
X169554605Y-55709225D01*
G37*
%TD.AperFunction*%
%TA.AperFunction,Conductor*%
G36*
X170237539Y-52725185D02*
G01*
X170283294Y-52777989D01*
X170294500Y-52829500D01*
X170294500Y-54671065D01*
X170274815Y-54738104D01*
X170222011Y-54783859D01*
X170161659Y-54794749D01*
X170158183Y-54794500D01*
X170158170Y-54794500D01*
X167667758Y-54794500D01*
X167667752Y-54794500D01*
X167664182Y-54794734D01*
X167656071Y-54795000D01*
X167543929Y-54795000D01*
X167535818Y-54794734D01*
X167532248Y-54794500D01*
X167532242Y-54794500D01*
X167136508Y-54794500D01*
X167069469Y-54774815D01*
X167048815Y-54758170D01*
X166961732Y-54671065D01*
X166439393Y-54148591D01*
X166241807Y-53950954D01*
X166208330Y-53889626D01*
X166205500Y-53863284D01*
X166205500Y-52829500D01*
X166225185Y-52762461D01*
X166277989Y-52716706D01*
X166329500Y-52705500D01*
X170170500Y-52705500D01*
X170237539Y-52725185D01*
G37*
%TD.AperFunction*%
%TA.AperFunction,Conductor*%
G36*
X172554601Y-53409223D02*
G01*
X172598102Y-53420879D01*
X172627999Y-53433263D01*
X172667000Y-53455780D01*
X172692679Y-53475485D01*
X172724513Y-53507319D01*
X172744219Y-53533000D01*
X172766733Y-53571995D01*
X172779119Y-53601898D01*
X172790774Y-53645392D01*
X172795000Y-53677485D01*
X172795000Y-53722513D01*
X172790774Y-53754609D01*
X172779120Y-53798099D01*
X172766733Y-53828003D01*
X172744219Y-53866998D01*
X172724513Y-53892679D01*
X172692679Y-53924513D01*
X172666998Y-53944219D01*
X172628003Y-53966733D01*
X172598099Y-53979120D01*
X172579887Y-53984000D01*
X172554607Y-53990774D01*
X172522513Y-53995000D01*
X172477489Y-53995000D01*
X172445397Y-53990775D01*
X172401902Y-53979121D01*
X172371997Y-53966734D01*
X172332998Y-53944218D01*
X172307320Y-53924514D01*
X172275485Y-53892679D01*
X172255778Y-53866996D01*
X172233265Y-53828001D01*
X172220878Y-53798096D01*
X172209225Y-53754605D01*
X172205000Y-53722512D01*
X172205000Y-53677484D01*
X172209223Y-53645398D01*
X172220879Y-53601895D01*
X172233261Y-53572001D01*
X172255783Y-53532993D01*
X172275476Y-53507329D01*
X172307324Y-53475481D01*
X172332996Y-53455781D01*
X172371997Y-53433263D01*
X172401905Y-53420877D01*
X172445394Y-53409225D01*
X172477485Y-53405000D01*
X172522513Y-53405000D01*
X172554601Y-53409223D01*
G37*
%TD.AperFunction*%
%TD*%
%TA.AperFunction,Conductor*%
%TO.N,+BATT*%
G36*
X174392606Y-50505523D02*
G01*
X174407604Y-50509927D01*
X174422594Y-50519557D01*
X174439675Y-50524567D01*
X174466355Y-50547672D01*
X174467542Y-50549041D01*
X174495018Y-50603902D01*
X174496663Y-50611460D01*
X174499500Y-50637831D01*
X174499500Y-52376000D01*
X174479815Y-52443039D01*
X174427011Y-52488794D01*
X174375500Y-52500000D01*
X165923122Y-52500000D01*
X165905475Y-52498738D01*
X165891796Y-52496771D01*
X165876000Y-52494500D01*
X165875999Y-52494500D01*
X160123992Y-52494500D01*
X160079460Y-52499289D01*
X160066204Y-52500000D01*
X155500000Y-52500000D01*
X155500000Y-53930808D01*
X155499999Y-53930810D01*
X155500000Y-53930811D01*
X155494976Y-53965745D01*
X155487564Y-53990986D01*
X155456269Y-54043730D01*
X152500000Y-56999998D01*
X152500000Y-56999999D01*
X152500000Y-57432241D01*
X152499500Y-57434108D01*
X152499500Y-57565892D01*
X152500000Y-57567758D01*
X152500000Y-58858170D01*
X152494975Y-58893114D01*
X152490570Y-58908112D01*
X152452827Y-58966855D01*
X152451458Y-58968042D01*
X152396597Y-58995518D01*
X152389039Y-58997163D01*
X152362668Y-59000000D01*
X150141830Y-59000000D01*
X150141825Y-58999999D01*
X150141823Y-59000000D01*
X150106889Y-58994975D01*
X150091890Y-58990570D01*
X150033144Y-58952827D01*
X150033115Y-58952793D01*
X150033114Y-58952793D01*
X150033113Y-58952791D01*
X150031957Y-58951458D01*
X150004477Y-58896583D01*
X150002832Y-58889021D01*
X150000000Y-58862668D01*
X150000000Y-50642329D01*
X150005023Y-50607393D01*
X150009427Y-50592395D01*
X150047172Y-50533644D01*
X150047200Y-50533619D01*
X150047199Y-50533619D01*
X150048541Y-50532456D01*
X150103420Y-50504977D01*
X150110979Y-50503333D01*
X150137332Y-50500500D01*
X174357670Y-50500500D01*
X174392606Y-50505523D01*
G37*
%TD.AperFunction*%
%TD*%
%TA.AperFunction,Conductor*%
%TO.N,+5V*%
G36*
X152443039Y-71519685D02*
G01*
X152488794Y-71572489D01*
X152500000Y-71624000D01*
X152500000Y-72500000D01*
X151900000Y-72500000D01*
X151900000Y-74499500D01*
X149624000Y-74499500D01*
X149556961Y-74479815D01*
X149511206Y-74427011D01*
X149500000Y-74375500D01*
X149500000Y-71624000D01*
X149519685Y-71556961D01*
X149572489Y-71511206D01*
X149624000Y-71500000D01*
X152376000Y-71500000D01*
X152443039Y-71519685D01*
G37*
%TD.AperFunction*%
%TD*%
%TA.AperFunction,Conductor*%
%TO.N,+BATT*%
G36*
X174499500Y-67876000D02*
G01*
X174479815Y-67943039D01*
X174427011Y-67988794D01*
X174375500Y-68000000D01*
X170624000Y-68000000D01*
X170556961Y-67980315D01*
X170511206Y-67927511D01*
X170500000Y-67876000D01*
X170500000Y-56234108D01*
X171999500Y-56234108D01*
X171999500Y-56365891D01*
X172033608Y-56493187D01*
X172066554Y-56550250D01*
X172099500Y-56607314D01*
X172192686Y-56700500D01*
X172306814Y-56766392D01*
X172434108Y-56800500D01*
X172434110Y-56800500D01*
X172565890Y-56800500D01*
X172565892Y-56800500D01*
X172693186Y-56766392D01*
X172807314Y-56700500D01*
X172900500Y-56607314D01*
X172966392Y-56493186D01*
X173000500Y-56365892D01*
X173000500Y-56234108D01*
X172966392Y-56106814D01*
X172900500Y-55992686D01*
X172807314Y-55899500D01*
X172750250Y-55866554D01*
X172693187Y-55833608D01*
X172593188Y-55806814D01*
X172565892Y-55799500D01*
X172434108Y-55799500D01*
X172306812Y-55833608D01*
X172192686Y-55899500D01*
X172192683Y-55899502D01*
X172099502Y-55992683D01*
X172099500Y-55992686D01*
X172033608Y-56106812D01*
X171999500Y-56234108D01*
X170500000Y-56234108D01*
X170500000Y-53634108D01*
X171999500Y-53634108D01*
X171999500Y-53765891D01*
X172033608Y-53893187D01*
X172066554Y-53950250D01*
X172099500Y-54007314D01*
X172192686Y-54100500D01*
X172306814Y-54166392D01*
X172434108Y-54200500D01*
X172434110Y-54200500D01*
X172565890Y-54200500D01*
X172565892Y-54200500D01*
X172693186Y-54166392D01*
X172807314Y-54100500D01*
X172900500Y-54007314D01*
X172966392Y-53893186D01*
X173000500Y-53765892D01*
X173000500Y-53634108D01*
X172966392Y-53506814D01*
X172900500Y-53392686D01*
X172807314Y-53299500D01*
X172750250Y-53266554D01*
X172693187Y-53233608D01*
X172629539Y-53216554D01*
X172565892Y-53199500D01*
X172434108Y-53199500D01*
X172306812Y-53233608D01*
X172192686Y-53299500D01*
X172192683Y-53299502D01*
X172099502Y-53392683D01*
X172099500Y-53392686D01*
X172033608Y-53506812D01*
X171999500Y-53634108D01*
X170500000Y-53634108D01*
X170500000Y-52500000D01*
X174499500Y-52500000D01*
X174499500Y-67876000D01*
G37*
%TD.AperFunction*%
%TD*%
%TA.AperFunction,Conductor*%
%TO.N,/~{RESET}*%
G36*
X155824255Y-66979357D02*
G01*
X156020681Y-67175783D01*
X156024108Y-67184056D01*
X156021121Y-67191865D01*
X155960406Y-67259606D01*
X155916227Y-67324882D01*
X155866462Y-67441231D01*
X155827939Y-67538526D01*
X155827335Y-67539817D01*
X155792000Y-67604671D01*
X155791340Y-67605742D01*
X155744921Y-67672660D01*
X155737389Y-67677504D01*
X155728638Y-67675605D01*
X155728294Y-67675356D01*
X155635326Y-67605742D01*
X155498819Y-67503526D01*
X155496473Y-67501180D01*
X155324954Y-67272120D01*
X155322739Y-67263444D01*
X155327307Y-67255743D01*
X155328050Y-67255229D01*
X155452037Y-67176692D01*
X155453908Y-67175733D01*
X155558548Y-67133624D01*
X155559000Y-67133453D01*
X155574333Y-67128055D01*
X155686132Y-67077301D01*
X155746648Y-67034629D01*
X155808132Y-66978955D01*
X155816561Y-66975944D01*
X155824255Y-66979357D01*
G37*
%TD.AperFunction*%
%TD*%
%TA.AperFunction,Conductor*%
%TO.N,+3V3*%
G36*
X161657980Y-67106420D02*
G01*
X161662496Y-67114082D01*
X161703327Y-67398336D01*
X161703327Y-67401664D01*
X161662496Y-67685917D01*
X161657928Y-67693618D01*
X161649317Y-67695843D01*
X161515538Y-67677394D01*
X161515488Y-67677387D01*
X161513696Y-67677132D01*
X161513675Y-67677129D01*
X161431416Y-67667271D01*
X161336464Y-67655892D01*
X161336443Y-67655890D01*
X161113972Y-67650287D01*
X161105788Y-67646653D01*
X161102567Y-67638591D01*
X161102567Y-67161407D01*
X161105994Y-67153134D01*
X161113970Y-67149711D01*
X161337167Y-67144056D01*
X161515478Y-67122614D01*
X161649318Y-67104156D01*
X161657980Y-67106420D01*
G37*
%TD.AperFunction*%
%TD*%
%TA.AperFunction,Conductor*%
%TO.N,+5V*%
G36*
X162940691Y-72500500D02*
G01*
X163059309Y-72500500D01*
X163061175Y-72500000D01*
X166500000Y-72500000D01*
X166500000Y-74499500D01*
X151900000Y-74499500D01*
X151900000Y-72500000D01*
X162938825Y-72500000D01*
X162940691Y-72500500D01*
G37*
%TD.AperFunction*%
%TD*%
%TA.AperFunction,Conductor*%
%TO.N,+3V3*%
G36*
X157932980Y-58301420D02*
G01*
X157937496Y-58309082D01*
X157978327Y-58593336D01*
X157978327Y-58596664D01*
X157937496Y-58880917D01*
X157932928Y-58888618D01*
X157924317Y-58890843D01*
X157790538Y-58872394D01*
X157790488Y-58872387D01*
X157788696Y-58872132D01*
X157788675Y-58872129D01*
X157706416Y-58862271D01*
X157611464Y-58850892D01*
X157611443Y-58850890D01*
X157388972Y-58845287D01*
X157380788Y-58841653D01*
X157377567Y-58833591D01*
X157377567Y-58356407D01*
X157380994Y-58348134D01*
X157388970Y-58344711D01*
X157612167Y-58339056D01*
X157790478Y-58317614D01*
X157924318Y-58299156D01*
X157932980Y-58301420D01*
G37*
%TD.AperFunction*%
%TD*%
%TA.AperFunction,Conductor*%
%TO.N,+5V*%
G36*
X166017294Y-54022194D02*
G01*
X166028084Y-54029973D01*
X166033905Y-54034664D01*
X166043789Y-54043544D01*
X166999999Y-54999999D01*
X167000000Y-55000000D01*
X167532242Y-55000000D01*
X167534108Y-55000500D01*
X167665892Y-55000500D01*
X167667758Y-55000000D01*
X170158170Y-55000000D01*
X170193101Y-55005022D01*
X170205431Y-55008642D01*
X170264210Y-55046414D01*
X170293237Y-55109969D01*
X170294500Y-55127620D01*
X170294500Y-67876007D01*
X170299289Y-67920539D01*
X170300000Y-67933795D01*
X170300000Y-71130949D01*
X170299999Y-71130952D01*
X170300000Y-71130954D01*
X170294976Y-71165889D01*
X170287562Y-71191135D01*
X170256293Y-71243850D01*
X170000735Y-71499558D01*
X170000735Y-71499559D01*
X170000735Y-71499560D01*
X170000734Y-71499561D01*
X170001736Y-73094887D01*
X170002530Y-74357595D01*
X169997530Y-74392529D01*
X169993137Y-74407527D01*
X169955402Y-74466330D01*
X169955369Y-74466358D01*
X169954015Y-74467532D01*
X169899194Y-74495000D01*
X169894294Y-74496068D01*
X169891598Y-74496655D01*
X169865191Y-74499500D01*
X166500000Y-74499500D01*
X166500000Y-72500000D01*
X166000387Y-72500000D01*
X166000386Y-72499999D01*
X166000537Y-71334108D01*
X168499500Y-71334108D01*
X168499500Y-71465894D01*
X168508522Y-71499562D01*
X168533608Y-71593187D01*
X168566554Y-71650250D01*
X168599500Y-71707314D01*
X168692686Y-71800500D01*
X168806814Y-71866392D01*
X168934108Y-71900500D01*
X168934110Y-71900500D01*
X169065890Y-71900500D01*
X169065892Y-71900500D01*
X169193186Y-71866392D01*
X169307314Y-71800500D01*
X169400500Y-71707314D01*
X169466392Y-71593186D01*
X169500500Y-71465892D01*
X169500500Y-71334108D01*
X169466392Y-71206814D01*
X169400500Y-71092686D01*
X169307314Y-70999500D01*
X169250250Y-70966554D01*
X169193187Y-70933608D01*
X169129539Y-70916554D01*
X169065892Y-70899500D01*
X169065891Y-70899500D01*
X168934108Y-70899500D01*
X168806808Y-70933609D01*
X168806806Y-70933610D01*
X168692696Y-70999493D01*
X168692682Y-70999502D01*
X168692677Y-70999506D01*
X168599506Y-71092677D01*
X168599502Y-71092682D01*
X168599493Y-71092696D01*
X168533608Y-71206808D01*
X168531196Y-71215815D01*
X168531195Y-71215818D01*
X168499500Y-71334108D01*
X166000537Y-71334108D01*
X166000538Y-71325965D01*
X166001142Y-66630805D01*
X166006168Y-66595880D01*
X166010576Y-66580876D01*
X166048354Y-66522106D01*
X166055066Y-66516292D01*
X166104156Y-66490246D01*
X166193186Y-66466392D01*
X166307314Y-66400500D01*
X166400500Y-66307314D01*
X166466392Y-66193186D01*
X166500500Y-66065892D01*
X166500500Y-65934108D01*
X166466392Y-65806814D01*
X166400500Y-65692686D01*
X166307314Y-65599500D01*
X166283970Y-65586022D01*
X166258050Y-65571057D01*
X166258048Y-65571056D01*
X166250250Y-65566554D01*
X166193187Y-65533608D01*
X166139775Y-65519296D01*
X166103430Y-65509557D01*
X166096693Y-65506878D01*
X166092950Y-65503948D01*
X166077986Y-65497540D01*
X166064636Y-65489403D01*
X166017639Y-65437703D01*
X166013763Y-65429725D01*
X166001304Y-65375535D01*
X166001385Y-64751296D01*
X166001362Y-64630792D01*
X166001362Y-64630788D01*
X166006379Y-64595853D01*
X166010781Y-64580852D01*
X166048539Y-64522073D01*
X166055238Y-64516266D01*
X166104365Y-64490190D01*
X166193186Y-64466392D01*
X166307314Y-64400500D01*
X166400500Y-64307314D01*
X166466392Y-64193186D01*
X166500500Y-64065892D01*
X166500500Y-63934108D01*
X166466392Y-63806814D01*
X166400500Y-63692686D01*
X166307314Y-63599500D01*
X166250250Y-63566554D01*
X166193187Y-63533608D01*
X166152536Y-63522716D01*
X166143349Y-63520254D01*
X166143346Y-63520253D01*
X166118925Y-63513710D01*
X166110249Y-63511385D01*
X166077806Y-63497491D01*
X166064461Y-63489357D01*
X166052469Y-63476166D01*
X166037252Y-63466892D01*
X166017467Y-63437664D01*
X166013589Y-63429681D01*
X166001124Y-63375523D01*
X166000000Y-57400000D01*
X165098682Y-56500499D01*
X165098182Y-56500000D01*
X166000000Y-56500000D01*
X166000000Y-55934108D01*
X168999500Y-55934108D01*
X168999500Y-56065891D01*
X169016554Y-56129539D01*
X169033608Y-56193188D01*
X169066554Y-56250250D01*
X169099500Y-56307314D01*
X169192686Y-56400500D01*
X169306814Y-56466392D01*
X169434108Y-56500500D01*
X169434110Y-56500500D01*
X169565890Y-56500500D01*
X169565892Y-56500500D01*
X169693186Y-56466392D01*
X169807314Y-56400500D01*
X169900500Y-56307314D01*
X169966392Y-56193186D01*
X170000500Y-56065892D01*
X170000500Y-55934108D01*
X169966392Y-55806814D01*
X169966387Y-55806806D01*
X169957563Y-55791521D01*
X169900500Y-55692686D01*
X169807314Y-55599500D01*
X169750250Y-55566554D01*
X169693187Y-55533608D01*
X169629539Y-55516554D01*
X169565892Y-55499500D01*
X169565891Y-55499500D01*
X169434108Y-55499500D01*
X169306808Y-55533609D01*
X169306806Y-55533610D01*
X169192696Y-55599493D01*
X169192682Y-55599502D01*
X169192677Y-55599506D01*
X169099506Y-55692677D01*
X169099502Y-55692682D01*
X169099493Y-55692696D01*
X169033610Y-55806806D01*
X169033609Y-55806808D01*
X169033608Y-55806812D01*
X168999500Y-55934108D01*
X166000000Y-55934108D01*
X166000000Y-54017119D01*
X166017294Y-54022194D01*
G37*
%TD.AperFunction*%
%TD*%
%TA.AperFunction,Conductor*%
%TO.N,/~{RESET}*%
G36*
X146444256Y-66827307D02*
G01*
X146444775Y-66828059D01*
X146523301Y-66952026D01*
X146524271Y-66953919D01*
X146566365Y-67058525D01*
X146566547Y-67059007D01*
X146571944Y-67074333D01*
X146597174Y-67129909D01*
X146622698Y-67186131D01*
X146622701Y-67186136D01*
X146665364Y-67246640D01*
X146665373Y-67246652D01*
X146721041Y-67308130D01*
X146724054Y-67316563D01*
X146720641Y-67324256D01*
X146524216Y-67520681D01*
X146515943Y-67524108D01*
X146508134Y-67521121D01*
X146475040Y-67491459D01*
X146440398Y-67460410D01*
X146440395Y-67460408D01*
X146440393Y-67460406D01*
X146375117Y-67416227D01*
X146258768Y-67366462D01*
X146161473Y-67327939D01*
X146160182Y-67327335D01*
X146095328Y-67292000D01*
X146094262Y-67291343D01*
X146027337Y-67244919D01*
X146022495Y-67237389D01*
X146024394Y-67228638D01*
X146024605Y-67228345D01*
X146196476Y-66998815D01*
X146198815Y-66996476D01*
X146427879Y-66824954D01*
X146436555Y-66822739D01*
X146444256Y-66827307D01*
G37*
%TD.AperFunction*%
%TD*%
%TA.AperFunction,Conductor*%
%TO.N,+3V3*%
G36*
X151953739Y-63108842D02*
G01*
X152291158Y-63446261D01*
X152294585Y-63454534D01*
X152291365Y-63462595D01*
X152137541Y-63624417D01*
X152026610Y-63765674D01*
X151945031Y-63873354D01*
X151937303Y-63877879D01*
X151928692Y-63875654D01*
X151698819Y-63703526D01*
X151696473Y-63701180D01*
X151524344Y-63471305D01*
X151522129Y-63462630D01*
X151526644Y-63454969D01*
X151634336Y-63373380D01*
X151635804Y-63372278D01*
X151776130Y-63261986D01*
X151937405Y-63108635D01*
X151945761Y-63105419D01*
X151953739Y-63108842D01*
G37*
%TD.AperFunction*%
%TD*%
%TA.AperFunction,Conductor*%
%TO.N,+3V3*%
G36*
X158478739Y-68908842D02*
G01*
X158816158Y-69246261D01*
X158819585Y-69254534D01*
X158816365Y-69262595D01*
X158662541Y-69424417D01*
X158551610Y-69565674D01*
X158470031Y-69673354D01*
X158462303Y-69677879D01*
X158453692Y-69675654D01*
X158223819Y-69503526D01*
X158221473Y-69501180D01*
X158049344Y-69271305D01*
X158047129Y-69262630D01*
X158051644Y-69254969D01*
X158159336Y-69173380D01*
X158160804Y-69172278D01*
X158301130Y-69061986D01*
X158462405Y-68908635D01*
X158470761Y-68905419D01*
X158478739Y-68908842D01*
G37*
%TD.AperFunction*%
%TD*%
%TA.AperFunction,Conductor*%
%TO.N,/~{RESET}*%
G36*
X158957654Y-65206625D02*
G01*
X158962498Y-65214156D01*
X158962566Y-65214574D01*
X159003327Y-65498336D01*
X159003327Y-65501664D01*
X158962640Y-65784910D01*
X158958072Y-65792611D01*
X158949395Y-65794827D01*
X158948497Y-65794662D01*
X158805316Y-65762531D01*
X158803292Y-65761879D01*
X158699544Y-65717671D01*
X158699091Y-65717466D01*
X158691302Y-65713733D01*
X158684437Y-65710443D01*
X158684424Y-65710438D01*
X158569496Y-65667279D01*
X158569493Y-65667278D01*
X158569492Y-65667278D01*
X158550319Y-65663962D01*
X158496532Y-65654660D01*
X158413687Y-65650551D01*
X158405594Y-65646718D01*
X158402567Y-65638865D01*
X158402567Y-65361077D01*
X158405994Y-65352804D01*
X158413625Y-65349395D01*
X158504454Y-65344427D01*
X158581854Y-65329509D01*
X158699313Y-65282427D01*
X158795369Y-65240862D01*
X158796684Y-65240386D01*
X158867544Y-65219507D01*
X158868757Y-65219220D01*
X158948905Y-65204725D01*
X158957654Y-65206625D01*
G37*
%TD.AperFunction*%
%TD*%
%TA.AperFunction,Conductor*%
%TO.N,/~{RESET}*%
G36*
X148957654Y-67206625D02*
G01*
X148962498Y-67214156D01*
X148962566Y-67214574D01*
X149003327Y-67498336D01*
X149003327Y-67501664D01*
X148962640Y-67784910D01*
X148958072Y-67792611D01*
X148949395Y-67794827D01*
X148948497Y-67794662D01*
X148805316Y-67762531D01*
X148803292Y-67761879D01*
X148699544Y-67717671D01*
X148699091Y-67717466D01*
X148691302Y-67713733D01*
X148684437Y-67710443D01*
X148684424Y-67710438D01*
X148569496Y-67667279D01*
X148569493Y-67667278D01*
X148569492Y-67667278D01*
X148550319Y-67663962D01*
X148496532Y-67654660D01*
X148413687Y-67650551D01*
X148405594Y-67646718D01*
X148402567Y-67638865D01*
X148402567Y-67361077D01*
X148405994Y-67352804D01*
X148413625Y-67349395D01*
X148504454Y-67344427D01*
X148581854Y-67329509D01*
X148699313Y-67282427D01*
X148795369Y-67240862D01*
X148796684Y-67240386D01*
X148867544Y-67219507D01*
X148868757Y-67219220D01*
X148948905Y-67204725D01*
X148957654Y-67206625D01*
G37*
%TD.AperFunction*%
%TD*%
%TA.AperFunction,Conductor*%
%TO.N,+5V*%
G36*
X165943039Y-52719685D02*
G01*
X165988794Y-52772489D01*
X166000000Y-52824000D01*
X166000000Y-56500000D01*
X160361540Y-56500000D01*
X160294501Y-56480315D01*
X160248746Y-56427511D01*
X160241767Y-56408100D01*
X160219799Y-56326114D01*
X160160489Y-56223387D01*
X160076613Y-56139511D01*
X160061997Y-56131072D01*
X160013784Y-56080506D01*
X160000000Y-56023687D01*
X160000000Y-52824000D01*
X160019685Y-52756961D01*
X160072489Y-52711206D01*
X160124000Y-52700000D01*
X165876000Y-52700000D01*
X165943039Y-52719685D01*
G37*
%TD.AperFunction*%
%TD*%
M02*
