%TF.GenerationSoftware,KiCad,Pcbnew,10.0.3*%
%TF.CreationDate,2026-09-06T15:58:11-04:00*%
%TF.ProjectId,brushed-dual-esc,62727573-6865-4642-9d64-75616c2d6573,rev?*%
%TF.SameCoordinates,Original*%
%TF.FileFunction,Copper,L1,Top*%
%TF.FilePolarity,Positive*%
%FSLAX46Y46*%
G04 Gerber Fmt 4.6, Leading zero omitted, Abs format (unit mm)*
G04 Created by KiCad (PCBNEW 10.0.3) date 2026-09-06 15:58:11*
%MOMM*%
%LPD*%
G01*
G04 APERTURE LIST*
G04 Aperture macros list*
%AMRoundRect*
0 Rectangle with rounded corners*
0 $1 Rounding radius*
0 $2 $3 $4 $5 $6 $7 $8 $9 X,Y pos of 4 corners*
0 Add a 4 corners polygon primitive as box body*
4,1,4,$2,$3,$4,$5,$6,$7,$8,$9,$2,$3,0*
0 Add four circle primitives for the rounded corners*
1,1,$1+$1,$2,$3*
1,1,$1+$1,$4,$5*
1,1,$1+$1,$6,$7*
1,1,$1+$1,$8,$9*
0 Add four rect primitives between the rounded corners*
20,1,$1+$1,$2,$3,$4,$5,0*
20,1,$1+$1,$4,$5,$6,$7,0*
20,1,$1+$1,$6,$7,$8,$9,0*
20,1,$1+$1,$8,$9,$2,$3,0*%
%AMFreePoly0*
4,1,6,0.325000,0.000000,0.325000,-0.150000,-0.175000,-0.150000,-0.175000,0.150000,0.175000,0.150000,0.325000,0.000000,0.325000,0.000000,$1*%
%AMFreePoly1*
4,1,6,0.325000,0.000000,0.175000,-0.150000,-0.175000,-0.150000,-0.175000,0.150000,0.325000,0.150000,0.325000,0.000000,0.325000,0.000000,$1*%
%AMFreePoly2*
4,1,6,0.150000,-0.175000,-0.150000,-0.175000,-0.150000,0.175000,0.000000,0.325000,0.150000,0.325000,0.150000,-0.175000,0.150000,-0.175000,$1*%
%AMFreePoly3*
4,1,6,0.150000,0.175000,0.150000,-0.175000,-0.150000,-0.175000,-0.150000,0.325000,0.000000,0.325000,0.150000,0.175000,0.150000,0.175000,$1*%
%AMFreePoly4*
4,1,6,0.175000,-0.150000,-0.175000,-0.150000,-0.325000,0.000000,-0.325000,0.150000,0.175000,0.150000,0.175000,-0.150000,0.175000,-0.150000,$1*%
%AMFreePoly5*
4,1,7,0.175000,-0.150000,-0.175000,-0.150000,-0.325000,-0.150000,-0.325000,0.000000,-0.175000,0.150000,0.175000,0.150000,0.175000,-0.150000,0.175000,-0.150000,$1*%
%AMFreePoly6*
4,1,6,0.150000,-0.175000,0.000000,-0.325000,-0.150000,-0.325000,-0.150000,0.175000,0.150000,0.175000,0.150000,-0.175000,0.150000,-0.175000,$1*%
%AMFreePoly7*
4,1,6,0.150000,-0.325000,0.000000,-0.325000,-0.150000,-0.175000,-0.150000,0.175000,0.150000,0.175000,0.150000,-0.325000,0.150000,-0.325000,$1*%
%AMFreePoly8*
4,1,9,3.862500,-0.866500,0.737500,-0.866500,0.737500,-0.450000,-0.737500,-0.450000,-0.737500,0.450000,0.737500,0.450000,0.737500,0.866500,3.862500,0.866500,3.862500,-0.866500,3.862500,-0.866500,$1*%
G04 Aperture macros list end*
%TA.AperFunction,SMDPad,CuDef*%
%ADD10RoundRect,0.200000X-0.200000X-0.275000X0.200000X-0.275000X0.200000X0.275000X-0.200000X0.275000X0*%
%TD*%
%TA.AperFunction,SMDPad,CuDef*%
%ADD11RoundRect,0.225000X0.250000X-0.225000X0.250000X0.225000X-0.250000X0.225000X-0.250000X-0.225000X0*%
%TD*%
%TA.AperFunction,SMDPad,CuDef*%
%ADD12RoundRect,0.225000X-0.225000X-0.250000X0.225000X-0.250000X0.225000X0.250000X-0.225000X0.250000X0*%
%TD*%
%TA.AperFunction,SMDPad,CuDef*%
%ADD13RoundRect,0.250000X1.500000X0.550000X-1.500000X0.550000X-1.500000X-0.550000X1.500000X-0.550000X0*%
%TD*%
%TA.AperFunction,SMDPad,CuDef*%
%ADD14RoundRect,0.250000X-0.250000X-0.750000X0.250000X-0.750000X0.250000X0.750000X-0.250000X0.750000X0*%
%TD*%
%TA.AperFunction,SMDPad,CuDef*%
%ADD15RoundRect,0.500000X1.500000X-0.500000X1.500000X0.500000X-1.500000X0.500000X-1.500000X-0.500000X0*%
%TD*%
%TA.AperFunction,SMDPad,CuDef*%
%ADD16R,1.550000X0.600000*%
%TD*%
%TA.AperFunction,SMDPad,CuDef*%
%ADD17R,2.950000X4.900000*%
%TD*%
%TA.AperFunction,SMDPad,CuDef*%
%ADD18RoundRect,0.200000X0.200000X0.275000X-0.200000X0.275000X-0.200000X-0.275000X0.200000X-0.275000X0*%
%TD*%
%TA.AperFunction,SMDPad,CuDef*%
%ADD19RoundRect,0.225000X0.225000X0.250000X-0.225000X0.250000X-0.225000X-0.250000X0.225000X-0.250000X0*%
%TD*%
%TA.AperFunction,SMDPad,CuDef*%
%ADD20RoundRect,0.500000X-1.500000X0.500000X-1.500000X-0.500000X1.500000X-0.500000X1.500000X0.500000X0*%
%TD*%
%TA.AperFunction,SMDPad,CuDef*%
%ADD21RoundRect,0.218750X-0.256250X0.218750X-0.256250X-0.218750X0.256250X-0.218750X0.256250X0.218750X0*%
%TD*%
%TA.AperFunction,SMDPad,CuDef*%
%ADD22RoundRect,0.150000X0.512500X0.150000X-0.512500X0.150000X-0.512500X-0.150000X0.512500X-0.150000X0*%
%TD*%
%TA.AperFunction,SMDPad,CuDef*%
%ADD23RoundRect,0.225000X-0.250000X0.225000X-0.250000X-0.225000X0.250000X-0.225000X0.250000X0.225000X0*%
%TD*%
%TA.AperFunction,SMDPad,CuDef*%
%ADD24RoundRect,0.250000X-0.475000X0.250000X-0.475000X-0.250000X0.475000X-0.250000X0.475000X0.250000X0*%
%TD*%
%TA.AperFunction,SMDPad,CuDef*%
%ADD25RoundRect,0.250000X-1.500000X-0.550000X1.500000X-0.550000X1.500000X0.550000X-1.500000X0.550000X0*%
%TD*%
%TA.AperFunction,SMDPad,CuDef*%
%ADD26FreePoly0,90.000000*%
%TD*%
%TA.AperFunction,SMDPad,CuDef*%
%ADD27R,0.300000X0.700000*%
%TD*%
%TA.AperFunction,SMDPad,CuDef*%
%ADD28FreePoly1,90.000000*%
%TD*%
%TA.AperFunction,SMDPad,CuDef*%
%ADD29FreePoly2,90.000000*%
%TD*%
%TA.AperFunction,SMDPad,CuDef*%
%ADD30R,0.700000X0.300000*%
%TD*%
%TA.AperFunction,SMDPad,CuDef*%
%ADD31FreePoly3,90.000000*%
%TD*%
%TA.AperFunction,SMDPad,CuDef*%
%ADD32FreePoly4,90.000000*%
%TD*%
%TA.AperFunction,SMDPad,CuDef*%
%ADD33FreePoly5,90.000000*%
%TD*%
%TA.AperFunction,SMDPad,CuDef*%
%ADD34FreePoly6,90.000000*%
%TD*%
%TA.AperFunction,SMDPad,CuDef*%
%ADD35FreePoly7,90.000000*%
%TD*%
%TA.AperFunction,ConnectorPad*%
%ADD36C,0.787400*%
%TD*%
%TA.AperFunction,SMDPad,CuDef*%
%ADD37RoundRect,0.225000X0.425000X0.225000X-0.425000X0.225000X-0.425000X-0.225000X0.425000X-0.225000X0*%
%TD*%
%TA.AperFunction,SMDPad,CuDef*%
%ADD38FreePoly8,180.000000*%
%TD*%
%TA.AperFunction,ViaPad*%
%ADD39C,0.600000*%
%TD*%
%TA.AperFunction,Conductor*%
%ADD40C,0.300000*%
%TD*%
%TA.AperFunction,Conductor*%
%ADD41C,0.500000*%
%TD*%
G04 APERTURE END LIST*
D10*
%TO.P,R5,1*%
%TO.N,/DRV2_ISENSE*%
X163175000Y-57000000D03*
%TO.P,R5,2*%
%TO.N,GND*%
X164825000Y-57000000D03*
%TD*%
D11*
%TO.P,C5,1*%
%TO.N,+3V3*%
X162000000Y-73775000D03*
%TO.P,C5,2*%
%TO.N,GND*%
X162000000Y-72225000D03*
%TD*%
D12*
%TO.P,C6,1*%
%TO.N,+3V3*%
X158225000Y-68500000D03*
%TO.P,C6,2*%
%TO.N,GND*%
X159775000Y-68500000D03*
%TD*%
D13*
%TO.P,C11,1*%
%TO.N,+BATT*%
X170700000Y-67000000D03*
%TO.P,C11,2*%
%TO.N,GND*%
X165300000Y-67000000D03*
%TD*%
D14*
%TO.P,J12,1,Pin_1_1*%
%TO.N,+5V*%
X151000000Y-73500000D03*
%TD*%
%TO.P,J13,1,Pin_1_1*%
%TO.N,GND*%
X153500000Y-73500000D03*
%TD*%
D15*
%TO.P,J9,1,Pin_1_1*%
%TO.N,GND*%
X172500000Y-55000000D03*
%TD*%
D16*
%TO.P,U6,1,IPROPI_1*%
%TO.N,/DRV1_ISENSE*%
X156700000Y-62405000D03*
%TO.P,U6,2,IN2_2*%
%TO.N,/DRV1_IN2*%
X156700000Y-61135000D03*
%TO.P,U6,3,IN1_3*%
%TO.N,/DRV1_IN1*%
X156700000Y-59865000D03*
%TO.P,U6,4,VREF_4*%
%TO.N,+3V3*%
X156700000Y-58595000D03*
%TO.P,U6,5,VM_5*%
%TO.N,+BATT*%
X151300000Y-58595000D03*
%TO.P,U6,6,OUT1_6*%
%TO.N,/DRV1_OUT1*%
X151300000Y-59865000D03*
%TO.P,U6,7,GND_7*%
%TO.N,GND*%
X151300000Y-61135000D03*
%TO.P,U6,8,OUT2_8*%
%TO.N,/DRV1_OUT2*%
X151300000Y-62405000D03*
D17*
%TO.P,U6,9,GND_9*%
%TO.N,GND*%
X154000000Y-60500000D03*
%TD*%
D18*
%TO.P,R2,1*%
%TO.N,+BATT*%
X163625000Y-69000000D03*
%TO.P,R2,2*%
%TO.N,/BATT_SENSE*%
X161975000Y-69000000D03*
%TD*%
D19*
%TO.P,C8,1*%
%TO.N,+BATT*%
X150675000Y-56000000D03*
%TO.P,C8,2*%
%TO.N,GND*%
X149125000Y-56000000D03*
%TD*%
D14*
%TO.P,J10,1,Pin_1_1*%
%TO.N,/RX_CH2*%
X146000000Y-73500000D03*
%TD*%
D20*
%TO.P,J8,1,Pin_1_1*%
%TO.N,+BATT*%
X172500000Y-51500000D03*
%TD*%
D12*
%TO.P,C4,1*%
%TO.N,+3V3*%
X158225000Y-70500000D03*
%TO.P,C4,2*%
%TO.N,GND*%
X159775000Y-70500000D03*
%TD*%
D14*
%TO.P,J11,1,Pin_1_1*%
%TO.N,/RX_CH1*%
X148500000Y-73500000D03*
%TD*%
D21*
%TO.P,D2,1,K_1*%
%TO.N,/LED*%
X156000000Y-72212500D03*
%TO.P,D2,2,A_2*%
%TO.N,Net-(D2-A)*%
X156000000Y-73787500D03*
%TD*%
D20*
%TO.P,J5,1,Pin_1_1*%
%TO.N,/DRV1_OUT2*%
X147500000Y-62000000D03*
%TD*%
D18*
%TO.P,R4,1*%
%TO.N,/DRV1_ISENSE*%
X154824999Y-64300001D03*
%TO.P,R4,2*%
%TO.N,GND*%
X153175001Y-64299999D03*
%TD*%
D22*
%TO.P,U2,1,IN_1*%
%TO.N,+5V*%
X166637500Y-73950000D03*
%TO.P,U2,2,NC_2*%
%TO.N,unconnected-(U2-NC-Pad2)*%
X166637500Y-73000000D03*
%TO.P,U2,3,EN_3*%
%TO.N,+5V*%
X166637500Y-72050000D03*
%TO.P,U2,4,GND_4*%
%TO.N,GND*%
X164362500Y-72050000D03*
%TO.P,U2,5,OUT_5*%
%TO.N,+3V3*%
X164362500Y-73950000D03*
%TD*%
D23*
%TO.P,C9,1*%
%TO.N,+BATT*%
X174000000Y-67225000D03*
%TO.P,C9,2*%
%TO.N,GND*%
X174000000Y-68775000D03*
%TD*%
D15*
%TO.P,J6,1,Pin_1_1*%
%TO.N,/DRV2_OUT1*%
X172500000Y-62000000D03*
%TD*%
%TO.P,J7,1,Pin_1_1*%
%TO.N,/DRV2_OUT2*%
X172500000Y-58500000D03*
%TD*%
D20*
%TO.P,J3,1,Pin_1_1*%
%TO.N,/DRV1_OUT1*%
X147500000Y-58500000D03*
%TD*%
D24*
%TO.P,C1,1*%
%TO.N,+BATT*%
X169000000Y-51850000D03*
%TO.P,C1,2*%
%TO.N,GND*%
X169000000Y-53750000D03*
%TD*%
D25*
%TO.P,C10,1*%
%TO.N,+BATT*%
X152300000Y-53500000D03*
%TO.P,C10,2*%
%TO.N,GND*%
X157700000Y-53500000D03*
%TD*%
D16*
%TO.P,U7,1,IPROPI_1*%
%TO.N,/DRV2_ISENSE*%
X163300000Y-58595000D03*
%TO.P,U7,2,IN2_2*%
%TO.N,/DRV2_IN2*%
X163300000Y-59865000D03*
%TO.P,U7,3,IN1_3*%
%TO.N,/DRV2_IN1*%
X163300000Y-61135000D03*
%TO.P,U7,4,VREF_4*%
%TO.N,+3V3*%
X163300000Y-62405000D03*
%TO.P,U7,5,VM_5*%
%TO.N,+BATT*%
X168700000Y-62405000D03*
%TO.P,U7,6,OUT1_6*%
%TO.N,/DRV2_OUT1*%
X168700000Y-61135000D03*
%TO.P,U7,7,GND_7*%
%TO.N,GND*%
X168700000Y-59865000D03*
%TO.P,U7,8,OUT2_8*%
%TO.N,/DRV2_OUT2*%
X168700000Y-58595000D03*
D17*
%TO.P,U7,9,GND_9*%
%TO.N,GND*%
X166000000Y-60500000D03*
%TD*%
D26*
%TO.P,U3,1,PC15_1*%
%TO.N,/LED*%
X158000000Y-66975000D03*
D27*
%TO.P,U3,2,VDD_2*%
%TO.N,+3V3*%
X158500000Y-66800000D03*
%TO.P,U3,3,VSS_3*%
%TO.N,GND*%
X159000000Y-66800000D03*
%TO.P,U3,4,PF2_4*%
%TO.N,/~{RESET}*%
X159500000Y-66800000D03*
D28*
%TO.P,U3,5,PA0_5*%
%TO.N,/BATT_SENSE*%
X160000000Y-66975000D03*
D29*
%TO.P,U3,6,PA1_6*%
%TO.N,/DRV2_IN1*%
X160475000Y-66500000D03*
D30*
%TO.P,U3,7,PA2_7*%
%TO.N,/DRV2_IN2*%
X160300000Y-66000000D03*
%TO.P,U3,8,PA3_8*%
%TO.N,unconnected-(U3-PA3-Pad8)*%
X160300000Y-65500000D03*
%TO.P,U3,9,PA4_9*%
%TO.N,unconnected-(U3-PA4-Pad9)*%
X160300000Y-65000000D03*
D31*
%TO.P,U3,10,PA5_10*%
%TO.N,unconnected-(U3-PA5-Pad10)*%
X160475000Y-64500000D03*
D32*
%TO.P,U3,11,PA6_11*%
%TO.N,unconnected-(U3-PA6-Pad11)*%
X160000000Y-64025000D03*
D27*
%TO.P,U3,12,PA7_12*%
%TO.N,/DRV2_ISENSE*%
X159500000Y-64200000D03*
%TO.P,U3,13,PA8_13*%
%TO.N,/DRV1_IN1*%
X159000000Y-64200000D03*
%TO.P,U3,14,PA9/PA11_14*%
%TO.N,/DRV1_IN2*%
X158500000Y-64200000D03*
D33*
%TO.P,U3,15,PA10/PA12_15*%
%TO.N,/DRV1_ISENSE*%
X158000000Y-64025000D03*
D34*
%TO.P,U3,16,PA13_16*%
%TO.N,/SWDIO*%
X157525000Y-64500000D03*
D30*
%TO.P,U3,17,PA14_17*%
%TO.N,/SWCLK*%
X157700000Y-65000000D03*
%TO.P,U3,18,PB6_18*%
%TO.N,/RX_CH2*%
X157700000Y-65500000D03*
%TO.P,U3,19,PB7_19*%
%TO.N,/RX_CH1*%
X157700000Y-66000000D03*
D35*
%TO.P,U3,20,PC14_20*%
%TO.N,unconnected-(U3-PC14-Pad20)*%
X157525000Y-66500000D03*
%TD*%
D36*
%TO.P,J2,1,VCC_1*%
%TO.N,+3V3*%
X146865000Y-65730000D03*
%TO.P,J2,2,SWDIO_2*%
%TO.N,/SWDIO*%
X148135000Y-65730000D03*
%TO.P,J2,3,~{RESET}_3*%
%TO.N,/~{RESET}*%
X146865000Y-67000000D03*
%TO.P,J2,4,SWCLK_4*%
%TO.N,/SWCLK*%
X148135000Y-67000000D03*
%TO.P,J2,5,GND_5*%
%TO.N,GND*%
X146865000Y-68270000D03*
%TO.P,J2,6,SWO_6*%
%TO.N,unconnected-(J2-SWO-Pad6)*%
X148135000Y-68270000D03*
%TD*%
D37*
%TO.P,U1,1,GND_1*%
%TO.N,GND*%
X166450000Y-55000000D03*
D38*
%TO.P,U1,2,VO_2*%
%TO.N,+5V*%
X166362500Y-53500000D03*
D37*
%TO.P,U1,3,VI_3*%
%TO.N,+BATT*%
X166450000Y-52000000D03*
%TD*%
D23*
%TO.P,C3,1*%
%TO.N,+5V*%
X161000000Y-54225000D03*
%TO.P,C3,2*%
%TO.N,GND*%
X161000000Y-55775000D03*
%TD*%
D10*
%TO.P,R3,1*%
%TO.N,/BATT_SENSE*%
X161975000Y-70600000D03*
%TO.P,R3,2*%
%TO.N,GND*%
X163625000Y-70600000D03*
%TD*%
D11*
%TO.P,C2,1*%
%TO.N,+5V*%
X169000000Y-73775000D03*
%TO.P,C2,2*%
%TO.N,GND*%
X169000000Y-72225000D03*
%TD*%
D18*
%TO.P,R6,1*%
%TO.N,+5V*%
X159325000Y-73800000D03*
%TO.P,R6,2*%
%TO.N,Net-(D2-A)*%
X157675000Y-73800000D03*
%TD*%
D39*
%TO.N,GND*%
X169500000Y-56000000D03*
X158000000Y-54500000D03*
X146000000Y-56000000D03*
X163200000Y-67700000D03*
X165500000Y-65900000D03*
X160200000Y-57000000D03*
X148400000Y-56000000D03*
X160500000Y-70500000D03*
X161700000Y-57000000D03*
X152100000Y-70900000D03*
X163900000Y-63700000D03*
X159800000Y-69300000D03*
X172500000Y-53700000D03*
X160000000Y-58500000D03*
X152600000Y-64900000D03*
X156000000Y-56500000D03*
X148700000Y-64700000D03*
X167600000Y-53100000D03*
X170900000Y-70000000D03*
X155000000Y-55500000D03*
X165500000Y-63400000D03*
X164300000Y-70600000D03*
X153500000Y-72000000D03*
X153000000Y-57500000D03*
X169000000Y-71400000D03*
X154000000Y-56500000D03*
X159000000Y-55500000D03*
X155000000Y-71100000D03*
X146200000Y-68300000D03*
X165500000Y-68100000D03*
X173300000Y-68800000D03*
X165200000Y-71600000D03*
X156000000Y-54500000D03*
X163000000Y-72050000D03*
X159000000Y-57500000D03*
X174200000Y-69700000D03*
X163700000Y-65900000D03*
X147500000Y-70500000D03*
X167600000Y-54500000D03*
X158000000Y-56500000D03*
X157100000Y-71000000D03*
X153700000Y-63400000D03*
X170900000Y-68600000D03*
X157000000Y-57500000D03*
X172500000Y-56300000D03*
X155000000Y-57500000D03*
X152300000Y-61100000D03*
X169900000Y-53100000D03*
X161200000Y-71800000D03*
X164800000Y-57700000D03*
X157000000Y-55500000D03*
X164600000Y-64700000D03*
%TO.N,+3V3*%
X161700000Y-67400000D03*
X162800000Y-62905000D03*
X158225000Y-69500000D03*
X159775735Y-62000000D03*
X151700000Y-63700000D03*
X157975000Y-58595000D03*
%TO.N,+BATT*%
X159000000Y-51000000D03*
X165000000Y-51000000D03*
X155000000Y-53000000D03*
X174000000Y-66000000D03*
X167000000Y-51000000D03*
X154000000Y-52000000D03*
X163000000Y-51000000D03*
X174000000Y-64000000D03*
X173000000Y-67000000D03*
X172000000Y-66000000D03*
X158000000Y-52000000D03*
X156000000Y-52000000D03*
X173000000Y-65000000D03*
X157000000Y-51000000D03*
X153000000Y-55000000D03*
X153000000Y-51000000D03*
X152000000Y-52000000D03*
X169000000Y-51000000D03*
X151000000Y-55000000D03*
X151000000Y-51000000D03*
X161000000Y-51000000D03*
X164000000Y-52000000D03*
X172000000Y-64000000D03*
X155000000Y-51000000D03*
X151000000Y-57000000D03*
X152000000Y-56000000D03*
X160000000Y-52000000D03*
X171000000Y-65000000D03*
X167500000Y-52000000D03*
X162000000Y-52000000D03*
%TO.N,+5V*%
X163500000Y-54700000D03*
X160000000Y-73800000D03*
X167900000Y-73900000D03*
X161700000Y-54700000D03*
X150000000Y-72000000D03*
X162200000Y-53200000D03*
X152000000Y-72000000D03*
X152000000Y-74000000D03*
X160400000Y-53600000D03*
X150000000Y-74000000D03*
X165200000Y-54700000D03*
X167500000Y-72000000D03*
%TO.N,/~{RESET}*%
X159000000Y-65500000D03*
X146200000Y-67000000D03*
X155000000Y-67500000D03*
X149000000Y-67500000D03*
%TD*%
%TO.N,/DRV2_ISENSE*%
D40*
X161705000Y-58595000D02*
X160500000Y-59800000D01*
X163300000Y-58595000D02*
X161705000Y-58595000D01*
X160500000Y-59800000D02*
X160500000Y-62500000D01*
X159500000Y-63500000D02*
X159500000Y-64200000D01*
X160500000Y-62500000D02*
X159500000Y-63500000D01*
X163175000Y-57000000D02*
X163175000Y-58470000D01*
X163175000Y-58470000D02*
X163300000Y-58595000D01*
%TO.N,GND*%
D41*
X162000000Y-72225000D02*
X161625000Y-72225000D01*
X146865000Y-68270000D02*
X146230000Y-68270000D01*
X164825000Y-57000000D02*
X164825000Y-57675000D01*
X164825000Y-57675000D02*
X164800000Y-57700000D01*
X160500000Y-70500000D02*
X159775000Y-70500000D01*
X153400000Y-61100000D02*
X154000000Y-60500000D01*
X162000000Y-72225000D02*
X162825000Y-72225000D01*
X173325000Y-68775000D02*
X173300000Y-68800000D01*
D40*
X163625000Y-70600000D02*
X164300000Y-70600000D01*
D41*
X152300000Y-61100000D02*
X153400000Y-61100000D01*
D40*
X159000000Y-67725000D02*
X159775000Y-68500000D01*
X159000000Y-66800000D02*
X159000000Y-67725000D01*
D41*
X152265000Y-61135000D02*
X152300000Y-61100000D01*
X151300000Y-61135000D02*
X152265000Y-61135000D01*
X164362500Y-72050000D02*
X163000000Y-72050000D01*
X162825000Y-72225000D02*
X163000000Y-72050000D01*
D40*
X153100000Y-64400000D02*
X153100000Y-64300000D01*
D41*
X174000000Y-68775000D02*
X173325000Y-68775000D01*
D40*
X153100000Y-64300000D02*
X153100001Y-64299999D01*
D41*
X159775000Y-68500000D02*
X159775000Y-69275000D01*
X159775000Y-69275000D02*
X159800000Y-69300000D01*
D40*
X153100001Y-64299999D02*
X153175001Y-64299999D01*
D41*
X149125000Y-56000000D02*
X148400000Y-56000000D01*
X169000000Y-72225000D02*
X169000000Y-71400000D01*
X161625000Y-72225000D02*
X161200000Y-71800000D01*
X153500000Y-72000000D02*
X153500000Y-73500000D01*
X146230000Y-68270000D02*
X146200000Y-68300000D01*
D40*
X152600000Y-64900000D02*
X153100000Y-64400000D01*
%TO.N,+3V3*%
D41*
X162800000Y-66300000D02*
X162800000Y-62905000D01*
X146882282Y-63500000D02*
X146471301Y-63910981D01*
X159700000Y-72100000D02*
X158800000Y-72100000D01*
X148000000Y-63500000D02*
X146882282Y-63500000D01*
X162175000Y-73950000D02*
X162000000Y-73775000D01*
X148200000Y-63700000D02*
X148000000Y-63500000D01*
X146471301Y-63910981D02*
X146471301Y-65336301D01*
X161700000Y-67400000D02*
X162800000Y-66300000D01*
X146471301Y-65336301D02*
X146865000Y-65730000D01*
X158225000Y-70500000D02*
X158225000Y-69500000D01*
X158800000Y-72100000D02*
X158225000Y-71525000D01*
X161375000Y-73775000D02*
X159700000Y-72100000D01*
X162800000Y-62905000D02*
X163300000Y-62405000D01*
X158225000Y-69500000D02*
X158225000Y-68500000D01*
X164362500Y-73950000D02*
X162175000Y-73950000D01*
X158225000Y-71525000D02*
X158225000Y-70500000D01*
X158395000Y-58595000D02*
X157975000Y-58595000D01*
X151700000Y-63700000D02*
X148200000Y-63700000D01*
D40*
X158500000Y-66800000D02*
X158500000Y-68225000D01*
D41*
X159775735Y-62000000D02*
X159775735Y-59975735D01*
X157975000Y-58595000D02*
X156700000Y-58595000D01*
X162000000Y-73775000D02*
X161375000Y-73775000D01*
D40*
X158500000Y-68225000D02*
X158225000Y-68500000D01*
D41*
X159775735Y-59975735D02*
X158395000Y-58595000D01*
%TO.N,+BATT*%
D40*
X166500000Y-69000000D02*
X168500000Y-67000000D01*
X163625000Y-69000000D02*
X166500000Y-69000000D01*
X168500000Y-67000000D02*
X170700000Y-67000000D01*
%TO.N,+5V*%
X159325000Y-73800000D02*
X160000000Y-73800000D01*
D41*
X169000000Y-73775000D02*
X168025000Y-73775000D01*
X167450000Y-72050000D02*
X167500000Y-72000000D01*
X168025000Y-73775000D02*
X167900000Y-73900000D01*
X166637500Y-72050000D02*
X167450000Y-72050000D01*
X166637500Y-73950000D02*
X167850000Y-73950000D01*
X167850000Y-73950000D02*
X167900000Y-73900000D01*
%TO.N,/DRV1_ISENSE*%
D40*
X156700000Y-62425000D02*
X154824999Y-64300001D01*
X157605000Y-62405000D02*
X156700000Y-62405000D01*
X156700000Y-62405000D02*
X156700000Y-62425000D01*
X158000000Y-64025000D02*
X158000000Y-62800000D01*
X158000000Y-62800000D02*
X157605000Y-62405000D01*
%TO.N,/DRV1_IN2*%
X158500000Y-62000000D02*
X157635000Y-61135000D01*
X157635000Y-61135000D02*
X156700000Y-61135000D01*
X158500000Y-64200000D02*
X158500000Y-62000000D01*
%TO.N,/DRV1_IN1*%
X159000000Y-64200000D02*
X159000000Y-61000000D01*
X157865000Y-59865000D02*
X156700000Y-59865000D01*
X159000000Y-61000000D02*
X157865000Y-59865000D01*
%TO.N,/BATT_SENSE*%
X161975000Y-69000000D02*
X161975000Y-68950000D01*
X161975000Y-68950000D02*
X160000000Y-66975000D01*
X161975000Y-70600000D02*
X161975000Y-69000000D01*
%TO.N,/RX_CH2*%
X146500000Y-71500000D02*
X148000000Y-71500000D01*
X157000000Y-65500000D02*
X157700000Y-65500000D01*
X150700000Y-68800000D02*
X155250000Y-68800000D01*
X146000000Y-73500000D02*
X146000000Y-72000000D01*
X146000000Y-72000000D02*
X146500000Y-71500000D01*
X156000000Y-68050000D02*
X156000000Y-66500000D01*
X156000000Y-66500000D02*
X157000000Y-65500000D01*
X155250000Y-68800000D02*
X156000000Y-68050000D01*
X148000000Y-71500000D02*
X150700000Y-68800000D01*
%TO.N,/RX_CH1*%
X148500000Y-73500000D02*
X148500000Y-72000000D01*
X156600000Y-69000000D02*
X156600000Y-66668664D01*
X156600000Y-66668664D02*
X157268664Y-66000000D01*
X155400000Y-70200000D02*
X156600000Y-69000000D01*
X157268664Y-66000000D02*
X157700000Y-66000000D01*
X148500000Y-72000000D02*
X150300000Y-70200000D01*
X150300000Y-70200000D02*
X155400000Y-70200000D01*
%TO.N,/LED*%
X157300000Y-67675000D02*
X157300000Y-69500000D01*
X156000000Y-70800000D02*
X156000000Y-72212500D01*
X158000000Y-66975000D02*
X157300000Y-67675000D01*
X157300000Y-69500000D02*
X156000000Y-70800000D01*
%TO.N,Net-(D2-A)*%
X156000000Y-73787500D02*
X157662500Y-73787500D01*
X157662500Y-73787500D02*
X157675000Y-73800000D01*
%TO.N,/DRV2_IN2*%
X161300000Y-60200000D02*
X161635000Y-59865000D01*
X160300000Y-66000000D02*
X160950000Y-66000000D01*
X160950000Y-66000000D02*
X161300000Y-65650000D01*
X161635000Y-59865000D02*
X163300000Y-59865000D01*
X161300000Y-65650000D02*
X161300000Y-60200000D01*
%TO.N,/DRV2_IN1*%
X161200000Y-66500000D02*
X161800000Y-65900000D01*
X160475000Y-66500000D02*
X161200000Y-66500000D01*
X161800000Y-65900000D02*
X161800000Y-61500000D01*
X162165000Y-61135000D02*
X163300000Y-61135000D01*
X161800000Y-61500000D02*
X162165000Y-61135000D01*
%TO.N,/~{RESET}*%
X159500000Y-66000000D02*
X159500000Y-66800000D01*
X146865000Y-67000000D02*
X146200000Y-67000000D01*
X149000000Y-67500000D02*
X155000000Y-67500000D01*
X159000000Y-65500000D02*
X159500000Y-66000000D01*
%TO.N,/SWDIO*%
X154770000Y-65730000D02*
X148135000Y-65730000D01*
X157525000Y-64500000D02*
X156000000Y-64500000D01*
X156000000Y-64500000D02*
X154770000Y-65730000D01*
%TO.N,/SWCLK*%
X157700000Y-65000000D02*
X156500000Y-65000000D01*
X148535000Y-66600000D02*
X148135000Y-67000000D01*
X154900000Y-66600000D02*
X148535000Y-66600000D01*
X156500000Y-65000000D02*
X154900000Y-66600000D01*
%TD*%
%TA.AperFunction,Conductor*%
%TO.N,/DRV2_OUT2*%
G36*
X174375504Y-57299994D02*
G01*
X174442542Y-57319680D01*
X174488296Y-57372485D01*
X174499500Y-57423994D01*
X174499500Y-59776000D01*
X174479815Y-59843039D01*
X174427011Y-59888794D01*
X174375500Y-59900000D01*
X170024000Y-59900000D01*
X169956961Y-59880315D01*
X169911206Y-59827511D01*
X169900000Y-59776000D01*
X169900000Y-59100000D01*
X167824009Y-59100000D01*
X167756970Y-59080315D01*
X167711215Y-59027511D01*
X167700009Y-58975991D01*
X167700126Y-57423826D01*
X167719816Y-57356791D01*
X167772623Y-57311040D01*
X167824124Y-57299838D01*
X174375504Y-57299994D01*
G37*
%TD.AperFunction*%
%TD*%
%TA.AperFunction,Conductor*%
%TO.N,+BATT*%
G36*
X167812554Y-62003405D02*
G01*
X167812559Y-62003406D01*
X167833444Y-62004744D01*
X167837709Y-62005092D01*
X167841825Y-62005500D01*
X169570500Y-62005500D01*
X169637539Y-62025185D01*
X169683294Y-62077989D01*
X169694500Y-62129500D01*
X169694500Y-63062667D01*
X169695126Y-63074350D01*
X169695676Y-63084623D01*
X169695677Y-63084632D01*
X169698510Y-63110985D01*
X169702027Y-63132693D01*
X169703671Y-63140252D01*
X169703673Y-63140259D01*
X169703675Y-63140265D01*
X169720720Y-63188577D01*
X169720727Y-63188593D01*
X169738262Y-63223611D01*
X169748206Y-63243469D01*
X169748209Y-63243473D01*
X169776689Y-63286075D01*
X169776695Y-63286083D01*
X169777875Y-63287444D01*
X169777881Y-63287451D01*
X169798612Y-63308169D01*
X169798628Y-63308184D01*
X169818217Y-63325147D01*
X169825295Y-63331277D01*
X169857385Y-63348786D01*
X169865010Y-63353308D01*
X169865825Y-63353831D01*
X169865825Y-63353832D01*
X169880815Y-63363463D01*
X169891628Y-63368400D01*
X169933990Y-63387745D01*
X169933997Y-63387747D01*
X169933999Y-63387748D01*
X169937747Y-63388848D01*
X169948982Y-63392148D01*
X169948988Y-63392149D01*
X169948994Y-63392151D01*
X169977645Y-63398383D01*
X169977649Y-63398383D01*
X169977651Y-63398384D01*
X169982478Y-63399077D01*
X170012580Y-63403406D01*
X170041827Y-63405498D01*
X174362168Y-63405484D01*
X174368859Y-63405125D01*
X174436856Y-63421190D01*
X174485373Y-63471468D01*
X174499500Y-63528947D01*
X174499500Y-67858170D01*
X174499499Y-67858176D01*
X174499500Y-67858179D01*
X174494475Y-67893114D01*
X174490070Y-67908112D01*
X174452327Y-67966855D01*
X174452292Y-67966885D01*
X174452291Y-67966887D01*
X174452289Y-67966887D01*
X174450958Y-67968042D01*
X174396097Y-67995518D01*
X174388539Y-67997163D01*
X174362168Y-68000000D01*
X167641830Y-68000000D01*
X167641825Y-67999999D01*
X167641823Y-68000000D01*
X167606889Y-67994975D01*
X167591890Y-67990570D01*
X167533144Y-67952827D01*
X167533115Y-67952793D01*
X167533114Y-67952793D01*
X167533113Y-67952791D01*
X167531957Y-67951458D01*
X167504477Y-67896583D01*
X167502832Y-67889021D01*
X167500000Y-67862668D01*
X167500000Y-63258543D01*
X167505022Y-63223611D01*
X167510934Y-63203475D01*
X167541446Y-63151520D01*
X167546163Y-63146718D01*
X167565718Y-63130522D01*
X167619552Y-63094552D01*
X167663867Y-63028231D01*
X167663867Y-63028229D01*
X167663868Y-63028229D01*
X167666030Y-63017355D01*
X167666166Y-63017090D01*
X167666249Y-63016256D01*
X167675068Y-62971917D01*
X167675500Y-62969931D01*
X167675500Y-62141829D01*
X167680521Y-62106900D01*
X167684847Y-62092167D01*
X167722616Y-62033391D01*
X167786171Y-62004363D01*
X167811753Y-62003354D01*
X167812554Y-62003405D01*
G37*
%TD.AperFunction*%
%TD*%
%TA.AperFunction,Conductor*%
%TO.N,/DRV1_OUT2*%
G36*
X149693106Y-60805023D02*
G01*
X149708104Y-60809427D01*
X149723094Y-60819057D01*
X149740175Y-60824067D01*
X149766855Y-60847172D01*
X149768042Y-60848541D01*
X149795518Y-60903402D01*
X149797163Y-60910960D01*
X149800000Y-60937331D01*
X149800000Y-61900000D01*
X152158171Y-61900000D01*
X152193106Y-61905023D01*
X152208104Y-61909427D01*
X152266855Y-61947172D01*
X152266879Y-61947200D01*
X152266882Y-61947202D01*
X152266883Y-61947204D01*
X152268042Y-61948541D01*
X152295518Y-62003402D01*
X152297163Y-62010960D01*
X152300000Y-62037331D01*
X152300000Y-63058170D01*
X152299999Y-63058176D01*
X152300000Y-63058179D01*
X152294975Y-63093114D01*
X152290570Y-63108112D01*
X152252827Y-63166855D01*
X152252792Y-63166885D01*
X152252791Y-63166887D01*
X152252789Y-63166887D01*
X152251458Y-63168042D01*
X152196597Y-63195518D01*
X152189039Y-63197163D01*
X152162668Y-63200000D01*
X151777816Y-63200000D01*
X151777263Y-63199999D01*
X151767593Y-63199955D01*
X151765892Y-63199500D01*
X151665313Y-63199500D01*
X151665089Y-63199499D01*
X151665032Y-63199482D01*
X151660201Y-63199340D01*
X151659089Y-63199329D01*
X151659088Y-63199329D01*
X151658257Y-63199361D01*
X151657146Y-63199405D01*
X151652295Y-63199500D01*
X151629813Y-63199500D01*
X151622184Y-63200000D01*
X148406295Y-63200000D01*
X148406294Y-63199999D01*
X148406294Y-63200000D01*
X148371359Y-63194977D01*
X148346117Y-63187565D01*
X148293372Y-63156269D01*
X148276616Y-63139513D01*
X148276614Y-63139511D01*
X148260049Y-63129947D01*
X148229472Y-63112293D01*
X148229466Y-63112290D01*
X148225250Y-63109856D01*
X148173888Y-63080201D01*
X148158208Y-63076000D01*
X148149673Y-63073713D01*
X148149670Y-63073712D01*
X148147196Y-63073049D01*
X148111476Y-63063477D01*
X148111476Y-63063476D01*
X148059314Y-63049500D01*
X148059309Y-63049500D01*
X146822973Y-63049500D01*
X146790582Y-63058179D01*
X146764698Y-63065114D01*
X146764685Y-63065115D01*
X146708426Y-63080191D01*
X146708406Y-63080196D01*
X146708398Y-63080199D01*
X146708395Y-63080200D01*
X146708392Y-63080201D01*
X146708390Y-63080202D01*
X146605678Y-63139504D01*
X146605664Y-63139513D01*
X146594107Y-63151070D01*
X146594106Y-63151072D01*
X146594103Y-63151074D01*
X146565852Y-63172224D01*
X146542765Y-63184831D01*
X146483336Y-63200000D01*
X145642330Y-63200000D01*
X145607389Y-63194975D01*
X145592390Y-63190570D01*
X145533644Y-63152827D01*
X145532457Y-63151458D01*
X145504977Y-63096583D01*
X145503332Y-63089021D01*
X145500500Y-63062668D01*
X145500500Y-60941829D01*
X145505523Y-60906893D01*
X145509927Y-60891895D01*
X145547672Y-60833144D01*
X145547700Y-60833119D01*
X145547699Y-60833119D01*
X145549041Y-60831956D01*
X145603920Y-60804477D01*
X145611479Y-60802833D01*
X145637832Y-60800000D01*
X149658170Y-60800000D01*
X149693106Y-60805023D01*
G37*
%TD.AperFunction*%
%TD*%
%TA.AperFunction,Conductor*%
%TO.N,/DRV2_OUT1*%
G36*
X174392588Y-60504507D02*
G01*
X174407590Y-60508909D01*
X174422581Y-60518538D01*
X174439662Y-60523545D01*
X174466346Y-60546646D01*
X174467529Y-60548010D01*
X174495017Y-60602886D01*
X174496664Y-60610454D01*
X174499500Y-60636823D01*
X174499500Y-63058154D01*
X174494475Y-63093098D01*
X174490070Y-63108096D01*
X174480439Y-63123085D01*
X174475432Y-63140159D01*
X174452327Y-63166839D01*
X174450958Y-63168026D01*
X174396094Y-63195503D01*
X174388535Y-63197148D01*
X174362167Y-63199984D01*
X170041826Y-63199998D01*
X170006891Y-63194975D01*
X169991896Y-63190572D01*
X169976906Y-63180941D01*
X169959824Y-63175932D01*
X169933144Y-63152827D01*
X169931957Y-63151458D01*
X169904477Y-63096579D01*
X169902833Y-63089020D01*
X169900000Y-63062667D01*
X169900000Y-61800000D01*
X167841825Y-61800000D01*
X167841820Y-61799999D01*
X167841818Y-61800000D01*
X167806884Y-61794975D01*
X167791885Y-61790570D01*
X167733130Y-61752817D01*
X167731945Y-61751450D01*
X167704475Y-61696586D01*
X167702830Y-61689024D01*
X167699996Y-61662653D01*
X167700099Y-60642360D01*
X167705125Y-60607426D01*
X167709531Y-60592426D01*
X167747289Y-60533671D01*
X167748667Y-60532478D01*
X167803510Y-60505019D01*
X167811067Y-60503375D01*
X167837396Y-60500541D01*
X174357660Y-60499490D01*
X174392588Y-60504507D01*
G37*
%TD.AperFunction*%
%TD*%
%TA.AperFunction,Conductor*%
%TO.N,+5V*%
G36*
X165393106Y-52705023D02*
G01*
X165408104Y-52709427D01*
X165423094Y-52719057D01*
X165440175Y-52724067D01*
X165466855Y-52747172D01*
X165468042Y-52748541D01*
X165495518Y-52803402D01*
X165497163Y-52810960D01*
X165500000Y-52837331D01*
X165500000Y-54858170D01*
X165494975Y-54893114D01*
X165490570Y-54908112D01*
X165480939Y-54923101D01*
X165475932Y-54940175D01*
X165452827Y-54966855D01*
X165451458Y-54968042D01*
X165396597Y-54995518D01*
X165389039Y-54997163D01*
X165362668Y-55000000D01*
X160141830Y-55000000D01*
X160106889Y-54994975D01*
X160091890Y-54990570D01*
X160076902Y-54980940D01*
X160059824Y-54975932D01*
X160033144Y-54952827D01*
X160031957Y-54951458D01*
X160004477Y-54896583D01*
X160002832Y-54889021D01*
X160000000Y-54862668D01*
X160000000Y-52841829D01*
X160005023Y-52806895D01*
X160008643Y-52794566D01*
X160046416Y-52735788D01*
X160109972Y-52706762D01*
X160127620Y-52705500D01*
X162281120Y-52705500D01*
X162281129Y-52705500D01*
X162320712Y-52701652D01*
X162320717Y-52701650D01*
X162323077Y-52701306D01*
X162341026Y-52700000D01*
X165358170Y-52700000D01*
X165393106Y-52705023D01*
G37*
%TD.AperFunction*%
%TD*%
%TA.AperFunction,Conductor*%
%TO.N,/DRV1_OUT1*%
G36*
X149693399Y-57305023D02*
G01*
X149708397Y-57309427D01*
X149723384Y-57319053D01*
X149740447Y-57324054D01*
X149767132Y-57347153D01*
X149768303Y-57348503D01*
X149795809Y-57403447D01*
X149797405Y-57410798D01*
X149797460Y-57411050D01*
X149800282Y-57437452D01*
X149798929Y-59174146D01*
X149798877Y-59174319D01*
X149798831Y-59298048D01*
X149798832Y-59298048D01*
X149798832Y-59298049D01*
X149798831Y-59298049D01*
X149804096Y-59298052D01*
X149804097Y-59298053D01*
X149804098Y-59298053D01*
X152158268Y-59299889D01*
X152193194Y-59304938D01*
X152204357Y-59308224D01*
X152208189Y-59309353D01*
X152266939Y-59347171D01*
X152266965Y-59347201D01*
X152268166Y-59348590D01*
X152295541Y-59403372D01*
X152297174Y-59410890D01*
X152300000Y-59437211D01*
X152300000Y-60258112D01*
X152299999Y-60258118D01*
X152300000Y-60258121D01*
X152294975Y-60293056D01*
X152290570Y-60308054D01*
X152252809Y-60366813D01*
X152251451Y-60367990D01*
X152196571Y-60395458D01*
X152188988Y-60397106D01*
X152162597Y-60399935D01*
X145642270Y-60396929D01*
X145607338Y-60391890D01*
X145592344Y-60387480D01*
X145589889Y-60385901D01*
X145533603Y-60349702D01*
X145532406Y-60348320D01*
X145504962Y-60293456D01*
X145503325Y-60285921D01*
X145500500Y-60259604D01*
X145500500Y-57441829D01*
X145505523Y-57406893D01*
X145509927Y-57391895D01*
X145547672Y-57333144D01*
X145547700Y-57333119D01*
X145547699Y-57333119D01*
X145549041Y-57331956D01*
X145603920Y-57304477D01*
X145611479Y-57302833D01*
X145637832Y-57300000D01*
X149658463Y-57300000D01*
X149693399Y-57305023D01*
G37*
%TD.AperFunction*%
%TD*%
%TA.AperFunction,Conductor*%
%TO.N,GND*%
G36*
X157568899Y-69829296D02*
G01*
X157624832Y-69871168D01*
X157649249Y-69936632D01*
X157640397Y-69992272D01*
X157616980Y-70049736D01*
X157616965Y-70049774D01*
X157616303Y-70051400D01*
X157606287Y-70075561D01*
X157598249Y-70099120D01*
X157597506Y-70101081D01*
X157596947Y-70101819D01*
X157592053Y-70113395D01*
X157590279Y-70116876D01*
X157590278Y-70116878D01*
X157574500Y-70216501D01*
X157574500Y-70783497D01*
X157590278Y-70883120D01*
X157590281Y-70883126D01*
X157594773Y-70891943D01*
X157600869Y-70905992D01*
X157604066Y-70914816D01*
X157605701Y-70923023D01*
X157615746Y-70947260D01*
X157616787Y-70949924D01*
X157733361Y-71248290D01*
X157737710Y-71261588D01*
X157758515Y-71339927D01*
X157762073Y-71359610D01*
X157769449Y-71434567D01*
X157770009Y-71436588D01*
X157774500Y-71469658D01*
X157774500Y-71584312D01*
X157784435Y-71621392D01*
X157784436Y-71621392D01*
X157790088Y-71642483D01*
X157790090Y-71642493D01*
X157803537Y-71692680D01*
X157805200Y-71698886D01*
X157808696Y-71704941D01*
X157864511Y-71801614D01*
X158523386Y-72460490D01*
X158523387Y-72460491D01*
X158523389Y-72460492D01*
X158574749Y-72490144D01*
X158626113Y-72519799D01*
X158650321Y-72526284D01*
X158650324Y-72526286D01*
X158650325Y-72526286D01*
X158680447Y-72534357D01*
X158740691Y-72550500D01*
X159444205Y-72550500D01*
X159479137Y-72555521D01*
X159504381Y-72562934D01*
X159557127Y-72594230D01*
X160038109Y-73075212D01*
X160059259Y-73103463D01*
X160064195Y-73112502D01*
X160061896Y-73113757D01*
X160063363Y-73118005D01*
X160073332Y-73131533D01*
X160074534Y-73150342D01*
X160080690Y-73168160D01*
X160076718Y-73184489D01*
X160077791Y-73201260D01*
X160068632Y-73217736D01*
X160064178Y-73236051D01*
X160051773Y-73248066D01*
X160043845Y-73262329D01*
X160023308Y-73277201D01*
X160023845Y-73277998D01*
X160023499Y-73278231D01*
X160019982Y-73279609D01*
X160016907Y-73281836D01*
X160015432Y-73283266D01*
X160012842Y-73284655D01*
X160012726Y-73284679D01*
X160011370Y-73285378D01*
X160011177Y-73285004D01*
X160000539Y-73287234D01*
X159973351Y-73297896D01*
X159972569Y-73298018D01*
X159953455Y-73299500D01*
X159933826Y-73299500D01*
X159901597Y-73295238D01*
X159893560Y-73293075D01*
X159893558Y-73293074D01*
X159893552Y-73293073D01*
X159890286Y-73292381D01*
X159890323Y-73292204D01*
X159890325Y-73292194D01*
X159890427Y-73291711D01*
X159882269Y-73288415D01*
X159873222Y-73288038D01*
X159841757Y-73272050D01*
X159839354Y-73270360D01*
X159823011Y-73256618D01*
X159763347Y-73196954D01*
X159763344Y-73196952D01*
X159763342Y-73196950D01*
X159763340Y-73196949D01*
X159763339Y-73196948D01*
X159669513Y-73149141D01*
X159669512Y-73149141D01*
X159650300Y-73139351D01*
X159650296Y-73139350D01*
X159556530Y-73124500D01*
X159556524Y-73124500D01*
X159093482Y-73124500D01*
X159093478Y-73124500D01*
X159028846Y-73134736D01*
X159028842Y-73134737D01*
X159012519Y-73137323D01*
X158999696Y-73139354D01*
X158886658Y-73196950D01*
X158886657Y-73196951D01*
X158886652Y-73196954D01*
X158883652Y-73199953D01*
X158883649Y-73199955D01*
X158796954Y-73286650D01*
X158796414Y-73287709D01*
X158780346Y-73319247D01*
X158780345Y-73319248D01*
X158780344Y-73319249D01*
X158739352Y-73399696D01*
X158739350Y-73399703D01*
X158724500Y-73493469D01*
X158724500Y-74106519D01*
X158729382Y-74137346D01*
X158732604Y-74157685D01*
X158739354Y-74200304D01*
X158794638Y-74308804D01*
X158796875Y-74314537D01*
X158797287Y-74319293D01*
X158803227Y-74336723D01*
X158805789Y-74350363D01*
X158802672Y-74381441D01*
X158802907Y-74384146D01*
X158802282Y-74385331D01*
X158798818Y-74419884D01*
X158755368Y-74474601D01*
X158755363Y-74474604D01*
X158752635Y-74476527D01*
X158701516Y-74497500D01*
X158699572Y-74497823D01*
X158679248Y-74499500D01*
X158328377Y-74499500D01*
X158328374Y-74499499D01*
X158328373Y-74499500D01*
X158293438Y-74494476D01*
X158280120Y-74490565D01*
X158221343Y-74452789D01*
X158192321Y-74389234D01*
X158192125Y-74387874D01*
X158191846Y-74385929D01*
X158196387Y-74330797D01*
X158196982Y-74328921D01*
X158204695Y-74310114D01*
X158260645Y-74200307D01*
X158260646Y-74200301D01*
X158260647Y-74200301D01*
X158260648Y-74200294D01*
X158261785Y-74195560D01*
X158261785Y-74195558D01*
X158261789Y-74195539D01*
X158262173Y-74190668D01*
X158275111Y-74108979D01*
X158275437Y-74107154D01*
X158275499Y-74106523D01*
X158275500Y-74106519D01*
X158275499Y-73493482D01*
X158260646Y-73399696D01*
X158203050Y-73286658D01*
X158203046Y-73286654D01*
X158203045Y-73286652D01*
X158113347Y-73196954D01*
X158113344Y-73196952D01*
X158113342Y-73196950D01*
X158113341Y-73196949D01*
X158019513Y-73149141D01*
X158019512Y-73149141D01*
X158000300Y-73139351D01*
X158000296Y-73139350D01*
X157906530Y-73124500D01*
X157906524Y-73124500D01*
X157443482Y-73124500D01*
X157443478Y-73124500D01*
X157378848Y-73134736D01*
X157378845Y-73134737D01*
X157362519Y-73137323D01*
X157349696Y-73139354D01*
X157236658Y-73196950D01*
X157236657Y-73196951D01*
X157236652Y-73196954D01*
X157233649Y-73199956D01*
X157233646Y-73199958D01*
X157205695Y-73227909D01*
X157185050Y-73244545D01*
X157179379Y-73248188D01*
X157179378Y-73248189D01*
X157114767Y-73310519D01*
X157105782Y-73318387D01*
X157052701Y-73360532D01*
X157041259Y-73368606D01*
X157003030Y-73392468D01*
X156988997Y-73400020D01*
X156963568Y-73411664D01*
X156894420Y-73421678D01*
X156856084Y-73409628D01*
X156798381Y-73380513D01*
X156789870Y-73375790D01*
X156749222Y-73351102D01*
X156746892Y-73349708D01*
X156683009Y-73312072D01*
X156613913Y-73271364D01*
X156606462Y-73267181D01*
X156606441Y-73267169D01*
X156605631Y-73266736D01*
X156597957Y-73262839D01*
X156464150Y-73198375D01*
X156434833Y-73172556D01*
X156289257Y-73149500D01*
X156289251Y-73149500D01*
X156289246Y-73149500D01*
X155710754Y-73149500D01*
X155710749Y-73149500D01*
X155671582Y-73155703D01*
X155612581Y-73165047D01*
X155612579Y-73165048D01*
X155549972Y-73196949D01*
X155494244Y-73225344D01*
X155400340Y-73319249D01*
X155400337Y-73319253D01*
X155400189Y-73319548D01*
X155393330Y-73333010D01*
X155390829Y-73337921D01*
X155388801Y-73341901D01*
X155388797Y-73341908D01*
X155340047Y-73437580D01*
X155340045Y-73437587D01*
X155324500Y-73535742D01*
X155324500Y-73535748D01*
X155324500Y-74039251D01*
X155340047Y-74137417D01*
X155353491Y-74163801D01*
X155400342Y-74255751D01*
X155400344Y-74255753D01*
X155400346Y-74255756D01*
X155402657Y-74258067D01*
X155402659Y-74258070D01*
X155419800Y-74275210D01*
X155419802Y-74275212D01*
X155440953Y-74303466D01*
X155446373Y-74313392D01*
X155461225Y-74381665D01*
X155436808Y-74447129D01*
X155380875Y-74489001D01*
X155373687Y-74491682D01*
X155330353Y-74499500D01*
X152828542Y-74499500D01*
X152761503Y-74479815D01*
X152715748Y-74427011D01*
X152704858Y-74366659D01*
X152705499Y-74357684D01*
X152705500Y-74357670D01*
X152705500Y-71637348D01*
X152705499Y-71637312D01*
X152704321Y-71615357D01*
X152704321Y-71615350D01*
X152701484Y-71588979D01*
X152697962Y-71567256D01*
X152696317Y-71559698D01*
X152690187Y-71542330D01*
X152679263Y-71511379D01*
X152652593Y-71458129D01*
X152651786Y-71456517D01*
X152623306Y-71413918D01*
X152623302Y-71413912D01*
X152622140Y-71412573D01*
X152622117Y-71412547D01*
X152601386Y-71391829D01*
X152601370Y-71391814D01*
X152574704Y-71368722D01*
X152542607Y-71351206D01*
X152534988Y-71346688D01*
X152519171Y-71336527D01*
X152466004Y-71312252D01*
X152465998Y-71312250D01*
X152451025Y-71307853D01*
X152450994Y-71307845D01*
X152422357Y-71301615D01*
X152387415Y-71296592D01*
X152387417Y-71296592D01*
X152358170Y-71294500D01*
X150000542Y-71294500D01*
X149933503Y-71274815D01*
X149887748Y-71222011D01*
X149877804Y-71152853D01*
X149906829Y-71089297D01*
X149912861Y-71082819D01*
X150048420Y-70947260D01*
X150396262Y-70599418D01*
X150424507Y-70578275D01*
X150447599Y-70565667D01*
X150507024Y-70550500D01*
X155446141Y-70550500D01*
X155446144Y-70550500D01*
X155499263Y-70536266D01*
X155534299Y-70532077D01*
X155548173Y-70532407D01*
X155614725Y-70553681D01*
X155659189Y-70607508D01*
X155659209Y-70607556D01*
X155659211Y-70607558D01*
X155659211Y-70607559D01*
X155659830Y-70609003D01*
X155669547Y-70666728D01*
X155669189Y-70671725D01*
X155665281Y-70694955D01*
X155649500Y-70753851D01*
X155649500Y-71281102D01*
X155647466Y-71303467D01*
X155646274Y-71309962D01*
X155646038Y-71310564D01*
X155637242Y-71359218D01*
X155637174Y-71359593D01*
X155637037Y-71359863D01*
X155626094Y-71392728D01*
X155593360Y-71458129D01*
X155585987Y-71470901D01*
X155507021Y-71590627D01*
X155506855Y-71590878D01*
X155421533Y-71719562D01*
X155405875Y-71738712D01*
X155400348Y-71744239D01*
X155400335Y-71744260D01*
X155340048Y-71862579D01*
X155340045Y-71862587D01*
X155324500Y-71960742D01*
X155324500Y-71960747D01*
X155324500Y-71960748D01*
X155324500Y-72464251D01*
X155338160Y-72550500D01*
X155340047Y-72562417D01*
X155340942Y-72564708D01*
X155342883Y-72567993D01*
X155343171Y-72568547D01*
X155400342Y-72680751D01*
X155400344Y-72680753D01*
X155400346Y-72680756D01*
X155494243Y-72774653D01*
X155494245Y-72774654D01*
X155494249Y-72774658D01*
X155538759Y-72797337D01*
X155571736Y-72828482D01*
X155607777Y-72834191D01*
X155607780Y-72834191D01*
X155612582Y-72834951D01*
X155612583Y-72834952D01*
X155612582Y-72834952D01*
X155638625Y-72839076D01*
X155710744Y-72850500D01*
X155710749Y-72850500D01*
X155710754Y-72850500D01*
X156289251Y-72850500D01*
X156377785Y-72836478D01*
X156382654Y-72836094D01*
X156382670Y-72836091D01*
X156386791Y-72835271D01*
X156387419Y-72834951D01*
X156387420Y-72834951D01*
X156505751Y-72774658D01*
X156599658Y-72680751D01*
X156659951Y-72562420D01*
X156659951Y-72562418D01*
X156659952Y-72562417D01*
X156659954Y-72562401D01*
X156661089Y-72557678D01*
X156661089Y-72557676D01*
X156661091Y-72557670D01*
X156661094Y-72557655D01*
X156661478Y-72552783D01*
X156675500Y-72464250D01*
X156675500Y-71960747D01*
X156659953Y-71862585D01*
X156659952Y-71862582D01*
X156641200Y-71825780D01*
X156641199Y-71825779D01*
X156599658Y-71744249D01*
X156599657Y-71744248D01*
X156599656Y-71744246D01*
X156594125Y-71738715D01*
X156578458Y-71719555D01*
X156561192Y-71693514D01*
X156495188Y-71593962D01*
X156493683Y-71591636D01*
X156473351Y-71559426D01*
X156386412Y-71421697D01*
X156376523Y-71402506D01*
X156367776Y-71381146D01*
X156359841Y-71352148D01*
X156354793Y-71317700D01*
X156354792Y-71317696D01*
X156354791Y-71317690D01*
X156353685Y-71312869D01*
X156354739Y-71312627D01*
X156350500Y-71284998D01*
X156350500Y-71014373D01*
X156355522Y-70979440D01*
X156362934Y-70954195D01*
X156394228Y-70901453D01*
X157437886Y-69857795D01*
X157499207Y-69824312D01*
X157568899Y-69829296D01*
G37*
%TD.AperFunction*%
%TA.AperFunction,Conductor*%
G36*
X159252872Y-52705139D02*
G01*
X159257684Y-52705308D01*
X159263490Y-52705444D01*
X159268302Y-52705500D01*
X159671065Y-52705500D01*
X159738104Y-52725185D01*
X159783859Y-52777989D01*
X159794749Y-52838347D01*
X159794500Y-52841829D01*
X159794500Y-54862668D01*
X159795676Y-54884625D01*
X159795678Y-54884650D01*
X159798505Y-54910963D01*
X159802027Y-54932698D01*
X159803673Y-54940265D01*
X159820728Y-54988597D01*
X159848206Y-55043468D01*
X159848211Y-55043477D01*
X159876689Y-55086076D01*
X159877875Y-55087444D01*
X159877881Y-55087451D01*
X159898612Y-55108169D01*
X159898626Y-55108182D01*
X159905363Y-55114015D01*
X159925295Y-55131277D01*
X159957368Y-55148776D01*
X159964985Y-55153294D01*
X159965818Y-55153829D01*
X159980806Y-55163459D01*
X160033983Y-55187743D01*
X160048982Y-55192148D01*
X160077636Y-55198382D01*
X160112577Y-55203407D01*
X160141830Y-55205500D01*
X165362650Y-55205500D01*
X165362668Y-55205500D01*
X165384649Y-55204321D01*
X165411020Y-55201484D01*
X165432743Y-55197962D01*
X165440301Y-55196317D01*
X165472514Y-55184947D01*
X165488619Y-55179263D01*
X165488621Y-55179262D01*
X165543482Y-55151786D01*
X165586081Y-55123306D01*
X165587450Y-55122119D01*
X165608172Y-55101384D01*
X165631277Y-55074704D01*
X165648768Y-55042645D01*
X165653292Y-55035018D01*
X165653825Y-55034187D01*
X165653826Y-55034188D01*
X165663457Y-55019199D01*
X165687742Y-54966022D01*
X165692147Y-54951024D01*
X165698383Y-54922364D01*
X165703408Y-54887420D01*
X165705500Y-54858170D01*
X165705500Y-54629651D01*
X165710521Y-54594723D01*
X165712209Y-54588973D01*
X165740891Y-54538916D01*
X165740907Y-54538899D01*
X165748729Y-54532138D01*
X165749980Y-54530193D01*
X165751132Y-54529666D01*
X165753125Y-54527166D01*
X165753127Y-54527166D01*
X165810149Y-54455663D01*
X165830500Y-54366500D01*
X165830500Y-54297329D01*
X165834085Y-54272398D01*
X165835523Y-54262393D01*
X165839927Y-54247395D01*
X165877672Y-54188644D01*
X165877700Y-54188619D01*
X165877699Y-54188619D01*
X165879041Y-54187456D01*
X165933920Y-54159977D01*
X165941479Y-54158333D01*
X165967832Y-54155500D01*
X167125503Y-54155500D01*
X167130633Y-54152698D01*
X167143123Y-54150641D01*
X167145728Y-54150348D01*
X167228127Y-54110666D01*
X167285149Y-54039163D01*
X167305500Y-53950000D01*
X167305500Y-53050000D01*
X167300348Y-53004272D01*
X167260666Y-52921873D01*
X167260666Y-52921872D01*
X167251956Y-52910951D01*
X167254244Y-52909126D01*
X167226262Y-52869263D01*
X167223410Y-52799451D01*
X167258753Y-52739180D01*
X167321071Y-52707585D01*
X167343714Y-52705500D01*
X174362150Y-52705500D01*
X174362168Y-52705500D01*
X174368856Y-52705141D01*
X174436854Y-52721205D01*
X174485372Y-52771482D01*
X174499500Y-52828963D01*
X174499500Y-56970493D01*
X174479815Y-57037532D01*
X174427011Y-57083287D01*
X174375497Y-57094493D01*
X167824130Y-57094338D01*
X167824124Y-57094338D01*
X167787727Y-57098250D01*
X167780447Y-57099033D01*
X167728946Y-57110235D01*
X167723114Y-57111659D01*
X167718778Y-57112719D01*
X167718777Y-57112719D01*
X167718775Y-57112720D01*
X167638060Y-57155724D01*
X167638059Y-57155725D01*
X167585242Y-57201484D01*
X167567300Y-57219061D01*
X167567298Y-57219064D01*
X167522647Y-57298873D01*
X167502954Y-57365917D01*
X167502953Y-57365923D01*
X167494626Y-57423807D01*
X167494625Y-57423813D01*
X167494509Y-58975974D01*
X167494509Y-58975983D01*
X167499204Y-59019669D01*
X167510408Y-59071182D01*
X167512508Y-59079774D01*
X167512899Y-59081373D01*
X167520426Y-59095499D01*
X167555908Y-59162083D01*
X167555910Y-59162086D01*
X167601669Y-59214895D01*
X167619251Y-59232839D01*
X167619255Y-59232843D01*
X167619256Y-59232844D01*
X167619258Y-59232845D01*
X167661946Y-59256723D01*
X167699072Y-59277490D01*
X167766111Y-59297175D01*
X167824009Y-59305500D01*
X169570500Y-59305500D01*
X169637539Y-59325185D01*
X169683294Y-59377989D01*
X169694500Y-59429500D01*
X169694500Y-59776007D01*
X169699197Y-59819686D01*
X169710397Y-59871174D01*
X169712890Y-59881372D01*
X169712891Y-59881375D01*
X169755899Y-59962083D01*
X169755901Y-59962086D01*
X169801660Y-60014895D01*
X169819242Y-60032839D01*
X169819246Y-60032843D01*
X169819247Y-60032844D01*
X169819249Y-60032845D01*
X169845870Y-60047735D01*
X169872269Y-60062502D01*
X169921168Y-60112409D01*
X169935322Y-60180829D01*
X169910239Y-60246041D01*
X169853881Y-60287340D01*
X169811755Y-60294722D01*
X167837367Y-60295040D01*
X167815415Y-60296220D01*
X167815408Y-60296220D01*
X167815403Y-60296221D01*
X167789074Y-60299055D01*
X167789066Y-60299056D01*
X167789059Y-60299057D01*
X167767391Y-60302570D01*
X167759824Y-60304216D01*
X167711500Y-60321266D01*
X167656671Y-60348718D01*
X167614160Y-60377112D01*
X167614157Y-60377114D01*
X167612783Y-60378304D01*
X167574413Y-60422567D01*
X167574404Y-60422579D01*
X167536654Y-60481323D01*
X167536651Y-60481327D01*
X167512361Y-60534509D01*
X167507957Y-60549504D01*
X167507952Y-60549523D01*
X167501717Y-60578172D01*
X167496693Y-60613089D01*
X167494599Y-60642336D01*
X167494598Y-60642348D01*
X167494499Y-61629505D01*
X167494496Y-61662632D01*
X167495395Y-61679441D01*
X167495673Y-61684625D01*
X167498503Y-61710965D01*
X167502025Y-61732704D01*
X167502028Y-61732717D01*
X167503670Y-61740264D01*
X167520720Y-61788588D01*
X167539439Y-61825975D01*
X167551851Y-61894733D01*
X167532881Y-61948520D01*
X167511966Y-61981069D01*
X167511959Y-61981082D01*
X167487671Y-62034269D01*
X167487670Y-62034270D01*
X167483347Y-62048995D01*
X167483345Y-62049004D01*
X167477111Y-62077665D01*
X167472092Y-62112578D01*
X167472091Y-62112592D01*
X167470000Y-62141827D01*
X167470000Y-62884661D01*
X167450315Y-62951700D01*
X167425096Y-62980159D01*
X167415076Y-62988457D01*
X167399552Y-63002719D01*
X167394849Y-63007506D01*
X167394836Y-63007522D01*
X167364247Y-63047448D01*
X167364240Y-63047458D01*
X167333735Y-63099401D01*
X167333729Y-63099413D01*
X167313757Y-63145583D01*
X167313756Y-63145585D01*
X167313755Y-63145585D01*
X167307844Y-63165721D01*
X167307841Y-63165730D01*
X167301613Y-63194362D01*
X167301613Y-63194364D01*
X167296591Y-63229297D01*
X167294500Y-63258539D01*
X167294500Y-67658455D01*
X167274815Y-67725494D01*
X167258181Y-67746136D01*
X166403744Y-68600573D01*
X166381349Y-68617338D01*
X166375493Y-68621722D01*
X166352405Y-68634330D01*
X166292975Y-68649500D01*
X164469131Y-68649500D01*
X164447479Y-68647595D01*
X164442240Y-68646666D01*
X164427751Y-68644096D01*
X164427742Y-68644095D01*
X164396318Y-68641662D01*
X164376214Y-68638427D01*
X164351593Y-68632358D01*
X164332997Y-68626178D01*
X164312084Y-68617338D01*
X164296344Y-68609319D01*
X164265918Y-68590977D01*
X164252708Y-68581795D01*
X164218213Y-68554335D01*
X164207645Y-68544886D01*
X164169221Y-68506360D01*
X164156719Y-68491707D01*
X164154520Y-68488682D01*
X164153244Y-68486850D01*
X164063355Y-68396961D01*
X164063349Y-68396956D01*
X164063347Y-68396954D01*
X164063344Y-68396952D01*
X164063342Y-68396950D01*
X164063340Y-68396949D01*
X164063339Y-68396948D01*
X163986519Y-68357805D01*
X163986519Y-68357806D01*
X163967715Y-68348225D01*
X163950301Y-68339352D01*
X163950299Y-68339351D01*
X163950298Y-68339351D01*
X163950296Y-68339350D01*
X163856530Y-68324500D01*
X163856524Y-68324500D01*
X163393482Y-68324500D01*
X163393478Y-68324500D01*
X163328846Y-68334736D01*
X163328842Y-68334737D01*
X163312519Y-68337323D01*
X163299696Y-68339354D01*
X163186658Y-68396950D01*
X163186657Y-68396951D01*
X163186652Y-68396954D01*
X163183652Y-68399953D01*
X163183649Y-68399955D01*
X163096953Y-68486651D01*
X163080203Y-68519526D01*
X163080202Y-68519527D01*
X163039353Y-68599695D01*
X163039350Y-68599703D01*
X163024500Y-68693469D01*
X163024500Y-68693473D01*
X163024500Y-68693475D01*
X163024500Y-69306517D01*
X163031466Y-69350499D01*
X163039354Y-69400304D01*
X163096950Y-69513342D01*
X163096952Y-69513344D01*
X163096954Y-69513347D01*
X163186652Y-69603045D01*
X163186654Y-69603046D01*
X163186658Y-69603050D01*
X163299694Y-69660645D01*
X163299698Y-69660647D01*
X163393220Y-69675458D01*
X163393457Y-69675497D01*
X163393466Y-69675497D01*
X163393475Y-69675499D01*
X163393481Y-69675500D01*
X163856518Y-69675499D01*
X163950304Y-69660646D01*
X164063342Y-69603050D01*
X164138344Y-69528047D01*
X164140131Y-69526425D01*
X164141685Y-69524706D01*
X164153050Y-69513342D01*
X164153052Y-69513336D01*
X164153571Y-69512624D01*
X164161926Y-69502329D01*
X164184540Y-69477329D01*
X164193938Y-69467996D01*
X164200723Y-69461942D01*
X164231726Y-69434277D01*
X164243258Y-69425158D01*
X164274553Y-69403302D01*
X164288167Y-69395044D01*
X164302506Y-69387562D01*
X164325929Y-69378233D01*
X164385146Y-69361384D01*
X164410713Y-69356934D01*
X164425835Y-69355912D01*
X164448478Y-69352322D01*
X164450329Y-69352029D01*
X164469743Y-69350500D01*
X166546142Y-69350500D01*
X166546144Y-69350500D01*
X166635288Y-69326614D01*
X166664012Y-69310030D01*
X166715212Y-69280470D01*
X167753863Y-68241819D01*
X167815186Y-68208334D01*
X167841544Y-68205500D01*
X174362150Y-68205500D01*
X174362168Y-68205500D01*
X174368856Y-68205141D01*
X174436854Y-68221205D01*
X174485372Y-68271482D01*
X174499500Y-68328963D01*
X174499500Y-69858143D01*
X174499499Y-69858149D01*
X174499500Y-69858152D01*
X174494475Y-69893087D01*
X174490070Y-69908085D01*
X174452356Y-69966803D01*
X174452291Y-69966858D01*
X174452291Y-69966860D01*
X174452289Y-69966860D01*
X174450989Y-69967989D01*
X174396079Y-69995495D01*
X174388515Y-69997140D01*
X174362159Y-69999972D01*
X171500229Y-69999854D01*
X171499703Y-69999854D01*
X171499701Y-69999854D01*
X171499558Y-69999854D01*
X170000761Y-71499534D01*
X170000735Y-71499560D01*
X170000734Y-71499560D01*
X170002530Y-74357595D01*
X169998730Y-74384146D01*
X169997530Y-74392529D01*
X169993137Y-74407527D01*
X169955402Y-74466330D01*
X169955369Y-74466358D01*
X169954015Y-74467532D01*
X169899194Y-74495000D01*
X169895263Y-74495857D01*
X169891598Y-74496655D01*
X169865191Y-74499500D01*
X169669441Y-74499500D01*
X169634506Y-74494477D01*
X169623652Y-74491290D01*
X169564874Y-74453516D01*
X169535849Y-74389960D01*
X169545792Y-74320803D01*
X169548982Y-74313820D01*
X169574091Y-74277658D01*
X169598525Y-74253224D01*
X169598525Y-74253222D01*
X169598528Y-74253220D01*
X169659719Y-74133126D01*
X169663807Y-74107316D01*
X169675500Y-74033493D01*
X169675500Y-73516506D01*
X169674597Y-73510803D01*
X169661246Y-73426509D01*
X169661246Y-73426508D01*
X169659720Y-73416877D01*
X169659719Y-73416875D01*
X169659719Y-73416874D01*
X169598528Y-73296780D01*
X169598526Y-73296778D01*
X169598523Y-73296774D01*
X169503225Y-73201476D01*
X169503221Y-73201473D01*
X169503220Y-73201472D01*
X169383126Y-73140281D01*
X169383124Y-73140280D01*
X169383121Y-73140279D01*
X169383119Y-73140278D01*
X169383120Y-73140278D01*
X169283497Y-73124500D01*
X169283493Y-73124500D01*
X169283488Y-73124500D01*
X168716512Y-73124500D01*
X168716507Y-73124500D01*
X168716503Y-73124500D01*
X168616879Y-73140278D01*
X168608051Y-73144776D01*
X168594006Y-73150869D01*
X168585176Y-73154068D01*
X168576967Y-73155703D01*
X168552704Y-73165760D01*
X168550116Y-73166770D01*
X168550086Y-73166782D01*
X168251708Y-73283361D01*
X168238411Y-73287709D01*
X168160077Y-73308513D01*
X168140391Y-73312072D01*
X168065435Y-73319447D01*
X168065432Y-73319448D01*
X168063411Y-73320007D01*
X168030336Y-73324500D01*
X167965691Y-73324500D01*
X167927380Y-73334765D01*
X167907416Y-73340114D01*
X167907401Y-73340114D01*
X167851118Y-73355198D01*
X167851105Y-73355204D01*
X167762962Y-73406093D01*
X167759994Y-73407214D01*
X167758763Y-73408410D01*
X167725514Y-73420250D01*
X167619555Y-73441653D01*
X167549946Y-73435632D01*
X167494642Y-73392932D01*
X167471202Y-73327112D01*
X167483605Y-73265645D01*
X167490573Y-73251393D01*
X167500500Y-73183260D01*
X167500500Y-72816740D01*
X167490573Y-72748607D01*
X167464354Y-72694976D01*
X167453525Y-72661389D01*
X167451189Y-72647706D01*
X167459309Y-72578313D01*
X167460652Y-72576678D01*
X167503643Y-72524332D01*
X167506856Y-72522146D01*
X167557360Y-72502160D01*
X167557899Y-72502076D01*
X167557898Y-72502075D01*
X167583955Y-72497977D01*
X167587570Y-72495272D01*
X167598794Y-72491683D01*
X167693186Y-72466392D01*
X167807314Y-72400500D01*
X167900500Y-72307314D01*
X167966392Y-72193186D01*
X168000500Y-72065892D01*
X168000500Y-71934108D01*
X167966392Y-71806814D01*
X167963387Y-71801610D01*
X167947480Y-71774057D01*
X167900500Y-71692686D01*
X167807314Y-71599500D01*
X167737904Y-71559426D01*
X167693187Y-71533608D01*
X167629539Y-71516554D01*
X167565892Y-71499500D01*
X167565891Y-71499500D01*
X167434105Y-71499500D01*
X167433996Y-71499514D01*
X167426544Y-71501251D01*
X167414753Y-71503595D01*
X167407869Y-71503616D01*
X167216209Y-71542330D01*
X167207769Y-71544221D01*
X167206847Y-71544448D01*
X167199922Y-71546311D01*
X167195862Y-71547119D01*
X167192182Y-71546789D01*
X167171680Y-71549500D01*
X166091745Y-71549500D01*
X166091740Y-71549500D01*
X166091739Y-71549500D01*
X166033341Y-71558008D01*
X166023607Y-71559426D01*
X165918511Y-71610804D01*
X165835804Y-71693511D01*
X165784908Y-71797623D01*
X165784426Y-71798608D01*
X165774500Y-71866739D01*
X165774500Y-72233260D01*
X165784426Y-72301391D01*
X165835803Y-72406485D01*
X165854036Y-72424718D01*
X165875183Y-72452970D01*
X165882674Y-72466690D01*
X165897525Y-72534948D01*
X165897396Y-72536754D01*
X165878028Y-72594956D01*
X165873849Y-72601459D01*
X165857213Y-72622103D01*
X165835805Y-72643510D01*
X165835800Y-72643517D01*
X165784426Y-72748606D01*
X165784426Y-72748607D01*
X165784426Y-72748608D01*
X165774500Y-72816739D01*
X165774500Y-73183260D01*
X165784426Y-73251391D01*
X165835803Y-73356485D01*
X165854036Y-73374718D01*
X165875183Y-73402970D01*
X165882674Y-73416690D01*
X165897525Y-73484948D01*
X165897396Y-73486754D01*
X165878028Y-73544956D01*
X165873849Y-73551459D01*
X165857213Y-73572103D01*
X165835805Y-73593510D01*
X165835800Y-73593517D01*
X165784426Y-73698606D01*
X165784426Y-73698607D01*
X165784426Y-73698608D01*
X165774500Y-73766739D01*
X165774500Y-74133260D01*
X165783688Y-74196328D01*
X165784426Y-74201391D01*
X165784431Y-74201407D01*
X165784645Y-74201839D01*
X165828501Y-74291550D01*
X165828669Y-74291892D01*
X165834395Y-74305643D01*
X165843781Y-74332648D01*
X165847197Y-74402434D01*
X165812341Y-74462988D01*
X165755978Y-74493840D01*
X165747173Y-74495983D01*
X165717849Y-74499500D01*
X165285113Y-74499500D01*
X165285107Y-74499499D01*
X165285105Y-74499500D01*
X165250171Y-74494475D01*
X165237607Y-74490785D01*
X165178831Y-74453007D01*
X165149810Y-74389449D01*
X165157462Y-74325648D01*
X165157983Y-74324351D01*
X165161158Y-74316434D01*
X165161157Y-74316433D01*
X165167810Y-74299849D01*
X165171487Y-74291571D01*
X165215573Y-74201393D01*
X165225500Y-74133260D01*
X165225500Y-73766740D01*
X165215573Y-73698607D01*
X165165871Y-73596940D01*
X165164433Y-73593752D01*
X165164196Y-73593514D01*
X165081485Y-73510803D01*
X164976391Y-73459426D01*
X164908261Y-73449500D01*
X164908260Y-73449500D01*
X164908255Y-73449500D01*
X163816744Y-73449500D01*
X163816740Y-73449500D01*
X163816739Y-73449500D01*
X163774157Y-73455703D01*
X163748605Y-73459426D01*
X163705124Y-73480683D01*
X163678618Y-73490090D01*
X163651745Y-73496308D01*
X163623792Y-73499500D01*
X163460582Y-73499500D01*
X163445246Y-73498548D01*
X163438557Y-73497714D01*
X163425818Y-73496528D01*
X163424330Y-73496436D01*
X163423218Y-73496370D01*
X163423217Y-73496370D01*
X163415112Y-73497748D01*
X163394343Y-73499500D01*
X162945028Y-73499500D01*
X162939230Y-73499364D01*
X162931583Y-73499006D01*
X162907590Y-73494886D01*
X162869959Y-73495875D01*
X162865453Y-73495910D01*
X162865429Y-73495909D01*
X162785370Y-73496534D01*
X162749472Y-73491516D01*
X162744557Y-73490073D01*
X162685779Y-73452302D01*
X162676250Y-73441306D01*
X162659474Y-73416394D01*
X162650866Y-73399500D01*
X162598528Y-73296780D01*
X162598524Y-73296776D01*
X162598523Y-73296774D01*
X162503225Y-73201476D01*
X162503221Y-73201473D01*
X162503220Y-73201472D01*
X162383126Y-73140281D01*
X162383124Y-73140280D01*
X162383121Y-73140279D01*
X162383119Y-73140278D01*
X162383120Y-73140278D01*
X162283497Y-73124500D01*
X162283493Y-73124500D01*
X162283488Y-73124500D01*
X161716512Y-73124500D01*
X161716507Y-73124500D01*
X161716501Y-73124500D01*
X161616881Y-73140277D01*
X161616872Y-73140280D01*
X161554377Y-73172123D01*
X161554375Y-73172123D01*
X161554375Y-73172124D01*
X161525501Y-73181963D01*
X161520967Y-73183508D01*
X161505603Y-73186393D01*
X161436086Y-73179420D01*
X161436083Y-73179419D01*
X161436082Y-73179418D01*
X161426440Y-73175505D01*
X161385392Y-73148289D01*
X159976616Y-71739513D01*
X159976614Y-71739511D01*
X159973842Y-71737911D01*
X159896948Y-71693514D01*
X159896948Y-71693515D01*
X159873882Y-71680198D01*
X159807800Y-71662492D01*
X159807797Y-71662492D01*
X159794788Y-71659006D01*
X159787872Y-71657153D01*
X159787870Y-71657152D01*
X159759310Y-71649500D01*
X159759309Y-71649500D01*
X159759308Y-71649500D01*
X159055796Y-71649500D01*
X159055795Y-71649499D01*
X159055795Y-71649500D01*
X159020860Y-71644477D01*
X158995618Y-71637065D01*
X158942873Y-71605769D01*
X158740253Y-71403149D01*
X158706768Y-71341826D01*
X158710293Y-71276269D01*
X158754453Y-71143752D01*
X158757247Y-71136198D01*
X158833825Y-70948286D01*
X158844295Y-70923030D01*
X158847894Y-70909704D01*
X158849773Y-70904588D01*
X158851228Y-70902622D01*
X158855695Y-70891022D01*
X158859719Y-70883126D01*
X158859720Y-70883121D01*
X158875500Y-70783493D01*
X158875500Y-70216506D01*
X158872838Y-70199698D01*
X158861246Y-70126509D01*
X158861246Y-70126508D01*
X158859720Y-70116878D01*
X158859719Y-70116876D01*
X158859719Y-70116874D01*
X158855922Y-70109423D01*
X158847762Y-70089169D01*
X158843405Y-70074821D01*
X158834735Y-70053906D01*
X158833827Y-70051651D01*
X158716629Y-69751685D01*
X158712299Y-69738450D01*
X158712181Y-69738007D01*
X158709182Y-69689214D01*
X158724100Y-69581046D01*
X158724562Y-69569392D01*
X158725500Y-69565892D01*
X158725500Y-69545735D01*
X158725684Y-69541095D01*
X158725682Y-69541072D01*
X158725677Y-69540481D01*
X158725500Y-69534333D01*
X158725500Y-69461942D01*
X158725666Y-69459133D01*
X158725500Y-69454880D01*
X158725500Y-69434108D01*
X158725500Y-69434105D01*
X158725093Y-69431015D01*
X158724125Y-69419644D01*
X158724097Y-69418940D01*
X158722837Y-69409800D01*
X158710095Y-69317404D01*
X158715291Y-69261270D01*
X158754461Y-69143727D01*
X158757263Y-69136154D01*
X158761151Y-69126614D01*
X158832599Y-68951293D01*
X158832600Y-68951284D01*
X158833149Y-68949940D01*
X158833263Y-68949639D01*
X158843711Y-68924437D01*
X158851742Y-68900891D01*
X158852476Y-68898957D01*
X158853035Y-68898218D01*
X158857946Y-68886605D01*
X158859332Y-68883885D01*
X158859719Y-68883126D01*
X158861720Y-68870495D01*
X158875500Y-68783493D01*
X158875500Y-68260749D01*
X158877812Y-68242576D01*
X158877698Y-68239240D01*
X158875500Y-68222725D01*
X158875500Y-68216506D01*
X158859719Y-68116874D01*
X158858906Y-68114372D01*
X158857702Y-68107268D01*
X158859539Y-68106671D01*
X158852944Y-68079195D01*
X158852243Y-68075057D01*
X158852597Y-68072061D01*
X158850500Y-68054336D01*
X158850500Y-67686469D01*
X158850680Y-67679788D01*
X158851831Y-67658455D01*
X158854424Y-67610407D01*
X158851783Y-67564695D01*
X158851778Y-67564671D01*
X158851391Y-67561263D01*
X158851583Y-67561241D01*
X158851583Y-67561237D01*
X158851655Y-67561232D01*
X158851733Y-67561223D01*
X158850500Y-67546667D01*
X158850500Y-66432295D01*
X158850500Y-66430249D01*
X158850499Y-66430247D01*
X158838868Y-66371770D01*
X158838867Y-66371769D01*
X158794552Y-66305447D01*
X158745589Y-66272731D01*
X158738385Y-66267917D01*
X158737040Y-66266308D01*
X158735061Y-66265617D01*
X158732403Y-66263362D01*
X158728230Y-66261132D01*
X158728229Y-66261131D01*
X158669752Y-66249500D01*
X158669750Y-66249500D01*
X158392330Y-66249500D01*
X158392325Y-66249499D01*
X158392323Y-66249500D01*
X158357389Y-66244475D01*
X158342390Y-66240070D01*
X158283644Y-66202327D01*
X158283615Y-66202293D01*
X158283614Y-66202293D01*
X158283613Y-66202291D01*
X158282457Y-66200958D01*
X158254977Y-66146083D01*
X158253332Y-66138521D01*
X158250500Y-66112168D01*
X158250500Y-65830247D01*
X158241732Y-65786172D01*
X158239349Y-65761979D01*
X158239349Y-65738020D01*
X158241732Y-65713827D01*
X158250500Y-65669751D01*
X158250500Y-65330247D01*
X158241732Y-65286172D01*
X158239349Y-65261979D01*
X158239349Y-65238020D01*
X158241732Y-65213827D01*
X158242229Y-65211332D01*
X158248028Y-65182177D01*
X158250500Y-65169751D01*
X158250500Y-64892329D01*
X158252615Y-64877622D01*
X158255523Y-64857393D01*
X158259927Y-64842395D01*
X158297672Y-64783644D01*
X158297700Y-64783619D01*
X158297699Y-64783619D01*
X158299041Y-64782456D01*
X158353920Y-64754977D01*
X158361479Y-64753333D01*
X158387832Y-64750500D01*
X158669751Y-64750500D01*
X158713828Y-64741732D01*
X158738021Y-64739349D01*
X158761979Y-64739349D01*
X158786172Y-64741732D01*
X158830248Y-64750500D01*
X159169750Y-64750500D01*
X159169751Y-64750500D01*
X159213828Y-64741732D01*
X159238021Y-64739349D01*
X159261979Y-64739349D01*
X159286172Y-64741732D01*
X159330248Y-64750500D01*
X159330249Y-64750500D01*
X159607671Y-64750500D01*
X159642606Y-64755523D01*
X159657604Y-64759927D01*
X159716355Y-64797672D01*
X159716379Y-64797700D01*
X159716382Y-64797702D01*
X159716383Y-64797704D01*
X159717542Y-64799041D01*
X159745018Y-64853902D01*
X159746663Y-64861460D01*
X159749500Y-64887831D01*
X159749500Y-65169753D01*
X159750801Y-65176294D01*
X159750802Y-65176294D01*
X159759030Y-65217661D01*
X159761170Y-65234106D01*
X159761946Y-65246505D01*
X159759805Y-65278441D01*
X159749500Y-65330246D01*
X159749171Y-65333591D01*
X159748509Y-65335230D01*
X159748311Y-65336226D01*
X159748122Y-65336188D01*
X159723010Y-65398378D01*
X159665976Y-65438737D01*
X159596176Y-65441854D01*
X159535771Y-65406740D01*
X159512956Y-65372910D01*
X159509415Y-65365150D01*
X159507159Y-65360205D01*
X159506189Y-65358312D01*
X159505246Y-65356662D01*
X159496908Y-65342068D01*
X159496903Y-65342059D01*
X159428521Y-65234106D01*
X159418362Y-65218068D01*
X159413909Y-65211338D01*
X159413387Y-65210581D01*
X159413316Y-65210499D01*
X159402657Y-65195498D01*
X159400502Y-65192689D01*
X159400500Y-65192686D01*
X159307314Y-65099500D01*
X159231622Y-65055799D01*
X159231622Y-65055798D01*
X159231618Y-65055797D01*
X159216261Y-65046930D01*
X159193190Y-65033609D01*
X159193187Y-65033608D01*
X159129539Y-65016554D01*
X159065892Y-64999500D01*
X159065891Y-64999500D01*
X158934108Y-64999500D01*
X158806808Y-65033609D01*
X158806806Y-65033610D01*
X158692696Y-65099493D01*
X158692682Y-65099502D01*
X158692677Y-65099506D01*
X158599506Y-65192677D01*
X158599502Y-65192682D01*
X158599493Y-65192696D01*
X158533607Y-65306810D01*
X158517977Y-65365149D01*
X158517977Y-65365150D01*
X158499500Y-65434108D01*
X158499500Y-65565893D01*
X158508504Y-65599499D01*
X158508505Y-65599499D01*
X158508505Y-65599500D01*
X158533608Y-65693187D01*
X158559356Y-65737783D01*
X158599500Y-65807314D01*
X158692686Y-65900500D01*
X158692689Y-65900503D01*
X158699131Y-65905446D01*
X158699090Y-65905499D01*
X158707222Y-65911233D01*
X158710209Y-65913773D01*
X158773141Y-65957426D01*
X158777134Y-65960196D01*
X158786441Y-65966285D01*
X158787507Y-65966942D01*
X158787528Y-65966954D01*
X158787531Y-65966956D01*
X158797002Y-65972451D01*
X158861850Y-66007782D01*
X158861863Y-66007789D01*
X158873098Y-66013471D01*
X158874389Y-66014075D01*
X158874398Y-66014079D01*
X158874409Y-66014084D01*
X158885797Y-66018997D01*
X158885806Y-66019000D01*
X158885821Y-66019007D01*
X158979015Y-66055906D01*
X158982087Y-66057172D01*
X159065309Y-66092769D01*
X159086034Y-66104078D01*
X159094990Y-66110138D01*
X159139482Y-66164010D01*
X159149500Y-66212837D01*
X159149500Y-67169752D01*
X159161131Y-67228229D01*
X159161132Y-67228230D01*
X159161132Y-67228231D01*
X159161134Y-67228233D01*
X159205447Y-67294552D01*
X159271765Y-67338864D01*
X159271767Y-67338866D01*
X159271770Y-67338868D01*
X159322612Y-67348981D01*
X159325337Y-67349703D01*
X159330249Y-67350500D01*
X159669749Y-67350500D01*
X159669750Y-67350500D01*
X159685831Y-67347300D01*
X159701488Y-67344186D01*
X159715685Y-67341362D01*
X159741351Y-67338989D01*
X159748201Y-67339070D01*
X159764678Y-67338327D01*
X159771198Y-67338846D01*
X159788930Y-67341561D01*
X159843284Y-67353967D01*
X159870609Y-67363684D01*
X159873225Y-67364976D01*
X159884244Y-67371079D01*
X159893133Y-67374811D01*
X159896551Y-67376500D01*
X159902515Y-67381994D01*
X159929310Y-67399992D01*
X161063071Y-68533753D01*
X161074760Y-68547263D01*
X161091887Y-68570211D01*
X161154972Y-68639407D01*
X161161916Y-68647729D01*
X161231586Y-68739062D01*
X161238059Y-68748406D01*
X161285260Y-68823706D01*
X161286552Y-68825766D01*
X161292879Y-68837146D01*
X161331512Y-68916135D01*
X161337249Y-68929909D01*
X161354016Y-68978155D01*
X161358439Y-68994336D01*
X161365963Y-69031627D01*
X161368393Y-69053994D01*
X161369228Y-69101990D01*
X161369228Y-69101994D01*
X161372251Y-69117647D01*
X161374500Y-69141155D01*
X161374500Y-69306517D01*
X161381466Y-69350499D01*
X161389354Y-69400304D01*
X161403769Y-69428595D01*
X161407115Y-69440747D01*
X161407109Y-69441072D01*
X161407428Y-69441906D01*
X161409511Y-69449768D01*
X161409516Y-69449782D01*
X161506348Y-69647513D01*
X161509191Y-69653100D01*
X161509517Y-69653719D01*
X161512554Y-69659261D01*
X161544366Y-69715251D01*
X161546150Y-69718503D01*
X161558253Y-69741371D01*
X161572214Y-69809832D01*
X161559213Y-69855530D01*
X161545008Y-69883497D01*
X161542864Y-69887531D01*
X161480232Y-70000343D01*
X161477020Y-70006360D01*
X161476672Y-70007038D01*
X161473524Y-70013452D01*
X161407852Y-70153358D01*
X161401480Y-70172703D01*
X161394189Y-70190204D01*
X161389352Y-70199696D01*
X161389351Y-70199699D01*
X161374500Y-70293469D01*
X161374500Y-70906522D01*
X161374868Y-70908842D01*
X161374869Y-70908863D01*
X161374871Y-70908863D01*
X161389352Y-71000299D01*
X161389352Y-71000300D01*
X161389353Y-71000303D01*
X161389354Y-71000304D01*
X161446950Y-71113342D01*
X161446952Y-71113344D01*
X161446954Y-71113347D01*
X161536652Y-71203045D01*
X161536654Y-71203046D01*
X161536658Y-71203050D01*
X161649694Y-71260645D01*
X161649698Y-71260647D01*
X161743220Y-71275458D01*
X161743457Y-71275497D01*
X161743466Y-71275497D01*
X161743475Y-71275499D01*
X161743481Y-71275500D01*
X162206518Y-71275499D01*
X162300304Y-71260646D01*
X162413342Y-71203050D01*
X162503050Y-71113342D01*
X162560646Y-71000304D01*
X162560646Y-71000302D01*
X162560647Y-71000301D01*
X162560648Y-71000294D01*
X162561785Y-70995560D01*
X162561785Y-70995558D01*
X162561789Y-70995539D01*
X162562173Y-70990668D01*
X162575111Y-70908979D01*
X162575437Y-70907154D01*
X162575499Y-70906523D01*
X162575499Y-70906522D01*
X162575500Y-70906519D01*
X162575499Y-70293482D01*
X162560646Y-70199696D01*
X162551946Y-70182623D01*
X162542569Y-70158090D01*
X162540484Y-70150221D01*
X162443645Y-69952475D01*
X162440782Y-69946850D01*
X162440447Y-69946216D01*
X162437427Y-69940706D01*
X162405607Y-69884700D01*
X162403830Y-69881461D01*
X162391742Y-69858620D01*
X162377782Y-69790159D01*
X162390782Y-69744469D01*
X162405004Y-69716469D01*
X162407112Y-69712504D01*
X162409694Y-69707853D01*
X162469777Y-69599636D01*
X162473027Y-69593543D01*
X162473389Y-69592836D01*
X162476497Y-69586499D01*
X162542145Y-69446644D01*
X162548519Y-69427294D01*
X162555801Y-69409811D01*
X162560646Y-69400304D01*
X162560646Y-69400302D01*
X162560647Y-69400301D01*
X162560647Y-69400295D01*
X162560966Y-69399671D01*
X162561785Y-69395556D01*
X162561789Y-69395536D01*
X162562173Y-69390668D01*
X162575111Y-69308979D01*
X162575437Y-69307154D01*
X162575499Y-69306523D01*
X162575500Y-69306519D01*
X162575499Y-68693482D01*
X162560646Y-68599696D01*
X162503050Y-68486658D01*
X162503046Y-68486654D01*
X162503045Y-68486652D01*
X162413347Y-68396954D01*
X162413344Y-68396952D01*
X162413342Y-68396950D01*
X162413340Y-68396949D01*
X162413339Y-68396948D01*
X162336519Y-68357805D01*
X162336519Y-68357806D01*
X162317715Y-68348225D01*
X162300301Y-68339352D01*
X162300299Y-68339351D01*
X162300298Y-68339351D01*
X162300296Y-68339350D01*
X162206530Y-68324500D01*
X162206524Y-68324500D01*
X162206519Y-68324500D01*
X162154859Y-68324500D01*
X162148974Y-68324360D01*
X162141760Y-68324017D01*
X162139662Y-68323587D01*
X162099556Y-68319403D01*
X162037184Y-68319048D01*
X162034577Y-68318925D01*
X162031833Y-68317975D01*
X162007746Y-68314671D01*
X161941385Y-68296519D01*
X161917989Y-68287491D01*
X161810406Y-68232899D01*
X161793482Y-68222529D01*
X161660153Y-68125353D01*
X161654147Y-68117540D01*
X161645496Y-68112815D01*
X161633203Y-68090295D01*
X161617570Y-68069959D01*
X161616741Y-68060138D01*
X161612019Y-68051487D01*
X161613852Y-68025898D01*
X161611696Y-68000337D01*
X161616308Y-67991627D01*
X161617013Y-67981796D01*
X161632390Y-67961259D01*
X161644395Y-67938591D01*
X161654099Y-67932267D01*
X161658891Y-67925868D01*
X161689871Y-67908958D01*
X161691601Y-67908313D01*
X161734919Y-67900500D01*
X161765890Y-67900500D01*
X161765892Y-67900500D01*
X161893186Y-67866392D01*
X162007314Y-67800500D01*
X162100500Y-67707314D01*
X162100505Y-67707305D01*
X162100875Y-67706824D01*
X162106385Y-67699621D01*
X162108831Y-67697450D01*
X162188925Y-67591728D01*
X162189033Y-67591588D01*
X162189044Y-67591579D01*
X162189995Y-67590347D01*
X162193472Y-67585920D01*
X162289560Y-67463562D01*
X162297196Y-67454731D01*
X162440310Y-67304178D01*
X162446268Y-67294881D01*
X162462970Y-67274129D01*
X163160489Y-66576614D01*
X163219799Y-66473887D01*
X163221881Y-66466114D01*
X163226047Y-66450571D01*
X163228437Y-66441652D01*
X163231492Y-66430251D01*
X163242687Y-66388466D01*
X163250500Y-66359309D01*
X163250500Y-63533179D01*
X163250615Y-63527832D01*
X163251093Y-63516753D01*
X163255722Y-63496202D01*
X163260962Y-63288102D01*
X163261010Y-63287001D01*
X163261117Y-63286684D01*
X163261776Y-63277594D01*
X163264060Y-63258539D01*
X163280749Y-63119260D01*
X163281030Y-63117086D01*
X163284295Y-63093400D01*
X163312949Y-63029677D01*
X163319452Y-63022652D01*
X163387682Y-62954422D01*
X163415937Y-62933272D01*
X163417172Y-62932598D01*
X163426946Y-62927261D01*
X163439025Y-62920666D01*
X163498448Y-62905500D01*
X164098876Y-62905500D01*
X164106742Y-62903114D01*
X164109568Y-62902552D01*
X164141258Y-62896249D01*
X164141462Y-62896208D01*
X164153229Y-62893868D01*
X164153229Y-62893867D01*
X164153230Y-62893867D01*
X164153231Y-62893867D01*
X164153231Y-62893866D01*
X164158376Y-62892843D01*
X164168515Y-62883654D01*
X164219552Y-62849552D01*
X164263867Y-62783231D01*
X164263867Y-62783229D01*
X164263868Y-62783229D01*
X164266030Y-62772355D01*
X164266166Y-62772090D01*
X164266249Y-62771256D01*
X164266254Y-62771234D01*
X164275072Y-62726896D01*
X164275500Y-62724931D01*
X164275500Y-62087295D01*
X164275500Y-62085249D01*
X164275499Y-62085247D01*
X164263868Y-62026770D01*
X164263867Y-62026769D01*
X164242726Y-61995130D01*
X164238609Y-61988968D01*
X164219552Y-61960447D01*
X164175163Y-61930787D01*
X164163385Y-61922917D01*
X164160557Y-61920047D01*
X164153230Y-61916132D01*
X164153229Y-61916131D01*
X164094752Y-61904500D01*
X164094750Y-61904500D01*
X162505249Y-61904500D01*
X162505247Y-61904500D01*
X162446770Y-61916131D01*
X162446769Y-61916131D01*
X162446768Y-61916132D01*
X162439419Y-61920059D01*
X162436614Y-61922916D01*
X162380448Y-61960445D01*
X162380442Y-61960450D01*
X162379353Y-61961539D01*
X162379305Y-61961641D01*
X162377803Y-61963089D01*
X162376134Y-61964759D01*
X162376104Y-61964729D01*
X162366582Y-61973915D01*
X162355160Y-61983460D01*
X162349640Y-61985862D01*
X162339651Y-61992031D01*
X162328346Y-61995130D01*
X162291095Y-62011344D01*
X162277342Y-62009114D01*
X162272269Y-62010506D01*
X162257629Y-62005919D01*
X162222126Y-62000165D01*
X162212695Y-61991842D01*
X162205594Y-61989618D01*
X162192741Y-61974233D01*
X162171318Y-61955329D01*
X162170170Y-61953543D01*
X162167309Y-61943793D01*
X162160797Y-61935999D01*
X162157643Y-61910864D01*
X162150500Y-61886526D01*
X162150500Y-61714373D01*
X162155522Y-61679441D01*
X162159078Y-61667330D01*
X162162934Y-61654195D01*
X162194227Y-61601454D01*
X162198007Y-61597674D01*
X162226247Y-61576533D01*
X162239974Y-61569037D01*
X162257389Y-61565248D01*
X162273035Y-61556704D01*
X162308230Y-61554184D01*
X162310050Y-61554314D01*
X162368242Y-61573681D01*
X162406372Y-61598185D01*
X162415059Y-61602679D01*
X162436612Y-61617080D01*
X162441358Y-61620975D01*
X162446770Y-61623868D01*
X162497612Y-61633981D01*
X162500337Y-61634703D01*
X162505249Y-61635500D01*
X164094750Y-61635500D01*
X164098876Y-61635500D01*
X164106742Y-61633114D01*
X164109568Y-61632552D01*
X164141258Y-61626249D01*
X164147354Y-61625648D01*
X164147386Y-61625639D01*
X164158311Y-61622902D01*
X164168515Y-61613654D01*
X164219552Y-61579552D01*
X164263867Y-61513231D01*
X164263867Y-61513229D01*
X164263868Y-61513229D01*
X164266030Y-61502355D01*
X164266166Y-61502090D01*
X164266249Y-61501256D01*
X164275034Y-61457091D01*
X164275072Y-61456896D01*
X164275500Y-61454931D01*
X164275500Y-60817295D01*
X164275500Y-60815249D01*
X164275499Y-60815247D01*
X164263868Y-60756770D01*
X164263867Y-60756769D01*
X164246973Y-60731486D01*
X164234320Y-60712549D01*
X164219552Y-60690447D01*
X164183146Y-60666121D01*
X164163385Y-60652917D01*
X164160557Y-60650047D01*
X164153230Y-60646132D01*
X164153229Y-60646131D01*
X164094752Y-60634500D01*
X164094750Y-60634500D01*
X162505249Y-60634500D01*
X162505247Y-60634500D01*
X162446770Y-60646131D01*
X162446769Y-60646131D01*
X162446768Y-60646132D01*
X162439419Y-60650059D01*
X162436614Y-60652916D01*
X162380446Y-60690446D01*
X162364347Y-60714542D01*
X162356181Y-60725421D01*
X162355003Y-60726823D01*
X162350749Y-60729648D01*
X162340573Y-60740624D01*
X162340737Y-60740820D01*
X162340227Y-60741246D01*
X162340117Y-60741115D01*
X162337626Y-60743803D01*
X162330658Y-60749389D01*
X162305401Y-60759775D01*
X162296806Y-60765486D01*
X162291312Y-60765569D01*
X162266039Y-60775963D01*
X162261964Y-60776323D01*
X162221171Y-60779247D01*
X162215702Y-60780644D01*
X162185020Y-60784500D01*
X162118856Y-60784500D01*
X162038938Y-60805913D01*
X162038938Y-60805914D01*
X162036113Y-60806670D01*
X162029706Y-60808387D01*
X162029703Y-60808389D01*
X161949792Y-60854525D01*
X161874785Y-60929532D01*
X161862149Y-60938991D01*
X161846532Y-60950682D01*
X161836608Y-60956101D01*
X161768335Y-60970953D01*
X161702870Y-60946537D01*
X161660999Y-60890603D01*
X161660997Y-60890599D01*
X161658313Y-60883401D01*
X161650500Y-60840081D01*
X161650500Y-60414371D01*
X161655522Y-60379438D01*
X161659144Y-60367103D01*
X161659901Y-60363619D01*
X161693379Y-60302302D01*
X161731263Y-60264418D01*
X161759508Y-60243275D01*
X161782600Y-60230667D01*
X161842025Y-60215500D01*
X162183297Y-60215500D01*
X162198955Y-60216493D01*
X162232831Y-60220805D01*
X162232835Y-60220805D01*
X162232842Y-60220806D01*
X162257196Y-60221499D01*
X162284253Y-60230288D01*
X162312108Y-60236085D01*
X162320042Y-60241913D01*
X162323646Y-60243084D01*
X162340546Y-60256975D01*
X162345312Y-60261656D01*
X162361518Y-60281224D01*
X162369590Y-60293304D01*
X162380445Y-60309550D01*
X162380448Y-60309553D01*
X162436613Y-60347081D01*
X162441358Y-60350975D01*
X162446770Y-60353868D01*
X162497612Y-60363981D01*
X162500337Y-60364703D01*
X162505249Y-60365500D01*
X164094750Y-60365500D01*
X164098876Y-60365500D01*
X164106742Y-60363114D01*
X164109568Y-60362552D01*
X164141258Y-60356249D01*
X164147354Y-60355648D01*
X164147386Y-60355639D01*
X164158311Y-60352902D01*
X164168517Y-60343653D01*
X164219552Y-60309552D01*
X164263867Y-60243231D01*
X164263867Y-60243229D01*
X164263868Y-60243229D01*
X164266030Y-60232355D01*
X164266166Y-60232090D01*
X164266249Y-60231256D01*
X164266367Y-60230667D01*
X164275072Y-60186896D01*
X164275500Y-60184931D01*
X164275500Y-59547295D01*
X164275500Y-59545249D01*
X164275499Y-59545247D01*
X164263868Y-59486770D01*
X164263867Y-59486769D01*
X164245574Y-59459392D01*
X164238480Y-59448775D01*
X164219552Y-59420447D01*
X164183146Y-59396121D01*
X164163385Y-59382917D01*
X164160557Y-59380047D01*
X164153230Y-59376132D01*
X164153229Y-59376131D01*
X164094752Y-59364500D01*
X164094750Y-59364500D01*
X162505249Y-59364500D01*
X162505247Y-59364500D01*
X162446770Y-59376131D01*
X162446769Y-59376131D01*
X162446768Y-59376132D01*
X162439419Y-59380059D01*
X162436614Y-59382916D01*
X162380445Y-59420447D01*
X162380444Y-59420448D01*
X162364329Y-59444567D01*
X162364325Y-59444570D01*
X162364324Y-59444576D01*
X162340736Y-59470831D01*
X162332385Y-59477809D01*
X162268320Y-59505690D01*
X162261745Y-59506337D01*
X162223287Y-59509094D01*
X162223274Y-59509096D01*
X162205379Y-59511996D01*
X162199783Y-59512903D01*
X162179949Y-59514500D01*
X161612648Y-59514500D01*
X161611527Y-59514331D01*
X161610962Y-59514489D01*
X161593371Y-59512992D01*
X161567744Y-59508959D01*
X161552263Y-59501638D01*
X161551560Y-59501422D01*
X161550949Y-59501017D01*
X161504580Y-59479092D01*
X161495251Y-59464143D01*
X161493301Y-59462852D01*
X161490557Y-59456621D01*
X161467590Y-59419817D01*
X161467787Y-59404911D01*
X161465143Y-59398907D01*
X161468116Y-59380054D01*
X161468514Y-59349970D01*
X161469603Y-59346434D01*
X161474771Y-59337852D01*
X161476027Y-59329890D01*
X161486960Y-59317613D01*
X161500427Y-59295252D01*
X161801257Y-58994423D01*
X161829507Y-58973275D01*
X161852599Y-58960667D01*
X161912024Y-58945500D01*
X162183297Y-58945500D01*
X162193743Y-58945941D01*
X162196356Y-58946161D01*
X162232842Y-58950806D01*
X162260662Y-58951598D01*
X162264111Y-58951890D01*
X162293580Y-58963318D01*
X162323646Y-58973084D01*
X162328006Y-58976668D01*
X162329254Y-58977152D01*
X162330237Y-58978502D01*
X162340546Y-58986975D01*
X162345312Y-58991656D01*
X162361518Y-59011224D01*
X162366846Y-59019197D01*
X162380445Y-59039550D01*
X162380448Y-59039553D01*
X162436613Y-59077081D01*
X162441358Y-59080975D01*
X162446770Y-59083868D01*
X162497612Y-59093981D01*
X162500337Y-59094703D01*
X162505249Y-59095500D01*
X164094750Y-59095500D01*
X164098876Y-59095500D01*
X164106742Y-59093114D01*
X164109568Y-59092552D01*
X164141258Y-59086249D01*
X164147354Y-59085648D01*
X164147386Y-59085639D01*
X164158311Y-59082902D01*
X164168515Y-59073654D01*
X164219552Y-59039552D01*
X164263867Y-58973231D01*
X164263867Y-58973229D01*
X164263868Y-58973229D01*
X164266030Y-58962355D01*
X164266166Y-58962090D01*
X164266249Y-58961256D01*
X164266367Y-58960667D01*
X164275072Y-58916896D01*
X164275500Y-58914931D01*
X164275500Y-58277295D01*
X164275500Y-58275249D01*
X164275499Y-58275247D01*
X164263868Y-58216770D01*
X164263867Y-58216769D01*
X164245574Y-58189392D01*
X164236092Y-58175201D01*
X164219552Y-58150447D01*
X164164594Y-58113725D01*
X164163385Y-58112917D01*
X164158641Y-58109024D01*
X164153230Y-58106132D01*
X164153229Y-58106131D01*
X164094752Y-58094500D01*
X164094750Y-58094500D01*
X163667333Y-58094500D01*
X163645881Y-58092630D01*
X163636550Y-58090991D01*
X163633720Y-58089590D01*
X163632392Y-58089475D01*
X163628020Y-58088191D01*
X163628303Y-58087224D01*
X163612190Y-58083111D01*
X163611935Y-58083797D01*
X163609087Y-58082734D01*
X163608240Y-58082103D01*
X163606499Y-58081659D01*
X163603792Y-58080423D01*
X163604348Y-58079204D01*
X163587755Y-58066848D01*
X163573927Y-58060006D01*
X163570182Y-58053761D01*
X163553569Y-58041389D01*
X163553485Y-58041278D01*
X163534157Y-57996021D01*
X163532124Y-57996541D01*
X163529357Y-57985708D01*
X163525500Y-57955021D01*
X163525500Y-57932306D01*
X163527642Y-57909357D01*
X163536508Y-57862278D01*
X163547810Y-57829073D01*
X163577447Y-57770724D01*
X163604990Y-57716497D01*
X163607118Y-57712493D01*
X163669777Y-57599636D01*
X163673027Y-57593543D01*
X163673389Y-57592836D01*
X163676497Y-57586499D01*
X163742145Y-57446644D01*
X163748519Y-57427294D01*
X163755802Y-57409808D01*
X163760646Y-57400304D01*
X163760646Y-57400302D01*
X163760647Y-57400301D01*
X163760647Y-57400295D01*
X163760966Y-57399671D01*
X163761786Y-57395552D01*
X163761789Y-57395536D01*
X163762173Y-57390668D01*
X163771688Y-57330590D01*
X163772209Y-57327299D01*
X163775500Y-57306519D01*
X163775499Y-56693482D01*
X163760646Y-56599696D01*
X163703050Y-56486658D01*
X163703046Y-56486654D01*
X163703045Y-56486652D01*
X163613347Y-56396954D01*
X163613344Y-56396952D01*
X163613342Y-56396950D01*
X163613340Y-56396949D01*
X163613339Y-56396948D01*
X163536519Y-56357805D01*
X163536519Y-56357806D01*
X163535258Y-56357163D01*
X163500301Y-56339352D01*
X163500299Y-56339351D01*
X163500298Y-56339351D01*
X163500296Y-56339350D01*
X163406530Y-56324500D01*
X163406524Y-56324500D01*
X162943482Y-56324500D01*
X162943478Y-56324500D01*
X162878846Y-56334736D01*
X162878842Y-56334737D01*
X162862519Y-56337323D01*
X162849696Y-56339354D01*
X162736658Y-56396950D01*
X162736657Y-56396951D01*
X162736652Y-56396954D01*
X162733652Y-56399953D01*
X162733649Y-56399955D01*
X162646955Y-56486649D01*
X162646946Y-56486664D01*
X162589353Y-56599695D01*
X162589350Y-56599703D01*
X162574500Y-56693469D01*
X162574500Y-56693475D01*
X162574500Y-57306517D01*
X162574627Y-57307316D01*
X162589354Y-57400304D01*
X162604046Y-57429139D01*
X162607768Y-57443189D01*
X162607783Y-57443249D01*
X162609511Y-57449768D01*
X162609516Y-57449782D01*
X162706348Y-57647513D01*
X162709191Y-57653100D01*
X162709517Y-57653719D01*
X162712554Y-57659261D01*
X162744366Y-57715251D01*
X162746149Y-57718503D01*
X162802806Y-57825552D01*
X162810581Y-57843557D01*
X162811950Y-57847574D01*
X162817659Y-57872499D01*
X162819765Y-57889696D01*
X162820813Y-57894741D01*
X162820355Y-57894835D01*
X162824500Y-57923659D01*
X162824500Y-57952670D01*
X162819475Y-57987614D01*
X162815070Y-58002612D01*
X162805429Y-58017616D01*
X162804815Y-58019709D01*
X162803168Y-58021136D01*
X162777327Y-58061355D01*
X162775958Y-58062542D01*
X162721097Y-58090018D01*
X162713539Y-58091663D01*
X162687168Y-58094500D01*
X162505247Y-58094500D01*
X162446770Y-58106131D01*
X162446769Y-58106131D01*
X162446768Y-58106132D01*
X162445036Y-58107057D01*
X162444031Y-58107960D01*
X162380446Y-58150448D01*
X162355715Y-58187460D01*
X162344187Y-58197838D01*
X162342847Y-58198480D01*
X162340736Y-58200831D01*
X162332385Y-58207809D01*
X162268320Y-58235690D01*
X162261745Y-58236337D01*
X162223287Y-58239094D01*
X162223274Y-58239096D01*
X162205379Y-58241996D01*
X162199783Y-58242903D01*
X162179949Y-58244500D01*
X161658856Y-58244500D01*
X161576466Y-58266575D01*
X161576451Y-58266580D01*
X161569712Y-58268386D01*
X161569711Y-58268386D01*
X161569709Y-58268387D01*
X161569706Y-58268388D01*
X161566906Y-58270004D01*
X161566902Y-58270006D01*
X161489804Y-58314519D01*
X161489786Y-58314531D01*
X160226889Y-59577428D01*
X160212327Y-59589895D01*
X160193982Y-59603289D01*
X160128231Y-59626922D01*
X160060785Y-59611615D01*
X160049002Y-59605089D01*
X160021399Y-59584296D01*
X158671616Y-58234513D01*
X158671614Y-58234511D01*
X158625365Y-58207809D01*
X158624120Y-58207090D01*
X158624116Y-58207088D01*
X158620250Y-58204856D01*
X158568888Y-58175201D01*
X158556780Y-58171957D01*
X158545382Y-58168903D01*
X158545378Y-58168901D01*
X158476503Y-58150447D01*
X158476502Y-58150446D01*
X158454309Y-58144500D01*
X158454308Y-58144500D01*
X158245263Y-58144500D01*
X158213694Y-58140414D01*
X158213422Y-58140342D01*
X158176249Y-58130381D01*
X158176183Y-58130538D01*
X158131158Y-58118685D01*
X158131062Y-58118627D01*
X158130634Y-58118546D01*
X158095097Y-58109024D01*
X158040892Y-58094500D01*
X158040891Y-58094500D01*
X157909101Y-58094500D01*
X157908664Y-58094557D01*
X157908665Y-58094558D01*
X157899510Y-58095776D01*
X157896243Y-58095583D01*
X157764908Y-58113694D01*
X157764683Y-58113725D01*
X157764667Y-58113722D01*
X157763123Y-58113922D01*
X157676340Y-58124357D01*
X157637348Y-58122862D01*
X157553229Y-58106131D01*
X157494752Y-58094500D01*
X157494751Y-58094500D01*
X155905249Y-58094500D01*
X155905247Y-58094500D01*
X155846770Y-58106131D01*
X155846769Y-58106131D01*
X155846768Y-58106132D01*
X155846765Y-58106133D01*
X155846759Y-58106138D01*
X155780447Y-58150447D01*
X155736138Y-58216759D01*
X155736133Y-58216765D01*
X155736132Y-58216768D01*
X155736132Y-58216769D01*
X155736131Y-58216770D01*
X155724500Y-58275247D01*
X155724500Y-58914752D01*
X155736131Y-58973229D01*
X155736132Y-58973230D01*
X155736132Y-58973231D01*
X155736134Y-58973233D01*
X155780447Y-59039552D01*
X155846765Y-59083864D01*
X155846767Y-59083866D01*
X155846770Y-59083868D01*
X155897612Y-59093981D01*
X155900337Y-59094703D01*
X155905249Y-59095500D01*
X157494750Y-59095500D01*
X157498869Y-59095500D01*
X157506717Y-59093118D01*
X157514418Y-59091587D01*
X157541257Y-59086249D01*
X157547357Y-59085648D01*
X157547385Y-59085640D01*
X157559205Y-59082679D01*
X157573808Y-59079774D01*
X157592498Y-59067044D01*
X157645359Y-59061924D01*
X157760952Y-59075776D01*
X157763021Y-59076043D01*
X157896243Y-59094416D01*
X157896258Y-59094415D01*
X157897182Y-59094452D01*
X157908495Y-59095419D01*
X157909106Y-59095499D01*
X157909108Y-59095500D01*
X157909110Y-59095500D01*
X158040889Y-59095500D01*
X158040892Y-59095500D01*
X158126067Y-59072677D01*
X158161106Y-59068488D01*
X158179916Y-59068936D01*
X158241499Y-59087019D01*
X158248993Y-59091587D01*
X158250393Y-59092440D01*
X158273538Y-59110641D01*
X159276308Y-60113411D01*
X159297458Y-60141663D01*
X159310066Y-60164752D01*
X159325235Y-60224181D01*
X159325235Y-60512361D01*
X159325234Y-60512363D01*
X159325235Y-60512364D01*
X159321018Y-60541685D01*
X159320211Y-60547299D01*
X159317024Y-60558152D01*
X159279249Y-60616929D01*
X159215692Y-60645952D01*
X159146542Y-60636011D01*
X159139564Y-60632824D01*
X159103392Y-60607710D01*
X158080221Y-59584538D01*
X158080214Y-59584532D01*
X158080208Y-59584527D01*
X158080203Y-59584523D01*
X158021466Y-59550612D01*
X158021461Y-59550609D01*
X158000290Y-59538387D01*
X158000289Y-59538386D01*
X158000288Y-59538386D01*
X157911144Y-59514500D01*
X157911143Y-59514500D01*
X157816670Y-59514500D01*
X157806213Y-59514058D01*
X157803577Y-59513834D01*
X157767161Y-59509192D01*
X157739340Y-59508398D01*
X157735873Y-59508105D01*
X157706409Y-59496676D01*
X157676343Y-59486908D01*
X157671980Y-59483321D01*
X157670732Y-59482837D01*
X157669746Y-59481484D01*
X157659433Y-59473005D01*
X157654676Y-59468332D01*
X157638482Y-59448775D01*
X157619556Y-59420452D01*
X157619555Y-59420451D01*
X157619553Y-59420448D01*
X157611765Y-59415244D01*
X157563384Y-59382916D01*
X157558641Y-59379024D01*
X157553230Y-59376132D01*
X157553229Y-59376131D01*
X157494752Y-59364500D01*
X157494750Y-59364500D01*
X155905249Y-59364500D01*
X155905247Y-59364500D01*
X155846770Y-59376131D01*
X155846769Y-59376131D01*
X155846768Y-59376132D01*
X155841355Y-59379024D01*
X155836614Y-59382916D01*
X155780447Y-59420446D01*
X155780446Y-59420447D01*
X155742916Y-59476614D01*
X155739024Y-59481355D01*
X155736132Y-59486768D01*
X155736132Y-59486769D01*
X155736131Y-59486770D01*
X155724500Y-59545247D01*
X155724500Y-60184752D01*
X155736131Y-60243229D01*
X155736132Y-60243230D01*
X155736132Y-60243231D01*
X155736134Y-60243233D01*
X155780447Y-60309552D01*
X155846765Y-60353864D01*
X155846767Y-60353866D01*
X155846770Y-60353868D01*
X155897612Y-60363981D01*
X155900337Y-60364703D01*
X155905249Y-60365500D01*
X157494750Y-60365500D01*
X157498873Y-60365500D01*
X157506732Y-60363116D01*
X157526381Y-60359208D01*
X157541258Y-60356249D01*
X157547354Y-60355648D01*
X157547386Y-60355639D01*
X157558184Y-60352934D01*
X157568517Y-60343653D01*
X157568523Y-60343649D01*
X157594433Y-60326335D01*
X157610312Y-60321363D01*
X157631167Y-60303896D01*
X157631168Y-60303897D01*
X157637677Y-60298445D01*
X157701707Y-60270493D01*
X157770689Y-60281596D01*
X157770692Y-60281598D01*
X157780588Y-60286320D01*
X157814869Y-60310551D01*
X158600572Y-61096253D01*
X158620351Y-61122061D01*
X158621068Y-61123307D01*
X158627884Y-61135789D01*
X158631451Y-61141340D01*
X158632960Y-61143960D01*
X158640475Y-61175097D01*
X158649500Y-61205830D01*
X158649500Y-61336626D01*
X158644476Y-61371564D01*
X158641289Y-61382417D01*
X158603514Y-61441194D01*
X158539957Y-61470217D01*
X158470807Y-61460276D01*
X158463829Y-61457089D01*
X158427657Y-61431975D01*
X157850221Y-60854538D01*
X157850214Y-60854532D01*
X157850208Y-60854527D01*
X157850207Y-60854526D01*
X157775470Y-60811378D01*
X157770288Y-60808386D01*
X157770287Y-60808385D01*
X157770286Y-60808385D01*
X157763804Y-60806648D01*
X157761065Y-60805914D01*
X157761060Y-60805913D01*
X157744962Y-60801599D01*
X157712525Y-60787708D01*
X157688674Y-60773170D01*
X157650110Y-60736179D01*
X157619555Y-60690451D01*
X157619551Y-60690446D01*
X157563385Y-60652917D01*
X157558641Y-60649024D01*
X157553230Y-60646132D01*
X157553229Y-60646131D01*
X157494752Y-60634500D01*
X157494750Y-60634500D01*
X155905249Y-60634500D01*
X155905247Y-60634500D01*
X155846770Y-60646131D01*
X155846769Y-60646131D01*
X155846768Y-60646132D01*
X155841355Y-60649024D01*
X155836614Y-60652916D01*
X155780447Y-60690446D01*
X155780446Y-60690447D01*
X155742916Y-60746614D01*
X155739024Y-60751355D01*
X155736132Y-60756768D01*
X155736132Y-60756769D01*
X155736131Y-60756770D01*
X155724500Y-60815247D01*
X155724500Y-61454752D01*
X155736131Y-61513229D01*
X155736132Y-61513230D01*
X155736132Y-61513231D01*
X155736134Y-61513233D01*
X155780447Y-61579552D01*
X155846765Y-61623864D01*
X155846767Y-61623866D01*
X155846770Y-61623868D01*
X155897612Y-61633981D01*
X155900337Y-61634703D01*
X155905249Y-61635500D01*
X155905250Y-61635500D01*
X155905252Y-61635500D01*
X157494749Y-61635500D01*
X157494750Y-61635500D01*
X157533260Y-61627839D01*
X157568493Y-61625950D01*
X157589399Y-61627820D01*
X157646318Y-61647617D01*
X157651939Y-61651301D01*
X157671648Y-61667330D01*
X157757062Y-61752744D01*
X157778212Y-61780996D01*
X157781140Y-61786358D01*
X157784932Y-61803790D01*
X157793480Y-61819450D01*
X157792205Y-61837222D01*
X157795993Y-61854631D01*
X157789758Y-61871345D01*
X157788483Y-61889141D01*
X157777803Y-61903402D01*
X157771577Y-61920096D01*
X157757295Y-61930787D01*
X157746602Y-61945067D01*
X157729907Y-61951290D01*
X157715645Y-61961968D01*
X157697850Y-61963241D01*
X157681134Y-61969473D01*
X157645976Y-61966952D01*
X157645954Y-61966953D01*
X157644201Y-61966572D01*
X157601690Y-61948512D01*
X157563384Y-61922916D01*
X157558641Y-61919024D01*
X157553230Y-61916132D01*
X157553229Y-61916131D01*
X157494752Y-61904500D01*
X157494750Y-61904500D01*
X155905249Y-61904500D01*
X155905247Y-61904500D01*
X155846770Y-61916131D01*
X155846769Y-61916131D01*
X155846768Y-61916132D01*
X155841355Y-61919024D01*
X155836614Y-61922916D01*
X155780447Y-61960446D01*
X155780446Y-61960447D01*
X155742916Y-62016614D01*
X155739024Y-62021355D01*
X155736132Y-62026768D01*
X155736132Y-62026769D01*
X155736131Y-62026770D01*
X155724500Y-62085247D01*
X155724500Y-62724752D01*
X155733750Y-62771256D01*
X155735855Y-62781839D01*
X155737527Y-62792779D01*
X155740206Y-62817706D01*
X155729253Y-62878405D01*
X155727798Y-62886465D01*
X155727795Y-62886467D01*
X155721704Y-62898637D01*
X155698502Y-62930813D01*
X155256680Y-63372634D01*
X155232610Y-63391394D01*
X155227191Y-63394631D01*
X155164518Y-63451279D01*
X155155449Y-63458727D01*
X155074428Y-63519083D01*
X155064108Y-63525995D01*
X154997702Y-63565805D01*
X154984845Y-63572523D01*
X154919305Y-63602024D01*
X154903482Y-63607886D01*
X154870046Y-63617746D01*
X154851364Y-63621722D01*
X154844544Y-63622631D01*
X154838682Y-63623413D01*
X154822293Y-63624501D01*
X154807443Y-63624501D01*
X154797015Y-63624062D01*
X154766941Y-63621523D01*
X154747619Y-63621208D01*
X154739036Y-63621069D01*
X154739035Y-63621069D01*
X154739032Y-63621069D01*
X154735886Y-63621231D01*
X154711532Y-63623461D01*
X154711488Y-63622980D01*
X154697921Y-63624501D01*
X154593477Y-63624501D01*
X154528845Y-63634737D01*
X154528841Y-63634738D01*
X154512518Y-63637324D01*
X154499695Y-63639355D01*
X154386657Y-63696951D01*
X154386656Y-63696952D01*
X154386651Y-63696955D01*
X154383651Y-63699954D01*
X154383648Y-63699956D01*
X154296952Y-63786652D01*
X154289449Y-63801377D01*
X154284946Y-63810217D01*
X154282957Y-63814120D01*
X154282956Y-63814121D01*
X154239352Y-63899696D01*
X154239349Y-63899704D01*
X154224499Y-63993470D01*
X154224499Y-64606519D01*
X154229121Y-64635703D01*
X154229122Y-64635705D01*
X154231307Y-64649500D01*
X154239353Y-64700305D01*
X154296949Y-64813343D01*
X154296951Y-64813345D01*
X154296953Y-64813348D01*
X154386651Y-64903046D01*
X154386653Y-64903047D01*
X154386657Y-64903051D01*
X154499695Y-64960647D01*
X154499697Y-64960648D01*
X154514449Y-64962984D01*
X154593033Y-64975431D01*
X154593219Y-64975479D01*
X154593474Y-64975500D01*
X154593480Y-64975501D01*
X154711625Y-64975500D01*
X154744899Y-64980047D01*
X154745714Y-64980274D01*
X154750700Y-64981738D01*
X154751063Y-64981763D01*
X154757030Y-64983426D01*
X154781963Y-64998962D01*
X154808232Y-65012105D01*
X154811272Y-65017227D01*
X154816329Y-65020378D01*
X154828905Y-65046930D01*
X154843898Y-65072186D01*
X154843688Y-65078140D01*
X154846237Y-65083522D01*
X154842475Y-65112555D01*
X154841851Y-65130240D01*
X154844406Y-65130796D01*
X154844051Y-65132428D01*
X154841617Y-65136884D01*
X154841439Y-65141955D01*
X154840921Y-65143515D01*
X154838565Y-65142732D01*
X154837259Y-65152813D01*
X154824924Y-65167454D01*
X154810566Y-65193751D01*
X154776087Y-65228230D01*
X154776087Y-65228231D01*
X154673741Y-65330576D01*
X154645489Y-65351725D01*
X154622404Y-65364331D01*
X154562975Y-65379500D01*
X148952717Y-65379500D01*
X148943826Y-65379181D01*
X148933610Y-65378446D01*
X148916053Y-65374214D01*
X148822359Y-65370449D01*
X148820410Y-65370309D01*
X148819835Y-65370094D01*
X148810460Y-65369188D01*
X148800436Y-65367647D01*
X148769339Y-65362866D01*
X148745318Y-65356662D01*
X148724644Y-65349046D01*
X148724641Y-65349045D01*
X148724630Y-65349041D01*
X148723118Y-65348484D01*
X148672917Y-65329993D01*
X148656791Y-65322706D01*
X148613855Y-65299484D01*
X148613763Y-65299428D01*
X148608971Y-65296843D01*
X148608861Y-65296784D01*
X148604816Y-65294596D01*
X148604675Y-65294526D01*
X148512772Y-65244955D01*
X148506659Y-65241789D01*
X148505967Y-65241445D01*
X148500393Y-65238780D01*
X148402396Y-65193751D01*
X148382350Y-65184540D01*
X148379734Y-65183360D01*
X148379667Y-65183330D01*
X148379633Y-65183315D01*
X148373717Y-65180696D01*
X148373953Y-65180162D01*
X148371920Y-65179255D01*
X148371859Y-65179404D01*
X148364358Y-65176296D01*
X148364353Y-65176294D01*
X148213228Y-65135800D01*
X148213225Y-65135800D01*
X148056770Y-65135800D01*
X147984167Y-65155253D01*
X147984166Y-65155254D01*
X147984163Y-65155254D01*
X147984157Y-65155256D01*
X147949122Y-65159446D01*
X147943015Y-65159301D01*
X147876461Y-65138031D01*
X147831973Y-65084156D01*
X147823674Y-65014781D01*
X147854198Y-64951933D01*
X147861262Y-64944163D01*
X147861261Y-64944162D01*
X147887628Y-64915159D01*
X147891660Y-64910928D01*
X147976759Y-64825830D01*
X148055197Y-64689970D01*
X148095800Y-64538439D01*
X148095800Y-64381561D01*
X148080325Y-64323811D01*
X148076136Y-64288770D01*
X148076466Y-64274894D01*
X148097739Y-64208345D01*
X148151614Y-64163860D01*
X148158448Y-64160934D01*
X148159453Y-64160504D01*
X148208248Y-64150500D01*
X151060870Y-64150500D01*
X151076124Y-64151442D01*
X151097994Y-64154152D01*
X151111116Y-64155779D01*
X151111124Y-64155780D01*
X151315774Y-64160934D01*
X151327405Y-64161776D01*
X151484469Y-64180598D01*
X151484653Y-64180625D01*
X151485854Y-64180767D01*
X151488194Y-64181067D01*
X151618953Y-64199100D01*
X151630607Y-64199562D01*
X151634108Y-64200500D01*
X151634110Y-64200500D01*
X151654262Y-64200500D01*
X151658903Y-64200684D01*
X151658925Y-64200682D01*
X151659516Y-64200677D01*
X151665665Y-64200500D01*
X151765890Y-64200500D01*
X151765892Y-64200500D01*
X151893186Y-64166392D01*
X152007314Y-64100500D01*
X152100500Y-64007314D01*
X152166392Y-63893186D01*
X152200500Y-63765892D01*
X152200500Y-63634108D01*
X152175425Y-63540526D01*
X152176183Y-63508655D01*
X152175311Y-63476770D01*
X152177009Y-63473960D01*
X152177088Y-63470680D01*
X152194959Y-63444274D01*
X152211463Y-63416980D01*
X152214778Y-63414991D01*
X152216250Y-63412817D01*
X152240621Y-63397093D01*
X152247098Y-63393917D01*
X152288621Y-63379262D01*
X152343482Y-63351786D01*
X152372104Y-63332641D01*
X152378308Y-63329600D01*
X152378516Y-63329438D01*
X152378518Y-63329438D01*
X152378519Y-63329436D01*
X152384408Y-63324880D01*
X152385193Y-63324075D01*
X152386137Y-63323255D01*
X152386144Y-63323251D01*
X152387475Y-63322096D01*
X152387474Y-63322095D01*
X152405774Y-63306215D01*
X152408920Y-63297752D01*
X152414778Y-63290494D01*
X152420962Y-63283395D01*
X152425716Y-63277938D01*
X152463459Y-63219195D01*
X152487742Y-63166022D01*
X152492147Y-63151024D01*
X152498382Y-63122372D01*
X152503407Y-63087437D01*
X152503844Y-63084217D01*
X152503843Y-63084212D01*
X152503844Y-63084210D01*
X152503916Y-63080381D01*
X152504317Y-63072456D01*
X152505354Y-63059928D01*
X152505500Y-63058170D01*
X152505500Y-62037331D01*
X152504321Y-62015350D01*
X152501484Y-61988979D01*
X152499042Y-61973915D01*
X152497963Y-61967261D01*
X152497813Y-61966573D01*
X152496317Y-61959698D01*
X152483335Y-61922917D01*
X152479263Y-61911379D01*
X152451788Y-61856521D01*
X152451779Y-61856505D01*
X152423365Y-61813987D01*
X152423363Y-61813984D01*
X152422203Y-61812645D01*
X152422198Y-61812641D01*
X152422198Y-61812640D01*
X152380874Y-61776217D01*
X152380873Y-61776216D01*
X152380870Y-61776214D01*
X152377973Y-61774283D01*
X152345019Y-61752313D01*
X152338766Y-61749115D01*
X152319184Y-61736535D01*
X152319181Y-61736533D01*
X152319177Y-61736531D01*
X152319175Y-61736530D01*
X152266005Y-61712253D01*
X152251005Y-61707848D01*
X152250992Y-61707845D01*
X152222359Y-61701615D01*
X152187420Y-61696592D01*
X152158171Y-61694500D01*
X150129500Y-61694500D01*
X150062461Y-61674815D01*
X150016706Y-61622011D01*
X150005500Y-61570500D01*
X150005500Y-60937348D01*
X150005499Y-60937312D01*
X150005082Y-60929532D01*
X150004321Y-60915350D01*
X150001484Y-60888979D01*
X149997962Y-60867256D01*
X149996317Y-60859698D01*
X149987789Y-60835538D01*
X149979264Y-60811383D01*
X149979263Y-60811381D01*
X149979262Y-60811378D01*
X149965549Y-60783998D01*
X149953130Y-60715244D01*
X149979853Y-60650687D01*
X150037237Y-60610826D01*
X150076475Y-60604472D01*
X152131575Y-60605420D01*
X152162481Y-60605435D01*
X152162481Y-60605434D01*
X152162502Y-60605435D01*
X152184500Y-60604264D01*
X152210891Y-60601435D01*
X152232630Y-60597918D01*
X152240213Y-60596270D01*
X152288548Y-60579225D01*
X152343428Y-60551757D01*
X152386044Y-60523280D01*
X152386050Y-60523275D01*
X152387397Y-60522108D01*
X152387399Y-60522105D01*
X152387402Y-60522103D01*
X152425688Y-60477912D01*
X152463449Y-60419153D01*
X152487742Y-60365964D01*
X152492147Y-60350966D01*
X152498382Y-60322314D01*
X152503407Y-60287379D01*
X152503844Y-60284159D01*
X152503843Y-60284154D01*
X152503844Y-60284152D01*
X152503916Y-60280323D01*
X152504317Y-60272398D01*
X152505500Y-60258112D01*
X152505500Y-59437211D01*
X152504326Y-59415273D01*
X152501500Y-59388952D01*
X152497991Y-59367270D01*
X152496358Y-59359752D01*
X152479367Y-59311513D01*
X152471240Y-59295250D01*
X152451998Y-59256742D01*
X152451987Y-59256723D01*
X152436250Y-59233127D01*
X152415430Y-59166432D01*
X152433973Y-59099068D01*
X152445915Y-59082874D01*
X152450216Y-59077938D01*
X152487959Y-59019195D01*
X152512242Y-58966022D01*
X152516647Y-58951024D01*
X152522882Y-58922372D01*
X152527907Y-58887437D01*
X152528344Y-58884217D01*
X152528343Y-58884212D01*
X152528344Y-58884210D01*
X152528416Y-58880381D01*
X152528817Y-58872456D01*
X152530000Y-58858170D01*
X152530000Y-58115334D01*
X152549685Y-58048295D01*
X152574906Y-58019834D01*
X152584923Y-58011539D01*
X152600449Y-57997276D01*
X152605155Y-57992485D01*
X152635750Y-57952551D01*
X152666264Y-57900595D01*
X152678420Y-57872499D01*
X152686233Y-57854439D01*
X152686233Y-57854438D01*
X152686239Y-57854425D01*
X152692151Y-57834292D01*
X152698384Y-57805642D01*
X152703408Y-57770705D01*
X152705500Y-57741455D01*
X152705500Y-57567758D01*
X152705500Y-57567754D01*
X152705266Y-57564185D01*
X152705000Y-57556073D01*
X152705000Y-57443925D01*
X152705266Y-57435812D01*
X152705500Y-57432243D01*
X152705500Y-57136480D01*
X152725185Y-57069441D01*
X152741819Y-57048799D01*
X155601568Y-54189051D01*
X155601568Y-54189050D01*
X155601579Y-54189040D01*
X155633001Y-54148592D01*
X155664296Y-54095848D01*
X155684739Y-54048886D01*
X155692151Y-54023645D01*
X155698383Y-53994998D01*
X155703407Y-53960064D01*
X155704208Y-53953820D01*
X155704254Y-53947904D01*
X155705031Y-53934969D01*
X155705500Y-53930808D01*
X155705500Y-52829500D01*
X155725185Y-52762461D01*
X155777989Y-52716706D01*
X155829500Y-52705500D01*
X156129137Y-52705500D01*
X156131697Y-52705500D01*
X156134421Y-52705466D01*
X156134571Y-52705488D01*
X156136938Y-52705467D01*
X156144712Y-52705251D01*
X156148681Y-52705065D01*
X156150230Y-52705031D01*
X156150343Y-52705061D01*
X156152986Y-52705000D01*
X159207605Y-52705000D01*
X159207612Y-52705000D01*
X159219967Y-52704410D01*
X159222716Y-52704279D01*
X159234436Y-52704274D01*
X159252872Y-52705139D01*
G37*
%TD.AperFunction*%
%TA.AperFunction,Conductor*%
G36*
X145627689Y-67138982D02*
G01*
X145645348Y-67136446D01*
X145679164Y-67146380D01*
X145679186Y-67146383D01*
X145679768Y-67146649D01*
X145723834Y-67180454D01*
X145725270Y-67182192D01*
X145732064Y-67191974D01*
X145732566Y-67192409D01*
X145732712Y-67192906D01*
X145737063Y-67199171D01*
X145797644Y-67304100D01*
X145799001Y-67306623D01*
X145799498Y-67307312D01*
X145799500Y-67307314D01*
X145892686Y-67400500D01*
X145991521Y-67457563D01*
X145991523Y-67457564D01*
X145991522Y-67457564D01*
X145995363Y-67459781D01*
X145995378Y-67459790D01*
X146006810Y-67466390D01*
X146006814Y-67466392D01*
X146134108Y-67500500D01*
X146134110Y-67500500D01*
X146265892Y-67500500D01*
X146265894Y-67500500D01*
X146267165Y-67500332D01*
X146268890Y-67499925D01*
X146281307Y-67497380D01*
X146287669Y-67497492D01*
X146367810Y-67482998D01*
X146378578Y-67480752D01*
X146379803Y-67480462D01*
X146390540Y-67477611D01*
X146419597Y-67469049D01*
X146424719Y-67468000D01*
X146454522Y-67470495D01*
X146484426Y-67470466D01*
X146491789Y-67473615D01*
X146494345Y-67473829D01*
X146496929Y-67475813D01*
X146511600Y-67482087D01*
X146635647Y-67553706D01*
X146755879Y-67585922D01*
X146788317Y-67599813D01*
X146801665Y-67607949D01*
X146848659Y-67659642D01*
X146852534Y-67667618D01*
X146865000Y-67721805D01*
X146865000Y-68270000D01*
X147406862Y-68270000D01*
X147441797Y-68275023D01*
X147456795Y-68279427D01*
X147515563Y-68317191D01*
X147521369Y-68323890D01*
X147547440Y-68373009D01*
X147567936Y-68449500D01*
X147581294Y-68499355D01*
X147593927Y-68521234D01*
X147593928Y-68521236D01*
X147659519Y-68634843D01*
X147659521Y-68634845D01*
X147659522Y-68634847D01*
X147770153Y-68745478D01*
X147905647Y-68823706D01*
X148016753Y-68853476D01*
X148032049Y-68858973D01*
X148064408Y-68868474D01*
X148064408Y-68868475D01*
X148077808Y-68872409D01*
X148136585Y-68910183D01*
X148165610Y-68973739D01*
X148162605Y-68994637D01*
X148163687Y-68998317D01*
X148160526Y-69009095D01*
X148155666Y-69042898D01*
X148155666Y-69042899D01*
X148152481Y-69049873D01*
X148145707Y-69059628D01*
X148144026Y-69065363D01*
X148138246Y-69070374D01*
X148127369Y-69086041D01*
X148039240Y-69174170D01*
X148039236Y-69174176D01*
X147997734Y-69246060D01*
X147997735Y-69246061D01*
X147977872Y-69280466D01*
X147977869Y-69280472D01*
X147965803Y-69301369D01*
X147961421Y-69307717D01*
X147956359Y-69326613D01*
X147923356Y-69449782D01*
X147920200Y-69461561D01*
X147920200Y-69618439D01*
X147960803Y-69769970D01*
X148039241Y-69905830D01*
X148150170Y-70016759D01*
X148286030Y-70095197D01*
X148437561Y-70135800D01*
X148437564Y-70135800D01*
X148551326Y-70135800D01*
X148586253Y-70140821D01*
X148597106Y-70144007D01*
X148655887Y-70181777D01*
X148684916Y-70245331D01*
X148674977Y-70314490D01*
X148674976Y-70314492D01*
X148671791Y-70321467D01*
X148646675Y-70357642D01*
X147903744Y-71100573D01*
X147875493Y-71121722D01*
X147852405Y-71134330D01*
X147792975Y-71149500D01*
X146453856Y-71149500D01*
X146364725Y-71173382D01*
X146364708Y-71173387D01*
X146364703Y-71173389D01*
X146284791Y-71219526D01*
X146284789Y-71219528D01*
X146284782Y-71219534D01*
X145733410Y-71770907D01*
X145731947Y-71771977D01*
X145731474Y-71772801D01*
X145718836Y-71783383D01*
X145699327Y-71797623D01*
X145683500Y-71803309D01*
X145681536Y-71804327D01*
X145679640Y-71804696D01*
X145633572Y-71821248D01*
X145615737Y-71817142D01*
X145612955Y-71817684D01*
X145605910Y-71814879D01*
X145565484Y-71805573D01*
X145554651Y-71794476D01*
X145548039Y-71791844D01*
X145536967Y-71776359D01*
X145516679Y-71755576D01*
X145514954Y-71752323D01*
X145512378Y-71741972D01*
X145507400Y-71735009D01*
X145506591Y-71718707D01*
X145500500Y-71694223D01*
X145500500Y-69461561D01*
X145888200Y-69461561D01*
X145888200Y-69618439D01*
X145928803Y-69769970D01*
X146007241Y-69905830D01*
X146118170Y-70016759D01*
X146254030Y-70095197D01*
X146405561Y-70135800D01*
X146405564Y-70135800D01*
X146562436Y-70135800D01*
X146562439Y-70135800D01*
X146713970Y-70095197D01*
X146849830Y-70016759D01*
X146960759Y-69905830D01*
X147039197Y-69769970D01*
X147079800Y-69618439D01*
X147079800Y-69461561D01*
X147039197Y-69310030D01*
X146960759Y-69174170D01*
X146849830Y-69063241D01*
X146849829Y-69063240D01*
X146849826Y-69063238D01*
X146785724Y-69026229D01*
X146757292Y-68996411D01*
X146676087Y-68974652D01*
X146676087Y-68974651D01*
X146583861Y-68949940D01*
X146562439Y-68944200D01*
X146562438Y-68944200D01*
X146405561Y-68944200D01*
X146291911Y-68974652D01*
X146291910Y-68974651D01*
X146254035Y-68984800D01*
X146254026Y-68984804D01*
X146118175Y-69063236D01*
X146118173Y-69063238D01*
X146118167Y-69063242D01*
X146118162Y-69063246D01*
X146007246Y-69174162D01*
X146007242Y-69174167D01*
X146007237Y-69174174D01*
X145965734Y-69246060D01*
X145965735Y-69246061D01*
X145945872Y-69280466D01*
X145945869Y-69280472D01*
X145933803Y-69301369D01*
X145929421Y-69307717D01*
X145924359Y-69326613D01*
X145891356Y-69449782D01*
X145888200Y-69461561D01*
X145500500Y-69461561D01*
X145500500Y-67270035D01*
X145505521Y-67235108D01*
X145508707Y-67224255D01*
X145518350Y-67209246D01*
X145523379Y-67192130D01*
X145536844Y-67180464D01*
X145546477Y-67165474D01*
X145562706Y-67158061D01*
X145576189Y-67146381D01*
X145593824Y-67143847D01*
X145610031Y-67136445D01*
X145627689Y-67138982D01*
G37*
%TD.AperFunction*%
%TA.AperFunction,Conductor*%
G36*
X149737539Y-55019685D02*
G01*
X149783294Y-55072489D01*
X149794500Y-55124000D01*
X149794500Y-56971044D01*
X149774815Y-57038083D01*
X149722011Y-57083838D01*
X149661656Y-57094728D01*
X149658470Y-57094500D01*
X149658463Y-57094500D01*
X145637832Y-57094500D01*
X145636405Y-57094576D01*
X145631125Y-57094859D01*
X145563130Y-57078784D01*
X145514619Y-57028501D01*
X145500500Y-56971036D01*
X145500500Y-55141829D01*
X145505523Y-55106893D01*
X145509927Y-55091895D01*
X145547672Y-55033144D01*
X145547700Y-55033119D01*
X145547699Y-55033119D01*
X145549041Y-55031956D01*
X145603920Y-55004477D01*
X145611479Y-55002833D01*
X145637832Y-55000000D01*
X149670500Y-55000000D01*
X149737539Y-55019685D01*
G37*
%TD.AperFunction*%
%TD*%
%TA.AperFunction,Conductor*%
%TO.N,+BATT*%
G36*
X174392606Y-50505523D02*
G01*
X174407604Y-50509927D01*
X174422594Y-50519557D01*
X174439675Y-50524567D01*
X174466355Y-50547672D01*
X174467542Y-50549041D01*
X174495018Y-50603902D01*
X174496663Y-50611460D01*
X174499500Y-50637831D01*
X174499500Y-52358170D01*
X174494475Y-52393114D01*
X174490070Y-52408112D01*
X174480439Y-52423101D01*
X174475432Y-52440175D01*
X174452327Y-52466855D01*
X174450958Y-52468042D01*
X174396097Y-52495518D01*
X174388539Y-52497163D01*
X174362168Y-52500000D01*
X165840148Y-52500000D01*
X165805210Y-52494976D01*
X165776990Y-52486689D01*
X165769918Y-52483012D01*
X165765063Y-52482516D01*
X165734618Y-52464662D01*
X165719606Y-52452691D01*
X165717198Y-52450539D01*
X165716611Y-52450116D01*
X165714516Y-52448527D01*
X165714161Y-52448349D01*
X165701405Y-52445338D01*
X165700539Y-52445241D01*
X165625005Y-52428000D01*
X165625004Y-52428000D01*
X165625000Y-52428000D01*
X162500000Y-52428000D01*
X162499995Y-52428000D01*
X162486109Y-52429564D01*
X162454273Y-52433150D01*
X162454272Y-52433150D01*
X162374539Y-52471548D01*
X162367612Y-52474626D01*
X162328003Y-52490799D01*
X162281129Y-52500000D01*
X159268302Y-52500000D01*
X159262496Y-52499864D01*
X159223102Y-52498017D01*
X159207612Y-52499500D01*
X156191257Y-52499500D01*
X156145734Y-52499500D01*
X156145723Y-52499500D01*
X156142838Y-52499635D01*
X156142837Y-52499614D01*
X156135115Y-52499975D01*
X156132748Y-52499996D01*
X156132681Y-52499976D01*
X156131697Y-52500000D01*
X155500000Y-52500000D01*
X155500000Y-53930808D01*
X155499999Y-53930810D01*
X155500000Y-53930811D01*
X155494976Y-53965745D01*
X155487564Y-53990986D01*
X155456269Y-54043730D01*
X152500000Y-56999998D01*
X152500000Y-56999999D01*
X152500000Y-57432241D01*
X152499500Y-57434108D01*
X152499500Y-57565892D01*
X152500000Y-57567758D01*
X152500000Y-57741455D01*
X152494976Y-57776392D01*
X152489064Y-57796525D01*
X152458550Y-57848481D01*
X152453844Y-57853272D01*
X152434273Y-57869481D01*
X152380448Y-57905445D01*
X152380444Y-57905450D01*
X152342916Y-57961614D01*
X152339024Y-57966355D01*
X152336132Y-57971768D01*
X152336132Y-57971769D01*
X152336131Y-57971770D01*
X152324500Y-58030247D01*
X152324500Y-58030249D01*
X152324500Y-58858170D01*
X152324499Y-58858176D01*
X152324500Y-58858179D01*
X152319475Y-58893114D01*
X152315070Y-58908112D01*
X152277327Y-58966855D01*
X152277292Y-58966885D01*
X152277291Y-58966887D01*
X152277289Y-58966887D01*
X152275958Y-58968042D01*
X152221097Y-58995518D01*
X152213539Y-58997163D01*
X152187168Y-59000000D01*
X150141830Y-59000000D01*
X150141825Y-58999999D01*
X150141823Y-59000000D01*
X150106888Y-58994975D01*
X150093721Y-58991108D01*
X150034945Y-58953330D01*
X150005924Y-58889773D01*
X150004663Y-58872046D01*
X150005782Y-57437612D01*
X150004618Y-57415611D01*
X150001796Y-57389209D01*
X150001586Y-57387914D01*
X150000000Y-57368138D01*
X150000000Y-50642329D01*
X150005023Y-50607393D01*
X150009427Y-50592395D01*
X150047172Y-50533644D01*
X150047200Y-50533619D01*
X150047199Y-50533619D01*
X150048541Y-50532456D01*
X150103420Y-50504977D01*
X150110979Y-50503333D01*
X150137332Y-50500500D01*
X174357670Y-50500500D01*
X174392606Y-50505523D01*
G37*
%TD.AperFunction*%
%TD*%
%TA.AperFunction,Conductor*%
%TO.N,+5V*%
G36*
X152393106Y-71505023D02*
G01*
X152408104Y-71509427D01*
X152423094Y-71519057D01*
X152440175Y-71524067D01*
X152466855Y-71547172D01*
X152468042Y-71548541D01*
X152495518Y-71603402D01*
X152497163Y-71610960D01*
X152500000Y-71637331D01*
X152500000Y-74357670D01*
X152494975Y-74392614D01*
X152490570Y-74407612D01*
X152480939Y-74422601D01*
X152475932Y-74439675D01*
X152452827Y-74466355D01*
X152451458Y-74467542D01*
X152396597Y-74495018D01*
X152389039Y-74496663D01*
X152362668Y-74499500D01*
X149641830Y-74499500D01*
X149606889Y-74494475D01*
X149591890Y-74490070D01*
X149576902Y-74480440D01*
X149559824Y-74475432D01*
X149533144Y-74452327D01*
X149531957Y-74450958D01*
X149504477Y-74396083D01*
X149502832Y-74388521D01*
X149500000Y-74362168D01*
X149500000Y-71641829D01*
X149505023Y-71606893D01*
X149509427Y-71591895D01*
X149519057Y-71576904D01*
X149524067Y-71559824D01*
X149547172Y-71533144D01*
X149548541Y-71531957D01*
X149603420Y-71504477D01*
X149610979Y-71502833D01*
X149637332Y-71500000D01*
X152358170Y-71500000D01*
X152393106Y-71505023D01*
G37*
%TD.AperFunction*%
%TD*%
%TA.AperFunction,Conductor*%
%TO.N,/DRV2_ISENSE*%
G36*
X162540281Y-58300907D02*
G01*
X163270601Y-58583248D01*
X163274450Y-58585688D01*
X163275366Y-58586561D01*
X163276764Y-58589721D01*
X163278990Y-58594746D01*
X163278989Y-58594747D01*
X163278990Y-58594748D01*
X163278493Y-58596034D01*
X163275764Y-58603100D01*
X163275763Y-58603101D01*
X163275073Y-58603825D01*
X163270822Y-58606666D01*
X162540253Y-58889102D01*
X162535758Y-58889886D01*
X162533976Y-58889844D01*
X162525787Y-58886223D01*
X162525085Y-58885488D01*
X162522063Y-58879613D01*
X162515550Y-58845492D01*
X162515549Y-58845491D01*
X162515549Y-58845488D01*
X162514948Y-58844615D01*
X162514947Y-58844614D01*
X162490381Y-58808953D01*
X162490129Y-58808528D01*
X162489916Y-58808279D01*
X162467808Y-58792659D01*
X162467807Y-58792658D01*
X162452189Y-58781621D01*
X162414556Y-58766919D01*
X162412254Y-58764708D01*
X162307459Y-58747378D01*
X162307298Y-58747348D01*
X162307247Y-58747342D01*
X162238694Y-58745389D01*
X162234245Y-58744372D01*
X162232528Y-58743603D01*
X162226437Y-58737243D01*
X162225824Y-58735702D01*
X162225000Y-58731388D01*
X162225000Y-58458218D01*
X162225889Y-58453746D01*
X162226228Y-58452924D01*
X162226664Y-58451873D01*
X162232617Y-58445703D01*
X162233950Y-58445095D01*
X162237968Y-58444070D01*
X162371813Y-58434477D01*
X162457382Y-58405587D01*
X162506887Y-58360963D01*
X162520236Y-58331147D01*
X162522752Y-58312050D01*
X162524220Y-58307731D01*
X162525113Y-58306185D01*
X162532207Y-58300742D01*
X162533033Y-58300521D01*
X162540281Y-58300907D01*
G37*
%TD.AperFunction*%
%TD*%
%TA.AperFunction,Conductor*%
%TO.N,/DRV2_ISENSE*%
G36*
X163182902Y-57006240D02*
G01*
X163553433Y-57345725D01*
X163557218Y-57353841D01*
X163556120Y-57359324D01*
X163490472Y-57499179D01*
X163490110Y-57499886D01*
X163424510Y-57618043D01*
X163343273Y-57777980D01*
X163326796Y-57865466D01*
X163321897Y-57872961D01*
X163315298Y-57875000D01*
X163035355Y-57875000D01*
X163027082Y-57871573D01*
X163023742Y-57864722D01*
X163017483Y-57813607D01*
X163017480Y-57813597D01*
X163015176Y-57806839D01*
X162996659Y-57752515D01*
X162925490Y-57618046D01*
X162891243Y-57557770D01*
X162890912Y-57557143D01*
X162862872Y-57499886D01*
X162794072Y-57359396D01*
X162793512Y-57350460D01*
X162796675Y-57345625D01*
X163167097Y-57006240D01*
X163175511Y-57003179D01*
X163182902Y-57006240D01*
G37*
%TD.AperFunction*%
%TD*%
%TA.AperFunction,Conductor*%
%TO.N,/DRV2_ISENSE*%
G36*
X163322382Y-57998427D02*
G01*
X163325779Y-58005864D01*
X163335522Y-58141811D01*
X163364412Y-58227381D01*
X163364413Y-58227382D01*
X163409037Y-58276887D01*
X163438849Y-58290235D01*
X163438851Y-58290235D01*
X163438853Y-58290236D01*
X163451531Y-58291906D01*
X163459285Y-58296384D01*
X163461602Y-58305034D01*
X163458289Y-58311765D01*
X163183287Y-58587685D01*
X163175019Y-58591126D01*
X163166741Y-58587713D01*
X163166713Y-58587685D01*
X162890565Y-58310617D01*
X162887152Y-58302339D01*
X162890593Y-58294071D01*
X162896658Y-58290866D01*
X162900317Y-58290167D01*
X162924512Y-58285549D01*
X162961719Y-58259917D01*
X162988379Y-58222188D01*
X163006250Y-58176445D01*
X163022656Y-58077250D01*
X163024676Y-58006366D01*
X163028337Y-57998195D01*
X163036371Y-57995000D01*
X163314109Y-57995000D01*
X163322382Y-57998427D01*
G37*
%TD.AperFunction*%
%TD*%
%TA.AperFunction,Conductor*%
%TO.N,GND*%
G36*
X163058590Y-72225000D02*
G01*
X163039158Y-72347433D01*
X162880284Y-72379418D01*
X162772040Y-72417063D01*
X162645438Y-72457855D01*
X162564175Y-72470357D01*
X162457590Y-72475000D01*
X162457590Y-71975000D01*
X162547231Y-71968035D01*
X162611936Y-71948885D01*
X162661750Y-71920167D01*
X162706716Y-71884499D01*
X162762462Y-71840434D01*
X162885195Y-71772836D01*
X163058590Y-72225000D01*
G37*
%TD.AperFunction*%
%TD*%
%TA.AperFunction,Conductor*%
%TO.N,GND*%
G36*
X164303567Y-70600000D02*
G01*
X164260842Y-70897433D01*
X164104273Y-70862297D01*
X163999314Y-70817573D01*
X163984434Y-70810442D01*
X163869492Y-70767278D01*
X163796527Y-70754660D01*
X163702567Y-70750000D01*
X163702567Y-70450000D01*
X163804454Y-70444427D01*
X163881854Y-70429509D01*
X163999313Y-70382427D01*
X164096013Y-70340584D01*
X164168140Y-70319332D01*
X164260842Y-70302567D01*
X164303567Y-70600000D01*
G37*
%TD.AperFunction*%
%TD*%
%TA.AperFunction,Conductor*%
%TO.N,GND*%
G36*
X152484520Y-60822614D02*
G01*
X152486344Y-60822873D01*
X152663557Y-60844109D01*
X152897433Y-60850000D01*
X152897433Y-61350000D01*
X152662828Y-61355944D01*
X152484511Y-61377387D01*
X152339158Y-61397433D01*
X152296433Y-61100000D01*
X152339158Y-60802567D01*
X152484520Y-60822614D01*
G37*
%TD.AperFunction*%
%TD*%
%TA.AperFunction,Conductor*%
%TO.N,GND*%
G36*
X152303567Y-61135000D02*
G01*
X152300000Y-61400000D01*
X152001283Y-61392500D01*
X151702567Y-61385000D01*
X151702567Y-60885000D01*
X151799937Y-60894387D01*
X151875679Y-60913661D01*
X151937876Y-60929223D01*
X152011599Y-60925990D01*
X152056240Y-60906543D01*
X152107386Y-60870000D01*
X152303567Y-61135000D01*
G37*
%TD.AperFunction*%
%TD*%
%TA.AperFunction,Conductor*%
%TO.N,GND*%
G36*
X163184520Y-71772614D02*
G01*
X163186344Y-71772873D01*
X163363557Y-71794109D01*
X163597433Y-71800000D01*
X163597433Y-72300000D01*
X163362828Y-72305944D01*
X163184511Y-72327387D01*
X163039158Y-72347433D01*
X162996433Y-72050000D01*
X163039158Y-71752567D01*
X163184520Y-71772614D01*
G37*
%TD.AperFunction*%
%TD*%
%TA.AperFunction,Conductor*%
%TO.N,GND*%
G36*
X160034291Y-68899650D02*
G01*
X160058012Y-69034086D01*
X160097433Y-69260842D01*
X159775000Y-69303567D01*
X159502567Y-69260842D01*
X159525647Y-69036964D01*
X159526655Y-68870634D01*
X159525000Y-68702567D01*
X160025000Y-68702567D01*
X160034291Y-68899650D01*
G37*
%TD.AperFunction*%
%TD*%
%TA.AperFunction,Conductor*%
%TO.N,GND*%
G36*
X169297433Y-71439158D02*
G01*
X169277387Y-71584511D01*
X169277129Y-71586324D01*
X169255891Y-71763549D01*
X169250000Y-71997433D01*
X168750000Y-71997433D01*
X168744056Y-71762832D01*
X168722614Y-71584520D01*
X168702567Y-71439158D01*
X169000000Y-71396433D01*
X169297433Y-71439158D01*
G37*
%TD.AperFunction*%
%TD*%
%TA.AperFunction,Conductor*%
%TO.N,GND*%
G36*
X153797433Y-72039158D02*
G01*
X153777387Y-72184511D01*
X153777129Y-72186324D01*
X153755891Y-72363549D01*
X153750000Y-72597433D01*
X153250000Y-72597433D01*
X153244056Y-72362832D01*
X153222614Y-72184520D01*
X153202567Y-72039158D01*
X153500000Y-71996433D01*
X153797433Y-72039158D01*
G37*
%TD.AperFunction*%
%TD*%
%TA.AperFunction,Conductor*%
%TO.N,GND*%
G36*
X153128515Y-64583617D02*
G01*
X153060410Y-64659602D01*
X153016229Y-64724882D01*
X152966464Y-64841230D01*
X152927675Y-64939194D01*
X152891701Y-65005222D01*
X152838006Y-65082628D01*
X152597478Y-64902522D01*
X152417372Y-64661994D01*
X152552928Y-64576128D01*
X152658770Y-64533535D01*
X152674333Y-64528055D01*
X152786132Y-64477301D01*
X152846648Y-64434629D01*
X152916383Y-64371485D01*
X153128515Y-64583617D01*
G37*
%TD.AperFunction*%
%TD*%
%TA.AperFunction,Conductor*%
%TO.N,+3V3*%
G36*
X163085918Y-62942504D02*
G01*
X163093618Y-62947071D01*
X163095843Y-62955682D01*
X163079799Y-63072015D01*
X163077387Y-63089511D01*
X163077386Y-63089520D01*
X163077126Y-63091337D01*
X163055892Y-63268534D01*
X163055890Y-63268556D01*
X163050287Y-63491028D01*
X163046653Y-63499212D01*
X163038591Y-63502433D01*
X162561407Y-63502433D01*
X162553134Y-63499006D01*
X162549711Y-63491029D01*
X162549711Y-63491028D01*
X162544056Y-63267832D01*
X162522614Y-63089520D01*
X162504156Y-62955681D01*
X162506420Y-62947019D01*
X162514079Y-62942504D01*
X162798336Y-62901672D01*
X162801664Y-62901672D01*
X163085918Y-62942504D01*
G37*
%TD.AperFunction*%
%TD*%
%TA.AperFunction,Conductor*%
%TO.N,+3V3*%
G36*
X161953739Y-66808842D02*
G01*
X162291158Y-67146261D01*
X162294585Y-67154534D01*
X162291365Y-67162595D01*
X162137541Y-67324417D01*
X162026610Y-67465674D01*
X161945031Y-67573354D01*
X161937303Y-67577879D01*
X161928692Y-67575654D01*
X161698819Y-67403526D01*
X161696473Y-67401180D01*
X161524344Y-67171305D01*
X161522129Y-67162630D01*
X161526644Y-67154969D01*
X161634336Y-67073380D01*
X161635804Y-67072278D01*
X161776130Y-66961986D01*
X161937405Y-66808635D01*
X161945761Y-66805419D01*
X161953739Y-66808842D01*
G37*
%TD.AperFunction*%
%TD*%
%TA.AperFunction,Conductor*%
%TO.N,+3V3*%
G36*
X158466542Y-69575890D02*
G01*
X158466827Y-69576008D01*
X158468494Y-69576698D01*
X158474598Y-69582511D01*
X158475171Y-69583724D01*
X158476236Y-69587575D01*
X158486025Y-69687053D01*
X158486026Y-69687059D01*
X158518450Y-69809143D01*
X158566221Y-69931412D01*
X158643628Y-70129532D01*
X158653567Y-70153510D01*
X158654459Y-70157986D01*
X158654460Y-70160666D01*
X158652067Y-70167760D01*
X158651760Y-70168163D01*
X158651068Y-70168862D01*
X158651036Y-70168940D01*
X158650960Y-70168971D01*
X158649642Y-70170304D01*
X158234024Y-70493971D01*
X158229943Y-70496020D01*
X158227428Y-70496713D01*
X158219854Y-70496247D01*
X158219569Y-70496129D01*
X158219282Y-70496010D01*
X158216565Y-70494430D01*
X158027350Y-70347077D01*
X157800995Y-70170801D01*
X157798012Y-70167351D01*
X157796689Y-70165023D01*
X157795268Y-70157663D01*
X157795337Y-70157151D01*
X157796120Y-70154260D01*
X157806379Y-70129513D01*
X157806382Y-70129506D01*
X157806393Y-70129480D01*
X157836826Y-70054797D01*
X157887108Y-69931411D01*
X157955388Y-69726512D01*
X157973381Y-69587504D01*
X157974837Y-69583183D01*
X157975223Y-69582511D01*
X157975942Y-69581258D01*
X157982319Y-69576009D01*
X157983454Y-69575622D01*
X157987220Y-69575000D01*
X158462067Y-69575000D01*
X158466542Y-69575890D01*
G37*
%TD.AperFunction*%
%TD*%
%TA.AperFunction,Conductor*%
%TO.N,+3V3*%
G36*
X158227492Y-69496791D02*
G01*
X158508614Y-69537173D01*
X158512915Y-69538688D01*
X158514463Y-69539607D01*
X158519785Y-69546690D01*
X158519825Y-69546743D01*
X158520265Y-69548445D01*
X158520527Y-69552971D01*
X158504799Y-69667015D01*
X158502387Y-69684511D01*
X158502386Y-69684520D01*
X158502386Y-69684521D01*
X158502126Y-69686336D01*
X158480891Y-69863534D01*
X158480889Y-69863569D01*
X158475345Y-70083701D01*
X158474343Y-70088151D01*
X158473586Y-70089857D01*
X158467238Y-70095975D01*
X158465686Y-70096596D01*
X158461340Y-70097433D01*
X157988734Y-70097433D01*
X157984254Y-70096541D01*
X157982529Y-70095826D01*
X157976257Y-70089631D01*
X157975598Y-70088095D01*
X157974654Y-70083778D01*
X157974613Y-70082186D01*
X157969056Y-69862832D01*
X157947614Y-69684520D01*
X157929474Y-69552986D01*
X157929744Y-69548432D01*
X157930199Y-69546690D01*
X157935576Y-69539569D01*
X157937088Y-69538677D01*
X157941363Y-69537175D01*
X158222508Y-69496791D01*
X158224172Y-69496672D01*
X158225828Y-69496672D01*
X158227492Y-69496791D01*
G37*
%TD.AperFunction*%
%TD*%
%TA.AperFunction,Conductor*%
%TO.N,+3V3*%
G36*
X158230159Y-68503757D02*
G01*
X158230726Y-68503992D01*
X158233435Y-68505569D01*
X158637772Y-68820450D01*
X158649003Y-68829197D01*
X158651986Y-68832647D01*
X158653309Y-68834975D01*
X158654730Y-68842337D01*
X158654661Y-68842843D01*
X158653876Y-68845742D01*
X158642302Y-68873662D01*
X158642295Y-68873740D01*
X158562902Y-69068560D01*
X158562897Y-69068572D01*
X158562895Y-69068579D01*
X158562885Y-69068607D01*
X158562881Y-69068620D01*
X158494612Y-69273486D01*
X158494610Y-69273493D01*
X158494607Y-69273507D01*
X158476618Y-69412493D01*
X158475162Y-69416816D01*
X158474058Y-69418739D01*
X158467690Y-69423987D01*
X158467333Y-69424109D01*
X158466556Y-69424373D01*
X158462780Y-69425000D01*
X157987933Y-69425000D01*
X157983455Y-69424109D01*
X157981501Y-69423299D01*
X157975401Y-69417488D01*
X157974828Y-69416275D01*
X157973763Y-69412424D01*
X157971064Y-69384997D01*
X157963975Y-69312946D01*
X157931550Y-69190856D01*
X157806392Y-68870520D01*
X157806378Y-68870487D01*
X157796431Y-68846488D01*
X157795539Y-68842012D01*
X157795538Y-68839328D01*
X157795541Y-68839323D01*
X157797937Y-68832230D01*
X157798249Y-68831820D01*
X157798930Y-68831132D01*
X157798962Y-68831057D01*
X157799036Y-68831026D01*
X157800356Y-68829694D01*
X158215977Y-68506024D01*
X158220054Y-68503978D01*
X158221474Y-68503587D01*
X158222573Y-68503285D01*
X158230159Y-68503757D01*
G37*
%TD.AperFunction*%
%TD*%
%TA.AperFunction,Conductor*%
%TO.N,+3V3*%
G36*
X158465740Y-68903456D02*
G01*
X158467468Y-68904172D01*
X158473740Y-68910362D01*
X158474400Y-68911900D01*
X158475346Y-68916221D01*
X158480827Y-69132559D01*
X158480496Y-69133464D01*
X158502386Y-69315482D01*
X158520524Y-69447010D01*
X158520255Y-69451562D01*
X158519800Y-69453306D01*
X158514419Y-69460432D01*
X158514396Y-69460445D01*
X158514395Y-69460446D01*
X158512907Y-69461323D01*
X158508631Y-69462824D01*
X158227492Y-69503208D01*
X158225828Y-69503327D01*
X158224172Y-69503327D01*
X158222508Y-69503208D01*
X157941385Y-69462826D01*
X157937081Y-69461309D01*
X157935533Y-69460391D01*
X157930173Y-69453256D01*
X157929732Y-69451549D01*
X157929471Y-69447031D01*
X157947283Y-69317867D01*
X157948481Y-69314448D01*
X157948066Y-69312045D01*
X157951707Y-69281653D01*
X157969109Y-69136443D01*
X157974654Y-68916296D01*
X157975658Y-68911842D01*
X157976416Y-68910136D01*
X157982768Y-68904022D01*
X157984320Y-68903402D01*
X157988660Y-68902567D01*
X158461266Y-68902567D01*
X158465740Y-68903456D01*
G37*
%TD.AperFunction*%
%TD*%
%TA.AperFunction,Conductor*%
%TO.N,+3V3*%
G36*
X162468737Y-73512707D02*
G01*
X162471286Y-73516755D01*
X162483361Y-73549216D01*
X162491281Y-73570506D01*
X162491282Y-73570507D01*
X162530545Y-73622762D01*
X162579864Y-73659411D01*
X162579866Y-73659412D01*
X162579870Y-73659415D01*
X162636288Y-73683115D01*
X162758514Y-73702251D01*
X162873451Y-73701355D01*
X162912993Y-73700315D01*
X162921353Y-73703523D01*
X162924996Y-73711703D01*
X162925000Y-73712011D01*
X162925000Y-74187063D01*
X162921573Y-74195336D01*
X162913300Y-74198763D01*
X162912128Y-74198704D01*
X162742205Y-74181603D01*
X162742018Y-74181583D01*
X162563328Y-74160691D01*
X162406664Y-74159589D01*
X162406661Y-74159590D01*
X162308708Y-74182511D01*
X162308706Y-74182512D01*
X162258459Y-74218876D01*
X162249748Y-74220951D01*
X162242958Y-74217285D01*
X162006667Y-73958400D01*
X162003622Y-73949982D01*
X162007182Y-73942099D01*
X162452194Y-73512416D01*
X162460525Y-73509136D01*
X162468737Y-73512707D01*
G37*
%TD.AperFunction*%
%TD*%
%TA.AperFunction,Conductor*%
%TO.N,+3V3*%
G36*
X163859460Y-73655526D02*
G01*
X164080492Y-73784659D01*
X164346208Y-73939898D01*
X164351623Y-73947030D01*
X164350408Y-73955902D01*
X164346208Y-73960102D01*
X163859208Y-74244619D01*
X163850336Y-74245834D01*
X163843792Y-74241326D01*
X163824471Y-74214329D01*
X163799164Y-74195984D01*
X163790852Y-74189959D01*
X163718770Y-74171643D01*
X163705839Y-74168357D01*
X163607967Y-74171643D01*
X163607946Y-74171645D01*
X163510325Y-74186247D01*
X163510041Y-74186286D01*
X163413147Y-74198361D01*
X163404513Y-74195984D01*
X163400090Y-74188198D01*
X163400000Y-74186751D01*
X163400000Y-73713248D01*
X163403427Y-73704975D01*
X163411700Y-73701548D01*
X163413140Y-73701637D01*
X163510080Y-73713718D01*
X163510271Y-73713744D01*
X163620910Y-73729709D01*
X163730617Y-73728826D01*
X163803056Y-73702940D01*
X163829412Y-73680467D01*
X163843866Y-73659077D01*
X163851336Y-73654142D01*
X163859460Y-73655526D01*
G37*
%TD.AperFunction*%
%TD*%
%TA.AperFunction,Conductor*%
%TO.N,+3V3*%
G36*
X158232187Y-70504597D02*
G01*
X158637772Y-70820450D01*
X158650840Y-70830627D01*
X158655262Y-70838414D01*
X158654459Y-70844338D01*
X158643620Y-70870486D01*
X158643621Y-70870487D01*
X158562895Y-71068579D01*
X158562885Y-71068607D01*
X158494611Y-71273491D01*
X158494610Y-71273495D01*
X158476320Y-71414802D01*
X158471860Y-71422567D01*
X158464717Y-71425000D01*
X157985606Y-71425000D01*
X157977333Y-71421573D01*
X157973962Y-71414446D01*
X157971064Y-71384997D01*
X157963975Y-71312946D01*
X157931550Y-71190856D01*
X157806392Y-70870520D01*
X157795540Y-70844338D01*
X157795538Y-70835383D01*
X157799157Y-70830628D01*
X158217811Y-70504597D01*
X158226444Y-70502218D01*
X158232187Y-70504597D01*
G37*
%TD.AperFunction*%
%TD*%
%TA.AperFunction,Conductor*%
%TO.N,+3V3*%
G36*
X151651563Y-63404742D02*
G01*
X151653308Y-63405198D01*
X151660430Y-63410578D01*
X151661323Y-63412091D01*
X151662824Y-63416367D01*
X151703208Y-63697507D01*
X151703327Y-63699171D01*
X151703327Y-63700828D01*
X151703208Y-63702492D01*
X151662826Y-63983613D01*
X151661309Y-63987917D01*
X151660391Y-63989465D01*
X151653255Y-63994825D01*
X151651553Y-63995265D01*
X151647027Y-63995527D01*
X151515561Y-63977397D01*
X151515549Y-63977390D01*
X151515538Y-63977394D01*
X151515488Y-63977387D01*
X151515488Y-63977384D01*
X151515462Y-63977383D01*
X151513697Y-63977132D01*
X151513683Y-63977130D01*
X151431416Y-63967271D01*
X151336464Y-63955891D01*
X151336451Y-63955890D01*
X151336432Y-63955889D01*
X151116298Y-63950345D01*
X151111848Y-63949343D01*
X151110142Y-63948586D01*
X151104021Y-63942230D01*
X151103401Y-63940677D01*
X151102567Y-63936339D01*
X151102567Y-63463734D01*
X151103455Y-63459262D01*
X151104172Y-63457531D01*
X151110361Y-63451259D01*
X151111903Y-63450597D01*
X151116215Y-63449654D01*
X151337167Y-63444056D01*
X151515478Y-63422614D01*
X151647011Y-63404474D01*
X151651563Y-63404742D01*
G37*
%TD.AperFunction*%
%TD*%
%TA.AperFunction,Conductor*%
%TO.N,+3V3*%
G36*
X158639800Y-67585836D02*
G01*
X158640621Y-67586176D01*
X158641450Y-67586519D01*
X158644160Y-67589231D01*
X158647777Y-67592845D01*
X158647779Y-67592850D01*
X158647780Y-67592852D01*
X158648350Y-67594229D01*
X158649223Y-67599334D01*
X158640914Y-67753312D01*
X158640906Y-67753445D01*
X158640896Y-67753598D01*
X158640892Y-67753660D01*
X158635639Y-67827922D01*
X158629129Y-68054421D01*
X158644995Y-68184046D01*
X158645005Y-68184078D01*
X158645083Y-68184241D01*
X158671275Y-68241813D01*
X158672318Y-68246258D01*
X158672432Y-68249594D01*
X158670337Y-68256686D01*
X158509552Y-68487298D01*
X158506259Y-68490462D01*
X158504760Y-68491421D01*
X158495944Y-68492992D01*
X158495943Y-68492992D01*
X158495024Y-68492790D01*
X158489034Y-68489401D01*
X158068963Y-68045058D01*
X158066535Y-68041194D01*
X158066011Y-68039822D01*
X158066261Y-68030871D01*
X158072323Y-68024898D01*
X158072390Y-68024869D01*
X158073326Y-68024467D01*
X158077313Y-68023535D01*
X158085093Y-68023119D01*
X158133611Y-68010715D01*
X158176490Y-67988247D01*
X158185741Y-67980252D01*
X158222745Y-67948280D01*
X158222746Y-67948278D01*
X158222749Y-67948276D01*
X158260990Y-67898258D01*
X158297001Y-67827922D01*
X158300742Y-67820614D01*
X158300744Y-67820610D01*
X158300744Y-67820609D01*
X158300746Y-67820606D01*
X158328012Y-67738564D01*
X158344752Y-67654765D01*
X158349011Y-67598085D01*
X158350233Y-67593694D01*
X158351153Y-67591873D01*
X158357532Y-67586177D01*
X158358893Y-67585673D01*
X158362954Y-67584946D01*
X158635325Y-67584946D01*
X158639800Y-67585836D01*
G37*
%TD.AperFunction*%
%TD*%
%TA.AperFunction,Conductor*%
%TO.N,+3V3*%
G36*
X160022601Y-61405994D02*
G01*
X160026024Y-61413971D01*
X160031679Y-61637171D01*
X160031678Y-61637171D01*
X160053121Y-61815479D01*
X160071578Y-61949317D01*
X160069314Y-61957980D01*
X160061652Y-61962496D01*
X159777399Y-62003327D01*
X159774071Y-62003327D01*
X159489817Y-61962496D01*
X159482116Y-61957928D01*
X159479891Y-61949317D01*
X159498342Y-61815523D01*
X159498367Y-61815481D01*
X159498349Y-61815479D01*
X159498386Y-61815217D01*
X159498608Y-61813655D01*
X159519844Y-61636443D01*
X159525448Y-61413971D01*
X159529082Y-61405788D01*
X159537144Y-61402567D01*
X160014328Y-61402567D01*
X160022601Y-61405994D01*
G37*
%TD.AperFunction*%
%TD*%
%TA.AperFunction,Conductor*%
%TO.N,+3V3*%
G36*
X157465560Y-58300333D02*
G01*
X157472877Y-58303567D01*
X157473744Y-58303950D01*
X157474377Y-58304613D01*
X157477473Y-58310889D01*
X157480581Y-58330838D01*
X157480582Y-58330839D01*
X157495917Y-58354955D01*
X157496089Y-58355244D01*
X157496109Y-58355256D01*
X157496109Y-58355257D01*
X157519749Y-58369975D01*
X157532022Y-58372740D01*
X157549676Y-58376718D01*
X157621058Y-58373165D01*
X157695414Y-58358416D01*
X157695552Y-58358390D01*
X157695653Y-58358371D01*
X157695767Y-58358351D01*
X157759064Y-58347685D01*
X157763620Y-58347818D01*
X157765360Y-58348218D01*
X157772654Y-58353407D01*
X157773214Y-58354302D01*
X157775000Y-58360513D01*
X157775000Y-58828835D01*
X157774109Y-58833314D01*
X157773427Y-58834960D01*
X157767095Y-58841291D01*
X157766122Y-58841694D01*
X157759701Y-58842421D01*
X157695842Y-58831660D01*
X157695737Y-58831642D01*
X157695574Y-58831613D01*
X157695382Y-58831577D01*
X157616109Y-58816105D01*
X157537178Y-58815111D01*
X157493090Y-58837887D01*
X157479757Y-58861544D01*
X157477400Y-58878121D01*
X157475888Y-58882429D01*
X157474981Y-58883963D01*
X157467821Y-58889340D01*
X157467820Y-58889340D01*
X157466971Y-58889558D01*
X157459842Y-58889139D01*
X156729397Y-58606751D01*
X156725547Y-58604310D01*
X156724632Y-58603438D01*
X156721008Y-58595253D01*
X156724232Y-58586902D01*
X156724930Y-58586170D01*
X156729172Y-58583335D01*
X157459287Y-58301074D01*
X157463777Y-58300291D01*
X157465560Y-58300333D01*
G37*
%TD.AperFunction*%
%TD*%
%TA.AperFunction,Conductor*%
%TO.N,+3V3*%
G36*
X157932980Y-58301420D02*
G01*
X157937496Y-58309082D01*
X157978327Y-58593336D01*
X157978327Y-58596664D01*
X157937496Y-58880917D01*
X157932928Y-58888618D01*
X157924317Y-58890843D01*
X157790538Y-58872394D01*
X157790488Y-58872387D01*
X157788696Y-58872132D01*
X157788675Y-58872129D01*
X157706416Y-58862271D01*
X157611464Y-58850892D01*
X157611443Y-58850890D01*
X157388972Y-58845287D01*
X157380788Y-58841653D01*
X157377567Y-58833591D01*
X157377567Y-58356407D01*
X157380994Y-58348134D01*
X157388970Y-58344711D01*
X157612167Y-58339056D01*
X157790478Y-58317614D01*
X157924318Y-58299156D01*
X157932980Y-58301420D01*
G37*
%TD.AperFunction*%
%TD*%
%TA.AperFunction,Conductor*%
%TO.N,+BATT*%
G36*
X163981128Y-68607715D02*
G01*
X163982215Y-68608089D01*
X163987288Y-68611534D01*
X164008265Y-68635984D01*
X164075473Y-68703371D01*
X164128271Y-68745399D01*
X164141475Y-68755910D01*
X164141478Y-68755912D01*
X164151092Y-68761707D01*
X164161063Y-68767718D01*
X164210394Y-68797458D01*
X164277039Y-68825632D01*
X164353391Y-68844454D01*
X164353390Y-68844454D01*
X164358819Y-68844874D01*
X164411884Y-68848983D01*
X164416279Y-68850217D01*
X164418100Y-68851142D01*
X164423772Y-68857509D01*
X164424271Y-68858856D01*
X164425000Y-68862920D01*
X164425000Y-69136736D01*
X164424109Y-69141215D01*
X164423339Y-69143073D01*
X164417370Y-69149246D01*
X164416021Y-69149859D01*
X164411970Y-69150880D01*
X164362284Y-69154240D01*
X164362253Y-69154243D01*
X164237320Y-69189788D01*
X164237300Y-69189794D01*
X164174389Y-69222620D01*
X164174310Y-69222660D01*
X164174288Y-69222673D01*
X164109544Y-69267888D01*
X164109536Y-69267894D01*
X164043967Y-69326401D01*
X163987732Y-69388568D01*
X163984068Y-69391291D01*
X163982459Y-69392054D01*
X163973518Y-69392503D01*
X163972346Y-69392085D01*
X163967509Y-69388813D01*
X163632383Y-69009489D01*
X163630087Y-69005546D01*
X163629372Y-69003464D01*
X163629629Y-68995184D01*
X163630100Y-68994048D01*
X163632137Y-68990789D01*
X163748698Y-68858856D01*
X163966956Y-68611811D01*
X163970584Y-68609049D01*
X163971199Y-68608748D01*
X163972182Y-68608267D01*
X163981116Y-68607711D01*
X163981128Y-68607715D01*
G37*
%TD.AperFunction*%
%TD*%
%TA.AperFunction,Conductor*%
%TO.N,+5V*%
G36*
X159957654Y-73506625D02*
G01*
X159962498Y-73514156D01*
X159962566Y-73514574D01*
X160003327Y-73798336D01*
X160003327Y-73801664D01*
X159962640Y-74084910D01*
X159958072Y-74092611D01*
X159949395Y-74094827D01*
X159948497Y-74094662D01*
X159805316Y-74062531D01*
X159803292Y-74061879D01*
X159699544Y-74017671D01*
X159699091Y-74017466D01*
X159691302Y-74013733D01*
X159684437Y-74010443D01*
X159684424Y-74010438D01*
X159569496Y-73967279D01*
X159569493Y-73967278D01*
X159569492Y-73967278D01*
X159550319Y-73963962D01*
X159496532Y-73954660D01*
X159413687Y-73950551D01*
X159405594Y-73946718D01*
X159402567Y-73938865D01*
X159402567Y-73661077D01*
X159405994Y-73652804D01*
X159413625Y-73649395D01*
X159504454Y-73644427D01*
X159581854Y-73629509D01*
X159699313Y-73582427D01*
X159795369Y-73540862D01*
X159796684Y-73540386D01*
X159867544Y-73519507D01*
X159868757Y-73519220D01*
X159948905Y-73504725D01*
X159957654Y-73506625D01*
G37*
%TD.AperFunction*%
%TD*%
%TA.AperFunction,Conductor*%
%TO.N,+5V*%
G36*
X168669372Y-73349159D02*
G01*
X168995401Y-73767811D01*
X168997781Y-73776444D01*
X168995401Y-73782189D01*
X168669372Y-74200840D01*
X168661585Y-74205262D01*
X168655661Y-74204459D01*
X168629513Y-74193621D01*
X168431420Y-74112895D01*
X168431392Y-74112885D01*
X168328590Y-74078628D01*
X168226512Y-74044612D01*
X168226510Y-74044611D01*
X168226508Y-74044611D01*
X168226504Y-74044610D01*
X168085198Y-74026320D01*
X168077433Y-74021860D01*
X168075000Y-74014717D01*
X168075000Y-73535605D01*
X168078427Y-73527332D01*
X168085552Y-73523961D01*
X168187054Y-73513975D01*
X168309144Y-73481550D01*
X168629480Y-73356392D01*
X168655661Y-73345539D01*
X168664616Y-73345538D01*
X168669372Y-73349159D01*
G37*
%TD.AperFunction*%
%TD*%
%TA.AperFunction,Conductor*%
%TO.N,+5V*%
G36*
X168467605Y-73528536D02*
G01*
X168471273Y-73536705D01*
X168471278Y-73537048D01*
X168471278Y-74013855D01*
X168467851Y-74022128D01*
X168460146Y-74025541D01*
X168368182Y-74030011D01*
X168293621Y-74044505D01*
X168175036Y-74098688D01*
X168026542Y-74171415D01*
X168017605Y-74171977D01*
X168010889Y-74166054D01*
X168010385Y-74164865D01*
X167967131Y-74044505D01*
X167870855Y-73776607D01*
X167870184Y-73773291D01*
X167861411Y-73612974D01*
X167864381Y-73604528D01*
X167871114Y-73600806D01*
X168106515Y-73560458D01*
X168200463Y-73542474D01*
X168201320Y-73542343D01*
X168311590Y-73529728D01*
X168312549Y-73529659D01*
X168459236Y-73525353D01*
X168467605Y-73528536D01*
G37*
%TD.AperFunction*%
%TD*%
%TA.AperFunction,Conductor*%
%TO.N,+5V*%
G36*
X167457344Y-71706769D02*
G01*
X167462341Y-71714199D01*
X167462473Y-71714992D01*
X167506471Y-72049996D01*
X167537552Y-72285282D01*
X167535238Y-72293932D01*
X167527485Y-72298413D01*
X167526945Y-72298472D01*
X167317536Y-72316292D01*
X167316070Y-72316324D01*
X167162400Y-72310092D01*
X167162400Y-72310093D01*
X166916713Y-72300441D01*
X166908580Y-72296692D01*
X166905472Y-72288750D01*
X166905472Y-71810908D01*
X166908899Y-71802635D01*
X166916352Y-71799237D01*
X166986839Y-71794297D01*
X167090470Y-71787036D01*
X167090473Y-71787035D01*
X167090476Y-71787035D01*
X167214541Y-71756107D01*
X167255975Y-71743989D01*
X167256897Y-71743762D01*
X167448557Y-71705048D01*
X167457344Y-71706769D01*
G37*
%TD.AperFunction*%
%TD*%
%TA.AperFunction,Conductor*%
%TO.N,+5V*%
G36*
X167156207Y-73658673D02*
G01*
X167175528Y-73685670D01*
X167175529Y-73685670D01*
X167175530Y-73685672D01*
X167209148Y-73710041D01*
X167294158Y-73731642D01*
X167294159Y-73731641D01*
X167294160Y-73731642D01*
X167308141Y-73731172D01*
X167392044Y-73728356D01*
X167489730Y-73713744D01*
X167489904Y-73713720D01*
X167586854Y-73701638D01*
X167595487Y-73704015D01*
X167599910Y-73711801D01*
X167600000Y-73713248D01*
X167600000Y-74186751D01*
X167596573Y-74195024D01*
X167588300Y-74198451D01*
X167586853Y-74198361D01*
X167489937Y-74186283D01*
X167489713Y-74186253D01*
X167379092Y-74170291D01*
X167379090Y-74170291D01*
X167269383Y-74171174D01*
X167229104Y-74185567D01*
X167196946Y-74197059D01*
X167196944Y-74197059D01*
X167170587Y-74219533D01*
X167156134Y-74240921D01*
X167148662Y-74245857D01*
X167140538Y-74244472D01*
X166653791Y-73960102D01*
X166648376Y-73952970D01*
X166649591Y-73944098D01*
X166653791Y-73939898D01*
X167015881Y-73728356D01*
X167140791Y-73655379D01*
X167149663Y-73654165D01*
X167156207Y-73658673D01*
G37*
%TD.AperFunction*%
%TD*%
%TA.AperFunction,Conductor*%
%TO.N,+5V*%
G36*
X167857344Y-73606769D02*
G01*
X167862341Y-73614199D01*
X167862473Y-73614992D01*
X167906471Y-73949996D01*
X167937552Y-74185282D01*
X167935238Y-74193932D01*
X167927485Y-74198413D01*
X167926945Y-74198472D01*
X167717536Y-74216292D01*
X167716070Y-74216324D01*
X167562400Y-74210092D01*
X167562400Y-74210093D01*
X167316713Y-74200441D01*
X167308580Y-74196692D01*
X167305472Y-74188750D01*
X167305472Y-73710908D01*
X167308899Y-73702635D01*
X167316352Y-73699237D01*
X167386839Y-73694297D01*
X167490470Y-73687036D01*
X167490473Y-73687035D01*
X167490476Y-73687035D01*
X167614541Y-73656107D01*
X167655975Y-73643989D01*
X167656897Y-73643762D01*
X167848557Y-73605048D01*
X167857344Y-73606769D01*
G37*
%TD.AperFunction*%
%TD*%
%TA.AperFunction,Conductor*%
%TO.N,/DRV1_ISENSE*%
G36*
X156709294Y-62418566D02*
G01*
X156715378Y-62424462D01*
X156837534Y-62690351D01*
X156837874Y-62699299D01*
X156831786Y-62705867D01*
X156828250Y-62706857D01*
X156765061Y-62714186D01*
X156765055Y-62714188D01*
X156687285Y-62739342D01*
X156687275Y-62739346D01*
X156612073Y-62776850D01*
X156612068Y-62776853D01*
X156540549Y-62823098D01*
X156540547Y-62823100D01*
X156413091Y-62927355D01*
X156322204Y-63015204D01*
X156313874Y-63018489D01*
X156305800Y-63015064D01*
X156109637Y-62818901D01*
X156106210Y-62810628D01*
X156109199Y-62802817D01*
X156124369Y-62785901D01*
X156138540Y-62751522D01*
X156138539Y-62751520D01*
X156138540Y-62751519D01*
X156133040Y-62735596D01*
X156133039Y-62735593D01*
X156114997Y-62721783D01*
X156114995Y-62721782D01*
X156070569Y-62709599D01*
X156070562Y-62709597D01*
X156047046Y-62708152D01*
X156038999Y-62704224D01*
X156036086Y-62695756D01*
X156040014Y-62687709D01*
X156043350Y-62685639D01*
X156700340Y-62418508D01*
X156709294Y-62418566D01*
G37*
%TD.AperFunction*%
%TD*%
%TA.AperFunction,Conductor*%
%TO.N,/DRV1_ISENSE*%
G36*
X155381102Y-63547496D02*
G01*
X155577383Y-63743777D01*
X155580810Y-63752050D01*
X155577670Y-63760026D01*
X155519590Y-63822363D01*
X155382745Y-64002825D01*
X155382743Y-64002828D01*
X155287234Y-64177330D01*
X155287232Y-64177335D01*
X155236386Y-64331890D01*
X155226352Y-64449782D01*
X155222236Y-64457735D01*
X155213702Y-64460448D01*
X155210240Y-64459609D01*
X154830155Y-64303122D01*
X154823809Y-64296803D01*
X154823113Y-64294477D01*
X154800956Y-64177335D01*
X154737175Y-63840127D01*
X154739004Y-63831363D01*
X154746497Y-63826458D01*
X154749649Y-63826295D01*
X154824551Y-63832617D01*
X154903755Y-63822055D01*
X154954561Y-63807074D01*
X154983146Y-63798646D01*
X154983148Y-63798645D01*
X154983152Y-63798644D01*
X155086807Y-63751988D01*
X155183945Y-63693753D01*
X155290737Y-63614199D01*
X155364986Y-63547088D01*
X155373419Y-63544084D01*
X155381102Y-63547496D01*
G37*
%TD.AperFunction*%
%TD*%
%TA.AperFunction,Conductor*%
%TO.N,/DRV1_IN1*%
G36*
X157466025Y-59570154D02*
G01*
X157469645Y-59571755D01*
X157474210Y-59573774D01*
X157474911Y-59574509D01*
X157477935Y-59580388D01*
X157484446Y-59614498D01*
X157484448Y-59614505D01*
X157484452Y-59614514D01*
X157509617Y-59651045D01*
X157509868Y-59651470D01*
X157510081Y-59651718D01*
X157510082Y-59651719D01*
X157525703Y-59662757D01*
X157547812Y-59678379D01*
X157593556Y-59696250D01*
X157593558Y-59696250D01*
X157593560Y-59696251D01*
X157593559Y-59696251D01*
X157594557Y-59696416D01*
X157594560Y-59696417D01*
X157643153Y-59704453D01*
X157692750Y-59712656D01*
X157761310Y-59714609D01*
X157765755Y-59715627D01*
X157767473Y-59716396D01*
X157773557Y-59722745D01*
X157774170Y-59724285D01*
X157775000Y-59728612D01*
X157775000Y-60001780D01*
X157774109Y-60006257D01*
X157773334Y-60008128D01*
X157767380Y-60014296D01*
X157766049Y-60014903D01*
X157762030Y-60015928D01*
X157628188Y-60025521D01*
X157542619Y-60054411D01*
X157542582Y-60054434D01*
X157542393Y-60054614D01*
X157493112Y-60099038D01*
X157479764Y-60128847D01*
X157477247Y-60147942D01*
X157475778Y-60152266D01*
X157474886Y-60153810D01*
X157467783Y-60159258D01*
X157467780Y-60159258D01*
X157467780Y-60159259D01*
X157467779Y-60159258D01*
X157466962Y-60159478D01*
X157459715Y-60159090D01*
X156729397Y-59876751D01*
X156725547Y-59874310D01*
X156724632Y-59873438D01*
X156721008Y-59865253D01*
X156724232Y-59856902D01*
X156724930Y-59856170D01*
X156729172Y-59853335D01*
X157459750Y-59570895D01*
X157464240Y-59570112D01*
X157466025Y-59570154D01*
G37*
%TD.AperFunction*%
%TD*%
%TA.AperFunction,Conductor*%
%TO.N,/BATT_SENSE*%
G36*
X161452999Y-68216428D02*
G01*
X161456661Y-68218706D01*
X161523912Y-68280344D01*
X161523923Y-68280353D01*
X161523930Y-68280358D01*
X161523936Y-68280363D01*
X161625192Y-68354163D01*
X161693820Y-68404183D01*
X161854863Y-68485903D01*
X161854866Y-68485904D01*
X161948799Y-68511597D01*
X161995296Y-68524315D01*
X162098390Y-68524900D01*
X162102858Y-68525816D01*
X162104500Y-68526507D01*
X162110794Y-68532873D01*
X162111110Y-68533648D01*
X162111613Y-68540957D01*
X162002868Y-68967232D01*
X162000897Y-68971352D01*
X161998845Y-68974093D01*
X161993134Y-68978196D01*
X161592286Y-69110000D01*
X161587751Y-69110552D01*
X161585975Y-69110418D01*
X161577989Y-69106386D01*
X161577529Y-69105851D01*
X161574698Y-69098422D01*
X161573341Y-69020406D01*
X161555463Y-68931798D01*
X161524842Y-68843688D01*
X161469879Y-68731312D01*
X161469844Y-68731240D01*
X161469697Y-68731020D01*
X161404163Y-68626474D01*
X161404148Y-68626452D01*
X161404134Y-68626432D01*
X161316554Y-68511621D01*
X161316534Y-68511597D01*
X161243749Y-68431761D01*
X161241392Y-68427856D01*
X161240734Y-68426033D01*
X161241034Y-68417332D01*
X161241674Y-68415884D01*
X161244098Y-68412346D01*
X161437225Y-68219219D01*
X161441015Y-68216686D01*
X161442804Y-68215945D01*
X161451516Y-68215852D01*
X161452999Y-68216428D01*
G37*
%TD.AperFunction*%
%TD*%
%TA.AperFunction,Conductor*%
%TO.N,/BATT_SENSE*%
G36*
X161982902Y-69006240D02*
G01*
X162353433Y-69345725D01*
X162357218Y-69353841D01*
X162356120Y-69359324D01*
X162290472Y-69499179D01*
X162290110Y-69499886D01*
X162224510Y-69618043D01*
X162143273Y-69777980D01*
X162126796Y-69865466D01*
X162121897Y-69872961D01*
X162115298Y-69875000D01*
X161835355Y-69875000D01*
X161827082Y-69871573D01*
X161823742Y-69864722D01*
X161817483Y-69813607D01*
X161817480Y-69813597D01*
X161815176Y-69806839D01*
X161796659Y-69752515D01*
X161725490Y-69618046D01*
X161691243Y-69557770D01*
X161690912Y-69557143D01*
X161662872Y-69499886D01*
X161594072Y-69359396D01*
X161593512Y-69350460D01*
X161596675Y-69345625D01*
X161967097Y-69006240D01*
X161975511Y-69003179D01*
X161982902Y-69006240D01*
G37*
%TD.AperFunction*%
%TD*%
%TA.AperFunction,Conductor*%
%TO.N,/BATT_SENSE*%
G36*
X162122918Y-69728427D02*
G01*
X162126258Y-69735278D01*
X162132516Y-69786392D01*
X162132519Y-69786402D01*
X162153339Y-69847480D01*
X162153344Y-69847491D01*
X162224504Y-69981943D01*
X162258752Y-70042222D01*
X162259087Y-70042856D01*
X162355926Y-70240602D01*
X162356487Y-70249539D01*
X162353322Y-70254375D01*
X161982904Y-70593758D01*
X161974489Y-70596820D01*
X161967096Y-70593758D01*
X161819296Y-70458342D01*
X161596565Y-70254273D01*
X161592781Y-70246158D01*
X161593878Y-70240677D01*
X161659531Y-70100811D01*
X161659889Y-70100113D01*
X161725489Y-69981956D01*
X161726758Y-69979456D01*
X161806727Y-69822019D01*
X161823204Y-69734533D01*
X161828103Y-69727039D01*
X161834702Y-69725000D01*
X162114645Y-69725000D01*
X162122918Y-69728427D01*
G37*
%TD.AperFunction*%
%TD*%
%TA.AperFunction,Conductor*%
%TO.N,/RX_CH2*%
G36*
X146148071Y-72003427D02*
G01*
X146151389Y-72010107D01*
X146159984Y-72072652D01*
X146159984Y-72072653D01*
X146187506Y-72143520D01*
X146187514Y-72143535D01*
X146280607Y-72295522D01*
X146378566Y-72449371D01*
X146379165Y-72450429D01*
X146478183Y-72648748D01*
X146478812Y-72657680D01*
X146477888Y-72659753D01*
X146010173Y-73483092D01*
X146003107Y-73488593D01*
X145994221Y-73487486D01*
X145989827Y-73483092D01*
X145522108Y-72659748D01*
X145521001Y-72650862D01*
X145521807Y-72648756D01*
X145619654Y-72452447D01*
X145620238Y-72451413D01*
X145719391Y-72295524D01*
X145771531Y-72215778D01*
X145831576Y-72099166D01*
X145848223Y-72009562D01*
X145853103Y-72002055D01*
X145859726Y-72000000D01*
X146139798Y-72000000D01*
X146148071Y-72003427D01*
G37*
%TD.AperFunction*%
%TD*%
%TA.AperFunction,Conductor*%
%TO.N,/RX_CH1*%
G36*
X148648071Y-72003427D02*
G01*
X148651389Y-72010107D01*
X148659984Y-72072652D01*
X148659984Y-72072653D01*
X148687506Y-72143520D01*
X148687514Y-72143535D01*
X148780607Y-72295522D01*
X148878566Y-72449371D01*
X148879165Y-72450429D01*
X148978183Y-72648748D01*
X148978812Y-72657680D01*
X148977888Y-72659753D01*
X148510173Y-73483092D01*
X148503107Y-73488593D01*
X148494221Y-73487486D01*
X148489827Y-73483092D01*
X148022108Y-72659748D01*
X148021001Y-72650862D01*
X148021807Y-72648756D01*
X148119654Y-72452447D01*
X148120238Y-72451413D01*
X148219391Y-72295524D01*
X148271531Y-72215778D01*
X148331576Y-72099166D01*
X148348223Y-72009562D01*
X148353103Y-72002055D01*
X148359726Y-72000000D01*
X148639798Y-72000000D01*
X148648071Y-72003427D01*
G37*
%TD.AperFunction*%
%TD*%
%TA.AperFunction,Conductor*%
%TO.N,/LED*%
G36*
X156148163Y-71340927D02*
G01*
X156151466Y-71347503D01*
X156162352Y-71421774D01*
X156162353Y-71421777D01*
X156197260Y-71507027D01*
X156197261Y-71507029D01*
X156321869Y-71704434D01*
X156431456Y-71869720D01*
X156433172Y-71878509D01*
X156428814Y-71885478D01*
X156007109Y-72208061D01*
X155998455Y-72210366D01*
X155992891Y-72208061D01*
X155571185Y-71885478D01*
X155566696Y-71877730D01*
X155568543Y-71869720D01*
X155678136Y-71704426D01*
X155678144Y-71704414D01*
X155768342Y-71567664D01*
X155831038Y-71442396D01*
X155834766Y-71421776D01*
X155848261Y-71347119D01*
X155853104Y-71339587D01*
X155859774Y-71337500D01*
X156139890Y-71337500D01*
X156148163Y-71340927D01*
G37*
%TD.AperFunction*%
%TD*%
%TA.AperFunction,Conductor*%
%TO.N,Net-(D2-A)*%
G36*
X156348302Y-73370669D02*
G01*
X156364911Y-73378670D01*
X156508758Y-73447971D01*
X156509600Y-73448421D01*
X156642536Y-73526740D01*
X156694256Y-73558152D01*
X156815197Y-73619175D01*
X156902965Y-73635704D01*
X156910461Y-73640603D01*
X156912500Y-73647202D01*
X156912500Y-73927210D01*
X156909073Y-73935483D01*
X156902295Y-73938814D01*
X156847163Y-73945918D01*
X156847160Y-73945919D01*
X156782721Y-73969175D01*
X156782709Y-73969181D01*
X156642557Y-74048248D01*
X156642536Y-74048260D01*
X156591481Y-74078823D01*
X156543781Y-74107379D01*
X156542963Y-74107825D01*
X156348351Y-74204194D01*
X156339416Y-74204794D01*
X156334068Y-74201074D01*
X156258158Y-74107379D01*
X156004965Y-73794863D01*
X156002421Y-73786280D01*
X156004965Y-73780137D01*
X156334134Y-73373844D01*
X156342004Y-73369574D01*
X156348302Y-73370669D01*
G37*
%TD.AperFunction*%
%TD*%
%TA.AperFunction,Conductor*%
%TO.N,Net-(D2-A)*%
G36*
X157338599Y-73396385D02*
G01*
X157339038Y-73396866D01*
X157669249Y-73779674D01*
X157672058Y-73788177D01*
X157669068Y-73795164D01*
X157323823Y-74176918D01*
X157315732Y-74180755D01*
X157307297Y-74177748D01*
X157305750Y-74176043D01*
X157287100Y-74150915D01*
X157229716Y-74086537D01*
X157229713Y-74086534D01*
X157215782Y-74074488D01*
X157171267Y-74035996D01*
X157105086Y-73993702D01*
X157105087Y-73993702D01*
X157105085Y-73993701D01*
X157063644Y-73975434D01*
X157039755Y-73964904D01*
X157039753Y-73964903D01*
X157039752Y-73964903D01*
X157039748Y-73964901D01*
X156954023Y-73943427D01*
X156954010Y-73943425D01*
X156885825Y-73938311D01*
X156877831Y-73934275D01*
X156875000Y-73926644D01*
X156875000Y-73648852D01*
X156878427Y-73640579D01*
X156886345Y-73637157D01*
X156899576Y-73636758D01*
X156899581Y-73636757D01*
X156899588Y-73636757D01*
X156961082Y-73628319D01*
X156961086Y-73628317D01*
X156961093Y-73628317D01*
X157025384Y-73609380D01*
X157093841Y-73578034D01*
X157165884Y-73533066D01*
X157246016Y-73469443D01*
X157322056Y-73396087D01*
X157330389Y-73392810D01*
X157338599Y-73396385D01*
G37*
%TD.AperFunction*%
%TD*%
%TA.AperFunction,Conductor*%
%TO.N,/DRV2_IN2*%
G36*
X162540281Y-59570907D02*
G01*
X163270601Y-59853248D01*
X163274450Y-59855688D01*
X163275366Y-59856561D01*
X163276764Y-59859721D01*
X163278990Y-59864746D01*
X163278989Y-59864747D01*
X163278990Y-59864748D01*
X163278493Y-59866034D01*
X163275764Y-59873100D01*
X163275763Y-59873101D01*
X163275073Y-59873825D01*
X163270822Y-59876666D01*
X162540253Y-60159102D01*
X162535758Y-60159886D01*
X162533976Y-60159844D01*
X162525787Y-60156223D01*
X162525085Y-60155488D01*
X162522063Y-60149613D01*
X162515550Y-60115492D01*
X162515549Y-60115491D01*
X162515549Y-60115488D01*
X162514948Y-60114615D01*
X162514947Y-60114614D01*
X162490381Y-60078953D01*
X162490129Y-60078528D01*
X162489916Y-60078279D01*
X162467808Y-60062659D01*
X162467807Y-60062658D01*
X162452189Y-60051621D01*
X162414556Y-60036919D01*
X162412254Y-60034708D01*
X162307459Y-60017378D01*
X162307298Y-60017348D01*
X162307247Y-60017342D01*
X162238694Y-60015389D01*
X162234245Y-60014372D01*
X162232528Y-60013603D01*
X162226437Y-60007243D01*
X162225824Y-60005702D01*
X162225000Y-60001388D01*
X162225000Y-59728218D01*
X162225889Y-59723746D01*
X162226228Y-59722924D01*
X162226664Y-59721873D01*
X162232617Y-59715703D01*
X162233950Y-59715095D01*
X162237968Y-59714070D01*
X162371813Y-59704477D01*
X162457382Y-59675587D01*
X162506887Y-59630963D01*
X162520236Y-59601147D01*
X162522752Y-59582050D01*
X162524220Y-59577731D01*
X162525113Y-59576185D01*
X162532207Y-59570742D01*
X162533033Y-59570521D01*
X162540281Y-59570907D01*
G37*
%TD.AperFunction*%
%TD*%
%TA.AperFunction,Conductor*%
%TO.N,/DRV2_IN1*%
G36*
X162538875Y-60840364D02*
G01*
X163272771Y-61124087D01*
X163279252Y-61130267D01*
X163279465Y-61139219D01*
X163273285Y-61145700D01*
X163272771Y-61145913D01*
X162538082Y-61429942D01*
X162529130Y-61429729D01*
X162522950Y-61423248D01*
X162522371Y-61421223D01*
X162515550Y-61385492D01*
X162515549Y-61385491D01*
X162515549Y-61385488D01*
X162489918Y-61348282D01*
X162489917Y-61348280D01*
X162467808Y-61332659D01*
X162452188Y-61321621D01*
X162406445Y-61303750D01*
X162406440Y-61303748D01*
X162406441Y-61303748D01*
X162307252Y-61287344D01*
X162307247Y-61287343D01*
X162236367Y-61285323D01*
X162228194Y-61281662D01*
X162225000Y-61273628D01*
X162225000Y-60995891D01*
X162228427Y-60987618D01*
X162235863Y-60984221D01*
X162371813Y-60974477D01*
X162457382Y-60945587D01*
X162506887Y-60900963D01*
X162520236Y-60871147D01*
X162523056Y-60849747D01*
X162527535Y-60841994D01*
X162536185Y-60839677D01*
X162538875Y-60840364D01*
G37*
%TD.AperFunction*%
%TD*%
%TA.AperFunction,Conductor*%
%TO.N,/~{RESET}*%
G36*
X146251498Y-66705336D02*
G01*
X146394690Y-66737470D01*
X146396701Y-66738118D01*
X146500476Y-66782337D01*
X146500888Y-66782523D01*
X146515566Y-66789558D01*
X146630509Y-66832722D01*
X146703473Y-66845340D01*
X146786314Y-66849448D01*
X146794406Y-66853281D01*
X146797433Y-66861134D01*
X146797433Y-67138922D01*
X146794006Y-67147195D01*
X146786372Y-67150605D01*
X146695545Y-67155573D01*
X146618142Y-67170491D01*
X146500687Y-67217571D01*
X146404642Y-67259132D01*
X146403303Y-67259617D01*
X146332462Y-67280489D01*
X146331237Y-67280779D01*
X146251096Y-67295273D01*
X146242345Y-67293373D01*
X146237501Y-67285842D01*
X146237433Y-67285424D01*
X146196672Y-67001664D01*
X146196672Y-66998336D01*
X146237359Y-66715088D01*
X146241927Y-66707388D01*
X146250604Y-66705172D01*
X146251498Y-66705336D01*
G37*
%TD.AperFunction*%
%TD*%
%TA.AperFunction,Conductor*%
%TO.N,/~{RESET}*%
G36*
X149051498Y-67205336D02*
G01*
X149194690Y-67237470D01*
X149196701Y-67238118D01*
X149300476Y-67282337D01*
X149300888Y-67282523D01*
X149315566Y-67289558D01*
X149430509Y-67332722D01*
X149503473Y-67345340D01*
X149586314Y-67349448D01*
X149594406Y-67353281D01*
X149597433Y-67361134D01*
X149597433Y-67638922D01*
X149594006Y-67647195D01*
X149586372Y-67650605D01*
X149495545Y-67655573D01*
X149418142Y-67670491D01*
X149300687Y-67717571D01*
X149204642Y-67759132D01*
X149203303Y-67759617D01*
X149132462Y-67780489D01*
X149131237Y-67780779D01*
X149051096Y-67795273D01*
X149042345Y-67793373D01*
X149037501Y-67785842D01*
X149037433Y-67785424D01*
X148996672Y-67501664D01*
X148996672Y-67498336D01*
X149037359Y-67215088D01*
X149041927Y-67207388D01*
X149050604Y-67205172D01*
X149051498Y-67205336D01*
G37*
%TD.AperFunction*%
%TD*%
%TA.AperFunction,Conductor*%
%TO.N,/~{RESET}*%
G36*
X154957654Y-67206625D02*
G01*
X154962498Y-67214156D01*
X154962566Y-67214574D01*
X155003327Y-67498336D01*
X155003327Y-67501664D01*
X154962640Y-67784910D01*
X154958072Y-67792611D01*
X154949395Y-67794827D01*
X154948497Y-67794662D01*
X154805316Y-67762531D01*
X154803292Y-67761879D01*
X154699544Y-67717671D01*
X154699091Y-67717466D01*
X154691302Y-67713733D01*
X154684437Y-67710443D01*
X154684424Y-67710438D01*
X154569496Y-67667279D01*
X154569493Y-67667278D01*
X154569492Y-67667278D01*
X154550319Y-67663962D01*
X154496532Y-67654660D01*
X154413687Y-67650551D01*
X154405594Y-67646718D01*
X154402567Y-67638865D01*
X154402567Y-67361077D01*
X154405994Y-67352804D01*
X154413625Y-67349395D01*
X154504454Y-67344427D01*
X154581854Y-67329509D01*
X154699313Y-67282427D01*
X154795369Y-67240862D01*
X154796684Y-67240386D01*
X154867544Y-67219507D01*
X154868757Y-67219220D01*
X154948905Y-67204725D01*
X154957654Y-67206625D01*
G37*
%TD.AperFunction*%
%TD*%
%TA.AperFunction,Conductor*%
%TO.N,/~{RESET}*%
G36*
X159244256Y-65327307D02*
G01*
X159244775Y-65328059D01*
X159323301Y-65452026D01*
X159324271Y-65453919D01*
X159366365Y-65558525D01*
X159366547Y-65559007D01*
X159371944Y-65574333D01*
X159397174Y-65629909D01*
X159422698Y-65686131D01*
X159422701Y-65686136D01*
X159465364Y-65746640D01*
X159465373Y-65746652D01*
X159521041Y-65808130D01*
X159524054Y-65816563D01*
X159520641Y-65824256D01*
X159324216Y-66020681D01*
X159315943Y-66024108D01*
X159308134Y-66021121D01*
X159275040Y-65991459D01*
X159240398Y-65960410D01*
X159240395Y-65960408D01*
X159240393Y-65960406D01*
X159175117Y-65916227D01*
X159058768Y-65866462D01*
X158961473Y-65827939D01*
X158960182Y-65827335D01*
X158895328Y-65792000D01*
X158894262Y-65791343D01*
X158827337Y-65744919D01*
X158822495Y-65737389D01*
X158824394Y-65728638D01*
X158824605Y-65728345D01*
X158996476Y-65498815D01*
X158998815Y-65496476D01*
X159227879Y-65324954D01*
X159236555Y-65322739D01*
X159244256Y-65327307D01*
G37*
%TD.AperFunction*%
%TD*%
%TA.AperFunction,Conductor*%
%TO.N,/SWDIO*%
G36*
X148296295Y-65371159D02*
G01*
X148296548Y-65371271D01*
X148414558Y-65425496D01*
X148415196Y-65425813D01*
X148510225Y-65477069D01*
X148510223Y-65477071D01*
X148510235Y-65477074D01*
X148579765Y-65514679D01*
X148652090Y-65541319D01*
X148705372Y-65560947D01*
X148731672Y-65564990D01*
X148797547Y-65575118D01*
X148907803Y-65579548D01*
X148915931Y-65583305D01*
X148919032Y-65591239D01*
X148919032Y-65868864D01*
X148915605Y-65877137D01*
X148907911Y-65880550D01*
X148776600Y-65887054D01*
X148673533Y-65907391D01*
X148591010Y-65939766D01*
X148510252Y-65982915D01*
X148486844Y-65995953D01*
X148486265Y-65996254D01*
X148296719Y-66088358D01*
X148287780Y-66088892D01*
X148281082Y-66082949D01*
X148280842Y-66082422D01*
X148132587Y-65734587D01*
X148132495Y-65725633D01*
X148132587Y-65725413D01*
X148189775Y-65591239D01*
X148280945Y-65377334D01*
X148287341Y-65371067D01*
X148296295Y-65371159D01*
G37*
%TD.AperFunction*%
%TD*%
M02*
