M48
; DRILL file KiCad 10.0.3 date 2026-09-02T13:41:26
; FORMAT={-:-/ absolute / metric / decimal}
; #@! TF.CreationDate,2026-09-02T13:41:26-04:00
; #@! TF.GenerationSoftware,Kicad,Pcbnew,10.0.3
; #@! TF.FileFunction,Plated,1,2,PTH
FMAT,2
METRIC
; #@! TA.AperFunction,Plated,PTH,ViaDrill
T1C0.300
%
G90
G05
T1
X146.0Y-56.0
X146.2Y-67.0
X146.2Y-68.3
X147.5Y-70.5
X148.4Y-56.0
X148.7Y-64.7
X149.0Y-67.5
X150.0Y-72.0
X150.0Y-74.0
X151.0Y-51.0
X151.0Y-55.0
X151.0Y-57.0
X151.7Y-63.7
X152.0Y-52.0
X152.0Y-56.0
X152.0Y-72.0
X152.0Y-74.0
X152.3Y-61.1
X152.6Y-64.9
X153.0Y-51.0
X153.0Y-55.0
X153.0Y-57.5
X153.5Y-72.0
X153.7Y-63.4
X154.0Y-52.0
X154.0Y-56.5
X155.0Y-51.0
X155.0Y-53.0
X155.0Y-55.5
X155.0Y-57.5
X155.5Y-67.5
X156.0Y-52.0
X156.0Y-54.5
X156.0Y-56.5
X157.0Y-51.0
X157.0Y-55.5
X157.0Y-57.5
X157.975Y-58.595
X158.0Y-52.0
X158.0Y-54.5
X158.0Y-56.5
X158.225Y-69.5
X159.0Y-51.0
X159.0Y-55.5
X159.0Y-57.5
X159.0Y-65.5
X159.776Y-62.0
X159.8Y-56.5
X160.0Y-52.0
X160.0Y-58.5
X160.5Y-54.5
X160.5Y-69.0
X160.5Y-70.5
X161.0Y-51.0
X161.0Y-57.4
X161.2Y-71.8
X161.7Y-67.4
X162.0Y-52.0
X162.0Y-54.5
X162.8Y-62.905
X163.0Y-51.0
X163.0Y-72.05
X163.5Y-54.5
X164.0Y-52.0
X164.0Y-64.0
X164.0Y-66.0
X164.3Y-70.6
X164.8Y-57.7
X165.0Y-51.0
X165.0Y-54.5
X165.0Y-65.0
X166.0Y-64.0
X166.0Y-66.0
X167.0Y-51.0
X167.5Y-52.0
X167.5Y-72.0
X167.6Y-53.1
X167.6Y-54.5
X167.9Y-73.9
X169.0Y-51.0
X169.0Y-54.1
X169.0Y-71.4
X169.5Y-56.0
X169.9Y-53.1
X171.0Y-65.0
X172.0Y-64.0
X172.0Y-66.0
X172.5Y-53.7
X172.5Y-56.3
X173.0Y-65.0
X173.0Y-67.0
X173.3Y-68.8
X174.0Y-64.0
X174.0Y-66.0
M30
