%TF.GenerationSoftware,KiCad,Pcbnew,10.0.3*%
%TF.CreationDate,2026-09-02T13:41:18-04:00*%
%TF.ProjectId,brushed-dual-esc,62727573-6865-4642-9d64-75616c2d6573,rev?*%
%TF.SameCoordinates,Original*%
%TF.FileFunction,Legend,Top*%
%TF.FilePolarity,Positive*%
%FSLAX46Y46*%
G04 Gerber Fmt 4.6, Leading zero omitted, Abs format (unit mm)*
G04 Created by KiCad (PCBNEW 10.0.3) date 2026-09-02 13:41:18*
%MOMM*%
%LPD*%
G01*
G04 APERTURE LIST*
%ADD10C,0.100000*%
%ADD11C,0.150000*%
%ADD12C,0.120000*%
G04 APERTURE END LIST*
D10*
X149250000Y-64500000D02*
X149250000Y-63800000D01*
X148600000Y-63800000D01*
X149250000Y-64500000D01*
G36*
X149250000Y-64500000D02*
G01*
X148600000Y-63800000D01*
X149250000Y-63800000D01*
X149250000Y-64500000D01*
G37*
X145750000Y-64500000D02*
X145750000Y-70250000D01*
X145750000Y-70250000D02*
X149250000Y-70250000D01*
X146500000Y-63750000D02*
X145750000Y-64500000D01*
X148500000Y-63750000D02*
X146500000Y-63750000D01*
X148500000Y-63750000D02*
X150600000Y-63750000D01*
X149250000Y-64500000D02*
X148500000Y-63750000D01*
X149250000Y-70250000D02*
X149250000Y-64500000D01*
X150600000Y-63750000D02*
X150600000Y-66800000D01*
X150600000Y-66800000D02*
X149300000Y-66800000D01*
D11*
X146690476Y-54789819D02*
X146690476Y-53789819D01*
X146690476Y-53789819D02*
X147023809Y-54504104D01*
X147023809Y-54504104D02*
X147357142Y-53789819D01*
X147357142Y-53789819D02*
X147357142Y-54789819D01*
X147785714Y-53885057D02*
X147833333Y-53837438D01*
X147833333Y-53837438D02*
X147928571Y-53789819D01*
X147928571Y-53789819D02*
X148166666Y-53789819D01*
X148166666Y-53789819D02*
X148261904Y-53837438D01*
X148261904Y-53837438D02*
X148309523Y-53885057D01*
X148309523Y-53885057D02*
X148357142Y-53980295D01*
X148357142Y-53980295D02*
X148357142Y-54075533D01*
X148357142Y-54075533D02*
X148309523Y-54218390D01*
X148309523Y-54218390D02*
X147738095Y-54789819D01*
X147738095Y-54789819D02*
X148357142Y-54789819D01*
X171690476Y-71269819D02*
X171690476Y-70269819D01*
X171690476Y-70269819D02*
X172023809Y-70984104D01*
X172023809Y-70984104D02*
X172357142Y-70269819D01*
X172357142Y-70269819D02*
X172357142Y-71269819D01*
X172785714Y-70365057D02*
X172833333Y-70317438D01*
X172833333Y-70317438D02*
X172928571Y-70269819D01*
X172928571Y-70269819D02*
X173166666Y-70269819D01*
X173166666Y-70269819D02*
X173261904Y-70317438D01*
X173261904Y-70317438D02*
X173309523Y-70365057D01*
X173309523Y-70365057D02*
X173357142Y-70460295D01*
X173357142Y-70460295D02*
X173357142Y-70555533D01*
X173357142Y-70555533D02*
X173309523Y-70698390D01*
X173309523Y-70698390D02*
X172738095Y-71269819D01*
X172738095Y-71269819D02*
X173357142Y-71269819D01*
X146407200Y-72210839D02*
X146454819Y-72067982D01*
X146454819Y-72067982D02*
X146454819Y-71829887D01*
X146454819Y-71829887D02*
X146407200Y-71734649D01*
X146407200Y-71734649D02*
X146359580Y-71687030D01*
X146359580Y-71687030D02*
X146264342Y-71639411D01*
X146264342Y-71639411D02*
X146169104Y-71639411D01*
X146169104Y-71639411D02*
X146073866Y-71687030D01*
X146073866Y-71687030D02*
X146026247Y-71734649D01*
X146026247Y-71734649D02*
X145978628Y-71829887D01*
X145978628Y-71829887D02*
X145931009Y-72020363D01*
X145931009Y-72020363D02*
X145883390Y-72115601D01*
X145883390Y-72115601D02*
X145835771Y-72163220D01*
X145835771Y-72163220D02*
X145740533Y-72210839D01*
X145740533Y-72210839D02*
X145645295Y-72210839D01*
X145645295Y-72210839D02*
X145550057Y-72163220D01*
X145550057Y-72163220D02*
X145502438Y-72115601D01*
X145502438Y-72115601D02*
X145454819Y-72020363D01*
X145454819Y-72020363D02*
X145454819Y-71782268D01*
X145454819Y-71782268D02*
X145502438Y-71639411D01*
X145550057Y-71258458D02*
X145502438Y-71210839D01*
X145502438Y-71210839D02*
X145454819Y-71115601D01*
X145454819Y-71115601D02*
X145454819Y-70877506D01*
X145454819Y-70877506D02*
X145502438Y-70782268D01*
X145502438Y-70782268D02*
X145550057Y-70734649D01*
X145550057Y-70734649D02*
X145645295Y-70687030D01*
X145645295Y-70687030D02*
X145740533Y-70687030D01*
X145740533Y-70687030D02*
X145883390Y-70734649D01*
X145883390Y-70734649D02*
X146454819Y-71306077D01*
X146454819Y-71306077D02*
X146454819Y-70687030D01*
X148907200Y-72210839D02*
X148954819Y-72067982D01*
X148954819Y-72067982D02*
X148954819Y-71829887D01*
X148954819Y-71829887D02*
X148907200Y-71734649D01*
X148907200Y-71734649D02*
X148859580Y-71687030D01*
X148859580Y-71687030D02*
X148764342Y-71639411D01*
X148764342Y-71639411D02*
X148669104Y-71639411D01*
X148669104Y-71639411D02*
X148573866Y-71687030D01*
X148573866Y-71687030D02*
X148526247Y-71734649D01*
X148526247Y-71734649D02*
X148478628Y-71829887D01*
X148478628Y-71829887D02*
X148431009Y-72020363D01*
X148431009Y-72020363D02*
X148383390Y-72115601D01*
X148383390Y-72115601D02*
X148335771Y-72163220D01*
X148335771Y-72163220D02*
X148240533Y-72210839D01*
X148240533Y-72210839D02*
X148145295Y-72210839D01*
X148145295Y-72210839D02*
X148050057Y-72163220D01*
X148050057Y-72163220D02*
X148002438Y-72115601D01*
X148002438Y-72115601D02*
X147954819Y-72020363D01*
X147954819Y-72020363D02*
X147954819Y-71782268D01*
X147954819Y-71782268D02*
X148002438Y-71639411D01*
X148954819Y-70687030D02*
X148954819Y-71258458D01*
X148954819Y-70972744D02*
X147954819Y-70972744D01*
X147954819Y-70972744D02*
X148097676Y-71067982D01*
X148097676Y-71067982D02*
X148192914Y-71163220D01*
X148192914Y-71163220D02*
X148240533Y-71258458D01*
X150454819Y-71687030D02*
X150454819Y-72163220D01*
X150454819Y-72163220D02*
X150931009Y-72210839D01*
X150931009Y-72210839D02*
X150883390Y-72163220D01*
X150883390Y-72163220D02*
X150835771Y-72067982D01*
X150835771Y-72067982D02*
X150835771Y-71829887D01*
X150835771Y-71829887D02*
X150883390Y-71734649D01*
X150883390Y-71734649D02*
X150931009Y-71687030D01*
X150931009Y-71687030D02*
X151026247Y-71639411D01*
X151026247Y-71639411D02*
X151264342Y-71639411D01*
X151264342Y-71639411D02*
X151359580Y-71687030D01*
X151359580Y-71687030D02*
X151407200Y-71734649D01*
X151407200Y-71734649D02*
X151454819Y-71829887D01*
X151454819Y-71829887D02*
X151454819Y-72067982D01*
X151454819Y-72067982D02*
X151407200Y-72163220D01*
X151407200Y-72163220D02*
X151359580Y-72210839D01*
X150454819Y-71353696D02*
X151454819Y-71020363D01*
X151454819Y-71020363D02*
X150454819Y-70687030D01*
X151454819Y-69067982D02*
X151454819Y-69639410D01*
X151454819Y-69353696D02*
X150454819Y-69353696D01*
X150454819Y-69353696D02*
X150597676Y-69448934D01*
X150597676Y-69448934D02*
X150692914Y-69544172D01*
X150692914Y-69544172D02*
X150740533Y-69639410D01*
X151169104Y-68687029D02*
X151169104Y-68210839D01*
X151454819Y-68782267D02*
X150454819Y-68448934D01*
X150454819Y-68448934D02*
X151454819Y-68115601D01*
X153002438Y-71639411D02*
X152954819Y-71734649D01*
X152954819Y-71734649D02*
X152954819Y-71877506D01*
X152954819Y-71877506D02*
X153002438Y-72020363D01*
X153002438Y-72020363D02*
X153097676Y-72115601D01*
X153097676Y-72115601D02*
X153192914Y-72163220D01*
X153192914Y-72163220D02*
X153383390Y-72210839D01*
X153383390Y-72210839D02*
X153526247Y-72210839D01*
X153526247Y-72210839D02*
X153716723Y-72163220D01*
X153716723Y-72163220D02*
X153811961Y-72115601D01*
X153811961Y-72115601D02*
X153907200Y-72020363D01*
X153907200Y-72020363D02*
X153954819Y-71877506D01*
X153954819Y-71877506D02*
X153954819Y-71782268D01*
X153954819Y-71782268D02*
X153907200Y-71639411D01*
X153907200Y-71639411D02*
X153859580Y-71591792D01*
X153859580Y-71591792D02*
X153526247Y-71591792D01*
X153526247Y-71591792D02*
X153526247Y-71782268D01*
X153954819Y-71163220D02*
X152954819Y-71163220D01*
X152954819Y-71163220D02*
X153954819Y-70591792D01*
X153954819Y-70591792D02*
X152954819Y-70591792D01*
X153954819Y-70115601D02*
X152954819Y-70115601D01*
X152954819Y-70115601D02*
X152954819Y-69877506D01*
X152954819Y-69877506D02*
X153002438Y-69734649D01*
X153002438Y-69734649D02*
X153097676Y-69639411D01*
X153097676Y-69639411D02*
X153192914Y-69591792D01*
X153192914Y-69591792D02*
X153383390Y-69544173D01*
X153383390Y-69544173D02*
X153526247Y-69544173D01*
X153526247Y-69544173D02*
X153716723Y-69591792D01*
X153716723Y-69591792D02*
X153811961Y-69639411D01*
X153811961Y-69639411D02*
X153907200Y-69734649D01*
X153907200Y-69734649D02*
X153954819Y-69877506D01*
X153954819Y-69877506D02*
X153954819Y-70115601D01*
X156657200Y-71225839D02*
X156704819Y-71082982D01*
X156704819Y-71082982D02*
X156704819Y-70844887D01*
X156704819Y-70844887D02*
X156657200Y-70749649D01*
X156657200Y-70749649D02*
X156609580Y-70702030D01*
X156609580Y-70702030D02*
X156514342Y-70654411D01*
X156514342Y-70654411D02*
X156419104Y-70654411D01*
X156419104Y-70654411D02*
X156323866Y-70702030D01*
X156323866Y-70702030D02*
X156276247Y-70749649D01*
X156276247Y-70749649D02*
X156228628Y-70844887D01*
X156228628Y-70844887D02*
X156181009Y-71035363D01*
X156181009Y-71035363D02*
X156133390Y-71130601D01*
X156133390Y-71130601D02*
X156085771Y-71178220D01*
X156085771Y-71178220D02*
X155990533Y-71225839D01*
X155990533Y-71225839D02*
X155895295Y-71225839D01*
X155895295Y-71225839D02*
X155800057Y-71178220D01*
X155800057Y-71178220D02*
X155752438Y-71130601D01*
X155752438Y-71130601D02*
X155704819Y-71035363D01*
X155704819Y-71035363D02*
X155704819Y-70797268D01*
X155704819Y-70797268D02*
X155752438Y-70654411D01*
X155704819Y-70368696D02*
X155704819Y-69797268D01*
X156704819Y-70082982D02*
X155704819Y-70082982D01*
X156419104Y-69511553D02*
X156419104Y-69035363D01*
X156704819Y-69606791D02*
X155704819Y-69273458D01*
X155704819Y-69273458D02*
X156704819Y-68940125D01*
X155704819Y-68749648D02*
X155704819Y-68178220D01*
X156704819Y-68463934D02*
X155704819Y-68463934D01*
X155704819Y-67844886D02*
X156514342Y-67844886D01*
X156514342Y-67844886D02*
X156609580Y-67797267D01*
X156609580Y-67797267D02*
X156657200Y-67749648D01*
X156657200Y-67749648D02*
X156704819Y-67654410D01*
X156704819Y-67654410D02*
X156704819Y-67463934D01*
X156704819Y-67463934D02*
X156657200Y-67368696D01*
X156657200Y-67368696D02*
X156609580Y-67321077D01*
X156609580Y-67321077D02*
X156514342Y-67273458D01*
X156514342Y-67273458D02*
X155704819Y-67273458D01*
X156657200Y-66844886D02*
X156704819Y-66702029D01*
X156704819Y-66702029D02*
X156704819Y-66463934D01*
X156704819Y-66463934D02*
X156657200Y-66368696D01*
X156657200Y-66368696D02*
X156609580Y-66321077D01*
X156609580Y-66321077D02*
X156514342Y-66273458D01*
X156514342Y-66273458D02*
X156419104Y-66273458D01*
X156419104Y-66273458D02*
X156323866Y-66321077D01*
X156323866Y-66321077D02*
X156276247Y-66368696D01*
X156276247Y-66368696D02*
X156228628Y-66463934D01*
X156228628Y-66463934D02*
X156181009Y-66654410D01*
X156181009Y-66654410D02*
X156133390Y-66749648D01*
X156133390Y-66749648D02*
X156085771Y-66797267D01*
X156085771Y-66797267D02*
X155990533Y-66844886D01*
X155990533Y-66844886D02*
X155895295Y-66844886D01*
X155895295Y-66844886D02*
X155800057Y-66797267D01*
X155800057Y-66797267D02*
X155752438Y-66749648D01*
X155752438Y-66749648D02*
X155704819Y-66654410D01*
X155704819Y-66654410D02*
X155704819Y-66416315D01*
X155704819Y-66416315D02*
X155752438Y-66273458D01*
G36*
X150175547Y-64011240D02*
G01*
X150252534Y-64049734D01*
X150326648Y-64123847D01*
X150364819Y-64238360D01*
X150364819Y-64389285D01*
X149514819Y-64389285D01*
X149514819Y-64238360D01*
X149552990Y-64123846D01*
X149627103Y-64049734D01*
X149704090Y-64011240D01*
X149877624Y-63967857D01*
X150002013Y-63967857D01*
X150175547Y-64011240D01*
G37*
G36*
X150625930Y-66793253D02*
G01*
X149253708Y-66793253D01*
X149253708Y-66178571D01*
X149364819Y-66178571D01*
X149364819Y-66416666D01*
X149366260Y-66431298D01*
X149367291Y-66433787D01*
X149367482Y-66436475D01*
X149372737Y-66450207D01*
X149420356Y-66545445D01*
X149424320Y-66551744D01*
X149425078Y-66553572D01*
X149426766Y-66555628D01*
X149428188Y-66557888D01*
X149429686Y-66559187D01*
X149434405Y-66564937D01*
X149482024Y-66612556D01*
X149487773Y-66617274D01*
X149489073Y-66618773D01*
X149491332Y-66620194D01*
X149493389Y-66621883D01*
X149495216Y-66622640D01*
X149501516Y-66626605D01*
X149596754Y-66674224D01*
X149610485Y-66679479D01*
X149613174Y-66679670D01*
X149615663Y-66680701D01*
X149630295Y-66682142D01*
X149725533Y-66682142D01*
X149740165Y-66680701D01*
X149742654Y-66679669D01*
X149745342Y-66679479D01*
X149759074Y-66674224D01*
X149854312Y-66626605D01*
X149860611Y-66622640D01*
X149862439Y-66621883D01*
X149864495Y-66620194D01*
X149866755Y-66618773D01*
X149868054Y-66617274D01*
X149873804Y-66612556D01*
X149921423Y-66564937D01*
X149926141Y-66559187D01*
X149927640Y-66557888D01*
X149929061Y-66555628D01*
X149930750Y-66553572D01*
X149931507Y-66551744D01*
X149935472Y-66545445D01*
X149983091Y-66450207D01*
X149983500Y-66449137D01*
X149983823Y-66448702D01*
X149986015Y-66442565D01*
X149988346Y-66436476D01*
X149988384Y-66435935D01*
X149988770Y-66434856D01*
X150034392Y-66252366D01*
X150072886Y-66175379D01*
X150103293Y-66144972D01*
X150171809Y-66110714D01*
X150231637Y-66110714D01*
X150300153Y-66144972D01*
X150330561Y-66175379D01*
X150364819Y-66243895D01*
X150364819Y-66452115D01*
X150321049Y-66583425D01*
X150317789Y-66597762D01*
X150319864Y-66626952D01*
X150332950Y-66653125D01*
X150355057Y-66672299D01*
X150382820Y-66681553D01*
X150412010Y-66679478D01*
X150438183Y-66666392D01*
X150457357Y-66644285D01*
X150463351Y-66630859D01*
X150510970Y-66488003D01*
X150512619Y-66480747D01*
X150513378Y-66478917D01*
X150513639Y-66476263D01*
X150514230Y-66473666D01*
X150514089Y-66471691D01*
X150514819Y-66464285D01*
X150514819Y-66226190D01*
X150513378Y-66211558D01*
X150512347Y-66209069D01*
X150512156Y-66206380D01*
X150506901Y-66192649D01*
X150459282Y-66097411D01*
X150455317Y-66091111D01*
X150454560Y-66089284D01*
X150452872Y-66087227D01*
X150451450Y-66084968D01*
X150449950Y-66083667D01*
X150445232Y-66077918D01*
X150397612Y-66030299D01*
X150391863Y-66025581D01*
X150390564Y-66024083D01*
X150388305Y-66022661D01*
X150386247Y-66020972D01*
X150384417Y-66020214D01*
X150378121Y-66016251D01*
X150282883Y-65968632D01*
X150269151Y-65963377D01*
X150266463Y-65963186D01*
X150263974Y-65962155D01*
X150249342Y-65960714D01*
X150154104Y-65960714D01*
X150139472Y-65962155D01*
X150136983Y-65963185D01*
X150134294Y-65963377D01*
X150120563Y-65968632D01*
X150025325Y-66016251D01*
X150019025Y-66020215D01*
X150017198Y-66020973D01*
X150015141Y-66022661D01*
X150012882Y-66024083D01*
X150011582Y-66025581D01*
X150005833Y-66030300D01*
X149958214Y-66077919D01*
X149953495Y-66083668D01*
X149951997Y-66084968D01*
X149950575Y-66087227D01*
X149948887Y-66089284D01*
X149948129Y-66091111D01*
X149944165Y-66097411D01*
X149896546Y-66192649D01*
X149896136Y-66193718D01*
X149895814Y-66194154D01*
X149893618Y-66200299D01*
X149891291Y-66206381D01*
X149891252Y-66206920D01*
X149890867Y-66208000D01*
X149845244Y-66390490D01*
X149806751Y-66467477D01*
X149776344Y-66497884D01*
X149707828Y-66532142D01*
X149648000Y-66532142D01*
X149579484Y-66497884D01*
X149549077Y-66467477D01*
X149514819Y-66398961D01*
X149514819Y-66190741D01*
X149558589Y-66059432D01*
X149561849Y-66045095D01*
X149559774Y-66015905D01*
X149546688Y-65989731D01*
X149524580Y-65970557D01*
X149496818Y-65961303D01*
X149467628Y-65963378D01*
X149441455Y-65976465D01*
X149422281Y-65998572D01*
X149416287Y-66011997D01*
X149368668Y-66154854D01*
X149367018Y-66162107D01*
X149366260Y-66163939D01*
X149365998Y-66166593D01*
X149365408Y-66169191D01*
X149365548Y-66171165D01*
X149364819Y-66178571D01*
X149253708Y-66178571D01*
X149253708Y-64842434D01*
X149364871Y-64842434D01*
X149369504Y-64871329D01*
X149384840Y-64896251D01*
X149408547Y-64913408D01*
X149422447Y-64918198D01*
X150133303Y-65087449D01*
X149706208Y-65201341D01*
X149702780Y-65202626D01*
X149701340Y-65202818D01*
X149699629Y-65203808D01*
X149692442Y-65206504D01*
X149684582Y-65212519D01*
X149676015Y-65217480D01*
X149673061Y-65221337D01*
X149669204Y-65224291D01*
X149664243Y-65232858D01*
X149658228Y-65240718D01*
X149656976Y-65245410D01*
X149654542Y-65249616D01*
X149653237Y-65259431D01*
X149650688Y-65268994D01*
X149651327Y-65273809D01*
X149650688Y-65278624D01*
X149653237Y-65288186D01*
X149654542Y-65298002D01*
X149656976Y-65302207D01*
X149658228Y-65306900D01*
X149664243Y-65314759D01*
X149669204Y-65323327D01*
X149673061Y-65326280D01*
X149676015Y-65330138D01*
X149684582Y-65335098D01*
X149692442Y-65341114D01*
X149699629Y-65343809D01*
X149701340Y-65344800D01*
X149702780Y-65344991D01*
X149706208Y-65346277D01*
X150133303Y-65460168D01*
X149422447Y-65629420D01*
X149408547Y-65634210D01*
X149384840Y-65651367D01*
X149369504Y-65676289D01*
X149364871Y-65705184D01*
X149371649Y-65733652D01*
X149388806Y-65757359D01*
X149413728Y-65772695D01*
X149442623Y-65777328D01*
X149457191Y-65775340D01*
X150457191Y-65537245D01*
X150462209Y-65535515D01*
X150464013Y-65535276D01*
X150465642Y-65534332D01*
X150471091Y-65532455D01*
X150479914Y-65526069D01*
X150489337Y-65520614D01*
X150491677Y-65517556D01*
X150494798Y-65515298D01*
X150500503Y-65506026D01*
X150507125Y-65497376D01*
X150508118Y-65493652D01*
X150510134Y-65490376D01*
X150511856Y-65479632D01*
X150514665Y-65469101D01*
X150514157Y-65465282D01*
X150514767Y-65461481D01*
X150512244Y-65450885D01*
X150510810Y-65440092D01*
X150508881Y-65436760D01*
X150507989Y-65433013D01*
X150501602Y-65424188D01*
X150496148Y-65414767D01*
X150493090Y-65412426D01*
X150490832Y-65409306D01*
X150481559Y-65403600D01*
X150472911Y-65396980D01*
X150467509Y-65394954D01*
X150465910Y-65393970D01*
X150464119Y-65393682D01*
X150459144Y-65391817D01*
X150016613Y-65273809D01*
X150459144Y-65155801D01*
X150464119Y-65153935D01*
X150465910Y-65153648D01*
X150467509Y-65152663D01*
X150472911Y-65150638D01*
X150481559Y-65144017D01*
X150490832Y-65138312D01*
X150493090Y-65135191D01*
X150496148Y-65132851D01*
X150501602Y-65123429D01*
X150507989Y-65114605D01*
X150508881Y-65110857D01*
X150510810Y-65107526D01*
X150512244Y-65096732D01*
X150514767Y-65086137D01*
X150514157Y-65082335D01*
X150514665Y-65078517D01*
X150511856Y-65067985D01*
X150510134Y-65057242D01*
X150508118Y-65053965D01*
X150507125Y-65050242D01*
X150500503Y-65041591D01*
X150494798Y-65032320D01*
X150491677Y-65030061D01*
X150489337Y-65027004D01*
X150479914Y-65021548D01*
X150471091Y-65015163D01*
X150465642Y-65013285D01*
X150464013Y-65012342D01*
X150462209Y-65012102D01*
X150457191Y-65010373D01*
X149457191Y-64772278D01*
X149442623Y-64770290D01*
X149413728Y-64774923D01*
X149388806Y-64790259D01*
X149371649Y-64813966D01*
X149364871Y-64842434D01*
X149253708Y-64842434D01*
X149253708Y-64226190D01*
X149364819Y-64226190D01*
X149364819Y-64464285D01*
X149366260Y-64478917D01*
X149377459Y-64505953D01*
X149398151Y-64526645D01*
X149425187Y-64537844D01*
X149439819Y-64539285D01*
X150439819Y-64539285D01*
X150454451Y-64537844D01*
X150481487Y-64526645D01*
X150502179Y-64505953D01*
X150513378Y-64478917D01*
X150514819Y-64464285D01*
X150514819Y-64226190D01*
X150514089Y-64218783D01*
X150514230Y-64216809D01*
X150513639Y-64214211D01*
X150513378Y-64211558D01*
X150512619Y-64209727D01*
X150510970Y-64202472D01*
X150463351Y-64059616D01*
X150457357Y-64046190D01*
X150455592Y-64044155D01*
X150454561Y-64041665D01*
X150445233Y-64030300D01*
X150349994Y-63935062D01*
X150344244Y-63930343D01*
X150342945Y-63928845D01*
X150340686Y-63927423D01*
X150338628Y-63925734D01*
X150336798Y-63924976D01*
X150330502Y-63921013D01*
X150235264Y-63873394D01*
X150234194Y-63872984D01*
X150233759Y-63872662D01*
X150227613Y-63870466D01*
X150221532Y-63868139D01*
X150220992Y-63868100D01*
X150219913Y-63867715D01*
X150029437Y-63820096D01*
X150026900Y-63819720D01*
X150025879Y-63819298D01*
X150020366Y-63818755D01*
X150014893Y-63817946D01*
X150013800Y-63818108D01*
X150011247Y-63817857D01*
X149868390Y-63817857D01*
X149865836Y-63818108D01*
X149864744Y-63817946D01*
X149859270Y-63818755D01*
X149853758Y-63819298D01*
X149852736Y-63819720D01*
X149850200Y-63820096D01*
X149659724Y-63867715D01*
X149658644Y-63868100D01*
X149658104Y-63868139D01*
X149652014Y-63870469D01*
X149645878Y-63872662D01*
X149645442Y-63872984D01*
X149644373Y-63873394D01*
X149549135Y-63921013D01*
X149542840Y-63924975D01*
X149541008Y-63925734D01*
X149538946Y-63927425D01*
X149536692Y-63928845D01*
X149535393Y-63930341D01*
X149529643Y-63935062D01*
X149434405Y-64030300D01*
X149425078Y-64041665D01*
X149424046Y-64044155D01*
X149422281Y-64046191D01*
X149416287Y-64059616D01*
X149368668Y-64202473D01*
X149367018Y-64209726D01*
X149366260Y-64211558D01*
X149365998Y-64214212D01*
X149365408Y-64216810D01*
X149365548Y-64218784D01*
X149364819Y-64226190D01*
X149253708Y-64226190D01*
X149253708Y-63706746D01*
X150625930Y-63706746D01*
X150625930Y-66793253D01*
G37*
X174073866Y-53680951D02*
X174073866Y-52919047D01*
X174454819Y-53299999D02*
X173692914Y-53299999D01*
X174073866Y-57180951D02*
X174073866Y-56419047D01*
X173550057Y-60485713D02*
X173502438Y-60438094D01*
X173502438Y-60438094D02*
X173454819Y-60342856D01*
X173454819Y-60342856D02*
X173454819Y-60104761D01*
X173454819Y-60104761D02*
X173502438Y-60009523D01*
X173502438Y-60009523D02*
X173550057Y-59961904D01*
X173550057Y-59961904D02*
X173645295Y-59914285D01*
X173645295Y-59914285D02*
X173740533Y-59914285D01*
X173740533Y-59914285D02*
X173883390Y-59961904D01*
X173883390Y-59961904D02*
X174454819Y-60533332D01*
X174454819Y-60533332D02*
X174454819Y-59914285D01*
X174454819Y-63214285D02*
X174454819Y-63785713D01*
X174454819Y-63499999D02*
X173454819Y-63499999D01*
X173454819Y-63499999D02*
X173597676Y-63595237D01*
X173597676Y-63595237D02*
X173692914Y-63690475D01*
X173692914Y-63690475D02*
X173740533Y-63785713D01*
X162169819Y-62166666D02*
X161169819Y-62166666D01*
X161169819Y-62166666D02*
X161169819Y-61928571D01*
X161169819Y-61928571D02*
X161217438Y-61785714D01*
X161217438Y-61785714D02*
X161312676Y-61690476D01*
X161312676Y-61690476D02*
X161407914Y-61642857D01*
X161407914Y-61642857D02*
X161598390Y-61595238D01*
X161598390Y-61595238D02*
X161741247Y-61595238D01*
X161741247Y-61595238D02*
X161931723Y-61642857D01*
X161931723Y-61642857D02*
X162026961Y-61690476D01*
X162026961Y-61690476D02*
X162122200Y-61785714D01*
X162122200Y-61785714D02*
X162169819Y-61928571D01*
X162169819Y-61928571D02*
X162169819Y-62166666D01*
X162169819Y-60595238D02*
X161693628Y-60928571D01*
X162169819Y-61166666D02*
X161169819Y-61166666D01*
X161169819Y-61166666D02*
X161169819Y-60785714D01*
X161169819Y-60785714D02*
X161217438Y-60690476D01*
X161217438Y-60690476D02*
X161265057Y-60642857D01*
X161265057Y-60642857D02*
X161360295Y-60595238D01*
X161360295Y-60595238D02*
X161503152Y-60595238D01*
X161503152Y-60595238D02*
X161598390Y-60642857D01*
X161598390Y-60642857D02*
X161646009Y-60690476D01*
X161646009Y-60690476D02*
X161693628Y-60785714D01*
X161693628Y-60785714D02*
X161693628Y-61166666D01*
X161169819Y-60309523D02*
X162169819Y-59976190D01*
X162169819Y-59976190D02*
X161169819Y-59642857D01*
X161265057Y-59357142D02*
X161217438Y-59309523D01*
X161217438Y-59309523D02*
X161169819Y-59214285D01*
X161169819Y-59214285D02*
X161169819Y-58976190D01*
X161169819Y-58976190D02*
X161217438Y-58880952D01*
X161217438Y-58880952D02*
X161265057Y-58833333D01*
X161265057Y-58833333D02*
X161360295Y-58785714D01*
X161360295Y-58785714D02*
X161455533Y-58785714D01*
X161455533Y-58785714D02*
X161598390Y-58833333D01*
X161598390Y-58833333D02*
X162169819Y-59404761D01*
X162169819Y-59404761D02*
X162169819Y-58785714D01*
X145645180Y-57285714D02*
X145645180Y-56714286D01*
X145645180Y-57000000D02*
X146645180Y-57000000D01*
X146645180Y-57000000D02*
X146502323Y-56904762D01*
X146502323Y-56904762D02*
X146407085Y-56809524D01*
X146407085Y-56809524D02*
X146359466Y-56714286D01*
X146549942Y-60114286D02*
X146597561Y-60161905D01*
X146597561Y-60161905D02*
X146645180Y-60257143D01*
X146645180Y-60257143D02*
X146645180Y-60495238D01*
X146645180Y-60495238D02*
X146597561Y-60590476D01*
X146597561Y-60590476D02*
X146549942Y-60638095D01*
X146549942Y-60638095D02*
X146454704Y-60685714D01*
X146454704Y-60685714D02*
X146359466Y-60685714D01*
X146359466Y-60685714D02*
X146216609Y-60638095D01*
X146216609Y-60638095D02*
X145645180Y-60066667D01*
X145645180Y-60066667D02*
X145645180Y-60685714D01*
X157830180Y-58833333D02*
X158830180Y-58833333D01*
X158830180Y-58833333D02*
X158830180Y-59071428D01*
X158830180Y-59071428D02*
X158782561Y-59214285D01*
X158782561Y-59214285D02*
X158687323Y-59309523D01*
X158687323Y-59309523D02*
X158592085Y-59357142D01*
X158592085Y-59357142D02*
X158401609Y-59404761D01*
X158401609Y-59404761D02*
X158258752Y-59404761D01*
X158258752Y-59404761D02*
X158068276Y-59357142D01*
X158068276Y-59357142D02*
X157973038Y-59309523D01*
X157973038Y-59309523D02*
X157877800Y-59214285D01*
X157877800Y-59214285D02*
X157830180Y-59071428D01*
X157830180Y-59071428D02*
X157830180Y-58833333D01*
X157830180Y-60404761D02*
X158306371Y-60071428D01*
X157830180Y-59833333D02*
X158830180Y-59833333D01*
X158830180Y-59833333D02*
X158830180Y-60214285D01*
X158830180Y-60214285D02*
X158782561Y-60309523D01*
X158782561Y-60309523D02*
X158734942Y-60357142D01*
X158734942Y-60357142D02*
X158639704Y-60404761D01*
X158639704Y-60404761D02*
X158496847Y-60404761D01*
X158496847Y-60404761D02*
X158401609Y-60357142D01*
X158401609Y-60357142D02*
X158353990Y-60309523D01*
X158353990Y-60309523D02*
X158306371Y-60214285D01*
X158306371Y-60214285D02*
X158306371Y-59833333D01*
X158830180Y-60690476D02*
X157830180Y-61023809D01*
X157830180Y-61023809D02*
X158830180Y-61357142D01*
X157830180Y-62214285D02*
X157830180Y-61642857D01*
X157830180Y-61928571D02*
X158830180Y-61928571D01*
X158830180Y-61928571D02*
X158687323Y-61833333D01*
X158687323Y-61833333D02*
X158592085Y-61738095D01*
X158592085Y-61738095D02*
X158544466Y-61642857D01*
%TO.C,R5*%
D12*
X163762742Y-56477500D02*
X164237258Y-56477500D01*
X163762742Y-57522500D02*
X164237258Y-57522500D01*
%TO.C,C5*%
X161490000Y-73140580D02*
X161490000Y-72859420D01*
X162510000Y-73140580D02*
X162510000Y-72859420D01*
%TO.C,C6*%
X158859419Y-67990000D02*
X159140581Y-67990000D01*
X158859419Y-69010000D02*
X159140581Y-69010000D01*
%TO.C,C11*%
X164590000Y-63590000D02*
X164590000Y-65940000D01*
X164590000Y-70410000D02*
X164590000Y-68060000D01*
X170345563Y-63590000D02*
X164590000Y-63590000D01*
X170345563Y-70410000D02*
X164590000Y-70410000D01*
X171410000Y-64654437D02*
X170345563Y-63590000D01*
X171410000Y-64654437D02*
X171410000Y-65940000D01*
X171410000Y-69345563D02*
X170345563Y-70410000D01*
X171410000Y-69345563D02*
X171410000Y-68060000D01*
X172043750Y-69241250D02*
X172043750Y-68453750D01*
X172437500Y-68847500D02*
X171650000Y-68847500D01*
%TO.C,U6*%
D11*
X156075000Y-57925000D02*
X151925000Y-57925000D01*
X156075000Y-63075000D02*
X151925000Y-63075000D01*
D12*
X156675000Y-62975000D02*
X156915000Y-63305000D01*
X156435000Y-63305000D01*
X156675000Y-62975000D01*
G36*
X156915000Y-63305000D02*
G01*
X156435000Y-63305000D01*
X156675000Y-62975000D01*
X156915000Y-63305000D01*
G37*
%TO.C,R2*%
X163037258Y-68477500D02*
X162562742Y-68477500D01*
X163037258Y-69522500D02*
X162562742Y-69522500D01*
%TO.C,C8*%
X150040580Y-55490000D02*
X149759420Y-55490000D01*
X150040580Y-56510000D02*
X149759420Y-56510000D01*
%TO.C,C4*%
X158859419Y-69990000D02*
X159140581Y-69990000D01*
X158859419Y-71010000D02*
X159140581Y-71010000D01*
%TO.C,D2*%
X155515000Y-71515000D02*
X155515000Y-73800000D01*
X156985000Y-71515000D02*
X155515000Y-71515000D01*
X156985000Y-73800000D02*
X156985000Y-71515000D01*
%TO.C,R4*%
X154237258Y-63777500D02*
X153762742Y-63777500D01*
X154237258Y-64822500D02*
X153762742Y-64822500D01*
%TO.C,U2*%
X164590000Y-71440000D02*
X166410000Y-71440000D01*
X164590000Y-71490000D02*
X164590000Y-71440000D01*
X164590000Y-73390000D02*
X164590000Y-72610000D01*
X164590000Y-74560000D02*
X164590000Y-74510000D01*
X166410000Y-71440000D02*
X166410000Y-71490000D01*
X166410000Y-74510000D02*
X166410000Y-74560000D01*
X166410000Y-74560000D02*
X164590000Y-74560000D01*
X166950000Y-74510000D02*
X167190000Y-74840000D01*
X166710000Y-74840000D01*
X166950000Y-74510000D01*
G36*
X167190000Y-74840000D02*
G01*
X166710000Y-74840000D01*
X166950000Y-74510000D01*
X167190000Y-74840000D01*
G37*
%TO.C,C9*%
X173490000Y-67859420D02*
X173490000Y-68140580D01*
X174510000Y-67859420D02*
X174510000Y-68140580D01*
%TO.C,C1*%
X168090000Y-52788748D02*
X168090000Y-54211252D01*
X169910000Y-52788748D02*
X169910000Y-54211252D01*
%TO.C,C10*%
X150562500Y-51652500D02*
X151350000Y-51652500D01*
X150956250Y-51258750D02*
X150956250Y-52046250D01*
X151590000Y-51154437D02*
X151590000Y-52440000D01*
X151590000Y-51154437D02*
X152654437Y-50090000D01*
X151590000Y-55845563D02*
X151590000Y-54560000D01*
X151590000Y-55845563D02*
X152654437Y-56910000D01*
X152654437Y-50090000D02*
X158410000Y-50090000D01*
X152654437Y-56910000D02*
X158410000Y-56910000D01*
X158410000Y-50090000D02*
X158410000Y-52440000D01*
X158410000Y-56910000D02*
X158410000Y-54560000D01*
%TO.C,U7*%
D11*
X163925000Y-57925000D02*
X168075000Y-57925000D01*
X163925000Y-63075000D02*
X168075000Y-63075000D01*
D12*
X163325000Y-58025000D02*
X163085000Y-57695000D01*
X163565000Y-57695000D01*
X163325000Y-58025000D01*
G36*
X163325000Y-58025000D02*
G01*
X163085000Y-57695000D01*
X163565000Y-57695000D01*
X163325000Y-58025000D01*
G37*
%TO.C,U3*%
X157380000Y-63880000D02*
X157380000Y-64089999D01*
X157380000Y-63880000D02*
X157589999Y-63880000D01*
X160620000Y-63880000D02*
X160410001Y-63880000D01*
X160620000Y-63880000D02*
X160620000Y-64089999D01*
X160620000Y-67120000D02*
X160410001Y-67120000D01*
X160620000Y-67120000D02*
X160620000Y-66910001D01*
X157590000Y-67190000D02*
X157260000Y-67430000D01*
X157260000Y-66950000D01*
X157590000Y-67190000D01*
G36*
X157590000Y-67190000D02*
G01*
X157260000Y-67430000D01*
X157260000Y-66950000D01*
X157590000Y-67190000D01*
G37*
%TO.C,J2*%
X146230000Y-65095000D02*
X146865000Y-65095000D01*
X146230000Y-65730000D02*
X146230000Y-65095000D01*
%TO.C,U1*%
X163140000Y-51140000D02*
X165860000Y-51140000D01*
X163140000Y-52120000D02*
X163140000Y-51140000D01*
X163140000Y-54880000D02*
X163140000Y-55860000D01*
X165720000Y-55860000D02*
X163140000Y-55860000D01*
X166270000Y-55710000D02*
X166510000Y-56040000D01*
X166030000Y-56040000D01*
X166270000Y-55710000D01*
G36*
X166510000Y-56040000D02*
G01*
X166030000Y-56040000D01*
X166270000Y-55710000D01*
X166510000Y-56040000D01*
G37*
%TO.C,C3*%
X160090000Y-54288748D02*
X160090000Y-55711252D01*
X161910000Y-54288748D02*
X161910000Y-55711252D01*
%TO.C,R3*%
X162562742Y-70077500D02*
X163037258Y-70077500D01*
X162562742Y-71122500D02*
X163037258Y-71122500D01*
%TO.C,C2*%
X168490000Y-73140580D02*
X168490000Y-72859420D01*
X169510000Y-73140580D02*
X169510000Y-72859420D01*
%TO.C,R6*%
X157727500Y-72762742D02*
X157727500Y-73237258D01*
X158772500Y-72762742D02*
X158772500Y-73237258D01*
%TD*%
M02*
