%TF.GenerationSoftware,KiCad,Pcbnew,10.0.3*%
%TF.CreationDate,2026-09-06T15:58:11-04:00*%
%TF.ProjectId,brushed-dual-esc,62727573-6865-4642-9d64-75616c2d6573,rev?*%
%TF.SameCoordinates,Original*%
%TF.FileFunction,Legend,Top*%
%TF.FilePolarity,Positive*%
%FSLAX46Y46*%
G04 Gerber Fmt 4.6, Leading zero omitted, Abs format (unit mm)*
G04 Created by KiCad (PCBNEW 10.0.3) date 2026-09-06 15:58:11*
%MOMM*%
%LPD*%
G01*
G04 APERTURE LIST*
%ADD10C,0.100000*%
%ADD11C,0.150000*%
%ADD12C,0.200000*%
%ADD13C,0.120000*%
G04 APERTURE END LIST*
D10*
X149250000Y-64500000D02*
X149250000Y-63800000D01*
X148600000Y-63800000D01*
X149250000Y-64500000D01*
G36*
X149250000Y-64500000D02*
G01*
X148600000Y-63800000D01*
X149250000Y-63800000D01*
X149250000Y-64500000D01*
G37*
X145750000Y-64500000D02*
X145750000Y-70250000D01*
X145750000Y-70250000D02*
X149250000Y-70250000D01*
X146500000Y-63750000D02*
X145750000Y-64500000D01*
X148500000Y-63750000D02*
X146500000Y-63750000D01*
X148500000Y-63750000D02*
X150400000Y-63750000D01*
X149250000Y-64500000D02*
X148500000Y-63750000D01*
X149250000Y-70250000D02*
X149250000Y-64500000D01*
X150400000Y-63750000D02*
X150400000Y-67000000D01*
X150400000Y-67000000D02*
X149300000Y-67000000D01*
D11*
X164789160Y-65722200D02*
X164932017Y-65769819D01*
X164932017Y-65769819D02*
X165170112Y-65769819D01*
X165170112Y-65769819D02*
X165265350Y-65722200D01*
X165265350Y-65722200D02*
X165312969Y-65674580D01*
X165312969Y-65674580D02*
X165360588Y-65579342D01*
X165360588Y-65579342D02*
X165360588Y-65484104D01*
X165360588Y-65484104D02*
X165312969Y-65388866D01*
X165312969Y-65388866D02*
X165265350Y-65341247D01*
X165265350Y-65341247D02*
X165170112Y-65293628D01*
X165170112Y-65293628D02*
X164979636Y-65246009D01*
X164979636Y-65246009D02*
X164884398Y-65198390D01*
X164884398Y-65198390D02*
X164836779Y-65150771D01*
X164836779Y-65150771D02*
X164789160Y-65055533D01*
X164789160Y-65055533D02*
X164789160Y-64960295D01*
X164789160Y-64960295D02*
X164836779Y-64865057D01*
X164836779Y-64865057D02*
X164884398Y-64817438D01*
X164884398Y-64817438D02*
X164979636Y-64769819D01*
X164979636Y-64769819D02*
X165217731Y-64769819D01*
X165217731Y-64769819D02*
X165360588Y-64817438D01*
X165789160Y-65769819D02*
X165789160Y-65103152D01*
X165789160Y-64769819D02*
X165741541Y-64817438D01*
X165741541Y-64817438D02*
X165789160Y-64865057D01*
X165789160Y-64865057D02*
X165836779Y-64817438D01*
X165836779Y-64817438D02*
X165789160Y-64769819D01*
X165789160Y-64769819D02*
X165789160Y-64865057D01*
X166693921Y-65103152D02*
X166693921Y-65912676D01*
X166693921Y-65912676D02*
X166646302Y-66007914D01*
X166646302Y-66007914D02*
X166598683Y-66055533D01*
X166598683Y-66055533D02*
X166503445Y-66103152D01*
X166503445Y-66103152D02*
X166360588Y-66103152D01*
X166360588Y-66103152D02*
X166265350Y-66055533D01*
X166693921Y-65722200D02*
X166598683Y-65769819D01*
X166598683Y-65769819D02*
X166408207Y-65769819D01*
X166408207Y-65769819D02*
X166312969Y-65722200D01*
X166312969Y-65722200D02*
X166265350Y-65674580D01*
X166265350Y-65674580D02*
X166217731Y-65579342D01*
X166217731Y-65579342D02*
X166217731Y-65293628D01*
X166217731Y-65293628D02*
X166265350Y-65198390D01*
X166265350Y-65198390D02*
X166312969Y-65150771D01*
X166312969Y-65150771D02*
X166408207Y-65103152D01*
X166408207Y-65103152D02*
X166598683Y-65103152D01*
X166598683Y-65103152D02*
X166693921Y-65150771D01*
X167170112Y-65769819D02*
X167170112Y-65103152D01*
X167170112Y-65198390D02*
X167217731Y-65150771D01*
X167217731Y-65150771D02*
X167312969Y-65103152D01*
X167312969Y-65103152D02*
X167455826Y-65103152D01*
X167455826Y-65103152D02*
X167551064Y-65150771D01*
X167551064Y-65150771D02*
X167598683Y-65246009D01*
X167598683Y-65246009D02*
X167598683Y-65769819D01*
X167598683Y-65246009D02*
X167646302Y-65150771D01*
X167646302Y-65150771D02*
X167741540Y-65103152D01*
X167741540Y-65103152D02*
X167884397Y-65103152D01*
X167884397Y-65103152D02*
X167979636Y-65150771D01*
X167979636Y-65150771D02*
X168027255Y-65246009D01*
X168027255Y-65246009D02*
X168027255Y-65769819D01*
X168646302Y-65769819D02*
X168551064Y-65722200D01*
X168551064Y-65722200D02*
X168503445Y-65674580D01*
X168503445Y-65674580D02*
X168455826Y-65579342D01*
X168455826Y-65579342D02*
X168455826Y-65293628D01*
X168455826Y-65293628D02*
X168503445Y-65198390D01*
X168503445Y-65198390D02*
X168551064Y-65150771D01*
X168551064Y-65150771D02*
X168646302Y-65103152D01*
X168646302Y-65103152D02*
X168789159Y-65103152D01*
X168789159Y-65103152D02*
X168884397Y-65150771D01*
X168884397Y-65150771D02*
X168932016Y-65198390D01*
X168932016Y-65198390D02*
X168979635Y-65293628D01*
X168979635Y-65293628D02*
X168979635Y-65579342D01*
X168979635Y-65579342D02*
X168932016Y-65674580D01*
X168932016Y-65674580D02*
X168884397Y-65722200D01*
X168884397Y-65722200D02*
X168789159Y-65769819D01*
X168789159Y-65769819D02*
X168646302Y-65769819D01*
X169408207Y-65103152D02*
X169408207Y-65769819D01*
X169408207Y-65198390D02*
X169455826Y-65150771D01*
X169455826Y-65150771D02*
X169551064Y-65103152D01*
X169551064Y-65103152D02*
X169693921Y-65103152D01*
X169693921Y-65103152D02*
X169789159Y-65150771D01*
X169789159Y-65150771D02*
X169836778Y-65246009D01*
X169836778Y-65246009D02*
X169836778Y-65769819D01*
X170741540Y-65769819D02*
X170741540Y-64769819D01*
X170741540Y-65722200D02*
X170646302Y-65769819D01*
X170646302Y-65769819D02*
X170455826Y-65769819D01*
X170455826Y-65769819D02*
X170360588Y-65722200D01*
X170360588Y-65722200D02*
X170312969Y-65674580D01*
X170312969Y-65674580D02*
X170265350Y-65579342D01*
X170265350Y-65579342D02*
X170265350Y-65293628D01*
X170265350Y-65293628D02*
X170312969Y-65198390D01*
X170312969Y-65198390D02*
X170360588Y-65150771D01*
X170360588Y-65150771D02*
X170455826Y-65103152D01*
X170455826Y-65103152D02*
X170646302Y-65103152D01*
X170646302Y-65103152D02*
X170741540Y-65150771D01*
X166236779Y-68969819D02*
X166236779Y-67969819D01*
X166808207Y-68969819D02*
X166379636Y-68398390D01*
X166808207Y-67969819D02*
X166236779Y-68541247D01*
X167665350Y-68303152D02*
X167665350Y-68969819D01*
X167236779Y-68303152D02*
X167236779Y-68826961D01*
X167236779Y-68826961D02*
X167284398Y-68922200D01*
X167284398Y-68922200D02*
X167379636Y-68969819D01*
X167379636Y-68969819D02*
X167522493Y-68969819D01*
X167522493Y-68969819D02*
X167617731Y-68922200D01*
X167617731Y-68922200D02*
X167665350Y-68874580D01*
X168141541Y-68969819D02*
X168141541Y-67969819D01*
X168236779Y-68588866D02*
X168522493Y-68969819D01*
X168522493Y-68303152D02*
X168141541Y-68684104D01*
X169093922Y-68969819D02*
X168998684Y-68922200D01*
X168998684Y-68922200D02*
X168951065Y-68826961D01*
X168951065Y-68826961D02*
X168951065Y-67969819D01*
X169903446Y-68969819D02*
X169903446Y-68446009D01*
X169903446Y-68446009D02*
X169855827Y-68350771D01*
X169855827Y-68350771D02*
X169760589Y-68303152D01*
X169760589Y-68303152D02*
X169570113Y-68303152D01*
X169570113Y-68303152D02*
X169474875Y-68350771D01*
X169903446Y-68922200D02*
X169808208Y-68969819D01*
X169808208Y-68969819D02*
X169570113Y-68969819D01*
X169570113Y-68969819D02*
X169474875Y-68922200D01*
X169474875Y-68922200D02*
X169427256Y-68826961D01*
X169427256Y-68826961D02*
X169427256Y-68731723D01*
X169427256Y-68731723D02*
X169474875Y-68636485D01*
X169474875Y-68636485D02*
X169570113Y-68588866D01*
X169570113Y-68588866D02*
X169808208Y-68588866D01*
X169808208Y-68588866D02*
X169903446Y-68541247D01*
X166289160Y-69265057D02*
X166336779Y-69217438D01*
X166336779Y-69217438D02*
X166432017Y-69169819D01*
X166432017Y-69169819D02*
X166670112Y-69169819D01*
X166670112Y-69169819D02*
X166765350Y-69217438D01*
X166765350Y-69217438D02*
X166812969Y-69265057D01*
X166812969Y-69265057D02*
X166860588Y-69360295D01*
X166860588Y-69360295D02*
X166860588Y-69455533D01*
X166860588Y-69455533D02*
X166812969Y-69598390D01*
X166812969Y-69598390D02*
X166241541Y-70169819D01*
X166241541Y-70169819D02*
X166860588Y-70169819D01*
X167479636Y-69169819D02*
X167574874Y-69169819D01*
X167574874Y-69169819D02*
X167670112Y-69217438D01*
X167670112Y-69217438D02*
X167717731Y-69265057D01*
X167717731Y-69265057D02*
X167765350Y-69360295D01*
X167765350Y-69360295D02*
X167812969Y-69550771D01*
X167812969Y-69550771D02*
X167812969Y-69788866D01*
X167812969Y-69788866D02*
X167765350Y-69979342D01*
X167765350Y-69979342D02*
X167717731Y-70074580D01*
X167717731Y-70074580D02*
X167670112Y-70122200D01*
X167670112Y-70122200D02*
X167574874Y-70169819D01*
X167574874Y-70169819D02*
X167479636Y-70169819D01*
X167479636Y-70169819D02*
X167384398Y-70122200D01*
X167384398Y-70122200D02*
X167336779Y-70074580D01*
X167336779Y-70074580D02*
X167289160Y-69979342D01*
X167289160Y-69979342D02*
X167241541Y-69788866D01*
X167241541Y-69788866D02*
X167241541Y-69550771D01*
X167241541Y-69550771D02*
X167289160Y-69360295D01*
X167289160Y-69360295D02*
X167336779Y-69265057D01*
X167336779Y-69265057D02*
X167384398Y-69217438D01*
X167384398Y-69217438D02*
X167479636Y-69169819D01*
X168193922Y-69265057D02*
X168241541Y-69217438D01*
X168241541Y-69217438D02*
X168336779Y-69169819D01*
X168336779Y-69169819D02*
X168574874Y-69169819D01*
X168574874Y-69169819D02*
X168670112Y-69217438D01*
X168670112Y-69217438D02*
X168717731Y-69265057D01*
X168717731Y-69265057D02*
X168765350Y-69360295D01*
X168765350Y-69360295D02*
X168765350Y-69455533D01*
X168765350Y-69455533D02*
X168717731Y-69598390D01*
X168717731Y-69598390D02*
X168146303Y-70169819D01*
X168146303Y-70169819D02*
X168765350Y-70169819D01*
X169622493Y-69169819D02*
X169432017Y-69169819D01*
X169432017Y-69169819D02*
X169336779Y-69217438D01*
X169336779Y-69217438D02*
X169289160Y-69265057D01*
X169289160Y-69265057D02*
X169193922Y-69407914D01*
X169193922Y-69407914D02*
X169146303Y-69598390D01*
X169146303Y-69598390D02*
X169146303Y-69979342D01*
X169146303Y-69979342D02*
X169193922Y-70074580D01*
X169193922Y-70074580D02*
X169241541Y-70122200D01*
X169241541Y-70122200D02*
X169336779Y-70169819D01*
X169336779Y-70169819D02*
X169527255Y-70169819D01*
X169527255Y-70169819D02*
X169622493Y-70122200D01*
X169622493Y-70122200D02*
X169670112Y-70074580D01*
X169670112Y-70074580D02*
X169717731Y-69979342D01*
X169717731Y-69979342D02*
X169717731Y-69741247D01*
X169717731Y-69741247D02*
X169670112Y-69646009D01*
X169670112Y-69646009D02*
X169622493Y-69598390D01*
X169622493Y-69598390D02*
X169527255Y-69550771D01*
X169527255Y-69550771D02*
X169336779Y-69550771D01*
X169336779Y-69550771D02*
X169241541Y-69598390D01*
X169241541Y-69598390D02*
X169193922Y-69646009D01*
X169193922Y-69646009D02*
X169146303Y-69741247D01*
G36*
X147368109Y-54750000D02*
G01*
X147368109Y-54102634D01*
X147365361Y-54102634D01*
X147144627Y-54750000D01*
X146958819Y-54750000D01*
X146735337Y-54094207D01*
X146735337Y-54750000D01*
X146543545Y-54750000D01*
X146543545Y-53769120D01*
X146805190Y-53769120D01*
X147051021Y-54490797D01*
X147053829Y-54490797D01*
X147298255Y-53769120D01*
X147555687Y-53769120D01*
X147555687Y-54750000D01*
X147368109Y-54750000D01*
G37*
G36*
X147990440Y-54581960D02*
G01*
X148451570Y-54581960D01*
X148451570Y-54750000D01*
X147795045Y-54750000D01*
X147795045Y-54288930D01*
X147956917Y-54195080D01*
X148256176Y-54195080D01*
X148256176Y-53937159D01*
X147990440Y-53937159D01*
X147990440Y-54063311D01*
X147795045Y-54063311D01*
X147795045Y-53862971D01*
X147956917Y-53769120D01*
X148289698Y-53769120D01*
X148451570Y-53862971D01*
X148451570Y-54269269D01*
X148289698Y-54363119D01*
X147990440Y-54363119D01*
X147990440Y-54581960D01*
G37*
G36*
X172368109Y-71230000D02*
G01*
X172368109Y-70582634D01*
X172365361Y-70582634D01*
X172144627Y-71230000D01*
X171958819Y-71230000D01*
X171735337Y-70574207D01*
X171735337Y-71230000D01*
X171543545Y-71230000D01*
X171543545Y-70249120D01*
X171805190Y-70249120D01*
X172051021Y-70970797D01*
X172053829Y-70970797D01*
X172298255Y-70249120D01*
X172555687Y-70249120D01*
X172555687Y-71230000D01*
X172368109Y-71230000D01*
G37*
G36*
X172990440Y-71061960D02*
G01*
X173451570Y-71061960D01*
X173451570Y-71230000D01*
X172795045Y-71230000D01*
X172795045Y-70768930D01*
X172956917Y-70675080D01*
X173256176Y-70675080D01*
X173256176Y-70417159D01*
X172990440Y-70417159D01*
X172990440Y-70543311D01*
X172795045Y-70543311D01*
X172795045Y-70342971D01*
X172956917Y-70249120D01*
X173289698Y-70249120D01*
X173451570Y-70342971D01*
X173451570Y-70749269D01*
X173289698Y-70843119D01*
X172990440Y-70843119D01*
X172990440Y-71061960D01*
G37*
G36*
X174246960Y-60335310D02*
G01*
X174246960Y-59874179D01*
X174415000Y-59874179D01*
X174415000Y-60530704D01*
X173953930Y-60530704D01*
X173860080Y-60368832D01*
X173860080Y-60069573D01*
X173602159Y-60069573D01*
X173602159Y-60335310D01*
X173728311Y-60335310D01*
X173728311Y-60530704D01*
X173527971Y-60530704D01*
X173434120Y-60368832D01*
X173434120Y-60036051D01*
X173527971Y-59874179D01*
X173934269Y-59874179D01*
X174028119Y-60036051D01*
X174028119Y-60335310D01*
X174246960Y-60335310D01*
G37*
G36*
X173763237Y-63788694D02*
G01*
X173580055Y-63788694D01*
X173436074Y-63538040D01*
X173436074Y-63370550D01*
X174246960Y-63370550D01*
X174246960Y-63143893D01*
X174415000Y-63143893D01*
X174415000Y-63788694D01*
X174246960Y-63788694D01*
X174246960Y-63565944D01*
X173634583Y-63565944D01*
X173763237Y-63788694D01*
G37*
G36*
X146336762Y-56711305D02*
G01*
X146519944Y-56711305D01*
X146663925Y-56961959D01*
X146663925Y-57129449D01*
X145853039Y-57129449D01*
X145853039Y-57356106D01*
X145685000Y-57356106D01*
X145685000Y-56711305D01*
X145853039Y-56711305D01*
X145853039Y-56934055D01*
X146465416Y-56934055D01*
X146336762Y-56711305D01*
G37*
G36*
X145853039Y-60264689D02*
G01*
X145853039Y-60725820D01*
X145685000Y-60725820D01*
X145685000Y-60069295D01*
X146146069Y-60069295D01*
X146239919Y-60231167D01*
X146239919Y-60530426D01*
X146497840Y-60530426D01*
X146497840Y-60264689D01*
X146371688Y-60264689D01*
X146371688Y-60069295D01*
X146572028Y-60069295D01*
X146665879Y-60231167D01*
X146665879Y-60563948D01*
X146572028Y-60725820D01*
X146165730Y-60725820D01*
X146071880Y-60563948D01*
X146071880Y-60264689D01*
X145853039Y-60264689D01*
G37*
D12*
G36*
X146021751Y-72178855D02*
G01*
X145624063Y-72178855D01*
X145530212Y-72018449D01*
X145530212Y-71664663D01*
X145624063Y-71502791D01*
X145810542Y-71502791D01*
X145810542Y-71698185D01*
X145698251Y-71698185D01*
X145698251Y-71983461D01*
X145932725Y-71983461D01*
X145932725Y-71664663D01*
X146027369Y-71502791D01*
X146428965Y-71502791D01*
X146522815Y-71664663D01*
X146522815Y-72032309D01*
X146428965Y-72194487D01*
X146244562Y-72194487D01*
X146244562Y-71999092D01*
X146354776Y-71999092D01*
X146354776Y-71698185D01*
X146116395Y-71698185D01*
X146116395Y-72018449D01*
X146021751Y-72178855D01*
G37*
G36*
X146346960Y-71070969D02*
G01*
X146346960Y-70609839D01*
X146515000Y-70609839D01*
X146515000Y-71266364D01*
X146053930Y-71266364D01*
X145960080Y-71104492D01*
X145960080Y-70805233D01*
X145702159Y-70805233D01*
X145702159Y-71070969D01*
X145828311Y-71070969D01*
X145828311Y-71266364D01*
X145627971Y-71266364D01*
X145534120Y-71104492D01*
X145534120Y-70771711D01*
X145627971Y-70609839D01*
X146034269Y-70609839D01*
X146128119Y-70771711D01*
X146128119Y-71070969D01*
X146346960Y-71070969D01*
G37*
G36*
X148521751Y-72178855D02*
G01*
X148124063Y-72178855D01*
X148030212Y-72018449D01*
X148030212Y-71664663D01*
X148124063Y-71502791D01*
X148310542Y-71502791D01*
X148310542Y-71698185D01*
X148198251Y-71698185D01*
X148198251Y-71983461D01*
X148432725Y-71983461D01*
X148432725Y-71664663D01*
X148527369Y-71502791D01*
X148928965Y-71502791D01*
X149022815Y-71664663D01*
X149022815Y-72032309D01*
X148928965Y-72194487D01*
X148744562Y-72194487D01*
X148744562Y-71999092D01*
X148854776Y-71999092D01*
X148854776Y-71698185D01*
X148616395Y-71698185D01*
X148616395Y-72018449D01*
X148521751Y-72178855D01*
G37*
G36*
X148363237Y-71266364D02*
G01*
X148180055Y-71266364D01*
X148036074Y-71015710D01*
X148036074Y-70848220D01*
X148846960Y-70848220D01*
X148846960Y-70621563D01*
X149015000Y-70621563D01*
X149015000Y-71266364D01*
X148846960Y-71266364D01*
X148846960Y-71043614D01*
X148234583Y-71043614D01*
X148363237Y-71266364D01*
G37*
G36*
X150706067Y-72160013D02*
G01*
X150893646Y-72160013D01*
X150893646Y-71864663D01*
X150987496Y-71702791D01*
X151428965Y-71702791D01*
X151522815Y-71864663D01*
X151522815Y-72220952D01*
X151428965Y-72382763D01*
X151229785Y-72382763D01*
X151229785Y-72187369D01*
X151354776Y-72187369D01*
X151354776Y-71898185D01*
X151061685Y-71898185D01*
X151061685Y-72355408D01*
X150538028Y-72355408D01*
X150538028Y-71716713D01*
X150706067Y-71716713D01*
X150706067Y-72160013D01*
G37*
G36*
X150536074Y-70646990D02*
G01*
X151515000Y-70996990D01*
X151515000Y-71212595D01*
X150536074Y-71562595D01*
X150536074Y-71363782D01*
X151275886Y-71104823D01*
X151275886Y-71102015D01*
X150536074Y-70845804D01*
X150536074Y-70646990D01*
G37*
G36*
X150863237Y-70145498D02*
G01*
X150680055Y-70145498D01*
X150536074Y-69894844D01*
X150536074Y-69727355D01*
X151346960Y-69727355D01*
X151346960Y-69500697D01*
X151515000Y-69500697D01*
X151515000Y-70145498D01*
X151346960Y-70145498D01*
X151346960Y-69922749D01*
X150734583Y-69922749D01*
X150863237Y-70145498D01*
G37*
G36*
X151515000Y-68721502D02*
G01*
X151303974Y-68795690D01*
X151303974Y-69162482D01*
X151515000Y-69236671D01*
X151515000Y-69429867D01*
X150536074Y-69079867D01*
X150536074Y-68977651D01*
X150781966Y-68977651D01*
X150781966Y-68980460D01*
X151135935Y-69103681D01*
X151135935Y-68855896D01*
X150781966Y-68977651D01*
X150536074Y-68977651D01*
X150536074Y-68878244D01*
X151515000Y-68528244D01*
X151515000Y-68721502D01*
G37*
G36*
X153675013Y-72031481D02*
G01*
X153506974Y-72031481D01*
X153506974Y-71675436D01*
X153928965Y-71675436D01*
X154022815Y-71837308D01*
X154022815Y-72232615D01*
X153928965Y-72394487D01*
X153124063Y-72394487D01*
X153030212Y-72232615D01*
X153030212Y-71837308D01*
X153124063Y-71675436D01*
X153324586Y-71675436D01*
X153324586Y-71870830D01*
X153198251Y-71870830D01*
X153198251Y-72199092D01*
X153854776Y-72199092D01*
X153854776Y-71870830D01*
X153675013Y-71870830D01*
X153675013Y-72031481D01*
G37*
G36*
X153380212Y-71253384D02*
G01*
X154015000Y-71253384D01*
X154015000Y-71452686D01*
X153034120Y-71452686D01*
X153034120Y-71267489D01*
X153668907Y-70846964D01*
X153034120Y-70846964D01*
X153034120Y-70647662D01*
X154015000Y-70647662D01*
X154015000Y-70832859D01*
X153380212Y-71253384D01*
G37*
G36*
X154015000Y-69810092D02*
G01*
X154015000Y-70410258D01*
X153034120Y-70410258D01*
X153034120Y-70214863D01*
X153202159Y-70214863D01*
X153846960Y-70214863D01*
X153846960Y-69843614D01*
X153202159Y-69843614D01*
X153202159Y-70214863D01*
X153034120Y-70214863D01*
X153034120Y-69810092D01*
X153127971Y-69648220D01*
X153921149Y-69648220D01*
X154015000Y-69810092D01*
G37*
G36*
X156021751Y-71278855D02*
G01*
X155624063Y-71278855D01*
X155530212Y-71118449D01*
X155530212Y-70764663D01*
X155624063Y-70602791D01*
X155810542Y-70602791D01*
X155810542Y-70798185D01*
X155698251Y-70798185D01*
X155698251Y-71083461D01*
X155932725Y-71083461D01*
X155932725Y-70764663D01*
X156027369Y-70602791D01*
X156428965Y-70602791D01*
X156522815Y-70764663D01*
X156522815Y-71132309D01*
X156428965Y-71294487D01*
X156244562Y-71294487D01*
X156244562Y-71099092D01*
X156354776Y-71099092D01*
X156354776Y-70798185D01*
X156116395Y-70798185D01*
X156116395Y-71118449D01*
X156021751Y-71278855D01*
G37*
G36*
X155702159Y-69987299D02*
G01*
X156515000Y-69987299D01*
X156515000Y-70182693D01*
X155702159Y-70182693D01*
X155702159Y-70448429D01*
X155534120Y-70448429D01*
X155534120Y-69721563D01*
X155702159Y-69721563D01*
X155702159Y-69987299D01*
G37*
G36*
X156515000Y-69029317D02*
G01*
X156303974Y-69103506D01*
X156303974Y-69470298D01*
X156515000Y-69544487D01*
X156515000Y-69737683D01*
X155536074Y-69387683D01*
X155536074Y-69285467D01*
X155781966Y-69285467D01*
X155781966Y-69288276D01*
X156135935Y-69411496D01*
X156135935Y-69163712D01*
X155781966Y-69285467D01*
X155536074Y-69285467D01*
X155536074Y-69186060D01*
X156515000Y-68836060D01*
X156515000Y-69029317D01*
G37*
G36*
X155702159Y-68388974D02*
G01*
X156515000Y-68388974D01*
X156515000Y-68584368D01*
X155702159Y-68584368D01*
X155702159Y-68850104D01*
X155534120Y-68850104D01*
X155534120Y-68123237D01*
X155702159Y-68123237D01*
X155702159Y-68388974D01*
G37*
G36*
X155536074Y-67407117D02*
G01*
X155536074Y-67211723D01*
X156428171Y-67211723D01*
X156522815Y-67373595D01*
X156522815Y-67811889D01*
X156428171Y-67973761D01*
X155536074Y-67973761D01*
X155536074Y-67778367D01*
X156339145Y-67778367D01*
X156339145Y-67407117D01*
X155536074Y-67407117D01*
G37*
G36*
X156021751Y-66969434D02*
G01*
X155624063Y-66969434D01*
X155530212Y-66809028D01*
X155530212Y-66455242D01*
X155624063Y-66293370D01*
X155810542Y-66293370D01*
X155810542Y-66488764D01*
X155698251Y-66488764D01*
X155698251Y-66774040D01*
X155932725Y-66774040D01*
X155932725Y-66455242D01*
X156027369Y-66293370D01*
X156428965Y-66293370D01*
X156522815Y-66455242D01*
X156522815Y-66822889D01*
X156428965Y-66985066D01*
X156244562Y-66985066D01*
X156244562Y-66789672D01*
X156354776Y-66789672D01*
X156354776Y-66488764D01*
X156116395Y-66488764D01*
X156116395Y-66809028D01*
X156021751Y-66969434D01*
G37*
G36*
X162130000Y-61674502D02*
G01*
X162130000Y-62274668D01*
X161149120Y-62274668D01*
X161149120Y-62079274D01*
X161317159Y-62079274D01*
X161961960Y-62079274D01*
X161961960Y-61708025D01*
X161317159Y-61708025D01*
X161317159Y-62079274D01*
X161149120Y-62079274D01*
X161149120Y-61674502D01*
X161242971Y-61512630D01*
X162036149Y-61512630D01*
X162130000Y-61674502D01*
G37*
G36*
X162130000Y-60747234D02*
G01*
X161762658Y-60957100D01*
X161762658Y-61078855D01*
X162130000Y-61078855D01*
X162130000Y-61274249D01*
X161149120Y-61274249D01*
X161149120Y-61078855D01*
X161317159Y-61078855D01*
X161594619Y-61078855D01*
X161594619Y-60777948D01*
X161317159Y-60777948D01*
X161317159Y-61078855D01*
X161149120Y-61078855D01*
X161149120Y-60744425D01*
X161242971Y-60582553D01*
X161668808Y-60582553D01*
X161762658Y-60744425D01*
X162130000Y-60532117D01*
X162130000Y-60747234D01*
G37*
G36*
X161151074Y-59524799D02*
G01*
X162130000Y-59874799D01*
X162130000Y-60090404D01*
X161151074Y-60440404D01*
X161151074Y-60241590D01*
X161890886Y-59982632D01*
X161890886Y-59979823D01*
X161151074Y-59723612D01*
X161151074Y-59524799D01*
G37*
G36*
X161961960Y-59191346D02*
G01*
X161961960Y-58730216D01*
X162130000Y-58730216D01*
X162130000Y-59386741D01*
X161668930Y-59386741D01*
X161575080Y-59224869D01*
X161575080Y-58925610D01*
X161317159Y-58925610D01*
X161317159Y-59191346D01*
X161443311Y-59191346D01*
X161443311Y-59386741D01*
X161242971Y-59386741D01*
X161149120Y-59224869D01*
X161149120Y-58892088D01*
X161242971Y-58730216D01*
X161649269Y-58730216D01*
X161743119Y-58892088D01*
X161743119Y-59191346D01*
X161961960Y-59191346D01*
G37*
G36*
X150131960Y-64387787D02*
G01*
X149487159Y-64387787D01*
X149487159Y-64016538D01*
X150131960Y-64016538D01*
X150131960Y-64387787D01*
G37*
G36*
X150418926Y-66965751D02*
G01*
X149204101Y-66965751D01*
X149204101Y-66324816D01*
X149315212Y-66324816D01*
X149315212Y-66678602D01*
X149409063Y-66839008D01*
X149806751Y-66839008D01*
X149901395Y-66678602D01*
X149901395Y-66358338D01*
X150139776Y-66358338D01*
X150139776Y-66659245D01*
X150029562Y-66659245D01*
X150029562Y-66854640D01*
X150213965Y-66854640D01*
X150307815Y-66692462D01*
X150307815Y-66324816D01*
X150213965Y-66162944D01*
X149812369Y-66162944D01*
X149717725Y-66324816D01*
X149717725Y-66643614D01*
X149483251Y-66643614D01*
X149483251Y-66358338D01*
X149595542Y-66358338D01*
X149595542Y-66162944D01*
X149409063Y-66162944D01*
X149315212Y-66324816D01*
X149204101Y-66324816D01*
X149204101Y-64925182D01*
X149321074Y-64925182D01*
X149989567Y-65090351D01*
X149989567Y-65093160D01*
X149321074Y-65272373D01*
X149321074Y-65471126D01*
X149992315Y-65650339D01*
X149992315Y-65653148D01*
X149321074Y-65818378D01*
X149321074Y-66008766D01*
X150300000Y-65759577D01*
X150300000Y-65549528D01*
X149638529Y-65373124D01*
X149638529Y-65370376D01*
X150300000Y-65193971D01*
X150300000Y-64983984D01*
X149321074Y-64734734D01*
X149321074Y-64925182D01*
X149204101Y-64925182D01*
X149204101Y-63983015D01*
X149319120Y-63983015D01*
X149319120Y-64387787D01*
X149319120Y-64583181D01*
X150300000Y-64583181D01*
X150300000Y-63983015D01*
X150206149Y-63821143D01*
X149412971Y-63821143D01*
X149319120Y-63983015D01*
X149204101Y-63983015D01*
X149204101Y-63710032D01*
X150418926Y-63710032D01*
X150418926Y-66965751D01*
G37*
G36*
X158850879Y-59367507D02*
G01*
X158757028Y-59529379D01*
X157963850Y-59529379D01*
X157870000Y-59367507D01*
X157870000Y-59333984D01*
X158038039Y-59333984D01*
X158682840Y-59333984D01*
X158682840Y-58962735D01*
X158038039Y-58962735D01*
X158038039Y-59333984D01*
X157870000Y-59333984D01*
X157870000Y-58767341D01*
X158850879Y-58767341D01*
X158850879Y-59367507D01*
G37*
G36*
X158850879Y-60297584D02*
G01*
X158757028Y-60459456D01*
X158331191Y-60459456D01*
X158237341Y-60297584D01*
X157870000Y-60509892D01*
X157870000Y-60294775D01*
X157923761Y-60264061D01*
X158405380Y-60264061D01*
X158682840Y-60264061D01*
X158682840Y-59963154D01*
X158405380Y-59963154D01*
X158405380Y-60264061D01*
X157923761Y-60264061D01*
X158237341Y-60084909D01*
X158237341Y-59963154D01*
X157870000Y-59963154D01*
X157870000Y-59767760D01*
X158850879Y-59767760D01*
X158850879Y-60297584D01*
G37*
G36*
X158848925Y-61517210D02*
G01*
X157870000Y-61167210D01*
X157870000Y-60951605D01*
X158848925Y-60601605D01*
X158848925Y-60800419D01*
X158109113Y-61059377D01*
X158109113Y-61062186D01*
X158848925Y-61318397D01*
X158848925Y-61517210D01*
G37*
G36*
X158521762Y-61655268D02*
G01*
X158704944Y-61655268D01*
X158848925Y-61905923D01*
X158848925Y-62073412D01*
X158038039Y-62073412D01*
X158038039Y-62300070D01*
X157870000Y-62300070D01*
X157870000Y-61655268D01*
X158038039Y-61655268D01*
X158038039Y-61878018D01*
X158650416Y-61878018D01*
X158521762Y-61655268D01*
G37*
D11*
G36*
X173936666Y-53746614D02*
G01*
X173936666Y-53342148D01*
X173532199Y-53342148D01*
X173532199Y-53060780D01*
X173936666Y-53060780D01*
X173936666Y-52656314D01*
X174218033Y-52656314D01*
X174218033Y-53060780D01*
X174622500Y-53060780D01*
X174622500Y-53342148D01*
X174218033Y-53342148D01*
X174218033Y-53746614D01*
X173936666Y-53746614D01*
G37*
G36*
X174206310Y-57047452D02*
G01*
X173942527Y-57047452D01*
X173942527Y-56156454D01*
X174206310Y-56156454D01*
X174206310Y-57047452D01*
G37*
%TO.C,R5*%
D13*
X163762742Y-56477500D02*
X164237258Y-56477500D01*
X163762742Y-57522500D02*
X164237258Y-57522500D01*
%TO.C,C5*%
X161490000Y-73140580D02*
X161490000Y-72859420D01*
X162510000Y-73140580D02*
X162510000Y-72859420D01*
%TO.C,C6*%
X158859419Y-67990000D02*
X159140581Y-67990000D01*
X158859419Y-69010000D02*
X159140581Y-69010000D01*
%TO.C,C11*%
X164590000Y-63590000D02*
X164590000Y-65940000D01*
X164590000Y-70410000D02*
X164590000Y-68060000D01*
X170345563Y-63590000D02*
X164590000Y-63590000D01*
X170345563Y-70410000D02*
X164590000Y-70410000D01*
X171410000Y-64654437D02*
X170345563Y-63590000D01*
X171410000Y-64654437D02*
X171410000Y-65940000D01*
X171410000Y-69345563D02*
X170345563Y-70410000D01*
X171410000Y-69345563D02*
X171410000Y-68060000D01*
X172043750Y-69241250D02*
X172043750Y-68453750D01*
X172437500Y-68847500D02*
X171650000Y-68847500D01*
%TO.C,U6*%
D11*
X156075000Y-57925000D02*
X151925000Y-57925000D01*
X156075000Y-63075000D02*
X151925000Y-63075000D01*
D13*
X156675000Y-62975000D02*
X156915000Y-63305000D01*
X156435000Y-63305000D01*
X156675000Y-62975000D01*
G36*
X156915000Y-63305000D02*
G01*
X156435000Y-63305000D01*
X156675000Y-62975000D01*
X156915000Y-63305000D01*
G37*
%TO.C,R2*%
X163037258Y-68477500D02*
X162562742Y-68477500D01*
X163037258Y-69522500D02*
X162562742Y-69522500D01*
%TO.C,C8*%
X150040580Y-55490000D02*
X149759420Y-55490000D01*
X150040580Y-56510000D02*
X149759420Y-56510000D01*
%TO.C,C4*%
X158859419Y-69990000D02*
X159140581Y-69990000D01*
X158859419Y-71010000D02*
X159140581Y-71010000D01*
%TO.C,D2*%
X155265000Y-71515000D02*
X155265000Y-73800000D01*
X156735000Y-71515000D02*
X155265000Y-71515000D01*
X156735000Y-73800000D02*
X156735000Y-71515000D01*
%TO.C,R4*%
X154237258Y-63777500D02*
X153762742Y-63777500D01*
X154237258Y-64822500D02*
X153762742Y-64822500D01*
%TO.C,U2*%
X164590000Y-71440000D02*
X166410000Y-71440000D01*
X164590000Y-71490000D02*
X164590000Y-71440000D01*
X164590000Y-73390000D02*
X164590000Y-72610000D01*
X164590000Y-74560000D02*
X164590000Y-74510000D01*
X166410000Y-71440000D02*
X166410000Y-71490000D01*
X166410000Y-74510000D02*
X166410000Y-74560000D01*
X166410000Y-74560000D02*
X164590000Y-74560000D01*
X166950000Y-74510000D02*
X167190000Y-74840000D01*
X166710000Y-74840000D01*
X166950000Y-74510000D01*
G36*
X167190000Y-74840000D02*
G01*
X166710000Y-74840000D01*
X166950000Y-74510000D01*
X167190000Y-74840000D01*
G37*
%TO.C,C9*%
X173490000Y-67859420D02*
X173490000Y-68140580D01*
X174510000Y-67859420D02*
X174510000Y-68140580D01*
%TO.C,C1*%
X168265000Y-52538748D02*
X168265000Y-53061252D01*
X169735000Y-52538748D02*
X169735000Y-53061252D01*
%TO.C,C10*%
X150562500Y-51652500D02*
X151350000Y-51652500D01*
X150956250Y-51258750D02*
X150956250Y-52046250D01*
X151590000Y-51154437D02*
X151590000Y-52440000D01*
X151590000Y-51154437D02*
X152654437Y-50090000D01*
X151590000Y-55845563D02*
X151590000Y-54560000D01*
X151590000Y-55845563D02*
X152654437Y-56910000D01*
X152654437Y-50090000D02*
X158410000Y-50090000D01*
X152654437Y-56910000D02*
X158410000Y-56910000D01*
X158410000Y-50090000D02*
X158410000Y-52440000D01*
X158410000Y-56910000D02*
X158410000Y-54560000D01*
%TO.C,U7*%
D11*
X163925000Y-57925000D02*
X168075000Y-57925000D01*
X163925000Y-63075000D02*
X168075000Y-63075000D01*
D13*
X163325000Y-58025000D02*
X163085000Y-57695000D01*
X163565000Y-57695000D01*
X163325000Y-58025000D01*
G36*
X163325000Y-58025000D02*
G01*
X163085000Y-57695000D01*
X163565000Y-57695000D01*
X163325000Y-58025000D01*
G37*
%TO.C,U3*%
X157380000Y-63880000D02*
X157380000Y-64089999D01*
X157380000Y-63880000D02*
X157589999Y-63880000D01*
X160620000Y-63880000D02*
X160410001Y-63880000D01*
X160620000Y-63880000D02*
X160620000Y-64089999D01*
X160620000Y-67120000D02*
X160410001Y-67120000D01*
X160620000Y-67120000D02*
X160620000Y-66910001D01*
X157590000Y-67190000D02*
X157260000Y-67430000D01*
X157260000Y-66950000D01*
X157590000Y-67190000D01*
G36*
X157590000Y-67190000D02*
G01*
X157260000Y-67430000D01*
X157260000Y-66950000D01*
X157590000Y-67190000D01*
G37*
%TO.C,J2*%
X146230000Y-65095000D02*
X146865000Y-65095000D01*
X146230000Y-65730000D02*
X146230000Y-65095000D01*
%TO.C,U1*%
X163140000Y-51140000D02*
X165860000Y-51140000D01*
X163140000Y-52120000D02*
X163140000Y-51140000D01*
X163140000Y-54880000D02*
X163140000Y-55860000D01*
X165720000Y-55860000D02*
X163140000Y-55860000D01*
X166270000Y-55710000D02*
X166510000Y-56040000D01*
X166030000Y-56040000D01*
X166270000Y-55710000D01*
G36*
X166510000Y-56040000D02*
G01*
X166030000Y-56040000D01*
X166270000Y-55710000D01*
X166510000Y-56040000D01*
G37*
%TO.C,C3*%
X160490000Y-54859420D02*
X160490000Y-55140580D01*
X161510000Y-54859420D02*
X161510000Y-55140580D01*
%TO.C,R3*%
X162562742Y-70077500D02*
X163037258Y-70077500D01*
X162562742Y-71122500D02*
X163037258Y-71122500D01*
%TO.C,C2*%
X168490000Y-73140580D02*
X168490000Y-72859420D01*
X169510000Y-73140580D02*
X169510000Y-72859420D01*
%TO.C,R6*%
X158737258Y-73277500D02*
X158262742Y-73277500D01*
X158737258Y-74322500D02*
X158262742Y-74322500D01*
%TD*%
M02*
